G04*
G04 #@! TF.GenerationSoftware,Altium Limited,Altium Designer,21.0.9 (235)*
G04*
G04 Layer_Color=16711935*
%FSLAX24Y24*%
%MOIN*%
G70*
G04*
G04 #@! TF.SameCoordinates,03FFB426-F04E-41D0-9F73-41BCBE92060F*
G04*
G04*
G04 #@! TF.FilePolarity,Positive*
G04*
G01*
G75*
%ADD14C,0.0100*%
D14*
X37509Y-12121D02*
G03*
X36901Y-11900I-607J-724D01*
G01*
X33752D02*
G03*
X33144Y-12121I0J-945D01*
G01*
X37574Y-12187D02*
G03*
X38331Y-12500I756J756D01*
G01*
X32322D02*
G03*
X33079Y-12187I0J1069D01*
G01*
X0Y3004D02*
G03*
X313Y2248I1069J0D01*
G01*
Y-2248D02*
G03*
X0Y-3004I756J-756D01*
G01*
X600Y1575D02*
G03*
X379Y2182I-945J0D01*
G01*
Y-2182D02*
G03*
X600Y-1575I-724J607D01*
G01*
X400Y12500D02*
G03*
X0Y12100I0J-400D01*
G01*
Y-12100D02*
G03*
X400Y-12500I400J0D01*
G01*
X52350Y-12500D02*
G03*
X52750Y-12100I0J400D01*
G01*
Y12100D02*
G03*
X52350Y12500I-400J0D01*
G01*
X33752Y-11900D02*
X36901D01*
X37509Y-12121D02*
X37574Y-12187D01*
X33079D02*
X33144Y-12121D01*
X313Y2248D02*
X379Y2182D01*
X313Y-2248D02*
X379Y-2182D01*
X600Y-1575D02*
Y1575D01*
X0Y3004D02*
Y12100D01*
Y-12100D02*
Y-3004D01*
X38331Y-12500D02*
X52350Y-12500D01*
X400Y-12500D02*
X32322Y-12500D01*
X52750Y5400D02*
Y12100D01*
Y-12100D02*
Y-9500D01*
X53750Y-8500D01*
Y4400D01*
X52750Y5400D02*
X53750Y4400D01*
X400Y12500D02*
X52350D01*
M02*
