%TF.GenerationSoftware,KiCad,Pcbnew,9.0.6*%
%TF.CreationDate,2026-01-21T16:07:36-06:00*%
%TF.ProjectId,wearable,77656172-6162-46c6-952e-6b696361645f,rev?*%
%TF.SameCoordinates,Original*%
%TF.FileFunction,Copper,L3,Inr*%
%TF.FilePolarity,Positive*%
%FSLAX46Y46*%
G04 Gerber Fmt 4.6, Leading zero omitted, Abs format (unit mm)*
G04 Created by KiCad (PCBNEW 9.0.6) date 2026-01-21 16:07:36*
%MOMM*%
%LPD*%
G01*
G04 APERTURE LIST*
G04 Aperture macros list*
%AMRoundRect*
0 Rectangle with rounded corners*
0 $1 Rounding radius*
0 $2 $3 $4 $5 $6 $7 $8 $9 X,Y pos of 4 corners*
0 Add a 4 corners polygon primitive as box body*
4,1,4,$2,$3,$4,$5,$6,$7,$8,$9,$2,$3,0*
0 Add four circle primitives for the rounded corners*
1,1,$1+$1,$2,$3*
1,1,$1+$1,$4,$5*
1,1,$1+$1,$6,$7*
1,1,$1+$1,$8,$9*
0 Add four rect primitives between the rounded corners*
20,1,$1+$1,$2,$3,$4,$5,0*
20,1,$1+$1,$4,$5,$6,$7,0*
20,1,$1+$1,$6,$7,$8,$9,0*
20,1,$1+$1,$8,$9,$2,$3,0*%
G04 Aperture macros list end*
%TA.AperFunction,ComponentPad*%
%ADD10C,1.000000*%
%TD*%
%TA.AperFunction,ComponentPad*%
%ADD11C,1.400000*%
%TD*%
%TA.AperFunction,ComponentPad*%
%ADD12C,4.318000*%
%TD*%
%TA.AperFunction,ComponentPad*%
%ADD13R,0.850000X0.850000*%
%TD*%
%TA.AperFunction,ComponentPad*%
%ADD14R,1.000000X1.000000*%
%TD*%
%TA.AperFunction,ComponentPad*%
%ADD15R,1.700000X1.700000*%
%TD*%
%TA.AperFunction,ComponentPad*%
%ADD16C,1.700000*%
%TD*%
%TA.AperFunction,ComponentPad*%
%ADD17RoundRect,0.250000X-0.350000X-0.625000X0.350000X-0.625000X0.350000X0.625000X-0.350000X0.625000X0*%
%TD*%
%TA.AperFunction,ComponentPad*%
%ADD18O,1.200000X1.750000*%
%TD*%
%TA.AperFunction,HeatsinkPad*%
%ADD19C,0.500000*%
%TD*%
%TA.AperFunction,ViaPad*%
%ADD20C,0.600000*%
%TD*%
G04 APERTURE END LIST*
D10*
%TO.N,DRDY*%
%TO.C,TP8*%
X142000000Y-91500000D03*
%TD*%
%TO.N,SCK*%
%TO.C,TP14*%
X144500000Y-90500000D03*
%TD*%
D11*
%TO.N,AVDD*%
%TO.C,TP2*%
X123000000Y-88000000D03*
X125000000Y-88000000D03*
%TD*%
D10*
%TO.N,INT_BNO085*%
%TO.C,TP6*%
X139500000Y-112750000D03*
%TD*%
D12*
%TO.N,unconnected-(H4-Hole-Pad1)*%
%TO.C,H4*%
X186850000Y-117000000D03*
%TD*%
D10*
%TO.N,SCL*%
%TO.C,TP15*%
X153500000Y-88750000D03*
%TD*%
D12*
%TO.N,unconnected-(H1-Hole-Pad1)*%
%TO.C,H1*%
X112600000Y-86000000D03*
%TD*%
D10*
%TO.N,RST_ADS1299*%
%TO.C,TP4*%
X137360000Y-88000000D03*
%TD*%
%TO.N,START_ADS1299*%
%TO.C,TP3*%
X134900000Y-88000000D03*
%TD*%
D13*
%TO.N,Net-(E3-Pad1)*%
%TO.C,E3*%
X113850000Y-101950000D03*
%TD*%
D10*
%TO.N,MISO*%
%TO.C,TP11*%
X137600000Y-114200000D03*
%TD*%
%TO.N,CS_ADS1299*%
%TO.C,TP5*%
X137250000Y-111500000D03*
%TD*%
%TO.N,BOOT_BNO085*%
%TO.C,TP10*%
X143500000Y-111000000D03*
%TD*%
%TO.N,MOSI*%
%TO.C,TP9*%
X141500000Y-111500000D03*
%TD*%
%TO.N,SDA*%
%TO.C,TP13*%
X175400000Y-112200000D03*
%TD*%
D13*
%TO.N,Net-(E1-Pad1)*%
%TO.C,E1*%
X113850000Y-95850000D03*
%TD*%
%TO.N,Net-(U1-BIASIN)*%
%TO.C,E5*%
X113850000Y-108250000D03*
%TD*%
D10*
%TO.N,RST_BNO085*%
%TO.C,TP12*%
X145000000Y-108500000D03*
%TD*%
D13*
%TO.N,Net-(E4-Pad1)*%
%TO.C,E4*%
X113850000Y-105000000D03*
%TD*%
D11*
%TO.N,AVSS*%
%TO.C,TP1*%
X117500000Y-88000000D03*
X119500000Y-88000000D03*
%TD*%
D12*
%TO.N,unconnected-(H3-Hole-Pad1)*%
%TO.C,H3*%
X186850000Y-86000000D03*
%TD*%
D14*
%TO.N,AVSS*%
%TO.C,SW1*%
X186250000Y-109000000D03*
D10*
%TO.N,Net-(U4-SHPHLD)*%
X186250000Y-107730000D03*
%TD*%
%TO.N,PWDWN_ADS1299*%
%TO.C,TP7*%
X139900000Y-88000000D03*
%TD*%
D12*
%TO.N,unconnected-(H2-Hole-Pad1)*%
%TO.C,H2*%
X112600000Y-117000000D03*
%TD*%
D15*
%TO.N,unconnected-(J1-Pin_1-Pad1)*%
%TO.C,J1*%
X162350000Y-87750000D03*
D16*
%TO.N,+5V_USB*%
X164890000Y-87750000D03*
%TO.N,unconnected-(J1-Pin_3-Pad3)*%
X167430000Y-87750000D03*
%TO.N,Net-(J1-Pin_4)*%
X169970000Y-87750000D03*
%TO.N,unconnected-(J1-Pin_5-Pad5)*%
X172510000Y-87750000D03*
%TO.N,unconnected-(J1-Pin_6-Pad6)*%
X175050000Y-87750000D03*
%TO.N,unconnected-(J1-Pin_7-Pad7)*%
X177590000Y-87750000D03*
%TO.N,Net-(J1-Pin_8)*%
X180130000Y-87750000D03*
%TD*%
D17*
%TO.N,Net-(BT1-+)*%
%TO.C,BT1*%
X179500000Y-111550000D03*
D18*
%TO.N,AVSS*%
X181500000Y-111550000D03*
%TD*%
D19*
%TO.N,AVSS*%
%TO.C,U4*%
X166500000Y-96000000D03*
X167500000Y-96000000D03*
X168500000Y-96000000D03*
X166500000Y-95000000D03*
X167500000Y-95000000D03*
X168500000Y-95000000D03*
X166500000Y-94000000D03*
X167500000Y-94000000D03*
X168500000Y-94000000D03*
%TD*%
D11*
%TO.N,AVSS*%
%TO.C,IC1*%
X139500000Y-105460000D03*
%TO.N,Net-(U1-VREFP)*%
X139500000Y-108000000D03*
%TO.N,AVSS*%
X139500000Y-110540000D03*
%TD*%
D13*
%TO.N,Net-(E2-Pad1)*%
%TO.C,E2*%
X113850000Y-98900000D03*
%TD*%
D20*
%TO.N,AVSS*%
X158400000Y-96100000D03*
X146000000Y-93000000D03*
X128400000Y-114654736D03*
X157777005Y-87371509D03*
X162000000Y-98000000D03*
X159750000Y-102019880D03*
X162000000Y-114800000D03*
X134500000Y-106000000D03*
X125900000Y-110600000D03*
X151580000Y-102000000D03*
X158000000Y-103000000D03*
X185000000Y-104090000D03*
X180950000Y-89950000D03*
X154603057Y-96457189D03*
X154500000Y-107750000D03*
X158250000Y-100250000D03*
X139160000Y-91960000D03*
X140800000Y-95500000D03*
%TO.N,Net-(BT1-+)*%
X169000000Y-90500000D03*
%TO.N,AVDD*%
X124100000Y-99200000D03*
X124250000Y-111250000D03*
X182920000Y-92268530D03*
X127540000Y-90540000D03*
X128500000Y-112800000D03*
X187500000Y-96750000D03*
X131000000Y-92600000D03*
X129000000Y-93000000D03*
%TO.N,+3V3*%
X139500000Y-93000000D03*
X146250000Y-105250000D03*
X136000000Y-106000000D03*
X176750000Y-107000000D03*
X158250000Y-104000000D03*
X170800000Y-101700000D03*
X153500000Y-106080001D03*
X157100000Y-91900000D03*
X147500000Y-99000000D03*
%TO.N,+5V3*%
X178500000Y-97750000D03*
X178090000Y-92410000D03*
%TO.N,RESET*%
X166000000Y-115200000D03*
X158877983Y-105616051D03*
%TO.N,INT_BNO085*%
X143992830Y-103604964D03*
X145075735Y-110924265D03*
X154750000Y-112420000D03*
%TO.N,BOOT_BNO085*%
X152812500Y-113625000D03*
X143200681Y-103493142D03*
%TO.N,PWDWN_ADS1299*%
X132420000Y-103080000D03*
%TO.N,RST_BNO085*%
X145000000Y-104500000D03*
X152814500Y-112314500D03*
%TO.N,START_ADS1299*%
X130920000Y-100650000D03*
%TO.N,RST_ADS1299*%
X131420000Y-101900000D03*
%TO.N,MISO*%
X148500000Y-106000000D03*
X146124265Y-110275736D03*
X138000000Y-99500000D03*
%TO.N,MOSI*%
X152500000Y-111500000D03*
X147000000Y-107500000D03*
%TO.N,SCL*%
X175000000Y-93121000D03*
X158468289Y-106303186D03*
%TO.N,SDA*%
X176250000Y-111250000D03*
X158341530Y-107425901D03*
X173500000Y-95385000D03*
X176218227Y-109213493D03*
%TO.N,SCK*%
X142851000Y-109149000D03*
X133000000Y-99500000D03*
X142750000Y-106900000D03*
X142000000Y-101000000D03*
%TO.N,CS_ADS1299*%
X133000000Y-100600000D03*
X155800003Y-112420000D03*
%TO.N,DRDY*%
X142900000Y-105242711D03*
X143000000Y-100500000D03*
X143000000Y-94000000D03*
%TO.N,GPIO1*%
X149000000Y-109000000D03*
X172018768Y-119000000D03*
%TO.N,GPIO0*%
X148000000Y-109000000D03*
X171000000Y-119000000D03*
%TO.N,Net-(U2-DECA)*%
X154499460Y-97230281D03*
X153000000Y-97730000D03*
X153000000Y-95000000D03*
X156500000Y-100250000D03*
%TO.N,Net-(J1-Pin_8)*%
X164500000Y-90968000D03*
%TO.N,Net-(J1-Pin_4)*%
X165500000Y-90968000D03*
%TO.N,GPIO3*%
X151000000Y-108000000D03*
X173578774Y-119000000D03*
%TO.N,GPIO2*%
X149758949Y-108650000D03*
X172798771Y-119000000D03*
%TO.N,GPIO4*%
X174358777Y-119000000D03*
X152000000Y-107500000D03*
%TO.N,Net-(U1-VREFP)*%
X135964878Y-109785122D03*
X130500000Y-110000000D03*
%TO.N,Net-(U4-VOUT2)*%
X163750000Y-98050000D03*
X170900000Y-100700000D03*
%TO.N,Net-(U4-SHPHLD)*%
X179375000Y-90128000D03*
%TD*%
%TA.AperFunction,Conductor*%
%TO.N,AVDD*%
G36*
X184648970Y-83520185D02*
G01*
X184694725Y-83572989D01*
X184704669Y-83642147D01*
X184675644Y-83705703D01*
X184669612Y-83712181D01*
X184490431Y-83891361D01*
X184269175Y-84168808D01*
X184080371Y-84469287D01*
X183926410Y-84788991D01*
X183926401Y-84789013D01*
X183809201Y-85123948D01*
X183809197Y-85123960D01*
X183730233Y-85469926D01*
X183730231Y-85469942D01*
X183690500Y-85822561D01*
X183690500Y-86177438D01*
X183730231Y-86530057D01*
X183730233Y-86530073D01*
X183809197Y-86876039D01*
X183809201Y-86876051D01*
X183926401Y-87210986D01*
X183926410Y-87211008D01*
X184080371Y-87530712D01*
X184080375Y-87530718D01*
X184269176Y-87831193D01*
X184403795Y-88000000D01*
X184483101Y-88099447D01*
X184490432Y-88108639D01*
X184741361Y-88359568D01*
X185018807Y-88580824D01*
X185279600Y-88744691D01*
X185319287Y-88769628D01*
X185638991Y-88923589D01*
X185639000Y-88923592D01*
X185639007Y-88923596D01*
X185705268Y-88946782D01*
X185973948Y-89040798D01*
X185973960Y-89040802D01*
X186319930Y-89119767D01*
X186672562Y-89159499D01*
X186672563Y-89159500D01*
X186672566Y-89159500D01*
X187027437Y-89159500D01*
X187027437Y-89159499D01*
X187380070Y-89119767D01*
X187726040Y-89040802D01*
X188060993Y-88923596D01*
X188095437Y-88907009D01*
X188380712Y-88769628D01*
X188380712Y-88769627D01*
X188380718Y-88769625D01*
X188681193Y-88580824D01*
X188958639Y-88359568D01*
X189209568Y-88108639D01*
X189216899Y-88099447D01*
X189278553Y-88022135D01*
X189335741Y-87981994D01*
X189405552Y-87979144D01*
X189465822Y-88014489D01*
X189497416Y-88076808D01*
X189499500Y-88099447D01*
X189499500Y-114900552D01*
X189479815Y-114967591D01*
X189427011Y-115013346D01*
X189357853Y-115023290D01*
X189294297Y-114994265D01*
X189278553Y-114977865D01*
X189209568Y-114891361D01*
X188958638Y-114640431D01*
X188805598Y-114518386D01*
X188681193Y-114419176D01*
X188502045Y-114306610D01*
X188380712Y-114230371D01*
X188061008Y-114076410D01*
X188060986Y-114076401D01*
X187726051Y-113959201D01*
X187726039Y-113959197D01*
X187380073Y-113880233D01*
X187380057Y-113880231D01*
X187027438Y-113840500D01*
X187027434Y-113840500D01*
X186672566Y-113840500D01*
X186672561Y-113840500D01*
X186319942Y-113880231D01*
X186319926Y-113880233D01*
X185973960Y-113959197D01*
X185973948Y-113959201D01*
X185639013Y-114076401D01*
X185638991Y-114076410D01*
X185319287Y-114230371D01*
X185018808Y-114419175D01*
X184741361Y-114640431D01*
X184490431Y-114891361D01*
X184269175Y-115168808D01*
X184080371Y-115469287D01*
X183926410Y-115788991D01*
X183926401Y-115789013D01*
X183809201Y-116123948D01*
X183809197Y-116123960D01*
X183730233Y-116469926D01*
X183730231Y-116469942D01*
X183690500Y-116822561D01*
X183690500Y-117177438D01*
X183730231Y-117530057D01*
X183730233Y-117530073D01*
X183809197Y-117876039D01*
X183809201Y-117876051D01*
X183926401Y-118210986D01*
X183926410Y-118211008D01*
X184080371Y-118530712D01*
X184080375Y-118530718D01*
X184269176Y-118831193D01*
X184387163Y-118979144D01*
X184490431Y-119108638D01*
X184669612Y-119287819D01*
X184703097Y-119349142D01*
X184698113Y-119418834D01*
X184656241Y-119474767D01*
X184590777Y-119499184D01*
X184581931Y-119499500D01*
X175734578Y-119499500D01*
X175667539Y-119479815D01*
X175621784Y-119427011D01*
X175611840Y-119357853D01*
X175616647Y-119337183D01*
X175627252Y-119304542D01*
X175627252Y-119304538D01*
X175627254Y-119304534D01*
X175659277Y-119102352D01*
X175659277Y-118897648D01*
X175627254Y-118695466D01*
X175563997Y-118500781D01*
X175563995Y-118500778D01*
X175563995Y-118500776D01*
X175530280Y-118434607D01*
X175471064Y-118318390D01*
X175463333Y-118307749D01*
X175350748Y-118152786D01*
X175205990Y-118008028D01*
X175040390Y-117887715D01*
X175040389Y-117887714D01*
X175040387Y-117887713D01*
X174983430Y-117858691D01*
X174858000Y-117794781D01*
X174663311Y-117731522D01*
X174488772Y-117703878D01*
X174461129Y-117699500D01*
X174256425Y-117699500D01*
X174228781Y-117703878D01*
X174054243Y-117731522D01*
X174007090Y-117746843D01*
X173937249Y-117748837D01*
X173930457Y-117746842D01*
X173883309Y-117731523D01*
X173883304Y-117731522D01*
X173742138Y-117709163D01*
X173681126Y-117699500D01*
X173476422Y-117699500D01*
X173448778Y-117703878D01*
X173274240Y-117731522D01*
X173227087Y-117746843D01*
X173157246Y-117748837D01*
X173150454Y-117746842D01*
X173103306Y-117731523D01*
X173103301Y-117731522D01*
X172962135Y-117709163D01*
X172901123Y-117699500D01*
X172696419Y-117699500D01*
X172668775Y-117703878D01*
X172494237Y-117731522D01*
X172447084Y-117746843D01*
X172377243Y-117748837D01*
X172370451Y-117746842D01*
X172323303Y-117731523D01*
X172323298Y-117731522D01*
X172182132Y-117709163D01*
X172121120Y-117699500D01*
X171916416Y-117699500D01*
X171849022Y-117710174D01*
X171714232Y-117731523D01*
X171714229Y-117731523D01*
X171547702Y-117785632D01*
X171477861Y-117787627D01*
X171471066Y-117785632D01*
X171304536Y-117731523D01*
X171169746Y-117710174D01*
X171102352Y-117699500D01*
X170897648Y-117699500D01*
X170873329Y-117703351D01*
X170695465Y-117731522D01*
X170500776Y-117794781D01*
X170318386Y-117887715D01*
X170152786Y-118008028D01*
X170008028Y-118152786D01*
X169887715Y-118318386D01*
X169794781Y-118500776D01*
X169731522Y-118695465D01*
X169699500Y-118897648D01*
X169699500Y-119102351D01*
X169731523Y-119304535D01*
X169731524Y-119304542D01*
X169742130Y-119337183D01*
X169744125Y-119407024D01*
X169708044Y-119466857D01*
X169645343Y-119497684D01*
X169624199Y-119499500D01*
X114868069Y-119499500D01*
X114801030Y-119479815D01*
X114755275Y-119427011D01*
X114745331Y-119357853D01*
X114774356Y-119294297D01*
X114780388Y-119287819D01*
X114959568Y-119108639D01*
X115180824Y-118831193D01*
X115369625Y-118530718D01*
X115384044Y-118500776D01*
X115523589Y-118211008D01*
X115523590Y-118211004D01*
X115523596Y-118210993D01*
X115640802Y-117876040D01*
X115719767Y-117530070D01*
X115759500Y-117177434D01*
X115759500Y-116822566D01*
X115719767Y-116469930D01*
X115640802Y-116123960D01*
X115581762Y-115955236D01*
X115523598Y-115789013D01*
X115523589Y-115788991D01*
X115369628Y-115469287D01*
X115291228Y-115344514D01*
X115180824Y-115168807D01*
X114959568Y-114891361D01*
X114708639Y-114640432D01*
X114598230Y-114552384D01*
X127099500Y-114552384D01*
X127099500Y-114757087D01*
X127131522Y-114959270D01*
X127194781Y-115153959D01*
X127287715Y-115336349D01*
X127408028Y-115501949D01*
X127552786Y-115646707D01*
X127707749Y-115759292D01*
X127718390Y-115767023D01*
X127834607Y-115826239D01*
X127900776Y-115859954D01*
X127900778Y-115859954D01*
X127900781Y-115859956D01*
X128005137Y-115893863D01*
X128095465Y-115923213D01*
X128196557Y-115939224D01*
X128297648Y-115955236D01*
X128297649Y-115955236D01*
X128502351Y-115955236D01*
X128502352Y-115955236D01*
X128704534Y-115923213D01*
X128899219Y-115859956D01*
X129081610Y-115767023D01*
X129174935Y-115699219D01*
X129247213Y-115646707D01*
X129247215Y-115646704D01*
X129247219Y-115646702D01*
X129391966Y-115501955D01*
X129391968Y-115501951D01*
X129391971Y-115501949D01*
X129506350Y-115344517D01*
X129512287Y-115336346D01*
X129605220Y-115153955D01*
X129668477Y-114959270D01*
X129700500Y-114757088D01*
X129700500Y-114552384D01*
X129679402Y-114419176D01*
X129668477Y-114350201D01*
X129629543Y-114230375D01*
X129605220Y-114155517D01*
X129605218Y-114155514D01*
X129605218Y-114155512D01*
X129542969Y-114033343D01*
X129512287Y-113973126D01*
X129480615Y-113929533D01*
X129391971Y-113807522D01*
X129247213Y-113662764D01*
X129081613Y-113542451D01*
X129081612Y-113542450D01*
X129081610Y-113542449D01*
X128997318Y-113499500D01*
X128899223Y-113449517D01*
X128704534Y-113386258D01*
X128529995Y-113358614D01*
X128502352Y-113354236D01*
X128297648Y-113354236D01*
X128273329Y-113358087D01*
X128095465Y-113386258D01*
X127900776Y-113449517D01*
X127718386Y-113542451D01*
X127552786Y-113662764D01*
X127408028Y-113807522D01*
X127287715Y-113973122D01*
X127194781Y-114155512D01*
X127131522Y-114350201D01*
X127099500Y-114552384D01*
X114598230Y-114552384D01*
X114431193Y-114419176D01*
X114252045Y-114306610D01*
X114130712Y-114230371D01*
X113811008Y-114076410D01*
X113810986Y-114076401D01*
X113476051Y-113959201D01*
X113476039Y-113959197D01*
X113130073Y-113880233D01*
X113130057Y-113880231D01*
X112777438Y-113840500D01*
X112777434Y-113840500D01*
X112422566Y-113840500D01*
X112422561Y-113840500D01*
X112069942Y-113880231D01*
X112069926Y-113880233D01*
X111723960Y-113959197D01*
X111723948Y-113959201D01*
X111389013Y-114076401D01*
X111388991Y-114076410D01*
X111069287Y-114230371D01*
X110768808Y-114419175D01*
X110491361Y-114640431D01*
X110240431Y-114891361D01*
X110221447Y-114915167D01*
X110164258Y-114955307D01*
X110094447Y-114958157D01*
X110034177Y-114922811D01*
X110002584Y-114860492D01*
X110000500Y-114837854D01*
X110000500Y-110497648D01*
X124599500Y-110497648D01*
X124599500Y-110702351D01*
X124631522Y-110904534D01*
X124694781Y-111099223D01*
X124752602Y-111212701D01*
X124781021Y-111268477D01*
X124787715Y-111281613D01*
X124908028Y-111447213D01*
X125052786Y-111591971D01*
X125207749Y-111704556D01*
X125218390Y-111712287D01*
X125334570Y-111771484D01*
X125400776Y-111805218D01*
X125400778Y-111805218D01*
X125400781Y-111805220D01*
X125505137Y-111839127D01*
X125595465Y-111868477D01*
X125696557Y-111884488D01*
X125797648Y-111900500D01*
X125797649Y-111900500D01*
X126002351Y-111900500D01*
X126002352Y-111900500D01*
X126204534Y-111868477D01*
X126399219Y-111805220D01*
X126581610Y-111712287D01*
X126703117Y-111624008D01*
X126747213Y-111591971D01*
X126747215Y-111591968D01*
X126747219Y-111591966D01*
X126891966Y-111447219D01*
X126891968Y-111447215D01*
X126891971Y-111447213D01*
X126977020Y-111330151D01*
X127012287Y-111281610D01*
X127105220Y-111099219D01*
X127168477Y-110904534D01*
X127200500Y-110702352D01*
X127200500Y-110497648D01*
X127168477Y-110295466D01*
X127168254Y-110294781D01*
X127128531Y-110172526D01*
X127105220Y-110100781D01*
X127105218Y-110100778D01*
X127105218Y-110100776D01*
X127027920Y-109949071D01*
X127027919Y-109949069D01*
X127012286Y-109918388D01*
X126997218Y-109897648D01*
X129199500Y-109897648D01*
X129199500Y-110102351D01*
X129231522Y-110304534D01*
X129294781Y-110499223D01*
X129358691Y-110624653D01*
X129373026Y-110652786D01*
X129387715Y-110681613D01*
X129508028Y-110847213D01*
X129652786Y-110991971D01*
X129800403Y-111099219D01*
X129818390Y-111112287D01*
X129934607Y-111171503D01*
X130000776Y-111205218D01*
X130000778Y-111205218D01*
X130000781Y-111205220D01*
X130053933Y-111222490D01*
X130195465Y-111268477D01*
X130278383Y-111281610D01*
X130397648Y-111300500D01*
X130397649Y-111300500D01*
X130602351Y-111300500D01*
X130602352Y-111300500D01*
X130804534Y-111268477D01*
X130999219Y-111205220D01*
X131181610Y-111112287D01*
X131274590Y-111044732D01*
X131347213Y-110991971D01*
X131347215Y-110991968D01*
X131347219Y-110991966D01*
X131491966Y-110847219D01*
X131491968Y-110847215D01*
X131491971Y-110847213D01*
X131572878Y-110735852D01*
X131612287Y-110681610D01*
X131705220Y-110499219D01*
X131768477Y-110304534D01*
X131800500Y-110102352D01*
X131800500Y-109897648D01*
X131790260Y-109832997D01*
X131768767Y-109697296D01*
X131768477Y-109695465D01*
X131764352Y-109682770D01*
X134664378Y-109682770D01*
X134664378Y-109887474D01*
X134666003Y-109897734D01*
X134696400Y-110089656D01*
X134759659Y-110284345D01*
X134812329Y-110387713D01*
X134835867Y-110433910D01*
X134852593Y-110466735D01*
X134972906Y-110632335D01*
X135117664Y-110777093D01*
X135232856Y-110860783D01*
X135283268Y-110897409D01*
X135377583Y-110945465D01*
X135465654Y-110990340D01*
X135465656Y-110990340D01*
X135465659Y-110990342D01*
X135573915Y-111025516D01*
X135660340Y-111053598D01*
X135660341Y-111053598D01*
X135660344Y-111053599D01*
X135675568Y-111056010D01*
X135738702Y-111085936D01*
X135775635Y-111145246D01*
X135778646Y-111197881D01*
X135749500Y-111381902D01*
X135749500Y-111618097D01*
X135786446Y-111851368D01*
X135859433Y-112075996D01*
X135942599Y-112239216D01*
X135966657Y-112286433D01*
X136105483Y-112477510D01*
X136272490Y-112644517D01*
X136463567Y-112783343D01*
X136597329Y-112851498D01*
X136648124Y-112899471D01*
X136664919Y-112967292D01*
X136642382Y-113033427D01*
X136625669Y-113051772D01*
X136625935Y-113052038D01*
X136455485Y-113222487D01*
X136455485Y-113222488D01*
X136455483Y-113222490D01*
X136395862Y-113304550D01*
X136316657Y-113413566D01*
X136209433Y-113624003D01*
X136136446Y-113848631D01*
X136099500Y-114081902D01*
X136099500Y-114318097D01*
X136136446Y-114551368D01*
X136209433Y-114775996D01*
X136312291Y-114977865D01*
X136316657Y-114986433D01*
X136455483Y-115177510D01*
X136622490Y-115344517D01*
X136813567Y-115483343D01*
X136855157Y-115504534D01*
X137024003Y-115590566D01*
X137024005Y-115590566D01*
X137024008Y-115590568D01*
X137144412Y-115629689D01*
X137248631Y-115663553D01*
X137481903Y-115700500D01*
X137481908Y-115700500D01*
X137718097Y-115700500D01*
X137951368Y-115663553D01*
X138175992Y-115590568D01*
X138386433Y-115483343D01*
X138577510Y-115344517D01*
X138744517Y-115177510D01*
X138883343Y-114986433D01*
X138990568Y-114775992D01*
X139063553Y-114551368D01*
X139098432Y-114331147D01*
X139128361Y-114268013D01*
X139187672Y-114231081D01*
X139240302Y-114228072D01*
X139286316Y-114235359D01*
X139381904Y-114250500D01*
X139381908Y-114250500D01*
X139618097Y-114250500D01*
X139851368Y-114213553D01*
X139868372Y-114208028D01*
X140075992Y-114140568D01*
X140286433Y-114033343D01*
X140477510Y-113894517D01*
X140644517Y-113727510D01*
X140783343Y-113536433D01*
X140890568Y-113325992D01*
X140963553Y-113101368D01*
X140970659Y-113056500D01*
X141000585Y-112993369D01*
X141059896Y-112956437D01*
X141129759Y-112957433D01*
X141131342Y-112957935D01*
X141148632Y-112963553D01*
X141236110Y-112977408D01*
X141381903Y-113000500D01*
X141381908Y-113000500D01*
X141618097Y-113000500D01*
X141851368Y-112963553D01*
X142075992Y-112890568D01*
X142286433Y-112783343D01*
X142477510Y-112644517D01*
X142644517Y-112477510D01*
X142703878Y-112395805D01*
X142759208Y-112353139D01*
X142828821Y-112347160D01*
X142860492Y-112358205D01*
X142924003Y-112390566D01*
X142924005Y-112390566D01*
X142924008Y-112390568D01*
X143004902Y-112416852D01*
X143148631Y-112463553D01*
X143381903Y-112500500D01*
X143381908Y-112500500D01*
X143618097Y-112500500D01*
X143851368Y-112463553D01*
X144075992Y-112390568D01*
X144286433Y-112283343D01*
X144471289Y-112149036D01*
X144537091Y-112125558D01*
X144582484Y-112131424D01*
X144727260Y-112178464D01*
X144771200Y-112192742D01*
X144872292Y-112208753D01*
X144973383Y-112224765D01*
X144973384Y-112224765D01*
X145178086Y-112224765D01*
X145178087Y-112224765D01*
X145380269Y-112192742D01*
X145574954Y-112129485D01*
X145757345Y-112036552D01*
X145850325Y-111968997D01*
X145922948Y-111916236D01*
X145922950Y-111916233D01*
X145922954Y-111916231D01*
X146067701Y-111771484D01*
X146177149Y-111620840D01*
X146232477Y-111578176D01*
X146258062Y-111571255D01*
X146428799Y-111544213D01*
X146623484Y-111480956D01*
X146786985Y-111397648D01*
X151199500Y-111397648D01*
X151199500Y-111602351D01*
X151231522Y-111804534D01*
X151294781Y-111999223D01*
X151387715Y-112181613D01*
X151490318Y-112322836D01*
X151513798Y-112388643D01*
X151514000Y-112395721D01*
X151514000Y-112416852D01*
X151523608Y-112477511D01*
X151546023Y-112619035D01*
X151546023Y-112619038D01*
X151609279Y-112813718D01*
X151609279Y-112813719D01*
X151659097Y-112911493D01*
X151671993Y-112980162D01*
X151659097Y-113024081D01*
X151607279Y-113125781D01*
X151607279Y-113125782D01*
X151544023Y-113320461D01*
X151544023Y-113320464D01*
X151512000Y-113522648D01*
X151512000Y-113727351D01*
X151544022Y-113929534D01*
X151607281Y-114124223D01*
X151644829Y-114197913D01*
X151697240Y-114300776D01*
X151700215Y-114306613D01*
X151820528Y-114472213D01*
X151965286Y-114616971D01*
X152080643Y-114700781D01*
X152130890Y-114737287D01*
X152206853Y-114775992D01*
X152313276Y-114830218D01*
X152313278Y-114830218D01*
X152313281Y-114830220D01*
X152406449Y-114860492D01*
X152507965Y-114893477D01*
X152609057Y-114909488D01*
X152710148Y-114925500D01*
X152710149Y-114925500D01*
X152914851Y-114925500D01*
X152914852Y-114925500D01*
X153117034Y-114893477D01*
X153311719Y-114830220D01*
X153494110Y-114737287D01*
X153548669Y-114697648D01*
X160699500Y-114697648D01*
X160699500Y-114902351D01*
X160731522Y-115104534D01*
X160794781Y-115299223D01*
X160887715Y-115481613D01*
X161008028Y-115647213D01*
X161152786Y-115791971D01*
X161307749Y-115904556D01*
X161318390Y-115912287D01*
X161434607Y-115971503D01*
X161500776Y-116005218D01*
X161500778Y-116005218D01*
X161500781Y-116005220D01*
X161605137Y-116039127D01*
X161695465Y-116068477D01*
X161796557Y-116084488D01*
X161897648Y-116100500D01*
X161897649Y-116100500D01*
X162102351Y-116100500D01*
X162102352Y-116100500D01*
X162304534Y-116068477D01*
X162499219Y-116005220D01*
X162681610Y-115912287D01*
X162774590Y-115844732D01*
X162847213Y-115791971D01*
X162847215Y-115791968D01*
X162847219Y-115791966D01*
X162991966Y-115647219D01*
X162991968Y-115647215D01*
X162991971Y-115647213D01*
X163044732Y-115574590D01*
X163112287Y-115481610D01*
X163205220Y-115299219D01*
X163268477Y-115104534D01*
X163269568Y-115097648D01*
X164699500Y-115097648D01*
X164699500Y-115302351D01*
X164731522Y-115504534D01*
X164794781Y-115699223D01*
X164887715Y-115881613D01*
X165008028Y-116047213D01*
X165152786Y-116191971D01*
X165307749Y-116304556D01*
X165318390Y-116312287D01*
X165434607Y-116371503D01*
X165500776Y-116405218D01*
X165500778Y-116405218D01*
X165500781Y-116405220D01*
X165605137Y-116439127D01*
X165695465Y-116468477D01*
X165704715Y-116469942D01*
X165897648Y-116500500D01*
X165897649Y-116500500D01*
X166102351Y-116500500D01*
X166102352Y-116500500D01*
X166304534Y-116468477D01*
X166499219Y-116405220D01*
X166681610Y-116312287D01*
X166774590Y-116244732D01*
X166847213Y-116191971D01*
X166847215Y-116191968D01*
X166847219Y-116191966D01*
X166991966Y-116047219D01*
X166991968Y-116047215D01*
X166991971Y-116047213D01*
X167058795Y-115955236D01*
X167112287Y-115881610D01*
X167205220Y-115699219D01*
X167268477Y-115504534D01*
X167300500Y-115302352D01*
X167300500Y-115097648D01*
X167287148Y-115013346D01*
X167268477Y-114895465D01*
X167229659Y-114775996D01*
X167205220Y-114700781D01*
X167205218Y-114700778D01*
X167205218Y-114700776D01*
X167171503Y-114634607D01*
X167112287Y-114518390D01*
X167078738Y-114472213D01*
X166991971Y-114352786D01*
X166847213Y-114208028D01*
X166681613Y-114087715D01*
X166681612Y-114087714D01*
X166681610Y-114087713D01*
X166624653Y-114058691D01*
X166499223Y-113994781D01*
X166304534Y-113931522D01*
X166129995Y-113903878D01*
X166102352Y-113899500D01*
X165897648Y-113899500D01*
X165873329Y-113903351D01*
X165695465Y-113931522D01*
X165500776Y-113994781D01*
X165318386Y-114087715D01*
X165152786Y-114208028D01*
X165008028Y-114352786D01*
X164887715Y-114518386D01*
X164794781Y-114700776D01*
X164731522Y-114895465D01*
X164699500Y-115097648D01*
X163269568Y-115097648D01*
X163300500Y-114902352D01*
X163300500Y-114697648D01*
X163268477Y-114495466D01*
X163205220Y-114300781D01*
X163205218Y-114300778D01*
X163205218Y-114300776D01*
X163131204Y-114155517D01*
X163112287Y-114118390D01*
X163104556Y-114107749D01*
X162991971Y-113952786D01*
X162847213Y-113808028D01*
X162681613Y-113687715D01*
X162681612Y-113687714D01*
X162681610Y-113687713D01*
X162624653Y-113658691D01*
X162499223Y-113594781D01*
X162304534Y-113531522D01*
X162129995Y-113503878D01*
X162102352Y-113499500D01*
X161897648Y-113499500D01*
X161873329Y-113503351D01*
X161695465Y-113531522D01*
X161500776Y-113594781D01*
X161318386Y-113687715D01*
X161152786Y-113808028D01*
X161008028Y-113952786D01*
X160887715Y-114118386D01*
X160794781Y-114300776D01*
X160731522Y-114495465D01*
X160699500Y-114697648D01*
X153548669Y-114697648D01*
X153627422Y-114640431D01*
X153659713Y-114616971D01*
X153659715Y-114616968D01*
X153659719Y-114616966D01*
X153804466Y-114472219D01*
X153804468Y-114472215D01*
X153804471Y-114472213D01*
X153891242Y-114352781D01*
X153924787Y-114306610D01*
X154017720Y-114124219D01*
X154080977Y-113929534D01*
X154112416Y-113731037D01*
X154142344Y-113667905D01*
X154201655Y-113630973D01*
X154271518Y-113631971D01*
X154273127Y-113632480D01*
X154366330Y-113662764D01*
X154445465Y-113688477D01*
X154521375Y-113700500D01*
X154647648Y-113720500D01*
X154647649Y-113720500D01*
X154852351Y-113720500D01*
X154852352Y-113720500D01*
X155054534Y-113688477D01*
X155236683Y-113629292D01*
X155306522Y-113627298D01*
X155313318Y-113629293D01*
X155485911Y-113685371D01*
X155495469Y-113688477D01*
X155697651Y-113720500D01*
X155697652Y-113720500D01*
X155902354Y-113720500D01*
X155902355Y-113720500D01*
X156104537Y-113688477D01*
X156299222Y-113625220D01*
X156301611Y-113624003D01*
X156303830Y-113622872D01*
X156481613Y-113532287D01*
X156595537Y-113449517D01*
X156647216Y-113411971D01*
X156647218Y-113411968D01*
X156647222Y-113411966D01*
X156791969Y-113267219D01*
X156791971Y-113267215D01*
X156791974Y-113267213D01*
X156867409Y-113163384D01*
X156912290Y-113101610D01*
X157005223Y-112919219D01*
X157068480Y-112724534D01*
X157100503Y-112522352D01*
X157100503Y-112317648D01*
X157068480Y-112115466D01*
X157057574Y-112081902D01*
X173899500Y-112081902D01*
X173899500Y-112318097D01*
X173936446Y-112551368D01*
X174009433Y-112775996D01*
X174101373Y-112956437D01*
X174116657Y-112986433D01*
X174255483Y-113177510D01*
X174422490Y-113344517D01*
X174613567Y-113483343D01*
X174708124Y-113531522D01*
X174824003Y-113590566D01*
X174824005Y-113590566D01*
X174824008Y-113590568D01*
X174930656Y-113625220D01*
X175048631Y-113663553D01*
X175281903Y-113700500D01*
X175281908Y-113700500D01*
X175518097Y-113700500D01*
X175751368Y-113663553D01*
X175753796Y-113662764D01*
X175975992Y-113590568D01*
X176186433Y-113483343D01*
X176377510Y-113344517D01*
X176544517Y-113177510D01*
X176683343Y-112986433D01*
X176790568Y-112775992D01*
X176863553Y-112551368D01*
X176880509Y-112444303D01*
X176910437Y-112381172D01*
X176930098Y-112363385D01*
X176931607Y-112362288D01*
X176931610Y-112362287D01*
X177097219Y-112241966D01*
X177241966Y-112097219D01*
X177241968Y-112097215D01*
X177241971Y-112097213D01*
X177294732Y-112024590D01*
X177362287Y-111931610D01*
X177455220Y-111749219D01*
X177518477Y-111554534D01*
X177550500Y-111352352D01*
X177550500Y-111147648D01*
X177542830Y-111099223D01*
X177518477Y-110945465D01*
X177502621Y-110896667D01*
X177490960Y-110860777D01*
X177899500Y-110860777D01*
X177899500Y-112239208D01*
X177899501Y-112239223D01*
X177909904Y-112371413D01*
X177909905Y-112371420D01*
X177964902Y-112589678D01*
X177964903Y-112589681D01*
X178057991Y-112794622D01*
X178057997Y-112794632D01*
X178186174Y-112979645D01*
X178186178Y-112979650D01*
X178186181Y-112979654D01*
X178345346Y-113138819D01*
X178345350Y-113138822D01*
X178345354Y-113138825D01*
X178449277Y-113210823D01*
X178530374Y-113267007D01*
X178735317Y-113360096D01*
X178735321Y-113360097D01*
X178953579Y-113415094D01*
X178953581Y-113415094D01*
X178953588Y-113415096D01*
X179085783Y-113425500D01*
X179914216Y-113425499D01*
X180046412Y-113415096D01*
X180264683Y-113360096D01*
X180469626Y-113267007D01*
X180550722Y-113210822D01*
X180617037Y-113188825D01*
X180677629Y-113202264D01*
X180804685Y-113267002D01*
X180885616Y-113308239D01*
X180885618Y-113308239D01*
X180885621Y-113308241D01*
X181125215Y-113386090D01*
X181374038Y-113425500D01*
X181374039Y-113425500D01*
X181625961Y-113425500D01*
X181625962Y-113425500D01*
X181874785Y-113386090D01*
X182114379Y-113308241D01*
X182338845Y-113193870D01*
X182542656Y-113045793D01*
X182720793Y-112867656D01*
X182868870Y-112663845D01*
X182983241Y-112439379D01*
X183061090Y-112199785D01*
X183100500Y-111950962D01*
X183100500Y-111149038D01*
X183061090Y-110900215D01*
X182983241Y-110660621D01*
X182983239Y-110660618D01*
X182983239Y-110660616D01*
X182906659Y-110510321D01*
X182868870Y-110436155D01*
X182798788Y-110339695D01*
X182720798Y-110232350D01*
X182720794Y-110232345D01*
X182542654Y-110054205D01*
X182542649Y-110054201D01*
X182338848Y-109906132D01*
X182338847Y-109906131D01*
X182338845Y-109906130D01*
X182268747Y-109870413D01*
X182114383Y-109791760D01*
X181874785Y-109713910D01*
X181758335Y-109695466D01*
X181625962Y-109674500D01*
X181374038Y-109674500D01*
X181308344Y-109684905D01*
X181125214Y-109713910D01*
X180885616Y-109791760D01*
X180726088Y-109873045D01*
X180677632Y-109897734D01*
X180608965Y-109910630D01*
X180550723Y-109889177D01*
X180501706Y-109855218D01*
X180469627Y-109832993D01*
X180264681Y-109739903D01*
X180264678Y-109739902D01*
X180046420Y-109684905D01*
X180046413Y-109684904D01*
X180002347Y-109681436D01*
X179914217Y-109674500D01*
X179914215Y-109674500D01*
X179085791Y-109674500D01*
X179085776Y-109674501D01*
X178953586Y-109684904D01*
X178953579Y-109684905D01*
X178735321Y-109739902D01*
X178735318Y-109739903D01*
X178530377Y-109832991D01*
X178530367Y-109832997D01*
X178345354Y-109961174D01*
X178345342Y-109961184D01*
X178186184Y-110120342D01*
X178186174Y-110120354D01*
X178057997Y-110305367D01*
X178057991Y-110305377D01*
X177964903Y-110510318D01*
X177964902Y-110510321D01*
X177909905Y-110728579D01*
X177909904Y-110728586D01*
X177899500Y-110860777D01*
X177490960Y-110860777D01*
X177455220Y-110750781D01*
X177362287Y-110568390D01*
X177320095Y-110510317D01*
X177241971Y-110402786D01*
X177142726Y-110303541D01*
X177109241Y-110242218D01*
X177114225Y-110172526D01*
X177142726Y-110128179D01*
X177170129Y-110100776D01*
X177210193Y-110060712D01*
X177210195Y-110060708D01*
X177210198Y-110060706D01*
X177276194Y-109969869D01*
X177330514Y-109895103D01*
X177423447Y-109712712D01*
X177486704Y-109518027D01*
X177518727Y-109315845D01*
X177518727Y-109111141D01*
X177502395Y-109008028D01*
X177486704Y-108908958D01*
X177453177Y-108805773D01*
X177423447Y-108714274D01*
X177423445Y-108714271D01*
X177423445Y-108714269D01*
X177354981Y-108579903D01*
X177330514Y-108531883D01*
X177313985Y-108509132D01*
X177220676Y-108380702D01*
X177197196Y-108314896D01*
X177213022Y-108246842D01*
X177263128Y-108198147D01*
X177264641Y-108197361D01*
X177431610Y-108112287D01*
X177511101Y-108054534D01*
X177597213Y-107991971D01*
X177597215Y-107991968D01*
X177597219Y-107991966D01*
X177741966Y-107847219D01*
X177741968Y-107847215D01*
X177741971Y-107847213D01*
X177862284Y-107681614D01*
X177862285Y-107681613D01*
X177862287Y-107681610D01*
X177897805Y-107611902D01*
X184749500Y-107611902D01*
X184749500Y-107848097D01*
X184786447Y-108081369D01*
X184786447Y-108081372D01*
X184797441Y-108115206D01*
X184799436Y-108185047D01*
X184798726Y-108187635D01*
X184760114Y-108322582D01*
X184760113Y-108322586D01*
X184752607Y-108407016D01*
X184750421Y-108431610D01*
X184749500Y-108441966D01*
X184749500Y-109558028D01*
X184749501Y-109558034D01*
X184760113Y-109677415D01*
X184816089Y-109873045D01*
X184816090Y-109873048D01*
X184816091Y-109873049D01*
X184910302Y-110053407D01*
X184930101Y-110077688D01*
X185038890Y-110211109D01*
X185066058Y-110233261D01*
X185196593Y-110339698D01*
X185376951Y-110433909D01*
X185572582Y-110489886D01*
X185691963Y-110500500D01*
X186808036Y-110500499D01*
X186927418Y-110489886D01*
X187123049Y-110433909D01*
X187303407Y-110339698D01*
X187461109Y-110211109D01*
X187589698Y-110053407D01*
X187683909Y-109873049D01*
X187739886Y-109677418D01*
X187750500Y-109558037D01*
X187750499Y-108441964D01*
X187739886Y-108322582D01*
X187701272Y-108187633D01*
X187701755Y-108117768D01*
X187702528Y-108115297D01*
X187713553Y-108081368D01*
X187733705Y-107954126D01*
X187750500Y-107848097D01*
X187750500Y-107611902D01*
X187713553Y-107378631D01*
X187677761Y-107268477D01*
X187640568Y-107154008D01*
X187640566Y-107154005D01*
X187640566Y-107154003D01*
X187580667Y-107036446D01*
X187533343Y-106943567D01*
X187394517Y-106752490D01*
X187227510Y-106585483D01*
X187036433Y-106446657D01*
X186994908Y-106425499D01*
X186825996Y-106339433D01*
X186601368Y-106266446D01*
X186368097Y-106229500D01*
X186368092Y-106229500D01*
X186131908Y-106229500D01*
X186131903Y-106229500D01*
X185898631Y-106266446D01*
X185674003Y-106339433D01*
X185463566Y-106446657D01*
X185354550Y-106525862D01*
X185272490Y-106585483D01*
X185272488Y-106585485D01*
X185272487Y-106585485D01*
X185105485Y-106752487D01*
X185105485Y-106752488D01*
X185105483Y-106752490D01*
X185074757Y-106794781D01*
X184966657Y-106943566D01*
X184859433Y-107154003D01*
X184786446Y-107378631D01*
X184749500Y-107611902D01*
X177897805Y-107611902D01*
X177955220Y-107499219D01*
X178018477Y-107304534D01*
X178050500Y-107102352D01*
X178050500Y-106897648D01*
X178040595Y-106835113D01*
X178018477Y-106695465D01*
X177969516Y-106544780D01*
X177955220Y-106500781D01*
X177955218Y-106500778D01*
X177955218Y-106500776D01*
X177906691Y-106405538D01*
X177862287Y-106318390D01*
X177845134Y-106294781D01*
X177741971Y-106152786D01*
X177597213Y-106008028D01*
X177431613Y-105887715D01*
X177431612Y-105887714D01*
X177431610Y-105887713D01*
X177374653Y-105858691D01*
X177249223Y-105794781D01*
X177054534Y-105731522D01*
X176879995Y-105703878D01*
X176852352Y-105699500D01*
X176647648Y-105699500D01*
X176623329Y-105703351D01*
X176445465Y-105731522D01*
X176250776Y-105794781D01*
X176068386Y-105887715D01*
X175902786Y-106008028D01*
X175758028Y-106152786D01*
X175637715Y-106318386D01*
X175544781Y-106500776D01*
X175481522Y-106695465D01*
X175457488Y-106847213D01*
X175449500Y-106897648D01*
X175449500Y-107102352D01*
X175451328Y-107113891D01*
X175481522Y-107304534D01*
X175544781Y-107499223D01*
X175586760Y-107581610D01*
X175630542Y-107667537D01*
X175637715Y-107681613D01*
X175747550Y-107832790D01*
X175771030Y-107898597D01*
X175755204Y-107966650D01*
X175705098Y-108015345D01*
X175703527Y-108016159D01*
X175536618Y-108101204D01*
X175536616Y-108101205D01*
X175371013Y-108221521D01*
X175226255Y-108366279D01*
X175105942Y-108531879D01*
X175013008Y-108714269D01*
X174949749Y-108908958D01*
X174924161Y-109070516D01*
X174917727Y-109111141D01*
X174917727Y-109315845D01*
X174918130Y-109318390D01*
X174949749Y-109518027D01*
X175013008Y-109712716D01*
X175053284Y-109791760D01*
X175102052Y-109887473D01*
X175105942Y-109895106D01*
X175226255Y-110060706D01*
X175325500Y-110159951D01*
X175358985Y-110221274D01*
X175354001Y-110290966D01*
X175325501Y-110335312D01*
X175258032Y-110402781D01*
X175258028Y-110402786D01*
X175137713Y-110568388D01*
X175076084Y-110689340D01*
X175028109Y-110740135D01*
X175003919Y-110750975D01*
X174824003Y-110809433D01*
X174613566Y-110916657D01*
X174557559Y-110957349D01*
X174422490Y-111055483D01*
X174422488Y-111055485D01*
X174422487Y-111055485D01*
X174255485Y-111222487D01*
X174255485Y-111222488D01*
X174255483Y-111222490D01*
X174205212Y-111291682D01*
X174116657Y-111413566D01*
X174009433Y-111624003D01*
X173936446Y-111848631D01*
X173899500Y-112081902D01*
X157057574Y-112081902D01*
X157015029Y-111950962D01*
X157005223Y-111920781D01*
X156912290Y-111738390D01*
X156893323Y-111712284D01*
X156791974Y-111572786D01*
X156647216Y-111428028D01*
X156481616Y-111307715D01*
X156481615Y-111307714D01*
X156481613Y-111307713D01*
X156403087Y-111267702D01*
X156299226Y-111214781D01*
X156104537Y-111151522D01*
X155929998Y-111123878D01*
X155902355Y-111119500D01*
X155697651Y-111119500D01*
X155630257Y-111130174D01*
X155495467Y-111151523D01*
X155495464Y-111151523D01*
X155313319Y-111210706D01*
X155243478Y-111212701D01*
X155236683Y-111210706D01*
X155054537Y-111151523D01*
X154902897Y-111127505D01*
X154852352Y-111119500D01*
X154647648Y-111119500D01*
X154625872Y-111122949D01*
X154445465Y-111151522D01*
X154250776Y-111214781D01*
X154068390Y-111307712D01*
X153979074Y-111372604D01*
X153913267Y-111396083D01*
X153845213Y-111380257D01*
X153796519Y-111330151D01*
X153783716Y-111291682D01*
X153782121Y-111281613D01*
X153768477Y-111195466D01*
X153705220Y-111000781D01*
X153705218Y-111000778D01*
X153705218Y-111000776D01*
X153671503Y-110934607D01*
X153612287Y-110818390D01*
X153563167Y-110750781D01*
X153491971Y-110652786D01*
X153347213Y-110508028D01*
X153181613Y-110387715D01*
X153181612Y-110387714D01*
X153181610Y-110387713D01*
X153109934Y-110351192D01*
X152999223Y-110294781D01*
X152804534Y-110231522D01*
X152726830Y-110219215D01*
X161765392Y-110219215D01*
X169015392Y-110219215D01*
X169015392Y-103987648D01*
X183699500Y-103987648D01*
X183699500Y-104192351D01*
X183731522Y-104394534D01*
X183794781Y-104589223D01*
X183841857Y-104681613D01*
X183886300Y-104768837D01*
X183887715Y-104771613D01*
X184008028Y-104937213D01*
X184152786Y-105081971D01*
X184303595Y-105191538D01*
X184318390Y-105202287D01*
X184378250Y-105232787D01*
X184500776Y-105295218D01*
X184500778Y-105295218D01*
X184500781Y-105295220D01*
X184572079Y-105318386D01*
X184695465Y-105358477D01*
X184796557Y-105374488D01*
X184897648Y-105390500D01*
X184897649Y-105390500D01*
X185102351Y-105390500D01*
X185102352Y-105390500D01*
X185304534Y-105358477D01*
X185499219Y-105295220D01*
X185681610Y-105202287D01*
X185784482Y-105127547D01*
X185847213Y-105081971D01*
X185847215Y-105081968D01*
X185847219Y-105081966D01*
X185991966Y-104937219D01*
X185991968Y-104937215D01*
X185991971Y-104937213D01*
X186083288Y-104811524D01*
X186112287Y-104771610D01*
X186205220Y-104589219D01*
X186268477Y-104394534D01*
X186300500Y-104192352D01*
X186300500Y-103987648D01*
X186278111Y-103846290D01*
X186268477Y-103785465D01*
X186234731Y-103681608D01*
X186205220Y-103590781D01*
X186205218Y-103590778D01*
X186205218Y-103590776D01*
X186163055Y-103508028D01*
X186112287Y-103408390D01*
X186088391Y-103375500D01*
X185991971Y-103242786D01*
X185847213Y-103098028D01*
X185681613Y-102977715D01*
X185681612Y-102977714D01*
X185681610Y-102977713D01*
X185574925Y-102923354D01*
X185499223Y-102884781D01*
X185304534Y-102821522D01*
X185129995Y-102793878D01*
X185102352Y-102789500D01*
X184897648Y-102789500D01*
X184873329Y-102793351D01*
X184695465Y-102821522D01*
X184500776Y-102884781D01*
X184318386Y-102977715D01*
X184152786Y-103098028D01*
X184008028Y-103242786D01*
X183887715Y-103408386D01*
X183794781Y-103590776D01*
X183731522Y-103785465D01*
X183699500Y-103987648D01*
X169015392Y-103987648D01*
X169015392Y-101597648D01*
X169499500Y-101597648D01*
X169499500Y-101802351D01*
X169531522Y-102004534D01*
X169594781Y-102199223D01*
X169646385Y-102300500D01*
X169687328Y-102380855D01*
X169687715Y-102381613D01*
X169808028Y-102547213D01*
X169952786Y-102691971D01*
X170087026Y-102789500D01*
X170118390Y-102812287D01*
X170234607Y-102871503D01*
X170300776Y-102905218D01*
X170300778Y-102905218D01*
X170300781Y-102905220D01*
X170405137Y-102939127D01*
X170495465Y-102968477D01*
X170553791Y-102977715D01*
X170697648Y-103000500D01*
X170697649Y-103000500D01*
X170902351Y-103000500D01*
X170902352Y-103000500D01*
X171104534Y-102968477D01*
X171299219Y-102905220D01*
X171481610Y-102812287D01*
X171574590Y-102744732D01*
X171647213Y-102691971D01*
X171647215Y-102691968D01*
X171647219Y-102691966D01*
X171791966Y-102547219D01*
X171791968Y-102547215D01*
X171791971Y-102547213D01*
X171874924Y-102433036D01*
X171912287Y-102381610D01*
X172005220Y-102199219D01*
X172068477Y-102004534D01*
X172100500Y-101802352D01*
X172100500Y-101597648D01*
X172068477Y-101395466D01*
X172059720Y-101368514D01*
X172057725Y-101298673D01*
X172067163Y-101273907D01*
X172105220Y-101199219D01*
X172168477Y-101004534D01*
X172200500Y-100802352D01*
X172200500Y-100597648D01*
X172189603Y-100528849D01*
X172168477Y-100395465D01*
X172106662Y-100205220D01*
X172105220Y-100200781D01*
X172105218Y-100200778D01*
X172105218Y-100200776D01*
X172052572Y-100097454D01*
X172012287Y-100018390D01*
X171998364Y-99999227D01*
X171891971Y-99852786D01*
X171747213Y-99708028D01*
X171581613Y-99587715D01*
X171581612Y-99587714D01*
X171581610Y-99587713D01*
X171483480Y-99537713D01*
X171399223Y-99494781D01*
X171204534Y-99431522D01*
X171029995Y-99403878D01*
X171002352Y-99399500D01*
X170797648Y-99399500D01*
X170778960Y-99402460D01*
X170595465Y-99431522D01*
X170400776Y-99494781D01*
X170218386Y-99587715D01*
X170052786Y-99708028D01*
X169908028Y-99852786D01*
X169787715Y-100018386D01*
X169694781Y-100200776D01*
X169631522Y-100395465D01*
X169606328Y-100554537D01*
X169599500Y-100597648D01*
X169599500Y-100802352D01*
X169601450Y-100814661D01*
X169631523Y-101004537D01*
X169640279Y-101031485D01*
X169642274Y-101101326D01*
X169632833Y-101126096D01*
X169594779Y-101200781D01*
X169594779Y-101200782D01*
X169531523Y-101395461D01*
X169531523Y-101395464D01*
X169499500Y-101597648D01*
X169015392Y-101597648D01*
X169015392Y-101219215D01*
X161765392Y-101219215D01*
X161765392Y-110219215D01*
X152726830Y-110219215D01*
X152629995Y-110203878D01*
X152602352Y-110199500D01*
X152397648Y-110199500D01*
X152373329Y-110203351D01*
X152195465Y-110231522D01*
X152000776Y-110294781D01*
X151818386Y-110387715D01*
X151652786Y-110508028D01*
X151508028Y-110652786D01*
X151387715Y-110818386D01*
X151294781Y-111000776D01*
X151231522Y-111195465D01*
X151199500Y-111397648D01*
X146786985Y-111397648D01*
X146805875Y-111388023D01*
X146885530Y-111330151D01*
X146937411Y-111292458D01*
X146937412Y-111292457D01*
X146971480Y-111267705D01*
X146971480Y-111267704D01*
X146971484Y-111267702D01*
X147116231Y-111122955D01*
X147116233Y-111122951D01*
X147116236Y-111122949D01*
X147168997Y-111050326D01*
X147236552Y-110957346D01*
X147329485Y-110774955D01*
X147392742Y-110580270D01*
X147424765Y-110378088D01*
X147424765Y-110351192D01*
X147444450Y-110284153D01*
X147497254Y-110238398D01*
X147566412Y-110228454D01*
X147587078Y-110233259D01*
X147655146Y-110255376D01*
X147695465Y-110268477D01*
X147794439Y-110284153D01*
X147897648Y-110300500D01*
X147897649Y-110300500D01*
X148102351Y-110300500D01*
X148102352Y-110300500D01*
X148304534Y-110268477D01*
X148461683Y-110217415D01*
X148531522Y-110215421D01*
X148538292Y-110217408D01*
X148651531Y-110254201D01*
X148695465Y-110268477D01*
X148794439Y-110284153D01*
X148897648Y-110300500D01*
X148897649Y-110300500D01*
X149102351Y-110300500D01*
X149102352Y-110300500D01*
X149304534Y-110268477D01*
X149499219Y-110205220D01*
X149681610Y-110112287D01*
X149847219Y-109991966D01*
X149865346Y-109973838D01*
X149926666Y-109940351D01*
X149933628Y-109939043D01*
X150063483Y-109918477D01*
X150258168Y-109855220D01*
X150440559Y-109762287D01*
X150547067Y-109684905D01*
X150606162Y-109641971D01*
X150606164Y-109641968D01*
X150606168Y-109641966D01*
X150750915Y-109497219D01*
X150856702Y-109351613D01*
X150912031Y-109308949D01*
X150957020Y-109300500D01*
X151102351Y-109300500D01*
X151102352Y-109300500D01*
X151304534Y-109268477D01*
X151499219Y-109205220D01*
X151681610Y-109112287D01*
X151774590Y-109044732D01*
X151847213Y-108991971D01*
X151847215Y-108991968D01*
X151847219Y-108991966D01*
X151991966Y-108847219D01*
X151991972Y-108847210D01*
X151994748Y-108843962D01*
X152053258Y-108805773D01*
X152089033Y-108800500D01*
X152102351Y-108800500D01*
X152102352Y-108800500D01*
X152304534Y-108768477D01*
X152499219Y-108705220D01*
X152681610Y-108612287D01*
X152783599Y-108538188D01*
X152847213Y-108491971D01*
X152847215Y-108491968D01*
X152847219Y-108491966D01*
X152991966Y-108347219D01*
X153080534Y-108225313D01*
X153135863Y-108182649D01*
X153205476Y-108176670D01*
X153267272Y-108209275D01*
X153291720Y-108245310D01*
X153292568Y-108244878D01*
X153294780Y-108249219D01*
X153380713Y-108417872D01*
X153387715Y-108431613D01*
X153508028Y-108597213D01*
X153652786Y-108741971D01*
X153797652Y-108847220D01*
X153818390Y-108862287D01*
X153909987Y-108908958D01*
X154000776Y-108955218D01*
X154000778Y-108955218D01*
X154000781Y-108955220D01*
X154105137Y-108989127D01*
X154195465Y-109018477D01*
X154296557Y-109034488D01*
X154397648Y-109050500D01*
X154397649Y-109050500D01*
X154602351Y-109050500D01*
X154602352Y-109050500D01*
X154804534Y-109018477D01*
X154999219Y-108955220D01*
X155181610Y-108862287D01*
X155276770Y-108793150D01*
X155347213Y-108741971D01*
X155347215Y-108741968D01*
X155347219Y-108741966D01*
X155491966Y-108597219D01*
X155491968Y-108597215D01*
X155491971Y-108597213D01*
X155550507Y-108516644D01*
X155612287Y-108431610D01*
X155705220Y-108249219D01*
X155768477Y-108054534D01*
X155800500Y-107852352D01*
X155800500Y-107647648D01*
X155781589Y-107528252D01*
X155768477Y-107445465D01*
X155737296Y-107349500D01*
X155705220Y-107250781D01*
X155705218Y-107250778D01*
X155705218Y-107250776D01*
X155671503Y-107184607D01*
X155612287Y-107068390D01*
X155589079Y-107036446D01*
X155491971Y-106902786D01*
X155347213Y-106758028D01*
X155181613Y-106637715D01*
X155181612Y-106637714D01*
X155181610Y-106637713D01*
X155098694Y-106595465D01*
X154999223Y-106544781D01*
X154856353Y-106498360D01*
X154798678Y-106458922D01*
X154771480Y-106394563D01*
X154772198Y-106361036D01*
X154800500Y-106182353D01*
X154800500Y-105977649D01*
X154772054Y-105798049D01*
X154768477Y-105775466D01*
X154718473Y-105621572D01*
X154705220Y-105580782D01*
X154705218Y-105580779D01*
X154705218Y-105580777D01*
X154641623Y-105455967D01*
X154612287Y-105398391D01*
X154576071Y-105348543D01*
X154491971Y-105232787D01*
X154347213Y-105088029D01*
X154181613Y-104967716D01*
X154181612Y-104967715D01*
X154181610Y-104967714D01*
X154112020Y-104932256D01*
X153999223Y-104874782D01*
X153804534Y-104811523D01*
X153629995Y-104783879D01*
X153602352Y-104779501D01*
X153397648Y-104779501D01*
X153373329Y-104783352D01*
X153195465Y-104811523D01*
X153000776Y-104874782D01*
X152818386Y-104967716D01*
X152652786Y-105088029D01*
X152508028Y-105232787D01*
X152387715Y-105398387D01*
X152294781Y-105580777D01*
X152231522Y-105775466D01*
X152199500Y-105977649D01*
X152199500Y-106075500D01*
X152179815Y-106142539D01*
X152127011Y-106188294D01*
X152075500Y-106199500D01*
X151897648Y-106199500D01*
X151889226Y-106200834D01*
X151695465Y-106231522D01*
X151500776Y-106294781D01*
X151318386Y-106387715D01*
X151152786Y-106508028D01*
X151008035Y-106652779D01*
X151005252Y-106656038D01*
X150946742Y-106694227D01*
X150910967Y-106699500D01*
X150897648Y-106699500D01*
X150873329Y-106703351D01*
X150695465Y-106731522D01*
X150500776Y-106794781D01*
X150318386Y-106887715D01*
X150152786Y-107008028D01*
X150008034Y-107152780D01*
X149969935Y-107205220D01*
X149902246Y-107298386D01*
X149846918Y-107341051D01*
X149801929Y-107349500D01*
X149656597Y-107349500D01*
X149646830Y-107351047D01*
X149454414Y-107381522D01*
X149259725Y-107444781D01*
X149077335Y-107537715D01*
X148911734Y-107658030D01*
X148911725Y-107658037D01*
X148893595Y-107676167D01*
X148832270Y-107709649D01*
X148825317Y-107710955D01*
X148695468Y-107731522D01*
X148538318Y-107782583D01*
X148517042Y-107783190D01*
X148496460Y-107788601D01*
X148472540Y-107784461D01*
X148468476Y-107784578D01*
X148461683Y-107782583D01*
X148381963Y-107756681D01*
X148324287Y-107717244D01*
X148297088Y-107652886D01*
X148297806Y-107619354D01*
X148300500Y-107602352D01*
X148300500Y-107424500D01*
X148320185Y-107357461D01*
X148372989Y-107311706D01*
X148424500Y-107300500D01*
X148602351Y-107300500D01*
X148602352Y-107300500D01*
X148804534Y-107268477D01*
X148999219Y-107205220D01*
X149181610Y-107112287D01*
X149285997Y-107036446D01*
X149347213Y-106991971D01*
X149347215Y-106991968D01*
X149347219Y-106991966D01*
X149491966Y-106847219D01*
X149491968Y-106847215D01*
X149491971Y-106847213D01*
X149556762Y-106758034D01*
X149612287Y-106681610D01*
X149705220Y-106499219D01*
X149768477Y-106304534D01*
X149800500Y-106102352D01*
X149800500Y-105897648D01*
X149784725Y-105798049D01*
X149768477Y-105695465D01*
X149705218Y-105500776D01*
X149671503Y-105434607D01*
X149612287Y-105318390D01*
X149595452Y-105295218D01*
X149491971Y-105152786D01*
X149347213Y-105008028D01*
X149181613Y-104887715D01*
X149181612Y-104887714D01*
X149181610Y-104887713D01*
X149124653Y-104858691D01*
X148999223Y-104794781D01*
X148804534Y-104731522D01*
X148629995Y-104703878D01*
X148602352Y-104699500D01*
X148397648Y-104699500D01*
X148373329Y-104703351D01*
X148195465Y-104731522D01*
X148000776Y-104794781D01*
X147818390Y-104887712D01*
X147698649Y-104974709D01*
X147632842Y-104998188D01*
X147564788Y-104982362D01*
X147516094Y-104932256D01*
X147507833Y-104912708D01*
X147500428Y-104889917D01*
X147455220Y-104750781D01*
X147362287Y-104568390D01*
X147354556Y-104557749D01*
X147241971Y-104402786D01*
X147097213Y-104258028D01*
X146931613Y-104137715D01*
X146931612Y-104137714D01*
X146931610Y-104137713D01*
X146862208Y-104102351D01*
X146749223Y-104044781D01*
X146554534Y-103981522D01*
X146379995Y-103953878D01*
X146352352Y-103949500D01*
X146352351Y-103949500D01*
X146255078Y-103949500D01*
X146188039Y-103929815D01*
X146144593Y-103881794D01*
X146112286Y-103818388D01*
X145991971Y-103652786D01*
X145847213Y-103508028D01*
X145681613Y-103387715D01*
X145681612Y-103387714D01*
X145681610Y-103387713D01*
X145499219Y-103294780D01*
X145304534Y-103231523D01*
X145304528Y-103231521D01*
X145300879Y-103230645D01*
X145240290Y-103195848D01*
X145211907Y-103148392D01*
X145198051Y-103105747D01*
X145198050Y-103105744D01*
X145165867Y-103042584D01*
X145105117Y-102923354D01*
X145082316Y-102891971D01*
X144984801Y-102757750D01*
X144840043Y-102612992D01*
X144674443Y-102492679D01*
X144674442Y-102492678D01*
X144674440Y-102492677D01*
X144615238Y-102462512D01*
X144492053Y-102399745D01*
X144297364Y-102336486D01*
X144119458Y-102308309D01*
X144095182Y-102304464D01*
X143890478Y-102304464D01*
X143890471Y-102304464D01*
X143809652Y-102317264D01*
X143740359Y-102308309D01*
X143733961Y-102305276D01*
X143699907Y-102287924D01*
X143505215Y-102224664D01*
X143330676Y-102197020D01*
X143303033Y-102192642D01*
X143098329Y-102192642D01*
X143066576Y-102197671D01*
X142934151Y-102218645D01*
X142864857Y-102209690D01*
X142811405Y-102164694D01*
X142790766Y-102097942D01*
X142809491Y-102030629D01*
X142827735Y-102007832D01*
X142834350Y-102001315D01*
X142847219Y-101991966D01*
X142941537Y-101897648D01*
X150279500Y-101897648D01*
X150279500Y-102102351D01*
X150311522Y-102304534D01*
X150374781Y-102499223D01*
X150467715Y-102681613D01*
X150588028Y-102847213D01*
X150732786Y-102991971D01*
X150887749Y-103104556D01*
X150898390Y-103112287D01*
X151008669Y-103168477D01*
X151080776Y-103205218D01*
X151080778Y-103205218D01*
X151080781Y-103205220D01*
X151185137Y-103239127D01*
X151275465Y-103268477D01*
X151376557Y-103284488D01*
X151477648Y-103300500D01*
X151477649Y-103300500D01*
X151682351Y-103300500D01*
X151682352Y-103300500D01*
X151884534Y-103268477D01*
X152079219Y-103205220D01*
X152261610Y-103112287D01*
X152354590Y-103044732D01*
X152427213Y-102991971D01*
X152427215Y-102991968D01*
X152427219Y-102991966D01*
X152571966Y-102847219D01*
X152571968Y-102847215D01*
X152571971Y-102847213D01*
X152624732Y-102774590D01*
X152692287Y-102681610D01*
X152785220Y-102499219D01*
X152848477Y-102304534D01*
X152880500Y-102102352D01*
X152880500Y-101897648D01*
X152865774Y-101804671D01*
X152848477Y-101695465D01*
X152810724Y-101579273D01*
X152785220Y-101500781D01*
X152785218Y-101500778D01*
X152785218Y-101500776D01*
X152751503Y-101434607D01*
X152692287Y-101318390D01*
X152636766Y-101241971D01*
X152571971Y-101152786D01*
X152427213Y-101008028D01*
X152261613Y-100887715D01*
X152261612Y-100887714D01*
X152261610Y-100887713D01*
X152204653Y-100858691D01*
X152079223Y-100794781D01*
X151884534Y-100731522D01*
X151709995Y-100703878D01*
X151682352Y-100699500D01*
X151477648Y-100699500D01*
X151453329Y-100703351D01*
X151275465Y-100731522D01*
X151080776Y-100794781D01*
X150898386Y-100887715D01*
X150732786Y-101008028D01*
X150588028Y-101152786D01*
X150467715Y-101318386D01*
X150374781Y-101500776D01*
X150311522Y-101695465D01*
X150279500Y-101897648D01*
X142941537Y-101897648D01*
X142991966Y-101847219D01*
X142994930Y-101843138D01*
X143002015Y-101836160D01*
X143028291Y-101822068D01*
X143053258Y-101805773D01*
X143060731Y-101804671D01*
X143063589Y-101803139D01*
X143068495Y-101803527D01*
X143089033Y-101800500D01*
X143102351Y-101800500D01*
X143102352Y-101800500D01*
X143212933Y-101782985D01*
X143293006Y-101770303D01*
X143294192Y-101770115D01*
X143304534Y-101768477D01*
X143499219Y-101705220D01*
X143681610Y-101612287D01*
X143774590Y-101544732D01*
X143847213Y-101491971D01*
X143847215Y-101491968D01*
X143847219Y-101491966D01*
X143991966Y-101347219D01*
X143991968Y-101347215D01*
X143991971Y-101347213D01*
X144050188Y-101267082D01*
X144112287Y-101181610D01*
X144205220Y-100999219D01*
X144268477Y-100804534D01*
X144300500Y-100602352D01*
X144300500Y-100397648D01*
X144268477Y-100195466D01*
X144254609Y-100152786D01*
X144221212Y-100050000D01*
X144205220Y-100000781D01*
X144205218Y-100000778D01*
X144205218Y-100000776D01*
X144147610Y-99887715D01*
X144112287Y-99818390D01*
X144100950Y-99802786D01*
X143991971Y-99652786D01*
X143847213Y-99508028D01*
X143681613Y-99387715D01*
X143681612Y-99387714D01*
X143681610Y-99387713D01*
X143624653Y-99358691D01*
X143499223Y-99294781D01*
X143304534Y-99231522D01*
X143129995Y-99203878D01*
X143102352Y-99199500D01*
X142897648Y-99199500D01*
X142873329Y-99203351D01*
X142695465Y-99231522D01*
X142500776Y-99294781D01*
X142318386Y-99387715D01*
X142152786Y-99508028D01*
X142008035Y-99652779D01*
X142005252Y-99656038D01*
X141946742Y-99694227D01*
X141910967Y-99699500D01*
X141897648Y-99699500D01*
X141873329Y-99703351D01*
X141695465Y-99731522D01*
X141500776Y-99794781D01*
X141318386Y-99887715D01*
X141152786Y-100008028D01*
X141008028Y-100152786D01*
X140887715Y-100318386D01*
X140794781Y-100500776D01*
X140731522Y-100695465D01*
X140699500Y-100897648D01*
X140699500Y-101102351D01*
X140731522Y-101304534D01*
X140794781Y-101499223D01*
X140852391Y-101612287D01*
X140868933Y-101644753D01*
X140887715Y-101681613D01*
X141008028Y-101847213D01*
X141152786Y-101991971D01*
X141307749Y-102104556D01*
X141318390Y-102112287D01*
X141434607Y-102171503D01*
X141500776Y-102205218D01*
X141500778Y-102205218D01*
X141500781Y-102205220D01*
X141605137Y-102239127D01*
X141695465Y-102268477D01*
X141790000Y-102283450D01*
X141897648Y-102300500D01*
X141897649Y-102300500D01*
X142102351Y-102300500D01*
X142102352Y-102300500D01*
X142266530Y-102274496D01*
X142335822Y-102283450D01*
X142389274Y-102328446D01*
X142409914Y-102395198D01*
X142391189Y-102462512D01*
X142358819Y-102497282D01*
X142353470Y-102501168D01*
X142353463Y-102501174D01*
X142208709Y-102645928D01*
X142088396Y-102811528D01*
X141995462Y-102993918D01*
X141932203Y-103188607D01*
X141900181Y-103390790D01*
X141900181Y-103595493D01*
X141932203Y-103797676D01*
X141995462Y-103992365D01*
X142061123Y-104121230D01*
X142074019Y-104189899D01*
X142047743Y-104254640D01*
X142038320Y-104265206D01*
X141908027Y-104395499D01*
X141787715Y-104561097D01*
X141694781Y-104743487D01*
X141631522Y-104938176D01*
X141599500Y-105140359D01*
X141599500Y-105345062D01*
X141631522Y-105547245D01*
X141668726Y-105661746D01*
X141694780Y-105741930D01*
X141694781Y-105741932D01*
X141694782Y-105741934D01*
X141780154Y-105909487D01*
X141793050Y-105978157D01*
X141766773Y-106042897D01*
X141759708Y-106050820D01*
X141758033Y-106052781D01*
X141637715Y-106218386D01*
X141544781Y-106400776D01*
X141481522Y-106595465D01*
X141449500Y-106797648D01*
X141449500Y-107002351D01*
X141481522Y-107204534D01*
X141544781Y-107399223D01*
X141608691Y-107524653D01*
X141621984Y-107550741D01*
X141637715Y-107581613D01*
X141758028Y-107747213D01*
X141902782Y-107891967D01*
X141902787Y-107891971D01*
X141997800Y-107961002D01*
X142040466Y-108016332D01*
X142046445Y-108085945D01*
X142013840Y-108147740D01*
X142005463Y-108155597D01*
X142003780Y-108157034D01*
X141859028Y-108301786D01*
X141738715Y-108467386D01*
X141645781Y-108649776D01*
X141582522Y-108844465D01*
X141550500Y-109046648D01*
X141550500Y-109251351D01*
X141582522Y-109453534D01*
X141645781Y-109648223D01*
X141732902Y-109819205D01*
X141745798Y-109887874D01*
X141719522Y-109952615D01*
X141662415Y-109992872D01*
X141622417Y-109999500D01*
X141381903Y-109999500D01*
X141229602Y-110023622D01*
X141160308Y-110014667D01*
X141106856Y-109969671D01*
X141095643Y-109948601D01*
X141028409Y-109786282D01*
X141028404Y-109786273D01*
X141014554Y-109762284D01*
X140916948Y-109593226D01*
X140856692Y-109514698D01*
X140781249Y-109416378D01*
X140759651Y-109394780D01*
X140722550Y-109357679D01*
X140689067Y-109296359D01*
X140694051Y-109226667D01*
X140722550Y-109182320D01*
X140781247Y-109123624D01*
X140916948Y-108946774D01*
X141028405Y-108753726D01*
X141113710Y-108547781D01*
X141171404Y-108332463D01*
X141200500Y-108111457D01*
X141200500Y-107888543D01*
X141171404Y-107667537D01*
X141113710Y-107452219D01*
X141111631Y-107447201D01*
X141071803Y-107351047D01*
X141028405Y-107246274D01*
X140916948Y-107053226D01*
X140877911Y-107002352D01*
X140781249Y-106876378D01*
X140752084Y-106847213D01*
X140722550Y-106817679D01*
X140689067Y-106756359D01*
X140694051Y-106686667D01*
X140722550Y-106642320D01*
X140781247Y-106583624D01*
X140916948Y-106406774D01*
X141028405Y-106213726D01*
X141113710Y-106007781D01*
X141171404Y-105792463D01*
X141200500Y-105571457D01*
X141200500Y-105348543D01*
X141171404Y-105127537D01*
X141113710Y-104912219D01*
X141112030Y-104908164D01*
X141065065Y-104794780D01*
X141028405Y-104706274D01*
X140916948Y-104513226D01*
X140828212Y-104397582D01*
X140781248Y-104336377D01*
X140781242Y-104336370D01*
X140623629Y-104178757D01*
X140623622Y-104178751D01*
X140446782Y-104043058D01*
X140446780Y-104043057D01*
X140446774Y-104043052D01*
X140253726Y-103931595D01*
X140253722Y-103931593D01*
X140047790Y-103846293D01*
X140047783Y-103846291D01*
X140047781Y-103846290D01*
X139832463Y-103788596D01*
X139832457Y-103788595D01*
X139832452Y-103788594D01*
X139611466Y-103759501D01*
X139611463Y-103759500D01*
X139611457Y-103759500D01*
X139388543Y-103759500D01*
X139388537Y-103759500D01*
X139388533Y-103759501D01*
X139167547Y-103788594D01*
X139167540Y-103788595D01*
X139167537Y-103788596D01*
X139056344Y-103818390D01*
X138952219Y-103846290D01*
X138952209Y-103846293D01*
X138746277Y-103931593D01*
X138746273Y-103931595D01*
X138553226Y-104043052D01*
X138553217Y-104043058D01*
X138376377Y-104178751D01*
X138376370Y-104178757D01*
X138218757Y-104336370D01*
X138218751Y-104336377D01*
X138083058Y-104513217D01*
X138083052Y-104513226D01*
X137971595Y-104706273D01*
X137971593Y-104706277D01*
X137886293Y-104912209D01*
X137886290Y-104912219D01*
X137831465Y-105116832D01*
X137828597Y-105127534D01*
X137828594Y-105127547D01*
X137802612Y-105324904D01*
X137799500Y-105348543D01*
X137799500Y-105571457D01*
X137804875Y-105612287D01*
X137828594Y-105792452D01*
X137828595Y-105792457D01*
X137828596Y-105792463D01*
X137878420Y-105978409D01*
X137886290Y-106007780D01*
X137886293Y-106007790D01*
X137971593Y-106213722D01*
X137971595Y-106213726D01*
X138083052Y-106406774D01*
X138083057Y-106406780D01*
X138083058Y-106406782D01*
X138218751Y-106583622D01*
X138218757Y-106583629D01*
X138277447Y-106642319D01*
X138310932Y-106703642D01*
X138305948Y-106773334D01*
X138277447Y-106817681D01*
X138218757Y-106876370D01*
X138218751Y-106876377D01*
X138083058Y-107053217D01*
X138083052Y-107053226D01*
X137971596Y-107246272D01*
X137886293Y-107452209D01*
X137886290Y-107452219D01*
X137831144Y-107658030D01*
X137828597Y-107667534D01*
X137828594Y-107667547D01*
X137799501Y-107888533D01*
X137799500Y-107888549D01*
X137799500Y-108111450D01*
X137799501Y-108111466D01*
X137828594Y-108332452D01*
X137828595Y-108332457D01*
X137828596Y-108332463D01*
X137871336Y-108491971D01*
X137886290Y-108547780D01*
X137886293Y-108547790D01*
X137966726Y-108741971D01*
X137971595Y-108753726D01*
X138083052Y-108946774D01*
X138083057Y-108946780D01*
X138083058Y-108946782D01*
X138218751Y-109123622D01*
X138218757Y-109123629D01*
X138277447Y-109182319D01*
X138310932Y-109243642D01*
X138305948Y-109313334D01*
X138277447Y-109357681D01*
X138218757Y-109416370D01*
X138218751Y-109416377D01*
X138083058Y-109593217D01*
X138083052Y-109593226D01*
X137971595Y-109786273D01*
X137971590Y-109786282D01*
X137886288Y-109992224D01*
X137884982Y-109996071D01*
X137884023Y-109995745D01*
X137849999Y-110051532D01*
X137787145Y-110082045D01*
X137728294Y-110077688D01*
X137601368Y-110036446D01*
X137369980Y-109999798D01*
X137306845Y-109969869D01*
X137269914Y-109910557D01*
X137265378Y-109877325D01*
X137265378Y-109682770D01*
X137233355Y-109480587D01*
X137184921Y-109331523D01*
X137170098Y-109285903D01*
X137170096Y-109285900D01*
X137170096Y-109285898D01*
X137117319Y-109182319D01*
X137077165Y-109103512D01*
X137036869Y-109048049D01*
X136956849Y-108937908D01*
X136812091Y-108793150D01*
X136646491Y-108672837D01*
X136646490Y-108672836D01*
X136646488Y-108672835D01*
X136564616Y-108631119D01*
X136464101Y-108579903D01*
X136269412Y-108516644D01*
X136094873Y-108489000D01*
X136067230Y-108484622D01*
X135862526Y-108484622D01*
X135838207Y-108488473D01*
X135660343Y-108516644D01*
X135465654Y-108579903D01*
X135283264Y-108672837D01*
X135117664Y-108793150D01*
X134972906Y-108937908D01*
X134852593Y-109103508D01*
X134759659Y-109285898D01*
X134696400Y-109480587D01*
X134665688Y-109674500D01*
X134664378Y-109682770D01*
X131764352Y-109682770D01*
X131735254Y-109593217D01*
X131705220Y-109500781D01*
X131705218Y-109500778D01*
X131705218Y-109500776D01*
X131651210Y-109394781D01*
X131612287Y-109318390D01*
X131588684Y-109285903D01*
X131491971Y-109152786D01*
X131347213Y-109008028D01*
X131181613Y-108887715D01*
X131181612Y-108887714D01*
X131181610Y-108887713D01*
X131110279Y-108851368D01*
X130999223Y-108794781D01*
X130804534Y-108731522D01*
X130629995Y-108703878D01*
X130602352Y-108699500D01*
X130397648Y-108699500D01*
X130373329Y-108703351D01*
X130195465Y-108731522D01*
X130000776Y-108794781D01*
X129818386Y-108887715D01*
X129652786Y-109008028D01*
X129508028Y-109152786D01*
X129387715Y-109318386D01*
X129294781Y-109500776D01*
X129231522Y-109695465D01*
X129199500Y-109897648D01*
X126997218Y-109897648D01*
X126891971Y-109752786D01*
X126747213Y-109608028D01*
X126581613Y-109487715D01*
X126581612Y-109487714D01*
X126581610Y-109487713D01*
X126514530Y-109453534D01*
X126399223Y-109394781D01*
X126204534Y-109331522D01*
X126029995Y-109303878D01*
X126002352Y-109299500D01*
X125797648Y-109299500D01*
X125773329Y-109303351D01*
X125595465Y-109331522D01*
X125400776Y-109394781D01*
X125218386Y-109487715D01*
X125052786Y-109608028D01*
X124908028Y-109752786D01*
X124787715Y-109918386D01*
X124694781Y-110100776D01*
X124631522Y-110295465D01*
X124599500Y-110497648D01*
X110000500Y-110497648D01*
X110000500Y-107766966D01*
X112424500Y-107766966D01*
X112424500Y-108733028D01*
X112424501Y-108733034D01*
X112435113Y-108852415D01*
X112491089Y-109048045D01*
X112491090Y-109048048D01*
X112491091Y-109048049D01*
X112585302Y-109228407D01*
X112604011Y-109251352D01*
X112713890Y-109386109D01*
X112796581Y-109453534D01*
X112871593Y-109514698D01*
X113051951Y-109608909D01*
X113247582Y-109664886D01*
X113366963Y-109675500D01*
X114333036Y-109675499D01*
X114452418Y-109664886D01*
X114648049Y-109608909D01*
X114828407Y-109514698D01*
X114986109Y-109386109D01*
X115114698Y-109228407D01*
X115208909Y-109048049D01*
X115264886Y-108852418D01*
X115275500Y-108733037D01*
X115275499Y-107766964D01*
X115264886Y-107647582D01*
X115208909Y-107451951D01*
X115114698Y-107271593D01*
X115047876Y-107189642D01*
X114986109Y-107113890D01*
X114870933Y-107019977D01*
X114828407Y-106985302D01*
X114648049Y-106891091D01*
X114648048Y-106891090D01*
X114648045Y-106891089D01*
X114530829Y-106857550D01*
X114452418Y-106835114D01*
X114452415Y-106835113D01*
X114452413Y-106835113D01*
X114386102Y-106829217D01*
X114333037Y-106824500D01*
X114333032Y-106824500D01*
X113366971Y-106824500D01*
X113366965Y-106824500D01*
X113366964Y-106824501D01*
X113355316Y-106825536D01*
X113247584Y-106835113D01*
X113051954Y-106891089D01*
X112983825Y-106926677D01*
X112871593Y-106985302D01*
X112871591Y-106985303D01*
X112871590Y-106985304D01*
X112713890Y-107113890D01*
X112585304Y-107271590D01*
X112585302Y-107271593D01*
X112549020Y-107341051D01*
X112491089Y-107451954D01*
X112435114Y-107647583D01*
X112435113Y-107647586D01*
X112428920Y-107717244D01*
X112426256Y-107747219D01*
X112424500Y-107766966D01*
X110000500Y-107766966D01*
X110000500Y-95366966D01*
X112424500Y-95366966D01*
X112424500Y-96333028D01*
X112424501Y-96333034D01*
X112435113Y-96452415D01*
X112491089Y-96648045D01*
X112491090Y-96648048D01*
X112491091Y-96648049D01*
X112585302Y-96828407D01*
X112598653Y-96844781D01*
X112713890Y-96986109D01*
X112791424Y-97049329D01*
X112871593Y-97114698D01*
X113051951Y-97208909D01*
X113051953Y-97208909D01*
X113051954Y-97208910D01*
X113089695Y-97219709D01*
X113215773Y-97255784D01*
X113274811Y-97293151D01*
X113304275Y-97356505D01*
X113294810Y-97425730D01*
X113249421Y-97478849D01*
X113215774Y-97494215D01*
X113180641Y-97504268D01*
X113051954Y-97541089D01*
X113033400Y-97550781D01*
X112871593Y-97635302D01*
X112871591Y-97635303D01*
X112871590Y-97635304D01*
X112713890Y-97763890D01*
X112585304Y-97921590D01*
X112491089Y-98101954D01*
X112454675Y-98229219D01*
X112435916Y-98294781D01*
X112435114Y-98297583D01*
X112435113Y-98297586D01*
X112424500Y-98416966D01*
X112424500Y-99383028D01*
X112424501Y-99383034D01*
X112435113Y-99502415D01*
X112491089Y-99698045D01*
X112491090Y-99698048D01*
X112491091Y-99698049D01*
X112585302Y-99878407D01*
X112585304Y-99878409D01*
X112713890Y-100036109D01*
X112789125Y-100097454D01*
X112871593Y-100164698D01*
X113051951Y-100258909D01*
X113215773Y-100305784D01*
X113274811Y-100343151D01*
X113304275Y-100406505D01*
X113294810Y-100475730D01*
X113249421Y-100528849D01*
X113215774Y-100544215D01*
X113203778Y-100547648D01*
X113051954Y-100591089D01*
X113011379Y-100612284D01*
X112871593Y-100685302D01*
X112871591Y-100685303D01*
X112871590Y-100685304D01*
X112713890Y-100813890D01*
X112585304Y-100971590D01*
X112585302Y-100971593D01*
X112554017Y-101031485D01*
X112491089Y-101151954D01*
X112465333Y-101241971D01*
X112437779Y-101338270D01*
X112435114Y-101347583D01*
X112435113Y-101347586D01*
X112430856Y-101395469D01*
X112426256Y-101447219D01*
X112424500Y-101466966D01*
X112424500Y-102433028D01*
X112424501Y-102433034D01*
X112435113Y-102552415D01*
X112491089Y-102748045D01*
X112491090Y-102748048D01*
X112491091Y-102748049D01*
X112585302Y-102928407D01*
X112585304Y-102928409D01*
X112713890Y-103086109D01*
X112786880Y-103145624D01*
X112871593Y-103214698D01*
X113051951Y-103308909D01*
X113051953Y-103308909D01*
X113051954Y-103308910D01*
X113092040Y-103320380D01*
X113215773Y-103355784D01*
X113274811Y-103393151D01*
X113304275Y-103456505D01*
X113294810Y-103525730D01*
X113249421Y-103578849D01*
X113215774Y-103594215D01*
X113180641Y-103604268D01*
X113051954Y-103641089D01*
X112974385Y-103681608D01*
X112871593Y-103735302D01*
X112871591Y-103735303D01*
X112871590Y-103735304D01*
X112713890Y-103863890D01*
X112609134Y-103992365D01*
X112585302Y-104021593D01*
X112558987Y-104071971D01*
X112491089Y-104201954D01*
X112461738Y-104304534D01*
X112437364Y-104389721D01*
X112435114Y-104397583D01*
X112435113Y-104397586D01*
X112429782Y-104457550D01*
X112426064Y-104499379D01*
X112424500Y-104516966D01*
X112424500Y-105483028D01*
X112424501Y-105483034D01*
X112435113Y-105602415D01*
X112491089Y-105798045D01*
X112491090Y-105798047D01*
X112491091Y-105798049D01*
X112585302Y-105978407D01*
X112585304Y-105978409D01*
X112713890Y-106136109D01*
X112807803Y-106212684D01*
X112871593Y-106264698D01*
X113051951Y-106358909D01*
X113051953Y-106358909D01*
X113051954Y-106358910D01*
X113071355Y-106364461D01*
X113247582Y-106414886D01*
X113366963Y-106425500D01*
X114333036Y-106425499D01*
X114452418Y-106414886D01*
X114648049Y-106358909D01*
X114828407Y-106264698D01*
X114986109Y-106136109D01*
X115114698Y-105978407D01*
X115156883Y-105897648D01*
X133199500Y-105897648D01*
X133199500Y-106102351D01*
X133231522Y-106304534D01*
X133294781Y-106499223D01*
X133352056Y-106611629D01*
X133374683Y-106656038D01*
X133387715Y-106681613D01*
X133508028Y-106847213D01*
X133652786Y-106991971D01*
X133807749Y-107104556D01*
X133818390Y-107112287D01*
X133934607Y-107171503D01*
X134000776Y-107205218D01*
X134000778Y-107205218D01*
X134000781Y-107205220D01*
X134071694Y-107228261D01*
X134195465Y-107268477D01*
X134296557Y-107284488D01*
X134397648Y-107300500D01*
X134397649Y-107300500D01*
X134602351Y-107300500D01*
X134602352Y-107300500D01*
X134804534Y-107268477D01*
X134999219Y-107205220D01*
X135181610Y-107112287D01*
X135181612Y-107112285D01*
X135181615Y-107112284D01*
X135185207Y-107110083D01*
X135252652Y-107091836D01*
X135314793Y-107110083D01*
X135318384Y-107112284D01*
X135500776Y-107205218D01*
X135500778Y-107205218D01*
X135500781Y-107205220D01*
X135571694Y-107228261D01*
X135695465Y-107268477D01*
X135796557Y-107284488D01*
X135897648Y-107300500D01*
X135897649Y-107300500D01*
X136102351Y-107300500D01*
X136102352Y-107300500D01*
X136304534Y-107268477D01*
X136499219Y-107205220D01*
X136681610Y-107112287D01*
X136785997Y-107036446D01*
X136847213Y-106991971D01*
X136847215Y-106991968D01*
X136847219Y-106991966D01*
X136991966Y-106847219D01*
X136991968Y-106847215D01*
X136991971Y-106847213D01*
X137056762Y-106758034D01*
X137112287Y-106681610D01*
X137205220Y-106499219D01*
X137268477Y-106304534D01*
X137300500Y-106102352D01*
X137300500Y-105897648D01*
X137284725Y-105798049D01*
X137268477Y-105695465D01*
X137205218Y-105500776D01*
X137171503Y-105434607D01*
X137112287Y-105318390D01*
X137095452Y-105295218D01*
X136991971Y-105152786D01*
X136847213Y-105008028D01*
X136681613Y-104887715D01*
X136681612Y-104887714D01*
X136681610Y-104887713D01*
X136624653Y-104858691D01*
X136499223Y-104794781D01*
X136304534Y-104731522D01*
X136129995Y-104703878D01*
X136102352Y-104699500D01*
X135897648Y-104699500D01*
X135873329Y-104703351D01*
X135695465Y-104731522D01*
X135500776Y-104794781D01*
X135318384Y-104887715D01*
X135314793Y-104889917D01*
X135247348Y-104908164D01*
X135185207Y-104889917D01*
X135181615Y-104887715D01*
X134999223Y-104794781D01*
X134804534Y-104731522D01*
X134629995Y-104703878D01*
X134602352Y-104699500D01*
X134397648Y-104699500D01*
X134373329Y-104703351D01*
X134195465Y-104731522D01*
X134000776Y-104794781D01*
X133818386Y-104887715D01*
X133652786Y-105008028D01*
X133508028Y-105152786D01*
X133387715Y-105318386D01*
X133294781Y-105500776D01*
X133231522Y-105695465D01*
X133199500Y-105897648D01*
X115156883Y-105897648D01*
X115208909Y-105798049D01*
X115264886Y-105602418D01*
X115275500Y-105483037D01*
X115275499Y-104516964D01*
X115264886Y-104397582D01*
X115208909Y-104201951D01*
X115114698Y-104021593D01*
X115055914Y-103949500D01*
X114986109Y-103863890D01*
X114858085Y-103759501D01*
X114828407Y-103735302D01*
X114648049Y-103641091D01*
X114648048Y-103641090D01*
X114648045Y-103641089D01*
X114551612Y-103613497D01*
X114484224Y-103594214D01*
X114425188Y-103556849D01*
X114395724Y-103493495D01*
X114405189Y-103424270D01*
X114450578Y-103371151D01*
X114484222Y-103355785D01*
X114648049Y-103308909D01*
X114828407Y-103214698D01*
X114986109Y-103086109D01*
X115114698Y-102928407D01*
X115208909Y-102748049D01*
X115264886Y-102552418D01*
X115275500Y-102433037D01*
X115275499Y-101466964D01*
X115264886Y-101347582D01*
X115217396Y-101181613D01*
X115208910Y-101151954D01*
X115208909Y-101151953D01*
X115208909Y-101151951D01*
X115114698Y-100971593D01*
X115046303Y-100887713D01*
X114986109Y-100813890D01*
X114828407Y-100685302D01*
X114648049Y-100591091D01*
X114648048Y-100591090D01*
X114648045Y-100591089D01*
X114531111Y-100557631D01*
X114496224Y-100547648D01*
X129619500Y-100547648D01*
X129619500Y-100752351D01*
X129651522Y-100954534D01*
X129714781Y-101149223D01*
X129807715Y-101331613D01*
X129928028Y-101497213D01*
X130072782Y-101641967D01*
X130075315Y-101643807D01*
X130076044Y-101644753D01*
X130076488Y-101645132D01*
X130076408Y-101645225D01*
X130117982Y-101699137D01*
X130124905Y-101763521D01*
X130119955Y-101794781D01*
X130119500Y-101797651D01*
X130119500Y-102002351D01*
X130151522Y-102204534D01*
X130214781Y-102399223D01*
X130266729Y-102501174D01*
X130307288Y-102580776D01*
X130307715Y-102581613D01*
X130428028Y-102747213D01*
X130572786Y-102891971D01*
X130690805Y-102977715D01*
X130738390Y-103012287D01*
X130920781Y-103105220D01*
X131045136Y-103145625D01*
X131102809Y-103185061D01*
X131129289Y-103244157D01*
X131151522Y-103384534D01*
X131214781Y-103579223D01*
X131252264Y-103652786D01*
X131306638Y-103759501D01*
X131307715Y-103761613D01*
X131428028Y-103927213D01*
X131572786Y-104071971D01*
X131663277Y-104137715D01*
X131738390Y-104192287D01*
X131853120Y-104250745D01*
X131920776Y-104285218D01*
X131920778Y-104285218D01*
X131920781Y-104285220D01*
X132025137Y-104319127D01*
X132115465Y-104348477D01*
X132216557Y-104364488D01*
X132317648Y-104380500D01*
X132317649Y-104380500D01*
X132522351Y-104380500D01*
X132522352Y-104380500D01*
X132724534Y-104348477D01*
X132919219Y-104285220D01*
X133101610Y-104192287D01*
X133225396Y-104102352D01*
X133267213Y-104071971D01*
X133267215Y-104071968D01*
X133267219Y-104071966D01*
X133411966Y-103927219D01*
X133411968Y-103927215D01*
X133411971Y-103927213D01*
X133491034Y-103818390D01*
X133532287Y-103761610D01*
X133625220Y-103579219D01*
X133688477Y-103384534D01*
X133720500Y-103182352D01*
X133720500Y-102977648D01*
X133705791Y-102884780D01*
X133688477Y-102775465D01*
X133657981Y-102681610D01*
X133625220Y-102580781D01*
X133625218Y-102580778D01*
X133625218Y-102580776D01*
X133580329Y-102492677D01*
X133532287Y-102398390D01*
X133519547Y-102380855D01*
X133411971Y-102232786D01*
X133267215Y-102088030D01*
X133266829Y-102087750D01*
X133266717Y-102087605D01*
X133263506Y-102084862D01*
X133264081Y-102084187D01*
X133224161Y-102032422D01*
X133218179Y-101962809D01*
X133250782Y-101901013D01*
X133301392Y-101869498D01*
X133315309Y-101864975D01*
X133499219Y-101805220D01*
X133681610Y-101712287D01*
X133778399Y-101641966D01*
X133847213Y-101591971D01*
X133847215Y-101591968D01*
X133847219Y-101591966D01*
X133991966Y-101447219D01*
X133991968Y-101447215D01*
X133991971Y-101447213D01*
X134064356Y-101347582D01*
X134112287Y-101281610D01*
X134205220Y-101099219D01*
X134268477Y-100904534D01*
X134300500Y-100702352D01*
X134300500Y-100497648D01*
X134268477Y-100295466D01*
X134205220Y-100100781D01*
X134205217Y-100100775D01*
X134205216Y-100100772D01*
X134203842Y-100097454D01*
X134196372Y-100027985D01*
X134203842Y-100002546D01*
X134205216Y-99999227D01*
X134205216Y-99999226D01*
X134205220Y-99999219D01*
X134268477Y-99804534D01*
X134300500Y-99602352D01*
X134300500Y-99397648D01*
X136699500Y-99397648D01*
X136699500Y-99602351D01*
X136731522Y-99804534D01*
X136794781Y-99999223D01*
X136852391Y-100112287D01*
X136879094Y-100164695D01*
X136887715Y-100181613D01*
X137008028Y-100347213D01*
X137152786Y-100491971D01*
X137307749Y-100604556D01*
X137318390Y-100612287D01*
X137404482Y-100656153D01*
X137500776Y-100705218D01*
X137500778Y-100705218D01*
X137500781Y-100705220D01*
X137605137Y-100739127D01*
X137695465Y-100768477D01*
X137796557Y-100784488D01*
X137897648Y-100800500D01*
X137897649Y-100800500D01*
X138102351Y-100800500D01*
X138102352Y-100800500D01*
X138304534Y-100768477D01*
X138499219Y-100705220D01*
X138681610Y-100612287D01*
X138775302Y-100544216D01*
X138847213Y-100491971D01*
X138847215Y-100491968D01*
X138847219Y-100491966D01*
X138991966Y-100347219D01*
X138991968Y-100347215D01*
X138991971Y-100347213D01*
X139095133Y-100205220D01*
X139112287Y-100181610D01*
X139205220Y-99999219D01*
X139268477Y-99804534D01*
X139300500Y-99602352D01*
X139300500Y-99397648D01*
X139277941Y-99255218D01*
X139268477Y-99195465D01*
X139248910Y-99135245D01*
X139205220Y-99000781D01*
X139205217Y-99000777D01*
X139205217Y-99000774D01*
X139178873Y-98949072D01*
X139178872Y-98949071D01*
X139152671Y-98897648D01*
X146199500Y-98897648D01*
X146199500Y-99102351D01*
X146231522Y-99304534D01*
X146294781Y-99499223D01*
X146330022Y-99568386D01*
X146375700Y-99658034D01*
X146387715Y-99681613D01*
X146508028Y-99847213D01*
X146652786Y-99991971D01*
X146797974Y-100097454D01*
X146818390Y-100112287D01*
X146921252Y-100164698D01*
X147000776Y-100205218D01*
X147000778Y-100205218D01*
X147000781Y-100205220D01*
X147105137Y-100239127D01*
X147195465Y-100268477D01*
X147296557Y-100284488D01*
X147397648Y-100300500D01*
X147397649Y-100300500D01*
X147602351Y-100300500D01*
X147602352Y-100300500D01*
X147804534Y-100268477D01*
X147999219Y-100205220D01*
X148112210Y-100147648D01*
X155199500Y-100147648D01*
X155199500Y-100352351D01*
X155231522Y-100554534D01*
X155294781Y-100749223D01*
X155328124Y-100814661D01*
X155370408Y-100897648D01*
X155387715Y-100931613D01*
X155508028Y-101097213D01*
X155652786Y-101241971D01*
X155798153Y-101347584D01*
X155818390Y-101362287D01*
X155934607Y-101421503D01*
X156000776Y-101455218D01*
X156000778Y-101455218D01*
X156000781Y-101455220D01*
X156063129Y-101475478D01*
X156195465Y-101518477D01*
X156296557Y-101534488D01*
X156397648Y-101550500D01*
X156397649Y-101550500D01*
X156602351Y-101550500D01*
X156602352Y-101550500D01*
X156804534Y-101518477D01*
X156999219Y-101455220D01*
X157181610Y-101362287D01*
X157292649Y-101281613D01*
X157302115Y-101274736D01*
X157367921Y-101251256D01*
X157435975Y-101267082D01*
X157447885Y-101274736D01*
X157535328Y-101338266D01*
X157568390Y-101362287D01*
X157750781Y-101455220D01*
X157813131Y-101475478D01*
X157870806Y-101514915D01*
X157898005Y-101579273D01*
X157886091Y-101648120D01*
X157838847Y-101699596D01*
X157794212Y-101715882D01*
X157695464Y-101731523D01*
X157500776Y-101794781D01*
X157318386Y-101887715D01*
X157152786Y-102008028D01*
X157008028Y-102152786D01*
X156887715Y-102318386D01*
X156794781Y-102500776D01*
X156731522Y-102695465D01*
X156701538Y-102884780D01*
X156699500Y-102897648D01*
X156699500Y-103102352D01*
X156700038Y-103105747D01*
X156731522Y-103304534D01*
X156794781Y-103499223D01*
X156887712Y-103681608D01*
X156887713Y-103681610D01*
X156936344Y-103748546D01*
X156959823Y-103814352D01*
X156958499Y-103840827D01*
X156949500Y-103897647D01*
X156949500Y-104102351D01*
X156981522Y-104304534D01*
X157044781Y-104499223D01*
X157137715Y-104681613D01*
X157258028Y-104847213D01*
X157402786Y-104991971D01*
X157568389Y-105112287D01*
X157572542Y-105114832D01*
X157571414Y-105116671D01*
X157589619Y-105133880D01*
X157614732Y-105156928D01*
X157614974Y-105157848D01*
X157615665Y-105158502D01*
X157623830Y-105191538D01*
X157632496Y-105224502D01*
X157632282Y-105225734D01*
X157632430Y-105226331D01*
X157626478Y-105259280D01*
X157613284Y-105299890D01*
X157583034Y-105349255D01*
X157476319Y-105455970D01*
X157356004Y-105621572D01*
X157263070Y-105803962D01*
X157199811Y-105998651D01*
X157177022Y-106142539D01*
X157167789Y-106200834D01*
X157167789Y-106405538D01*
X157170951Y-106425499D01*
X157199812Y-106607723D01*
X157222495Y-106677535D01*
X157224490Y-106747376D01*
X157215049Y-106772147D01*
X157136312Y-106926677D01*
X157073052Y-107121366D01*
X157041030Y-107323549D01*
X157041030Y-107528252D01*
X157073052Y-107730435D01*
X157136311Y-107925124D01*
X157200221Y-108050554D01*
X157226030Y-108101206D01*
X157229245Y-108107514D01*
X157349558Y-108273114D01*
X157494316Y-108417872D01*
X157596300Y-108491966D01*
X157659920Y-108538188D01*
X157775763Y-108597213D01*
X157842306Y-108631119D01*
X157842308Y-108631119D01*
X157842311Y-108631121D01*
X157899741Y-108649781D01*
X158036995Y-108694378D01*
X158138087Y-108710389D01*
X158239178Y-108726401D01*
X158239179Y-108726401D01*
X158443881Y-108726401D01*
X158443882Y-108726401D01*
X158646064Y-108694378D01*
X158840749Y-108631121D01*
X159023140Y-108538188D01*
X159120591Y-108467386D01*
X159188743Y-108417872D01*
X159188745Y-108417869D01*
X159188749Y-108417867D01*
X159333496Y-108273120D01*
X159333498Y-108273116D01*
X159333501Y-108273114D01*
X159403570Y-108176670D01*
X159453817Y-108107511D01*
X159546750Y-107925120D01*
X159610007Y-107730435D01*
X159642030Y-107528253D01*
X159642030Y-107323549D01*
X159610007Y-107121367D01*
X159587321Y-107051549D01*
X159585327Y-106981713D01*
X159594766Y-106956945D01*
X159673509Y-106802405D01*
X159732990Y-106619340D01*
X159763238Y-106569980D01*
X159869949Y-106463270D01*
X159990270Y-106297661D01*
X160083203Y-106115270D01*
X160146460Y-105920585D01*
X160178483Y-105718403D01*
X160178483Y-105513699D01*
X160173625Y-105483028D01*
X160146460Y-105311516D01*
X160094885Y-105152786D01*
X160083203Y-105116832D01*
X160083201Y-105116829D01*
X160083201Y-105116827D01*
X160049486Y-105050658D01*
X159990270Y-104934441D01*
X159956322Y-104887715D01*
X159869954Y-104768837D01*
X159725196Y-104624079D01*
X159559593Y-104503763D01*
X159555441Y-104501219D01*
X159556568Y-104499379D01*
X159512317Y-104457550D01*
X159495551Y-104389721D01*
X159501501Y-104356777D01*
X159518477Y-104304534D01*
X159550500Y-104102352D01*
X159550500Y-103897648D01*
X159518477Y-103695466D01*
X159513974Y-103681608D01*
X159479173Y-103574500D01*
X159455220Y-103500781D01*
X159455218Y-103500778D01*
X159455218Y-103500776D01*
X159448824Y-103488228D01*
X159435928Y-103419559D01*
X159462204Y-103354819D01*
X159519310Y-103314561D01*
X159578704Y-103309460D01*
X159647648Y-103320380D01*
X159647650Y-103320380D01*
X159852351Y-103320380D01*
X159852352Y-103320380D01*
X160054534Y-103288357D01*
X160249219Y-103225100D01*
X160431610Y-103132167D01*
X160524590Y-103064612D01*
X160597213Y-103011851D01*
X160597215Y-103011848D01*
X160597219Y-103011846D01*
X160741966Y-102867099D01*
X160741968Y-102867095D01*
X160741971Y-102867093D01*
X160794732Y-102794470D01*
X160862287Y-102701490D01*
X160955220Y-102519099D01*
X161018477Y-102324414D01*
X161050500Y-102122232D01*
X161050500Y-101917528D01*
X161035380Y-101822068D01*
X161018477Y-101715345D01*
X160984990Y-101612284D01*
X160955220Y-101520661D01*
X160955218Y-101520658D01*
X160955218Y-101520656D01*
X160891431Y-101395469D01*
X160862287Y-101338270D01*
X160821124Y-101281613D01*
X160791429Y-101240741D01*
X160791426Y-101240738D01*
X160772134Y-101214185D01*
X160741966Y-101172661D01*
X160597219Y-101027914D01*
X160597213Y-101027908D01*
X160431613Y-100907595D01*
X160431612Y-100907594D01*
X160431610Y-100907593D01*
X160374653Y-100878571D01*
X160249223Y-100814661D01*
X160054534Y-100751402D01*
X159879995Y-100723758D01*
X159852352Y-100719380D01*
X159647648Y-100719380D01*
X159647647Y-100719380D01*
X159645116Y-100719579D01*
X159644169Y-100719380D01*
X159642776Y-100719380D01*
X159642776Y-100719087D01*
X159576740Y-100705208D01*
X159526988Y-100656153D01*
X159511655Y-100587986D01*
X159517471Y-100557631D01*
X159518476Y-100554537D01*
X159518477Y-100554534D01*
X159550500Y-100352352D01*
X159550500Y-100147648D01*
X159526992Y-99999227D01*
X159518477Y-99945465D01*
X159455218Y-99750776D01*
X159383323Y-99609676D01*
X159362287Y-99568390D01*
X159354556Y-99557749D01*
X159241971Y-99402786D01*
X159097213Y-99258028D01*
X158931613Y-99137715D01*
X158931612Y-99137714D01*
X158931610Y-99137713D01*
X158862208Y-99102351D01*
X158749223Y-99044781D01*
X158554534Y-98981522D01*
X158379995Y-98953878D01*
X158352352Y-98949500D01*
X158147648Y-98949500D01*
X158123329Y-98953351D01*
X157945465Y-98981522D01*
X157750776Y-99044781D01*
X157568390Y-99137712D01*
X157447885Y-99225264D01*
X157382078Y-99248743D01*
X157314024Y-99232917D01*
X157302115Y-99225264D01*
X157181609Y-99137712D01*
X156999223Y-99044781D01*
X156804534Y-98981522D01*
X156629995Y-98953878D01*
X156602352Y-98949500D01*
X156397648Y-98949500D01*
X156373329Y-98953351D01*
X156195465Y-98981522D01*
X156000776Y-99044781D01*
X155818386Y-99137715D01*
X155652786Y-99258028D01*
X155508028Y-99402786D01*
X155387715Y-99568386D01*
X155294781Y-99750776D01*
X155231522Y-99945465D01*
X155199500Y-100147648D01*
X148112210Y-100147648D01*
X148181610Y-100112287D01*
X148347219Y-99991966D01*
X148491966Y-99847219D01*
X148491968Y-99847215D01*
X148491971Y-99847213D01*
X148576024Y-99731522D01*
X148612287Y-99681610D01*
X148705220Y-99499219D01*
X148768477Y-99304534D01*
X148800500Y-99102352D01*
X148800500Y-98897648D01*
X148768477Y-98695466D01*
X148754609Y-98652786D01*
X148736553Y-98597213D01*
X148705220Y-98500781D01*
X148705218Y-98500778D01*
X148705218Y-98500776D01*
X148669976Y-98431610D01*
X148612287Y-98318390D01*
X148595134Y-98294781D01*
X148491971Y-98152786D01*
X148347213Y-98008028D01*
X148181613Y-97887715D01*
X148181612Y-97887714D01*
X148181610Y-97887713D01*
X148081062Y-97836481D01*
X147999223Y-97794781D01*
X147804534Y-97731522D01*
X147629995Y-97703878D01*
X147602352Y-97699500D01*
X147397648Y-97699500D01*
X147373329Y-97703351D01*
X147195465Y-97731522D01*
X147000776Y-97794781D01*
X146818386Y-97887715D01*
X146652786Y-98008028D01*
X146508028Y-98152786D01*
X146387715Y-98318386D01*
X146294781Y-98500776D01*
X146231522Y-98695465D01*
X146199500Y-98897648D01*
X139152671Y-98897648D01*
X139152449Y-98897213D01*
X139112287Y-98818390D01*
X139112285Y-98818387D01*
X139112284Y-98818385D01*
X138991971Y-98652786D01*
X138847213Y-98508028D01*
X138681613Y-98387715D01*
X138681612Y-98387714D01*
X138681610Y-98387713D01*
X138616493Y-98354534D01*
X138499223Y-98294781D01*
X138304534Y-98231522D01*
X138129995Y-98203878D01*
X138102352Y-98199500D01*
X137897648Y-98199500D01*
X137873329Y-98203351D01*
X137695465Y-98231522D01*
X137500776Y-98294781D01*
X137318386Y-98387715D01*
X137152786Y-98508028D01*
X137008028Y-98652786D01*
X136887715Y-98818386D01*
X136794781Y-99000776D01*
X136731522Y-99195465D01*
X136699500Y-99397648D01*
X134300500Y-99397648D01*
X134277941Y-99255218D01*
X134268477Y-99195465D01*
X134238222Y-99102351D01*
X134205220Y-99000781D01*
X134205218Y-99000778D01*
X134205218Y-99000776D01*
X134152449Y-98897213D01*
X134112287Y-98818390D01*
X134056766Y-98741971D01*
X133991971Y-98652786D01*
X133847213Y-98508028D01*
X133681613Y-98387715D01*
X133681612Y-98387714D01*
X133681610Y-98387713D01*
X133616493Y-98354534D01*
X133499223Y-98294781D01*
X133304534Y-98231522D01*
X133129995Y-98203878D01*
X133102352Y-98199500D01*
X132897648Y-98199500D01*
X132873329Y-98203351D01*
X132695465Y-98231522D01*
X132500776Y-98294781D01*
X132318386Y-98387715D01*
X132152786Y-98508028D01*
X132008028Y-98652786D01*
X131887715Y-98818386D01*
X131794781Y-99000776D01*
X131731522Y-99195465D01*
X131698738Y-99402460D01*
X131697053Y-99402193D01*
X131674783Y-99460576D01*
X131618541Y-99502031D01*
X131548814Y-99506498D01*
X131519775Y-99496016D01*
X131419223Y-99444781D01*
X131224534Y-99381522D01*
X131049995Y-99353878D01*
X131022352Y-99349500D01*
X130817648Y-99349500D01*
X130793329Y-99353351D01*
X130615465Y-99381522D01*
X130420776Y-99444781D01*
X130238386Y-99537715D01*
X130072786Y-99658028D01*
X129928028Y-99802786D01*
X129807715Y-99968386D01*
X129714781Y-100150776D01*
X129651522Y-100345465D01*
X129619500Y-100547648D01*
X114496224Y-100547648D01*
X114484224Y-100544214D01*
X114425188Y-100506849D01*
X114395724Y-100443495D01*
X114405189Y-100374270D01*
X114450578Y-100321151D01*
X114484222Y-100305785D01*
X114648049Y-100258909D01*
X114828407Y-100164698D01*
X114986109Y-100036109D01*
X115114698Y-99878407D01*
X115208909Y-99698049D01*
X115264886Y-99502418D01*
X115275500Y-99383037D01*
X115275499Y-98416964D01*
X115264886Y-98297582D01*
X115209024Y-98102352D01*
X115208910Y-98101954D01*
X115208909Y-98101953D01*
X115208909Y-98101951D01*
X115114698Y-97921593D01*
X115058239Y-97852351D01*
X114986109Y-97763890D01*
X114828409Y-97635304D01*
X114828410Y-97635304D01*
X114828407Y-97635302D01*
X114648049Y-97541091D01*
X114648048Y-97541090D01*
X114648045Y-97541089D01*
X114551612Y-97513497D01*
X114484224Y-97494214D01*
X114425188Y-97456849D01*
X114395724Y-97393495D01*
X114405189Y-97324270D01*
X114450578Y-97271151D01*
X114484222Y-97255785D01*
X114648049Y-97208909D01*
X114828407Y-97114698D01*
X114986109Y-96986109D01*
X115114698Y-96828407D01*
X115208909Y-96648049D01*
X115264886Y-96452418D01*
X115275500Y-96333037D01*
X115275499Y-95366964D01*
X115264886Y-95247582D01*
X115208909Y-95051951D01*
X115114698Y-94871593D01*
X115055914Y-94799500D01*
X114986109Y-94713890D01*
X114828409Y-94585304D01*
X114828410Y-94585304D01*
X114828407Y-94585302D01*
X114648049Y-94491091D01*
X114648048Y-94491090D01*
X114648045Y-94491089D01*
X114530829Y-94457550D01*
X114452418Y-94435114D01*
X114452415Y-94435113D01*
X114452413Y-94435113D01*
X114386102Y-94429217D01*
X114333037Y-94424500D01*
X114333032Y-94424500D01*
X113366971Y-94424500D01*
X113366965Y-94424500D01*
X113366964Y-94424501D01*
X113355316Y-94425536D01*
X113247584Y-94435113D01*
X113051954Y-94491089D01*
X113033400Y-94500781D01*
X112871593Y-94585302D01*
X112871591Y-94585303D01*
X112871590Y-94585304D01*
X112713890Y-94713890D01*
X112605176Y-94847219D01*
X112585302Y-94871593D01*
X112577891Y-94885781D01*
X112491089Y-95051954D01*
X112435114Y-95247583D01*
X112435113Y-95247586D01*
X112434651Y-95252786D01*
X112426462Y-95344902D01*
X112424500Y-95366966D01*
X110000500Y-95366966D01*
X110000500Y-91857648D01*
X137859500Y-91857648D01*
X137859500Y-92062351D01*
X137891522Y-92264534D01*
X137954781Y-92459223D01*
X138017141Y-92581610D01*
X138047276Y-92640753D01*
X138047715Y-92641613D01*
X138168023Y-92807206D01*
X138169996Y-92809515D01*
X138170470Y-92810574D01*
X138170897Y-92811161D01*
X138170773Y-92811250D01*
X138198573Y-92873274D01*
X138199131Y-92892776D01*
X138199500Y-92892776D01*
X138199500Y-93102351D01*
X138231522Y-93304534D01*
X138294781Y-93499223D01*
X138387715Y-93681613D01*
X138508028Y-93847213D01*
X138652786Y-93991971D01*
X138807445Y-94104335D01*
X138818390Y-94112287D01*
X138897864Y-94152781D01*
X139000776Y-94205218D01*
X139000778Y-94205218D01*
X139000781Y-94205220D01*
X139096897Y-94236450D01*
X139195465Y-94268477D01*
X139222223Y-94272715D01*
X139397648Y-94300500D01*
X139397649Y-94300500D01*
X139602351Y-94300500D01*
X139602352Y-94300500D01*
X139804534Y-94268477D01*
X139804539Y-94268475D01*
X139804541Y-94268475D01*
X139834210Y-94258834D01*
X139924600Y-94229464D01*
X139994439Y-94227468D01*
X140054273Y-94263548D01*
X140085102Y-94326249D01*
X140077138Y-94395663D01*
X140035804Y-94447713D01*
X139952782Y-94508032D01*
X139808028Y-94652786D01*
X139687715Y-94818386D01*
X139594781Y-95000776D01*
X139531522Y-95195465D01*
X139499500Y-95397648D01*
X139499500Y-95602351D01*
X139531522Y-95804534D01*
X139594781Y-95999223D01*
X139687715Y-96181613D01*
X139808028Y-96347213D01*
X139952786Y-96491971D01*
X140088014Y-96590218D01*
X140118390Y-96612287D01*
X140199230Y-96653477D01*
X140300776Y-96705218D01*
X140300778Y-96705218D01*
X140300781Y-96705220D01*
X140401754Y-96738028D01*
X140495465Y-96768477D01*
X140577834Y-96781523D01*
X140697648Y-96800500D01*
X140697649Y-96800500D01*
X140902351Y-96800500D01*
X140902352Y-96800500D01*
X141104534Y-96768477D01*
X141299219Y-96705220D01*
X141481610Y-96612287D01*
X141602054Y-96524780D01*
X141647213Y-96491971D01*
X141647215Y-96491968D01*
X141647219Y-96491966D01*
X141791966Y-96347219D01*
X141791968Y-96347215D01*
X141791971Y-96347213D01*
X141852088Y-96264468D01*
X141912287Y-96181610D01*
X142005220Y-95999219D01*
X142068477Y-95804534D01*
X142100500Y-95602352D01*
X142100500Y-95397648D01*
X142068477Y-95195466D01*
X142068476Y-95195464D01*
X142067922Y-95191964D01*
X142076876Y-95122671D01*
X142121872Y-95069219D01*
X142188624Y-95048579D01*
X142255938Y-95067304D01*
X142263280Y-95072248D01*
X142308552Y-95105139D01*
X142318390Y-95112287D01*
X142423193Y-95165687D01*
X142500776Y-95205218D01*
X142500778Y-95205218D01*
X142500781Y-95205220D01*
X142605137Y-95239127D01*
X142695465Y-95268477D01*
X142784937Y-95282648D01*
X142897648Y-95300500D01*
X142897649Y-95300500D01*
X143102351Y-95300500D01*
X143102352Y-95300500D01*
X143304534Y-95268477D01*
X143499219Y-95205220D01*
X143681610Y-95112287D01*
X143776683Y-95043213D01*
X143847213Y-94991971D01*
X143847215Y-94991968D01*
X143847219Y-94991966D01*
X143941537Y-94897648D01*
X151699500Y-94897648D01*
X151699500Y-95102351D01*
X151731522Y-95304534D01*
X151794781Y-95499223D01*
X151887715Y-95681613D01*
X152008028Y-95847213D01*
X152152786Y-95991971D01*
X152299299Y-96098417D01*
X152318390Y-96112287D01*
X152397615Y-96152654D01*
X152500776Y-96205218D01*
X152500778Y-96205218D01*
X152500781Y-96205220D01*
X152629579Y-96247069D01*
X152687254Y-96286507D01*
X152714452Y-96350866D01*
X152702537Y-96419712D01*
X152655293Y-96471188D01*
X152629579Y-96482931D01*
X152500776Y-96524781D01*
X152318386Y-96617715D01*
X152152786Y-96738028D01*
X152008028Y-96882786D01*
X151887715Y-97048386D01*
X151794781Y-97230776D01*
X151731522Y-97425465D01*
X151699500Y-97627648D01*
X151699500Y-97832351D01*
X151731522Y-98034534D01*
X151794781Y-98229223D01*
X151887715Y-98411613D01*
X152008028Y-98577213D01*
X152152786Y-98721971D01*
X152285491Y-98818385D01*
X152318390Y-98842287D01*
X152426188Y-98897213D01*
X152500776Y-98935218D01*
X152500778Y-98935218D01*
X152500781Y-98935220D01*
X152562329Y-98955218D01*
X152695465Y-98998477D01*
X152796557Y-99014488D01*
X152897648Y-99030500D01*
X152897649Y-99030500D01*
X153102351Y-99030500D01*
X153102352Y-99030500D01*
X153304534Y-98998477D01*
X153499219Y-98935220D01*
X153681610Y-98842287D01*
X153774590Y-98774732D01*
X153847213Y-98721971D01*
X153847215Y-98721968D01*
X153847219Y-98721966D01*
X153991966Y-98577219D01*
X154023892Y-98533275D01*
X154079218Y-98490611D01*
X154148831Y-98484630D01*
X154162520Y-98488228D01*
X154194926Y-98498758D01*
X154397108Y-98530781D01*
X154397109Y-98530781D01*
X154601811Y-98530781D01*
X154601812Y-98530781D01*
X154803994Y-98498758D01*
X154998679Y-98435501D01*
X155181070Y-98342568D01*
X155274050Y-98275013D01*
X155346673Y-98222252D01*
X155346675Y-98222249D01*
X155346679Y-98222247D01*
X155491426Y-98077500D01*
X155491428Y-98077496D01*
X155491431Y-98077494D01*
X155611744Y-97911895D01*
X155611743Y-97911895D01*
X155611747Y-97911891D01*
X155619004Y-97897648D01*
X160699500Y-97897648D01*
X160699500Y-98102351D01*
X160731522Y-98304534D01*
X160794781Y-98499223D01*
X160858691Y-98624653D01*
X160873026Y-98652786D01*
X160887715Y-98681613D01*
X161008028Y-98847213D01*
X161152786Y-98991971D01*
X161307749Y-99104556D01*
X161318390Y-99112287D01*
X161434607Y-99171503D01*
X161500776Y-99205218D01*
X161500778Y-99205218D01*
X161500781Y-99205220D01*
X161586024Y-99232917D01*
X161695465Y-99268477D01*
X161796557Y-99284488D01*
X161897648Y-99300500D01*
X161897649Y-99300500D01*
X162102351Y-99300500D01*
X162102352Y-99300500D01*
X162304534Y-99268477D01*
X162499219Y-99205220D01*
X162681610Y-99112287D01*
X162767705Y-99049736D01*
X162833511Y-99026256D01*
X162901565Y-99042081D01*
X162913475Y-99049736D01*
X163034569Y-99137715D01*
X163068390Y-99162287D01*
X163141425Y-99199500D01*
X163250776Y-99255218D01*
X163250778Y-99255218D01*
X163250781Y-99255220D01*
X163344943Y-99285815D01*
X163445465Y-99318477D01*
X163546557Y-99334488D01*
X163647648Y-99350500D01*
X163647649Y-99350500D01*
X163852351Y-99350500D01*
X163852352Y-99350500D01*
X164054534Y-99318477D01*
X164249219Y-99255220D01*
X164431610Y-99162287D01*
X164524590Y-99094732D01*
X164597213Y-99041971D01*
X164597215Y-99041968D01*
X164597219Y-99041966D01*
X164741966Y-98897219D01*
X164741968Y-98897215D01*
X164741971Y-98897213D01*
X164854759Y-98741971D01*
X164862287Y-98731610D01*
X164955220Y-98549219D01*
X165018477Y-98354534D01*
X165050500Y-98152352D01*
X165050500Y-97947648D01*
X165018477Y-97745466D01*
X165018476Y-97745462D01*
X165018476Y-97745461D01*
X164997562Y-97681094D01*
X164986694Y-97647648D01*
X177199500Y-97647648D01*
X177199500Y-97852351D01*
X177231522Y-98054534D01*
X177294781Y-98249223D01*
X177348441Y-98354534D01*
X177380251Y-98416966D01*
X177387715Y-98431613D01*
X177508028Y-98597213D01*
X177652786Y-98741971D01*
X177807749Y-98854556D01*
X177818390Y-98862287D01*
X177934607Y-98921503D01*
X178000776Y-98955218D01*
X178000778Y-98955218D01*
X178000781Y-98955220D01*
X178105137Y-98989127D01*
X178195465Y-99018477D01*
X178271375Y-99030500D01*
X178397648Y-99050500D01*
X178397649Y-99050500D01*
X178602351Y-99050500D01*
X178602352Y-99050500D01*
X178804534Y-99018477D01*
X178999219Y-98955220D01*
X179181610Y-98862287D01*
X179274590Y-98794732D01*
X179347213Y-98741971D01*
X179347215Y-98741968D01*
X179347219Y-98741966D01*
X179491966Y-98597219D01*
X179491968Y-98597215D01*
X179491971Y-98597213D01*
X179556762Y-98508034D01*
X179612287Y-98431610D01*
X179705220Y-98249219D01*
X179768477Y-98054534D01*
X179800500Y-97852352D01*
X179800500Y-97647648D01*
X179783623Y-97541091D01*
X179768477Y-97445465D01*
X179722908Y-97305220D01*
X179705220Y-97250781D01*
X179705218Y-97250778D01*
X179705218Y-97250776D01*
X179642624Y-97127930D01*
X179612287Y-97068390D01*
X179604556Y-97057749D01*
X179491971Y-96902786D01*
X179347213Y-96758028D01*
X179181613Y-96637715D01*
X179181612Y-96637714D01*
X179181610Y-96637713D01*
X179124653Y-96608691D01*
X178999223Y-96544781D01*
X178804534Y-96481522D01*
X178620775Y-96452418D01*
X178602352Y-96449500D01*
X178397648Y-96449500D01*
X178379225Y-96452418D01*
X178195465Y-96481522D01*
X178000776Y-96544781D01*
X177818386Y-96637715D01*
X177652786Y-96758028D01*
X177508028Y-96902786D01*
X177387715Y-97068386D01*
X177294781Y-97250776D01*
X177231522Y-97445465D01*
X177199500Y-97647648D01*
X164986694Y-97647648D01*
X164955218Y-97550776D01*
X164901559Y-97445466D01*
X164862287Y-97368390D01*
X164836308Y-97332632D01*
X164741971Y-97202786D01*
X164597213Y-97058028D01*
X164431613Y-96937715D01*
X164431612Y-96937714D01*
X164431610Y-96937713D01*
X164333480Y-96887713D01*
X164249223Y-96844781D01*
X164054534Y-96781522D01*
X163879995Y-96753878D01*
X163852352Y-96749500D01*
X163647648Y-96749500D01*
X163623329Y-96753351D01*
X163445465Y-96781522D01*
X163250776Y-96844781D01*
X163068387Y-96937714D01*
X162982293Y-97000264D01*
X162916486Y-97023743D01*
X162848433Y-97007917D01*
X162836524Y-97000263D01*
X162681613Y-96887715D01*
X162681612Y-96887714D01*
X162681610Y-96887713D01*
X162624653Y-96858691D01*
X162499223Y-96794781D01*
X162304534Y-96731522D01*
X162129995Y-96703878D01*
X162102352Y-96699500D01*
X161897648Y-96699500D01*
X161873329Y-96703351D01*
X161695465Y-96731522D01*
X161500776Y-96794781D01*
X161318386Y-96887715D01*
X161152786Y-97008028D01*
X161008028Y-97152786D01*
X160887715Y-97318386D01*
X160794781Y-97500776D01*
X160731522Y-97695465D01*
X160699500Y-97897648D01*
X155619004Y-97897648D01*
X155704680Y-97729500D01*
X155767937Y-97534815D01*
X155799960Y-97332633D01*
X155799960Y-97127929D01*
X155787510Y-97049328D01*
X155796464Y-96980036D01*
X155799484Y-96973662D01*
X155808277Y-96956408D01*
X155871534Y-96761723D01*
X155903557Y-96559541D01*
X155903557Y-96354837D01*
X155871534Y-96152655D01*
X155821169Y-95997648D01*
X157099500Y-95997648D01*
X157099500Y-96202351D01*
X157131522Y-96404534D01*
X157194781Y-96599223D01*
X157223408Y-96655405D01*
X157287668Y-96781522D01*
X157287715Y-96781613D01*
X157408028Y-96947213D01*
X157552786Y-97091971D01*
X157653088Y-97164843D01*
X157718390Y-97212287D01*
X157793929Y-97250776D01*
X157900776Y-97305218D01*
X157900778Y-97305218D01*
X157900781Y-97305220D01*
X157985150Y-97332633D01*
X158095465Y-97368477D01*
X158196557Y-97384488D01*
X158297648Y-97400500D01*
X158297649Y-97400500D01*
X158502351Y-97400500D01*
X158502352Y-97400500D01*
X158704534Y-97368477D01*
X158899219Y-97305220D01*
X159081610Y-97212287D01*
X159174590Y-97144732D01*
X159247213Y-97091971D01*
X159247215Y-97091968D01*
X159247219Y-97091966D01*
X159391966Y-96947219D01*
X159391968Y-96947215D01*
X159391971Y-96947213D01*
X159466391Y-96844781D01*
X159512287Y-96781610D01*
X159605220Y-96599219D01*
X159668477Y-96404534D01*
X159700500Y-96202352D01*
X159700500Y-95997648D01*
X159668477Y-95795466D01*
X159662015Y-95775579D01*
X159608207Y-95609975D01*
X159605220Y-95600781D01*
X159605218Y-95600778D01*
X159605218Y-95600776D01*
X159564047Y-95519975D01*
X159512287Y-95418390D01*
X159497217Y-95397648D01*
X159391971Y-95252786D01*
X159247213Y-95108028D01*
X159081613Y-94987715D01*
X159081612Y-94987714D01*
X159081610Y-94987713D01*
X159024653Y-94958691D01*
X158899223Y-94894781D01*
X158704534Y-94831522D01*
X158529995Y-94803878D01*
X158502352Y-94799500D01*
X158297648Y-94799500D01*
X158273329Y-94803351D01*
X158095465Y-94831522D01*
X157900776Y-94894781D01*
X157718386Y-94987715D01*
X157552786Y-95108028D01*
X157408028Y-95252786D01*
X157287715Y-95418386D01*
X157194781Y-95600776D01*
X157131522Y-95795465D01*
X157099500Y-95997648D01*
X155821169Y-95997648D01*
X155808277Y-95957970D01*
X155715344Y-95775579D01*
X155707613Y-95764938D01*
X155595028Y-95609975D01*
X155450270Y-95465217D01*
X155284670Y-95344904D01*
X155284669Y-95344903D01*
X155284667Y-95344902D01*
X155227710Y-95315880D01*
X155102280Y-95251970D01*
X154907591Y-95188711D01*
X154733052Y-95161067D01*
X154705409Y-95156689D01*
X154500705Y-95156689D01*
X154443895Y-95165686D01*
X154374604Y-95156731D01*
X154321152Y-95111734D01*
X154300513Y-95044983D01*
X154300500Y-95043213D01*
X154300500Y-94897648D01*
X154268477Y-94695465D01*
X154232683Y-94585304D01*
X154205220Y-94500781D01*
X154205218Y-94500778D01*
X154205218Y-94500776D01*
X154164824Y-94421500D01*
X154112287Y-94318390D01*
X154095134Y-94294781D01*
X153991971Y-94152786D01*
X153847219Y-94008034D01*
X153832073Y-93997030D01*
X153832071Y-93997027D01*
X153700693Y-93901577D01*
X165249500Y-93901577D01*
X165249500Y-94098422D01*
X165280291Y-94292827D01*
X165280291Y-94292830D01*
X165335155Y-94461682D01*
X165337150Y-94531523D01*
X165335155Y-94538318D01*
X165280291Y-94707169D01*
X165280291Y-94707172D01*
X165249500Y-94901577D01*
X165249500Y-95098422D01*
X165280291Y-95292827D01*
X165280291Y-95292830D01*
X165335155Y-95461682D01*
X165337150Y-95531523D01*
X165335155Y-95538318D01*
X165280291Y-95707169D01*
X165280291Y-95707172D01*
X165249500Y-95901577D01*
X165249500Y-96098422D01*
X165280290Y-96292826D01*
X165341117Y-96480029D01*
X165426726Y-96648045D01*
X165430476Y-96655405D01*
X165546172Y-96814646D01*
X165685354Y-96953828D01*
X165844595Y-97069524D01*
X165888650Y-97091971D01*
X166019970Y-97158882D01*
X166019972Y-97158882D01*
X166019975Y-97158884D01*
X166120317Y-97191487D01*
X166207173Y-97219709D01*
X166401578Y-97250500D01*
X166401583Y-97250500D01*
X166598422Y-97250500D01*
X166792826Y-97219709D01*
X166815668Y-97212287D01*
X166961685Y-97164842D01*
X167031522Y-97162847D01*
X167038275Y-97164830D01*
X167155091Y-97202786D01*
X167207173Y-97219709D01*
X167401578Y-97250500D01*
X167401583Y-97250500D01*
X167598422Y-97250500D01*
X167792826Y-97219709D01*
X167815668Y-97212287D01*
X167961685Y-97164842D01*
X168031522Y-97162847D01*
X168038275Y-97164830D01*
X168155091Y-97202786D01*
X168207173Y-97219709D01*
X168401578Y-97250500D01*
X168401583Y-97250500D01*
X168598422Y-97250500D01*
X168792826Y-97219709D01*
X168815668Y-97212287D01*
X168980025Y-97158884D01*
X169155405Y-97069524D01*
X169314646Y-96953828D01*
X169453828Y-96814646D01*
X169569524Y-96655405D01*
X169658884Y-96480025D01*
X169719709Y-96292826D01*
X169720710Y-96286507D01*
X169750500Y-96098422D01*
X169750500Y-95901577D01*
X169719709Y-95707173D01*
X169709140Y-95674649D01*
X169664842Y-95538314D01*
X169664286Y-95518863D01*
X169658774Y-95500199D01*
X169662989Y-95473447D01*
X169662847Y-95468478D01*
X169663741Y-95465256D01*
X169664255Y-95463493D01*
X169719709Y-95292826D01*
X169721321Y-95282648D01*
X172199500Y-95282648D01*
X172199500Y-95487351D01*
X172231522Y-95689534D01*
X172294781Y-95884223D01*
X172387715Y-96066613D01*
X172508028Y-96232213D01*
X172652786Y-96376971D01*
X172798630Y-96482931D01*
X172818390Y-96497287D01*
X172911600Y-96544780D01*
X173000776Y-96590218D01*
X173000778Y-96590218D01*
X173000781Y-96590220D01*
X173085396Y-96617713D01*
X173195465Y-96653477D01*
X173296557Y-96669488D01*
X173397648Y-96685500D01*
X173397649Y-96685500D01*
X173602351Y-96685500D01*
X173602352Y-96685500D01*
X173804534Y-96653477D01*
X173999219Y-96590220D01*
X174181610Y-96497287D01*
X174309275Y-96404534D01*
X174347213Y-96376971D01*
X174347215Y-96376968D01*
X174347219Y-96376966D01*
X174491966Y-96232219D01*
X174491968Y-96232215D01*
X174491971Y-96232213D01*
X174589178Y-96098417D01*
X174612287Y-96066610D01*
X174705220Y-95884219D01*
X174768477Y-95689534D01*
X174800500Y-95487352D01*
X174800500Y-95282648D01*
X174768477Y-95080465D01*
X174710352Y-94901577D01*
X174705220Y-94885781D01*
X174705218Y-94885778D01*
X174705218Y-94885776D01*
X174670880Y-94818386D01*
X174612287Y-94703390D01*
X174596462Y-94681609D01*
X174512354Y-94565842D01*
X174488874Y-94500036D01*
X174504700Y-94431982D01*
X174554806Y-94383287D01*
X174623284Y-94369412D01*
X174650989Y-94375025D01*
X174667642Y-94380436D01*
X174695465Y-94389477D01*
X174734522Y-94395663D01*
X174897648Y-94421500D01*
X174897649Y-94421500D01*
X175102351Y-94421500D01*
X175102352Y-94421500D01*
X175304534Y-94389477D01*
X175499219Y-94326220D01*
X175681610Y-94233287D01*
X175792418Y-94152781D01*
X175847213Y-94112971D01*
X175847215Y-94112968D01*
X175847219Y-94112966D01*
X175991966Y-93968219D01*
X175991968Y-93968215D01*
X175991971Y-93968213D01*
X176050455Y-93887715D01*
X176112287Y-93802610D01*
X176205220Y-93620219D01*
X176268477Y-93425534D01*
X176300500Y-93223352D01*
X176300500Y-93018648D01*
X176280214Y-92890568D01*
X176268477Y-92816465D01*
X176205218Y-92621776D01*
X176149463Y-92512352D01*
X176112287Y-92439390D01*
X176083104Y-92399223D01*
X175991971Y-92273786D01*
X175847213Y-92129028D01*
X175681613Y-92008715D01*
X175681612Y-92008714D01*
X175681610Y-92008713D01*
X175578709Y-91956282D01*
X175499223Y-91915781D01*
X175304534Y-91852522D01*
X175129995Y-91824878D01*
X175102352Y-91820500D01*
X174897648Y-91820500D01*
X174873329Y-91824351D01*
X174695465Y-91852522D01*
X174500776Y-91915781D01*
X174318386Y-92008715D01*
X174152786Y-92129028D01*
X174008028Y-92273786D01*
X173887715Y-92439386D01*
X173794781Y-92621776D01*
X173731522Y-92816465D01*
X173699500Y-93018648D01*
X173699500Y-93223351D01*
X173731522Y-93425534D01*
X173794781Y-93620223D01*
X173851492Y-93731522D01*
X173883723Y-93794780D01*
X173887715Y-93802613D01*
X173987645Y-93940157D01*
X174011125Y-94005964D01*
X173995299Y-94074017D01*
X173945193Y-94122712D01*
X173876715Y-94136587D01*
X173849009Y-94130973D01*
X173804537Y-94116523D01*
X173652897Y-94092505D01*
X173602352Y-94084500D01*
X173397648Y-94084500D01*
X173373329Y-94088351D01*
X173195465Y-94116522D01*
X173000776Y-94179781D01*
X172818386Y-94272715D01*
X172652786Y-94393028D01*
X172508028Y-94537786D01*
X172387715Y-94703386D01*
X172294781Y-94885776D01*
X172231522Y-95080465D01*
X172199500Y-95282648D01*
X169721321Y-95282648D01*
X169726875Y-95247582D01*
X169750500Y-95098422D01*
X169750500Y-94901577D01*
X169719709Y-94707173D01*
X169702037Y-94652786D01*
X169664842Y-94538314D01*
X169662847Y-94468478D01*
X169664830Y-94461724D01*
X169719709Y-94292826D01*
X169723240Y-94270535D01*
X169750500Y-94098422D01*
X169750500Y-93901577D01*
X169719709Y-93707173D01*
X169689831Y-93615220D01*
X169658884Y-93519975D01*
X169658882Y-93519972D01*
X169658882Y-93519970D01*
X169569523Y-93344594D01*
X169453828Y-93185354D01*
X169314646Y-93046172D01*
X169155405Y-92930476D01*
X168980029Y-92841117D01*
X168792826Y-92780290D01*
X168598422Y-92749500D01*
X168598417Y-92749500D01*
X168401583Y-92749500D01*
X168401578Y-92749500D01*
X168207172Y-92780291D01*
X168207169Y-92780291D01*
X168038318Y-92835155D01*
X167968477Y-92837150D01*
X167961682Y-92835155D01*
X167792828Y-92780291D01*
X167598422Y-92749500D01*
X167598417Y-92749500D01*
X167401583Y-92749500D01*
X167401578Y-92749500D01*
X167207172Y-92780291D01*
X167207169Y-92780291D01*
X167038318Y-92835155D01*
X166968477Y-92837150D01*
X166961682Y-92835155D01*
X166792828Y-92780291D01*
X166598422Y-92749500D01*
X166598417Y-92749500D01*
X166401583Y-92749500D01*
X166401578Y-92749500D01*
X166207173Y-92780290D01*
X166019970Y-92841117D01*
X165844594Y-92930476D01*
X165753741Y-92996485D01*
X165685354Y-93046172D01*
X165685352Y-93046174D01*
X165685351Y-93046174D01*
X165546174Y-93185351D01*
X165546174Y-93185352D01*
X165546172Y-93185354D01*
X165518565Y-93223352D01*
X165430476Y-93344594D01*
X165341117Y-93519970D01*
X165280290Y-93707173D01*
X165249500Y-93901577D01*
X153700693Y-93901577D01*
X153681613Y-93887715D01*
X153681612Y-93887714D01*
X153681610Y-93887713D01*
X153624653Y-93858691D01*
X153499223Y-93794781D01*
X153304534Y-93731522D01*
X153129995Y-93703878D01*
X153102352Y-93699500D01*
X152897648Y-93699500D01*
X152873329Y-93703351D01*
X152695465Y-93731522D01*
X152500776Y-93794781D01*
X152318386Y-93887715D01*
X152152786Y-94008028D01*
X152008028Y-94152786D01*
X151887715Y-94318386D01*
X151794781Y-94500776D01*
X151731522Y-94695465D01*
X151699500Y-94897648D01*
X143941537Y-94897648D01*
X143991966Y-94847219D01*
X144003370Y-94831523D01*
X144011819Y-94819894D01*
X144011821Y-94819891D01*
X144034161Y-94789141D01*
X144112287Y-94681610D01*
X144205220Y-94499219D01*
X144268477Y-94304534D01*
X144300500Y-94102352D01*
X144300500Y-93897648D01*
X144270858Y-93710500D01*
X144268477Y-93695465D01*
X144239127Y-93605137D01*
X144205220Y-93500781D01*
X144205218Y-93500778D01*
X144205218Y-93500776D01*
X144166880Y-93425534D01*
X144112287Y-93318390D01*
X144067840Y-93257213D01*
X143991971Y-93152786D01*
X143847213Y-93008028D01*
X143681613Y-92887715D01*
X143681612Y-92887714D01*
X143681610Y-92887713D01*
X143601210Y-92846747D01*
X143499223Y-92794781D01*
X143304534Y-92731522D01*
X143187480Y-92712983D01*
X143124345Y-92683054D01*
X143087414Y-92623742D01*
X143088412Y-92553879D01*
X143119194Y-92502832D01*
X143144517Y-92477510D01*
X143283343Y-92286433D01*
X143390568Y-92075992D01*
X143463553Y-91851368D01*
X143467361Y-91827320D01*
X143497287Y-91764188D01*
X143556598Y-91727255D01*
X143626460Y-91728251D01*
X143662718Y-91746399D01*
X143713567Y-91783343D01*
X143786492Y-91820500D01*
X143924003Y-91890566D01*
X143924005Y-91890566D01*
X143924008Y-91890568D01*
X144044412Y-91929689D01*
X144148631Y-91963553D01*
X144381903Y-92000500D01*
X144381908Y-92000500D01*
X144618097Y-92000500D01*
X144851368Y-91963553D01*
X144873745Y-91956281D01*
X144943585Y-91954285D01*
X145003419Y-91990363D01*
X145034249Y-92053063D01*
X145026287Y-92122478D01*
X145010283Y-92148393D01*
X145010897Y-92148839D01*
X144887715Y-92318386D01*
X144794781Y-92500776D01*
X144731522Y-92695465D01*
X144699500Y-92897648D01*
X144699500Y-93102351D01*
X144731522Y-93304534D01*
X144794781Y-93499223D01*
X144887715Y-93681613D01*
X145008028Y-93847213D01*
X145152786Y-93991971D01*
X145307445Y-94104335D01*
X145318390Y-94112287D01*
X145397864Y-94152781D01*
X145500776Y-94205218D01*
X145500778Y-94205218D01*
X145500781Y-94205220D01*
X145596897Y-94236450D01*
X145695465Y-94268477D01*
X145722223Y-94272715D01*
X145897648Y-94300500D01*
X145897649Y-94300500D01*
X146102351Y-94300500D01*
X146102352Y-94300500D01*
X146304534Y-94268477D01*
X146499219Y-94205220D01*
X146681610Y-94112287D01*
X146774590Y-94044732D01*
X146847213Y-93991971D01*
X146847215Y-93991968D01*
X146847219Y-93991966D01*
X146991966Y-93847219D01*
X146991968Y-93847215D01*
X146991971Y-93847213D01*
X147091297Y-93710500D01*
X147112287Y-93681610D01*
X147205220Y-93499219D01*
X147268477Y-93304534D01*
X147300500Y-93102352D01*
X147300500Y-92897648D01*
X147282396Y-92783343D01*
X147268477Y-92695465D01*
X147226626Y-92566661D01*
X147205220Y-92500781D01*
X147205218Y-92500778D01*
X147205218Y-92500776D01*
X147171503Y-92434607D01*
X147112287Y-92318390D01*
X147073159Y-92264534D01*
X146991971Y-92152786D01*
X146847219Y-92008034D01*
X146822897Y-91990363D01*
X146689016Y-91893094D01*
X146689016Y-91893093D01*
X146681611Y-91887713D01*
X146504850Y-91797648D01*
X155799500Y-91797648D01*
X155799500Y-92002352D01*
X155800508Y-92008715D01*
X155831522Y-92204534D01*
X155894781Y-92399223D01*
X155947571Y-92502827D01*
X155973583Y-92553879D01*
X155987715Y-92581613D01*
X156108028Y-92747213D01*
X156252786Y-92891971D01*
X156389605Y-92991374D01*
X156418390Y-93012287D01*
X156534607Y-93071503D01*
X156600776Y-93105218D01*
X156600778Y-93105218D01*
X156600781Y-93105220D01*
X156705137Y-93139127D01*
X156795465Y-93168477D01*
X156896557Y-93184488D01*
X156997648Y-93200500D01*
X156997649Y-93200500D01*
X157202351Y-93200500D01*
X157202352Y-93200500D01*
X157404534Y-93168477D01*
X157599219Y-93105220D01*
X157781610Y-93012287D01*
X157923467Y-92909223D01*
X157947213Y-92891971D01*
X157947215Y-92891968D01*
X157947219Y-92891966D01*
X158091966Y-92747219D01*
X158091968Y-92747215D01*
X158091971Y-92747213D01*
X158144732Y-92674590D01*
X158212287Y-92581610D01*
X158305220Y-92399219D01*
X158368477Y-92204534D01*
X158400500Y-92002352D01*
X158400500Y-91797648D01*
X158368477Y-91595466D01*
X158305220Y-91400781D01*
X158305218Y-91400778D01*
X158305218Y-91400776D01*
X158252704Y-91297713D01*
X158212287Y-91218390D01*
X158166392Y-91155220D01*
X158091971Y-91052786D01*
X157947213Y-90908028D01*
X157781613Y-90787715D01*
X157781612Y-90787714D01*
X157781610Y-90787713D01*
X157724653Y-90758691D01*
X157599223Y-90694781D01*
X157404534Y-90631522D01*
X157229995Y-90603878D01*
X157202352Y-90599500D01*
X156997648Y-90599500D01*
X156973329Y-90603351D01*
X156795465Y-90631522D01*
X156600776Y-90694781D01*
X156418386Y-90787715D01*
X156252786Y-90908028D01*
X156108028Y-91052786D01*
X155987715Y-91218386D01*
X155894781Y-91400776D01*
X155831522Y-91595465D01*
X155804120Y-91768477D01*
X155799500Y-91797648D01*
X146504850Y-91797648D01*
X146499223Y-91794781D01*
X146304534Y-91731522D01*
X146129995Y-91703878D01*
X146102352Y-91699500D01*
X145897648Y-91699500D01*
X145863727Y-91704872D01*
X145710046Y-91729213D01*
X145640752Y-91720258D01*
X145587300Y-91675262D01*
X145566661Y-91608510D01*
X145585386Y-91541197D01*
X145602964Y-91519062D01*
X145644517Y-91477510D01*
X145783343Y-91286433D01*
X145890568Y-91075992D01*
X145963553Y-90851368D01*
X145978851Y-90754780D01*
X146000500Y-90618097D01*
X146000500Y-90381902D01*
X145963553Y-90148631D01*
X145915513Y-90000781D01*
X145890568Y-89924008D01*
X145890566Y-89924005D01*
X145890566Y-89924003D01*
X145820054Y-89785617D01*
X145783343Y-89713567D01*
X145644517Y-89522490D01*
X145477510Y-89355483D01*
X145286433Y-89216657D01*
X145195749Y-89170451D01*
X145075996Y-89109433D01*
X144851368Y-89036446D01*
X144618097Y-88999500D01*
X144618092Y-88999500D01*
X144381908Y-88999500D01*
X144381903Y-88999500D01*
X144148631Y-89036446D01*
X143924003Y-89109433D01*
X143713566Y-89216657D01*
X143624667Y-89281247D01*
X143522490Y-89355483D01*
X143522488Y-89355485D01*
X143522487Y-89355485D01*
X143355485Y-89522487D01*
X143355485Y-89522488D01*
X143355483Y-89522490D01*
X143306584Y-89589793D01*
X143216657Y-89713566D01*
X143109433Y-89924003D01*
X143036447Y-90148630D01*
X143032638Y-90172680D01*
X143002708Y-90235814D01*
X142943397Y-90272745D01*
X142873534Y-90271747D01*
X142837279Y-90253599D01*
X142786433Y-90216657D01*
X142575996Y-90109433D01*
X142351368Y-90036446D01*
X142118097Y-89999500D01*
X142118092Y-89999500D01*
X141881908Y-89999500D01*
X141881903Y-89999500D01*
X141648631Y-90036446D01*
X141424003Y-90109433D01*
X141213566Y-90216657D01*
X141117588Y-90286390D01*
X141022490Y-90355483D01*
X141022488Y-90355485D01*
X141022487Y-90355485D01*
X140855485Y-90522487D01*
X140855485Y-90522488D01*
X140855483Y-90522490D01*
X140799532Y-90599500D01*
X140716657Y-90713566D01*
X140609433Y-90924003D01*
X140536447Y-91148630D01*
X140517827Y-91266188D01*
X140487897Y-91329322D01*
X140428585Y-91366253D01*
X140358723Y-91365255D01*
X140300490Y-91326645D01*
X140284869Y-91303084D01*
X140272287Y-91278390D01*
X140272285Y-91278387D01*
X140272284Y-91278385D01*
X140151971Y-91112786D01*
X140007213Y-90968028D01*
X139841613Y-90847715D01*
X139841612Y-90847714D01*
X139841610Y-90847713D01*
X139756867Y-90804534D01*
X139659223Y-90754781D01*
X139464534Y-90691522D01*
X139287386Y-90663465D01*
X139262352Y-90659500D01*
X139057648Y-90659500D01*
X139033329Y-90663351D01*
X138855465Y-90691522D01*
X138660776Y-90754781D01*
X138478386Y-90847715D01*
X138312786Y-90968028D01*
X138168028Y-91112786D01*
X138047715Y-91278386D01*
X137954781Y-91460776D01*
X137891522Y-91655465D01*
X137859500Y-91857648D01*
X110000500Y-91857648D01*
X110000500Y-88162145D01*
X110020185Y-88095106D01*
X110072989Y-88049351D01*
X110142147Y-88039407D01*
X110205703Y-88068432D01*
X110221448Y-88084834D01*
X110240427Y-88108634D01*
X110240431Y-88108638D01*
X110240432Y-88108639D01*
X110491361Y-88359568D01*
X110768807Y-88580824D01*
X111029600Y-88744691D01*
X111069287Y-88769628D01*
X111388991Y-88923589D01*
X111389000Y-88923592D01*
X111389007Y-88923596D01*
X111455268Y-88946782D01*
X111723948Y-89040798D01*
X111723960Y-89040802D01*
X112069930Y-89119767D01*
X112422562Y-89159499D01*
X112422563Y-89159500D01*
X112422566Y-89159500D01*
X112777437Y-89159500D01*
X112777437Y-89159499D01*
X113130070Y-89119767D01*
X113476040Y-89040802D01*
X113810993Y-88923596D01*
X113845437Y-88907009D01*
X114130712Y-88769628D01*
X114130712Y-88769627D01*
X114130718Y-88769625D01*
X114431193Y-88580824D01*
X114708639Y-88359568D01*
X114959568Y-88108639D01*
X115135084Y-87888549D01*
X115799500Y-87888549D01*
X115799500Y-88111450D01*
X115799501Y-88111466D01*
X115828594Y-88332452D01*
X115828595Y-88332457D01*
X115828596Y-88332463D01*
X115886290Y-88547780D01*
X115886293Y-88547790D01*
X115971593Y-88753722D01*
X115971595Y-88753726D01*
X116083052Y-88946774D01*
X116083057Y-88946780D01*
X116083058Y-88946782D01*
X116218751Y-89123622D01*
X116218757Y-89123629D01*
X116376370Y-89281242D01*
X116376377Y-89281248D01*
X116415293Y-89311109D01*
X116553226Y-89416948D01*
X116746274Y-89528405D01*
X116952219Y-89613710D01*
X117167537Y-89671404D01*
X117388543Y-89700500D01*
X117388550Y-89700500D01*
X117611450Y-89700500D01*
X117611457Y-89700500D01*
X117832463Y-89671404D01*
X118047781Y-89613710D01*
X118253726Y-89528405D01*
X118438002Y-89422012D01*
X118505899Y-89405540D01*
X118561996Y-89422011D01*
X118746274Y-89528405D01*
X118952219Y-89613710D01*
X119167537Y-89671404D01*
X119388543Y-89700500D01*
X119388550Y-89700500D01*
X119611450Y-89700500D01*
X119611457Y-89700500D01*
X119832463Y-89671404D01*
X120047781Y-89613710D01*
X120253726Y-89528405D01*
X120446774Y-89416948D01*
X120623624Y-89281247D01*
X120781247Y-89123624D01*
X120870058Y-89007882D01*
X122345669Y-89007882D01*
X122345670Y-89007883D01*
X122371059Y-89026329D01*
X122539362Y-89112085D01*
X122718997Y-89170451D01*
X122905553Y-89200000D01*
X123094447Y-89200000D01*
X123281002Y-89170451D01*
X123460637Y-89112085D01*
X123628937Y-89026331D01*
X123654328Y-89007883D01*
X123654328Y-89007882D01*
X124345669Y-89007882D01*
X124345670Y-89007883D01*
X124371059Y-89026329D01*
X124539362Y-89112085D01*
X124718997Y-89170451D01*
X124905553Y-89200000D01*
X125094447Y-89200000D01*
X125281002Y-89170451D01*
X125460637Y-89112085D01*
X125628937Y-89026331D01*
X125654328Y-89007883D01*
X125654328Y-89007882D01*
X125000001Y-88353554D01*
X125000000Y-88353554D01*
X124345669Y-89007882D01*
X123654328Y-89007882D01*
X123000001Y-88353554D01*
X123000000Y-88353554D01*
X122345669Y-89007882D01*
X120870058Y-89007882D01*
X120916948Y-88946774D01*
X121028405Y-88753726D01*
X121113710Y-88547781D01*
X121171404Y-88332463D01*
X121200500Y-88111457D01*
X121200500Y-87905552D01*
X121800000Y-87905552D01*
X121800000Y-88094447D01*
X121829548Y-88281002D01*
X121887914Y-88460637D01*
X121973666Y-88628933D01*
X121992116Y-88654328D01*
X122646446Y-88000000D01*
X122646446Y-87999999D01*
X122600369Y-87953922D01*
X122650000Y-87953922D01*
X122650000Y-88046078D01*
X122673852Y-88135095D01*
X122719930Y-88214905D01*
X122785095Y-88280070D01*
X122864905Y-88326148D01*
X122953922Y-88350000D01*
X123046078Y-88350000D01*
X123135095Y-88326148D01*
X123214905Y-88280070D01*
X123280070Y-88214905D01*
X123326148Y-88135095D01*
X123350000Y-88046078D01*
X123350000Y-88000000D01*
X123353554Y-88000000D01*
X124000000Y-88646446D01*
X124646446Y-88000000D01*
X124600368Y-87953922D01*
X124650000Y-87953922D01*
X124650000Y-88046078D01*
X124673852Y-88135095D01*
X124719930Y-88214905D01*
X124785095Y-88280070D01*
X124864905Y-88326148D01*
X124953922Y-88350000D01*
X125046078Y-88350000D01*
X125135095Y-88326148D01*
X125214905Y-88280070D01*
X125280070Y-88214905D01*
X125326148Y-88135095D01*
X125350000Y-88046078D01*
X125350000Y-87999999D01*
X125353554Y-87999999D01*
X125353554Y-88000000D01*
X126007882Y-88654328D01*
X126007883Y-88654328D01*
X126026331Y-88628937D01*
X126112085Y-88460637D01*
X126170451Y-88281002D01*
X126200000Y-88094447D01*
X126200000Y-87905556D01*
X126198555Y-87896432D01*
X126198555Y-87896429D01*
X126196254Y-87881902D01*
X133399500Y-87881902D01*
X133399500Y-88118097D01*
X133436446Y-88351368D01*
X133509433Y-88575996D01*
X133549346Y-88654328D01*
X133616657Y-88786433D01*
X133755483Y-88977510D01*
X133922490Y-89144517D01*
X134113567Y-89283343D01*
X134197278Y-89325996D01*
X134324003Y-89390566D01*
X134324005Y-89390566D01*
X134324008Y-89390568D01*
X134444412Y-89429689D01*
X134548631Y-89463553D01*
X134781903Y-89500500D01*
X134781908Y-89500500D01*
X135018097Y-89500500D01*
X135251368Y-89463553D01*
X135290691Y-89450776D01*
X135475992Y-89390568D01*
X135686433Y-89283343D01*
X135877510Y-89144517D01*
X136042319Y-88979708D01*
X136103642Y-88946223D01*
X136173334Y-88951207D01*
X136217681Y-88979708D01*
X136382490Y-89144517D01*
X136573567Y-89283343D01*
X136657278Y-89325996D01*
X136784003Y-89390566D01*
X136784005Y-89390566D01*
X136784008Y-89390568D01*
X136904412Y-89429689D01*
X137008631Y-89463553D01*
X137241903Y-89500500D01*
X137241908Y-89500500D01*
X137478097Y-89500500D01*
X137711368Y-89463553D01*
X137750691Y-89450776D01*
X137935992Y-89390568D01*
X138146433Y-89283343D01*
X138337510Y-89144517D01*
X138504517Y-88977510D01*
X138529682Y-88942872D01*
X138585011Y-88900207D01*
X138654625Y-88894228D01*
X138716420Y-88926833D01*
X138730315Y-88942870D01*
X138755483Y-88977510D01*
X138922490Y-89144517D01*
X139113567Y-89283343D01*
X139197278Y-89325996D01*
X139324003Y-89390566D01*
X139324005Y-89390566D01*
X139324008Y-89390568D01*
X139444412Y-89429689D01*
X139548631Y-89463553D01*
X139781903Y-89500500D01*
X139781908Y-89500500D01*
X140018097Y-89500500D01*
X140251368Y-89463553D01*
X140290691Y-89450776D01*
X140475992Y-89390568D01*
X140686433Y-89283343D01*
X140877510Y-89144517D01*
X141044517Y-88977510D01*
X141183343Y-88786433D01*
X141262080Y-88631902D01*
X151999500Y-88631902D01*
X151999500Y-88868097D01*
X152036446Y-89101368D01*
X152109433Y-89325996D01*
X152212567Y-89528406D01*
X152216657Y-89536433D01*
X152355483Y-89727510D01*
X152522490Y-89894517D01*
X152713567Y-90033343D01*
X152812991Y-90084002D01*
X152924003Y-90140566D01*
X152924005Y-90140566D01*
X152924008Y-90140568D01*
X153022838Y-90172680D01*
X153148631Y-90213553D01*
X153381903Y-90250500D01*
X153381908Y-90250500D01*
X153618097Y-90250500D01*
X153851368Y-90213553D01*
X154075992Y-90140568D01*
X154286433Y-90033343D01*
X154477510Y-89894517D01*
X154644517Y-89727510D01*
X154783343Y-89536433D01*
X154890568Y-89325992D01*
X154963553Y-89101368D01*
X154973146Y-89040798D01*
X155000500Y-88868097D01*
X155000500Y-88631902D01*
X154963553Y-88398631D01*
X154905098Y-88218728D01*
X154890568Y-88174008D01*
X154890566Y-88174005D01*
X154890566Y-88174003D01*
X154834002Y-88062991D01*
X154783343Y-87963567D01*
X154644517Y-87772490D01*
X154477510Y-87605483D01*
X154286433Y-87466657D01*
X154098813Y-87371060D01*
X154075996Y-87359434D01*
X154075995Y-87359433D01*
X154075992Y-87359432D01*
X153983477Y-87329372D01*
X153851368Y-87286446D01*
X153742208Y-87269157D01*
X156476505Y-87269157D01*
X156476505Y-87473860D01*
X156508527Y-87676043D01*
X156571786Y-87870732D01*
X156619088Y-87963566D01*
X156662798Y-88049351D01*
X156664720Y-88053122D01*
X156785033Y-88218722D01*
X156929791Y-88363480D01*
X157063519Y-88460637D01*
X157095395Y-88483796D01*
X157211612Y-88543012D01*
X157277781Y-88576727D01*
X157277783Y-88576727D01*
X157277786Y-88576729D01*
X157382142Y-88610636D01*
X157472470Y-88639986D01*
X157513257Y-88646446D01*
X157674653Y-88672009D01*
X157674654Y-88672009D01*
X157879356Y-88672009D01*
X157879357Y-88672009D01*
X158081539Y-88639986D01*
X158276224Y-88576729D01*
X158458615Y-88483796D01*
X158575836Y-88398631D01*
X158624218Y-88363480D01*
X158624220Y-88363477D01*
X158624224Y-88363475D01*
X158768971Y-88218728D01*
X158768973Y-88218724D01*
X158768976Y-88218722D01*
X158842083Y-88118097D01*
X158889292Y-88053119D01*
X158982225Y-87870728D01*
X159045482Y-87676043D01*
X159077505Y-87473861D01*
X159077505Y-87269157D01*
X159068293Y-87210993D01*
X159045482Y-87066974D01*
X159000906Y-86929785D01*
X158982225Y-86872290D01*
X158982223Y-86872287D01*
X158982223Y-86872285D01*
X158966774Y-86841966D01*
X160499500Y-86841966D01*
X160499500Y-88658028D01*
X160499501Y-88658034D01*
X160510113Y-88777415D01*
X160566089Y-88973045D01*
X160566090Y-88973048D01*
X160566091Y-88973049D01*
X160660302Y-89153407D01*
X160670507Y-89165922D01*
X160788890Y-89311109D01*
X160882803Y-89387684D01*
X160946593Y-89439698D01*
X161126951Y-89533909D01*
X161322582Y-89589886D01*
X161441963Y-89600500D01*
X163258036Y-89600499D01*
X163377418Y-89589886D01*
X163573049Y-89533909D01*
X163753407Y-89439698D01*
X163837279Y-89371308D01*
X163901674Y-89344199D01*
X163970504Y-89356208D01*
X163977639Y-89360023D01*
X164069777Y-89413218D01*
X164069794Y-89413227D01*
X164201847Y-89467925D01*
X164256250Y-89511766D01*
X164278315Y-89578060D01*
X164261036Y-89645760D01*
X164209898Y-89693370D01*
X164192713Y-89700417D01*
X164000776Y-89762781D01*
X163818386Y-89855715D01*
X163652786Y-89976028D01*
X163508028Y-90120786D01*
X163387715Y-90286386D01*
X163294781Y-90468776D01*
X163231522Y-90663465D01*
X163199500Y-90865648D01*
X163199500Y-91070351D01*
X163231522Y-91272534D01*
X163294781Y-91467223D01*
X163338636Y-91553292D01*
X163372166Y-91619098D01*
X163387715Y-91649613D01*
X163508028Y-91815213D01*
X163652786Y-91959971D01*
X163780919Y-92053063D01*
X163818390Y-92080287D01*
X163934607Y-92139503D01*
X164000776Y-92173218D01*
X164000778Y-92173218D01*
X164000781Y-92173220D01*
X164097156Y-92204534D01*
X164195465Y-92236477D01*
X164296557Y-92252488D01*
X164397648Y-92268500D01*
X164397649Y-92268500D01*
X164602351Y-92268500D01*
X164602352Y-92268500D01*
X164804534Y-92236477D01*
X164961683Y-92185415D01*
X165031522Y-92183421D01*
X165038292Y-92185408D01*
X165151531Y-92222201D01*
X165195465Y-92236477D01*
X165296557Y-92252488D01*
X165397648Y-92268500D01*
X165397649Y-92268500D01*
X165602351Y-92268500D01*
X165602352Y-92268500D01*
X165804534Y-92236477D01*
X165999219Y-92173220D01*
X166181610Y-92080287D01*
X166305381Y-91990363D01*
X166347213Y-91959971D01*
X166347215Y-91959968D01*
X166347219Y-91959966D01*
X166491966Y-91815219D01*
X166491968Y-91815215D01*
X166491971Y-91815213D01*
X166552775Y-91731522D01*
X166612287Y-91649610D01*
X166705220Y-91467219D01*
X166768477Y-91272534D01*
X166800500Y-91070352D01*
X166800500Y-90865648D01*
X166768477Y-90663466D01*
X166767188Y-90659500D01*
X166705218Y-90468776D01*
X166659005Y-90378079D01*
X166612287Y-90286390D01*
X166601648Y-90271747D01*
X166491971Y-90120786D01*
X166347213Y-89976028D01*
X166181613Y-89855715D01*
X166181612Y-89855714D01*
X166181610Y-89855713D01*
X166108352Y-89818386D01*
X165999223Y-89762781D01*
X165804534Y-89699522D01*
X165670560Y-89678303D01*
X165607425Y-89648374D01*
X165570494Y-89589062D01*
X165571492Y-89519199D01*
X165610102Y-89460967D01*
X165642506Y-89441269D01*
X165710200Y-89413229D01*
X165710200Y-89413228D01*
X165710212Y-89413224D01*
X165920289Y-89291936D01*
X166084514Y-89165922D01*
X166149683Y-89140728D01*
X166218128Y-89154766D01*
X166235486Y-89165922D01*
X166399711Y-89291936D01*
X166609788Y-89413224D01*
X166833900Y-89506054D01*
X167068211Y-89568838D01*
X167248586Y-89592584D01*
X167308711Y-89600500D01*
X167308712Y-89600500D01*
X167551289Y-89600500D01*
X167579267Y-89596816D01*
X167791789Y-89568838D01*
X167797805Y-89567226D01*
X167867655Y-89568888D01*
X167925518Y-89608049D01*
X167953023Y-89672277D01*
X167941437Y-89741180D01*
X167930219Y-89759885D01*
X167887712Y-89818390D01*
X167794781Y-90000776D01*
X167731522Y-90195465D01*
X167699500Y-90397648D01*
X167699500Y-90602351D01*
X167731522Y-90804534D01*
X167794781Y-90999223D01*
X167887715Y-91181613D01*
X168008028Y-91347213D01*
X168152786Y-91491971D01*
X168295236Y-91595465D01*
X168318390Y-91612287D01*
X168434607Y-91671503D01*
X168500776Y-91705218D01*
X168500778Y-91705218D01*
X168500781Y-91705220D01*
X168605137Y-91739127D01*
X168695465Y-91768477D01*
X168789318Y-91783342D01*
X168897648Y-91800500D01*
X168897649Y-91800500D01*
X169102351Y-91800500D01*
X169102352Y-91800500D01*
X169304534Y-91768477D01*
X169499219Y-91705220D01*
X169681610Y-91612287D01*
X169809930Y-91519058D01*
X169847213Y-91491971D01*
X169847215Y-91491968D01*
X169847219Y-91491966D01*
X169991966Y-91347219D01*
X169991968Y-91347215D01*
X169991971Y-91347213D01*
X170069658Y-91240284D01*
X170112287Y-91181610D01*
X170205220Y-90999219D01*
X170268477Y-90804534D01*
X170300500Y-90602352D01*
X170300500Y-90397648D01*
X170274868Y-90235814D01*
X170268477Y-90195465D01*
X170221976Y-90052351D01*
X170205220Y-90000781D01*
X170205218Y-90000778D01*
X170205218Y-90000776D01*
X170166100Y-89924003D01*
X170112287Y-89818390D01*
X170109738Y-89814882D01*
X170088477Y-89785617D01*
X170064997Y-89719810D01*
X170080823Y-89651757D01*
X170130929Y-89603062D01*
X170172606Y-89589794D01*
X170331789Y-89568838D01*
X170566100Y-89506054D01*
X170790212Y-89413224D01*
X171000289Y-89291936D01*
X171164514Y-89165922D01*
X171229683Y-89140728D01*
X171298128Y-89154766D01*
X171315486Y-89165922D01*
X171479711Y-89291936D01*
X171689788Y-89413224D01*
X171913900Y-89506054D01*
X172148211Y-89568838D01*
X172328586Y-89592584D01*
X172388711Y-89600500D01*
X172388712Y-89600500D01*
X172631289Y-89600500D01*
X172679388Y-89594167D01*
X172871789Y-89568838D01*
X173106100Y-89506054D01*
X173330212Y-89413224D01*
X173540289Y-89291936D01*
X173704514Y-89165922D01*
X173769683Y-89140728D01*
X173838128Y-89154766D01*
X173855486Y-89165922D01*
X174019711Y-89291936D01*
X174229788Y-89413224D01*
X174453900Y-89506054D01*
X174688211Y-89568838D01*
X174868586Y-89592584D01*
X174928711Y-89600500D01*
X174928712Y-89600500D01*
X175171289Y-89600500D01*
X175219388Y-89594167D01*
X175411789Y-89568838D01*
X175646100Y-89506054D01*
X175870212Y-89413224D01*
X176080289Y-89291936D01*
X176244514Y-89165922D01*
X176309683Y-89140728D01*
X176378128Y-89154766D01*
X176395486Y-89165922D01*
X176559711Y-89291936D01*
X176769788Y-89413224D01*
X176993900Y-89506054D01*
X177228211Y-89568838D01*
X177408586Y-89592584D01*
X177468711Y-89600500D01*
X177468712Y-89600500D01*
X177711289Y-89600500D01*
X177751371Y-89595223D01*
X177951789Y-89568838D01*
X177991307Y-89558249D01*
X178061153Y-89559912D01*
X178119016Y-89599074D01*
X178146521Y-89663302D01*
X178141329Y-89716342D01*
X178106523Y-89823461D01*
X178106523Y-89823464D01*
X178074500Y-90025648D01*
X178074500Y-90230351D01*
X178106522Y-90432534D01*
X178169781Y-90627223D01*
X178233691Y-90752653D01*
X178256399Y-90797219D01*
X178262715Y-90809613D01*
X178342116Y-90918901D01*
X178365596Y-90984708D01*
X178349770Y-91052761D01*
X178299664Y-91101456D01*
X178231186Y-91115331D01*
X178222418Y-91114262D01*
X178192352Y-91109500D01*
X177987648Y-91109500D01*
X177966933Y-91112781D01*
X177785465Y-91141522D01*
X177590776Y-91204781D01*
X177408386Y-91297715D01*
X177242786Y-91418028D01*
X177098028Y-91562786D01*
X176977715Y-91728386D01*
X176884781Y-91910776D01*
X176821522Y-92105465D01*
X176789500Y-92307648D01*
X176789500Y-92512351D01*
X176821522Y-92714534D01*
X176884781Y-92909223D01*
X176977715Y-93091613D01*
X177098028Y-93257213D01*
X177242786Y-93401971D01*
X177376639Y-93499219D01*
X177408390Y-93522287D01*
X177524607Y-93581503D01*
X177590776Y-93615218D01*
X177590778Y-93615218D01*
X177590781Y-93615220D01*
X177695137Y-93649127D01*
X177785465Y-93678477D01*
X177886557Y-93694488D01*
X177987648Y-93710500D01*
X177987649Y-93710500D01*
X178192351Y-93710500D01*
X178192352Y-93710500D01*
X178394534Y-93678477D01*
X178589219Y-93615220D01*
X178771610Y-93522287D01*
X178864590Y-93454732D01*
X178937213Y-93401971D01*
X178937215Y-93401968D01*
X178937219Y-93401966D01*
X179081966Y-93257219D01*
X179081968Y-93257215D01*
X179081971Y-93257213D01*
X179157844Y-93152781D01*
X179202287Y-93091610D01*
X179295220Y-92909219D01*
X179358477Y-92714534D01*
X179390500Y-92512352D01*
X179390500Y-92307648D01*
X179362209Y-92129028D01*
X179358477Y-92105465D01*
X179321078Y-91990363D01*
X179295220Y-91910781D01*
X179295218Y-91910778D01*
X179295218Y-91910776D01*
X179249219Y-91820500D01*
X179202287Y-91728390D01*
X179149305Y-91655466D01*
X179122883Y-91619098D01*
X179099403Y-91553292D01*
X179115229Y-91485238D01*
X179165335Y-91436543D01*
X179233813Y-91422668D01*
X179242575Y-91423736D01*
X179272648Y-91428500D01*
X179272651Y-91428500D01*
X179477351Y-91428500D01*
X179477352Y-91428500D01*
X179679534Y-91396477D01*
X179874219Y-91333220D01*
X180056610Y-91240287D01*
X180222219Y-91119966D01*
X180222219Y-91119965D01*
X180226161Y-91117102D01*
X180227557Y-91119023D01*
X180282311Y-91094373D01*
X180351415Y-91104688D01*
X180355593Y-91106719D01*
X180450776Y-91155218D01*
X180450778Y-91155218D01*
X180450781Y-91155220D01*
X180555137Y-91189127D01*
X180645465Y-91218477D01*
X180746557Y-91234488D01*
X180847648Y-91250500D01*
X180847649Y-91250500D01*
X181052351Y-91250500D01*
X181052352Y-91250500D01*
X181254534Y-91218477D01*
X181449219Y-91155220D01*
X181631610Y-91062287D01*
X181751450Y-90975219D01*
X181797213Y-90941971D01*
X181797215Y-90941968D01*
X181797219Y-90941966D01*
X181941966Y-90797219D01*
X181941968Y-90797215D01*
X181941971Y-90797213D01*
X182016391Y-90694781D01*
X182062287Y-90631610D01*
X182155220Y-90449219D01*
X182218477Y-90254534D01*
X182250500Y-90052352D01*
X182250500Y-89847648D01*
X182237058Y-89762780D01*
X182218477Y-89645465D01*
X182180442Y-89528406D01*
X182155220Y-89450781D01*
X182155218Y-89450778D01*
X182155218Y-89450776D01*
X182108976Y-89360023D01*
X182062287Y-89268390D01*
X182024701Y-89216657D01*
X181941971Y-89102786D01*
X181797217Y-88958032D01*
X181797212Y-88958028D01*
X181726990Y-88907009D01*
X181684324Y-88851680D01*
X181678345Y-88782066D01*
X181692487Y-88744693D01*
X181793224Y-88570212D01*
X181886054Y-88346100D01*
X181948838Y-88111789D01*
X181980500Y-87871288D01*
X181980500Y-87628712D01*
X181948838Y-87388211D01*
X181886054Y-87153900D01*
X181793224Y-86929788D01*
X181671936Y-86719711D01*
X181524265Y-86527262D01*
X181524260Y-86527256D01*
X181352743Y-86355739D01*
X181352736Y-86355733D01*
X181160293Y-86208067D01*
X181160292Y-86208066D01*
X181160289Y-86208064D01*
X180978368Y-86103032D01*
X180950214Y-86086777D01*
X180950205Y-86086773D01*
X180726104Y-85993947D01*
X180491785Y-85931161D01*
X180251289Y-85899500D01*
X180251288Y-85899500D01*
X180008712Y-85899500D01*
X180008711Y-85899500D01*
X179768214Y-85931161D01*
X179533895Y-85993947D01*
X179309794Y-86086773D01*
X179309785Y-86086777D01*
X179099706Y-86208067D01*
X178935486Y-86334077D01*
X178870317Y-86359271D01*
X178801872Y-86345232D01*
X178784514Y-86334077D01*
X178620293Y-86208067D01*
X178620292Y-86208066D01*
X178620289Y-86208064D01*
X178438368Y-86103032D01*
X178410214Y-86086777D01*
X178410205Y-86086773D01*
X178186104Y-85993947D01*
X177951785Y-85931161D01*
X177711289Y-85899500D01*
X177711288Y-85899500D01*
X177468712Y-85899500D01*
X177468711Y-85899500D01*
X177228214Y-85931161D01*
X176993895Y-85993947D01*
X176769794Y-86086773D01*
X176769785Y-86086777D01*
X176559706Y-86208067D01*
X176395486Y-86334077D01*
X176330317Y-86359271D01*
X176261872Y-86345232D01*
X176244514Y-86334077D01*
X176080293Y-86208067D01*
X176080292Y-86208066D01*
X176080289Y-86208064D01*
X175898368Y-86103032D01*
X175870214Y-86086777D01*
X175870205Y-86086773D01*
X175646104Y-85993947D01*
X175411785Y-85931161D01*
X175171289Y-85899500D01*
X175171288Y-85899500D01*
X174928712Y-85899500D01*
X174928711Y-85899500D01*
X174688214Y-85931161D01*
X174453895Y-85993947D01*
X174229794Y-86086773D01*
X174229785Y-86086777D01*
X174019706Y-86208067D01*
X173855486Y-86334077D01*
X173790317Y-86359271D01*
X173721872Y-86345232D01*
X173704514Y-86334077D01*
X173540293Y-86208067D01*
X173540292Y-86208066D01*
X173540289Y-86208064D01*
X173358368Y-86103032D01*
X173330214Y-86086777D01*
X173330205Y-86086773D01*
X173106104Y-85993947D01*
X172871785Y-85931161D01*
X172631289Y-85899500D01*
X172631288Y-85899500D01*
X172388712Y-85899500D01*
X172388711Y-85899500D01*
X172148214Y-85931161D01*
X171913895Y-85993947D01*
X171689794Y-86086773D01*
X171689785Y-86086777D01*
X171479706Y-86208067D01*
X171315486Y-86334077D01*
X171250317Y-86359271D01*
X171181872Y-86345232D01*
X171164514Y-86334077D01*
X171000293Y-86208067D01*
X171000292Y-86208066D01*
X171000289Y-86208064D01*
X170818368Y-86103032D01*
X170790214Y-86086777D01*
X170790205Y-86086773D01*
X170566104Y-85993947D01*
X170331785Y-85931161D01*
X170091289Y-85899500D01*
X170091288Y-85899500D01*
X169848712Y-85899500D01*
X169848711Y-85899500D01*
X169608214Y-85931161D01*
X169373895Y-85993947D01*
X169149794Y-86086773D01*
X169149785Y-86086777D01*
X168939706Y-86208067D01*
X168775486Y-86334077D01*
X168710317Y-86359271D01*
X168641872Y-86345232D01*
X168624514Y-86334077D01*
X168460293Y-86208067D01*
X168460292Y-86208066D01*
X168460289Y-86208064D01*
X168278368Y-86103032D01*
X168250214Y-86086777D01*
X168250205Y-86086773D01*
X168026104Y-85993947D01*
X167791785Y-85931161D01*
X167551289Y-85899500D01*
X167551288Y-85899500D01*
X167308712Y-85899500D01*
X167308711Y-85899500D01*
X167068214Y-85931161D01*
X166833895Y-85993947D01*
X166609794Y-86086773D01*
X166609785Y-86086777D01*
X166399706Y-86208067D01*
X166235486Y-86334077D01*
X166170317Y-86359271D01*
X166101872Y-86345232D01*
X166084514Y-86334077D01*
X165920293Y-86208067D01*
X165920292Y-86208066D01*
X165920289Y-86208064D01*
X165738368Y-86103032D01*
X165710214Y-86086777D01*
X165710205Y-86086773D01*
X165486104Y-85993947D01*
X165251785Y-85931161D01*
X165011289Y-85899500D01*
X165011288Y-85899500D01*
X164768712Y-85899500D01*
X164768711Y-85899500D01*
X164528214Y-85931161D01*
X164293895Y-85993947D01*
X164069794Y-86086773D01*
X164069789Y-86086775D01*
X163977640Y-86139977D01*
X163909740Y-86156449D01*
X163843713Y-86133596D01*
X163837281Y-86128691D01*
X163753412Y-86060305D01*
X163753408Y-86060303D01*
X163753407Y-86060302D01*
X163573049Y-85966091D01*
X163573048Y-85966090D01*
X163573045Y-85966089D01*
X163455829Y-85932550D01*
X163377418Y-85910114D01*
X163377415Y-85910113D01*
X163377413Y-85910113D01*
X163311102Y-85904217D01*
X163258037Y-85899500D01*
X163258032Y-85899500D01*
X161441971Y-85899500D01*
X161441965Y-85899500D01*
X161441964Y-85899501D01*
X161430316Y-85900536D01*
X161322584Y-85910113D01*
X161126954Y-85966089D01*
X161073625Y-85993946D01*
X160946593Y-86060302D01*
X160946591Y-86060303D01*
X160946590Y-86060304D01*
X160788890Y-86188890D01*
X160660304Y-86346590D01*
X160660302Y-86346593D01*
X160630839Y-86402997D01*
X160566089Y-86526954D01*
X160538352Y-86623893D01*
X160510936Y-86719711D01*
X160510114Y-86722583D01*
X160510113Y-86722586D01*
X160499500Y-86841966D01*
X158966774Y-86841966D01*
X158945391Y-86800000D01*
X158889292Y-86689899D01*
X158881561Y-86679258D01*
X158768976Y-86524295D01*
X158624218Y-86379537D01*
X158458618Y-86259224D01*
X158458617Y-86259223D01*
X158458615Y-86259222D01*
X158401658Y-86230200D01*
X158276228Y-86166290D01*
X158081539Y-86103031D01*
X157907000Y-86075387D01*
X157879357Y-86071009D01*
X157674653Y-86071009D01*
X157650334Y-86074860D01*
X157472470Y-86103031D01*
X157277781Y-86166290D01*
X157095391Y-86259224D01*
X156929791Y-86379537D01*
X156785033Y-86524295D01*
X156664720Y-86689895D01*
X156571786Y-86872285D01*
X156508527Y-87066974D01*
X156476505Y-87269157D01*
X153742208Y-87269157D01*
X153618097Y-87249500D01*
X153618092Y-87249500D01*
X153381908Y-87249500D01*
X153381903Y-87249500D01*
X153148631Y-87286446D01*
X152924003Y-87359433D01*
X152713566Y-87466657D01*
X152625403Y-87530712D01*
X152522490Y-87605483D01*
X152522488Y-87605485D01*
X152522487Y-87605485D01*
X152355485Y-87772487D01*
X152355485Y-87772488D01*
X152355483Y-87772490D01*
X152346325Y-87785095D01*
X152216657Y-87963566D01*
X152109433Y-88174003D01*
X152036446Y-88398631D01*
X151999500Y-88631902D01*
X141262080Y-88631902D01*
X141288106Y-88580824D01*
X141290566Y-88575996D01*
X141290566Y-88575995D01*
X141290568Y-88575992D01*
X141363553Y-88351368D01*
X141366549Y-88332452D01*
X141400500Y-88118097D01*
X141400500Y-87881902D01*
X141363553Y-87648631D01*
X141306766Y-87473860D01*
X141290568Y-87424008D01*
X141290566Y-87424005D01*
X141290566Y-87424003D01*
X141220477Y-87286446D01*
X141183343Y-87213567D01*
X141044517Y-87022490D01*
X140877510Y-86855483D01*
X140686433Y-86716657D01*
X140475996Y-86609433D01*
X140251368Y-86536446D01*
X140018097Y-86499500D01*
X140018092Y-86499500D01*
X139781908Y-86499500D01*
X139781903Y-86499500D01*
X139548631Y-86536446D01*
X139324003Y-86609433D01*
X139113566Y-86716657D01*
X139105406Y-86722586D01*
X138922490Y-86855483D01*
X138922488Y-86855485D01*
X138922487Y-86855485D01*
X138755484Y-87022488D01*
X138755483Y-87022490D01*
X138732752Y-87053777D01*
X138730318Y-87057127D01*
X138674987Y-87099792D01*
X138605374Y-87105771D01*
X138543579Y-87073165D01*
X138529682Y-87057127D01*
X138504517Y-87022490D01*
X138337510Y-86855483D01*
X138146433Y-86716657D01*
X137935996Y-86609433D01*
X137711368Y-86536446D01*
X137478097Y-86499500D01*
X137478092Y-86499500D01*
X137241908Y-86499500D01*
X137241903Y-86499500D01*
X137008631Y-86536446D01*
X136784003Y-86609433D01*
X136573566Y-86716657D01*
X136565406Y-86722586D01*
X136382490Y-86855483D01*
X136382488Y-86855485D01*
X136382487Y-86855485D01*
X136217681Y-87020292D01*
X136156358Y-87053777D01*
X136086666Y-87048793D01*
X136042319Y-87020292D01*
X135877512Y-86855485D01*
X135877510Y-86855483D01*
X135686433Y-86716657D01*
X135475996Y-86609433D01*
X135251368Y-86536446D01*
X135018097Y-86499500D01*
X135018092Y-86499500D01*
X134781908Y-86499500D01*
X134781903Y-86499500D01*
X134548631Y-86536446D01*
X134324003Y-86609433D01*
X134113566Y-86716657D01*
X134105406Y-86722586D01*
X133922490Y-86855483D01*
X133922488Y-86855485D01*
X133922487Y-86855485D01*
X133755485Y-87022487D01*
X133755485Y-87022488D01*
X133755483Y-87022490D01*
X133699320Y-87099792D01*
X133616657Y-87213566D01*
X133509433Y-87424003D01*
X133436446Y-87648631D01*
X133399500Y-87881902D01*
X126196254Y-87881902D01*
X126170452Y-87718997D01*
X126112085Y-87539362D01*
X126026329Y-87371059D01*
X126007883Y-87345670D01*
X126007882Y-87345669D01*
X125353554Y-87999999D01*
X125350000Y-87999999D01*
X125350000Y-87953922D01*
X125326148Y-87864905D01*
X125280070Y-87785095D01*
X125214905Y-87719930D01*
X125135095Y-87673852D01*
X125046078Y-87650000D01*
X124953922Y-87650000D01*
X124864905Y-87673852D01*
X124785095Y-87719930D01*
X124719930Y-87785095D01*
X124673852Y-87864905D01*
X124650000Y-87953922D01*
X124600368Y-87953922D01*
X124000000Y-87353554D01*
X123353554Y-88000000D01*
X123350000Y-88000000D01*
X123350000Y-87953922D01*
X123326148Y-87864905D01*
X123280070Y-87785095D01*
X123214905Y-87719930D01*
X123135095Y-87673852D01*
X123046078Y-87650000D01*
X122953922Y-87650000D01*
X122864905Y-87673852D01*
X122785095Y-87719930D01*
X122719930Y-87785095D01*
X122673852Y-87864905D01*
X122650000Y-87953922D01*
X122600369Y-87953922D01*
X121992116Y-87345669D01*
X121992116Y-87345670D01*
X121973669Y-87371060D01*
X121887914Y-87539362D01*
X121829548Y-87718997D01*
X121800000Y-87905552D01*
X121200500Y-87905552D01*
X121200500Y-87888543D01*
X121171404Y-87667537D01*
X121113710Y-87452219D01*
X121028405Y-87246274D01*
X120916948Y-87053226D01*
X120870057Y-86992116D01*
X122345669Y-86992116D01*
X123000000Y-87646446D01*
X123000001Y-87646446D01*
X123654328Y-86992116D01*
X124345669Y-86992116D01*
X125000000Y-87646446D01*
X125000001Y-87646446D01*
X125654328Y-86992116D01*
X125628933Y-86973666D01*
X125460637Y-86887914D01*
X125281002Y-86829548D01*
X125094447Y-86800000D01*
X124905553Y-86800000D01*
X124718997Y-86829548D01*
X124539362Y-86887914D01*
X124371060Y-86973669D01*
X124345670Y-86992116D01*
X124345669Y-86992116D01*
X123654328Y-86992116D01*
X123628933Y-86973666D01*
X123460637Y-86887914D01*
X123281002Y-86829548D01*
X123094447Y-86800000D01*
X122905553Y-86800000D01*
X122718997Y-86829548D01*
X122539362Y-86887914D01*
X122371060Y-86973669D01*
X122345670Y-86992116D01*
X122345669Y-86992116D01*
X120870057Y-86992116D01*
X120822229Y-86929785D01*
X120781248Y-86876377D01*
X120781242Y-86876370D01*
X120623629Y-86718757D01*
X120623622Y-86718751D01*
X120446782Y-86583058D01*
X120446780Y-86583057D01*
X120446774Y-86583052D01*
X120253726Y-86471595D01*
X120253722Y-86471593D01*
X120047790Y-86386293D01*
X120047783Y-86386291D01*
X120047781Y-86386290D01*
X119832463Y-86328596D01*
X119832457Y-86328595D01*
X119832452Y-86328594D01*
X119611466Y-86299501D01*
X119611463Y-86299500D01*
X119611457Y-86299500D01*
X119388543Y-86299500D01*
X119388537Y-86299500D01*
X119388533Y-86299501D01*
X119167547Y-86328594D01*
X119167540Y-86328595D01*
X119167537Y-86328596D01*
X119053056Y-86359271D01*
X118952219Y-86386290D01*
X118952209Y-86386293D01*
X118746277Y-86471593D01*
X118746266Y-86471598D01*
X118562000Y-86577986D01*
X118494100Y-86594459D01*
X118438000Y-86577986D01*
X118253733Y-86471598D01*
X118253722Y-86471593D01*
X118047790Y-86386293D01*
X118047783Y-86386291D01*
X118047781Y-86386290D01*
X117832463Y-86328596D01*
X117832457Y-86328595D01*
X117832452Y-86328594D01*
X117611466Y-86299501D01*
X117611463Y-86299500D01*
X117611457Y-86299500D01*
X117388543Y-86299500D01*
X117388537Y-86299500D01*
X117388533Y-86299501D01*
X117167547Y-86328594D01*
X117167540Y-86328595D01*
X117167537Y-86328596D01*
X117053056Y-86359271D01*
X116952219Y-86386290D01*
X116952209Y-86386293D01*
X116746277Y-86471593D01*
X116746273Y-86471595D01*
X116553226Y-86583052D01*
X116553217Y-86583058D01*
X116376377Y-86718751D01*
X116376370Y-86718757D01*
X116218757Y-86876370D01*
X116218751Y-86876377D01*
X116083058Y-87053217D01*
X116083052Y-87053226D01*
X115971595Y-87246273D01*
X115971593Y-87246277D01*
X115886293Y-87452209D01*
X115886290Y-87452219D01*
X115839000Y-87628711D01*
X115828597Y-87667534D01*
X115828594Y-87667547D01*
X115799501Y-87888533D01*
X115799500Y-87888549D01*
X115135084Y-87888549D01*
X115180824Y-87831193D01*
X115369625Y-87530718D01*
X115438253Y-87388211D01*
X115523589Y-87211008D01*
X115523590Y-87211004D01*
X115523596Y-87210993D01*
X115640802Y-86876040D01*
X115719767Y-86530070D01*
X115759500Y-86177434D01*
X115759500Y-85822566D01*
X115719767Y-85469930D01*
X115640802Y-85123960D01*
X115523596Y-84789007D01*
X115523592Y-84789000D01*
X115523589Y-84788991D01*
X115369628Y-84469287D01*
X115369625Y-84469282D01*
X115180824Y-84168807D01*
X114959568Y-83891361D01*
X114780388Y-83712181D01*
X114746903Y-83650858D01*
X114751887Y-83581166D01*
X114793759Y-83525233D01*
X114859223Y-83500816D01*
X114868069Y-83500500D01*
X184581931Y-83500500D01*
X184648970Y-83520185D01*
G37*
%TD.AperFunction*%
%TD*%
M02*
