%TF.GenerationSoftware,KiCad,Pcbnew,9.0.6*%
%TF.CreationDate,2026-01-19T17:08:54-06:00*%
%TF.ProjectId,wearable,77656172-6162-46c6-952e-6b696361645f,rev?*%
%TF.SameCoordinates,Original*%
%TF.FileFunction,Soldermask,Bot*%
%TF.FilePolarity,Negative*%
%FSLAX46Y46*%
G04 Gerber Fmt 4.6, Leading zero omitted, Abs format (unit mm)*
G04 Created by KiCad (PCBNEW 9.0.6) date 2026-01-19 17:08:54*
%MOMM*%
%LPD*%
G01*
G04 APERTURE LIST*
G04 Aperture macros list*
%AMRoundRect*
0 Rectangle with rounded corners*
0 $1 Rounding radius*
0 $2 $3 $4 $5 $6 $7 $8 $9 X,Y pos of 4 corners*
0 Add a 4 corners polygon primitive as box body*
4,1,4,$2,$3,$4,$5,$6,$7,$8,$9,$2,$3,0*
0 Add four circle primitives for the rounded corners*
1,1,$1+$1,$2,$3*
1,1,$1+$1,$4,$5*
1,1,$1+$1,$6,$7*
1,1,$1+$1,$8,$9*
0 Add four rect primitives between the rounded corners*
20,1,$1+$1,$2,$3,$4,$5,0*
20,1,$1+$1,$4,$5,$6,$7,0*
20,1,$1+$1,$6,$7,$8,$9,0*
20,1,$1+$1,$8,$9,$2,$3,0*%
G04 Aperture macros list end*
%ADD10C,1.000000*%
%ADD11C,1.400000*%
%ADD12C,4.318000*%
%ADD13R,0.850000X0.850000*%
%ADD14R,1.000000X1.000000*%
%ADD15R,1.700000X1.700000*%
%ADD16C,1.700000*%
%ADD17RoundRect,0.250000X-0.350000X-0.625000X0.350000X-0.625000X0.350000X0.625000X-0.350000X0.625000X0*%
%ADD18O,1.200000X1.750000*%
%ADD19C,1.604000*%
G04 APERTURE END LIST*
D10*
%TO.C,TP8*%
X142000000Y-91500000D03*
%TD*%
%TO.C,TP14*%
X144500000Y-90500000D03*
%TD*%
D11*
%TO.C,TP2*%
X123000000Y-88000000D03*
X125000000Y-88000000D03*
%TD*%
D10*
%TO.C,TP6*%
X139500000Y-115500000D03*
%TD*%
D12*
%TO.C,H4*%
X186850000Y-117000000D03*
%TD*%
D10*
%TO.C,TP15*%
X153500000Y-88750000D03*
%TD*%
D12*
%TO.C,H1*%
X112600000Y-86000000D03*
%TD*%
D10*
%TO.C,TP4*%
X137360000Y-88000000D03*
%TD*%
%TO.C,TP3*%
X134500000Y-88000000D03*
%TD*%
D13*
%TO.C,E3*%
X113850000Y-101950000D03*
%TD*%
D10*
%TO.C,TP11*%
X143000000Y-114000000D03*
%TD*%
%TO.C,TP5*%
X137500000Y-114000000D03*
%TD*%
%TO.C,TP10*%
X143500000Y-111000000D03*
%TD*%
%TO.C,TP9*%
X141500000Y-111500000D03*
%TD*%
%TO.C,TP13*%
X175000000Y-98000000D03*
%TD*%
D13*
%TO.C,E1*%
X113850000Y-95850000D03*
%TD*%
%TO.C,E5*%
X113850000Y-108250000D03*
%TD*%
D10*
%TO.C,TP12*%
X145000000Y-108500000D03*
%TD*%
D13*
%TO.C,E4*%
X113850000Y-105000000D03*
%TD*%
D11*
%TO.C,TP1*%
X117500000Y-88000000D03*
X119500000Y-88000000D03*
%TD*%
D12*
%TO.C,H3*%
X186850000Y-86000000D03*
%TD*%
D14*
%TO.C,SW1*%
X186250000Y-109000000D03*
D10*
X186250000Y-107730000D03*
%TD*%
%TO.C,TP7*%
X141000000Y-88000000D03*
%TD*%
D12*
%TO.C,H2*%
X112600000Y-117000000D03*
%TD*%
D15*
%TO.C,J1*%
X162350000Y-87750000D03*
D16*
X164890000Y-87750000D03*
X167430000Y-87750000D03*
X169970000Y-87750000D03*
X172510000Y-87750000D03*
X175050000Y-87750000D03*
X177590000Y-87750000D03*
X180130000Y-87750000D03*
%TD*%
D17*
%TO.C,BT1*%
X179500000Y-111550000D03*
D18*
X181500000Y-111550000D03*
%TD*%
D19*
%TO.C,IC1*%
X139500000Y-105460000D03*
X139500000Y-108000000D03*
X139500000Y-110540000D03*
%TD*%
D13*
%TO.C,E2*%
X113850000Y-98900000D03*
%TD*%
M02*
