%TF.GenerationSoftware,KiCad,Pcbnew,9.0.7*%
%TF.CreationDate,2026-02-09T02:05:21-06:00*%
%TF.ProjectId,wearable,77656172-6162-46c6-952e-6b696361645f,rev?*%
%TF.SameCoordinates,Original*%
%TF.FileFunction,Copper,L1,Top*%
%TF.FilePolarity,Positive*%
%FSLAX46Y46*%
G04 Gerber Fmt 4.6, Leading zero omitted, Abs format (unit mm)*
G04 Created by KiCad (PCBNEW 9.0.7) date 2026-02-09 02:05:21*
%MOMM*%
%LPD*%
G01*
G04 APERTURE LIST*
G04 Aperture macros list*
%AMRoundRect*
0 Rectangle with rounded corners*
0 $1 Rounding radius*
0 $2 $3 $4 $5 $6 $7 $8 $9 X,Y pos of 4 corners*
0 Add a 4 corners polygon primitive as box body*
4,1,4,$2,$3,$4,$5,$6,$7,$8,$9,$2,$3,0*
0 Add four circle primitives for the rounded corners*
1,1,$1+$1,$2,$3*
1,1,$1+$1,$4,$5*
1,1,$1+$1,$6,$7*
1,1,$1+$1,$8,$9*
0 Add four rect primitives between the rounded corners*
20,1,$1+$1,$2,$3,$4,$5,0*
20,1,$1+$1,$4,$5,$6,$7,0*
20,1,$1+$1,$6,$7,$8,$9,0*
20,1,$1+$1,$8,$9,$2,$3,0*%
G04 Aperture macros list end*
%TA.AperFunction,ComponentPad*%
%ADD10C,1.500000*%
%TD*%
%TA.AperFunction,SMDPad,CuDef*%
%ADD11RoundRect,0.135000X-0.135000X-0.185000X0.135000X-0.185000X0.135000X0.185000X-0.135000X0.185000X0*%
%TD*%
%TA.AperFunction,ComponentPad*%
%ADD12C,1.400000*%
%TD*%
%TA.AperFunction,SMDPad,CuDef*%
%ADD13RoundRect,0.140000X0.140000X0.170000X-0.140000X0.170000X-0.140000X-0.170000X0.140000X-0.170000X0*%
%TD*%
%TA.AperFunction,SMDPad,CuDef*%
%ADD14RoundRect,0.075000X-0.650000X-0.075000X0.650000X-0.075000X0.650000X0.075000X-0.650000X0.075000X0*%
%TD*%
%TA.AperFunction,HeatsinkPad*%
%ADD15R,1.680000X1.880000*%
%TD*%
%TA.AperFunction,SMDPad,CuDef*%
%ADD16RoundRect,0.135000X0.185000X-0.135000X0.185000X0.135000X-0.185000X0.135000X-0.185000X-0.135000X0*%
%TD*%
%TA.AperFunction,SMDPad,CuDef*%
%ADD17RoundRect,0.140000X-0.140000X-0.170000X0.140000X-0.170000X0.140000X0.170000X-0.140000X0.170000X0*%
%TD*%
%TA.AperFunction,ComponentPad*%
%ADD18C,4.318000*%
%TD*%
%TA.AperFunction,SMDPad,CuDef*%
%ADD19RoundRect,0.135000X-0.185000X0.135000X-0.185000X-0.135000X0.185000X-0.135000X0.185000X0.135000X0*%
%TD*%
%TA.AperFunction,SMDPad,CuDef*%
%ADD20RoundRect,0.135000X0.135000X0.185000X-0.135000X0.185000X-0.135000X-0.185000X0.135000X-0.185000X0*%
%TD*%
%TA.AperFunction,SMDPad,CuDef*%
%ADD21RoundRect,0.140000X-0.170000X0.140000X-0.170000X-0.140000X0.170000X-0.140000X0.170000X0.140000X0*%
%TD*%
%TA.AperFunction,SMDPad,CuDef*%
%ADD22RoundRect,0.140000X0.170000X-0.140000X0.170000X0.140000X-0.170000X0.140000X-0.170000X-0.140000X0*%
%TD*%
%TA.AperFunction,SMDPad,CuDef*%
%ADD23RoundRect,0.250000X-0.650000X0.325000X-0.650000X-0.325000X0.650000X-0.325000X0.650000X0.325000X0*%
%TD*%
%TA.AperFunction,SMDPad,CuDef*%
%ADD24RoundRect,0.160000X0.160000X-0.222500X0.160000X0.222500X-0.160000X0.222500X-0.160000X-0.222500X0*%
%TD*%
%TA.AperFunction,SMDPad,CuDef*%
%ADD25R,1.800000X1.000000*%
%TD*%
%TA.AperFunction,ComponentPad*%
%ADD26R,1.700000X1.700000*%
%TD*%
%TA.AperFunction,ComponentPad*%
%ADD27C,1.700000*%
%TD*%
%TA.AperFunction,SMDPad,CuDef*%
%ADD28RoundRect,0.147500X-0.147500X-0.172500X0.147500X-0.172500X0.147500X0.172500X-0.147500X0.172500X0*%
%TD*%
%TA.AperFunction,SMDPad,CuDef*%
%ADD29R,0.675000X0.250000*%
%TD*%
%TA.AperFunction,SMDPad,CuDef*%
%ADD30R,0.250000X0.575000*%
%TD*%
%TA.AperFunction,SMDPad,CuDef*%
%ADD31RoundRect,0.150000X-0.400000X0.150000X-0.400000X-0.150000X0.400000X-0.150000X0.400000X0.150000X0*%
%TD*%
%TA.AperFunction,SMDPad,CuDef*%
%ADD32RoundRect,0.150000X-0.150000X0.512500X-0.150000X-0.512500X0.150000X-0.512500X0.150000X0.512500X0*%
%TD*%
%TA.AperFunction,SMDPad,CuDef*%
%ADD33RoundRect,0.075000X-0.200000X0.075000X-0.200000X-0.075000X0.200000X-0.075000X0.200000X0.075000X0*%
%TD*%
%TA.AperFunction,SMDPad,CuDef*%
%ADD34RoundRect,0.100000X-0.175000X0.100000X-0.175000X-0.100000X0.175000X-0.100000X0.175000X0.100000X0*%
%TD*%
%TA.AperFunction,SMDPad,CuDef*%
%ADD35RoundRect,0.225000X-0.375000X0.225000X-0.375000X-0.225000X0.375000X-0.225000X0.375000X0.225000X0*%
%TD*%
%TA.AperFunction,SMDPad,CuDef*%
%ADD36RoundRect,0.150000X0.200000X-0.150000X0.200000X0.150000X-0.200000X0.150000X-0.200000X-0.150000X0*%
%TD*%
%TA.AperFunction,ComponentPad*%
%ADD37RoundRect,0.250000X-0.725000X0.600000X-0.725000X-0.600000X0.725000X-0.600000X0.725000X0.600000X0*%
%TD*%
%TA.AperFunction,ComponentPad*%
%ADD38O,1.950000X1.700000*%
%TD*%
%TA.AperFunction,SMDPad,CuDef*%
%ADD39RoundRect,0.067500X-0.157500X0.232500X-0.157500X-0.232500X0.157500X-0.232500X0.157500X0.232500X0*%
%TD*%
%TA.AperFunction,SMDPad,CuDef*%
%ADD40RoundRect,0.067500X0.232500X0.157500X-0.232500X0.157500X-0.232500X-0.157500X0.232500X-0.157500X0*%
%TD*%
%TA.AperFunction,SMDPad,CuDef*%
%ADD41R,2.400000X0.740000*%
%TD*%
%TA.AperFunction,ComponentPad*%
%ADD42RoundRect,0.250000X-0.350000X-0.625000X0.350000X-0.625000X0.350000X0.625000X-0.350000X0.625000X0*%
%TD*%
%TA.AperFunction,ComponentPad*%
%ADD43O,1.200000X1.750000*%
%TD*%
%TA.AperFunction,SMDPad,CuDef*%
%ADD44RoundRect,0.062500X0.062500X-0.337500X0.062500X0.337500X-0.062500X0.337500X-0.062500X-0.337500X0*%
%TD*%
%TA.AperFunction,SMDPad,CuDef*%
%ADD45RoundRect,0.062500X0.337500X-0.062500X0.337500X0.062500X-0.337500X0.062500X-0.337500X-0.062500X0*%
%TD*%
%TA.AperFunction,HeatsinkPad*%
%ADD46C,0.500000*%
%TD*%
%TA.AperFunction,HeatsinkPad*%
%ADD47R,3.600000X3.600000*%
%TD*%
%TA.AperFunction,SMDPad,CuDef*%
%ADD48R,1.346200X0.279400*%
%TD*%
%TA.AperFunction,SMDPad,CuDef*%
%ADD49R,0.279400X1.346200*%
%TD*%
%TA.AperFunction,ViaPad*%
%ADD50C,0.800000*%
%TD*%
%TA.AperFunction,Conductor*%
%ADD51C,0.500000*%
%TD*%
%TA.AperFunction,Conductor*%
%ADD52C,0.200000*%
%TD*%
%TA.AperFunction,Conductor*%
%ADD53C,0.370000*%
%TD*%
G04 APERTURE END LIST*
D10*
%TO.P,TP8,1,1*%
%TO.N,DRDY*%
X142000000Y-91500000D03*
%TD*%
D11*
%TO.P,R16,1*%
%TO.N,Net-(U4-NTC)*%
X172200000Y-91300000D03*
%TO.P,R16,2*%
%TO.N,AVSS*%
X173220000Y-91300000D03*
%TD*%
D10*
%TO.P,TP14,1,1*%
%TO.N,SCK*%
X144500000Y-89000000D03*
%TD*%
D12*
%TO.P,TP2,1,1*%
%TO.N,AVDD*%
X123000000Y-88000000D03*
X125000000Y-88000000D03*
%TD*%
D13*
%TO.P,C4,1*%
%TO.N,AVSS*%
X128500000Y-91500000D03*
%TO.P,C4,2*%
%TO.N,AVDD*%
X127540000Y-91500000D03*
%TD*%
D14*
%TO.P,U5,1,IN*%
%TO.N,+5V3*%
X178500000Y-92900000D03*
%TO.P,U5,2,IN*%
X178500000Y-93400000D03*
%TO.P,U5,3,EN/UV*%
X178500000Y-93900000D03*
%TO.P,U5,4,PG*%
%TO.N,Net-(U5-PG)*%
X178500000Y-94400000D03*
%TO.P,U5,5,ILIM*%
%TO.N,Net-(U5-ILIM)*%
X178500000Y-94900000D03*
%TO.P,U5,6,PGFB*%
%TO.N,Net-(U5-PGFB)*%
X182800000Y-94900000D03*
%TO.P,U5,7,SET*%
%TO.N,Net-(U5-SET)*%
X182800000Y-94400000D03*
%TO.P,U5,8,GND*%
%TO.N,AVSS*%
X182800000Y-93900000D03*
%TO.P,U5,9,OUTS*%
%TO.N,AVDD*%
X182800000Y-93400000D03*
%TO.P,U5,10,OUT*%
X182800000Y-92900000D03*
D15*
%TO.P,U5,11,GND*%
%TO.N,AVSS*%
X180650000Y-93900000D03*
%TD*%
D10*
%TO.P,TP6,1,1*%
%TO.N,INT_BNO085*%
X140500000Y-112500000D03*
%TD*%
D11*
%TO.P,R7,1*%
%TO.N,Net-(U1-GPIO4)*%
X139600000Y-96530000D03*
%TO.P,R7,2*%
%TO.N,AVSS*%
X140620000Y-96530000D03*
%TD*%
D16*
%TO.P,R26,1*%
%TO.N,AVDD*%
X186750000Y-96110000D03*
%TO.P,R26,2*%
%TO.N,Net-(U5-PGFB)*%
X186750000Y-95090000D03*
%TD*%
D17*
%TO.P,C13,1*%
%TO.N,AVDD*%
X128520000Y-113500000D03*
%TO.P,C13,2*%
%TO.N,AVSS*%
X129480000Y-113500000D03*
%TD*%
D11*
%TO.P,R9,1*%
%TO.N,Net-(U1-GPIO2)*%
X139600000Y-99500000D03*
%TO.P,R9,2*%
%TO.N,AVSS*%
X140620000Y-99500000D03*
%TD*%
D13*
%TO.P,C16,1*%
%TO.N,/XOUT*%
X146392500Y-113000000D03*
%TO.P,C16,2*%
%TO.N,AVSS*%
X145432500Y-113000000D03*
%TD*%
D18*
%TO.P,H4,1,Hole*%
%TO.N,unconnected-(H4-Hole-Pad1)*%
X186850000Y-117000000D03*
%TD*%
D10*
%TO.P,TP15,1,1*%
%TO.N,SCL*%
X153500000Y-88000000D03*
%TD*%
D11*
%TO.P,R8,1*%
%TO.N,Net-(U1-GPIO3)*%
X139600000Y-98000000D03*
%TO.P,R8,2*%
%TO.N,AVSS*%
X140620000Y-98000000D03*
%TD*%
D19*
%TO.P,R27,1*%
%TO.N,Net-(U5-PGFB)*%
X184750000Y-95090000D03*
%TO.P,R27,2*%
%TO.N,AVSS*%
X184750000Y-96110000D03*
%TD*%
D18*
%TO.P,H1,1,Hole*%
%TO.N,unconnected-(H1-Hole-Pad1)*%
X110000000Y-88000000D03*
%TD*%
D20*
%TO.P,R17,1*%
%TO.N,Net-(U4-VSET2)*%
X173270000Y-92440340D03*
%TO.P,R17,2*%
%TO.N,AVSS*%
X172250000Y-92440340D03*
%TD*%
%TO.P,R12,1*%
%TO.N,+3V3*%
X156700000Y-109350000D03*
%TO.P,R12,2*%
%TO.N,RESET*%
X155680000Y-109350000D03*
%TD*%
D10*
%TO.P,TP4,1,1*%
%TO.N,RST_ADS1299*%
X137360000Y-87500000D03*
%TD*%
D21*
%TO.P,C49,1*%
%TO.N,AVDD*%
X186750000Y-97520000D03*
%TO.P,C49,2*%
%TO.N,AVSS*%
X186750000Y-98480000D03*
%TD*%
D10*
%TO.P,TP3,1,1*%
%TO.N,START_ADS1299*%
X134900000Y-88000000D03*
%TD*%
D17*
%TO.P,C27,1*%
%TO.N,RESET*%
X155710000Y-110900000D03*
%TO.P,C27,2*%
%TO.N,AVSS*%
X156670000Y-110900000D03*
%TD*%
D21*
%TO.P,C43,1*%
%TO.N,+5V3*%
X178500000Y-102265000D03*
%TO.P,C43,2*%
%TO.N,AVSS*%
X178500000Y-103225000D03*
%TD*%
D22*
%TO.P,C9,1*%
%TO.N,Net-(U1-VCAP3)*%
X129880000Y-92000000D03*
%TO.P,C9,2*%
%TO.N,AVSS*%
X129880000Y-91040000D03*
%TD*%
D13*
%TO.P,C44,1*%
%TO.N,+3V3*%
X179500000Y-108500000D03*
%TO.P,C44,2*%
%TO.N,AVSS*%
X178540000Y-108500000D03*
%TD*%
D10*
%TO.P,TP11,1,1*%
%TO.N,MISO*%
X139000000Y-115500000D03*
%TD*%
D22*
%TO.P,C1,1*%
%TO.N,Net-(U1-IN2P)*%
X121520000Y-102780000D03*
%TO.P,C1,2*%
%TO.N,Net-(U1-IN2N)*%
X121520000Y-101820000D03*
%TD*%
D21*
%TO.P,C45,1*%
%TO.N,VSYS*%
X168200000Y-99120000D03*
%TO.P,C45,2*%
%TO.N,AVSS*%
X168200000Y-100080000D03*
%TD*%
D10*
%TO.P,TP5,1,1*%
%TO.N,CS_ADS1299*%
X154000000Y-94200000D03*
%TD*%
D17*
%TO.P,C8,1*%
%TO.N,AVDD*%
X128500000Y-112000000D03*
%TO.P,C8,2*%
%TO.N,AVSS*%
X129460000Y-112000000D03*
%TD*%
D20*
%TO.P,R3,1*%
%TO.N,Net-(U1-IN1N)*%
X120520000Y-104200000D03*
%TO.P,R3,2*%
%TO.N,Net-(D4-D2+)*%
X119500000Y-104200000D03*
%TD*%
D10*
%TO.P,TP10,1,1*%
%TO.N,BOOT_BNO085*%
X143500000Y-111000000D03*
%TD*%
D23*
%TO.P,C11,1*%
%TO.N,Net-(U1-VCAP1)*%
X133200000Y-109725000D03*
%TO.P,C11,2*%
%TO.N,AVSS*%
X133200000Y-112675000D03*
%TD*%
D20*
%TO.P,R1,1*%
%TO.N,Net-(U1-IN2N)*%
X120520000Y-101200000D03*
%TO.P,R1,2*%
%TO.N,Net-(D4-D1+)*%
X119500000Y-101200000D03*
%TD*%
D24*
%TO.P,L5,1,1*%
%TO.N,+3V3*%
X169500000Y-100472500D03*
%TO.P,L5,2,2*%
%TO.N,Net-(U4-SW2)*%
X169500000Y-99327500D03*
%TD*%
%TO.P,L7,1,1*%
%TO.N,+3V3*%
X182000000Y-108370000D03*
%TO.P,L7,2,2*%
%TO.N,Net-(D3-A)*%
X182000000Y-107225000D03*
%TD*%
D19*
%TO.P,R22,1*%
%TO.N,Net-(U5-ILIM)*%
X180100000Y-96400000D03*
%TO.P,R22,2*%
%TO.N,AVSS*%
X180100000Y-97420000D03*
%TD*%
%TO.P,R21,1*%
%TO.N,Net-(U6-FB)*%
X175500000Y-105500000D03*
%TO.P,R21,2*%
%TO.N,AVSS*%
X175500000Y-106520000D03*
%TD*%
D25*
%TO.P,Y2,1,1*%
%TO.N,/XIN*%
X148162500Y-115500000D03*
%TO.P,Y2,2,2*%
%TO.N,/XOUT*%
X148162500Y-113000000D03*
%TD*%
D11*
%TO.P,R10,1*%
%TO.N,Net-(U1-GPIO1)*%
X139500000Y-101000000D03*
%TO.P,R10,2*%
%TO.N,AVSS*%
X140520000Y-101000000D03*
%TD*%
D19*
%TO.P,R23,1*%
%TO.N,+5V3*%
X176920000Y-93650000D03*
%TO.P,R23,2*%
%TO.N,Net-(U5-PG)*%
X176920000Y-94670000D03*
%TD*%
D21*
%TO.P,C3,1*%
%TO.N,Net-(U1-BIASIN)*%
X121225000Y-95170000D03*
%TO.P,C3,2*%
%TO.N,Net-(U1-BIASINV)*%
X121225000Y-96130000D03*
%TD*%
D13*
%TO.P,C17,1*%
%TO.N,/XIN*%
X146392500Y-115500000D03*
%TO.P,C17,2*%
%TO.N,AVSS*%
X145432500Y-115500000D03*
%TD*%
D16*
%TO.P,R13,1*%
%TO.N,+3V3*%
X156662500Y-116635000D03*
%TO.P,R13,2*%
%TO.N,Net-(U3-PS0{slash}WAKE)*%
X156662500Y-115615000D03*
%TD*%
D22*
%TO.P,C15,1*%
%TO.N,AVSS*%
X135000000Y-110750000D03*
%TO.P,C15,2*%
%TO.N,Net-(U1-VCAP2)*%
X135000000Y-109790000D03*
%TD*%
D10*
%TO.P,TP9,1,1*%
%TO.N,MOSI*%
X141500000Y-109000000D03*
%TD*%
D20*
%TO.P,R4,1*%
%TO.N,Net-(U1-IN1P)*%
X120520000Y-105200000D03*
%TO.P,R4,2*%
%TO.N,Net-(D4-D2-)*%
X119500000Y-105200000D03*
%TD*%
%TO.P,R15,1*%
%TO.N,Net-(D2-A)*%
X159510000Y-89500000D03*
%TO.P,R15,2*%
%TO.N,+3V3*%
X158490000Y-89500000D03*
%TD*%
D11*
%TO.P,R11,1*%
%TO.N,+3V3*%
X152980000Y-116625000D03*
%TO.P,R11,2*%
%TO.N,Net-(U3-PS1)*%
X154000000Y-116625000D03*
%TD*%
D26*
%TO.P,J3,1,Pin_1*%
%TO.N,AVSS*%
X180100000Y-87500000D03*
D27*
%TO.P,J3,2,Pin_2*%
%TO.N,+5V_USB*%
X177560000Y-87500000D03*
%TO.P,J3,3,Pin_3*%
%TO.N,AVSS*%
X175020000Y-87500000D03*
%TO.P,J3,4,Pin_4*%
%TO.N,Net-(J3-Pin_4)*%
X172480000Y-87500000D03*
%TO.P,J3,5,Pin_5*%
%TO.N,unconnected-(J3-Pin_5-Pad5)*%
X169940000Y-87500000D03*
%TO.P,J3,6,Pin_6*%
%TO.N,unconnected-(J3-Pin_6-Pad6)*%
X167400000Y-87500000D03*
%TO.P,J3,7,Pin_7*%
%TO.N,AVSS*%
X164860000Y-87500000D03*
%TO.P,J3,8,Pin_8*%
%TO.N,Net-(J3-Pin_8)*%
X162320000Y-87500000D03*
%TD*%
D28*
%TO.P,D2,1,K*%
%TO.N,AVSS*%
X158515000Y-87750000D03*
%TO.P,D2,2,A*%
%TO.N,Net-(D2-A)*%
X159485000Y-87750000D03*
%TD*%
D21*
%TO.P,C41,1*%
%TO.N,+5V3*%
X175500000Y-102520000D03*
%TO.P,C41,2*%
%TO.N,Net-(U6-FB)*%
X175500000Y-103480000D03*
%TD*%
D22*
%TO.P,C10,1*%
%TO.N,Net-(U1-VCAP3)*%
X131850000Y-92000000D03*
%TO.P,C10,2*%
%TO.N,AVSS*%
X131850000Y-91040000D03*
%TD*%
%TO.P,C2,1*%
%TO.N,Net-(U1-IN1P)*%
X121500000Y-104660000D03*
%TO.P,C2,2*%
%TO.N,Net-(U1-IN1N)*%
X121500000Y-103700000D03*
%TD*%
D10*
%TO.P,TP12,1,1*%
%TO.N,RST_BNO085*%
X145000000Y-108500000D03*
%TD*%
D29*
%TO.P,U3,1*%
%TO.N,N/C*%
X150687500Y-115062500D03*
D30*
%TO.P,U3,2,GND*%
%TO.N,AVSS*%
X151500000Y-115125000D03*
%TO.P,U3,3,VDD*%
%TO.N,+3V3*%
X152000000Y-115125000D03*
%TO.P,U3,4,~{BOOT}*%
%TO.N,BOOT_BNO085*%
X152500000Y-115125000D03*
%TO.P,U3,5,PS1*%
%TO.N,Net-(U3-PS1)*%
X153000000Y-115125000D03*
D29*
%TO.P,U3,6,PS0/WAKE*%
%TO.N,Net-(U3-PS0{slash}WAKE)*%
X153812500Y-115062500D03*
%TO.P,U3,7*%
%TO.N,N/C*%
X153812500Y-114562500D03*
%TO.P,U3,8*%
X153812500Y-114062500D03*
%TO.P,U3,9,CAP*%
%TO.N,/CAP*%
X153812500Y-113562500D03*
%TO.P,U3,10,CLKSEL0*%
%TO.N,AVSS*%
X153812500Y-113062500D03*
%TO.P,U3,11,~{RST}*%
%TO.N,RST_BNO085*%
X153812500Y-112562500D03*
%TO.P,U3,12*%
%TO.N,N/C*%
X153812500Y-112062500D03*
%TO.P,U3,13*%
X153812500Y-111562500D03*
%TO.P,U3,14,~{H_INT}*%
%TO.N,INT_BNO085*%
X153812500Y-111062500D03*
%TO.P,U3,15,ENV_SCL*%
%TO.N,unconnected-(U3-ENV_SCL-Pad15)*%
X153812500Y-110562500D03*
D30*
%TO.P,U3,16,ENV_SDA*%
%TO.N,unconnected-(U3-ENV_SDA-Pad16)*%
X153000000Y-110500000D03*
%TO.P,U3,17,SA0/H_MOSI*%
%TO.N,MOSI*%
X152500000Y-110500000D03*
%TO.P,U3,18,~{H_CS}*%
%TO.N,CS_BNO085*%
X152000000Y-110500000D03*
%TO.P,U3,19,H_SCL/SCK/RX*%
%TO.N,SCK*%
X151500000Y-110500000D03*
D29*
%TO.P,U3,20,H_SDA/H_MISO/TX*%
%TO.N,MISO*%
X150687500Y-110562500D03*
%TO.P,U3,21*%
%TO.N,N/C*%
X150687500Y-111062500D03*
%TO.P,U3,22*%
X150687500Y-111562500D03*
%TO.P,U3,23*%
X150687500Y-112062500D03*
%TO.P,U3,24*%
X150687500Y-112562500D03*
%TO.P,U3,25,GNDIO*%
%TO.N,AVSS*%
X150687500Y-113062500D03*
%TO.P,U3,26,XOUT32/CLKSEL1*%
%TO.N,/XOUT*%
X150687500Y-113562500D03*
%TO.P,U3,27,XIN32*%
%TO.N,/XIN*%
X150687500Y-114062500D03*
%TO.P,U3,28,VDDIO*%
%TO.N,+3V3*%
X150687500Y-114562500D03*
%TD*%
D31*
%TO.P,Y1,1,1*%
%TO.N,Net-(U7-P1.00)*%
X145500000Y-99250000D03*
%TO.P,Y1,2,2*%
%TO.N,Net-(U7-P1.01)*%
X145500000Y-100650000D03*
%TD*%
D20*
%TO.P,R14,1*%
%TO.N,Net-(D1-A)*%
X157000000Y-89500000D03*
%TO.P,R14,2*%
%TO.N,SCK*%
X155980000Y-89500000D03*
%TD*%
D32*
%TO.P,U6,1,SW*%
%TO.N,Net-(D3-A)*%
X179500000Y-104725000D03*
%TO.P,U6,2,GND*%
%TO.N,AVSS*%
X178550000Y-104725000D03*
%TO.P,U6,3,FB*%
%TO.N,Net-(U6-FB)*%
X177600000Y-104725000D03*
%TO.P,U6,4,EN*%
%TO.N,+3V3*%
X177600000Y-107000000D03*
%TO.P,U6,5,VIN*%
X179500000Y-107000000D03*
%TD*%
D33*
%TO.P,D4,1,D1+*%
%TO.N,Net-(D4-D1+)*%
X115700000Y-102200000D03*
%TO.P,D4,2,D1-*%
%TO.N,Net-(D4-D1-)*%
X115700000Y-102700000D03*
D34*
%TO.P,D4,3,GND_1*%
%TO.N,AVSS*%
X115700000Y-103200000D03*
D33*
%TO.P,D4,4,D2+*%
%TO.N,Net-(D4-D2+)*%
X115700000Y-103700000D03*
%TO.P,D4,5,D2-*%
%TO.N,Net-(D4-D2-)*%
X115700000Y-104200000D03*
%TO.P,D4,6,NC_1*%
X116470000Y-104200000D03*
%TO.P,D4,7,NC_2*%
%TO.N,Net-(D4-D2+)*%
X116470000Y-103700000D03*
D34*
%TO.P,D4,8,GND_2*%
%TO.N,AVSS*%
X116470000Y-103200000D03*
D33*
%TO.P,D4,9,NC_3*%
%TO.N,Net-(D4-D1-)*%
X116470000Y-102700000D03*
%TO.P,D4,10,NC_4*%
%TO.N,Net-(D4-D1+)*%
X116470000Y-102200000D03*
%TD*%
D19*
%TO.P,R24,1*%
%TO.N,+5V3*%
X177000000Y-102215000D03*
%TO.P,R24,2*%
%TO.N,Net-(U6-FB)*%
X177000000Y-103235000D03*
%TD*%
D35*
%TO.P,D3,1,K*%
%TO.N,+5V3*%
X182000000Y-101700000D03*
%TO.P,D3,2,A*%
%TO.N,Net-(D3-A)*%
X182000000Y-105000000D03*
%TD*%
D22*
%TO.P,C39,1*%
%TO.N,Net-(BT1-+)*%
X184600000Y-113560000D03*
%TO.P,C39,2*%
%TO.N,AVSS*%
X184600000Y-112600000D03*
%TD*%
D36*
%TO.P,U2,1,I/O*%
%TO.N,VBIAS*%
X115525000Y-95680000D03*
%TO.P,U2,2,GND*%
%TO.N,AVSS*%
X115525000Y-97080000D03*
%TD*%
D22*
%TO.P,C48,1*%
%TO.N,Net-(U5-SET)*%
X186750000Y-93860000D03*
%TO.P,C48,2*%
%TO.N,AVSS*%
X186750000Y-92900000D03*
%TD*%
D11*
%TO.P,R18,1*%
%TO.N,VBIAS*%
X116705000Y-95680000D03*
%TO.P,R18,2*%
%TO.N,Net-(U1-BIASIN)*%
X117725000Y-95680000D03*
%TD*%
D12*
%TO.P,TP1,1,1*%
%TO.N,AVSS*%
X117500000Y-88000000D03*
X119500000Y-88000000D03*
%TD*%
D21*
%TO.P,C40,1*%
%TO.N,AVSS*%
X176920000Y-91390000D03*
%TO.P,C40,2*%
%TO.N,+3V3*%
X176920000Y-92350000D03*
%TD*%
D22*
%TO.P,C14,1*%
%TO.N,+3V3*%
X136600000Y-95480000D03*
%TO.P,C14,2*%
%TO.N,AVSS*%
X136600000Y-94520000D03*
%TD*%
D18*
%TO.P,H3,1,Hole*%
%TO.N,unconnected-(H3-Hole-Pad1)*%
X186850000Y-88000000D03*
%TD*%
D28*
%TO.P,D1,1,K*%
%TO.N,AVSS*%
X156015000Y-87750000D03*
%TO.P,D1,2,A*%
%TO.N,Net-(D1-A)*%
X156985000Y-87750000D03*
%TD*%
D22*
%TO.P,C33,1*%
%TO.N,Net-(U4-VBUSOUT)*%
X168100000Y-90980000D03*
%TO.P,C33,2*%
%TO.N,AVSS*%
X168100000Y-90020000D03*
%TD*%
D37*
%TO.P,E1,1,Bias*%
%TO.N,VBIAS*%
X110200000Y-96900000D03*
D38*
%TO.P,E1,2,D1+*%
%TO.N,Net-(D4-D1+)*%
X110200000Y-99400000D03*
%TO.P,E1,3,D1-*%
%TO.N,Net-(D4-D1-)*%
X110200000Y-101900000D03*
%TO.P,E1,4,D2+*%
%TO.N,Net-(D4-D2+)*%
X110200000Y-104400000D03*
%TO.P,E1,5,D2-*%
%TO.N,Net-(D4-D2-)*%
X110200000Y-106900000D03*
%TD*%
D10*
%TO.P,TP16,1,1*%
%TO.N,SDA*%
X175400000Y-112200000D03*
%TD*%
D22*
%TO.P,C26,1*%
%TO.N,/CAP*%
X156662500Y-113980000D03*
%TO.P,C26,2*%
%TO.N,AVSS*%
X156662500Y-113020000D03*
%TD*%
D17*
%TO.P,C6,1*%
%TO.N,AVDD*%
X126020000Y-111500000D03*
%TO.P,C6,2*%
%TO.N,AVSS*%
X126980000Y-111500000D03*
%TD*%
%TO.P,C7,1*%
%TO.N,Net-(U1-VREFP)*%
X128520000Y-110000000D03*
%TO.P,C7,2*%
%TO.N,Net-(U1-VREFN)*%
X129480000Y-110000000D03*
%TD*%
D39*
%TO.P,U7,1,VSS*%
%TO.N,AVSS*%
X160450000Y-106497000D03*
%TO.P,U7,2,P2.09*%
%TO.N,GPIO1*%
X159700000Y-106497000D03*
%TO.P,U7,3,P2.08*%
%TO.N,GPIO4*%
X158950000Y-106497000D03*
%TO.P,U7,4,P2.07*%
%TO.N,GPIO3*%
X158200000Y-106497000D03*
%TO.P,U7,5,SWDIO*%
%TO.N,SWDCLK*%
X157450000Y-106497000D03*
%TO.P,U7,6,SWDCLK*%
%TO.N,SWDIO*%
X156700000Y-106497000D03*
%TO.P,U7,7,~{RESET}*%
%TO.N,RESET*%
X155950000Y-106497000D03*
%TO.P,U7,8,P2.02*%
%TO.N,MISO*%
X155200000Y-106497000D03*
%TO.P,U7,9,P2.00*%
%TO.N,unconnected-(U7-P2.00-Pad9)*%
X154450000Y-106497000D03*
%TO.P,U7,10,P2.01*%
%TO.N,SCK*%
X153700000Y-106497000D03*
%TO.P,U7,11,P2.04*%
%TO.N,MOSI*%
X152950000Y-106497000D03*
%TO.P,U7,12,P2.05*%
%TO.N,CS_BNO085*%
X152200000Y-106497000D03*
%TO.P,U7,13,P2.03*%
%TO.N,GPIO0*%
X151450000Y-106497000D03*
%TO.P,U7,14,P1.03*%
%TO.N,INT_BNO085*%
X150700000Y-106497000D03*
%TO.P,U7,15,P1.02*%
%TO.N,RST_BNO085*%
X149950000Y-106497000D03*
%TO.P,U7,16,VSS*%
%TO.N,AVSS*%
X149200000Y-106497000D03*
D40*
%TO.P,U7,17,P0.00*%
%TO.N,SDA*%
X149150000Y-105750000D03*
%TO.P,U7,18,P0.01*%
%TO.N,DRDY*%
X149150000Y-105000000D03*
%TO.P,U7,19,P0.02*%
%TO.N,unconnected-(U7-P0.02-Pad19)*%
X149150000Y-104250000D03*
%TO.P,U7,20,P1.07*%
%TO.N,BOOT_BNO085*%
X149150000Y-103500000D03*
%TO.P,U7,21,P1.06*%
%TO.N,PWDWN_ADS1299*%
X149150000Y-102750000D03*
%TO.P,U7,22,P1.05*%
%TO.N,RST_ADS1299*%
X149150000Y-102000000D03*
%TO.P,U7,23,P1.04*%
%TO.N,START_ADS1299*%
X149150000Y-101250000D03*
%TO.P,U7,24,P1.01*%
%TO.N,Net-(U7-P1.01)*%
X149150000Y-100500000D03*
%TO.P,U7,25,P1.00*%
%TO.N,Net-(U7-P1.00)*%
X149150000Y-99750000D03*
%TO.P,U7,26,VDD*%
%TO.N,+3V3*%
X149150000Y-99000000D03*
%TO.P,U7,27,VSS*%
%TO.N,AVSS*%
X149150000Y-98250000D03*
D39*
%TO.P,U7,28,P1.10*%
%TO.N,unconnected-(U7-P1.10-Pad28)*%
X149200000Y-97500000D03*
%TO.P,U7,29,P1.09*%
%TO.N,unconnected-(U7-P1.09-Pad29)*%
X149950000Y-97500000D03*
%TO.P,U7,30,P1.08*%
%TO.N,unconnected-(U7-P1.08-Pad30)*%
X150700000Y-97500000D03*
%TO.P,U7,31,P0.04*%
%TO.N,unconnected-(U7-P0.04-Pad31)*%
X151450000Y-97500000D03*
%TO.P,U7,32,P1.14*%
%TO.N,unconnected-(U7-P1.14-Pad32)*%
X152200000Y-97500000D03*
%TO.P,U7,33,P1.13*%
%TO.N,unconnected-(U7-P1.13-Pad33)*%
X152950000Y-97500000D03*
%TO.P,U7,34,P1.12*%
%TO.N,unconnected-(U7-P1.12-Pad34)*%
X153700000Y-97500000D03*
%TO.P,U7,35,P1.11*%
%TO.N,unconnected-(U7-P1.11-Pad35)*%
X154450000Y-97500000D03*
%TO.P,U7,36,P0.03*%
%TO.N,SCL*%
X155200000Y-97500000D03*
%TO.P,U7,37,P2.10*%
%TO.N,CS_ADS1299*%
X155950000Y-97500000D03*
%TO.P,U7,38,P2.06*%
%TO.N,GPIO2*%
X156700000Y-97500000D03*
%TO.P,U7,39,VSS*%
%TO.N,AVSS*%
X157450000Y-97500000D03*
%TD*%
D26*
%TO.P,SW1,1,1*%
%TO.N,AVSS*%
X186500000Y-108040000D03*
D27*
%TO.P,SW1,2,2*%
%TO.N,Net-(U4-SHPHLD)*%
X186500000Y-105500000D03*
%TD*%
D16*
%TO.P,R25,1*%
%TO.N,Net-(U5-SET)*%
X184700000Y-93880000D03*
%TO.P,R25,2*%
%TO.N,AVSS*%
X184700000Y-92860000D03*
%TD*%
D10*
%TO.P,TP7,1,1*%
%TO.N,PWDWN_ADS1299*%
X139900000Y-88000000D03*
%TD*%
D41*
%TO.P,J2,1,Pin_1*%
%TO.N,+3V3*%
X160350000Y-111730000D03*
%TO.P,J2,2,Pin_2*%
%TO.N,SWDIO*%
X164250000Y-111730000D03*
%TO.P,J2,3,Pin_3*%
%TO.N,AVSS*%
X160350000Y-113000000D03*
%TO.P,J2,4,Pin_4*%
%TO.N,SWDCLK*%
X164250000Y-113000000D03*
%TO.P,J2,5,Pin_5*%
%TO.N,AVSS*%
X160350000Y-114270000D03*
%TO.P,J2,6,Pin_6*%
%TO.N,unconnected-(J2-Pin_6-Pad6)*%
X164250000Y-114270000D03*
%TO.P,J2,7,Pin_7*%
%TO.N,unconnected-(J2-Pin_7-Pad7)*%
X160350000Y-115540000D03*
%TO.P,J2,8,Pin_8*%
%TO.N,unconnected-(J2-Pin_8-Pad8)*%
X164250000Y-115540000D03*
%TO.P,J2,9,Pin_9*%
%TO.N,unconnected-(J2-Pin_9-Pad9)*%
X160350000Y-116810000D03*
%TO.P,J2,10,Pin_10*%
%TO.N,RESET*%
X164250000Y-116810000D03*
%TD*%
D13*
%TO.P,C35,1*%
%TO.N,+3V3*%
X164680000Y-97600000D03*
%TO.P,C35,2*%
%TO.N,AVSS*%
X163720000Y-97600000D03*
%TD*%
D18*
%TO.P,H2,1,Hole*%
%TO.N,unconnected-(H2-Hole-Pad1)*%
X110000000Y-117000000D03*
%TD*%
D19*
%TO.P,R5,1*%
%TO.N,Net-(U1-BIASIN)*%
X119425000Y-95130000D03*
%TO.P,R5,2*%
%TO.N,Net-(U1-BIASINV)*%
X119425000Y-96150000D03*
%TD*%
D17*
%TO.P,C42,1*%
%TO.N,+5V3*%
X178090000Y-91400000D03*
%TO.P,C42,2*%
%TO.N,AVSS*%
X179050000Y-91400000D03*
%TD*%
D42*
%TO.P,BT1,1,+*%
%TO.N,Net-(BT1-+)*%
X179500000Y-111550000D03*
D43*
%TO.P,BT1,2,-*%
%TO.N,AVSS*%
X181500000Y-111550000D03*
%TD*%
D22*
%TO.P,C46,1*%
%TO.N,VSYS*%
X170500000Y-91000000D03*
%TO.P,C46,2*%
%TO.N,AVSS*%
X170500000Y-90040000D03*
%TD*%
D44*
%TO.P,U4,1,VOUT1*%
%TO.N,VSYS*%
X167100000Y-97800000D03*
%TO.P,U4,2,PVSS1*%
%TO.N,AVSS*%
X167600000Y-97800000D03*
%TO.P,U4,3,SW1*%
%TO.N,unconnected-(U4-SW1-Pad3)*%
X168100000Y-97800000D03*
%TO.P,U4,4,PVDD*%
%TO.N,VSYS*%
X168600000Y-97800000D03*
%TO.P,U4,5,SW2*%
%TO.N,Net-(U4-SW2)*%
X169100000Y-97800000D03*
%TO.P,U4,6,PVSS2*%
%TO.N,AVSS*%
X169600000Y-97800000D03*
%TO.P,U4,7,GPIO0*%
%TO.N,GPIO0*%
X170100000Y-97800000D03*
%TO.P,U4,8,GPIO1*%
%TO.N,GPIO1*%
X170600000Y-97800000D03*
D45*
%TO.P,U4,9,GPIO2*%
%TO.N,GPIO2*%
X171300000Y-97100000D03*
%TO.P,U4,10,GPIO3*%
%TO.N,GPIO3*%
X171300000Y-96600000D03*
%TO.P,U4,11,GPIO4*%
%TO.N,GPIO4*%
X171300000Y-96100000D03*
%TO.P,U4,12,VDDIO*%
%TO.N,+3V3*%
X171300000Y-95600000D03*
%TO.P,U4,13,SDA*%
%TO.N,SDA*%
X171300000Y-95100000D03*
%TO.P,U4,14,SCL*%
%TO.N,SCL*%
X171300000Y-94600000D03*
%TO.P,U4,15,SHPHLD*%
%TO.N,Net-(U4-SHPHLD)*%
X171300000Y-94100000D03*
%TO.P,U4,16,VSET2*%
%TO.N,Net-(U4-VSET2)*%
X171300000Y-93600000D03*
D44*
%TO.P,U4,17,VSET1*%
%TO.N,AVSS*%
X170600000Y-92900000D03*
%TO.P,U4,18,NTC*%
%TO.N,Net-(U4-NTC)*%
X170100000Y-92900000D03*
%TO.P,U4,19,VBAT*%
%TO.N,Net-(BT1-+)*%
X169600000Y-92900000D03*
%TO.P,U4,20,VSYS*%
%TO.N,VSYS*%
X169100000Y-92900000D03*
%TO.P,U4,21,VBUS*%
%TO.N,+5V_USB*%
X168600000Y-92900000D03*
%TO.P,U4,22,VBUSOUT*%
%TO.N,Net-(U4-VBUSOUT)*%
X168100000Y-92900000D03*
%TO.P,U4,23,CC1*%
%TO.N,Net-(J3-Pin_4)*%
X167600000Y-92900000D03*
%TO.P,U4,24,CC2*%
%TO.N,Net-(J3-Pin_8)*%
X167100000Y-92900000D03*
D45*
%TO.P,U4,25,LED0*%
%TO.N,unconnected-(U4-LED0-Pad25)*%
X166400000Y-93600000D03*
%TO.P,U4,26,LED1*%
%TO.N,unconnected-(U4-LED1-Pad26)*%
X166400000Y-94100000D03*
%TO.P,U4,27,LED2*%
%TO.N,unconnected-(U4-LED2-Pad27)*%
X166400000Y-94600000D03*
%TO.P,U4,28,LSIN1/VINLDO1*%
%TO.N,AVSS*%
X166400000Y-95100000D03*
%TO.P,U4,29,LSOUT1/VOUTLDO1*%
X166400000Y-95600000D03*
%TO.P,U4,30,LSIN2/VINLDO2*%
%TO.N,+3V3*%
X166400000Y-96100000D03*
%TO.P,U4,31,LSOUT2/VOUTLDO2*%
%TO.N,Net-(U4-LSOUT2{slash}VOUTLDO2)*%
X166400000Y-96600000D03*
%TO.P,U4,32,VOUT2*%
%TO.N,+3V3*%
X166400000Y-97100000D03*
D46*
%TO.P,U4,33,AVSS*%
%TO.N,AVSS*%
X167850000Y-96350000D03*
X168850000Y-96350000D03*
X169850000Y-96350000D03*
X167850000Y-95350000D03*
X168850000Y-95350000D03*
D47*
X168850000Y-95350000D03*
D46*
X169850000Y-95350000D03*
X167850000Y-94350000D03*
X168850000Y-94350000D03*
X169850000Y-94350000D03*
%TD*%
D22*
%TO.P,C21,1*%
%TO.N,Net-(U4-LSOUT2{slash}VOUTLDO2)*%
X164300000Y-96600000D03*
%TO.P,C21,2*%
%TO.N,AVSS*%
X164300000Y-95640000D03*
%TD*%
D20*
%TO.P,R2,1*%
%TO.N,Net-(U1-IN2P)*%
X120520000Y-102200000D03*
%TO.P,R2,2*%
%TO.N,Net-(D4-D1-)*%
X119500000Y-102200000D03*
%TD*%
D48*
%TO.P,U1,1,IN8N*%
%TO.N,AVDD*%
X123321500Y-96499999D03*
%TO.P,U1,2,IN8P*%
X123321500Y-96999998D03*
%TO.P,U1,3,IN7N*%
X123321500Y-97499999D03*
%TO.P,U1,4,IN7P*%
X123321500Y-97999998D03*
%TO.P,U1,5,IN6N*%
X123321500Y-98500000D03*
%TO.P,U1,6,IN6P*%
X123321500Y-98999999D03*
%TO.P,U1,7,IN5N*%
X123321500Y-99499998D03*
%TO.P,U1,8,IN5P*%
X123321500Y-99999999D03*
%TO.P,U1,9,IN4N*%
X123321500Y-100499999D03*
%TO.P,U1,10,IN4P*%
X123321500Y-101000000D03*
%TO.P,U1,11,IN3N*%
X123321500Y-101499999D03*
%TO.P,U1,12,IN3P*%
X123321500Y-101999998D03*
%TO.P,U1,13,IN2N*%
%TO.N,Net-(U1-IN2N)*%
X123321500Y-102500000D03*
%TO.P,U1,14,IN2P*%
%TO.N,Net-(U1-IN2P)*%
X123321500Y-102999999D03*
%TO.P,U1,15,IN1N*%
%TO.N,Net-(U1-IN1N)*%
X123321500Y-103500000D03*
%TO.P,U1,16,IN1P*%
%TO.N,Net-(U1-IN1P)*%
X123321500Y-103999999D03*
D49*
%TO.P,U1,17,SRB1*%
%TO.N,AVDD*%
X125350000Y-106028499D03*
%TO.P,U1,18,SRB2*%
X125849999Y-106028499D03*
%TO.P,U1,19,AVDD*%
X126350000Y-106028499D03*
%TO.P,U1,20,AVSS*%
%TO.N,AVSS*%
X126849999Y-106028499D03*
%TO.P,U1,21,AVDD*%
%TO.N,AVDD*%
X127350001Y-106028499D03*
%TO.P,U1,22,AVDD*%
X127850000Y-106028499D03*
%TO.P,U1,23,AVSS*%
%TO.N,AVSS*%
X128349999Y-106028499D03*
%TO.P,U1,24,VREFP*%
%TO.N,Net-(U1-VREFP)*%
X128850000Y-106028499D03*
%TO.P,U1,25,VREFN*%
%TO.N,Net-(U1-VREFN)*%
X129350000Y-106028499D03*
%TO.P,U1,26,VCAP4*%
%TO.N,Net-(U1-VCAP4)*%
X129850001Y-106028499D03*
%TO.P,U1,27,NC*%
%TO.N,unconnected-(U1-NC-Pad27)*%
X130350000Y-106028499D03*
%TO.P,U1,28,VCAP1*%
%TO.N,Net-(U1-VCAP1)*%
X130849999Y-106028499D03*
%TO.P,U1,29,NC*%
%TO.N,unconnected-(U1-NC-Pad29)*%
X131350001Y-106028499D03*
%TO.P,U1,30,VCAP2*%
%TO.N,Net-(U1-VCAP2)*%
X131850000Y-106028499D03*
%TO.P,U1,31,RESV1*%
%TO.N,AVSS*%
X132350001Y-106028499D03*
%TO.P,U1,32,AVSS*%
X132850000Y-106028499D03*
D48*
%TO.P,U1,33,DGND*%
X134878500Y-103999999D03*
%TO.P,U1,34,DIN*%
%TO.N,MOSI*%
X134878500Y-103500000D03*
%TO.P,U1,35,\u002APWDN*%
%TO.N,PWDWN_ADS1299*%
X134878500Y-102999999D03*
%TO.P,U1,36,\u002ARESET*%
%TO.N,RST_ADS1299*%
X134878500Y-102500000D03*
%TO.P,U1,37,CLK*%
%TO.N,unconnected-(U1-CLK-Pad37)*%
X134878500Y-101999998D03*
%TO.P,U1,38,START*%
%TO.N,START_ADS1299*%
X134878500Y-101499999D03*
%TO.P,U1,39,\u002ACS*%
%TO.N,CS_ADS1299*%
X134878500Y-101000000D03*
%TO.P,U1,40,SCLK*%
%TO.N,SCK*%
X134878500Y-100499999D03*
%TO.P,U1,41,DAISY_IN*%
%TO.N,unconnected-(U1-DAISY_IN-Pad41)*%
X134878500Y-99999999D03*
%TO.P,U1,42,GPIO1*%
%TO.N,Net-(U1-GPIO1)*%
X134878500Y-99499998D03*
%TO.P,U1,43,DOUT*%
%TO.N,MISO*%
X134878500Y-98999999D03*
%TO.P,U1,44,GPIO2*%
%TO.N,Net-(U1-GPIO2)*%
X134878500Y-98500000D03*
%TO.P,U1,45,GPIO3*%
%TO.N,Net-(U1-GPIO3)*%
X134878500Y-97999998D03*
%TO.P,U1,46,GPIO4*%
%TO.N,Net-(U1-GPIO4)*%
X134878500Y-97499999D03*
%TO.P,U1,47,\u002ADRDY*%
%TO.N,DRDY*%
X134878500Y-96999998D03*
%TO.P,U1,48,DVDD*%
%TO.N,+3V3*%
X134878500Y-96499999D03*
D49*
%TO.P,U1,49,DGND*%
%TO.N,AVSS*%
X132850000Y-94471499D03*
%TO.P,U1,50,DVDD*%
%TO.N,+3V3*%
X132350001Y-94471499D03*
%TO.P,U1,51,DGND*%
%TO.N,AVSS*%
X131850000Y-94471499D03*
%TO.P,U1,52,CLKSEL*%
%TO.N,+3V3*%
X131350001Y-94471499D03*
%TO.P,U1,53,AVSS1*%
%TO.N,AVSS*%
X130849999Y-94471499D03*
%TO.P,U1,54,AVDD1*%
%TO.N,AVDD*%
X130350000Y-94471499D03*
%TO.P,U1,55,VCAP3*%
%TO.N,Net-(U1-VCAP3)*%
X129850001Y-94471499D03*
%TO.P,U1,56,AVDD*%
%TO.N,AVDD*%
X129350000Y-94471499D03*
%TO.P,U1,57,AVSS*%
%TO.N,AVSS*%
X128850000Y-94471499D03*
%TO.P,U1,58,AVSS*%
X128349999Y-94471499D03*
%TO.P,U1,59,AVDD*%
%TO.N,AVDD*%
X127850000Y-94471499D03*
%TO.P,U1,60,BIASREF*%
%TO.N,unconnected-(U1-BIASREF-Pad60)*%
X127350001Y-94471499D03*
%TO.P,U1,61,BIASINV*%
%TO.N,Net-(U1-BIASINV)*%
X126849999Y-94471499D03*
%TO.P,U1,62,BIASIN*%
%TO.N,Net-(U1-BIASIN)*%
X126350000Y-94471499D03*
%TO.P,U1,63,BIASOUT*%
X125849999Y-94471499D03*
%TO.P,U1,64,RESERVED*%
%TO.N,unconnected-(U1-RESERVED-Pad64)*%
X125350000Y-94471499D03*
%TD*%
D21*
%TO.P,C12,1*%
%TO.N,Net-(U1-VCAP4)*%
X131350000Y-109790000D03*
%TO.P,C12,2*%
%TO.N,AVSS*%
X131350000Y-110750000D03*
%TD*%
D20*
%TO.P,R20,1*%
%TO.N,+3V3*%
X174210000Y-95200000D03*
%TO.P,R20,2*%
%TO.N,SDA*%
X173190000Y-95200000D03*
%TD*%
%TO.P,R19,1*%
%TO.N,+3V3*%
X174200000Y-94135000D03*
%TO.P,R19,2*%
%TO.N,SCL*%
X173180000Y-94135000D03*
%TD*%
D21*
%TO.P,C5,1*%
%TO.N,AVDD*%
X125000000Y-109000000D03*
%TO.P,C5,2*%
%TO.N,AVSS*%
X125000000Y-109960000D03*
%TD*%
D50*
%TO.N,AVSS*%
X120000000Y-103200000D03*
X146000000Y-93000000D03*
X126750000Y-113750000D03*
X157763903Y-86500000D03*
X179300000Y-103300000D03*
X148600000Y-107100000D03*
X175020000Y-85875000D03*
X160350000Y-113750000D03*
X164900000Y-86000000D03*
X134500000Y-106000000D03*
X125900000Y-110600000D03*
X167100000Y-90100000D03*
X161500000Y-107320000D03*
X145432500Y-114200000D03*
X163650000Y-99000000D03*
X116500000Y-97000000D03*
X170810122Y-100310122D03*
X112287501Y-103050000D03*
X181500000Y-96260000D03*
X139160000Y-91960000D03*
X140800000Y-95500000D03*
%TO.N,Net-(BT1-+)*%
X171741396Y-90500000D03*
%TO.N,AVDD*%
X124100000Y-99200000D03*
X124250000Y-111250000D03*
X182920000Y-92268530D03*
X127540000Y-90540000D03*
X128500000Y-112800000D03*
X187500000Y-96750000D03*
X130581834Y-92948869D03*
X129000000Y-93000000D03*
%TO.N,+3V3*%
X139500000Y-93000000D03*
X136000000Y-106000000D03*
X176750000Y-107000000D03*
X165200000Y-96031000D03*
X171300000Y-113500000D03*
X165365686Y-98134314D03*
X171300000Y-107000000D03*
X162000000Y-111730000D03*
%TO.N,+5V3*%
X178515000Y-100600000D03*
X178090000Y-92410000D03*
%TO.N,INT_BNO085*%
X152809620Y-111390380D03*
X145000000Y-111000000D03*
%TO.N,BOOT_BNO085*%
X152500000Y-114000000D03*
X144000000Y-103330000D03*
%TO.N,PWDWN_ADS1299*%
X132000000Y-103500000D03*
%TO.N,RST_BNO085*%
X151800000Y-111400000D03*
%TO.N,START_ADS1299*%
X130850000Y-99600000D03*
%TO.N,RST_ADS1299*%
X130990380Y-101509620D03*
%TO.N,MISO*%
X149600000Y-109700000D03*
X154550000Y-108550000D03*
X138000000Y-99500000D03*
X153100000Y-100900000D03*
%TO.N,MOSI*%
X146500000Y-103980000D03*
X150985000Y-103470000D03*
%TO.N,SCL*%
X155350000Y-98350000D03*
X174708733Y-93335000D03*
%TO.N,SDA*%
X174000000Y-96500000D03*
X150500000Y-105000000D03*
X175600000Y-109213493D03*
%TO.N,SCK*%
X153500000Y-108500000D03*
X151883812Y-102683812D03*
X151420000Y-108800000D03*
X132950000Y-99500000D03*
X141500000Y-101500000D03*
%TO.N,CS_ADS1299*%
X133460186Y-100780431D03*
%TO.N,DRDY*%
X142920000Y-106050000D03*
X143000000Y-100500000D03*
X143000000Y-94000000D03*
%TO.N,GPIO0*%
X151400000Y-107700000D03*
X171600000Y-117600000D03*
%TO.N,VSYS*%
X164800000Y-94200000D03*
X164800000Y-92720000D03*
X166565686Y-100434314D03*
X169500000Y-91000000D03*
%TO.N,GPIO2*%
X172100000Y-98200000D03*
X155300000Y-95600000D03*
%TO.N,GPIO4*%
X170000000Y-111500000D03*
X173600000Y-111500000D03*
%TO.N,Net-(U4-SHPHLD)*%
X179125339Y-90036533D03*
%TD*%
D51*
%TO.N,AVSS*%
X175020000Y-87500000D02*
X175020000Y-85875000D01*
X164900000Y-87490000D02*
X164900000Y-86000000D01*
D52*
X150888500Y-116301000D02*
X146233500Y-116301000D01*
X167600000Y-99700000D02*
X168060000Y-100160000D01*
X128349999Y-109150001D02*
X128349999Y-106028499D01*
X126849999Y-105113701D02*
X126909301Y-105054399D01*
D51*
X184740000Y-92900000D02*
X186750000Y-92900000D01*
X147539000Y-95941000D02*
X147260000Y-96220000D01*
D52*
X172250000Y-92270000D02*
X173220000Y-91300000D01*
D51*
X181440000Y-96260000D02*
X180280000Y-97420000D01*
D52*
X126909301Y-105054399D02*
X128290700Y-105054399D01*
D51*
X184720000Y-96130000D02*
X184720000Y-96140000D01*
X184600000Y-96260000D02*
X181500000Y-96260000D01*
X136600000Y-94520000D02*
X139160000Y-91960000D01*
D52*
X151500000Y-115689500D02*
X151500000Y-115125000D01*
D51*
X156662500Y-113020000D02*
X160330000Y-113020000D01*
X180700000Y-88100000D02*
X180100000Y-87500000D01*
X173220000Y-91300000D02*
X173220000Y-91288660D01*
X184700000Y-97700000D02*
X185500000Y-98500000D01*
X160330000Y-113020000D02*
X160350000Y-113000000D01*
D52*
X114640941Y-103200000D02*
X114628442Y-103187501D01*
D51*
X163650000Y-98682376D02*
X163700000Y-98632376D01*
X187059999Y-92900000D02*
X186750000Y-92900000D01*
X140620000Y-99500000D02*
X140620000Y-96530000D01*
X178500000Y-104675000D02*
X178550000Y-104725000D01*
D52*
X112287501Y-103150000D02*
X112287501Y-103050000D01*
D51*
X134950000Y-110800000D02*
X135000000Y-110750000D01*
D52*
X167600000Y-97800000D02*
X167600000Y-99700000D01*
X125949024Y-109960000D02*
X125000000Y-109960000D01*
D51*
X156015000Y-87549504D02*
X156015000Y-87750000D01*
D52*
X127750000Y-110730000D02*
X127750000Y-109750000D01*
D51*
X156585504Y-86979000D02*
X156015000Y-87549504D01*
X157763903Y-86500000D02*
X157763903Y-86599593D01*
D52*
X131850000Y-94471499D02*
X131850000Y-93150000D01*
D51*
X155459000Y-93360000D02*
X155459000Y-94528999D01*
X181500000Y-111550000D02*
X183550000Y-111550000D01*
X148091000Y-94849604D02*
X148091000Y-95610396D01*
X140600000Y-96510000D02*
X140620000Y-96530000D01*
X160350000Y-113750000D02*
X160350000Y-114270000D01*
X179050000Y-91090001D02*
X179050000Y-91400000D01*
D52*
X131567100Y-93000000D02*
X132000000Y-93000000D01*
X167100000Y-90100000D02*
X168020000Y-90100000D01*
D51*
X145432500Y-114200000D02*
X145432500Y-115500000D01*
X160500000Y-106547000D02*
X160450000Y-106497000D01*
X188981000Y-94821001D02*
X187059999Y-92900000D01*
X129500000Y-112000000D02*
X130750000Y-110750000D01*
X140600000Y-95700000D02*
X140600000Y-96510000D01*
D52*
X182800000Y-93900000D02*
X180650000Y-93900000D01*
D51*
X140600000Y-99520000D02*
X140620000Y-99500000D01*
X148091000Y-95610396D02*
X147760396Y-95941000D01*
X156670000Y-110900000D02*
X156670000Y-113012500D01*
X134000000Y-94200000D02*
X134271499Y-94471499D01*
X147760396Y-94519000D02*
X148091000Y-94849604D01*
X155459000Y-94528999D02*
X155890001Y-94960000D01*
X180650000Y-93000000D02*
X180650000Y-93900000D01*
D52*
X133728501Y-94471499D02*
X132850000Y-94471499D01*
D51*
X157384496Y-86979000D02*
X156585504Y-86979000D01*
D52*
X170800000Y-99426331D02*
X170800000Y-100300000D01*
X126980000Y-111500000D02*
X127750000Y-110730000D01*
D51*
X180650000Y-93900000D02*
X180700000Y-93850000D01*
X132000000Y-93000000D02*
X131662075Y-93000000D01*
X181500000Y-96260000D02*
X181440000Y-96260000D01*
D53*
X125260000Y-109960000D02*
X125000000Y-109960000D01*
D51*
X188303791Y-98480000D02*
X188981000Y-97802791D01*
D52*
X134878500Y-103999999D02*
X134878500Y-105621500D01*
X132350001Y-105113700D02*
X132350001Y-106028499D01*
X167600000Y-96600000D02*
X167850000Y-96350000D01*
D51*
X131350000Y-110750000D02*
X131400000Y-110800000D01*
X178500000Y-103225000D02*
X178500000Y-104675000D01*
D52*
X173551000Y-90769654D02*
X173551000Y-90140673D01*
X173451000Y-91069000D02*
X173451000Y-90869654D01*
X112325002Y-103187501D02*
X112287501Y-103150000D01*
D51*
X129460000Y-112000000D02*
X129460000Y-113480000D01*
X178575000Y-103300000D02*
X178500000Y-103225000D01*
X178550000Y-105650000D02*
X178550000Y-104725000D01*
X164138604Y-95640000D02*
X163559000Y-96219604D01*
D52*
X128349999Y-94471499D02*
X128349999Y-91650001D01*
D51*
X164784000Y-95156000D02*
X165200000Y-95156000D01*
X181550000Y-111500000D02*
X181500000Y-111550000D01*
X177671000Y-90639000D02*
X178598999Y-90639000D01*
D52*
X134000000Y-94200000D02*
X133728501Y-94471499D01*
D51*
X132000000Y-93000000D02*
X134000000Y-93000000D01*
D52*
X171319000Y-89801000D02*
X171080000Y-90040000D01*
D51*
X134000000Y-92000000D02*
X134000000Y-93000000D01*
X178313500Y-105886500D02*
X178550000Y-105650000D01*
X188981000Y-97802791D02*
X188981000Y-94821001D01*
D52*
X126849999Y-106028499D02*
X126849999Y-105113701D01*
D53*
X126750000Y-113750000D02*
X127654736Y-114654736D01*
D52*
X149187500Y-111875000D02*
X146557500Y-111875000D01*
D51*
X163559000Y-97439000D02*
X163720000Y-97600000D01*
D52*
X171080000Y-90040000D02*
X170500000Y-90040000D01*
D51*
X180650000Y-93900000D02*
X181440000Y-94690000D01*
D53*
X126500000Y-112007046D02*
X126636000Y-111871046D01*
D52*
X173211327Y-89801000D02*
X171319000Y-89801000D01*
D51*
X146000000Y-93000000D02*
X155099000Y-93000000D01*
D53*
X128545264Y-114654736D02*
X129480000Y-113720000D01*
X127654736Y-114654736D02*
X128545264Y-114654736D01*
D51*
X146000000Y-93000000D02*
X146234841Y-93000000D01*
X184700000Y-96160000D02*
X184700000Y-97700000D01*
X147260000Y-96220000D02*
X147260000Y-97200000D01*
D52*
X173451000Y-90869654D02*
X173551000Y-90769654D01*
D51*
X166156000Y-95156000D02*
X166400000Y-95400000D01*
D52*
X170439798Y-96324000D02*
X170424000Y-96324000D01*
D51*
X158515000Y-87750000D02*
X158515000Y-87251097D01*
D52*
X170600000Y-93600000D02*
X169850000Y-94350000D01*
X170600000Y-92900000D02*
X170600000Y-93600000D01*
D51*
X130750000Y-110750000D02*
X131350000Y-110750000D01*
X178700000Y-108660000D02*
X178700000Y-109500000D01*
X131400000Y-110800000D02*
X133200000Y-110800000D01*
X129460000Y-113480000D02*
X129480000Y-113500000D01*
D52*
X130849999Y-93717101D02*
X131567100Y-93000000D01*
X146233500Y-116301000D02*
X145432500Y-115500000D01*
D51*
X176500000Y-108500000D02*
X178540000Y-108500000D01*
X133200000Y-110800000D02*
X134950000Y-110800000D01*
X178700000Y-109500000D02*
X178800000Y-109600000D01*
X140600000Y-100920000D02*
X140600000Y-99520000D01*
X180700000Y-93850000D02*
X180700000Y-88100000D01*
D52*
X168020000Y-90100000D02*
X168100000Y-90020000D01*
X172250000Y-92440340D02*
X172250000Y-92270000D01*
X170424000Y-96324000D02*
X170350000Y-96250000D01*
D51*
X175500000Y-106520000D02*
X175819999Y-106520000D01*
X175500000Y-107500000D02*
X176500000Y-108500000D01*
X185500000Y-98500000D02*
X186420001Y-98500000D01*
X165200000Y-95156000D02*
X166156000Y-95156000D01*
X133200000Y-110800000D02*
X133200000Y-112675000D01*
X184750000Y-96110000D02*
X184700000Y-96160000D01*
D53*
X126500000Y-113500000D02*
X126500000Y-112007046D01*
D51*
X163650000Y-99000000D02*
X163650000Y-98682376D01*
X147780000Y-97200000D02*
X148830000Y-98250000D01*
D52*
X128290700Y-105054399D02*
X132290700Y-105054399D01*
D51*
X184700000Y-92860000D02*
X184740000Y-92900000D01*
D52*
X146557500Y-111875000D02*
X145432500Y-113000000D01*
X120000000Y-103200000D02*
X114640941Y-103200000D01*
X126849999Y-106028499D02*
X126849999Y-109059025D01*
D51*
X160437344Y-106509656D02*
X160450000Y-106497000D01*
X133040000Y-91040000D02*
X134000000Y-92000000D01*
X178800000Y-109600000D02*
X179550000Y-109600000D01*
D52*
X182800000Y-93900000D02*
X182041176Y-93900000D01*
X128349999Y-91650001D02*
X128500000Y-91500000D01*
X136551499Y-94471499D02*
X136600000Y-94520000D01*
X127750000Y-109750000D02*
X128349999Y-109150001D01*
D51*
X147760396Y-95941000D02*
X147539000Y-95941000D01*
X157450000Y-96210000D02*
X157450000Y-97500000D01*
X176920000Y-91390000D02*
X177671000Y-90639000D01*
X129460000Y-112000000D02*
X129500000Y-112000000D01*
X155890001Y-94960000D02*
X156200000Y-94960000D01*
D52*
X169600000Y-96600000D02*
X169850000Y-96350000D01*
D51*
X160350000Y-113000000D02*
X160350000Y-113750000D01*
D52*
X131850000Y-93150000D02*
X132000000Y-93000000D01*
D51*
X175819999Y-106520000D02*
X176453499Y-105886500D01*
D52*
X132350001Y-106028499D02*
X132850000Y-106028499D01*
D51*
X163700000Y-98632376D02*
X163700000Y-97620000D01*
D52*
X167600000Y-97800000D02*
X167600000Y-96600000D01*
X153812500Y-113062500D02*
X150687500Y-113062500D01*
D51*
X164300000Y-95640000D02*
X164138604Y-95640000D01*
D52*
X126880000Y-106058500D02*
X126849999Y-106028499D01*
D51*
X158515000Y-87251097D02*
X157763903Y-86500000D01*
D52*
X157300000Y-97614222D02*
X157300000Y-97350000D01*
X149500000Y-113000000D02*
X149500000Y-112187500D01*
D51*
X157763903Y-86599593D02*
X157384496Y-86979000D01*
D52*
X128290700Y-105054399D02*
X128349999Y-105113698D01*
D51*
X160650000Y-113000000D02*
X160350000Y-113000000D01*
X178598999Y-90639000D02*
X179050000Y-91090001D01*
D52*
X151500000Y-115689500D02*
X150888500Y-116301000D01*
X128349999Y-105113698D02*
X128349999Y-106028499D01*
D51*
X176453499Y-105886500D02*
X178313500Y-105886500D01*
X175500000Y-106520000D02*
X175500000Y-107500000D01*
X179300000Y-103300000D02*
X178575000Y-103300000D01*
D52*
X149562500Y-113062500D02*
X150687500Y-113062500D01*
X126849999Y-109059025D02*
X125949024Y-109960000D01*
D51*
X140520000Y-101000000D02*
X140600000Y-100920000D01*
X140800000Y-95500000D02*
X140600000Y-95700000D01*
X163700000Y-97620000D02*
X163720000Y-97600000D01*
X160727000Y-106547000D02*
X160500000Y-106547000D01*
X131850000Y-91040000D02*
X133040000Y-91040000D01*
D53*
X125900000Y-110600000D02*
X125260000Y-109960000D01*
D51*
X180280000Y-97420000D02*
X180100000Y-97420000D01*
X147260000Y-97200000D02*
X147780000Y-97200000D01*
D52*
X173220000Y-91300000D02*
X173451000Y-91069000D01*
D51*
X186750000Y-98480000D02*
X188303791Y-98480000D01*
D52*
X171059660Y-92440340D02*
X170600000Y-92900000D01*
D51*
X179550000Y-109600000D02*
X181500000Y-111550000D01*
X155099000Y-93000000D02*
X155459000Y-93360000D01*
D53*
X126636000Y-111844000D02*
X126980000Y-111500000D01*
D51*
X149200000Y-106500000D02*
X149200000Y-106497000D01*
X128960000Y-91040000D02*
X128500000Y-91500000D01*
X146234841Y-93000000D02*
X147753841Y-94519000D01*
D52*
X149500000Y-113000000D02*
X149562500Y-113062500D01*
D51*
X164300000Y-95640000D02*
X164784000Y-95156000D01*
X161500000Y-107320000D02*
X160727000Y-106547000D01*
D52*
X156620000Y-113062500D02*
X156662500Y-113020000D01*
X114628442Y-103187501D02*
X112325002Y-103187501D01*
D51*
X115605000Y-97000000D02*
X115525000Y-97080000D01*
X183550000Y-111550000D02*
X184600000Y-112600000D01*
D52*
X132290700Y-105054399D02*
X132350001Y-105113700D01*
D53*
X129480000Y-113720000D02*
X129480000Y-113500000D01*
D51*
X186420001Y-98500000D02*
X186440001Y-98480000D01*
D52*
X173551000Y-90140673D02*
X173211327Y-89801000D01*
X168060000Y-100160000D02*
X168300000Y-100160000D01*
D51*
X134271499Y-94471499D02*
X136551499Y-94471499D01*
D53*
X126636000Y-111871046D02*
X126636000Y-111844000D01*
D51*
X148830000Y-98250000D02*
X149150000Y-98250000D01*
X181440000Y-94690000D02*
X181440000Y-96260000D01*
X163559000Y-96219604D02*
X163559000Y-97439000D01*
D52*
X130849999Y-94471499D02*
X130849999Y-93717101D01*
D51*
X148600000Y-107100000D02*
X149200000Y-106500000D01*
D53*
X126750000Y-113750000D02*
X126500000Y-113500000D01*
D52*
X134471501Y-106028499D02*
X132850000Y-106028499D01*
D51*
X131850000Y-91040000D02*
X129880000Y-91040000D01*
D52*
X169600000Y-97800000D02*
X169600000Y-98226331D01*
X134878500Y-105621500D02*
X134471501Y-106028499D01*
D51*
X147753841Y-94519000D02*
X147760396Y-94519000D01*
X184700000Y-96110000D02*
X184720000Y-96130000D01*
X178540000Y-108500000D02*
X178700000Y-108660000D01*
D52*
X169600000Y-98226331D02*
X170800000Y-99426331D01*
D51*
X129880000Y-91040000D02*
X128960000Y-91040000D01*
X131662075Y-93000000D02*
X131614587Y-93047488D01*
X179050000Y-91400000D02*
X180650000Y-93000000D01*
X145432500Y-113000000D02*
X145432500Y-114200000D01*
D52*
X172250000Y-92440340D02*
X171059660Y-92440340D01*
D51*
X178550000Y-108490000D02*
X178540000Y-108500000D01*
X184750000Y-96110000D02*
X184600000Y-96260000D01*
X156670000Y-113012500D02*
X156662500Y-113020000D01*
D52*
X128349999Y-94471499D02*
X128850000Y-94471499D01*
D51*
X134000000Y-93000000D02*
X134000000Y-94200000D01*
D52*
X149500000Y-112187500D02*
X149187500Y-111875000D01*
D51*
X156200000Y-94960000D02*
X157450000Y-96210000D01*
X116500000Y-97000000D02*
X115605000Y-97000000D01*
D52*
%TO.N,Net-(BT1-+)*%
X170400184Y-91561000D02*
X170939000Y-91561000D01*
X169600000Y-92900000D02*
X169600000Y-92361184D01*
X171500000Y-91000000D02*
X171500000Y-90741396D01*
X171500000Y-90741396D02*
X171741396Y-90500000D01*
D51*
X181510000Y-113560000D02*
X179500000Y-111550000D01*
D52*
X170939000Y-91561000D02*
X171500000Y-91000000D01*
D51*
X184600000Y-113560000D02*
X181510000Y-113560000D01*
D52*
X169600000Y-92361184D02*
X170400184Y-91561000D01*
D51*
%TO.N,AVDD*%
X123321500Y-99200000D02*
X123321500Y-101909300D01*
D53*
X126250000Y-109000000D02*
X126250000Y-106128499D01*
X124500000Y-111500000D02*
X126020000Y-111500000D01*
D51*
X123321500Y-96499999D02*
X123321500Y-99200000D01*
D52*
X127540000Y-90540000D02*
X127500000Y-90500000D01*
X130581834Y-93418166D02*
X130350000Y-93650000D01*
X127850000Y-106028499D02*
X127850000Y-107350000D01*
X126514000Y-111006000D02*
X126020000Y-111500000D01*
X130350000Y-93650000D02*
X130350000Y-94471499D01*
X130581834Y-92948869D02*
X130581834Y-93418166D01*
D51*
X124100000Y-99200000D02*
X123321500Y-99200000D01*
D52*
X127369000Y-107831000D02*
X127369000Y-110151000D01*
X129350000Y-93350000D02*
X129000000Y-93000000D01*
X126786976Y-110724001D02*
X126514000Y-110996977D01*
X127369000Y-110151000D02*
X126795999Y-110724001D01*
D51*
X127540000Y-90540000D02*
X127540000Y-91500000D01*
D53*
X124000000Y-111000000D02*
X124250000Y-111250000D01*
D52*
X127850000Y-107350000D02*
X127369000Y-107831000D01*
X123321500Y-96499999D02*
X123321500Y-96500000D01*
X123321500Y-99978500D02*
X123321500Y-101499999D01*
D53*
X124300000Y-109100000D02*
X124000000Y-109400000D01*
X124250000Y-111250000D02*
X124500000Y-111500000D01*
X125000000Y-109000000D02*
X124900000Y-109100000D01*
D51*
X186750000Y-96750000D02*
X186750000Y-97520000D01*
D53*
X126250000Y-106128499D02*
X126344299Y-106034200D01*
D51*
X182901000Y-93299000D02*
X182920000Y-93299000D01*
X125350000Y-106028499D02*
X125330137Y-106028499D01*
D52*
X126514000Y-110996977D02*
X126514000Y-111006000D01*
D51*
X125350000Y-106028499D02*
X126259299Y-106028499D01*
X128500000Y-113480000D02*
X128520000Y-113500000D01*
X187500000Y-96750000D02*
X186750000Y-96750000D01*
X127540000Y-90540000D02*
X125000000Y-88000000D01*
D53*
X124900000Y-109100000D02*
X124300000Y-109100000D01*
D51*
X128500000Y-112000000D02*
X128500000Y-112800000D01*
X127440699Y-106028499D02*
X127759299Y-106028499D01*
D52*
X127850000Y-91810000D02*
X127540000Y-91500000D01*
D51*
X186750000Y-97520000D02*
X186750000Y-96110000D01*
D53*
X126344299Y-106034200D02*
X126344299Y-106028499D01*
D51*
X128500000Y-112800000D02*
X128500000Y-113480000D01*
X182920000Y-93280000D02*
X182901000Y-93299000D01*
D53*
X125000000Y-109000000D02*
X126250000Y-109000000D01*
D52*
X127850000Y-94471499D02*
X127850000Y-91810000D01*
X126795999Y-110724001D02*
X126786976Y-110724001D01*
D51*
X182920000Y-92268530D02*
X182920000Y-93280000D01*
D52*
X127910000Y-94411499D02*
X127850000Y-94471499D01*
X129350000Y-94471499D02*
X129350000Y-93350000D01*
D53*
X124000000Y-109400000D02*
X124000000Y-111000000D01*
D52*
%TO.N,+3V3*%
X131409300Y-95445599D02*
X131350001Y-95386300D01*
D51*
X180700000Y-98700000D02*
X184000000Y-102000000D01*
X149219000Y-98931000D02*
X149150000Y-99000000D01*
X137020000Y-95480000D02*
X139500000Y-93000000D01*
X156652500Y-116625000D02*
X156662500Y-116635000D01*
D52*
X132350001Y-95386298D02*
X132290700Y-95445599D01*
D51*
X139500000Y-93000000D02*
X144810001Y-93000000D01*
D52*
X136600000Y-95480000D02*
X135898499Y-95480000D01*
D51*
X165500000Y-98400000D02*
X165365686Y-98265686D01*
X162130000Y-117462000D02*
X161981000Y-117611000D01*
X165365686Y-98134314D02*
X166288000Y-97212000D01*
D52*
X165269000Y-96100000D02*
X166400000Y-96100000D01*
D51*
X162130000Y-111860000D02*
X162130000Y-117462000D01*
D53*
X177600000Y-107000000D02*
X179500000Y-107000000D01*
D51*
X169500000Y-100472500D02*
X169500000Y-100600000D01*
X157508636Y-110017240D02*
X157508636Y-110100000D01*
X158490000Y-90510000D02*
X158490000Y-89500000D01*
X156700000Y-109350000D02*
X156841396Y-109350000D01*
X165365686Y-98134314D02*
X165334314Y-98134314D01*
X146300000Y-97500000D02*
X146300000Y-95900000D01*
D52*
X166100000Y-97100000D02*
X166400000Y-97100000D01*
D51*
X176750000Y-107000000D02*
X177600000Y-107000000D01*
X149431000Y-98931000D02*
X149219000Y-98931000D01*
X146970000Y-95230000D02*
X147350000Y-95230000D01*
X145910001Y-91900000D02*
X144810001Y-93000000D01*
D52*
X152000000Y-115996319D02*
X152009714Y-116006033D01*
X132290700Y-95445599D02*
X131409300Y-95445599D01*
D51*
X147800000Y-99000000D02*
X146300000Y-97500000D01*
X157508636Y-110100000D02*
X159138636Y-111730000D01*
X149150000Y-99000000D02*
X147800000Y-99000000D01*
X175270000Y-94135000D02*
X175270000Y-95865000D01*
X164700000Y-97620000D02*
X164680000Y-97600000D01*
X159138636Y-111730000D02*
X160350000Y-111730000D01*
X179630000Y-108370000D02*
X179500000Y-108500000D01*
X184000000Y-106447734D02*
X182077734Y-108370000D01*
D52*
X131350001Y-95386300D02*
X131350001Y-94471499D01*
D51*
X176635000Y-98700000D02*
X180700000Y-98700000D01*
D52*
X133345100Y-96499999D02*
X134878500Y-96499999D01*
D51*
X169500000Y-100600000D02*
X168600000Y-101500000D01*
X165365686Y-98265686D02*
X165365686Y-98134314D01*
X160350000Y-111730000D02*
X162000000Y-111730000D01*
X175270000Y-95770000D02*
X175270000Y-97335000D01*
X168600000Y-101500000D02*
X166500000Y-101500000D01*
X152980000Y-117500000D02*
X138611000Y-117500000D01*
X166500000Y-101500000D02*
X165500000Y-100500000D01*
X157638500Y-117611000D02*
X156662500Y-116635000D01*
D52*
X171900000Y-95600000D02*
X173635000Y-97335000D01*
D51*
X155600000Y-91900000D02*
X145910001Y-91900000D01*
X184000000Y-102000000D02*
X184000000Y-106447734D01*
D52*
X151126000Y-114536500D02*
X151100000Y-114562500D01*
D51*
X156662500Y-116635000D02*
X155797500Y-117500000D01*
X162000000Y-111730000D02*
X162130000Y-111860000D01*
X155600000Y-91900000D02*
X157100000Y-91900000D01*
X164820000Y-97620000D02*
X164700000Y-97620000D01*
X175270000Y-97335000D02*
X176635000Y-98700000D01*
D52*
X171300000Y-95600000D02*
X171900000Y-95600000D01*
D51*
X182000000Y-108370000D02*
X179630000Y-108370000D01*
X182077734Y-108370000D02*
X182000000Y-108370000D01*
X152361033Y-116006033D02*
X152980000Y-116625000D01*
D52*
X132290700Y-95445599D02*
X133345100Y-96499999D01*
D51*
X152980000Y-116625000D02*
X152980000Y-117500000D01*
D52*
X158490000Y-89500000D02*
X158569660Y-89500000D01*
D51*
X174200000Y-94135000D02*
X174200000Y-95090000D01*
X157100000Y-91900000D02*
X158490000Y-90510000D01*
X179500000Y-107000000D02*
X179500000Y-108500000D01*
X171300000Y-104200000D02*
X171300000Y-107000000D01*
X171300000Y-107000000D02*
X171300000Y-113500000D01*
D52*
X151100000Y-114562500D02*
X150687500Y-114562500D01*
X135898499Y-95480000D02*
X134878500Y-96499999D01*
X151812500Y-114536500D02*
X152000000Y-114724000D01*
D51*
X161981000Y-117611000D02*
X157638500Y-117611000D01*
X152009714Y-116006033D02*
X152361033Y-116006033D01*
X174200000Y-94135000D02*
X175270000Y-94135000D01*
X168600000Y-101500000D02*
X171300000Y-104200000D01*
X175270000Y-94000000D02*
X176920000Y-92350000D01*
D52*
X165200000Y-96031000D02*
X165269000Y-96100000D01*
D51*
X166288000Y-97212000D02*
X166400000Y-97212000D01*
X174200000Y-95090000D02*
X174210000Y-95100000D01*
X165334314Y-98134314D02*
X164820000Y-97620000D01*
X155797500Y-117500000D02*
X152980000Y-117500000D01*
D52*
X132350001Y-94471499D02*
X132350001Y-95386298D01*
D51*
X136000000Y-114889000D02*
X136000000Y-106000000D01*
X165500000Y-100500000D02*
X165500000Y-98400000D01*
D52*
X152000000Y-114724000D02*
X152000000Y-115125000D01*
X151812500Y-114536500D02*
X151126000Y-114536500D01*
X173635000Y-97335000D02*
X175270000Y-97335000D01*
X152000000Y-115125000D02*
X152000000Y-115996319D01*
D51*
X156841396Y-109350000D02*
X157508636Y-110017240D01*
X136600000Y-95480000D02*
X137020000Y-95480000D01*
X138611000Y-117500000D02*
X136000000Y-114889000D01*
X146300000Y-95900000D02*
X146970000Y-95230000D01*
X147350000Y-95230000D02*
X147040001Y-95230000D01*
X147040001Y-95230000D02*
X144810001Y-93000000D01*
%TO.N,+5V3*%
X178500000Y-92900000D02*
X178500000Y-93600000D01*
X178500000Y-102265000D02*
X175755000Y-102265000D01*
X179065000Y-101700000D02*
X182000000Y-101700000D01*
X178090000Y-91400000D02*
X178090000Y-92410000D01*
X178450000Y-93650000D02*
X176920000Y-93650000D01*
X175755000Y-102265000D02*
X175500000Y-102520000D01*
D52*
X177170000Y-93900000D02*
X176920000Y-93650000D01*
D51*
X178515000Y-100600000D02*
X178515000Y-102250000D01*
X178515000Y-100600000D02*
X178500000Y-100615000D01*
X178090000Y-92410000D02*
X178090000Y-92490000D01*
X178515000Y-102250000D02*
X178500000Y-102265000D01*
X178500000Y-102265000D02*
X179065000Y-101700000D01*
X178500000Y-93600000D02*
X178450000Y-93650000D01*
X178090000Y-92490000D02*
X178500000Y-92900000D01*
X178500000Y-100615000D02*
X178500000Y-102265000D01*
X178500000Y-93600000D02*
X178500000Y-93819000D01*
D52*
%TO.N,+5V_USB*%
X168691000Y-92809000D02*
X168691000Y-90209000D01*
X168600000Y-92900000D02*
X168691000Y-92809000D01*
D51*
X175760000Y-89300000D02*
X177560000Y-87500000D01*
D52*
X168691000Y-90209000D02*
X169600000Y-89300000D01*
D51*
X169600000Y-89300000D02*
X175760000Y-89300000D01*
D52*
%TO.N,/XIN*%
X148937500Y-114062500D02*
X148162500Y-114837500D01*
X146392500Y-115500000D02*
X147787500Y-115500000D01*
X150687500Y-114062500D02*
X148937500Y-114062500D01*
X147787500Y-115500000D02*
X148162500Y-115125000D01*
X148162500Y-114837500D02*
X148162500Y-115500000D01*
X148162500Y-115500000D02*
X148331250Y-115500000D01*
%TO.N,/XOUT*%
X146392500Y-113000000D02*
X148162500Y-113000000D01*
X148162500Y-113000000D02*
X148725000Y-113562500D01*
X148725000Y-113562500D02*
X150687500Y-113562500D01*
%TO.N,/CAP*%
X156245000Y-113562500D02*
X156662500Y-113980000D01*
X153812500Y-113562500D02*
X156245000Y-113562500D01*
%TO.N,Net-(D1-A)*%
X157000000Y-87765000D02*
X156985000Y-87750000D01*
X157000000Y-89500000D02*
X157000000Y-87765000D01*
%TO.N,SWDIO*%
X156700000Y-106497000D02*
X156700000Y-107519000D01*
X158593000Y-109412000D02*
X163512000Y-109412000D01*
X164250000Y-110150000D02*
X164250000Y-111730000D01*
X163547100Y-111730000D02*
X164250000Y-111730000D01*
X163512000Y-109412000D02*
X164250000Y-110150000D01*
X163730000Y-111730000D02*
X164250000Y-111730000D01*
X156700000Y-107519000D02*
X158593000Y-109412000D01*
%TO.N,SWDCLK*%
X163420000Y-113000000D02*
X164250000Y-113000000D01*
X166100000Y-111400000D02*
X163731000Y-109031000D01*
X159031000Y-109031000D02*
X158229997Y-108229997D01*
X158229997Y-108229997D02*
X158208338Y-108229997D01*
X163731000Y-109031000D02*
X159031000Y-109031000D01*
X164000000Y-113250000D02*
X164000000Y-113270000D01*
X164250000Y-113000000D02*
X165080000Y-113000000D01*
X158208338Y-108229997D02*
X157450000Y-107471659D01*
X157450000Y-107471659D02*
X157450000Y-106497000D01*
X165080000Y-113000000D02*
X166100000Y-111980000D01*
X166100000Y-111980000D02*
X166100000Y-111400000D01*
%TO.N,RESET*%
X162769000Y-111469000D02*
X162769000Y-116159000D01*
X155740000Y-108200000D02*
X155740000Y-106497000D01*
X165080000Y-116810000D02*
X164250000Y-116810000D01*
X155740000Y-108200000D02*
X156462054Y-108200000D01*
X155740000Y-108200000D02*
X155700000Y-108240000D01*
X155700000Y-108240000D02*
X155700000Y-109000000D01*
X155710000Y-110900000D02*
X155710000Y-109860000D01*
X155700000Y-109850000D02*
X155700000Y-109000000D01*
X163420000Y-116810000D02*
X164250000Y-116810000D01*
X162769000Y-116159000D02*
X163420000Y-116810000D01*
X156462054Y-108200000D02*
X159341054Y-111079000D01*
X162379000Y-111079000D02*
X162769000Y-111469000D01*
X159341054Y-111079000D02*
X162379000Y-111079000D01*
X155710000Y-109860000D02*
X155700000Y-109850000D01*
X164310000Y-116750000D02*
X164250000Y-116810000D01*
X155950000Y-106497000D02*
X155950000Y-106350000D01*
%TO.N,INT_BNO085*%
X152809620Y-111390380D02*
X152842118Y-111390380D01*
X150619997Y-107800000D02*
X150619997Y-107780003D01*
X143500000Y-112500000D02*
X140500000Y-112500000D01*
X146900000Y-109100000D02*
X149319997Y-109100000D01*
X149319997Y-109100000D02*
X150619997Y-107800000D01*
X145000000Y-111000000D02*
X143500000Y-112500000D01*
X152842118Y-111390380D02*
X152932498Y-111300000D01*
X150619997Y-107780003D02*
X150700000Y-107700000D01*
X150700000Y-107700000D02*
X150700000Y-106497000D01*
X153037500Y-111300000D02*
X153275000Y-111062500D01*
X152932498Y-111300000D02*
X153037500Y-111300000D01*
X145000000Y-111000000D02*
X146900000Y-109100000D01*
X153275000Y-111062500D02*
X153812500Y-111062500D01*
%TO.N,BOOT_BNO085*%
X144000000Y-103330000D02*
X148980000Y-103330000D01*
X152500000Y-114000000D02*
X152500000Y-115125000D01*
X148980000Y-103330000D02*
X149150000Y-103500000D01*
%TO.N,PWDWN_ADS1299*%
X143250000Y-102500000D02*
X148900000Y-102500000D01*
X136999999Y-102999999D02*
X137500000Y-103500000D01*
X137500000Y-103500000D02*
X142250000Y-103500000D01*
X134878500Y-102999999D02*
X136999999Y-102999999D01*
X132000000Y-103500000D02*
X132500001Y-102999999D01*
X148900000Y-102500000D02*
X149150000Y-102750000D01*
X142250000Y-103500000D02*
X143250000Y-102500000D01*
X132500001Y-102999999D02*
X134878500Y-102999999D01*
%TO.N,RST_BNO085*%
X153000000Y-112500000D02*
X151900000Y-111400000D01*
X149950000Y-107750000D02*
X149200000Y-108500000D01*
X151900000Y-111400000D02*
X153062500Y-112562500D01*
X149950000Y-106497000D02*
X149950000Y-107750000D01*
X153062500Y-112562500D02*
X153812500Y-112562500D01*
X151900000Y-111400000D02*
X151800000Y-111400000D01*
X149200000Y-108500000D02*
X145000000Y-108500000D01*
%TO.N,START_ADS1299*%
X142756000Y-101494000D02*
X148906000Y-101494000D01*
X132199999Y-101499999D02*
X134878500Y-101499999D01*
X130850000Y-99600000D02*
X131250000Y-100000000D01*
X138500000Y-102500000D02*
X141750000Y-102500000D01*
X134878500Y-101499999D02*
X137500000Y-101500000D01*
X148906000Y-101494000D02*
X149150000Y-101250000D01*
X137500000Y-101500000D02*
X138500000Y-102500000D01*
X131250000Y-100550000D02*
X132199999Y-101499999D01*
X131250000Y-100000000D02*
X131250000Y-100550000D01*
X141750000Y-102500000D02*
X142756000Y-101494000D01*
%TO.N,RST_ADS1299*%
X134878500Y-102500000D02*
X137500000Y-102500000D01*
X130990380Y-101590380D02*
X131900000Y-102500000D01*
X130990380Y-101509620D02*
X130990380Y-101590380D01*
X137500000Y-102500000D02*
X138000000Y-103000000D01*
X143000000Y-102000000D02*
X149150000Y-102000000D01*
X131900000Y-102500000D02*
X134878500Y-102500000D01*
X142000000Y-103000000D02*
X143000000Y-102000000D01*
X138000000Y-103000000D02*
X142000000Y-103000000D01*
%TO.N,MISO*%
X155200000Y-107900000D02*
X155200000Y-106497000D01*
X141500000Y-115500000D02*
X139000000Y-115500000D01*
X155200000Y-106497000D02*
X155200000Y-103000000D01*
X137999000Y-99499000D02*
X137500000Y-99499000D01*
X137000999Y-98999999D02*
X134878500Y-98999999D01*
X150687500Y-110562500D02*
X149600000Y-110562500D01*
X149600000Y-110562500D02*
X146437500Y-110562500D01*
X149600000Y-109700000D02*
X149600000Y-110562500D01*
X146437500Y-110562500D02*
X141500000Y-115500000D01*
X138000000Y-99500000D02*
X137999000Y-99499000D01*
X155200000Y-103000000D02*
X153100000Y-100900000D01*
X137500000Y-99499000D02*
X137000999Y-98999999D01*
X154550000Y-108550000D02*
X155200000Y-107900000D01*
%TO.N,CS_BNO085*%
X152000000Y-110500000D02*
X152000000Y-110000000D01*
X152200000Y-106497000D02*
X152200000Y-109812500D01*
X152000000Y-110012500D02*
X152000000Y-110500000D01*
X152200000Y-106497000D02*
X152000000Y-106697000D01*
X152200000Y-109812500D02*
X152000000Y-110012500D01*
%TO.N,MOSI*%
X137019000Y-103981000D02*
X137000000Y-104000000D01*
X152849000Y-109401000D02*
X152849000Y-109349000D01*
X145981000Y-103981000D02*
X137019000Y-103981000D01*
X152849000Y-109349000D02*
X152849000Y-106598000D01*
X145982000Y-103980000D02*
X145981000Y-103981000D01*
X137000000Y-104000000D02*
X136500000Y-103500000D01*
X152950000Y-105550000D02*
X152950000Y-106497000D01*
X141500000Y-109000000D02*
X141500000Y-104000000D01*
X153010122Y-106557122D02*
X152950000Y-106497000D01*
X150985000Y-103585000D02*
X152950000Y-105550000D01*
X152551000Y-110449000D02*
X152551000Y-109699000D01*
X152500000Y-110500000D02*
X152551000Y-110449000D01*
X136500000Y-103500000D02*
X134878500Y-103500000D01*
X152849000Y-106598000D02*
X152950000Y-106497000D01*
X146500000Y-103980000D02*
X145982000Y-103980000D01*
X141500000Y-104000000D02*
X137000000Y-104000000D01*
X152551000Y-109699000D02*
X152849000Y-109401000D01*
X150985000Y-103470000D02*
X150985000Y-103585000D01*
X142500000Y-104000000D02*
X141500000Y-104000000D01*
%TO.N,SCL*%
X172715000Y-94600000D02*
X171300000Y-94600000D01*
X174686300Y-93357433D02*
X174686300Y-93434700D01*
X155350000Y-98350000D02*
X155350000Y-97650000D01*
X155350000Y-97650000D02*
X155200000Y-97500000D01*
X174686300Y-93434700D02*
X174621000Y-93500000D01*
X173815000Y-93500000D02*
X173180000Y-94135000D01*
X174621000Y-93500000D02*
X173815000Y-93500000D01*
X174708733Y-93335000D02*
X174686300Y-93357433D01*
X173180000Y-94135000D02*
X172715000Y-94600000D01*
%TO.N,SDA*%
X150500000Y-105000000D02*
X149800000Y-105700000D01*
X149200000Y-105700000D02*
X149150000Y-105750000D01*
X175600000Y-109213493D02*
X175600000Y-112000000D01*
X173200000Y-95110000D02*
X173190000Y-95100000D01*
X175600000Y-112000000D02*
X175400000Y-112200000D01*
X173200000Y-95898182D02*
X173200000Y-95110000D01*
X174000000Y-96500000D02*
X173801818Y-96500000D01*
X173801818Y-96500000D02*
X173200000Y-95898182D01*
X149800000Y-105700000D02*
X149200000Y-105700000D01*
X173190000Y-95100000D02*
X171300000Y-95100000D01*
%TO.N,SCK*%
X151420000Y-108800000D02*
X151420000Y-108920000D01*
X151420000Y-108920000D02*
X151500000Y-109000000D01*
X153700000Y-108300000D02*
X153700000Y-106497000D01*
X153700000Y-104500000D02*
X153700000Y-106497000D01*
X155980000Y-89500000D02*
X155880000Y-89600000D01*
X137800000Y-101000000D02*
X136900000Y-101000000D01*
X138800000Y-102000000D02*
X137800000Y-101000000D01*
X151883812Y-102683812D02*
X153700000Y-104500000D01*
X136399999Y-100499999D02*
X134878500Y-100499999D01*
X145100000Y-89600000D02*
X144500000Y-89000000D01*
X153500000Y-108500000D02*
X153700000Y-108300000D01*
X132950000Y-99500000D02*
X133000000Y-99500000D01*
X133729840Y-100129431D02*
X134100408Y-100499999D01*
X133000000Y-99500000D02*
X133629431Y-100129431D01*
X141500000Y-101500000D02*
X141000000Y-102000000D01*
X151500000Y-109000000D02*
X151500000Y-110500000D01*
X134100408Y-100499999D02*
X134878500Y-100499999D01*
X141000000Y-102000000D02*
X138800000Y-102000000D01*
X153700000Y-106497000D02*
X153700000Y-106700000D01*
X133629431Y-100129431D02*
X133729840Y-100129431D01*
X136900000Y-101000000D02*
X136399999Y-100499999D01*
X155880000Y-89600000D02*
X145100000Y-89600000D01*
%TO.N,CS_ADS1299*%
X133460186Y-100780431D02*
X133679755Y-101000000D01*
X155706000Y-97256000D02*
X155950000Y-97500000D01*
X154000000Y-94200000D02*
X154000000Y-95415274D01*
X133679755Y-101000000D02*
X134878500Y-101000000D01*
X155706000Y-97121274D02*
X155706000Y-97256000D01*
X154000000Y-95415274D02*
X155706000Y-97121274D01*
%TO.N,DRDY*%
X143000000Y-100500000D02*
X143000000Y-94000000D01*
X148600000Y-105000000D02*
X149150000Y-105000000D01*
X147100000Y-106500000D02*
X148600000Y-105000000D01*
X143000000Y-94000000D02*
X140800000Y-94000000D01*
X142920000Y-106050000D02*
X143050000Y-106050000D01*
X137800002Y-96999998D02*
X134878500Y-96999998D01*
X143499000Y-106499000D02*
X143566100Y-106499000D01*
X140800000Y-94000000D02*
X137800002Y-96999998D01*
X143050000Y-106050000D02*
X143499000Y-106499000D01*
X143566100Y-106499000D02*
X143567100Y-106500000D01*
X143567100Y-106500000D02*
X147100000Y-106500000D01*
%TO.N,GPIO1*%
X171300000Y-118900000D02*
X171977485Y-118900000D01*
X172400000Y-99600000D02*
X170600000Y-97800000D01*
X164100000Y-108200000D02*
X170919000Y-115019000D01*
X159700000Y-106497000D02*
X159700000Y-107341659D01*
X159700000Y-107341659D02*
X160558341Y-108200000D01*
X160558341Y-108200000D02*
X164100000Y-108200000D01*
X172400000Y-118477485D02*
X172400000Y-99600000D01*
X171977485Y-118900000D02*
X172400000Y-118477485D01*
X170919000Y-118519000D02*
X171300000Y-118900000D01*
X170919000Y-115019000D02*
X170919000Y-118519000D01*
%TO.N,GPIO0*%
X151450000Y-106631726D02*
X151450000Y-106497000D01*
X170194000Y-97894000D02*
X170100000Y-97800000D01*
X170194000Y-98281516D02*
X170194000Y-97894000D01*
X172019000Y-99959736D02*
X170759264Y-98700000D01*
X170612484Y-98700000D02*
X170194000Y-98281516D01*
X151400000Y-107700000D02*
X151400000Y-106547000D01*
X171600000Y-117600000D02*
X172019000Y-117181000D01*
X172019000Y-117181000D02*
X172019000Y-99959736D01*
X170759264Y-98700000D02*
X170612484Y-98700000D01*
X151400000Y-106547000D02*
X151450000Y-106497000D01*
%TO.N,Net-(U7-P1.00)*%
X146100000Y-99250000D02*
X146600000Y-99750000D01*
X146600000Y-99750000D02*
X149150000Y-99750000D01*
X145600000Y-99250000D02*
X146100000Y-99250000D01*
D51*
%TO.N,Net-(D3-A)*%
X179775000Y-105000000D02*
X179500000Y-104725000D01*
X182000000Y-107225000D02*
X182000000Y-105000000D01*
X182000000Y-105000000D02*
X179775000Y-105000000D01*
D52*
%TO.N,Net-(U4-LSOUT2{slash}VOUTLDO2)*%
X166400000Y-96600000D02*
X166319000Y-96681000D01*
X164381000Y-96681000D02*
X164300000Y-96600000D01*
X166319000Y-96681000D02*
X164381000Y-96681000D01*
%TO.N,VSYS*%
X169500000Y-91000000D02*
X169200000Y-91000000D01*
D51*
X170500000Y-91000000D02*
X169500000Y-91000000D01*
D52*
X168600000Y-97800000D02*
X168600000Y-98900000D01*
X168791000Y-100398264D02*
X168791000Y-99711000D01*
X168548264Y-100641000D02*
X168791000Y-100398264D01*
X169500000Y-91000000D02*
X169300000Y-91000000D01*
X167534314Y-100434314D02*
X167741000Y-100641000D01*
X167741000Y-100641000D02*
X168548264Y-100641000D01*
X167100000Y-99900000D02*
X167100000Y-97800000D01*
D51*
X164800000Y-94200000D02*
X164800000Y-92720000D01*
D52*
X169300000Y-91000000D02*
X169100000Y-91200000D01*
X169100000Y-91200000D02*
X169100000Y-92900000D01*
X166565686Y-100434314D02*
X167534314Y-100434314D01*
X168791000Y-99711000D02*
X168200000Y-99120000D01*
X166565686Y-100434314D02*
X167100000Y-99900000D01*
X168600000Y-98900000D02*
X168300000Y-99200000D01*
%TO.N,Net-(J3-Pin_4)*%
X166099000Y-88601000D02*
X171379000Y-88601000D01*
X165900000Y-88800000D02*
X166099000Y-88601000D01*
X165900000Y-91500000D02*
X165900000Y-88800000D01*
X166649000Y-92249000D02*
X165900000Y-91500000D01*
X167476000Y-92900000D02*
X167476000Y-92430912D01*
X167294088Y-92249000D02*
X166649000Y-92249000D01*
X171379000Y-88601000D02*
X172480000Y-87500000D01*
X167600000Y-92900000D02*
X167476000Y-92900000D01*
X167476000Y-92430912D02*
X167294088Y-92249000D01*
X172480000Y-86880000D02*
X172480000Y-87500000D01*
%TO.N,Net-(U4-SW2)*%
X169500000Y-99327500D02*
X169500000Y-99200000D01*
X169100000Y-97800000D02*
X169100000Y-98800000D01*
X169500000Y-99200000D02*
X169100000Y-98800000D01*
%TO.N,Net-(D4-D1-)*%
X119500000Y-102200000D02*
X119379346Y-102200000D01*
X118904346Y-102675000D02*
X113133366Y-102675000D01*
X112458366Y-102000000D02*
X110400000Y-102000000D01*
X119379346Y-102200000D02*
X118904346Y-102675000D01*
X110400000Y-102000000D02*
X110300000Y-102100000D01*
X113133366Y-102675000D02*
X112458366Y-102000000D01*
%TO.N,Net-(D4-D1+)*%
X110300000Y-99500000D02*
X110650000Y-99500000D01*
X118525000Y-102175000D02*
X119500000Y-101200000D01*
X110650000Y-99500000D02*
X113325000Y-102175000D01*
X113325000Y-102175000D02*
X118525000Y-102175000D01*
%TO.N,Net-(D2-A)*%
X159510000Y-89500000D02*
X159510000Y-87775000D01*
X159510000Y-87775000D02*
X159485000Y-87750000D01*
%TO.N,Net-(U7-P1.01)*%
X145750000Y-100500000D02*
X149150000Y-100500000D01*
X145600000Y-100650000D02*
X145750000Y-100500000D01*
%TO.N,Net-(U4-VSET2)*%
X172161184Y-93600000D02*
X171300000Y-93600000D01*
X173270000Y-92440340D02*
X173270000Y-92491184D01*
X173270000Y-92491184D02*
X172161184Y-93600000D01*
%TO.N,GPIO3*%
X158200000Y-106797000D02*
X160053000Y-108650000D01*
X170538000Y-115299184D02*
X170538000Y-118938000D01*
X172900000Y-118700000D02*
X172900000Y-97800001D01*
X170974000Y-119374000D02*
X172226000Y-119374000D01*
X163888816Y-108650000D02*
X170538000Y-115299184D01*
X172226000Y-119374000D02*
X172900000Y-118700000D01*
X171699999Y-96600000D02*
X171300000Y-96600000D01*
X158200000Y-106497000D02*
X158200000Y-106797000D01*
X170538000Y-118938000D02*
X170974000Y-119374000D01*
X160053000Y-108650000D02*
X163888816Y-108650000D01*
X172900000Y-97800001D02*
X171699999Y-96600000D01*
%TO.N,GPIO2*%
X156700000Y-97000000D02*
X156700000Y-97500000D01*
X172100000Y-98200000D02*
X172100000Y-97900000D01*
X172100000Y-97900000D02*
X171300000Y-97100000D01*
X155300000Y-95600000D02*
X156700000Y-97000000D01*
%TO.N,GPIO4*%
X173600000Y-111500000D02*
X173600000Y-97961186D01*
X173600000Y-97961186D02*
X171738814Y-96100000D01*
X162354816Y-105916000D02*
X159231000Y-105916000D01*
X158950000Y-106197000D02*
X158950000Y-106497000D01*
X159231000Y-105916000D02*
X158950000Y-106197000D01*
X170000000Y-111500000D02*
X167938816Y-111500000D01*
X167938816Y-111500000D02*
X162354816Y-105916000D01*
X171738814Y-96100000D02*
X171300000Y-96100000D01*
%TO.N,Net-(U1-IN2P)*%
X120520000Y-102200000D02*
X120940000Y-102200000D01*
X121739999Y-102999999D02*
X123321500Y-102999999D01*
X120940000Y-102200000D02*
X121520000Y-102780000D01*
X121520000Y-102780000D02*
X121739999Y-102999999D01*
%TO.N,Net-(U1-IN2N)*%
X120900000Y-101200000D02*
X120520000Y-101200000D01*
X122200000Y-102500000D02*
X123321500Y-102500000D01*
X121400000Y-101700000D02*
X121520000Y-101820000D01*
X121520000Y-101820000D02*
X122200000Y-102500000D01*
X121520000Y-101820000D02*
X120900000Y-101200000D01*
%TO.N,Net-(U1-IN1N)*%
X121000000Y-104200000D02*
X121500000Y-103700000D01*
X121500000Y-103700000D02*
X121700000Y-103500000D01*
X121700000Y-103500000D02*
X123321500Y-103500000D01*
X120520000Y-104200000D02*
X121000000Y-104200000D01*
X121400000Y-103600000D02*
X121500000Y-103700000D01*
%TO.N,Net-(U1-IN1P)*%
X121440000Y-104600000D02*
X121500000Y-104660000D01*
X121839000Y-104261000D02*
X121848264Y-104261000D01*
X122091000Y-104009000D02*
X122100001Y-103999999D01*
X122091000Y-104018264D02*
X122091000Y-104009000D01*
X122100001Y-103999999D02*
X123321500Y-103999999D01*
X120520000Y-105200000D02*
X120960000Y-105200000D01*
X120960000Y-105200000D02*
X121500000Y-104660000D01*
X121500000Y-104660000D02*
X121500000Y-104600000D01*
X121500000Y-104600000D02*
X121839000Y-104261000D01*
X121848264Y-104261000D02*
X122091000Y-104018264D01*
%TO.N,Net-(U1-BIASIN)*%
X126350000Y-94471499D02*
X125849999Y-94471499D01*
X118435000Y-95170000D02*
X117925000Y-95680000D01*
X121225000Y-95170000D02*
X118435000Y-95170000D01*
X122830000Y-95170000D02*
X124900000Y-93100000D01*
X125200000Y-93100000D02*
X125849999Y-93749999D01*
X125849999Y-93749999D02*
X125849999Y-94471499D01*
X124900000Y-93100000D02*
X125200000Y-93100000D01*
X121225000Y-95170000D02*
X122830000Y-95170000D01*
%TO.N,Net-(U1-BIASINV)*%
X126596299Y-95600000D02*
X126849999Y-95346300D01*
X121225000Y-96130000D02*
X121755000Y-95600000D01*
X121755000Y-95600000D02*
X126596299Y-95600000D01*
X121205000Y-96150000D02*
X119425000Y-96150000D01*
X126849999Y-95346300D02*
X126849999Y-94471499D01*
%TO.N,Net-(U1-VREFN)*%
X129350000Y-106028499D02*
X129350000Y-109870000D01*
X129350000Y-109870000D02*
X129480000Y-110000000D01*
%TO.N,Net-(U1-VREFP)*%
X128850000Y-106028499D02*
X128909300Y-106087799D01*
X128850000Y-106028499D02*
X128850000Y-107150000D01*
X128949000Y-109571000D02*
X128520000Y-110000000D01*
X128850000Y-107150000D02*
X128949000Y-107249000D01*
X128949000Y-107249000D02*
X128949000Y-109571000D01*
%TO.N,Net-(U1-VCAP3)*%
X129880000Y-94441500D02*
X129850001Y-94471499D01*
X129880000Y-92000000D02*
X129880000Y-94441500D01*
X129880000Y-92000000D02*
X131850000Y-92000000D01*
%TO.N,Net-(U1-VCAP1)*%
X130849999Y-107789999D02*
X130849999Y-106028499D01*
X132850000Y-109790000D02*
X130849999Y-107789999D01*
%TO.N,Net-(U1-VCAP4)*%
X131350000Y-109790000D02*
X129850001Y-108290001D01*
X129850001Y-108290001D02*
X129850001Y-106028499D01*
%TO.N,Net-(U1-VCAP2)*%
X131959301Y-106952599D02*
X131959301Y-106159301D01*
X132752599Y-106952599D02*
X131959301Y-106952599D01*
X131850000Y-106050000D02*
X131850000Y-106028499D01*
X135000000Y-109790000D02*
X135000000Y-109200000D01*
X135000000Y-109200000D02*
X132752599Y-106952599D01*
X131959301Y-106159301D02*
X131850000Y-106050000D01*
%TO.N,Net-(U4-VBUSOUT)*%
X168100000Y-90980000D02*
X168100000Y-92900000D01*
D51*
%TO.N,Net-(U6-FB)*%
X177600000Y-104725000D02*
X177600000Y-103835000D01*
X175500000Y-105500000D02*
X175500000Y-103480000D01*
X176965000Y-103200000D02*
X177000000Y-103235000D01*
X175910396Y-103231000D02*
X175941396Y-103200000D01*
X177600000Y-103835000D02*
X177000000Y-103235000D01*
X175500000Y-103480000D02*
X175749000Y-103231000D01*
X175941396Y-103200000D02*
X176965000Y-103200000D01*
X175749000Y-103231000D02*
X175910396Y-103231000D01*
D52*
%TO.N,Net-(U5-SET)*%
X184720000Y-93860000D02*
X184700000Y-93880000D01*
X184700000Y-93880000D02*
X184180000Y-94400000D01*
X186750000Y-93860000D02*
X184720000Y-93860000D01*
X184180000Y-94400000D02*
X182800000Y-94400000D01*
%TO.N,Net-(U1-GPIO4)*%
X134878500Y-97499999D02*
X138630001Y-97499999D01*
X138630001Y-97499999D02*
X139600000Y-96530000D01*
%TO.N,Net-(U1-GPIO3)*%
X134878500Y-97999998D02*
X139599998Y-97999998D01*
X139599998Y-97999998D02*
X139600000Y-98000000D01*
%TO.N,Net-(U1-GPIO2)*%
X138600000Y-98500000D02*
X139600000Y-99500000D01*
X134878500Y-98500000D02*
X138600000Y-98500000D01*
%TO.N,Net-(U1-GPIO1)*%
X138666100Y-100599000D02*
X137799000Y-100599000D01*
X139067100Y-101000000D02*
X138666100Y-100599000D01*
X136699998Y-99499998D02*
X134878500Y-99499998D01*
X139500000Y-101000000D02*
X139067100Y-101000000D01*
X137799000Y-100599000D02*
X136699998Y-99499998D01*
%TO.N,Net-(U3-PS1)*%
X153000000Y-115625000D02*
X154000000Y-116625000D01*
X153000000Y-115125000D02*
X153000000Y-115500000D01*
X153000000Y-115500000D02*
X153000000Y-115625000D01*
%TO.N,Net-(U3-PS0{slash}WAKE)*%
X154365000Y-115615000D02*
X153812500Y-115062500D01*
X156662500Y-115615000D02*
X154365000Y-115615000D01*
%TO.N,Net-(U4-NTC)*%
X170500000Y-92000000D02*
X170100000Y-92400000D01*
X172200000Y-91300000D02*
X171500000Y-92000000D01*
X171500000Y-92000000D02*
X170500000Y-92000000D01*
X170100000Y-92400000D02*
X170100000Y-92900000D01*
%TO.N,Net-(U5-ILIM)*%
X178800000Y-96400000D02*
X179810000Y-96400000D01*
X178500000Y-94900000D02*
X178500000Y-96100000D01*
X179810000Y-96400000D02*
X180000000Y-96590000D01*
X178500000Y-96100000D02*
X178800000Y-96400000D01*
%TO.N,Net-(U5-PG)*%
X177190000Y-94400000D02*
X176920000Y-94670000D01*
X178500000Y-94400000D02*
X177190000Y-94400000D01*
%TO.N,Net-(U5-PGFB)*%
X184700000Y-95115924D02*
X184700000Y-95090000D01*
X183625924Y-94900000D02*
X183815924Y-95090000D01*
X183815924Y-95090000D02*
X184700000Y-95090000D01*
X186750000Y-95090000D02*
X184700000Y-95090000D01*
X182800000Y-94900000D02*
X183625924Y-94900000D01*
%TO.N,Net-(U4-SHPHLD)*%
X179125339Y-90036533D02*
X178983467Y-90036533D01*
X173804528Y-93081000D02*
X173219000Y-93081000D01*
X178920000Y-90100000D02*
X176785528Y-90100000D01*
X178983467Y-90036533D02*
X178920000Y-90100000D01*
X172200000Y-94100000D02*
X171300000Y-94100000D01*
X173219000Y-93081000D02*
X172200000Y-94100000D01*
X176785528Y-90100000D02*
X173804528Y-93081000D01*
%TO.N,Net-(D4-D2+)*%
X119500000Y-104200000D02*
X119000000Y-103700000D01*
X111100000Y-103700000D02*
X110300000Y-104500000D01*
X119000000Y-103700000D02*
X111100000Y-103700000D01*
%TO.N,Net-(D4-D2-)*%
X110300000Y-106400000D02*
X110300000Y-107000000D01*
X118500000Y-104200000D02*
X112500000Y-104200000D01*
X112500000Y-104200000D02*
X110300000Y-106400000D01*
X119500000Y-105200000D02*
X118500000Y-104200000D01*
%TO.N,VBIAS*%
X116705000Y-95680000D02*
X115525000Y-95680000D01*
X110300000Y-97000000D02*
X114205000Y-97000000D01*
X114205000Y-97000000D02*
X115525000Y-95680000D01*
%TO.N,Net-(J3-Pin_8)*%
X162100000Y-87720000D02*
X162320000Y-87500000D01*
X167100000Y-92900000D02*
X165900000Y-92900000D01*
D51*
X162520000Y-87800000D02*
X162220000Y-87500000D01*
D52*
X165900000Y-92900000D02*
X162100000Y-89100000D01*
X162100000Y-89100000D02*
X162100000Y-87720000D01*
%TD*%
M02*
