%TF.GenerationSoftware,KiCad,Pcbnew,9.0.6*%
%TF.CreationDate,2026-01-19T17:08:54-06:00*%
%TF.ProjectId,wearable,77656172-6162-46c6-952e-6b696361645f,rev?*%
%TF.SameCoordinates,Original*%
%TF.FileFunction,Soldermask,Top*%
%TF.FilePolarity,Negative*%
%FSLAX46Y46*%
G04 Gerber Fmt 4.6, Leading zero omitted, Abs format (unit mm)*
G04 Created by KiCad (PCBNEW 9.0.6) date 2026-01-19 17:08:54*
%MOMM*%
%LPD*%
G01*
G04 APERTURE LIST*
G04 Aperture macros list*
%AMRoundRect*
0 Rectangle with rounded corners*
0 $1 Rounding radius*
0 $2 $3 $4 $5 $6 $7 $8 $9 X,Y pos of 4 corners*
0 Add a 4 corners polygon primitive as box body*
4,1,4,$2,$3,$4,$5,$6,$7,$8,$9,$2,$3,0*
0 Add four circle primitives for the rounded corners*
1,1,$1+$1,$2,$3*
1,1,$1+$1,$4,$5*
1,1,$1+$1,$6,$7*
1,1,$1+$1,$8,$9*
0 Add four rect primitives between the rounded corners*
20,1,$1+$1,$2,$3,$4,$5,0*
20,1,$1+$1,$4,$5,$6,$7,0*
20,1,$1+$1,$6,$7,$8,$9,0*
20,1,$1+$1,$8,$9,$2,$3,0*%
G04 Aperture macros list end*
%ADD10RoundRect,0.140000X-0.170000X0.140000X-0.170000X-0.140000X0.170000X-0.140000X0.170000X0.140000X0*%
%ADD11C,1.000000*%
%ADD12RoundRect,0.135000X-0.135000X-0.185000X0.135000X-0.185000X0.135000X0.185000X-0.135000X0.185000X0*%
%ADD13C,1.400000*%
%ADD14RoundRect,0.140000X0.140000X0.170000X-0.140000X0.170000X-0.140000X-0.170000X0.140000X-0.170000X0*%
%ADD15RoundRect,0.075000X-0.650000X-0.075000X0.650000X-0.075000X0.650000X0.075000X-0.650000X0.075000X0*%
%ADD16R,1.680000X1.880000*%
%ADD17RoundRect,0.100000X0.130000X0.100000X-0.130000X0.100000X-0.130000X-0.100000X0.130000X-0.100000X0*%
%ADD18RoundRect,0.135000X0.185000X-0.135000X0.185000X0.135000X-0.185000X0.135000X-0.185000X-0.135000X0*%
%ADD19RoundRect,0.140000X-0.140000X-0.170000X0.140000X-0.170000X0.140000X0.170000X-0.140000X0.170000X0*%
%ADD20RoundRect,0.140000X0.170000X-0.140000X0.170000X0.140000X-0.170000X0.140000X-0.170000X-0.140000X0*%
%ADD21C,4.318000*%
%ADD22RoundRect,0.135000X-0.185000X0.135000X-0.185000X-0.135000X0.185000X-0.135000X0.185000X0.135000X0*%
%ADD23RoundRect,0.160000X0.160000X-0.222500X0.160000X0.222500X-0.160000X0.222500X-0.160000X-0.222500X0*%
%ADD24R,0.850000X0.850000*%
%ADD25RoundRect,0.135000X0.135000X0.185000X-0.135000X0.185000X-0.135000X-0.185000X0.135000X-0.185000X0*%
%ADD26RoundRect,0.100000X-0.100000X0.130000X-0.100000X-0.130000X0.100000X-0.130000X0.100000X0.130000X0*%
%ADD27RoundRect,0.050000X-0.350000X-0.050000X0.350000X-0.050000X0.350000X0.050000X-0.350000X0.050000X0*%
%ADD28RoundRect,0.050000X-0.050000X-0.350000X0.050000X-0.350000X0.050000X0.350000X-0.050000X0.350000X0*%
%ADD29R,4.600000X4.600000*%
%ADD30R,1.800000X1.000000*%
%ADD31RoundRect,0.150000X0.600000X-0.150000X0.600000X0.150000X-0.600000X0.150000X-0.600000X-0.150000X0*%
%ADD32RoundRect,0.100000X-0.130000X-0.100000X0.130000X-0.100000X0.130000X0.100000X-0.130000X0.100000X0*%
%ADD33RoundRect,0.147500X-0.147500X-0.172500X0.147500X-0.172500X0.147500X0.172500X-0.147500X0.172500X0*%
%ADD34RoundRect,0.218750X0.218750X0.256250X-0.218750X0.256250X-0.218750X-0.256250X0.218750X-0.256250X0*%
%ADD35RoundRect,0.102000X0.337500X-0.125000X0.337500X0.125000X-0.337500X0.125000X-0.337500X-0.125000X0*%
%ADD36RoundRect,0.102000X0.125000X-0.287500X0.125000X0.287500X-0.125000X0.287500X-0.125000X-0.287500X0*%
%ADD37RoundRect,0.150000X-0.400000X0.150000X-0.400000X-0.150000X0.400000X-0.150000X0.400000X0.150000X0*%
%ADD38RoundRect,0.150000X-0.150000X0.512500X-0.150000X-0.512500X0.150000X-0.512500X0.150000X0.512500X0*%
%ADD39RoundRect,0.225000X-0.375000X0.225000X-0.375000X-0.225000X0.375000X-0.225000X0.375000X0.225000X0*%
%ADD40R,1.000000X1.000000*%
%ADD41R,2.400000X0.740000*%
%ADD42R,1.700000X1.700000*%
%ADD43C,1.700000*%
%ADD44RoundRect,0.250000X-0.350000X-0.625000X0.350000X-0.625000X0.350000X0.625000X-0.350000X0.625000X0*%
%ADD45O,1.200000X1.750000*%
%ADD46RoundRect,0.062500X0.062500X-0.337500X0.062500X0.337500X-0.062500X0.337500X-0.062500X-0.337500X0*%
%ADD47RoundRect,0.062500X0.337500X-0.062500X0.337500X0.062500X-0.337500X0.062500X-0.337500X-0.062500X0*%
%ADD48R,3.600000X3.600000*%
%ADD49R,1.346200X0.279400*%
%ADD50R,0.279400X1.346200*%
%ADD51C,1.604000*%
G04 APERTURE END LIST*
D10*
%TO.C,C25*%
X154500000Y-106960000D03*
X154500000Y-106000000D03*
%TD*%
D11*
%TO.C,TP8*%
X142000000Y-91500000D03*
%TD*%
D12*
%TO.C,R16*%
X170480000Y-90359660D03*
X171500000Y-90359660D03*
%TD*%
D11*
%TO.C,TP14*%
X144500000Y-90500000D03*
%TD*%
D13*
%TO.C,TP2*%
X123000000Y-88000000D03*
X125000000Y-88000000D03*
%TD*%
D14*
%TO.C,C4*%
X128500000Y-91500000D03*
X127540000Y-91500000D03*
%TD*%
D15*
%TO.C,U5*%
X178500000Y-92900000D03*
X178500000Y-93400000D03*
X178500000Y-93900000D03*
X178500000Y-94400000D03*
X178500000Y-94900000D03*
X182800000Y-94900000D03*
X182800000Y-94400000D03*
X182800000Y-93900000D03*
X182800000Y-93400000D03*
X182800000Y-92900000D03*
D16*
X180650000Y-93900000D03*
%TD*%
D11*
%TO.C,TP6*%
X139500000Y-115500000D03*
%TD*%
D12*
%TO.C,R7*%
X139600000Y-96530000D03*
X140620000Y-96530000D03*
%TD*%
D17*
%TO.C,C32*%
X156390000Y-101320000D03*
X155750000Y-101320000D03*
%TD*%
D18*
%TO.C,R26*%
X186750000Y-96110000D03*
X186750000Y-95090000D03*
%TD*%
D19*
%TO.C,C13*%
X128520000Y-113500000D03*
X129480000Y-113500000D03*
%TD*%
D20*
%TO.C,C24*%
X152100000Y-97730000D03*
X152100000Y-96770000D03*
%TD*%
D12*
%TO.C,R9*%
X139600000Y-99500000D03*
X140620000Y-99500000D03*
%TD*%
D14*
%TO.C,C18*%
X145500000Y-105500000D03*
X144540000Y-105500000D03*
%TD*%
%TO.C,C16*%
X146392500Y-113000000D03*
X145432500Y-113000000D03*
%TD*%
D21*
%TO.C,H4*%
X186850000Y-117000000D03*
%TD*%
D10*
%TO.C,C22*%
X153600000Y-95520000D03*
X153600000Y-96480000D03*
%TD*%
D11*
%TO.C,TP15*%
X153500000Y-88750000D03*
%TD*%
D12*
%TO.C,R8*%
X139600000Y-98000000D03*
X140620000Y-98000000D03*
%TD*%
D22*
%TO.C,R27*%
X184750000Y-95090000D03*
X184750000Y-96110000D03*
%TD*%
D14*
%TO.C,C30*%
X163000000Y-95500000D03*
X162040000Y-95500000D03*
%TD*%
D21*
%TO.C,H1*%
X112600000Y-86000000D03*
%TD*%
D12*
%TO.C,R17*%
X170530000Y-91500000D03*
X171550000Y-91500000D03*
%TD*%
%TO.C,R12*%
X156480000Y-104000000D03*
X157500000Y-104000000D03*
%TD*%
D11*
%TO.C,TP4*%
X137360000Y-88000000D03*
%TD*%
D22*
%TO.C,R6*%
X136000000Y-106990000D03*
X136000000Y-108010000D03*
%TD*%
D23*
%TO.C,FB1*%
X152100000Y-95572500D03*
X152100000Y-94427500D03*
%TD*%
D20*
%TO.C,C34*%
X163290000Y-94030000D03*
X163290000Y-93070000D03*
%TD*%
D10*
%TO.C,C49*%
X186750000Y-97520000D03*
X186750000Y-98480000D03*
%TD*%
D20*
%TO.C,C19*%
X147350000Y-95230000D03*
X147350000Y-94270000D03*
%TD*%
%TO.C,C37*%
X169550000Y-100230000D03*
X169550000Y-99270000D03*
%TD*%
D11*
%TO.C,TP3*%
X134500000Y-88000000D03*
%TD*%
D19*
%TO.C,C27*%
X156400000Y-103010000D03*
X157360000Y-103010000D03*
%TD*%
D10*
%TO.C,C43*%
X178500000Y-102265000D03*
X178500000Y-103225000D03*
%TD*%
D20*
%TO.C,C9*%
X129880000Y-92000000D03*
X129880000Y-91040000D03*
%TD*%
D14*
%TO.C,C44*%
X179500000Y-108500000D03*
X178540000Y-108500000D03*
%TD*%
D24*
%TO.C,E3*%
X113850000Y-101950000D03*
%TD*%
D11*
%TO.C,TP11*%
X143000000Y-114000000D03*
%TD*%
D20*
%TO.C,C1*%
X120620000Y-97480000D03*
X120620000Y-96520000D03*
%TD*%
D14*
%TO.C,C45*%
X182400000Y-97350000D03*
X181440000Y-97350000D03*
%TD*%
D11*
%TO.C,TP5*%
X137500000Y-114000000D03*
%TD*%
D19*
%TO.C,C8*%
X128500000Y-112000000D03*
X129460000Y-112000000D03*
%TD*%
D25*
%TO.C,R3*%
X117790000Y-102000000D03*
X116770000Y-102000000D03*
%TD*%
D14*
%TO.C,C29*%
X163000000Y-96970000D03*
X162040000Y-96970000D03*
%TD*%
D11*
%TO.C,TP10*%
X143500000Y-111000000D03*
%TD*%
D20*
%TO.C,C28*%
X161500000Y-94010000D03*
X161500000Y-93050000D03*
%TD*%
D26*
%TO.C,C38*%
X160975000Y-101250000D03*
X160975000Y-101890000D03*
%TD*%
D10*
%TO.C,C11*%
X132850000Y-109790000D03*
X132850000Y-110750000D03*
%TD*%
D25*
%TO.C,R1*%
X117790000Y-96020000D03*
X116770000Y-96020000D03*
%TD*%
D23*
%TO.C,L5*%
X166550000Y-100145000D03*
X166550000Y-99000000D03*
%TD*%
%TO.C,L7*%
X182000000Y-108370000D03*
X182000000Y-107225000D03*
%TD*%
D22*
%TO.C,R22*%
X180000000Y-96590000D03*
X180000000Y-97610000D03*
%TD*%
D27*
%TO.C,U2*%
X148370000Y-99800000D03*
X148370000Y-100200000D03*
X148370000Y-100600000D03*
X148370000Y-101000000D03*
X148370000Y-101400000D03*
X148370000Y-101800000D03*
X148370000Y-102200000D03*
X148370000Y-102600000D03*
X148370000Y-103000000D03*
X148370000Y-103400000D03*
X148370000Y-103800000D03*
X148370000Y-104200000D03*
D28*
X149120000Y-104950000D03*
X149520000Y-104950000D03*
X149920000Y-104950000D03*
X150320000Y-104950000D03*
X150720000Y-104950000D03*
X151120000Y-104950000D03*
X151520000Y-104950000D03*
X151920000Y-104950000D03*
X152320000Y-104950000D03*
X152720000Y-104950000D03*
X153120000Y-104950000D03*
X153520000Y-104950000D03*
D27*
X154270000Y-104200000D03*
X154270000Y-103800000D03*
X154270000Y-103400000D03*
X154270000Y-103000000D03*
X154270000Y-102600000D03*
X154270000Y-102200000D03*
X154270000Y-101800000D03*
X154270000Y-101400000D03*
X154270000Y-101000000D03*
X154270000Y-100600000D03*
X154270000Y-100200000D03*
X154270000Y-99800000D03*
D28*
X153520000Y-99050000D03*
X153120000Y-99050000D03*
X152720000Y-99050000D03*
X152320000Y-99050000D03*
X151920000Y-99050000D03*
X151520000Y-99050000D03*
X151120000Y-99050000D03*
X150720000Y-99050000D03*
X150320000Y-99050000D03*
X149920000Y-99050000D03*
X149520000Y-99050000D03*
X149120000Y-99050000D03*
D29*
X151320000Y-102000000D03*
%TD*%
D22*
%TO.C,R21*%
X175500000Y-105500000D03*
X175500000Y-106520000D03*
%TD*%
D30*
%TO.C,Y2*%
X148162500Y-115500000D03*
X148162500Y-113000000D03*
%TD*%
D12*
%TO.C,R10*%
X139500000Y-101000000D03*
X140520000Y-101000000D03*
%TD*%
D22*
%TO.C,R23*%
X176920000Y-93650000D03*
X176920000Y-94670000D03*
%TD*%
D31*
%TO.C,Y3*%
X157850000Y-98750000D03*
X157850000Y-97350000D03*
%TD*%
D19*
%TO.C,C47*%
X184040000Y-103500000D03*
X185000000Y-103500000D03*
%TD*%
D20*
%TO.C,C23*%
X155500000Y-97980000D03*
X155500000Y-97020000D03*
%TD*%
D10*
%TO.C,C3*%
X119850000Y-107790000D03*
X119850000Y-108750000D03*
%TD*%
D14*
%TO.C,C17*%
X146392500Y-115500000D03*
X145432500Y-115500000D03*
%TD*%
D18*
%TO.C,R13*%
X156662500Y-116635000D03*
X156662500Y-115615000D03*
%TD*%
D20*
%TO.C,C15*%
X134350000Y-110750000D03*
X134350000Y-109790000D03*
%TD*%
D11*
%TO.C,TP9*%
X141500000Y-111500000D03*
%TD*%
D25*
%TO.C,R4*%
X117790000Y-104500000D03*
X116770000Y-104500000D03*
%TD*%
%TO.C,R15*%
X159510000Y-89500000D03*
X158490000Y-89500000D03*
%TD*%
D32*
%TO.C,L2*%
X155725000Y-102070000D03*
X156365000Y-102070000D03*
%TD*%
D12*
%TO.C,R11*%
X152980000Y-116625000D03*
X154000000Y-116625000D03*
%TD*%
D11*
%TO.C,TP13*%
X175000000Y-98000000D03*
%TD*%
D24*
%TO.C,E1*%
X113850000Y-95850000D03*
%TD*%
D33*
%TO.C,D2*%
X158515000Y-87750000D03*
X159485000Y-87750000D03*
%TD*%
D24*
%TO.C,E5*%
X113850000Y-108250000D03*
%TD*%
D10*
%TO.C,C41*%
X175500000Y-102520000D03*
X175500000Y-103480000D03*
%TD*%
D20*
%TO.C,C10*%
X131850000Y-92000000D03*
X131850000Y-91040000D03*
%TD*%
%TO.C,C2*%
X120600000Y-103480000D03*
X120600000Y-102520000D03*
%TD*%
D11*
%TO.C,TP12*%
X145000000Y-108500000D03*
%TD*%
D34*
%TO.C,L1*%
X150637500Y-95000000D03*
X149062500Y-95000000D03*
%TD*%
D32*
%TO.C,L3*%
X157250000Y-101320000D03*
X157890000Y-101320000D03*
%TD*%
D35*
%TO.C,U3*%
X150687500Y-115062500D03*
D36*
X151500000Y-115125000D03*
X152000000Y-115125000D03*
X152500000Y-115125000D03*
X153000000Y-115125000D03*
D35*
X153812500Y-115062500D03*
X153812500Y-114562500D03*
X153812500Y-114062500D03*
X153812500Y-113562500D03*
X153812500Y-113062500D03*
X153812500Y-112562500D03*
X153812500Y-112062500D03*
X153812500Y-111562500D03*
X153812500Y-111062500D03*
X153812500Y-110562500D03*
D36*
X153000000Y-110500000D03*
X152500000Y-110500000D03*
X152000000Y-110500000D03*
X151500000Y-110500000D03*
D35*
X150687500Y-110562500D03*
X150687500Y-111062500D03*
X150687500Y-111562500D03*
X150687500Y-112062500D03*
X150687500Y-112562500D03*
X150687500Y-113062500D03*
X150687500Y-113562500D03*
X150687500Y-114062500D03*
X150687500Y-114562500D03*
%TD*%
D37*
%TO.C,Y1*%
X145500000Y-99250000D03*
X145500000Y-100650000D03*
%TD*%
D25*
%TO.C,R14*%
X157000000Y-89500000D03*
X155980000Y-89500000D03*
%TD*%
D38*
%TO.C,U6*%
X179500000Y-104725000D03*
X178550000Y-104725000D03*
X177600000Y-104725000D03*
X177600000Y-107000000D03*
X179500000Y-107000000D03*
%TD*%
D22*
%TO.C,R24*%
X177000000Y-102215000D03*
X177000000Y-103235000D03*
%TD*%
D24*
%TO.C,E4*%
X113850000Y-105000000D03*
%TD*%
D39*
%TO.C,D3*%
X182000000Y-101700000D03*
X182000000Y-105000000D03*
%TD*%
D20*
%TO.C,C39*%
X168000000Y-91000000D03*
X168000000Y-90040000D03*
%TD*%
D19*
%TO.C,C21*%
X149775000Y-97250000D03*
X150735000Y-97250000D03*
%TD*%
D23*
%TO.C,L6*%
X168050000Y-100145000D03*
X168050000Y-99000000D03*
%TD*%
D20*
%TO.C,C48*%
X186750000Y-93860000D03*
X186750000Y-92900000D03*
%TD*%
D13*
%TO.C,TP1*%
X117500000Y-88000000D03*
X119500000Y-88000000D03*
%TD*%
D10*
%TO.C,C40*%
X176920000Y-91390000D03*
X176920000Y-92350000D03*
%TD*%
D20*
%TO.C,C14*%
X136600000Y-95480000D03*
X136600000Y-94520000D03*
%TD*%
D21*
%TO.C,H3*%
X186850000Y-86000000D03*
%TD*%
D19*
%TO.C,C20*%
X147370000Y-97750000D03*
X148330000Y-97750000D03*
%TD*%
D33*
%TO.C,D1*%
X156015000Y-87750000D03*
X156985000Y-87750000D03*
%TD*%
D14*
%TO.C,C33*%
X163480000Y-90500000D03*
X162520000Y-90500000D03*
%TD*%
D26*
%TO.C,C36*%
X158725000Y-101250000D03*
X158725000Y-101890000D03*
%TD*%
D20*
%TO.C,C26*%
X156662500Y-113980000D03*
X156662500Y-113020000D03*
%TD*%
D19*
%TO.C,C6*%
X126020000Y-111500000D03*
X126980000Y-111500000D03*
%TD*%
%TO.C,C7*%
X128520000Y-110000000D03*
X129480000Y-110000000D03*
%TD*%
D40*
%TO.C,SW1*%
X186250000Y-109000000D03*
D11*
X186250000Y-107730000D03*
%TD*%
D18*
%TO.C,R25*%
X184700000Y-93880000D03*
X184700000Y-92860000D03*
%TD*%
D11*
%TO.C,TP7*%
X141000000Y-88000000D03*
%TD*%
D32*
%TO.C,L4*%
X159500000Y-101320000D03*
X160140000Y-101320000D03*
%TD*%
D41*
%TO.C,J2*%
X160350000Y-111730000D03*
X164250000Y-111730000D03*
X160350000Y-113000000D03*
X164250000Y-113000000D03*
X160350000Y-114270000D03*
X164250000Y-114270000D03*
X160350000Y-115540000D03*
X164250000Y-115540000D03*
X160350000Y-116810000D03*
X164250000Y-116810000D03*
%TD*%
D19*
%TO.C,C35*%
X164270000Y-99500000D03*
X165230000Y-99500000D03*
%TD*%
D21*
%TO.C,H2*%
X112600000Y-117000000D03*
%TD*%
D18*
%TO.C,R18*%
X173500000Y-92510000D03*
X173500000Y-91490000D03*
%TD*%
D42*
%TO.C,J1*%
X162350000Y-87750000D03*
D43*
X164890000Y-87750000D03*
X167430000Y-87750000D03*
X169970000Y-87750000D03*
X172510000Y-87750000D03*
X175050000Y-87750000D03*
X177590000Y-87750000D03*
X180130000Y-87750000D03*
%TD*%
D22*
%TO.C,R5*%
X116850000Y-107750000D03*
X116850000Y-108770000D03*
%TD*%
D19*
%TO.C,C42*%
X178090000Y-91400000D03*
X179050000Y-91400000D03*
%TD*%
D44*
%TO.C,BT1*%
X179500000Y-111550000D03*
D45*
X181500000Y-111550000D03*
%TD*%
D19*
%TO.C,C31*%
X156500000Y-100250000D03*
X157460000Y-100250000D03*
%TD*%
%TO.C,C46*%
X183940000Y-97370000D03*
X184900000Y-97370000D03*
%TD*%
D46*
%TO.C,U4*%
X165750000Y-97450000D03*
X166250000Y-97450000D03*
X166750000Y-97450000D03*
X167250000Y-97450000D03*
X167750000Y-97450000D03*
X168250000Y-97450000D03*
X168750000Y-97450000D03*
X169250000Y-97450000D03*
D47*
X169950000Y-96750000D03*
X169950000Y-96250000D03*
X169950000Y-95750000D03*
X169950000Y-95250000D03*
X169950000Y-94750000D03*
X169950000Y-94250000D03*
X169950000Y-93750000D03*
X169950000Y-93250000D03*
D46*
X169250000Y-92550000D03*
X168750000Y-92550000D03*
X168250000Y-92550000D03*
X167750000Y-92550000D03*
X167250000Y-92550000D03*
X166750000Y-92550000D03*
X166250000Y-92550000D03*
X165750000Y-92550000D03*
D47*
X165050000Y-93250000D03*
X165050000Y-93750000D03*
X165050000Y-94250000D03*
X165050000Y-94750000D03*
X165050000Y-95250000D03*
X165050000Y-95750000D03*
X165050000Y-96250000D03*
X165050000Y-96750000D03*
D48*
X167500000Y-95000000D03*
%TD*%
D25*
%TO.C,R2*%
X117765000Y-98250000D03*
X116745000Y-98250000D03*
%TD*%
D49*
%TO.C,U1*%
X123321500Y-96499999D03*
X123321500Y-96999998D03*
X123321500Y-97499999D03*
X123321500Y-97999998D03*
X123321500Y-98500000D03*
X123321500Y-98999999D03*
X123321500Y-99499998D03*
X123321500Y-99999999D03*
X123321500Y-100499999D03*
X123321500Y-101000000D03*
X123321500Y-101499999D03*
X123321500Y-101999998D03*
X123321500Y-102500000D03*
X123321500Y-102999999D03*
X123321500Y-103500000D03*
X123321500Y-103999999D03*
D50*
X125350000Y-106028499D03*
X125849999Y-106028499D03*
X126350000Y-106028499D03*
X126849999Y-106028499D03*
X127350001Y-106028499D03*
X127850000Y-106028499D03*
X128349999Y-106028499D03*
X128850000Y-106028499D03*
X129350000Y-106028499D03*
X129850001Y-106028499D03*
X130350000Y-106028499D03*
X130849999Y-106028499D03*
X131350001Y-106028499D03*
X131850000Y-106028499D03*
X132350001Y-106028499D03*
X132850000Y-106028499D03*
D49*
X134878500Y-103999999D03*
X134878500Y-103500000D03*
X134878500Y-102999999D03*
X134878500Y-102500000D03*
X134878500Y-101999998D03*
X134878500Y-101499999D03*
X134878500Y-101000000D03*
X134878500Y-100499999D03*
X134878500Y-99999999D03*
X134878500Y-99499998D03*
X134878500Y-98999999D03*
X134878500Y-98500000D03*
X134878500Y-97999998D03*
X134878500Y-97499999D03*
X134878500Y-96999998D03*
X134878500Y-96499999D03*
D50*
X132850000Y-94471499D03*
X132350001Y-94471499D03*
X131850000Y-94471499D03*
X131350001Y-94471499D03*
X130849999Y-94471499D03*
X130350000Y-94471499D03*
X129850001Y-94471499D03*
X129350000Y-94471499D03*
X128850000Y-94471499D03*
X128349999Y-94471499D03*
X127850000Y-94471499D03*
X127350001Y-94471499D03*
X126849999Y-94471499D03*
X126350000Y-94471499D03*
X125849999Y-94471499D03*
X125350000Y-94471499D03*
%TD*%
D51*
%TO.C,IC1*%
X139500000Y-105460000D03*
X139500000Y-108000000D03*
X139500000Y-110540000D03*
%TD*%
D10*
%TO.C,C12*%
X131350000Y-109790000D03*
X131350000Y-110750000D03*
%TD*%
D24*
%TO.C,E2*%
X113850000Y-98900000D03*
%TD*%
D18*
%TO.C,R20*%
X172550000Y-96405000D03*
X172550000Y-95385000D03*
%TD*%
D25*
%TO.C,R19*%
X172510000Y-94135000D03*
X171490000Y-94135000D03*
%TD*%
D20*
%TO.C,C5*%
X125000000Y-109960000D03*
X125000000Y-109000000D03*
%TD*%
M02*
