%TF.GenerationSoftware,KiCad,Pcbnew,9.0.7*%
%TF.CreationDate,2026-02-09T02:05:22-06:00*%
%TF.ProjectId,wearable,77656172-6162-46c6-952e-6b696361645f,rev?*%
%TF.SameCoordinates,Original*%
%TF.FileFunction,Legend,Bot*%
%TF.FilePolarity,Positive*%
%FSLAX46Y46*%
G04 Gerber Fmt 4.6, Leading zero omitted, Abs format (unit mm)*
G04 Created by KiCad (PCBNEW 9.0.7) date 2026-02-09 02:05:22*
%MOMM*%
%LPD*%
G01*
G04 APERTURE LIST*
%ADD10C,0.083820*%
%ADD11C,0.200000*%
%ADD12C,0.250000*%
%ADD13C,0.000000*%
G04 APERTURE END LIST*
D10*
X154140000Y-89500000D02*
X184140000Y-89500000D01*
X184140000Y-97000000D01*
X154140000Y-97000000D01*
X154140000Y-89500000D01*
D11*
X154800000Y-115900000D02*
G75*
G02*
X149800000Y-115900000I-2500000J0D01*
G01*
X149800000Y-115900000D02*
G75*
G02*
X154800000Y-115900000I2500000J0D01*
G01*
X137500000Y-115900000D02*
G75*
G02*
X132500000Y-115900000I-2500000J0D01*
G01*
X132500000Y-115900000D02*
G75*
G02*
X137500000Y-115900000I2500000J0D01*
G01*
X166500000Y-115900000D02*
G75*
G02*
X161500000Y-115900000I-2500000J0D01*
G01*
X161500000Y-115900000D02*
G75*
G02*
X166500000Y-115900000I2500000J0D01*
G01*
X124500000Y-116106877D02*
G75*
G02*
X119500000Y-116106877I-2500000J0D01*
G01*
X119500000Y-116106877D02*
G75*
G02*
X124500000Y-116106877I2500000J0D01*
G01*
X145500000Y-115900000D02*
G75*
G02*
X140500000Y-115900000I-2500000J0D01*
G01*
X140500000Y-115900000D02*
G75*
G02*
X145500000Y-115900000I2500000J0D01*
G01*
D12*
X178873622Y-119340809D02*
X178506955Y-119340809D01*
X178349812Y-119864619D02*
X178873622Y-119864619D01*
X178873622Y-119864619D02*
X178873622Y-118864619D01*
X178873622Y-118864619D02*
X178349812Y-118864619D01*
X177249812Y-119769380D02*
X177302193Y-119817000D01*
X177302193Y-119817000D02*
X177459336Y-119864619D01*
X177459336Y-119864619D02*
X177564098Y-119864619D01*
X177564098Y-119864619D02*
X177721241Y-119817000D01*
X177721241Y-119817000D02*
X177826003Y-119721761D01*
X177826003Y-119721761D02*
X177878384Y-119626523D01*
X177878384Y-119626523D02*
X177930765Y-119436047D01*
X177930765Y-119436047D02*
X177930765Y-119293190D01*
X177930765Y-119293190D02*
X177878384Y-119102714D01*
X177878384Y-119102714D02*
X177826003Y-119007476D01*
X177826003Y-119007476D02*
X177721241Y-118912238D01*
X177721241Y-118912238D02*
X177564098Y-118864619D01*
X177564098Y-118864619D02*
X177459336Y-118864619D01*
X177459336Y-118864619D02*
X177302193Y-118912238D01*
X177302193Y-118912238D02*
X177249812Y-118959857D01*
X176778384Y-119340809D02*
X176411717Y-119340809D01*
X176254574Y-119864619D02*
X176778384Y-119864619D01*
X176778384Y-119864619D02*
X176778384Y-118864619D01*
X176778384Y-118864619D02*
X176254574Y-118864619D01*
X174473622Y-119197952D02*
X174473622Y-119864619D01*
X174735527Y-118817000D02*
X174997432Y-119531285D01*
X174997432Y-119531285D02*
X174316479Y-119531285D01*
X173426003Y-118864619D02*
X173635527Y-118864619D01*
X173635527Y-118864619D02*
X173740289Y-118912238D01*
X173740289Y-118912238D02*
X173792670Y-118959857D01*
X173792670Y-118959857D02*
X173897432Y-119102714D01*
X173897432Y-119102714D02*
X173949813Y-119293190D01*
X173949813Y-119293190D02*
X173949813Y-119674142D01*
X173949813Y-119674142D02*
X173897432Y-119769380D01*
X173897432Y-119769380D02*
X173845051Y-119817000D01*
X173845051Y-119817000D02*
X173740289Y-119864619D01*
X173740289Y-119864619D02*
X173530765Y-119864619D01*
X173530765Y-119864619D02*
X173426003Y-119817000D01*
X173426003Y-119817000D02*
X173373622Y-119769380D01*
X173373622Y-119769380D02*
X173321241Y-119674142D01*
X173321241Y-119674142D02*
X173321241Y-119436047D01*
X173321241Y-119436047D02*
X173373622Y-119340809D01*
X173373622Y-119340809D02*
X173426003Y-119293190D01*
X173426003Y-119293190D02*
X173530765Y-119245571D01*
X173530765Y-119245571D02*
X173740289Y-119245571D01*
X173740289Y-119245571D02*
X173845051Y-119293190D01*
X173845051Y-119293190D02*
X173897432Y-119340809D01*
X173897432Y-119340809D02*
X173949813Y-119436047D01*
X172378384Y-119197952D02*
X172378384Y-119864619D01*
X172640289Y-118817000D02*
X172902194Y-119531285D01*
X172902194Y-119531285D02*
X172221241Y-119531285D01*
X171802194Y-119864619D02*
X171802194Y-118864619D01*
X171173622Y-119864619D02*
X171645051Y-119293190D01*
X171173622Y-118864619D02*
X171802194Y-119436047D01*
X170702194Y-119769380D02*
X170649813Y-119817000D01*
X170649813Y-119817000D02*
X170702194Y-119864619D01*
X170702194Y-119864619D02*
X170754575Y-119817000D01*
X170754575Y-119817000D02*
X170702194Y-119769380D01*
X170702194Y-119769380D02*
X170702194Y-119864619D01*
X170702194Y-119245571D02*
X170649813Y-119293190D01*
X170649813Y-119293190D02*
X170702194Y-119340809D01*
X170702194Y-119340809D02*
X170754575Y-119293190D01*
X170754575Y-119293190D02*
X170702194Y-119245571D01*
X170702194Y-119245571D02*
X170702194Y-119340809D01*
X169392670Y-119578904D02*
X168868860Y-119578904D01*
X169497432Y-119864619D02*
X169130765Y-118864619D01*
X169130765Y-118864619D02*
X168764098Y-119864619D01*
X168397432Y-119864619D02*
X168397432Y-119197952D01*
X168397432Y-118864619D02*
X168449813Y-118912238D01*
X168449813Y-118912238D02*
X168397432Y-118959857D01*
X168397432Y-118959857D02*
X168345051Y-118912238D01*
X168345051Y-118912238D02*
X168397432Y-118864619D01*
X168397432Y-118864619D02*
X168397432Y-118959857D01*
X167402193Y-119864619D02*
X167402193Y-118864619D01*
X167402193Y-119817000D02*
X167506955Y-119864619D01*
X167506955Y-119864619D02*
X167716479Y-119864619D01*
X167716479Y-119864619D02*
X167821241Y-119817000D01*
X167821241Y-119817000D02*
X167873622Y-119769380D01*
X167873622Y-119769380D02*
X167926003Y-119674142D01*
X167926003Y-119674142D02*
X167926003Y-119388428D01*
X167926003Y-119388428D02*
X167873622Y-119293190D01*
X167873622Y-119293190D02*
X167821241Y-119245571D01*
X167821241Y-119245571D02*
X167716479Y-119197952D01*
X167716479Y-119197952D02*
X167506955Y-119197952D01*
X167506955Y-119197952D02*
X167402193Y-119245571D01*
X166406955Y-119864619D02*
X166406955Y-119340809D01*
X166406955Y-119340809D02*
X166459336Y-119245571D01*
X166459336Y-119245571D02*
X166564098Y-119197952D01*
X166564098Y-119197952D02*
X166773622Y-119197952D01*
X166773622Y-119197952D02*
X166878384Y-119245571D01*
X166406955Y-119817000D02*
X166511717Y-119864619D01*
X166511717Y-119864619D02*
X166773622Y-119864619D01*
X166773622Y-119864619D02*
X166878384Y-119817000D01*
X166878384Y-119817000D02*
X166930765Y-119721761D01*
X166930765Y-119721761D02*
X166930765Y-119626523D01*
X166930765Y-119626523D02*
X166878384Y-119531285D01*
X166878384Y-119531285D02*
X166773622Y-119483666D01*
X166773622Y-119483666D02*
X166511717Y-119483666D01*
X166511717Y-119483666D02*
X166406955Y-119436047D01*
X165883146Y-119197952D02*
X165883146Y-119864619D01*
X165883146Y-119293190D02*
X165830765Y-119245571D01*
X165830765Y-119245571D02*
X165726003Y-119197952D01*
X165726003Y-119197952D02*
X165568860Y-119197952D01*
X165568860Y-119197952D02*
X165464098Y-119245571D01*
X165464098Y-119245571D02*
X165411717Y-119340809D01*
X165411717Y-119340809D02*
X165411717Y-119864619D01*
X164102194Y-119578904D02*
X163578384Y-119578904D01*
X164206956Y-119864619D02*
X163840289Y-118864619D01*
X163840289Y-118864619D02*
X163473622Y-119864619D01*
X162635527Y-119864619D02*
X162635527Y-119340809D01*
X162635527Y-119340809D02*
X162687908Y-119245571D01*
X162687908Y-119245571D02*
X162792670Y-119197952D01*
X162792670Y-119197952D02*
X163002194Y-119197952D01*
X163002194Y-119197952D02*
X163106956Y-119245571D01*
X162635527Y-119817000D02*
X162740289Y-119864619D01*
X162740289Y-119864619D02*
X163002194Y-119864619D01*
X163002194Y-119864619D02*
X163106956Y-119817000D01*
X163106956Y-119817000D02*
X163159337Y-119721761D01*
X163159337Y-119721761D02*
X163159337Y-119626523D01*
X163159337Y-119626523D02*
X163106956Y-119531285D01*
X163106956Y-119531285D02*
X163002194Y-119483666D01*
X163002194Y-119483666D02*
X162740289Y-119483666D01*
X162740289Y-119483666D02*
X162635527Y-119436047D01*
X161954575Y-119864619D02*
X162059337Y-119817000D01*
X162059337Y-119817000D02*
X162111718Y-119721761D01*
X162111718Y-119721761D02*
X162111718Y-118864619D01*
X161064099Y-119197952D02*
X161064099Y-119864619D01*
X161535528Y-119197952D02*
X161535528Y-119721761D01*
X161535528Y-119721761D02*
X161483147Y-119817000D01*
X161483147Y-119817000D02*
X161378385Y-119864619D01*
X161378385Y-119864619D02*
X161221242Y-119864619D01*
X161221242Y-119864619D02*
X161116480Y-119817000D01*
X161116480Y-119817000D02*
X161064099Y-119769380D01*
X160540290Y-119197952D02*
X160540290Y-119864619D01*
X160540290Y-119293190D02*
X160487909Y-119245571D01*
X160487909Y-119245571D02*
X160383147Y-119197952D01*
X160383147Y-119197952D02*
X160226004Y-119197952D01*
X160226004Y-119197952D02*
X160121242Y-119245571D01*
X160121242Y-119245571D02*
X160068861Y-119340809D01*
X160068861Y-119340809D02*
X160068861Y-119864619D01*
X159073623Y-119864619D02*
X159073623Y-118864619D01*
X159073623Y-119817000D02*
X159178385Y-119864619D01*
X159178385Y-119864619D02*
X159387909Y-119864619D01*
X159387909Y-119864619D02*
X159492671Y-119817000D01*
X159492671Y-119817000D02*
X159545052Y-119769380D01*
X159545052Y-119769380D02*
X159597433Y-119674142D01*
X159597433Y-119674142D02*
X159597433Y-119388428D01*
X159597433Y-119388428D02*
X159545052Y-119293190D01*
X159545052Y-119293190D02*
X159492671Y-119245571D01*
X159492671Y-119245571D02*
X159387909Y-119197952D01*
X159387909Y-119197952D02*
X159178385Y-119197952D01*
X159178385Y-119197952D02*
X159073623Y-119245571D01*
X158497433Y-119817000D02*
X158497433Y-119864619D01*
X158497433Y-119864619D02*
X158549814Y-119959857D01*
X158549814Y-119959857D02*
X158602195Y-120007476D01*
X156873623Y-118864619D02*
X156873623Y-119578904D01*
X156873623Y-119578904D02*
X156926004Y-119721761D01*
X156926004Y-119721761D02*
X157030766Y-119817000D01*
X157030766Y-119817000D02*
X157187909Y-119864619D01*
X157187909Y-119864619D02*
X157292671Y-119864619D01*
X155878385Y-119197952D02*
X155878385Y-119864619D01*
X156349814Y-119197952D02*
X156349814Y-119721761D01*
X156349814Y-119721761D02*
X156297433Y-119817000D01*
X156297433Y-119817000D02*
X156192671Y-119864619D01*
X156192671Y-119864619D02*
X156035528Y-119864619D01*
X156035528Y-119864619D02*
X155930766Y-119817000D01*
X155930766Y-119817000D02*
X155878385Y-119769380D01*
X155406957Y-119817000D02*
X155302195Y-119864619D01*
X155302195Y-119864619D02*
X155092671Y-119864619D01*
X155092671Y-119864619D02*
X154987909Y-119817000D01*
X154987909Y-119817000D02*
X154935528Y-119721761D01*
X154935528Y-119721761D02*
X154935528Y-119674142D01*
X154935528Y-119674142D02*
X154987909Y-119578904D01*
X154987909Y-119578904D02*
X155092671Y-119531285D01*
X155092671Y-119531285D02*
X155249814Y-119531285D01*
X155249814Y-119531285D02*
X155354576Y-119483666D01*
X155354576Y-119483666D02*
X155406957Y-119388428D01*
X155406957Y-119388428D02*
X155406957Y-119340809D01*
X155406957Y-119340809D02*
X155354576Y-119245571D01*
X155354576Y-119245571D02*
X155249814Y-119197952D01*
X155249814Y-119197952D02*
X155092671Y-119197952D01*
X155092671Y-119197952D02*
X154987909Y-119245571D01*
X154621243Y-119197952D02*
X154202195Y-119197952D01*
X154464100Y-118864619D02*
X154464100Y-119721761D01*
X154464100Y-119721761D02*
X154411719Y-119817000D01*
X154411719Y-119817000D02*
X154306957Y-119864619D01*
X154306957Y-119864619D02*
X154202195Y-119864619D01*
X153835529Y-119864619D02*
X153835529Y-119197952D01*
X153835529Y-118864619D02*
X153887910Y-118912238D01*
X153887910Y-118912238D02*
X153835529Y-118959857D01*
X153835529Y-118959857D02*
X153783148Y-118912238D01*
X153783148Y-118912238D02*
X153835529Y-118864619D01*
X153835529Y-118864619D02*
X153835529Y-118959857D01*
X153311719Y-119197952D02*
X153311719Y-119864619D01*
X153311719Y-119293190D02*
X153259338Y-119245571D01*
X153259338Y-119245571D02*
X153154576Y-119197952D01*
X153154576Y-119197952D02*
X152997433Y-119197952D01*
X152997433Y-119197952D02*
X152892671Y-119245571D01*
X152892671Y-119245571D02*
X152840290Y-119340809D01*
X152840290Y-119340809D02*
X152840290Y-119864619D01*
X151111719Y-119340809D02*
X150954576Y-119388428D01*
X150954576Y-119388428D02*
X150902195Y-119436047D01*
X150902195Y-119436047D02*
X150849814Y-119531285D01*
X150849814Y-119531285D02*
X150849814Y-119674142D01*
X150849814Y-119674142D02*
X150902195Y-119769380D01*
X150902195Y-119769380D02*
X150954576Y-119817000D01*
X150954576Y-119817000D02*
X151059338Y-119864619D01*
X151059338Y-119864619D02*
X151478386Y-119864619D01*
X151478386Y-119864619D02*
X151478386Y-118864619D01*
X151478386Y-118864619D02*
X151111719Y-118864619D01*
X151111719Y-118864619D02*
X151006957Y-118912238D01*
X151006957Y-118912238D02*
X150954576Y-118959857D01*
X150954576Y-118959857D02*
X150902195Y-119055095D01*
X150902195Y-119055095D02*
X150902195Y-119150333D01*
X150902195Y-119150333D02*
X150954576Y-119245571D01*
X150954576Y-119245571D02*
X151006957Y-119293190D01*
X151006957Y-119293190D02*
X151111719Y-119340809D01*
X151111719Y-119340809D02*
X151478386Y-119340809D01*
X149906957Y-119864619D02*
X149906957Y-119340809D01*
X149906957Y-119340809D02*
X149959338Y-119245571D01*
X149959338Y-119245571D02*
X150064100Y-119197952D01*
X150064100Y-119197952D02*
X150273624Y-119197952D01*
X150273624Y-119197952D02*
X150378386Y-119245571D01*
X149906957Y-119817000D02*
X150011719Y-119864619D01*
X150011719Y-119864619D02*
X150273624Y-119864619D01*
X150273624Y-119864619D02*
X150378386Y-119817000D01*
X150378386Y-119817000D02*
X150430767Y-119721761D01*
X150430767Y-119721761D02*
X150430767Y-119626523D01*
X150430767Y-119626523D02*
X150378386Y-119531285D01*
X150378386Y-119531285D02*
X150273624Y-119483666D01*
X150273624Y-119483666D02*
X150011719Y-119483666D01*
X150011719Y-119483666D02*
X149906957Y-119436047D01*
X149383148Y-119864619D02*
X149383148Y-118864619D01*
X148911719Y-119864619D02*
X148911719Y-119340809D01*
X148911719Y-119340809D02*
X148964100Y-119245571D01*
X148964100Y-119245571D02*
X149068862Y-119197952D01*
X149068862Y-119197952D02*
X149226005Y-119197952D01*
X149226005Y-119197952D02*
X149330767Y-119245571D01*
X149330767Y-119245571D02*
X149383148Y-119293190D01*
X148387910Y-119197952D02*
X148387910Y-119864619D01*
X148387910Y-119293190D02*
X148335529Y-119245571D01*
X148335529Y-119245571D02*
X148230767Y-119197952D01*
X148230767Y-119197952D02*
X148073624Y-119197952D01*
X148073624Y-119197952D02*
X147968862Y-119245571D01*
X147968862Y-119245571D02*
X147916481Y-119340809D01*
X147916481Y-119340809D02*
X147916481Y-119864619D01*
X147340291Y-119817000D02*
X147340291Y-119864619D01*
X147340291Y-119864619D02*
X147392672Y-119959857D01*
X147392672Y-119959857D02*
X147445053Y-120007476D01*
X146083148Y-119578904D02*
X145559338Y-119578904D01*
X146187910Y-119864619D02*
X145821243Y-118864619D01*
X145821243Y-118864619D02*
X145454576Y-119864619D01*
X144930767Y-119864619D02*
X145035529Y-119817000D01*
X145035529Y-119817000D02*
X145087910Y-119721761D01*
X145087910Y-119721761D02*
X145087910Y-118864619D01*
X144092672Y-119817000D02*
X144197434Y-119864619D01*
X144197434Y-119864619D02*
X144406958Y-119864619D01*
X144406958Y-119864619D02*
X144511720Y-119817000D01*
X144511720Y-119817000D02*
X144564101Y-119721761D01*
X144564101Y-119721761D02*
X144564101Y-119340809D01*
X144564101Y-119340809D02*
X144511720Y-119245571D01*
X144511720Y-119245571D02*
X144406958Y-119197952D01*
X144406958Y-119197952D02*
X144197434Y-119197952D01*
X144197434Y-119197952D02*
X144092672Y-119245571D01*
X144092672Y-119245571D02*
X144040291Y-119340809D01*
X144040291Y-119340809D02*
X144040291Y-119436047D01*
X144040291Y-119436047D02*
X144564101Y-119531285D01*
X143673625Y-119864619D02*
X143097434Y-119197952D01*
X143673625Y-119197952D02*
X143097434Y-119864619D01*
X141840292Y-119864619D02*
X141840292Y-118864619D01*
X141840292Y-119340809D02*
X141211720Y-119340809D01*
X141211720Y-119864619D02*
X141211720Y-118864619D01*
X140530768Y-119864619D02*
X140635530Y-119817000D01*
X140635530Y-119817000D02*
X140687911Y-119769380D01*
X140687911Y-119769380D02*
X140740292Y-119674142D01*
X140740292Y-119674142D02*
X140740292Y-119388428D01*
X140740292Y-119388428D02*
X140687911Y-119293190D01*
X140687911Y-119293190D02*
X140635530Y-119245571D01*
X140635530Y-119245571D02*
X140530768Y-119197952D01*
X140530768Y-119197952D02*
X140373625Y-119197952D01*
X140373625Y-119197952D02*
X140268863Y-119245571D01*
X140268863Y-119245571D02*
X140216482Y-119293190D01*
X140216482Y-119293190D02*
X140164101Y-119388428D01*
X140164101Y-119388428D02*
X140164101Y-119674142D01*
X140164101Y-119674142D02*
X140216482Y-119769380D01*
X140216482Y-119769380D02*
X140268863Y-119817000D01*
X140268863Y-119817000D02*
X140373625Y-119864619D01*
X140373625Y-119864619D02*
X140530768Y-119864619D01*
X139640292Y-119817000D02*
X139640292Y-119864619D01*
X139640292Y-119864619D02*
X139692673Y-119959857D01*
X139692673Y-119959857D02*
X139745054Y-120007476D01*
X138330768Y-119864619D02*
X138330768Y-118864619D01*
X137702196Y-119864619D02*
X138173625Y-119293190D01*
X137702196Y-118864619D02*
X138330768Y-119436047D01*
X137230768Y-119864619D02*
X137230768Y-119197952D01*
X137230768Y-118864619D02*
X137283149Y-118912238D01*
X137283149Y-118912238D02*
X137230768Y-118959857D01*
X137230768Y-118959857D02*
X137178387Y-118912238D01*
X137178387Y-118912238D02*
X137230768Y-118864619D01*
X137230768Y-118864619D02*
X137230768Y-118959857D01*
X136287910Y-119817000D02*
X136392672Y-119864619D01*
X136392672Y-119864619D02*
X136602196Y-119864619D01*
X136602196Y-119864619D02*
X136706958Y-119817000D01*
X136706958Y-119817000D02*
X136759339Y-119721761D01*
X136759339Y-119721761D02*
X136759339Y-119340809D01*
X136759339Y-119340809D02*
X136706958Y-119245571D01*
X136706958Y-119245571D02*
X136602196Y-119197952D01*
X136602196Y-119197952D02*
X136392672Y-119197952D01*
X136392672Y-119197952D02*
X136287910Y-119245571D01*
X136287910Y-119245571D02*
X136235529Y-119340809D01*
X136235529Y-119340809D02*
X136235529Y-119436047D01*
X136235529Y-119436047D02*
X136759339Y-119531285D01*
X135764101Y-119197952D02*
X135764101Y-119864619D01*
X135764101Y-119293190D02*
X135711720Y-119245571D01*
X135711720Y-119245571D02*
X135606958Y-119197952D01*
X135606958Y-119197952D02*
X135449815Y-119197952D01*
X135449815Y-119197952D02*
X135345053Y-119245571D01*
X135345053Y-119245571D02*
X135292672Y-119340809D01*
X135292672Y-119340809D02*
X135292672Y-119864619D01*
X134087911Y-118864619D02*
X133459339Y-118864619D01*
X133773625Y-119864619D02*
X133773625Y-118864619D01*
X132935530Y-119864619D02*
X133040292Y-119817000D01*
X133040292Y-119817000D02*
X133092673Y-119769380D01*
X133092673Y-119769380D02*
X133145054Y-119674142D01*
X133145054Y-119674142D02*
X133145054Y-119388428D01*
X133145054Y-119388428D02*
X133092673Y-119293190D01*
X133092673Y-119293190D02*
X133040292Y-119245571D01*
X133040292Y-119245571D02*
X132935530Y-119197952D01*
X132935530Y-119197952D02*
X132778387Y-119197952D01*
X132778387Y-119197952D02*
X132673625Y-119245571D01*
X132673625Y-119245571D02*
X132621244Y-119293190D01*
X132621244Y-119293190D02*
X132568863Y-119388428D01*
X132568863Y-119388428D02*
X132568863Y-119674142D01*
X132568863Y-119674142D02*
X132621244Y-119769380D01*
X132621244Y-119769380D02*
X132673625Y-119817000D01*
X132673625Y-119817000D02*
X132778387Y-119864619D01*
X132778387Y-119864619D02*
X132935530Y-119864619D01*
X132097435Y-119197952D02*
X132097435Y-119864619D01*
X132097435Y-119293190D02*
X132045054Y-119245571D01*
X132045054Y-119245571D02*
X131940292Y-119197952D01*
X131940292Y-119197952D02*
X131783149Y-119197952D01*
X131783149Y-119197952D02*
X131678387Y-119245571D01*
X131678387Y-119245571D02*
X131626006Y-119340809D01*
X131626006Y-119340809D02*
X131626006Y-119864619D01*
X131049816Y-119817000D02*
X131049816Y-119864619D01*
X131049816Y-119864619D02*
X131102197Y-119959857D01*
X131102197Y-119959857D02*
X131154578Y-120007476D01*
X129740292Y-119864619D02*
X129740292Y-118864619D01*
X129740292Y-118864619D02*
X129478387Y-118864619D01*
X129478387Y-118864619D02*
X129321244Y-118912238D01*
X129321244Y-118912238D02*
X129216482Y-119007476D01*
X129216482Y-119007476D02*
X129164101Y-119102714D01*
X129164101Y-119102714D02*
X129111720Y-119293190D01*
X129111720Y-119293190D02*
X129111720Y-119436047D01*
X129111720Y-119436047D02*
X129164101Y-119626523D01*
X129164101Y-119626523D02*
X129216482Y-119721761D01*
X129216482Y-119721761D02*
X129321244Y-119817000D01*
X129321244Y-119817000D02*
X129478387Y-119864619D01*
X129478387Y-119864619D02*
X129740292Y-119864619D01*
X128640292Y-119864619D02*
X128640292Y-119197952D01*
X128640292Y-118864619D02*
X128692673Y-118912238D01*
X128692673Y-118912238D02*
X128640292Y-118959857D01*
X128640292Y-118959857D02*
X128587911Y-118912238D01*
X128587911Y-118912238D02*
X128640292Y-118864619D01*
X128640292Y-118864619D02*
X128640292Y-118959857D01*
X128221244Y-119197952D02*
X127959339Y-119864619D01*
X127959339Y-119864619D02*
X127697434Y-119197952D01*
X127278387Y-119864619D02*
X127278387Y-119197952D01*
X127278387Y-118864619D02*
X127330768Y-118912238D01*
X127330768Y-118912238D02*
X127278387Y-118959857D01*
X127278387Y-118959857D02*
X127226006Y-118912238D01*
X127226006Y-118912238D02*
X127278387Y-118864619D01*
X127278387Y-118864619D02*
X127278387Y-118959857D01*
X126754577Y-119197952D02*
X126754577Y-119864619D01*
X126754577Y-119293190D02*
X126702196Y-119245571D01*
X126702196Y-119245571D02*
X126597434Y-119197952D01*
X126597434Y-119197952D02*
X126440291Y-119197952D01*
X126440291Y-119197952D02*
X126335529Y-119245571D01*
X126335529Y-119245571D02*
X126283148Y-119340809D01*
X126283148Y-119340809D02*
X126283148Y-119864619D01*
X125340291Y-119817000D02*
X125445053Y-119864619D01*
X125445053Y-119864619D02*
X125654577Y-119864619D01*
X125654577Y-119864619D02*
X125759339Y-119817000D01*
X125759339Y-119817000D02*
X125811720Y-119721761D01*
X125811720Y-119721761D02*
X125811720Y-119340809D01*
X125811720Y-119340809D02*
X125759339Y-119245571D01*
X125759339Y-119245571D02*
X125654577Y-119197952D01*
X125654577Y-119197952D02*
X125445053Y-119197952D01*
X125445053Y-119197952D02*
X125340291Y-119245571D01*
X125340291Y-119245571D02*
X125287910Y-119340809D01*
X125287910Y-119340809D02*
X125287910Y-119436047D01*
X125287910Y-119436047D02*
X125811720Y-119531285D01*
X123611720Y-119340809D02*
X123978387Y-119340809D01*
X123978387Y-119864619D02*
X123978387Y-118864619D01*
X123978387Y-118864619D02*
X123454577Y-118864619D01*
X122564101Y-119864619D02*
X122564101Y-119340809D01*
X122564101Y-119340809D02*
X122616482Y-119245571D01*
X122616482Y-119245571D02*
X122721244Y-119197952D01*
X122721244Y-119197952D02*
X122930768Y-119197952D01*
X122930768Y-119197952D02*
X123035530Y-119245571D01*
X122564101Y-119817000D02*
X122668863Y-119864619D01*
X122668863Y-119864619D02*
X122930768Y-119864619D01*
X122930768Y-119864619D02*
X123035530Y-119817000D01*
X123035530Y-119817000D02*
X123087911Y-119721761D01*
X123087911Y-119721761D02*
X123087911Y-119626523D01*
X123087911Y-119626523D02*
X123035530Y-119531285D01*
X123035530Y-119531285D02*
X122930768Y-119483666D01*
X122930768Y-119483666D02*
X122668863Y-119483666D01*
X122668863Y-119483666D02*
X122564101Y-119436047D01*
X122145054Y-119197952D02*
X121883149Y-119864619D01*
X121883149Y-119864619D02*
X121621244Y-119197952D01*
X121045054Y-119864619D02*
X121149816Y-119817000D01*
X121149816Y-119817000D02*
X121202197Y-119769380D01*
X121202197Y-119769380D02*
X121254578Y-119674142D01*
X121254578Y-119674142D02*
X121254578Y-119388428D01*
X121254578Y-119388428D02*
X121202197Y-119293190D01*
X121202197Y-119293190D02*
X121149816Y-119245571D01*
X121149816Y-119245571D02*
X121045054Y-119197952D01*
X121045054Y-119197952D02*
X120887911Y-119197952D01*
X120887911Y-119197952D02*
X120783149Y-119245571D01*
X120783149Y-119245571D02*
X120730768Y-119293190D01*
X120730768Y-119293190D02*
X120678387Y-119388428D01*
X120678387Y-119388428D02*
X120678387Y-119674142D01*
X120678387Y-119674142D02*
X120730768Y-119769380D01*
X120730768Y-119769380D02*
X120783149Y-119817000D01*
X120783149Y-119817000D02*
X120887911Y-119864619D01*
X120887911Y-119864619D02*
X121045054Y-119864619D01*
X119735530Y-119197952D02*
X119735530Y-119864619D01*
X120206959Y-119197952D02*
X120206959Y-119721761D01*
X120206959Y-119721761D02*
X120154578Y-119817000D01*
X120154578Y-119817000D02*
X120049816Y-119864619D01*
X120049816Y-119864619D02*
X119892673Y-119864619D01*
X119892673Y-119864619D02*
X119787911Y-119817000D01*
X119787911Y-119817000D02*
X119735530Y-119769380D01*
X119211721Y-119864619D02*
X119211721Y-119197952D01*
X119211721Y-119388428D02*
X119159340Y-119293190D01*
X119159340Y-119293190D02*
X119106959Y-119245571D01*
X119106959Y-119245571D02*
X119002197Y-119197952D01*
X119002197Y-119197952D02*
X118897435Y-119197952D01*
X117692674Y-119864619D02*
X117692674Y-118864619D01*
X117168864Y-119197952D02*
X117168864Y-119864619D01*
X117168864Y-119293190D02*
X117116483Y-119245571D01*
X117116483Y-119245571D02*
X117011721Y-119197952D01*
X117011721Y-119197952D02*
X116854578Y-119197952D01*
X116854578Y-119197952D02*
X116749816Y-119245571D01*
X116749816Y-119245571D02*
X116697435Y-119340809D01*
X116697435Y-119340809D02*
X116697435Y-119864619D01*
X116278388Y-119197952D02*
X116016483Y-119864619D01*
X115754578Y-119197952D02*
X116016483Y-119864619D01*
X116016483Y-119864619D02*
X116121245Y-120102714D01*
X116121245Y-120102714D02*
X116173626Y-120150333D01*
X116173626Y-120150333D02*
X116278388Y-120197952D01*
X115335531Y-119864619D02*
X115335531Y-119197952D01*
X115335531Y-118864619D02*
X115387912Y-118912238D01*
X115387912Y-118912238D02*
X115335531Y-118959857D01*
X115335531Y-118959857D02*
X115283150Y-118912238D01*
X115283150Y-118912238D02*
X115335531Y-118864619D01*
X115335531Y-118864619D02*
X115335531Y-118959857D01*
D13*
%TO.C,G\u002A\u002A\u002A*%
G36*
X136033754Y-114344629D02*
G01*
X136181165Y-114461420D01*
X136316415Y-114593321D01*
X136439233Y-114740058D01*
X136549344Y-114901354D01*
X136646476Y-115076936D01*
X136686570Y-115162621D01*
X136723232Y-115250572D01*
X136725118Y-115255096D01*
X136758973Y-115346874D01*
X136787105Y-115434718D01*
X136808480Y-115515395D01*
X136822067Y-115585669D01*
X136826834Y-115642306D01*
X136827135Y-115658153D01*
X136830109Y-115678873D01*
X136835199Y-115690105D01*
X136838572Y-115697549D01*
X136855287Y-115719480D01*
X136883020Y-115749961D01*
X136895485Y-115763743D01*
X136955645Y-115847126D01*
X136999436Y-115940458D01*
X137026342Y-116042385D01*
X137035848Y-116151551D01*
X137033226Y-116223885D01*
X137023192Y-116288888D01*
X137003996Y-116353391D01*
X136973895Y-116425089D01*
X136945338Y-116480359D01*
X136890323Y-116562634D01*
X136821480Y-116640636D01*
X136736933Y-116716395D01*
X136634807Y-116791938D01*
X136623705Y-116799574D01*
X136584651Y-116828302D01*
X136555991Y-116854189D01*
X136532318Y-116882672D01*
X136508225Y-116919187D01*
X136466967Y-116981925D01*
X136455490Y-116999378D01*
X136346149Y-117138887D01*
X136222965Y-117265518D01*
X136087078Y-117378543D01*
X135939631Y-117477239D01*
X135781767Y-117560879D01*
X135614628Y-117628736D01*
X135439356Y-117680086D01*
X135257092Y-117714202D01*
X135249481Y-117715185D01*
X135200171Y-117720013D01*
X135139630Y-117724072D01*
X135074822Y-117726959D01*
X135012712Y-117728275D01*
X135009322Y-117728295D01*
X134820104Y-117720268D01*
X134636482Y-117694593D01*
X134459480Y-117651814D01*
X134290121Y-117592476D01*
X134129429Y-117517122D01*
X133978426Y-117426299D01*
X133838135Y-117320549D01*
X133709581Y-117200418D01*
X133593787Y-117066449D01*
X133535489Y-116982291D01*
X133721575Y-116982291D01*
X133724960Y-116993723D01*
X133740778Y-117015413D01*
X133766752Y-117045109D01*
X133800605Y-117080558D01*
X133840061Y-117119509D01*
X133882843Y-117159711D01*
X133926673Y-117198910D01*
X133969276Y-117234856D01*
X134008374Y-117265296D01*
X134014569Y-117269829D01*
X134054032Y-117297681D01*
X134093307Y-117323979D01*
X134124727Y-117343566D01*
X134172646Y-117371452D01*
X134166534Y-117347103D01*
X134164213Y-117333462D01*
X134160703Y-117302403D01*
X134157083Y-117261023D01*
X134153849Y-117214512D01*
X134150115Y-117153033D01*
X134277018Y-117153033D01*
X134278217Y-117181314D01*
X134281164Y-117219617D01*
X134285409Y-117263578D01*
X134290499Y-117308834D01*
X134295984Y-117351022D01*
X134299173Y-117371452D01*
X134301410Y-117385779D01*
X134306328Y-117408743D01*
X134309826Y-117419761D01*
X134317714Y-117434961D01*
X134331263Y-117446907D01*
X134354735Y-117458828D01*
X134392394Y-117473955D01*
X134423860Y-117485385D01*
X134496733Y-117508326D01*
X134577421Y-117530086D01*
X134658201Y-117548658D01*
X134731347Y-117562035D01*
X134736343Y-117562789D01*
X134809196Y-117572972D01*
X134864364Y-117578861D01*
X134903131Y-117580513D01*
X134926783Y-117577987D01*
X134926972Y-117577859D01*
X135063500Y-117577859D01*
X135097693Y-117579057D01*
X135129715Y-117578869D01*
X135161193Y-117576638D01*
X135206322Y-117570696D01*
X135355285Y-117545268D01*
X135489723Y-117512865D01*
X135607607Y-117473955D01*
X135630498Y-117464978D01*
X135659763Y-117452027D01*
X135677205Y-117440491D01*
X135687088Y-117427139D01*
X135693673Y-117408743D01*
X135694304Y-117406438D01*
X135699319Y-117381589D01*
X135701842Y-117364937D01*
X135834048Y-117364937D01*
X135837697Y-117365221D01*
X135854896Y-117357530D01*
X135882971Y-117340574D01*
X135919083Y-117316397D01*
X135960392Y-117287041D01*
X136004057Y-117254549D01*
X136047239Y-117220964D01*
X136087097Y-117188329D01*
X136120792Y-117158686D01*
X136140887Y-117139594D01*
X136174188Y-117106214D01*
X136206850Y-117071708D01*
X136236223Y-117039051D01*
X136259660Y-117011218D01*
X136274512Y-116991184D01*
X136278131Y-116981925D01*
X136268752Y-116983096D01*
X136244534Y-116989746D01*
X136209337Y-117000836D01*
X136166953Y-117015231D01*
X136139000Y-117024758D01*
X136076456Y-117044792D01*
X136011684Y-117064202D01*
X135954943Y-117079861D01*
X135849923Y-117106999D01*
X135849585Y-117150163D01*
X135849495Y-117161698D01*
X135848244Y-117196914D01*
X135845015Y-117243976D01*
X135840572Y-117289666D01*
X135839779Y-117296589D01*
X135836198Y-117330605D01*
X135834146Y-117355020D01*
X135834048Y-117364937D01*
X135701842Y-117364937D01*
X135704780Y-117345547D01*
X135710237Y-117302677D01*
X135715238Y-117257340D01*
X135719331Y-117213900D01*
X135722064Y-117176720D01*
X135722985Y-117150163D01*
X135721643Y-117138591D01*
X135719388Y-117137938D01*
X135702125Y-117138482D01*
X135672201Y-117141906D01*
X135634361Y-117147716D01*
X135528242Y-117163626D01*
X135376483Y-117179744D01*
X135210039Y-117190272D01*
X135063500Y-117196859D01*
X135063500Y-117387359D01*
X135063500Y-117435379D01*
X135063500Y-117577859D01*
X134926972Y-117577859D01*
X134936604Y-117571342D01*
X134938067Y-117558652D01*
X134939151Y-117529425D01*
X134939726Y-117487215D01*
X134939748Y-117435379D01*
X134939171Y-117377275D01*
X134936500Y-117196859D01*
X134789962Y-117190272D01*
X134664247Y-117182932D01*
X134509151Y-117168274D01*
X134365640Y-117147716D01*
X134350605Y-117145255D01*
X134315219Y-117140295D01*
X134289555Y-117137908D01*
X134278358Y-117138591D01*
X134278021Y-117139135D01*
X134277018Y-117153033D01*
X134150115Y-117153033D01*
X134147275Y-117106270D01*
X134043657Y-117079496D01*
X134016134Y-117072105D01*
X133954605Y-117054285D01*
X133890198Y-117034295D01*
X133833048Y-117015231D01*
X133792714Y-117001510D01*
X133757052Y-116990221D01*
X133732172Y-116983313D01*
X133721870Y-116981925D01*
X133721575Y-116982291D01*
X133535489Y-116982291D01*
X133491775Y-116919187D01*
X133485874Y-116909729D01*
X133462359Y-116875559D01*
X133438013Y-116848161D01*
X133407427Y-116822099D01*
X133365194Y-116791938D01*
X133298339Y-116743985D01*
X133207570Y-116668540D01*
X133133192Y-116591595D01*
X133073329Y-116511121D01*
X133026106Y-116425089D01*
X132997627Y-116357589D01*
X132977845Y-116292243D01*
X132967363Y-116226226D01*
X132964420Y-116152586D01*
X133115854Y-116152586D01*
X133119963Y-116228524D01*
X133135820Y-116297299D01*
X133164740Y-116365782D01*
X133177104Y-116388795D01*
X133237533Y-116477292D01*
X133316159Y-116562035D01*
X133412050Y-116642118D01*
X133524278Y-116716633D01*
X133594755Y-116755611D01*
X133719089Y-116813549D01*
X133857700Y-116866897D01*
X134007535Y-116914798D01*
X134165543Y-116956395D01*
X134328671Y-116990832D01*
X134493866Y-117017252D01*
X134658077Y-117034799D01*
X134785697Y-117043117D01*
X135053429Y-117048701D01*
X135311983Y-117037527D01*
X135561138Y-117009622D01*
X135800674Y-116965017D01*
X136030369Y-116903740D01*
X136250002Y-116825820D01*
X136299744Y-116805016D01*
X136433741Y-116739787D01*
X136552346Y-116667581D01*
X136654808Y-116589022D01*
X136740374Y-116504736D01*
X136808291Y-116415346D01*
X136857805Y-116321478D01*
X136865852Y-116300506D01*
X136872947Y-116274521D01*
X136877166Y-116244467D01*
X136879170Y-116205193D01*
X136879620Y-116151551D01*
X136879616Y-116149473D01*
X136877944Y-116083618D01*
X136872488Y-116031816D01*
X136861993Y-115988882D01*
X136845204Y-115949634D01*
X136820866Y-115908889D01*
X136796106Y-115871382D01*
X136741820Y-115931370D01*
X136701432Y-115972264D01*
X136640082Y-116022246D01*
X136567397Y-116068569D01*
X136479326Y-116114053D01*
X136460439Y-116122832D01*
X136324466Y-116177662D01*
X136171793Y-116226042D01*
X136004029Y-116267699D01*
X135822781Y-116302360D01*
X135629658Y-116329753D01*
X135426267Y-116349605D01*
X135214217Y-116361644D01*
X134995116Y-116365597D01*
X134960929Y-116365469D01*
X134744697Y-116359930D01*
X134535506Y-116346431D01*
X134335007Y-116325254D01*
X134144851Y-116296680D01*
X133966688Y-116260991D01*
X133802171Y-116218470D01*
X133652949Y-116169396D01*
X133520675Y-116114053D01*
X133454010Y-116080444D01*
X133377689Y-116034613D01*
X133313763Y-115985862D01*
X133258181Y-115931370D01*
X133203895Y-115871382D01*
X133179135Y-115908889D01*
X133172358Y-115919524D01*
X133144218Y-115976453D01*
X133126387Y-116040733D01*
X133117259Y-116117791D01*
X133115854Y-116152586D01*
X132964420Y-116152586D01*
X132964379Y-116151551D01*
X132964736Y-116130777D01*
X132977218Y-116023311D01*
X133007116Y-115923064D01*
X133053885Y-115831470D01*
X133116981Y-115749961D01*
X133126782Y-115739407D01*
X133151257Y-115711307D01*
X133165283Y-115690247D01*
X133167335Y-115684116D01*
X133321769Y-115684116D01*
X133321859Y-115738019D01*
X133328786Y-115778271D01*
X133329684Y-115780845D01*
X133351105Y-115817218D01*
X133388525Y-115856825D01*
X133439329Y-115897760D01*
X133500904Y-115938118D01*
X133570637Y-115975994D01*
X133645915Y-116009481D01*
X133671806Y-116019466D01*
X133759958Y-116050176D01*
X133856613Y-116079811D01*
X133953567Y-116105957D01*
X134042616Y-116126200D01*
X134044765Y-116126630D01*
X134119362Y-116140990D01*
X134184877Y-116152529D01*
X134239313Y-116160964D01*
X134280670Y-116166014D01*
X134306950Y-116167394D01*
X134316154Y-116164825D01*
X134315466Y-116162604D01*
X134306545Y-116146346D01*
X134288514Y-116117113D01*
X134262899Y-116077158D01*
X134231224Y-116028738D01*
X134195016Y-115974105D01*
X134155800Y-115915514D01*
X134115102Y-115855219D01*
X134074448Y-115795475D01*
X134035363Y-115738537D01*
X133999373Y-115686658D01*
X133968003Y-115642092D01*
X133942779Y-115607095D01*
X133925226Y-115583920D01*
X133916871Y-115574821D01*
X133916484Y-115574669D01*
X133902010Y-115569520D01*
X133871764Y-115559084D01*
X133828298Y-115544233D01*
X133774165Y-115525834D01*
X133743818Y-115515559D01*
X134077888Y-115515559D01*
X134078913Y-115517948D01*
X134088540Y-115534439D01*
X134107365Y-115564689D01*
X134134248Y-115606924D01*
X134168048Y-115659369D01*
X134207623Y-115720251D01*
X134251833Y-115787795D01*
X134299537Y-115860228D01*
X134500746Y-116164825D01*
X134520107Y-116194135D01*
X134562227Y-116199938D01*
X134577842Y-116201654D01*
X134613144Y-116204641D01*
X134660643Y-116208086D01*
X134716109Y-116211686D01*
X134775308Y-116215139D01*
X134776743Y-116215217D01*
X134875428Y-116219234D01*
X134979639Y-116221040D01*
X135085210Y-116220729D01*
X135187974Y-116218395D01*
X135283767Y-116214132D01*
X135368422Y-116208034D01*
X135437774Y-116200196D01*
X135479894Y-116194135D01*
X135498856Y-116165430D01*
X135685740Y-116165430D01*
X135689981Y-116166848D01*
X135710403Y-116166249D01*
X135744711Y-116162452D01*
X135789649Y-116156001D01*
X135841961Y-116147439D01*
X135898392Y-116137311D01*
X135955687Y-116126159D01*
X136010591Y-116114527D01*
X136059847Y-116102960D01*
X136140686Y-116081290D01*
X136260961Y-116043171D01*
X136369494Y-116001281D01*
X136464728Y-115956383D01*
X136545101Y-115909242D01*
X136609055Y-115860622D01*
X136655030Y-115811288D01*
X136666077Y-115788627D01*
X136674594Y-115745313D01*
X136676425Y-115690105D01*
X136671866Y-115626574D01*
X136661212Y-115558291D01*
X136644758Y-115488827D01*
X136622800Y-115421753D01*
X136612751Y-115395339D01*
X136355895Y-115481876D01*
X136350538Y-115483681D01*
X136283065Y-115506455D01*
X136256183Y-115515559D01*
X136221350Y-115527356D01*
X136167947Y-115545512D01*
X136125408Y-115560055D01*
X136096285Y-115570115D01*
X136083130Y-115574821D01*
X136075654Y-115582419D01*
X136058276Y-115604728D01*
X136032689Y-115639786D01*
X136000230Y-115685698D01*
X135962235Y-115740571D01*
X135920041Y-115802513D01*
X135874985Y-115869629D01*
X135834408Y-115930773D01*
X135793404Y-115993159D01*
X135757285Y-116048743D01*
X135727255Y-116095645D01*
X135704518Y-116131982D01*
X135690278Y-116155870D01*
X135685740Y-116165430D01*
X135498856Y-116165430D01*
X135700464Y-115860228D01*
X135720692Y-115829568D01*
X135767079Y-115758956D01*
X135809496Y-115693972D01*
X135846804Y-115636390D01*
X135877860Y-115587983D01*
X135901524Y-115550526D01*
X135916656Y-115525794D01*
X135922113Y-115515559D01*
X135922010Y-115515009D01*
X135914568Y-115503082D01*
X135896340Y-115477978D01*
X135868657Y-115441421D01*
X135832852Y-115395135D01*
X135790259Y-115340846D01*
X135742208Y-115280278D01*
X135690032Y-115215155D01*
X135456872Y-114925513D01*
X135000000Y-114925513D01*
X134543129Y-114925513D01*
X134309968Y-115215155D01*
X134301842Y-115225258D01*
X134250206Y-115289801D01*
X134202897Y-115349527D01*
X134161248Y-115402714D01*
X134126590Y-115447635D01*
X134100255Y-115482566D01*
X134083577Y-115505782D01*
X134077888Y-115515559D01*
X133743818Y-115515559D01*
X133711917Y-115504758D01*
X133644106Y-115481876D01*
X133387250Y-115395339D01*
X133377371Y-115421324D01*
X133356515Y-115484647D01*
X133339699Y-115553014D01*
X133327916Y-115620976D01*
X133321769Y-115684116D01*
X133167335Y-115684116D01*
X133171652Y-115671220D01*
X133173154Y-115649221D01*
X133176177Y-115603875D01*
X133188128Y-115533955D01*
X133208197Y-115453129D01*
X133235355Y-115364694D01*
X133268569Y-115271947D01*
X133276305Y-115252979D01*
X133438907Y-115252979D01*
X133438909Y-115252982D01*
X133448604Y-115256736D01*
X133474371Y-115265895D01*
X133513777Y-115279616D01*
X133564390Y-115297058D01*
X133623776Y-115317378D01*
X133689502Y-115339733D01*
X133755213Y-115361937D01*
X133815013Y-115381986D01*
X133866216Y-115398990D01*
X133906347Y-115412132D01*
X133932934Y-115420597D01*
X133943502Y-115423567D01*
X133944407Y-115423550D01*
X133946339Y-115423062D01*
X133949378Y-115420846D01*
X133954641Y-115415554D01*
X133963240Y-115405837D01*
X133976293Y-115390346D01*
X133994915Y-115367734D01*
X134020220Y-115336651D01*
X134053324Y-115295749D01*
X134095342Y-115243679D01*
X134147391Y-115179093D01*
X134210584Y-115100643D01*
X134411822Y-114850813D01*
X135588179Y-114850813D01*
X135789417Y-115100643D01*
X135817049Y-115134943D01*
X135865744Y-115195365D01*
X135910822Y-115251272D01*
X135950557Y-115300523D01*
X135983220Y-115340977D01*
X136007085Y-115370494D01*
X136020424Y-115386933D01*
X136030551Y-115398672D01*
X136048536Y-115416254D01*
X136059962Y-115423001D01*
X136063145Y-115422258D01*
X136081954Y-115416499D01*
X136114742Y-115405879D01*
X136158552Y-115391402D01*
X136210428Y-115374070D01*
X136267414Y-115354886D01*
X136326555Y-115334853D01*
X136384893Y-115314973D01*
X136439473Y-115296251D01*
X136487340Y-115279688D01*
X136525536Y-115266288D01*
X136551106Y-115257053D01*
X136561094Y-115252986D01*
X136561282Y-115250572D01*
X136555855Y-115234213D01*
X136543576Y-115205799D01*
X136526208Y-115168920D01*
X136505513Y-115127167D01*
X136483254Y-115084127D01*
X136461192Y-115043392D01*
X136441090Y-115008551D01*
X136417445Y-114970579D01*
X136339887Y-114858622D01*
X136254282Y-114751069D01*
X136166393Y-114655332D01*
X136142707Y-114632365D01*
X136103747Y-114596851D01*
X136060954Y-114559846D01*
X136016957Y-114523421D01*
X135974386Y-114489649D01*
X135935870Y-114460603D01*
X135904040Y-114438353D01*
X135881525Y-114424973D01*
X135870954Y-114422534D01*
X135865477Y-114430153D01*
X135850513Y-114452226D01*
X135827665Y-114486440D01*
X135798416Y-114530559D01*
X135764252Y-114582351D01*
X135726658Y-114639581D01*
X135588179Y-114850813D01*
X134411822Y-114850813D01*
X134271060Y-114636605D01*
X134235132Y-114582560D01*
X134199945Y-114530933D01*
X134169268Y-114487272D01*
X134144618Y-114453691D01*
X134127514Y-114432305D01*
X134119472Y-114425232D01*
X134108466Y-114431435D01*
X134085068Y-114447112D01*
X134052955Y-114469797D01*
X134015637Y-114497062D01*
X133974814Y-114528529D01*
X133855337Y-114634512D01*
X133742629Y-114755061D01*
X133639564Y-114886612D01*
X133549017Y-115025603D01*
X133473865Y-115168471D01*
X133464965Y-115187950D01*
X133450702Y-115220516D01*
X133441456Y-115243545D01*
X133438907Y-115252979D01*
X133276305Y-115252979D01*
X133306809Y-115178185D01*
X133349045Y-115086705D01*
X133417675Y-114957961D01*
X133521121Y-114795683D01*
X133636518Y-114646789D01*
X133762775Y-114512653D01*
X133898802Y-114394648D01*
X133969565Y-114344243D01*
X134258465Y-114344243D01*
X134401684Y-114561609D01*
X134544903Y-114778974D01*
X135000000Y-114778974D01*
X135455098Y-114778974D01*
X135598317Y-114561609D01*
X135741536Y-114344243D01*
X135677694Y-114311953D01*
X135638593Y-114293726D01*
X135566496Y-114265144D01*
X135484366Y-114237280D01*
X135397855Y-114212003D01*
X135312616Y-114191183D01*
X135290300Y-114186492D01*
X135254318Y-114179937D01*
X135218675Y-114175209D01*
X135179396Y-114172024D01*
X135132507Y-114170100D01*
X135074034Y-114169154D01*
X135000000Y-114168901D01*
X134955428Y-114168978D01*
X134890800Y-114169594D01*
X134839454Y-114171066D01*
X134797413Y-114173677D01*
X134760705Y-114177712D01*
X134725354Y-114183453D01*
X134687385Y-114191183D01*
X134631938Y-114204233D01*
X134545226Y-114228186D01*
X134460949Y-114255370D01*
X134384758Y-114283916D01*
X134322307Y-114311953D01*
X134258465Y-114344243D01*
X133969565Y-114344243D01*
X134032087Y-114299708D01*
X134192344Y-114206694D01*
X134358554Y-114131394D01*
X134529521Y-114073943D01*
X134704050Y-114034477D01*
X134880945Y-114013133D01*
X135059010Y-114010046D01*
X135237050Y-114025352D01*
X135413869Y-114059188D01*
X135588271Y-114111689D01*
X135759060Y-114182992D01*
X135874456Y-114243223D01*
X136033148Y-114344243D01*
X136033754Y-114344629D01*
G37*
G36*
X181135066Y-115028733D02*
G01*
X181177939Y-115066393D01*
X181146843Y-115099343D01*
X181052693Y-115116492D01*
X180970319Y-115104054D01*
X180927446Y-115066393D01*
X180958542Y-115033444D01*
X181052693Y-115016295D01*
X181135066Y-115028733D01*
G37*
G36*
X181485756Y-114978634D02*
G01*
X181528629Y-115016295D01*
X181497534Y-115049244D01*
X181403383Y-115066393D01*
X181321010Y-115053955D01*
X181278136Y-115016295D01*
X181309232Y-114983346D01*
X181403383Y-114966196D01*
X181485756Y-114978634D01*
G37*
G36*
X181485756Y-115229128D02*
G01*
X181528629Y-115266788D01*
X181497534Y-115299737D01*
X181403383Y-115316887D01*
X181321010Y-115304448D01*
X181278136Y-115266788D01*
X181309232Y-115233839D01*
X181403383Y-115216689D01*
X181485756Y-115229128D01*
G37*
G36*
X182384791Y-115475195D02*
G01*
X182455454Y-115517281D01*
X182443450Y-115551476D01*
X182358213Y-115567380D01*
X182272972Y-115554622D01*
X182230010Y-115517281D01*
X182247461Y-115488732D01*
X182327251Y-115467182D01*
X182384791Y-115475195D01*
G37*
G36*
X182388444Y-115025689D02*
G01*
X182430405Y-115066393D01*
X182411616Y-115095512D01*
X182330207Y-115116492D01*
X182271970Y-115107098D01*
X182230010Y-115066393D01*
X182248799Y-115037275D01*
X182330207Y-115016295D01*
X182388444Y-115025689D01*
G37*
G36*
X182439925Y-115272440D02*
G01*
X182480503Y-115316887D01*
X182472025Y-115339933D01*
X182405355Y-115366985D01*
X182370785Y-115361333D01*
X182330207Y-115316887D01*
X182338686Y-115293840D01*
X182405355Y-115266788D01*
X182439925Y-115272440D01*
G37*
G36*
X181109679Y-115487927D02*
G01*
X181118669Y-115537521D01*
X181040168Y-115582944D01*
X180992301Y-115595833D01*
X180939971Y-115611667D01*
X180934168Y-115605752D01*
X180927446Y-115542330D01*
X180946043Y-115498508D01*
X181027643Y-115467182D01*
X181109679Y-115487927D01*
G37*
G36*
X181216395Y-115238446D02*
G01*
X181222940Y-115263906D01*
X181176488Y-115318843D01*
X181164070Y-115326205D01*
X181059483Y-115361253D01*
X180967173Y-115358411D01*
X180927446Y-115317841D01*
X180955861Y-115279970D01*
X181044195Y-115240866D01*
X181146875Y-115222674D01*
X181216395Y-115238446D01*
G37*
G36*
X181466006Y-115443669D02*
G01*
X181501957Y-115460984D01*
X181509946Y-115487750D01*
X181428432Y-115519183D01*
X181401477Y-115527344D01*
X181287862Y-115557085D01*
X181238679Y-115553356D01*
X181228038Y-115515709D01*
X181261817Y-115457793D01*
X181354916Y-115426737D01*
X181466006Y-115443669D01*
G37*
G36*
X182135046Y-114982558D02*
G01*
X182179911Y-115032667D01*
X182145930Y-115076682D01*
X182029616Y-115077080D01*
X182027679Y-115076792D01*
X181922832Y-115048172D01*
X181879320Y-115010609D01*
X181879330Y-115010077D01*
X181924064Y-114979067D01*
X182029616Y-114966196D01*
X182135046Y-114982558D01*
G37*
G36*
X182023274Y-115429364D02*
G01*
X182116902Y-115460929D01*
X182170359Y-115512740D01*
X182170763Y-115556406D01*
X182107502Y-115550313D01*
X182058584Y-115534770D01*
X181950370Y-115517281D01*
X181919538Y-115511956D01*
X181879320Y-115463855D01*
X181880652Y-115454708D01*
X181930763Y-115424979D01*
X182023274Y-115429364D01*
G37*
G36*
X182124635Y-115217967D02*
G01*
X182235664Y-115235416D01*
X182280109Y-115266788D01*
X182274999Y-115278018D01*
X182205202Y-115305775D01*
X182079714Y-115316887D01*
X182034794Y-115315609D01*
X181923765Y-115298160D01*
X181879320Y-115266788D01*
X181884430Y-115255558D01*
X181954227Y-115227801D01*
X182079714Y-115216689D01*
X182124635Y-115217967D01*
G37*
G36*
X182333311Y-117184032D02*
G01*
X182213932Y-117277819D01*
X182116931Y-117364980D01*
X182079714Y-117414157D01*
X182090641Y-117464607D01*
X182126957Y-117586475D01*
X182179911Y-117746670D01*
X182226031Y-117882841D01*
X182265094Y-118003182D01*
X182280109Y-118056685D01*
X182280052Y-118057026D01*
X182240857Y-118037356D01*
X182142913Y-117971605D01*
X182006705Y-117873496D01*
X181864301Y-117771849D01*
X181753361Y-117699225D01*
X181698141Y-117671522D01*
X181645032Y-117698424D01*
X181535959Y-117771114D01*
X181395411Y-117873539D01*
X181390710Y-117877081D01*
X181258106Y-117970945D01*
X181163766Y-118026448D01*
X181127840Y-118031678D01*
X181138722Y-117980224D01*
X181175041Y-117857294D01*
X181228038Y-117696571D01*
X181274301Y-117560461D01*
X181313263Y-117441986D01*
X181328235Y-117390893D01*
X181328097Y-117390343D01*
X181286493Y-117353482D01*
X181185030Y-117275806D01*
X181044537Y-117173293D01*
X180971886Y-117121269D01*
X181261452Y-117121269D01*
X181372586Y-117239565D01*
X181451773Y-117360813D01*
X181450645Y-117489642D01*
X181448156Y-117499880D01*
X181442113Y-117596273D01*
X181491009Y-117611318D01*
X181598468Y-117546408D01*
X181662532Y-117508123D01*
X181733986Y-117513409D01*
X181839795Y-117578853D01*
X181986235Y-117683128D01*
X181952254Y-117501997D01*
X181939444Y-117408570D01*
X181957454Y-117309415D01*
X182034329Y-117226892D01*
X182150384Y-117132916D01*
X181985294Y-117096656D01*
X181848779Y-117038119D01*
X181756566Y-116909046D01*
X181692928Y-116757696D01*
X181640976Y-116906725D01*
X181636950Y-116917888D01*
X181561021Y-117033125D01*
X181425238Y-117088512D01*
X181261452Y-117121269D01*
X180971886Y-117121269D01*
X180760839Y-116970141D01*
X181118243Y-116970141D01*
X181475647Y-116970141D01*
X181587058Y-116606926D01*
X181698469Y-116243711D01*
X181804558Y-116594401D01*
X181910647Y-116945092D01*
X182248777Y-116970141D01*
X182586908Y-116995190D01*
X182401955Y-117132916D01*
X182333311Y-117184032D01*
G37*
G36*
X182730996Y-115875181D02*
G01*
X182442929Y-115834809D01*
X182391820Y-115828281D01*
X182124095Y-115806844D01*
X181808088Y-115796496D01*
X181480758Y-115797292D01*
X181179066Y-115809288D01*
X180939971Y-115832539D01*
X180676953Y-115871422D01*
X180676953Y-115719401D01*
X180676941Y-115716106D01*
X180661876Y-115610953D01*
X180626854Y-115567380D01*
X180603807Y-115558901D01*
X180576756Y-115492232D01*
X180582408Y-115457661D01*
X180626854Y-115417084D01*
X180655973Y-115398295D01*
X180676953Y-115316887D01*
X180667559Y-115258649D01*
X180626854Y-115216689D01*
X180603807Y-115208211D01*
X180576756Y-115141541D01*
X180582408Y-115106971D01*
X180626854Y-115066393D01*
X180659412Y-115036889D01*
X180676953Y-114944217D01*
X180677358Y-114929717D01*
X180827249Y-114929717D01*
X180827249Y-115323696D01*
X180827384Y-115384826D01*
X180831596Y-115560415D01*
X180845181Y-115661101D01*
X180872795Y-115706862D01*
X180919096Y-115717675D01*
X180970295Y-115714474D01*
X181032516Y-115696103D01*
X181064457Y-115685585D01*
X181173574Y-115668336D01*
X181328933Y-115652638D01*
X181603777Y-115630744D01*
X181618257Y-115252332D01*
X181779122Y-115252332D01*
X181779122Y-115653197D01*
X181916894Y-115649226D01*
X181977076Y-115650057D01*
X182138842Y-115661901D01*
X182319545Y-115683438D01*
X182584426Y-115721621D01*
X182575633Y-115373227D01*
X182575593Y-115371660D01*
X182566340Y-115189060D01*
X182550638Y-115044171D01*
X182531863Y-114968237D01*
X182530103Y-114965861D01*
X182459444Y-114933939D01*
X182319289Y-114903756D01*
X182138004Y-114881554D01*
X181779122Y-114851467D01*
X181779122Y-114865999D01*
X181779122Y-115252332D01*
X181618257Y-115252332D01*
X181618409Y-115248372D01*
X181633041Y-114865999D01*
X181462581Y-114865999D01*
X181421107Y-114866726D01*
X181244754Y-114877761D01*
X181059685Y-114897858D01*
X180827249Y-114929717D01*
X180677358Y-114929717D01*
X180677636Y-114919773D01*
X180699161Y-114853066D01*
X180769799Y-114812772D01*
X180914921Y-114781548D01*
X180965588Y-114774189D01*
X181177241Y-114756536D01*
X181447586Y-114746610D01*
X181745481Y-114744374D01*
X182039782Y-114749792D01*
X182299346Y-114762826D01*
X182493028Y-114783439D01*
X182541836Y-114791724D01*
X182663881Y-114822596D01*
X182718456Y-114867699D01*
X182730996Y-114944217D01*
X182743095Y-115023616D01*
X182781095Y-115066393D01*
X182804142Y-115074872D01*
X182831193Y-115141541D01*
X182825541Y-115176112D01*
X182781095Y-115216689D01*
X182751976Y-115235478D01*
X182730996Y-115316887D01*
X182740391Y-115375124D01*
X182781095Y-115417084D01*
X182804142Y-115425562D01*
X182831193Y-115492232D01*
X182825541Y-115526802D01*
X182781095Y-115567380D01*
X182779515Y-115567456D01*
X182745194Y-115614205D01*
X182730996Y-115721280D01*
X182730996Y-115721621D01*
X182730996Y-115875181D01*
G37*
G36*
X183879893Y-116121014D02*
G01*
X183875678Y-116287051D01*
X183869442Y-116532659D01*
X183850379Y-116875921D01*
X183821180Y-117166180D01*
X183780323Y-117418816D01*
X183726285Y-117649208D01*
X183657542Y-117872737D01*
X183578524Y-118081311D01*
X183339581Y-118536928D01*
X183021278Y-118949001D01*
X182617482Y-119324713D01*
X182122066Y-119671242D01*
X182010464Y-119739631D01*
X181851999Y-119835566D01*
X181740601Y-119901466D01*
X181695321Y-119925959D01*
X181686829Y-119922219D01*
X181613954Y-119881127D01*
X181484012Y-119804305D01*
X181317487Y-119703795D01*
X181312962Y-119701038D01*
X180830873Y-119372139D01*
X180439693Y-119026358D01*
X180130505Y-118654572D01*
X179894392Y-118247656D01*
X179869540Y-118194949D01*
X179782742Y-118003118D01*
X179713543Y-117828711D01*
X179659744Y-117657024D01*
X179619143Y-117473355D01*
X179589540Y-117263002D01*
X179568734Y-117011262D01*
X179554523Y-116703432D01*
X179544708Y-116324811D01*
X179544067Y-116285767D01*
X179725079Y-116285767D01*
X179725458Y-116565331D01*
X179744360Y-116939936D01*
X179843751Y-117500766D01*
X180024100Y-118024759D01*
X180280582Y-118495139D01*
X180453058Y-118726473D01*
X180690247Y-118973201D01*
X180982292Y-119206870D01*
X181350337Y-119446282D01*
X181356270Y-119449848D01*
X181507465Y-119538198D01*
X181622174Y-119600660D01*
X181675978Y-119623915D01*
X181697409Y-119620303D01*
X181813271Y-119572436D01*
X181979840Y-119480128D01*
X182175748Y-119357231D01*
X182379626Y-119217595D01*
X182570102Y-119075068D01*
X182725808Y-118943502D01*
X182882499Y-118785767D01*
X183190771Y-118374085D01*
X183423772Y-117896580D01*
X183581587Y-117353052D01*
X183664302Y-116743300D01*
X183696373Y-116287051D01*
X182700174Y-116234683D01*
X182477670Y-116224135D01*
X181599487Y-116207658D01*
X180714527Y-116234041D01*
X179725079Y-116285767D01*
X179544067Y-116285767D01*
X179540497Y-116068366D01*
X179715437Y-116068366D01*
X181700326Y-116068366D01*
X183685214Y-116068366D01*
X183652192Y-115655052D01*
X183651549Y-115647023D01*
X183630808Y-115395942D01*
X183608161Y-115133808D01*
X183588396Y-114916098D01*
X183557623Y-114590457D01*
X183206933Y-114548414D01*
X183034733Y-114534219D01*
X182774420Y-114522400D01*
X182453673Y-114513899D01*
X182092564Y-114508719D01*
X181711163Y-114506867D01*
X181329544Y-114508347D01*
X180967779Y-114513163D01*
X180645938Y-114521321D01*
X180384095Y-114532826D01*
X180202320Y-114547682D01*
X179852935Y-114590457D01*
X179819863Y-114790851D01*
X179809044Y-114869623D01*
X179789585Y-115052911D01*
X179769287Y-115283595D01*
X179751114Y-115529806D01*
X179715437Y-116068366D01*
X179540497Y-116068366D01*
X179537087Y-115860694D01*
X179516736Y-114425607D01*
X179758679Y-114394492D01*
X180483590Y-114320228D01*
X181548492Y-114274041D01*
X182614407Y-114298472D01*
X183645296Y-114393531D01*
X183883264Y-114424514D01*
X183883264Y-115593505D01*
X183883255Y-115625607D01*
X183880250Y-116068366D01*
X183879893Y-116121014D01*
G37*
G36*
X180510439Y-116811851D02*
G01*
X180426460Y-116983811D01*
X180368721Y-117063015D01*
X180330389Y-117138245D01*
X180351274Y-117150789D01*
X180430985Y-117091293D01*
X180501028Y-117032791D01*
X180550710Y-117028320D01*
X180606330Y-117093103D01*
X180660022Y-117208756D01*
X180665546Y-117323883D01*
X180668644Y-117388440D01*
X180603398Y-117549224D01*
X180558830Y-117624412D01*
X180531641Y-117721620D01*
X180547168Y-117745756D01*
X180587802Y-117684046D01*
X180588002Y-117683633D01*
X180651247Y-117589465D01*
X180716022Y-117589181D01*
X180799359Y-117682669D01*
X180854105Y-117801470D01*
X180865594Y-117915170D01*
X180873727Y-117995664D01*
X180825486Y-118175801D01*
X180799214Y-118242038D01*
X180825486Y-118272705D01*
X180848372Y-118265249D01*
X180877347Y-118200514D01*
X180877383Y-118196535D01*
X180910412Y-118109843D01*
X180990099Y-118098658D01*
X181094003Y-118166503D01*
X181176185Y-118300534D01*
X181204567Y-118496944D01*
X181204927Y-118502996D01*
X181211106Y-118606910D01*
X181229286Y-118713371D01*
X181251471Y-118761773D01*
X181270232Y-118738630D01*
X181278136Y-118630459D01*
X181278142Y-118614671D01*
X181284626Y-118516636D01*
X181322828Y-118498998D01*
X181421376Y-118544598D01*
X181491270Y-118591240D01*
X181612832Y-118751865D01*
X181672126Y-118929537D01*
X181695353Y-118999135D01*
X181704258Y-119037413D01*
X181716547Y-119058909D01*
X181723212Y-118984122D01*
X181732005Y-118946549D01*
X181829221Y-118946549D01*
X181830243Y-118952177D01*
X181877557Y-118974086D01*
X181902331Y-118966903D01*
X181953010Y-118910682D01*
X182199200Y-118910682D01*
X182263955Y-118923987D01*
X182341610Y-118907913D01*
X182438385Y-118846443D01*
X182480503Y-118768362D01*
X182463194Y-118749170D01*
X182391679Y-118756851D01*
X182299647Y-118796192D01*
X182225517Y-118854253D01*
X182222220Y-118858270D01*
X182199200Y-118910682D01*
X181953010Y-118910682D01*
X181965145Y-118897220D01*
X182010577Y-118788279D01*
X182017739Y-118683393D01*
X182007233Y-118654444D01*
X181973686Y-118662903D01*
X181914374Y-118758679D01*
X181903035Y-118780274D01*
X181850556Y-118888195D01*
X181829221Y-118946549D01*
X181732005Y-118946549D01*
X181763457Y-118812154D01*
X181864469Y-118643490D01*
X182000809Y-118534026D01*
X182085279Y-118501552D01*
X182123216Y-118524286D01*
X182129813Y-118627426D01*
X182129879Y-118635604D01*
X182137090Y-118683393D01*
X182143950Y-118728856D01*
X182175143Y-118751589D01*
X182182947Y-118743319D01*
X182200636Y-118661748D01*
X182194810Y-118532240D01*
X182192512Y-118508576D01*
X182289466Y-118508576D01*
X182301310Y-118541290D01*
X182339537Y-118548479D01*
X182383105Y-118496522D01*
X182400979Y-118448875D01*
X182608644Y-118448875D01*
X182628318Y-118469458D01*
X182701966Y-118436366D01*
X182815875Y-118349436D01*
X182858921Y-118309795D01*
X182908347Y-118245162D01*
X182877500Y-118224190D01*
X182872266Y-118224340D01*
X182783041Y-118262501D01*
X182722563Y-118313037D01*
X182680898Y-118347853D01*
X182656657Y-118374777D01*
X182608644Y-118448875D01*
X182400979Y-118448875D01*
X182415605Y-118409885D01*
X182420624Y-118313037D01*
X182403153Y-118197557D01*
X182338463Y-118312905D01*
X182300726Y-118405429D01*
X182289466Y-118508576D01*
X182192512Y-118508576D01*
X182188006Y-118462166D01*
X182207131Y-118326027D01*
X182291570Y-118198580D01*
X182333079Y-118155072D01*
X182433797Y-118094618D01*
X182504147Y-118119665D01*
X182530602Y-118228520D01*
X182540928Y-118282812D01*
X182580836Y-118297671D01*
X182603817Y-118268036D01*
X182580836Y-118172761D01*
X182540099Y-118042397D01*
X182537770Y-117924971D01*
X182630799Y-117924971D01*
X182645453Y-118028845D01*
X182680898Y-118072311D01*
X182688080Y-118070470D01*
X182718607Y-118011076D01*
X182730351Y-117900104D01*
X182942879Y-117900104D01*
X182995789Y-117894051D01*
X183076263Y-117838359D01*
X183149751Y-117762293D01*
X183181884Y-117695302D01*
X183173123Y-117661954D01*
X183120576Y-117650025D01*
X183045269Y-117694053D01*
X182976039Y-117781904D01*
X182947807Y-117846573D01*
X182943440Y-117894009D01*
X182942879Y-117900104D01*
X182730351Y-117900104D01*
X182730996Y-117894009D01*
X182730627Y-117869898D01*
X182714988Y-117767835D01*
X182680898Y-117746670D01*
X182646242Y-117809274D01*
X182630799Y-117924971D01*
X182537770Y-117924971D01*
X182536905Y-117881387D01*
X182569728Y-117729168D01*
X182631796Y-117615795D01*
X182716339Y-117571324D01*
X182761115Y-117598060D01*
X182820147Y-117684046D01*
X182859443Y-117744861D01*
X182876308Y-117721620D01*
X182861975Y-117655300D01*
X182804551Y-117549224D01*
X182748149Y-117431056D01*
X182741271Y-117287983D01*
X182841195Y-117287983D01*
X182852481Y-117398827D01*
X182884561Y-117478785D01*
X182932345Y-117521226D01*
X182969879Y-117485275D01*
X182972834Y-117384684D01*
X182946383Y-117285882D01*
X183146163Y-117285882D01*
X183174518Y-117296027D01*
X183253380Y-117224669D01*
X183305007Y-117141167D01*
X183321526Y-117036492D01*
X183306523Y-116997532D01*
X183272994Y-117012820D01*
X183213244Y-117112568D01*
X183170576Y-117200545D01*
X183146163Y-117285882D01*
X182946383Y-117285882D01*
X182936512Y-117249009D01*
X182896122Y-117192713D01*
X182859843Y-117211966D01*
X182841195Y-117287983D01*
X182741271Y-117287983D01*
X182739561Y-117252423D01*
X182806144Y-117092438D01*
X182846035Y-117043949D01*
X182893109Y-117024468D01*
X182949438Y-117082863D01*
X183000790Y-117142447D01*
X183044893Y-117169006D01*
X183039641Y-117120839D01*
X182980940Y-117007715D01*
X182910896Y-116857546D01*
X182892692Y-116710073D01*
X182981489Y-116710073D01*
X182996399Y-116784322D01*
X183055044Y-116897942D01*
X183096849Y-116951165D01*
X183124696Y-116961994D01*
X183130192Y-116886566D01*
X183121226Y-116776460D01*
X183082984Y-116664082D01*
X183026228Y-116619451D01*
X183002008Y-116633977D01*
X182981489Y-116710073D01*
X182892692Y-116710073D01*
X182886751Y-116661944D01*
X182947849Y-116497480D01*
X182952481Y-116491180D01*
X183000603Y-116441479D01*
X183047487Y-116456638D01*
X183123194Y-116544760D01*
X183127486Y-116550309D01*
X183201434Y-116681134D01*
X183231982Y-116803315D01*
X183233408Y-116848621D01*
X183252511Y-116886566D01*
X183257560Y-116896596D01*
X183332180Y-116869944D01*
X183411671Y-116841812D01*
X183437922Y-116880706D01*
X183437220Y-117036492D01*
X183437196Y-117041854D01*
X183379318Y-117207338D01*
X183242279Y-117363061D01*
X183218670Y-117384684D01*
X183165652Y-117433241D01*
X183106746Y-117496294D01*
X183113751Y-117518107D01*
X183180649Y-117513357D01*
X183233317Y-117510878D01*
X183308388Y-117550707D01*
X183308357Y-117652017D01*
X183287640Y-117695302D01*
X183232480Y-117810551D01*
X183138524Y-117923939D01*
X182981461Y-118004683D01*
X182911546Y-118023490D01*
X182840164Y-118066820D01*
X182852099Y-118105606D01*
X182951750Y-118122409D01*
X183032461Y-118144186D01*
X183052068Y-118206903D01*
X183035736Y-118245162D01*
X183014561Y-118294765D01*
X182933487Y-118391821D01*
X182822393Y-118482119D01*
X182694826Y-118549704D01*
X182564332Y-118578626D01*
X182405355Y-118583956D01*
X182543126Y-118638396D01*
X182623146Y-118674294D01*
X182670939Y-118724201D01*
X182649924Y-118768362D01*
X182639244Y-118790806D01*
X182526758Y-118894484D01*
X182394595Y-118980076D01*
X182185643Y-119024184D01*
X182101664Y-119031459D01*
X181978189Y-119065204D01*
X181882510Y-119114554D01*
X181837768Y-119166231D01*
X181867107Y-119206956D01*
X181891254Y-119222550D01*
X181901725Y-119278956D01*
X181897987Y-119284635D01*
X181825717Y-119322792D01*
X181753989Y-119274542D01*
X181724286Y-119251577D01*
X181628827Y-119274677D01*
X181568919Y-119296682D01*
X181506308Y-119279092D01*
X181500244Y-119256941D01*
X181540842Y-119206956D01*
X181572249Y-119177794D01*
X181544833Y-119128596D01*
X181458781Y-119078592D01*
X181336461Y-119039787D01*
X181200245Y-119024184D01*
X181151911Y-119023063D01*
X180991069Y-118988858D01*
X180859130Y-118892106D01*
X180788723Y-118818777D01*
X180742563Y-118747758D01*
X180886581Y-118747758D01*
X180892343Y-118782880D01*
X180956153Y-118847764D01*
X181038555Y-118894257D01*
X181133334Y-118920111D01*
X181197884Y-118913268D01*
X181201078Y-118870798D01*
X181154057Y-118827586D01*
X181054038Y-118775517D01*
X181013225Y-118762801D01*
X181383587Y-118762801D01*
X181427594Y-118870798D01*
X181430195Y-118877182D01*
X181491566Y-118952081D01*
X181551742Y-118973710D01*
X181578728Y-118929537D01*
X181550143Y-118863926D01*
X181480198Y-118766717D01*
X181436248Y-118721572D01*
X181387750Y-118706191D01*
X181383587Y-118762801D01*
X181013225Y-118762801D01*
X180950195Y-118743163D01*
X180886581Y-118747758D01*
X180742563Y-118747758D01*
X180737365Y-118739761D01*
X180762553Y-118687607D01*
X180864823Y-118638396D01*
X181002594Y-118583956D01*
X180867180Y-118578626D01*
X180736698Y-118561122D01*
X180539420Y-118468628D01*
X180406523Y-118303619D01*
X180396175Y-118282307D01*
X180378239Y-118238657D01*
X180495363Y-118238657D01*
X180528927Y-118300490D01*
X180576776Y-118350233D01*
X180668240Y-118417817D01*
X180744959Y-118448691D01*
X180777150Y-118427604D01*
X180761336Y-118392306D01*
X180687667Y-118318815D01*
X180669260Y-118306182D01*
X180979138Y-118306182D01*
X180983169Y-118377857D01*
X180993780Y-118427604D01*
X181007954Y-118494051D01*
X181028897Y-118533258D01*
X181083102Y-118573297D01*
X181103992Y-118566758D01*
X181126735Y-118502996D01*
X181108923Y-118400329D01*
X181054286Y-118294805D01*
X181012480Y-118241583D01*
X180984634Y-118230753D01*
X180979138Y-118306182D01*
X180669260Y-118306182D01*
X180590104Y-118251855D01*
X180509375Y-118222606D01*
X180495363Y-118238657D01*
X180378239Y-118238657D01*
X180357459Y-118188086D01*
X180373819Y-118148003D01*
X180453590Y-118131606D01*
X180493931Y-118123875D01*
X180566272Y-118084884D01*
X180563472Y-118042252D01*
X180479352Y-118022212D01*
X180406769Y-118007726D01*
X180273424Y-117923705D01*
X180159591Y-117790999D01*
X180112678Y-117680073D01*
X180226065Y-117680073D01*
X180246095Y-117745563D01*
X180317683Y-117839102D01*
X180366820Y-117880084D01*
X180449594Y-117924061D01*
X180477525Y-117902093D01*
X180459988Y-117861420D01*
X180662011Y-117861420D01*
X180663171Y-117902093D01*
X180665503Y-117983838D01*
X180684718Y-118031041D01*
X180732895Y-118072311D01*
X180738768Y-118071622D01*
X180771006Y-118020691D01*
X180772989Y-117915170D01*
X180743340Y-117792004D01*
X180730895Y-117760918D01*
X180705510Y-117733659D01*
X180675949Y-117799631D01*
X180662011Y-117861420D01*
X180459988Y-117861420D01*
X180446226Y-117829504D01*
X180351312Y-117721620D01*
X180306277Y-117681306D01*
X180243996Y-117644668D01*
X180226065Y-117680073D01*
X180112678Y-117680073D01*
X180095699Y-117639926D01*
X180081801Y-117538203D01*
X180108028Y-117499288D01*
X180195949Y-117507996D01*
X180253091Y-117516669D01*
X180318475Y-117509012D01*
X180293892Y-117467651D01*
X180197104Y-117408504D01*
X180427227Y-117408504D01*
X180429174Y-117446246D01*
X180460060Y-117514091D01*
X180510128Y-117497683D01*
X180555468Y-117398827D01*
X180567006Y-117323883D01*
X180556477Y-117230938D01*
X180520621Y-117191062D01*
X180471063Y-117227810D01*
X180446359Y-117286854D01*
X180443363Y-117305904D01*
X180427227Y-117408504D01*
X180197104Y-117408504D01*
X180180139Y-117398137D01*
X180087166Y-117323203D01*
X179992713Y-117181911D01*
X179954996Y-117070842D01*
X180061385Y-117070842D01*
X180073860Y-117102394D01*
X180126096Y-117183698D01*
X180193346Y-117262361D01*
X180251429Y-117311918D01*
X180276164Y-117305904D01*
X180261391Y-117253060D01*
X180219279Y-117150599D01*
X180165018Y-117060506D01*
X180103638Y-117003997D01*
X180061908Y-117003812D01*
X180061385Y-117070842D01*
X179954996Y-117070842D01*
X179939276Y-117024549D01*
X179945212Y-116890766D01*
X179946337Y-116887894D01*
X179989962Y-116842084D01*
X180075026Y-116869546D01*
X180114181Y-116888766D01*
X180164958Y-116886970D01*
X180171975Y-116833651D01*
X180280851Y-116833651D01*
X180285477Y-116923474D01*
X180317193Y-116946218D01*
X180367967Y-116885628D01*
X180403624Y-116802634D01*
X180426460Y-116697892D01*
X180424019Y-116666732D01*
X180391318Y-116620952D01*
X180340502Y-116649186D01*
X180297276Y-116742547D01*
X180280851Y-116833651D01*
X180171975Y-116833651D01*
X180175967Y-116803315D01*
X180176051Y-116798464D01*
X180209357Y-116674382D01*
X180284755Y-116544760D01*
X180292313Y-116535172D01*
X180364724Y-116452972D01*
X180410633Y-116443110D01*
X180460100Y-116497480D01*
X180516615Y-116630406D01*
X180514318Y-116697892D01*
X180510439Y-116811851D01*
G37*
G36*
X152752662Y-115181866D02*
G01*
X152799198Y-115232992D01*
X152828086Y-115323730D01*
X152834233Y-115426372D01*
X152812543Y-115513213D01*
X152783301Y-115549004D01*
X152711790Y-115582161D01*
X152637943Y-115577017D01*
X152589970Y-115531280D01*
X152572582Y-115436429D01*
X152586535Y-115331749D01*
X152626521Y-115242434D01*
X152684280Y-115186366D01*
X152751553Y-115181425D01*
X152752662Y-115181866D01*
G37*
G36*
X153487951Y-115216391D02*
G01*
X153497788Y-115234025D01*
X153515644Y-115307427D01*
X153527838Y-115406729D01*
X153531430Y-115502914D01*
X153523478Y-115566969D01*
X153507737Y-115592461D01*
X153454158Y-115620380D01*
X153422278Y-115605631D01*
X153386730Y-115541910D01*
X153366171Y-115448509D01*
X153362760Y-115348222D01*
X153378658Y-115263841D01*
X153416027Y-115218158D01*
X153444070Y-115210628D01*
X153487951Y-115216391D01*
G37*
G36*
X153862648Y-116425487D02*
G01*
X153827745Y-116519265D01*
X153781570Y-116563657D01*
X153770592Y-116566449D01*
X153622011Y-116575924D01*
X153503714Y-116530983D01*
X153425529Y-116438256D01*
X153400075Y-116317610D01*
X153535036Y-116317610D01*
X153556275Y-116428562D01*
X153593307Y-116470129D01*
X153664010Y-116479571D01*
X153735490Y-116441738D01*
X153757317Y-116410413D01*
X153776235Y-116323864D01*
X153761524Y-116235137D01*
X153715618Y-116176694D01*
X153681319Y-116163103D01*
X153606466Y-116170800D01*
X153554736Y-116226996D01*
X153535036Y-116317610D01*
X153400075Y-116317610D01*
X153397283Y-116304374D01*
X153409566Y-116238049D01*
X153465558Y-116139987D01*
X153548710Y-116064633D01*
X153638859Y-116034510D01*
X153699151Y-116050762D01*
X153783879Y-116110100D01*
X153852300Y-116191046D01*
X153880436Y-116270204D01*
X153879720Y-116301795D01*
X153876674Y-116323864D01*
X153862648Y-116425487D01*
G37*
G36*
X152866439Y-116389629D02*
G01*
X152826495Y-116488966D01*
X152756945Y-116578056D01*
X152671383Y-116634199D01*
X152553467Y-116650090D01*
X152430030Y-116597312D01*
X152344298Y-116529107D01*
X152303759Y-116461602D01*
X152293464Y-116368336D01*
X152300511Y-116341730D01*
X152448234Y-116341730D01*
X152450755Y-116379626D01*
X152489298Y-116475765D01*
X152564319Y-116524676D01*
X152662895Y-116515873D01*
X152733230Y-116466373D01*
X152766460Y-116387654D01*
X152757350Y-116302434D01*
X152712691Y-116229169D01*
X152639273Y-116186320D01*
X152543884Y-116192344D01*
X152504387Y-116208983D01*
X152459334Y-116255592D01*
X152448234Y-116341730D01*
X152300511Y-116341730D01*
X152318611Y-116273390D01*
X152389718Y-116174183D01*
X152485950Y-116098894D01*
X152586278Y-116069021D01*
X152680921Y-116097122D01*
X152782780Y-116173936D01*
X152841119Y-116239242D01*
X152871527Y-116307500D01*
X152866561Y-116387654D01*
X152866439Y-116389629D01*
G37*
G36*
X153890100Y-115634188D02*
G01*
X153889036Y-115717163D01*
X153865956Y-115836560D01*
X153809731Y-115907919D01*
X153713983Y-115942403D01*
X153698556Y-115944130D01*
X153614651Y-115948065D01*
X153477569Y-115950938D01*
X153298819Y-115952621D01*
X153089914Y-115952985D01*
X152862365Y-115951902D01*
X152594557Y-115948854D01*
X152379383Y-115943265D01*
X152216087Y-115933569D01*
X152095989Y-115918139D01*
X152010408Y-115895346D01*
X151950665Y-115863561D01*
X151908079Y-115821157D01*
X151873969Y-115766505D01*
X151842218Y-115672788D01*
X151837960Y-115593290D01*
X151987342Y-115593290D01*
X152007487Y-115668225D01*
X152061537Y-115743192D01*
X152148786Y-115844700D01*
X152867940Y-115850274D01*
X152992976Y-115851139D01*
X153229458Y-115851719D01*
X153409113Y-115849848D01*
X153540386Y-115844858D01*
X153631717Y-115836078D01*
X153691550Y-115822841D01*
X153728328Y-115804476D01*
X153750491Y-115780314D01*
X153769365Y-115732611D01*
X153776215Y-115616164D01*
X153755418Y-115473686D01*
X153712187Y-115325958D01*
X153651736Y-115193757D01*
X153579277Y-115097863D01*
X153569887Y-115089414D01*
X153407113Y-114986362D01*
X153200601Y-114915589D01*
X152967239Y-114878560D01*
X152723913Y-114876743D01*
X152487508Y-114911603D01*
X152274911Y-114984607D01*
X152237767Y-115005267D01*
X152123588Y-115116057D01*
X152040045Y-115277480D01*
X151993663Y-115478093D01*
X151992763Y-115485815D01*
X151987342Y-115593290D01*
X151837960Y-115593290D01*
X151833625Y-115512336D01*
X151863146Y-115332734D01*
X151928912Y-115154785D01*
X151945853Y-115120968D01*
X152010769Y-115015493D01*
X152088130Y-114943316D01*
X152204101Y-114878135D01*
X152280999Y-114845670D01*
X152495531Y-114789601D01*
X152738981Y-114762793D01*
X152987028Y-114767027D01*
X153215352Y-114804085D01*
X153247923Y-114812765D01*
X153485452Y-114901397D01*
X153664112Y-115022538D01*
X153788225Y-115181505D01*
X153862114Y-115383616D01*
X153888087Y-115616164D01*
X153890100Y-115634188D01*
G37*
G36*
X154647327Y-115641161D02*
G01*
X154575253Y-115857869D01*
X154475125Y-116073826D01*
X154352250Y-116272435D01*
X154271263Y-116411995D01*
X154265716Y-116429424D01*
X154193928Y-116654988D01*
X154169777Y-116763762D01*
X154105296Y-116955688D01*
X154013795Y-117111325D01*
X153884001Y-117252409D01*
X153827758Y-117308836D01*
X153766283Y-117385255D01*
X153742392Y-117437285D01*
X153737905Y-117471309D01*
X153736243Y-117476143D01*
X153702549Y-117574146D01*
X153641258Y-117701862D01*
X153565178Y-117834292D01*
X153485457Y-117951276D01*
X153413240Y-118032651D01*
X153331403Y-118092653D01*
X153201665Y-118140008D01*
X153083294Y-118125155D01*
X152984908Y-118047788D01*
X152972177Y-118031351D01*
X152934368Y-117974553D01*
X152908129Y-117911212D01*
X152886567Y-117820704D01*
X152862789Y-117682404D01*
X152855492Y-117637019D01*
X152983153Y-117637019D01*
X152985010Y-117671517D01*
X153008282Y-117780827D01*
X153049473Y-117880137D01*
X153097472Y-117940005D01*
X153107757Y-117946097D01*
X153211017Y-117966883D01*
X153322000Y-117926346D01*
X153432257Y-117829498D01*
X153533340Y-117681354D01*
X153556511Y-117635448D01*
X153592467Y-117544469D01*
X153607276Y-117476143D01*
X153595721Y-117449829D01*
X153580588Y-117453594D01*
X153515273Y-117472388D01*
X153417682Y-117501595D01*
X153366400Y-117515621D01*
X153231172Y-117542369D01*
X153115712Y-117552988D01*
X153029582Y-117558138D01*
X152991494Y-117582008D01*
X152983153Y-117637019D01*
X152855492Y-117637019D01*
X152841982Y-117552988D01*
X152550785Y-117552988D01*
X152259587Y-117552988D01*
X152252662Y-117566509D01*
X152175634Y-117716915D01*
X152133332Y-117789792D01*
X152030964Y-117926940D01*
X151911218Y-118053344D01*
X151790758Y-118152308D01*
X151686251Y-118207140D01*
X151631531Y-118223228D01*
X151564630Y-118237179D01*
X151513756Y-118230328D01*
X151446455Y-118201976D01*
X151427899Y-118192960D01*
X151352650Y-118137873D01*
X151299232Y-118056182D01*
X151264284Y-117937409D01*
X151244450Y-117771079D01*
X151236369Y-117546716D01*
X151234528Y-117452881D01*
X151325472Y-117452881D01*
X151335029Y-117586637D01*
X151357146Y-117728001D01*
X151388169Y-117851661D01*
X151424444Y-117932308D01*
X151477287Y-117985261D01*
X151587670Y-118028403D01*
X151714925Y-118015471D01*
X151847642Y-117948590D01*
X151974410Y-117829886D01*
X152025497Y-117758337D01*
X152073411Y-117675127D01*
X152105783Y-117603645D01*
X152110894Y-117566509D01*
X152083155Y-117554473D01*
X152004531Y-117529685D01*
X151895587Y-117499649D01*
X151817210Y-117476796D01*
X151661369Y-117421519D01*
X151526633Y-117362871D01*
X151474006Y-117337005D01*
X151397846Y-117305734D01*
X151357823Y-117304984D01*
X151337784Y-117332126D01*
X151332130Y-117352042D01*
X151325472Y-117452881D01*
X151234528Y-117452881D01*
X151233507Y-117400813D01*
X151226540Y-117262395D01*
X151213900Y-117166952D01*
X151193436Y-117099813D01*
X151162997Y-117046309D01*
X151123328Y-116987917D01*
X151054060Y-116865612D01*
X151009892Y-116740488D01*
X150977686Y-116579450D01*
X150965450Y-116511674D01*
X150932625Y-116400404D01*
X150877413Y-116304215D01*
X150784826Y-116193082D01*
X150637200Y-116016780D01*
X150483156Y-115792276D01*
X150375308Y-115582426D01*
X150312573Y-115392114D01*
X150304580Y-115321232D01*
X150464617Y-115321232D01*
X150476740Y-115408424D01*
X150508626Y-115515148D01*
X150551463Y-115617216D01*
X150596435Y-115693760D01*
X150634726Y-115723912D01*
X150652928Y-115731672D01*
X150670925Y-115780752D01*
X150693451Y-115844354D01*
X150758397Y-115940973D01*
X150854298Y-116054696D01*
X150969624Y-116171907D01*
X151092846Y-116278992D01*
X151213058Y-116362985D01*
X151336078Y-116411685D01*
X151439016Y-116398163D01*
X151530300Y-116320799D01*
X151618357Y-116177974D01*
X151629763Y-116156485D01*
X151670033Y-116096273D01*
X151695733Y-116081510D01*
X151696387Y-116099227D01*
X151672617Y-116163035D01*
X151625343Y-116252781D01*
X151578419Y-116321629D01*
X151459321Y-116434418D01*
X151324858Y-116496988D01*
X151190119Y-116500743D01*
X151091353Y-116479050D01*
X151128509Y-116627772D01*
X151131682Y-116640148D01*
X151224525Y-116867432D01*
X151373377Y-117055207D01*
X151578800Y-117204014D01*
X151841356Y-117314396D01*
X151953453Y-117344463D01*
X152106610Y-117370869D01*
X152294633Y-117388193D01*
X152534512Y-117398497D01*
X152546593Y-117398821D01*
X152896160Y-117398672D01*
X153186531Y-117376571D01*
X153424571Y-117329909D01*
X153617147Y-117256079D01*
X153771124Y-117152476D01*
X153893368Y-117016490D01*
X153990746Y-116845515D01*
X153999559Y-116826081D01*
X154030777Y-116746631D01*
X154050959Y-116665203D01*
X154062197Y-116565051D01*
X154066585Y-116429424D01*
X154066214Y-116241575D01*
X154064792Y-116166612D01*
X154026071Y-115740198D01*
X153932713Y-115334221D01*
X153899419Y-115246792D01*
X154075441Y-115246792D01*
X154092999Y-115304697D01*
X154110055Y-115361010D01*
X154137974Y-115475030D01*
X154170592Y-115623968D01*
X154203844Y-115790019D01*
X154279082Y-116183979D01*
X154396043Y-115930228D01*
X154441712Y-115822747D01*
X154504224Y-115628030D01*
X154534254Y-115454722D01*
X154531429Y-115312492D01*
X154495377Y-115211008D01*
X154425725Y-115159938D01*
X154406446Y-115156557D01*
X154312746Y-115157947D01*
X154203228Y-115176613D01*
X154153640Y-115189546D01*
X154091033Y-115213778D01*
X154075441Y-115246792D01*
X153899419Y-115246792D01*
X153780845Y-114935421D01*
X153566594Y-114530535D01*
X153500433Y-114426385D01*
X153368094Y-114249325D01*
X153231727Y-114101616D01*
X153099042Y-113989341D01*
X152977750Y-113918583D01*
X152875562Y-113895426D01*
X152800189Y-113925952D01*
X152773893Y-113982312D01*
X152755559Y-114078071D01*
X152746240Y-114191597D01*
X152746770Y-114301473D01*
X152757986Y-114386278D01*
X152780724Y-114424596D01*
X152807029Y-114431470D01*
X152891669Y-114452519D01*
X153000408Y-114478829D01*
X153102383Y-114505344D01*
X153173427Y-114531485D01*
X153180105Y-114550149D01*
X153121307Y-114561828D01*
X152995926Y-114567010D01*
X152802853Y-114566187D01*
X152379213Y-114559361D01*
X152150611Y-114338001D01*
X152129506Y-114317880D01*
X151966655Y-114180092D01*
X151795989Y-114061739D01*
X151631251Y-113970563D01*
X151486181Y-113914307D01*
X151374523Y-113900713D01*
X151339837Y-113906267D01*
X151284438Y-113938670D01*
X151262687Y-114015624D01*
X151261188Y-114089051D01*
X151274653Y-114233326D01*
X151303138Y-114410028D01*
X151343380Y-114599792D01*
X151392114Y-114783253D01*
X151406120Y-114831561D01*
X151429645Y-114935431D01*
X151429565Y-115006538D01*
X151407109Y-115068206D01*
X151388919Y-115106267D01*
X151382818Y-115148884D01*
X151418332Y-115166525D01*
X151460199Y-115184977D01*
X151544461Y-115257806D01*
X151631361Y-115368024D01*
X151706274Y-115498757D01*
X151745006Y-115594015D01*
X151753947Y-115646491D01*
X151734428Y-115649058D01*
X151687810Y-115594649D01*
X151686426Y-115592703D01*
X151611860Y-115517293D01*
X151491484Y-115425469D01*
X151342371Y-115327761D01*
X151181594Y-115234700D01*
X151026224Y-115156815D01*
X150893336Y-115104636D01*
X150749938Y-115067982D01*
X150615652Y-115060272D01*
X150527162Y-115097978D01*
X150478729Y-115183998D01*
X150464617Y-115321232D01*
X150304580Y-115321232D01*
X150293866Y-115226224D01*
X150318106Y-115089642D01*
X150384208Y-114987251D01*
X150491090Y-114923936D01*
X150637668Y-114904582D01*
X150822859Y-114934074D01*
X151045580Y-115017296D01*
X151127855Y-115054946D01*
X151205821Y-115089420D01*
X151239756Y-115102717D01*
X151245776Y-115101512D01*
X151265969Y-115059919D01*
X151267988Y-114970281D01*
X151252582Y-114847942D01*
X151220500Y-114708246D01*
X151216374Y-114693363D01*
X151166648Y-114477853D01*
X151135988Y-114271109D01*
X151125268Y-114087246D01*
X151135359Y-113940383D01*
X151167133Y-113844635D01*
X151240041Y-113779024D01*
X151359012Y-113751028D01*
X151509351Y-113769563D01*
X151683488Y-113831833D01*
X151873855Y-113935042D01*
X152072879Y-114076394D01*
X152272993Y-114253094D01*
X152296785Y-114275877D01*
X152397163Y-114362921D01*
X152482903Y-114423980D01*
X152537574Y-114447010D01*
X152561516Y-114444511D01*
X152588369Y-114421596D01*
X152600620Y-114361493D01*
X152603533Y-114248345D01*
X152608193Y-114126716D01*
X152630203Y-113969404D01*
X152667031Y-113850712D01*
X152715063Y-113785631D01*
X152744860Y-113771743D01*
X152853931Y-113758108D01*
X152985831Y-113776013D01*
X153113944Y-113822966D01*
X153204919Y-113881110D01*
X153349539Y-114006622D01*
X153497842Y-114168267D01*
X153634607Y-114350619D01*
X153650622Y-114375095D01*
X153719151Y-114489857D01*
X153793156Y-114625894D01*
X153864638Y-114766996D01*
X153925600Y-114896955D01*
X153968043Y-114999561D01*
X153983968Y-115058604D01*
X153985197Y-115075022D01*
X154000247Y-115095734D01*
X154042783Y-115098054D01*
X154125634Y-115081352D01*
X154261630Y-115044999D01*
X154286021Y-115038239D01*
X154392088Y-115011341D01*
X154458444Y-115004875D01*
X154507661Y-115019725D01*
X154562309Y-115056776D01*
X154633000Y-115135507D01*
X154681072Y-115243909D01*
X154686092Y-115271883D01*
X154686042Y-115440300D01*
X154683262Y-115454722D01*
X154647327Y-115641161D01*
G37*
G36*
X163956564Y-116685787D02*
G01*
X163949896Y-116714113D01*
X163937498Y-116752069D01*
X163918364Y-116803810D01*
X163873787Y-116920970D01*
X163903704Y-117023438D01*
X163911336Y-117051103D01*
X163925092Y-117120331D01*
X163926639Y-117176512D01*
X163915618Y-117221562D01*
X163891671Y-117257395D01*
X163854437Y-117285924D01*
X163817314Y-117301252D01*
X163765813Y-117304311D01*
X163710842Y-117288154D01*
X163690401Y-117277497D01*
X163670185Y-117262086D01*
X163651683Y-117240495D01*
X163632773Y-117209685D01*
X163611335Y-117166621D01*
X163585250Y-117108265D01*
X163572461Y-117079084D01*
X163556747Y-117045513D01*
X163541623Y-117018419D01*
X163524147Y-116993808D01*
X163501376Y-116967682D01*
X163470370Y-116936046D01*
X163428185Y-116894901D01*
X163397135Y-116864299D01*
X163349672Y-116814165D01*
X163315517Y-116772103D01*
X163293104Y-116735791D01*
X163280867Y-116702906D01*
X163278261Y-116680081D01*
X163369848Y-116680081D01*
X163375586Y-116700366D01*
X163390362Y-116724385D01*
X163415671Y-116754332D01*
X163453004Y-116792400D01*
X163503855Y-116840781D01*
X163614116Y-116943760D01*
X163666554Y-117066993D01*
X163685941Y-117111566D01*
X163704754Y-117151322D01*
X163720000Y-117178103D01*
X163733398Y-117194857D01*
X163746666Y-117204536D01*
X163775823Y-117216516D01*
X163798074Y-117216018D01*
X163816994Y-117201750D01*
X163820049Y-117198217D01*
X163831864Y-117178968D01*
X163836996Y-117155451D01*
X163835329Y-117124187D01*
X163826748Y-117081696D01*
X163811139Y-117024499D01*
X163778681Y-116913191D01*
X163826249Y-116791421D01*
X163839223Y-116757927D01*
X163854300Y-116717086D01*
X163863326Y-116688240D01*
X163867178Y-116667673D01*
X163866737Y-116651670D01*
X163862880Y-116636513D01*
X163859005Y-116626837D01*
X163838319Y-116602430D01*
X163809517Y-116594600D01*
X163776102Y-116604634D01*
X163770576Y-116608698D01*
X163752013Y-116629191D01*
X163729602Y-116660599D01*
X163706826Y-116698216D01*
X163662534Y-116777777D01*
X163569940Y-116700708D01*
X163523824Y-116664118D01*
X163477336Y-116632939D01*
X163440563Y-116616433D01*
X163412157Y-116614259D01*
X163390768Y-116626079D01*
X163375051Y-116651552D01*
X163371657Y-116661337D01*
X163369848Y-116680081D01*
X163278261Y-116680081D01*
X163277238Y-116671127D01*
X163279176Y-116652196D01*
X163294533Y-116609401D01*
X163321372Y-116570593D01*
X163355079Y-116543343D01*
X163359586Y-116541031D01*
X163411139Y-116525983D01*
X163465811Y-116530141D01*
X163523413Y-116553460D01*
X163583755Y-116595898D01*
X163631586Y-116636230D01*
X163649297Y-116612480D01*
X163664446Y-116592335D01*
X163687644Y-116563024D01*
X163705415Y-116544003D01*
X163721554Y-116531464D01*
X163739855Y-116521599D01*
X163748462Y-116517902D01*
X163794002Y-116507375D01*
X163841605Y-116508079D01*
X163882312Y-116520109D01*
X163888293Y-116523520D01*
X163919605Y-116552817D01*
X163943661Y-116594768D01*
X163957061Y-116643749D01*
X163958506Y-116662936D01*
X163958103Y-116667673D01*
X163956564Y-116685787D01*
G37*
G36*
X164360624Y-115853451D02*
G01*
X164351835Y-115928713D01*
X164340332Y-115965342D01*
X164305301Y-116031526D01*
X164255546Y-116090686D01*
X164194159Y-116139487D01*
X164124227Y-116174589D01*
X164108481Y-116179967D01*
X164074959Y-116187680D01*
X164035876Y-116190915D01*
X163984353Y-116190453D01*
X163975363Y-116190126D01*
X163930929Y-116187313D01*
X163897148Y-116181795D01*
X163866415Y-116171850D01*
X163831124Y-116155755D01*
X163805509Y-116141807D01*
X163742783Y-116094503D01*
X163692398Y-116036134D01*
X163657770Y-115970354D01*
X163651381Y-115952111D01*
X163642971Y-115917985D01*
X163639579Y-115880473D01*
X163640200Y-115831615D01*
X163641260Y-115818694D01*
X163733000Y-115818694D01*
X163733111Y-115879222D01*
X163748313Y-115937976D01*
X163778435Y-115992101D01*
X163823310Y-116038746D01*
X163882770Y-116075055D01*
X163912946Y-116085022D01*
X163962422Y-116093008D01*
X164016113Y-116095024D01*
X164066474Y-116090890D01*
X164105960Y-116080424D01*
X164132455Y-116067182D01*
X164186881Y-116026444D01*
X164228270Y-115974865D01*
X164254472Y-115915569D01*
X164263341Y-115851678D01*
X164263013Y-115838679D01*
X164252008Y-115769516D01*
X164225073Y-115711489D01*
X164181645Y-115663703D01*
X164121163Y-115625263D01*
X164107205Y-115618483D01*
X164077373Y-115605676D01*
X164051621Y-115599157D01*
X164022108Y-115597464D01*
X163980992Y-115599137D01*
X163950811Y-115601362D01*
X163914628Y-115606849D01*
X163885724Y-115616515D01*
X163856616Y-115632360D01*
X163824891Y-115655001D01*
X163778721Y-115703730D01*
X163748147Y-115759245D01*
X163733000Y-115818694D01*
X163641260Y-115818694D01*
X163644233Y-115782444D01*
X163657695Y-115723783D01*
X163682614Y-115671682D01*
X163721616Y-115619294D01*
X163755754Y-115579412D01*
X163704473Y-115533059D01*
X163645605Y-115488008D01*
X163571562Y-115451342D01*
X163486077Y-115428379D01*
X163450359Y-115421132D01*
X163428718Y-115413781D01*
X163416740Y-115403893D01*
X163409542Y-115388954D01*
X163405112Y-115371594D01*
X163408959Y-115347339D01*
X163429159Y-115332310D01*
X163466612Y-115325503D01*
X163494659Y-115325265D01*
X163565775Y-115336955D01*
X163639591Y-115364844D01*
X163712930Y-115407542D01*
X163782616Y-115463661D01*
X163848577Y-115525243D01*
X163887654Y-115513103D01*
X163889570Y-115512521D01*
X163937981Y-115503511D01*
X163995582Y-115500716D01*
X164053471Y-115504113D01*
X164102744Y-115513676D01*
X164149978Y-115527892D01*
X164216662Y-115464985D01*
X164244981Y-115439857D01*
X164316624Y-115388606D01*
X164390632Y-115351557D01*
X164463915Y-115330070D01*
X164533389Y-115325503D01*
X164555888Y-115328233D01*
X164583876Y-115339373D01*
X164595099Y-115359279D01*
X164590459Y-115388954D01*
X164583353Y-115403767D01*
X164571451Y-115413694D01*
X164549936Y-115421060D01*
X164513924Y-115428379D01*
X164431042Y-115450276D01*
X164358987Y-115485185D01*
X164293592Y-115535362D01*
X164240376Y-115584318D01*
X164271846Y-115617601D01*
X164291201Y-115640394D01*
X164329113Y-115704647D01*
X164352652Y-115777214D01*
X164360439Y-115851678D01*
X164360624Y-115853451D01*
G37*
G36*
X164711570Y-116705388D02*
G01*
X164706206Y-116727889D01*
X164695257Y-116750888D01*
X164676962Y-116776932D01*
X164649565Y-116808567D01*
X164611306Y-116848339D01*
X164560427Y-116898793D01*
X164531156Y-116927580D01*
X164497953Y-116961188D01*
X164473717Y-116988243D01*
X164455451Y-117012953D01*
X164440163Y-117039530D01*
X164424857Y-117072182D01*
X164406538Y-117115119D01*
X164391599Y-117149328D01*
X164362452Y-117207047D01*
X164334235Y-117249108D01*
X164305186Y-117277908D01*
X164273539Y-117295843D01*
X164227516Y-117305958D01*
X164177562Y-117300998D01*
X164132360Y-117281014D01*
X164097196Y-117247455D01*
X164081290Y-117217880D01*
X164070129Y-117164807D01*
X164073636Y-117099975D01*
X164091799Y-117022794D01*
X164096624Y-117006677D01*
X164107167Y-116969055D01*
X164114489Y-116939393D01*
X164117231Y-116923019D01*
X164115196Y-116912701D01*
X164107086Y-116886561D01*
X164094223Y-116850331D01*
X164078154Y-116808538D01*
X164070453Y-116788693D01*
X164049774Y-116725631D01*
X164040155Y-116673927D01*
X164040280Y-116668628D01*
X164129238Y-116668628D01*
X164135925Y-116700029D01*
X164149994Y-116742442D01*
X164171979Y-116799169D01*
X164216958Y-116911068D01*
X164186633Y-117019410D01*
X164174995Y-117062094D01*
X164163700Y-117109040D01*
X164158332Y-117142996D01*
X164158697Y-117167202D01*
X164164599Y-117184893D01*
X164175847Y-117199307D01*
X164194091Y-117213542D01*
X164218804Y-117219063D01*
X164243852Y-117207843D01*
X164269965Y-117179250D01*
X164297871Y-117132654D01*
X164328302Y-117067423D01*
X164333764Y-117054659D01*
X164349402Y-117019158D01*
X164363526Y-116990669D01*
X164378679Y-116965708D01*
X164397403Y-116940791D01*
X164422237Y-116912433D01*
X164455725Y-116877149D01*
X164500408Y-116831455D01*
X164536826Y-116794215D01*
X164571873Y-116757603D01*
X164596276Y-116730533D01*
X164611836Y-116710651D01*
X164620354Y-116695600D01*
X164623634Y-116683024D01*
X164623478Y-116670568D01*
X164621705Y-116660418D01*
X164605835Y-116632351D01*
X164578492Y-116616611D01*
X164544593Y-116616563D01*
X164544549Y-116616574D01*
X164527276Y-116625254D01*
X164499217Y-116644062D01*
X164464244Y-116670235D01*
X164426229Y-116701010D01*
X164333420Y-116779044D01*
X164293192Y-116706170D01*
X164287467Y-116696008D01*
X164253680Y-116644759D01*
X164221482Y-116610597D01*
X164191651Y-116593992D01*
X164164966Y-116595412D01*
X164142208Y-116615327D01*
X164135870Y-116625654D01*
X164129398Y-116644937D01*
X164129238Y-116668628D01*
X164040280Y-116668628D01*
X164041189Y-116630148D01*
X164052472Y-116590859D01*
X164054719Y-116585771D01*
X164081908Y-116544583D01*
X164119582Y-116519124D01*
X164169980Y-116507810D01*
X164186645Y-116507191D01*
X164240693Y-116516099D01*
X164287437Y-116540546D01*
X164322690Y-116578589D01*
X164324013Y-116580669D01*
X164339289Y-116604542D01*
X164350528Y-116621903D01*
X164355122Y-116626017D01*
X164366496Y-116624956D01*
X164385948Y-116613700D01*
X164416649Y-116590754D01*
X164420152Y-116588019D01*
X164463105Y-116557000D01*
X164498671Y-116537774D01*
X164532364Y-116527982D01*
X164569694Y-116525267D01*
X164599596Y-116528217D01*
X164645640Y-116546454D01*
X164681504Y-116579148D01*
X164704794Y-116623755D01*
X164713118Y-116677732D01*
X164713107Y-116680840D01*
X164712970Y-116683024D01*
X164711570Y-116705388D01*
G37*
G36*
X166344388Y-116041786D02*
G01*
X166339773Y-116127670D01*
X166330976Y-116202963D01*
X166312507Y-116294663D01*
X166269802Y-116430920D01*
X166210821Y-116556617D01*
X166135976Y-116671238D01*
X166045679Y-116774269D01*
X165940342Y-116865194D01*
X165820378Y-116943498D01*
X165686199Y-117008667D01*
X165655789Y-117020590D01*
X165607282Y-117035074D01*
X165573358Y-117036986D01*
X165553230Y-117025638D01*
X165546110Y-117000342D01*
X165551209Y-116960409D01*
X165567739Y-116905151D01*
X165586414Y-116834931D01*
X165592042Y-116767804D01*
X165583977Y-116709286D01*
X165562940Y-116661004D01*
X165529655Y-116624583D01*
X165484846Y-116601650D01*
X165429236Y-116593830D01*
X165405479Y-116595287D01*
X165358268Y-116606850D01*
X165307978Y-116631333D01*
X165250725Y-116670403D01*
X165221895Y-116690448D01*
X165196046Y-116705208D01*
X165179654Y-116710846D01*
X165178151Y-116710752D01*
X165159244Y-116705387D01*
X165129647Y-116693416D01*
X165095075Y-116677117D01*
X165088006Y-116673607D01*
X165056539Y-116659280D01*
X165033003Y-116650636D01*
X165022050Y-116649438D01*
X165020287Y-116653142D01*
X165017189Y-116672198D01*
X165015932Y-116700262D01*
X165014433Y-116730595D01*
X165002011Y-116803951D01*
X164978448Y-116885155D01*
X164945469Y-116970038D01*
X164904797Y-117054428D01*
X164858155Y-117134157D01*
X164807268Y-117205054D01*
X164754257Y-117265463D01*
X164653381Y-117357741D01*
X164540239Y-117436663D01*
X164417168Y-117500895D01*
X164286508Y-117549102D01*
X164150596Y-117579950D01*
X164114985Y-117584141D01*
X164044588Y-117587178D01*
X163965778Y-117585635D01*
X163885068Y-117579878D01*
X163808968Y-117570270D01*
X163743990Y-117557177D01*
X163631818Y-117521232D01*
X163506693Y-117463520D01*
X163389943Y-117390398D01*
X163284359Y-117303649D01*
X163192733Y-117205054D01*
X163168601Y-117173380D01*
X163119477Y-117097848D01*
X163075403Y-117015428D01*
X163038101Y-116930289D01*
X163009296Y-116846602D01*
X162990710Y-116768536D01*
X162984069Y-116700262D01*
X162983786Y-116686972D01*
X162981592Y-116662067D01*
X162977951Y-116649438D01*
X162976946Y-116648988D01*
X162963010Y-116651871D01*
X162937453Y-116661834D01*
X162904926Y-116677117D01*
X162899869Y-116679639D01*
X162865661Y-116695456D01*
X162837248Y-116706618D01*
X162820347Y-116710846D01*
X162804546Y-116705493D01*
X162778877Y-116690937D01*
X162749276Y-116670403D01*
X162719427Y-116648866D01*
X162666154Y-116617326D01*
X162617894Y-116599535D01*
X162570765Y-116593830D01*
X162521159Y-116599587D01*
X162477690Y-116620452D01*
X162439983Y-116658639D01*
X162431088Y-116671100D01*
X162419197Y-116694513D01*
X162412639Y-116722956D01*
X162409299Y-116763669D01*
X162408526Y-116794336D01*
X162411135Y-116829992D01*
X162419316Y-116866113D01*
X162434532Y-116911263D01*
X162444599Y-116939837D01*
X162454217Y-116973088D01*
X162456870Y-116995593D01*
X162453354Y-117011610D01*
X162444352Y-117026148D01*
X162427222Y-117036671D01*
X162401585Y-117037303D01*
X162364693Y-117027988D01*
X162313801Y-117008667D01*
X162302108Y-117003761D01*
X162168635Y-116937442D01*
X162049937Y-116858457D01*
X161946272Y-116767202D01*
X161857895Y-116664078D01*
X161785063Y-116549480D01*
X161728032Y-116423807D01*
X161687057Y-116287458D01*
X161662396Y-116140829D01*
X161654303Y-115984319D01*
X161654705Y-115966858D01*
X161791455Y-115966858D01*
X161796504Y-116101067D01*
X161816422Y-116230871D01*
X161851183Y-116352105D01*
X161876792Y-116416227D01*
X161939578Y-116537701D01*
X162016220Y-116645522D01*
X162106975Y-116740026D01*
X162212101Y-116821549D01*
X162239308Y-116839081D01*
X162261867Y-116852321D01*
X162273345Y-116857384D01*
X162276577Y-116849644D01*
X162273620Y-116830519D01*
X162271459Y-116820143D01*
X162268150Y-116788776D01*
X162267333Y-116753662D01*
X162268281Y-116734932D01*
X162283073Y-116661796D01*
X162313732Y-116596888D01*
X162358065Y-116542002D01*
X162413875Y-116498933D01*
X162478968Y-116469478D01*
X162551147Y-116455430D01*
X162628218Y-116458585D01*
X162649510Y-116462922D01*
X162704984Y-116480907D01*
X162760312Y-116506447D01*
X162805806Y-116535356D01*
X162807966Y-116537031D01*
X162818752Y-116543900D01*
X162830430Y-116545980D01*
X162847245Y-116542494D01*
X162873442Y-116532667D01*
X162913267Y-116515723D01*
X162933598Y-116506981D01*
X162970384Y-116491389D01*
X162999117Y-116479500D01*
X163014870Y-116473368D01*
X163022392Y-116467291D01*
X163035343Y-116444988D01*
X163047554Y-116411254D01*
X163072394Y-116339608D01*
X163112513Y-116252046D01*
X163158978Y-116173664D01*
X163197440Y-116117317D01*
X163163281Y-116084370D01*
X163138702Y-116059222D01*
X163077796Y-115984933D01*
X163021065Y-115899515D01*
X162972256Y-115808963D01*
X162935114Y-115719269D01*
X162921191Y-115672057D01*
X162907872Y-115614529D01*
X162896755Y-115554568D01*
X162889136Y-115499172D01*
X162886308Y-115455343D01*
X162885032Y-115432041D01*
X162877491Y-115411819D01*
X162876595Y-115411038D01*
X162990482Y-115411038D01*
X162991045Y-115488068D01*
X162996545Y-115560658D01*
X163006982Y-115621577D01*
X163009948Y-115633124D01*
X163040194Y-115720301D01*
X163083429Y-115809163D01*
X163136785Y-115895475D01*
X163197392Y-115975001D01*
X163262381Y-116043506D01*
X163328883Y-116096756D01*
X163329668Y-116099513D01*
X163323350Y-116114780D01*
X163321745Y-116117317D01*
X163307689Y-116139539D01*
X163284941Y-116170025D01*
X163245179Y-116222452D01*
X163209796Y-116277015D01*
X163181602Y-116332268D01*
X163156508Y-116395386D01*
X163142412Y-116439270D01*
X163120812Y-116548643D01*
X163117202Y-116658279D01*
X163130583Y-116766677D01*
X163159955Y-116872336D01*
X163204319Y-116973752D01*
X163262677Y-117069425D01*
X163334028Y-117157853D01*
X163417373Y-117237534D01*
X163511714Y-117306967D01*
X163616051Y-117364648D01*
X163729384Y-117409078D01*
X163850716Y-117438753D01*
X163859618Y-117440258D01*
X163986468Y-117451620D01*
X164111682Y-117444766D01*
X164233517Y-117420716D01*
X164350229Y-117380490D01*
X164460075Y-117325110D01*
X164561312Y-117255595D01*
X164652198Y-117172965D01*
X164730987Y-117078242D01*
X164795938Y-116972444D01*
X164845308Y-116856594D01*
X164860313Y-116806727D01*
X164880365Y-116693102D01*
X164881374Y-116579414D01*
X164863613Y-116466996D01*
X164827358Y-116357182D01*
X164772880Y-116251305D01*
X164700454Y-116150698D01*
X164683078Y-116127915D01*
X164678437Y-116119807D01*
X164803986Y-116119807D01*
X164832771Y-116158884D01*
X164855506Y-116192829D01*
X164890787Y-116256512D01*
X164922689Y-116326634D01*
X164947413Y-116395355D01*
X164968539Y-116464908D01*
X165024020Y-116486919D01*
X165046412Y-116496099D01*
X165089507Y-116514887D01*
X165126968Y-116532438D01*
X165174436Y-116555945D01*
X165195381Y-116536268D01*
X165206819Y-116527003D01*
X165242423Y-116505676D01*
X165287224Y-116485059D01*
X165334377Y-116468109D01*
X165377037Y-116457783D01*
X165394975Y-116455451D01*
X165469499Y-116456543D01*
X165539145Y-116474119D01*
X165601590Y-116506313D01*
X165654512Y-116551257D01*
X165695589Y-116607085D01*
X165722499Y-116671930D01*
X165732921Y-116743923D01*
X165732710Y-116770940D01*
X165730455Y-116806004D01*
X165726526Y-116830519D01*
X165723457Y-116849352D01*
X165726630Y-116857384D01*
X165736747Y-116854016D01*
X165760523Y-116840326D01*
X165792609Y-116818634D01*
X165829306Y-116791683D01*
X165866912Y-116762213D01*
X165901726Y-116732968D01*
X165930048Y-116706688D01*
X165994395Y-116634210D01*
X166066639Y-116528539D01*
X166125462Y-116412110D01*
X166169932Y-116287652D01*
X166199114Y-116157897D01*
X166212077Y-116025576D01*
X166207888Y-115893418D01*
X166189995Y-115771063D01*
X166151846Y-115624438D01*
X166096271Y-115486576D01*
X166023180Y-115357265D01*
X165932485Y-115236292D01*
X165904374Y-115204572D01*
X165835176Y-115136130D01*
X165763559Y-115077490D01*
X165691630Y-115029794D01*
X165621498Y-114994182D01*
X165555269Y-114971796D01*
X165495051Y-114963777D01*
X165442951Y-114971266D01*
X165430278Y-114976813D01*
X165400576Y-114996331D01*
X165373222Y-115021342D01*
X165351034Y-115051148D01*
X165339249Y-115086567D01*
X165343446Y-115125534D01*
X165363348Y-115172269D01*
X165370362Y-115186116D01*
X165380350Y-115213145D01*
X165377624Y-115225823D01*
X165372508Y-115229298D01*
X165353142Y-115243025D01*
X165322726Y-115264867D01*
X165284205Y-115292706D01*
X165240524Y-115324425D01*
X165114112Y-115416423D01*
X165113774Y-115470153D01*
X165113738Y-115470653D01*
X165108137Y-115548579D01*
X165086155Y-115654895D01*
X165049067Y-115762531D01*
X164998449Y-115867799D01*
X164935880Y-115967011D01*
X164862937Y-116056479D01*
X164803986Y-116119807D01*
X164678437Y-116119807D01*
X164671280Y-116107303D01*
X164670775Y-116096967D01*
X164680560Y-116090259D01*
X164746946Y-116034665D01*
X164811426Y-115964430D01*
X164871137Y-115883778D01*
X164923216Y-115796935D01*
X164964798Y-115708127D01*
X164993019Y-115621577D01*
X164995830Y-115609103D01*
X165005143Y-115544891D01*
X165009518Y-115470653D01*
X165008956Y-115393623D01*
X165003456Y-115321033D01*
X164993019Y-115260115D01*
X164988575Y-115243150D01*
X164955282Y-115150446D01*
X164907925Y-115056584D01*
X164849777Y-114966733D01*
X164784109Y-114886061D01*
X164714194Y-114819734D01*
X164698915Y-114807261D01*
X164675852Y-114786846D01*
X164663930Y-114771541D01*
X164660174Y-114756704D01*
X164661609Y-114737691D01*
X164663031Y-114713675D01*
X164655326Y-114654304D01*
X164634100Y-114587498D01*
X164600921Y-114516032D01*
X164557356Y-114442679D01*
X164504971Y-114370215D01*
X164445334Y-114301415D01*
X164380012Y-114239052D01*
X164362286Y-114224020D01*
X164327338Y-114195820D01*
X164299165Y-114175040D01*
X164280372Y-114163540D01*
X164273565Y-114163175D01*
X164273566Y-114163194D01*
X164275892Y-114173431D01*
X164282083Y-114198768D01*
X164291206Y-114235428D01*
X164302327Y-114279632D01*
X164302782Y-114281438D01*
X164313681Y-114328051D01*
X164324975Y-114381878D01*
X164336118Y-114439627D01*
X164346566Y-114498004D01*
X164355773Y-114553716D01*
X164360280Y-114583938D01*
X164363193Y-114603469D01*
X164368283Y-114643971D01*
X164370495Y-114671928D01*
X164369286Y-114684047D01*
X164364817Y-114684960D01*
X164344459Y-114683708D01*
X164312039Y-114679267D01*
X164272059Y-114672185D01*
X164268883Y-114671578D01*
X164204809Y-114662673D01*
X164127215Y-114656766D01*
X164041573Y-114653855D01*
X163953354Y-114653942D01*
X163868028Y-114657025D01*
X163791067Y-114663107D01*
X163727942Y-114672185D01*
X163704654Y-114676484D01*
X163668399Y-114682140D01*
X163642251Y-114684844D01*
X163630715Y-114684047D01*
X163630584Y-114683895D01*
X163629534Y-114671021D01*
X163631883Y-114642452D01*
X163637085Y-114601481D01*
X163641933Y-114569145D01*
X163729259Y-114569145D01*
X163734354Y-114577536D01*
X163748853Y-114579966D01*
X163776057Y-114577433D01*
X163819270Y-114570935D01*
X163831258Y-114569231D01*
X163875005Y-114564702D01*
X163915794Y-114562471D01*
X163963472Y-114561615D01*
X163963358Y-114558545D01*
X164036633Y-114558545D01*
X164075510Y-114561615D01*
X164118451Y-114565006D01*
X164126625Y-114565667D01*
X164170279Y-114569658D01*
X164209840Y-114573943D01*
X164237608Y-114577703D01*
X164274947Y-114583938D01*
X164268465Y-114545911D01*
X164261331Y-114507939D01*
X164250085Y-114453847D01*
X164236508Y-114392188D01*
X164221934Y-114328875D01*
X164207697Y-114269823D01*
X164195132Y-114220944D01*
X164194739Y-114219489D01*
X164181355Y-114175948D01*
X164168590Y-114150442D01*
X164154426Y-114141688D01*
X164136842Y-114148404D01*
X164113820Y-114169308D01*
X164092694Y-114195395D01*
X164071497Y-114235804D01*
X164056428Y-114286503D01*
X164046664Y-114350458D01*
X164041382Y-114430637D01*
X164036633Y-114558545D01*
X163963358Y-114558545D01*
X163958671Y-114432173D01*
X163954622Y-114364292D01*
X163945868Y-114297912D01*
X163932092Y-114245279D01*
X163912471Y-114203407D01*
X163886181Y-114169308D01*
X163885462Y-114168559D01*
X163862616Y-114148026D01*
X163845152Y-114141716D01*
X163831053Y-114150910D01*
X163818298Y-114176892D01*
X163804869Y-114220944D01*
X163792748Y-114268043D01*
X163778706Y-114326180D01*
X163764272Y-114388729D01*
X163750764Y-114449857D01*
X163739500Y-114503732D01*
X163731797Y-114544519D01*
X163730263Y-114553796D01*
X163729259Y-114569145D01*
X163641933Y-114569145D01*
X163644594Y-114551401D01*
X163653866Y-114495505D01*
X163664355Y-114437087D01*
X163675516Y-114379440D01*
X163686804Y-114325858D01*
X163697673Y-114279632D01*
X163697849Y-114278938D01*
X163708947Y-114234819D01*
X163718034Y-114198300D01*
X163724174Y-114173159D01*
X163726436Y-114163175D01*
X163724944Y-114161841D01*
X163712272Y-114167586D01*
X163688818Y-114183607D01*
X163657188Y-114208049D01*
X163619989Y-114239052D01*
X163589378Y-114266721D01*
X163526473Y-114332386D01*
X163469972Y-114403213D01*
X163421444Y-114476430D01*
X163382455Y-114549261D01*
X163354572Y-114618931D01*
X163339362Y-114682666D01*
X163338392Y-114737691D01*
X163339512Y-114747309D01*
X163338913Y-114763811D01*
X163331747Y-114778288D01*
X163315036Y-114795381D01*
X163285807Y-114819734D01*
X163272421Y-114830930D01*
X163203057Y-114900363D01*
X163138560Y-114983166D01*
X163082200Y-115074171D01*
X163037250Y-115168210D01*
X163006982Y-115260115D01*
X163004171Y-115272588D01*
X162994858Y-115336801D01*
X162990482Y-115411038D01*
X162876595Y-115411038D01*
X162859916Y-115396493D01*
X162857086Y-115394600D01*
X162836470Y-115380143D01*
X162804837Y-115357382D01*
X162765959Y-115329048D01*
X162723606Y-115297867D01*
X162613686Y-115216534D01*
X162637533Y-115174824D01*
X162651649Y-115144674D01*
X162660668Y-115095504D01*
X162651150Y-115050764D01*
X162623642Y-115012247D01*
X162578689Y-114981746D01*
X162540021Y-114968160D01*
X162485976Y-114964382D01*
X162425126Y-114976235D01*
X162355308Y-115003934D01*
X162275581Y-115049188D01*
X162186177Y-115117384D01*
X162101242Y-115200425D01*
X162022809Y-115295803D01*
X161952910Y-115401013D01*
X161893577Y-115513549D01*
X161846843Y-115630905D01*
X161826063Y-115701889D01*
X161801299Y-115832411D01*
X161791455Y-115966858D01*
X161654705Y-115966858D01*
X161655886Y-115915637D01*
X161668953Y-115781354D01*
X161696235Y-115654118D01*
X161738959Y-115528964D01*
X161798349Y-115400927D01*
X161807928Y-115382854D01*
X161876885Y-115269478D01*
X161956286Y-115163909D01*
X162043796Y-115068487D01*
X162137082Y-114985550D01*
X162233811Y-114917435D01*
X162331650Y-114866483D01*
X162350171Y-114858903D01*
X162379245Y-114849276D01*
X162408973Y-114843621D01*
X162445642Y-114840932D01*
X162495539Y-114840198D01*
X162522268Y-114840292D01*
X162563718Y-114841608D01*
X162593424Y-114845073D01*
X162616568Y-114851463D01*
X162638331Y-114861552D01*
X162673881Y-114882695D01*
X162726685Y-114926581D01*
X162766827Y-114980279D01*
X162767452Y-114981346D01*
X162781051Y-115007394D01*
X162788985Y-115032264D01*
X162792730Y-115062850D01*
X162793764Y-115106043D01*
X162794134Y-115143959D01*
X162796039Y-115169876D01*
X162801122Y-115186268D01*
X162811030Y-115198281D01*
X162827412Y-115211062D01*
X162835738Y-115217055D01*
X162856151Y-115230377D01*
X162867508Y-115235692D01*
X162870484Y-115232934D01*
X162877854Y-115216299D01*
X162885823Y-115189609D01*
X162907644Y-115121235D01*
X162948160Y-115031131D01*
X163000696Y-114940449D01*
X163062383Y-114854033D01*
X163130351Y-114776729D01*
X163132541Y-114774507D01*
X163162872Y-114742990D01*
X163182492Y-114719422D01*
X163194520Y-114698448D01*
X163202070Y-114674714D01*
X163208260Y-114642865D01*
X163234083Y-114546696D01*
X163278563Y-114447211D01*
X163341178Y-114345520D01*
X163421437Y-114242544D01*
X163458552Y-114201947D01*
X163519967Y-114143605D01*
X163584317Y-114091631D01*
X163648722Y-114047916D01*
X163710303Y-114014351D01*
X163766178Y-113992826D01*
X163813467Y-113985230D01*
X163830943Y-113986177D01*
X163884354Y-113999804D01*
X163932690Y-114027002D01*
X163969339Y-114064412D01*
X163977536Y-114075929D01*
X163992065Y-114094422D01*
X164000000Y-114101720D01*
X164002773Y-114099890D01*
X164014439Y-114086509D01*
X164030662Y-114064412D01*
X164040968Y-114051245D01*
X164082171Y-114016809D01*
X164132897Y-113993685D01*
X164186533Y-113985230D01*
X164216267Y-113988510D01*
X164269484Y-114005408D01*
X164329408Y-114035003D01*
X164393158Y-114075405D01*
X164457854Y-114124722D01*
X164520616Y-114181065D01*
X164578563Y-114242544D01*
X164658160Y-114344561D01*
X164721097Y-114446566D01*
X164765795Y-114546400D01*
X164791800Y-114643206D01*
X164796535Y-114668512D01*
X164803904Y-114695024D01*
X164815258Y-114716795D01*
X164834012Y-114739871D01*
X164863579Y-114770294D01*
X164908789Y-114819066D01*
X164974558Y-114903698D01*
X165031998Y-114994496D01*
X165078071Y-115086472D01*
X165109738Y-115174634D01*
X165118816Y-115204476D01*
X165127336Y-115227056D01*
X165132935Y-115235692D01*
X165135485Y-115234942D01*
X165150599Y-115226289D01*
X165172588Y-115211062D01*
X165188261Y-115198910D01*
X165198479Y-115186988D01*
X165203782Y-115170967D01*
X165205818Y-115145701D01*
X165206236Y-115106043D01*
X165206243Y-115104156D01*
X165207351Y-115061547D01*
X165211224Y-115031293D01*
X165219340Y-115006501D01*
X165233174Y-114980279D01*
X165253698Y-114949612D01*
X165300207Y-114901735D01*
X165361670Y-114861552D01*
X165372695Y-114856000D01*
X165394500Y-114847856D01*
X165420276Y-114843025D01*
X165455203Y-114840730D01*
X165504462Y-114840198D01*
X165534659Y-114840432D01*
X165576307Y-114842147D01*
X165608280Y-114846388D01*
X165636866Y-114854164D01*
X165668351Y-114866483D01*
X165682764Y-114872859D01*
X165768287Y-114919464D01*
X165856630Y-114981640D01*
X165944406Y-115057048D01*
X166001374Y-115114611D01*
X166094902Y-115228762D01*
X166176366Y-115354594D01*
X166243921Y-115488706D01*
X166295722Y-115627695D01*
X166329924Y-115768158D01*
X166333295Y-115789331D01*
X166341132Y-115865743D01*
X166344835Y-115952186D01*
X166344469Y-116025576D01*
X166344388Y-116041786D01*
G37*
G36*
X141830022Y-115009034D02*
G01*
X141875937Y-115029510D01*
X141914488Y-115063677D01*
X141943286Y-115110488D01*
X141959944Y-115168891D01*
X141962074Y-115237838D01*
X141958882Y-115264701D01*
X141939433Y-115336942D01*
X141906152Y-115400970D01*
X141861022Y-115453563D01*
X141806023Y-115491501D01*
X141758136Y-115509343D01*
X141701078Y-115514959D01*
X141648367Y-115503216D01*
X141602563Y-115474770D01*
X141566228Y-115430273D01*
X141562416Y-115423686D01*
X141550358Y-115399410D01*
X141543496Y-115375389D01*
X141540486Y-115345038D01*
X141539983Y-115301769D01*
X141543060Y-115246003D01*
X141555727Y-115187792D01*
X141580230Y-115136746D01*
X141618747Y-115086923D01*
X141620460Y-115085041D01*
X141671960Y-115040254D01*
X141725645Y-115013357D01*
X141779128Y-115003300D01*
X141830022Y-115009034D01*
G37*
G36*
X144276665Y-115013483D02*
G01*
X144330675Y-115041825D01*
X144381254Y-115086923D01*
X144413279Y-115126904D01*
X144440402Y-115177231D01*
X144455255Y-115233539D01*
X144460018Y-115301769D01*
X144460053Y-115313311D01*
X144459084Y-115353021D01*
X144455294Y-115381331D01*
X144447345Y-115404819D01*
X144433898Y-115430060D01*
X144407479Y-115465405D01*
X144365513Y-115495995D01*
X144362271Y-115497568D01*
X144307743Y-115514295D01*
X144252364Y-115512292D01*
X144193978Y-115491501D01*
X144173558Y-115479983D01*
X144121817Y-115436503D01*
X144080644Y-115379506D01*
X144052020Y-115312210D01*
X144037926Y-115237838D01*
X144036900Y-115216469D01*
X144043680Y-115150020D01*
X144065510Y-115093275D01*
X144101456Y-115048076D01*
X144150582Y-115016262D01*
X144167506Y-115009871D01*
X144221513Y-115002598D01*
X144276665Y-115013483D01*
G37*
G36*
X145024079Y-115561505D02*
G01*
X145028865Y-115721243D01*
X145015386Y-115877824D01*
X145011999Y-115894221D01*
X144983948Y-116030011D01*
X144934856Y-116176569D01*
X144868417Y-116316261D01*
X144784936Y-116447851D01*
X144684718Y-116570104D01*
X144618873Y-116641223D01*
X144640822Y-116656597D01*
X144641232Y-116656885D01*
X144671472Y-116679766D01*
X144709483Y-116710967D01*
X144752419Y-116747883D01*
X144797434Y-116787909D01*
X144841682Y-116828437D01*
X144882318Y-116866862D01*
X144916496Y-116900579D01*
X144941370Y-116926981D01*
X144954095Y-116943463D01*
X144953903Y-116956406D01*
X144942538Y-116984208D01*
X144919869Y-117024132D01*
X144886763Y-117074787D01*
X144844087Y-117134781D01*
X144792705Y-117202723D01*
X144790582Y-117205450D01*
X144740032Y-117266213D01*
X144678515Y-117334010D01*
X144610475Y-117404370D01*
X144540356Y-117472821D01*
X144472601Y-117534892D01*
X144411654Y-117586112D01*
X144379130Y-117611540D01*
X144349051Y-117634469D01*
X144327713Y-117650059D01*
X144318372Y-117655875D01*
X144313049Y-117651472D01*
X144297630Y-117634523D01*
X144275055Y-117607796D01*
X144248048Y-117574444D01*
X144169663Y-117485456D01*
X144056651Y-117381962D01*
X143928899Y-117288495D01*
X143788037Y-117205987D01*
X143635690Y-117135369D01*
X143473487Y-117077572D01*
X143303055Y-117033530D01*
X143298467Y-117032561D01*
X143251202Y-117023139D01*
X143209686Y-117016399D01*
X143168865Y-117011910D01*
X143123681Y-117009239D01*
X143069078Y-117007953D01*
X143000000Y-117007620D01*
X142993233Y-117007622D01*
X142925627Y-117008021D01*
X142872053Y-117009411D01*
X142827454Y-117012225D01*
X142786774Y-117016894D01*
X142744957Y-117023852D01*
X142696946Y-117033530D01*
X142540829Y-117073381D01*
X142383197Y-117128109D01*
X142234212Y-117194889D01*
X142095826Y-117272619D01*
X141969993Y-117360196D01*
X141858665Y-117456517D01*
X141763797Y-117560478D01*
X141751077Y-117576331D01*
X141725883Y-117607514D01*
X141705927Y-117631928D01*
X141694676Y-117645315D01*
X141689396Y-117649023D01*
X141678725Y-117648368D01*
X141661541Y-117639683D01*
X141635033Y-117621448D01*
X141596394Y-117592142D01*
X141574320Y-117574533D01*
X141513562Y-117522160D01*
X141446945Y-117460262D01*
X141378733Y-117393102D01*
X141313190Y-117324949D01*
X141254581Y-117260067D01*
X141207168Y-117202723D01*
X141164154Y-117146017D01*
X141119780Y-117084301D01*
X141084924Y-117031829D01*
X141060430Y-116989960D01*
X141047142Y-116960052D01*
X141045906Y-116943463D01*
X141046000Y-116943289D01*
X141058945Y-116926626D01*
X141083992Y-116900084D01*
X141118297Y-116866270D01*
X141159014Y-116827790D01*
X141203297Y-116787250D01*
X141248301Y-116747254D01*
X141291180Y-116710410D01*
X141329087Y-116679322D01*
X141359179Y-116656597D01*
X141381128Y-116641223D01*
X141315283Y-116570104D01*
X141278612Y-116528796D01*
X141184170Y-116403161D01*
X141106571Y-116268618D01*
X141046120Y-116126403D01*
X141003122Y-115977751D01*
X140995141Y-115929096D01*
X141938360Y-115929096D01*
X141955769Y-115983461D01*
X141991486Y-116040513D01*
X142045254Y-116099556D01*
X142094558Y-116142560D01*
X142194187Y-116211462D01*
X142309108Y-116271409D01*
X142437664Y-116321696D01*
X142578198Y-116361619D01*
X142729053Y-116390473D01*
X142747943Y-116392995D01*
X142814028Y-116398958D01*
X142892060Y-116402797D01*
X142976810Y-116404515D01*
X143063050Y-116404114D01*
X143145551Y-116401596D01*
X143219085Y-116396965D01*
X143278423Y-116390222D01*
X143370030Y-116373668D01*
X143511771Y-116337839D01*
X143643063Y-116291676D01*
X143761956Y-116236015D01*
X143866501Y-116171696D01*
X143954747Y-116099556D01*
X143993055Y-116059462D01*
X144034651Y-116001689D01*
X144058021Y-115946376D01*
X144062907Y-115894221D01*
X144049050Y-115845918D01*
X144032800Y-115817757D01*
X144003808Y-115783565D01*
X143966058Y-115756920D01*
X143915960Y-115735498D01*
X143849923Y-115716972D01*
X143801536Y-115704356D01*
X143696382Y-115670279D01*
X143579192Y-115624059D01*
X143448729Y-115565227D01*
X143439568Y-115560886D01*
X143363790Y-115526114D01*
X143299939Y-115499760D01*
X143243455Y-115480707D01*
X143189780Y-115467836D01*
X143134352Y-115460027D01*
X143072612Y-115456163D01*
X143000000Y-115455123D01*
X142991430Y-115455133D01*
X142920223Y-115456426D01*
X142859392Y-115460666D01*
X142804376Y-115468971D01*
X142750615Y-115482461D01*
X142693551Y-115502255D01*
X142628623Y-115529470D01*
X142551271Y-115565227D01*
X142484393Y-115596209D01*
X142360712Y-115648685D01*
X142249687Y-115688783D01*
X142150077Y-115716972D01*
X142104069Y-115729126D01*
X142049066Y-115749326D01*
X142007606Y-115773975D01*
X141976098Y-115805397D01*
X141950951Y-115845918D01*
X141939519Y-115878113D01*
X141938360Y-115929096D01*
X140995141Y-115929096D01*
X140977884Y-115823898D01*
X140970712Y-115666081D01*
X140981911Y-115505535D01*
X141005291Y-115378727D01*
X141405112Y-115378727D01*
X141408576Y-115453743D01*
X141423374Y-115523532D01*
X141449432Y-115585906D01*
X141486676Y-115638675D01*
X141535031Y-115679650D01*
X141594422Y-115706641D01*
X141628002Y-115715903D01*
X141654221Y-115719910D01*
X141679519Y-115718239D01*
X141712944Y-115711240D01*
X141733772Y-115705515D01*
X141804409Y-115673953D01*
X141870992Y-115626092D01*
X141931353Y-115564415D01*
X141983326Y-115491403D01*
X142024741Y-115409540D01*
X142053431Y-115321307D01*
X142066053Y-115240298D01*
X142066026Y-115237030D01*
X143933715Y-115237030D01*
X143934213Y-115240298D01*
X143946570Y-115321307D01*
X143956143Y-115356281D01*
X143989319Y-115440424D01*
X144034024Y-115518411D01*
X144087805Y-115586914D01*
X144148207Y-115642607D01*
X144212776Y-115682164D01*
X144259648Y-115701443D01*
X144314400Y-115715279D01*
X144364440Y-115715838D01*
X144414755Y-115703650D01*
X144418253Y-115702385D01*
X144476291Y-115670885D01*
X144523992Y-115624403D01*
X144560365Y-115565027D01*
X144584422Y-115494847D01*
X144595173Y-115415951D01*
X144591626Y-115330428D01*
X144580610Y-115268610D01*
X144554885Y-115185403D01*
X144518893Y-115109221D01*
X144474309Y-115041389D01*
X144422805Y-114983230D01*
X144366055Y-114936068D01*
X144305732Y-114901227D01*
X144243511Y-114880032D01*
X144181063Y-114873806D01*
X144120064Y-114883873D01*
X144062185Y-114911557D01*
X144014921Y-114953325D01*
X143976353Y-115010474D01*
X143949420Y-115078730D01*
X143934936Y-115155210D01*
X143933715Y-115237030D01*
X142066026Y-115237030D01*
X142065367Y-115158328D01*
X142051386Y-115081585D01*
X142024925Y-115012953D01*
X141986797Y-114955316D01*
X141937815Y-114911557D01*
X141894609Y-114888887D01*
X141832036Y-114873974D01*
X141766670Y-114877156D01*
X141700141Y-114898080D01*
X141634079Y-114936389D01*
X141570114Y-114991728D01*
X141560414Y-115001894D01*
X141506089Y-115070196D01*
X141463471Y-115144220D01*
X141432485Y-115221777D01*
X141413057Y-115300675D01*
X141405112Y-115378727D01*
X141005291Y-115378727D01*
X141011787Y-115343497D01*
X141021507Y-115305762D01*
X141072881Y-115154013D01*
X141141697Y-115009627D01*
X141227204Y-114873184D01*
X141328650Y-114745265D01*
X141445284Y-114626449D01*
X141576355Y-114517317D01*
X141721111Y-114418449D01*
X141878802Y-114330426D01*
X142048676Y-114253828D01*
X142229982Y-114189234D01*
X142421969Y-114137225D01*
X142623885Y-114098381D01*
X142634261Y-114096821D01*
X142727761Y-114086221D01*
X142834407Y-114079228D01*
X142948806Y-114075844D01*
X143065568Y-114076066D01*
X143179301Y-114079897D01*
X143284614Y-114087335D01*
X143376116Y-114098381D01*
X143425811Y-114106536D01*
X143625395Y-114148616D01*
X143814868Y-114203722D01*
X143993479Y-114271271D01*
X144160475Y-114350686D01*
X144315108Y-114441385D01*
X144456624Y-114542787D01*
X144584272Y-114654314D01*
X144697303Y-114775384D01*
X144794963Y-114905418D01*
X144876503Y-115043835D01*
X144941170Y-115190055D01*
X144988214Y-115343497D01*
X145000722Y-115399845D01*
X145003049Y-115415951D01*
X145024079Y-115561505D01*
G37*
G36*
X123773116Y-115276139D02*
G01*
X123801519Y-115287907D01*
X123838793Y-115306030D01*
X123900940Y-115345298D01*
X123965628Y-115395291D01*
X124028507Y-115452259D01*
X124085224Y-115512452D01*
X124131426Y-115572121D01*
X124165634Y-115626540D01*
X124218076Y-115734935D01*
X124251170Y-115845120D01*
X124252924Y-115859333D01*
X124264919Y-115956504D01*
X124259328Y-116068495D01*
X124234398Y-116180503D01*
X124190135Y-116291936D01*
X124126541Y-116402202D01*
X124058466Y-116495331D01*
X123953282Y-116615787D01*
X123831260Y-116733484D01*
X123693926Y-116847179D01*
X123542806Y-116955630D01*
X123379428Y-117057595D01*
X123205316Y-117151833D01*
X123057593Y-117226086D01*
X123090891Y-117264847D01*
X123131243Y-117314733D01*
X123201090Y-117417177D01*
X123259470Y-117525222D01*
X123286000Y-117590086D01*
X123304180Y-117634535D01*
X123333012Y-117740780D01*
X123345884Y-117806723D01*
X122000000Y-117806723D01*
X120654116Y-117806723D01*
X120666989Y-117740780D01*
X120679950Y-117685872D01*
X120713009Y-117590086D01*
X121013308Y-117590086D01*
X121016888Y-117592662D01*
X121031169Y-117595239D01*
X121057517Y-117597322D01*
X121097179Y-117598946D01*
X121151398Y-117600147D01*
X121221419Y-117600961D01*
X121308487Y-117601423D01*
X121413847Y-117601569D01*
X121814385Y-117601569D01*
X122185616Y-117601569D01*
X122586154Y-117601569D01*
X122676010Y-117601466D01*
X122765904Y-117601057D01*
X122838554Y-117600301D01*
X122895203Y-117599164D01*
X122937097Y-117597610D01*
X122965480Y-117595603D01*
X122981597Y-117593107D01*
X122986693Y-117590086D01*
X122986427Y-117586732D01*
X122978873Y-117562942D01*
X122962847Y-117528949D01*
X122940955Y-117489268D01*
X122915803Y-117448417D01*
X122890000Y-117410909D01*
X122866150Y-117381261D01*
X122815669Y-117325713D01*
X122605662Y-117393885D01*
X122591364Y-117398514D01*
X122522146Y-117420594D01*
X122452799Y-117442242D01*
X122387991Y-117462027D01*
X122332392Y-117478521D01*
X122290669Y-117490294D01*
X122185684Y-117518530D01*
X122185650Y-117560050D01*
X122185616Y-117601569D01*
X121814385Y-117601569D01*
X121814351Y-117560050D01*
X121814317Y-117518530D01*
X121709332Y-117490294D01*
X121701832Y-117488251D01*
X121656759Y-117475351D01*
X121598804Y-117458036D01*
X121532637Y-117437734D01*
X121462926Y-117415874D01*
X121394339Y-117393885D01*
X121184332Y-117325713D01*
X121133851Y-117381261D01*
X121129007Y-117386760D01*
X121104515Y-117418483D01*
X121078632Y-117457094D01*
X121053963Y-117498075D01*
X121033115Y-117536911D01*
X121018694Y-117569087D01*
X121013308Y-117590086D01*
X120713009Y-117590086D01*
X120717359Y-117577482D01*
X120769493Y-117468291D01*
X120834144Y-117362635D01*
X120909109Y-117264847D01*
X120942408Y-117226086D01*
X120794685Y-117151833D01*
X120660737Y-117080570D01*
X120494689Y-116980315D01*
X120340540Y-116873283D01*
X120199816Y-116760713D01*
X120074044Y-116643848D01*
X119964750Y-116523931D01*
X119873460Y-116402202D01*
X119838601Y-116346130D01*
X119784869Y-116235196D01*
X119750469Y-116123396D01*
X119735404Y-116011322D01*
X119738627Y-115927059D01*
X119998982Y-115927059D01*
X120010537Y-116031382D01*
X120037454Y-116132269D01*
X120080467Y-116231295D01*
X120140310Y-116330032D01*
X120217715Y-116430052D01*
X120313418Y-116532927D01*
X120376679Y-116593360D01*
X120529468Y-116720744D01*
X120696266Y-116836439D01*
X120875262Y-116939455D01*
X121064645Y-117028807D01*
X121262605Y-117103505D01*
X121467332Y-117162561D01*
X121468796Y-117162920D01*
X121514814Y-117173939D01*
X121554431Y-117182949D01*
X121583465Y-117189030D01*
X121597734Y-117191261D01*
X121598605Y-117190212D01*
X121595150Y-117184950D01*
X122405828Y-117184950D01*
X122406791Y-117190212D01*
X122406906Y-117190841D01*
X122408631Y-117190716D01*
X122427667Y-117187334D01*
X122460654Y-117180058D01*
X122503462Y-117169834D01*
X122551962Y-117157609D01*
X122595178Y-117146086D01*
X122805874Y-117079214D01*
X123006480Y-116997428D01*
X123195925Y-116901316D01*
X123373138Y-116791469D01*
X123537048Y-116668476D01*
X123686583Y-116532927D01*
X123748650Y-116468134D01*
X123832818Y-116367230D01*
X123899147Y-116268197D01*
X123948373Y-116169464D01*
X123981229Y-116069457D01*
X123998447Y-115966604D01*
X124000762Y-115859333D01*
X123999606Y-115836034D01*
X123996058Y-115792091D01*
X123990224Y-115758205D01*
X123980712Y-115727721D01*
X123966126Y-115693983D01*
X123947948Y-115659791D01*
X123921657Y-115618813D01*
X123896087Y-115586282D01*
X123888735Y-115578827D01*
X123862685Y-115556621D01*
X123831046Y-115533597D01*
X123798003Y-115512339D01*
X123767738Y-115495434D01*
X123744437Y-115485469D01*
X123732283Y-115485030D01*
X123730704Y-115487635D01*
X123723238Y-115505031D01*
X123712007Y-115534487D01*
X123698776Y-115571451D01*
X123646989Y-115699341D01*
X123577542Y-115835311D01*
X123490688Y-115978476D01*
X123386312Y-116129013D01*
X123264300Y-116287099D01*
X123124534Y-116452912D01*
X123116374Y-116462153D01*
X123074511Y-116508129D01*
X123021555Y-116564567D01*
X122959936Y-116629004D01*
X122892080Y-116698974D01*
X122820416Y-116772013D01*
X122747371Y-116845658D01*
X122675374Y-116917444D01*
X122606852Y-116984907D01*
X122544233Y-117045583D01*
X122489945Y-117097007D01*
X122486998Y-117099759D01*
X122446488Y-117138715D01*
X122419226Y-117167343D01*
X122405828Y-117184950D01*
X121595150Y-117184950D01*
X121591497Y-117179388D01*
X121572933Y-117158702D01*
X121545068Y-117130470D01*
X121510056Y-117097007D01*
X121497592Y-117085334D01*
X121441630Y-117031954D01*
X121377767Y-116969766D01*
X121308446Y-116901251D01*
X121236111Y-116828892D01*
X121163208Y-116755171D01*
X121092180Y-116682568D01*
X121025472Y-116613566D01*
X120965529Y-116550646D01*
X120914794Y-116496291D01*
X120875713Y-116452981D01*
X120746631Y-116300557D01*
X120621683Y-116139905D01*
X120514698Y-115986715D01*
X120425647Y-115840940D01*
X120354499Y-115702534D01*
X120301224Y-115571451D01*
X120295591Y-115555453D01*
X120282978Y-115521059D01*
X120273098Y-115496068D01*
X120267718Y-115485030D01*
X120264804Y-115483920D01*
X120248059Y-115488168D01*
X120221707Y-115500989D01*
X120189932Y-115519797D01*
X120156919Y-115542006D01*
X120126852Y-115565030D01*
X120103914Y-115586282D01*
X120082371Y-115613170D01*
X120055783Y-115653506D01*
X120033875Y-115693983D01*
X120026980Y-115709116D01*
X120014716Y-115740661D01*
X120006934Y-115771775D01*
X120002240Y-115809114D01*
X119999239Y-115859333D01*
X119998982Y-115927059D01*
X119738627Y-115927059D01*
X119739679Y-115899566D01*
X119763297Y-115788720D01*
X119806261Y-115679375D01*
X119868575Y-115572121D01*
X119897459Y-115533249D01*
X119951046Y-115472813D01*
X120012295Y-115414311D01*
X120076852Y-115361493D01*
X120140365Y-115318108D01*
X120198482Y-115287907D01*
X120226885Y-115276139D01*
X120227327Y-115156825D01*
X120470116Y-115156825D01*
X120473288Y-115256215D01*
X120478355Y-115289878D01*
X120504787Y-115399592D01*
X120547023Y-115517912D01*
X120604322Y-115643795D01*
X120675938Y-115776195D01*
X120761129Y-115914068D01*
X120859150Y-116056369D01*
X120969260Y-116202054D01*
X121090712Y-116350077D01*
X121222765Y-116499395D01*
X121364675Y-116648962D01*
X121515698Y-116797734D01*
X121675090Y-116944667D01*
X121678011Y-116947270D01*
X121712308Y-116977624D01*
X121740721Y-117002387D01*
X121760367Y-117019070D01*
X121768363Y-117025184D01*
X121768218Y-117024432D01*
X121762423Y-117011311D01*
X121749242Y-116983515D01*
X121729724Y-116943201D01*
X121704920Y-116892528D01*
X121675879Y-116833656D01*
X121643651Y-116768742D01*
X121625996Y-116733113D01*
X121508392Y-116485458D01*
X121405794Y-116249874D01*
X121318125Y-116026067D01*
X121245308Y-115813742D01*
X121187264Y-115612606D01*
X121143917Y-115422364D01*
X121115188Y-115242723D01*
X121101001Y-115073387D01*
X121101063Y-115037993D01*
X121400797Y-115037993D01*
X121405268Y-115153814D01*
X121414595Y-115273434D01*
X121428779Y-115393723D01*
X121467919Y-115620160D01*
X121523725Y-115856082D01*
X121595671Y-116099326D01*
X121683364Y-116348676D01*
X121786407Y-116602912D01*
X121904405Y-116860816D01*
X121912760Y-116878041D01*
X121938911Y-116931146D01*
X121962056Y-116976955D01*
X121980849Y-117012879D01*
X121987721Y-117025184D01*
X121993945Y-117036330D01*
X122000000Y-117044723D01*
X122005130Y-117038631D01*
X122012877Y-117025184D01*
X122231638Y-117025184D01*
X122238033Y-117021035D01*
X122257045Y-117005231D01*
X122286283Y-116979483D01*
X122323590Y-116945776D01*
X122366807Y-116906093D01*
X122413776Y-116862420D01*
X122462338Y-116816741D01*
X122510335Y-116771040D01*
X122555610Y-116727301D01*
X122684615Y-116597698D01*
X122823419Y-116448687D01*
X122952004Y-116300081D01*
X123069652Y-116152967D01*
X123175646Y-116008432D01*
X123269269Y-115867562D01*
X123349804Y-115731443D01*
X123416533Y-115601163D01*
X123468739Y-115477807D01*
X123505705Y-115362462D01*
X123526713Y-115256215D01*
X123531334Y-115213505D01*
X123532605Y-115174570D01*
X123529252Y-115137801D01*
X123520952Y-115094131D01*
X123513114Y-115061467D01*
X123479538Y-114965659D01*
X123432278Y-114882215D01*
X123370138Y-114808873D01*
X123327281Y-114769517D01*
X123267502Y-114726223D01*
X123203184Y-114694541D01*
X123127512Y-114670586D01*
X123111233Y-114666893D01*
X123071512Y-114660339D01*
X123026734Y-114655321D01*
X122980971Y-114652016D01*
X122938291Y-114650599D01*
X122902766Y-114651247D01*
X122878466Y-114654135D01*
X122869462Y-114659439D01*
X122870051Y-114665639D01*
X122873006Y-114688277D01*
X122877886Y-114722735D01*
X122884058Y-114764459D01*
X122886801Y-114784448D01*
X122893864Y-114861618D01*
X122897485Y-114946468D01*
X122897625Y-114949742D01*
X122898021Y-115042419D01*
X122894989Y-115133245D01*
X122888468Y-115215819D01*
X122880623Y-115279576D01*
X122849676Y-115457945D01*
X122804218Y-115647365D01*
X122744166Y-115848081D01*
X122669436Y-116060333D01*
X122579945Y-116284366D01*
X122475611Y-116520421D01*
X122356350Y-116768742D01*
X122346567Y-116788404D01*
X122315171Y-116851759D01*
X122287271Y-116908436D01*
X122263918Y-116956275D01*
X122246162Y-116993119D01*
X122235052Y-117016808D01*
X122231638Y-117025184D01*
X122012877Y-117025184D01*
X122017586Y-117017010D01*
X122035836Y-116982116D01*
X122058699Y-116936428D01*
X122084997Y-116882424D01*
X122113547Y-116822580D01*
X122143170Y-116759375D01*
X122172686Y-116695287D01*
X122200913Y-116632793D01*
X122226672Y-116574372D01*
X122248782Y-116522500D01*
X122299513Y-116395989D01*
X122374521Y-116189082D01*
X122440238Y-115981757D01*
X122495621Y-115777657D01*
X122539629Y-115580431D01*
X122571222Y-115393723D01*
X122583398Y-115293332D01*
X122593528Y-115173387D01*
X122598801Y-115056723D01*
X122599217Y-114946468D01*
X122594776Y-114845753D01*
X122585477Y-114757705D01*
X122571319Y-114685454D01*
X122565927Y-114666128D01*
X122527858Y-114568735D01*
X122475204Y-114481704D01*
X122409599Y-114406653D01*
X122332678Y-114345202D01*
X122246074Y-114298969D01*
X122151423Y-114269574D01*
X122102294Y-114262443D01*
X122037404Y-114258393D01*
X121968296Y-114258231D01*
X121902757Y-114261958D01*
X121848577Y-114269574D01*
X121830253Y-114273738D01*
X121736990Y-114306421D01*
X121652081Y-114355637D01*
X121577161Y-114419767D01*
X121513865Y-114497193D01*
X121463827Y-114586294D01*
X121428682Y-114685454D01*
X121416527Y-114744603D01*
X121406426Y-114830259D01*
X121401182Y-114929098D01*
X121400797Y-115037993D01*
X121101063Y-115037993D01*
X121101279Y-114914064D01*
X121115943Y-114764459D01*
X121120038Y-114736955D01*
X121125450Y-114699395D01*
X121129161Y-114672038D01*
X121130539Y-114659439D01*
X121129093Y-114657406D01*
X121113647Y-114653596D01*
X121084714Y-114651682D01*
X121046562Y-114651542D01*
X121003462Y-114653056D01*
X120959683Y-114656103D01*
X120919496Y-114660563D01*
X120887170Y-114666315D01*
X120876890Y-114668842D01*
X120782528Y-114702457D01*
X120697938Y-114751398D01*
X120624507Y-114813691D01*
X120563622Y-114887357D01*
X120516671Y-114970419D01*
X120485040Y-115060901D01*
X120470116Y-115156825D01*
X120227327Y-115156825D01*
X120227382Y-115141988D01*
X120229533Y-115065775D01*
X120237701Y-114987448D01*
X120253307Y-114916782D01*
X120277766Y-114847650D01*
X120312496Y-114773929D01*
X120332558Y-114738357D01*
X120394851Y-114653541D01*
X120471507Y-114577410D01*
X120559325Y-114512478D01*
X120655099Y-114461257D01*
X120755628Y-114426261D01*
X120788664Y-114419054D01*
X120871562Y-114408856D01*
X120960771Y-114406751D01*
X121048377Y-114412728D01*
X121126465Y-114426776D01*
X121138405Y-114429715D01*
X121172244Y-114436658D01*
X121196518Y-114439530D01*
X121206610Y-114437700D01*
X121210149Y-114429491D01*
X121223982Y-114404399D01*
X121244115Y-114371682D01*
X121267082Y-114336700D01*
X121289417Y-114304815D01*
X121307655Y-114281388D01*
X121344740Y-114242875D01*
X121418798Y-114182745D01*
X121504530Y-114129524D01*
X121597127Y-114086045D01*
X121691778Y-114055142D01*
X121797002Y-114034534D01*
X121925829Y-114022108D01*
X122058247Y-114021400D01*
X122187848Y-114032412D01*
X122308223Y-114055142D01*
X122365427Y-114072165D01*
X122459411Y-114111010D01*
X122548433Y-114160718D01*
X122627681Y-114218455D01*
X122692346Y-114281388D01*
X122701037Y-114292097D01*
X122721824Y-114320561D01*
X122744918Y-114354715D01*
X122766854Y-114389197D01*
X122784167Y-114418646D01*
X122793390Y-114437700D01*
X122794767Y-114438825D01*
X122809839Y-114439101D01*
X122837634Y-114434875D01*
X122873536Y-114426776D01*
X122906880Y-114419477D01*
X122990216Y-114409049D01*
X123079520Y-114406696D01*
X123166878Y-114412429D01*
X123244373Y-114426261D01*
X123303180Y-114444177D01*
X123406208Y-114490669D01*
X123499899Y-114553037D01*
X123582696Y-114629730D01*
X123653042Y-114719195D01*
X123709379Y-114819882D01*
X123750149Y-114930237D01*
X123756235Y-114953043D01*
X123764106Y-114990834D01*
X123769060Y-115031147D01*
X123771697Y-115079645D01*
X123772618Y-115141988D01*
X123772739Y-115174570D01*
X123773116Y-115276139D01*
G37*
%TD*%
M02*
