%TF.GenerationSoftware,KiCad,Pcbnew,9.0.7*%
%TF.CreationDate,2026-02-05T20:31:52-06:00*%
%TF.ProjectId,wearable,77656172-6162-46c6-952e-6b696361645f,rev?*%
%TF.SameCoordinates,Original*%
%TF.FileFunction,Legend,Top*%
%TF.FilePolarity,Positive*%
%FSLAX46Y46*%
G04 Gerber Fmt 4.6, Leading zero omitted, Abs format (unit mm)*
G04 Created by KiCad (PCBNEW 9.0.7) date 2026-02-05 20:31:52*
%MOMM*%
%LPD*%
G01*
G04 APERTURE LIST*
%ADD10C,0.254000*%
%ADD11C,0.100000*%
%ADD12C,0.250000*%
%ADD13C,0.150000*%
%ADD14C,0.120000*%
%ADD15C,0.000000*%
%ADD16C,0.127000*%
%ADD17C,0.200000*%
%ADD18C,0.152400*%
G04 APERTURE END LIST*
D10*
X168423633Y-117807633D02*
G75*
G02*
X169439567Y-118823633I-33J-1015967D01*
G01*
D11*
X126936068Y-117781820D02*
G75*
G02*
X122463932Y-117781820I-2236068J0D01*
G01*
X122463932Y-117781820D02*
G75*
G02*
X126936068Y-117781820I2236068J0D01*
G01*
D10*
X167407633Y-118823633D02*
G75*
G02*
X168423633Y-117807633I998567J17433D01*
G01*
X169439633Y-118823633D02*
G75*
G02*
X168423633Y-119839633I-1016033J33D01*
G01*
X168423633Y-119839633D02*
G75*
G02*
X167407567Y-118823633I-33J1016033D01*
G01*
X165260276Y-118737099D02*
X165744085Y-118737099D01*
X164728085Y-119075766D02*
X165260276Y-118737099D01*
X165260276Y-118737099D02*
X164728085Y-118398432D01*
X167946452Y-116287752D02*
X168962452Y-115610418D01*
X167946452Y-115610418D02*
X168962452Y-116287752D01*
D12*
X115593044Y-119817000D02*
X115764473Y-119864619D01*
X115764473Y-119864619D02*
X116050187Y-119864619D01*
X116050187Y-119864619D02*
X116164473Y-119817000D01*
X116164473Y-119817000D02*
X116221615Y-119769380D01*
X116221615Y-119769380D02*
X116278758Y-119674142D01*
X116278758Y-119674142D02*
X116278758Y-119578904D01*
X116278758Y-119578904D02*
X116221615Y-119483666D01*
X116221615Y-119483666D02*
X116164473Y-119436047D01*
X116164473Y-119436047D02*
X116050187Y-119388428D01*
X116050187Y-119388428D02*
X115821615Y-119340809D01*
X115821615Y-119340809D02*
X115707330Y-119293190D01*
X115707330Y-119293190D02*
X115650187Y-119245571D01*
X115650187Y-119245571D02*
X115593044Y-119150333D01*
X115593044Y-119150333D02*
X115593044Y-119055095D01*
X115593044Y-119055095D02*
X115650187Y-118959857D01*
X115650187Y-118959857D02*
X115707330Y-118912238D01*
X115707330Y-118912238D02*
X115821615Y-118864619D01*
X115821615Y-118864619D02*
X116107330Y-118864619D01*
X116107330Y-118864619D02*
X116278758Y-118912238D01*
X116793044Y-119197952D02*
X116793044Y-119864619D01*
X116793044Y-119293190D02*
X116850187Y-119245571D01*
X116850187Y-119245571D02*
X116964472Y-119197952D01*
X116964472Y-119197952D02*
X117135901Y-119197952D01*
X117135901Y-119197952D02*
X117250187Y-119245571D01*
X117250187Y-119245571D02*
X117307330Y-119340809D01*
X117307330Y-119340809D02*
X117307330Y-119864619D01*
X118050186Y-119864619D02*
X117935901Y-119817000D01*
X117935901Y-119817000D02*
X117878758Y-119769380D01*
X117878758Y-119769380D02*
X117821615Y-119674142D01*
X117821615Y-119674142D02*
X117821615Y-119388428D01*
X117821615Y-119388428D02*
X117878758Y-119293190D01*
X117878758Y-119293190D02*
X117935901Y-119245571D01*
X117935901Y-119245571D02*
X118050186Y-119197952D01*
X118050186Y-119197952D02*
X118221615Y-119197952D01*
X118221615Y-119197952D02*
X118335901Y-119245571D01*
X118335901Y-119245571D02*
X118393044Y-119293190D01*
X118393044Y-119293190D02*
X118450186Y-119388428D01*
X118450186Y-119388428D02*
X118450186Y-119674142D01*
X118450186Y-119674142D02*
X118393044Y-119769380D01*
X118393044Y-119769380D02*
X118335901Y-119817000D01*
X118335901Y-119817000D02*
X118221615Y-119864619D01*
X118221615Y-119864619D02*
X118050186Y-119864619D01*
X119135900Y-119864619D02*
X119021615Y-119817000D01*
X119021615Y-119817000D02*
X118964472Y-119769380D01*
X118964472Y-119769380D02*
X118907329Y-119674142D01*
X118907329Y-119674142D02*
X118907329Y-119388428D01*
X118907329Y-119388428D02*
X118964472Y-119293190D01*
X118964472Y-119293190D02*
X119021615Y-119245571D01*
X119021615Y-119245571D02*
X119135900Y-119197952D01*
X119135900Y-119197952D02*
X119307329Y-119197952D01*
X119307329Y-119197952D02*
X119421615Y-119245571D01*
X119421615Y-119245571D02*
X119478758Y-119293190D01*
X119478758Y-119293190D02*
X119535900Y-119388428D01*
X119535900Y-119388428D02*
X119535900Y-119674142D01*
X119535900Y-119674142D02*
X119478758Y-119769380D01*
X119478758Y-119769380D02*
X119421615Y-119817000D01*
X119421615Y-119817000D02*
X119307329Y-119864619D01*
X119307329Y-119864619D02*
X119135900Y-119864619D01*
X119935900Y-119197952D02*
X120564472Y-119197952D01*
X120564472Y-119197952D02*
X119935900Y-119864619D01*
X119935900Y-119864619D02*
X120564472Y-119864619D01*
X120907329Y-119197952D02*
X121193043Y-119864619D01*
X121478758Y-119197952D02*
X121193043Y-119864619D01*
X121193043Y-119864619D02*
X121078758Y-120102714D01*
X121078758Y-120102714D02*
X121021615Y-120150333D01*
X121021615Y-120150333D02*
X120907329Y-120197952D01*
D10*
X167903085Y-119027385D02*
X167903085Y-118350051D01*
X167903085Y-118350051D02*
X168919085Y-119027385D01*
X168919085Y-119027385D02*
X168919085Y-118350051D01*
D13*
X140738095Y-89506819D02*
X141309523Y-89506819D01*
X141023809Y-90506819D02*
X141023809Y-89506819D01*
X141642857Y-90506819D02*
X141642857Y-89506819D01*
X141642857Y-89506819D02*
X142023809Y-89506819D01*
X142023809Y-89506819D02*
X142119047Y-89554438D01*
X142119047Y-89554438D02*
X142166666Y-89602057D01*
X142166666Y-89602057D02*
X142214285Y-89697295D01*
X142214285Y-89697295D02*
X142214285Y-89840152D01*
X142214285Y-89840152D02*
X142166666Y-89935390D01*
X142166666Y-89935390D02*
X142119047Y-89983009D01*
X142119047Y-89983009D02*
X142023809Y-90030628D01*
X142023809Y-90030628D02*
X141642857Y-90030628D01*
X142785714Y-89935390D02*
X142690476Y-89887771D01*
X142690476Y-89887771D02*
X142642857Y-89840152D01*
X142642857Y-89840152D02*
X142595238Y-89744914D01*
X142595238Y-89744914D02*
X142595238Y-89697295D01*
X142595238Y-89697295D02*
X142642857Y-89602057D01*
X142642857Y-89602057D02*
X142690476Y-89554438D01*
X142690476Y-89554438D02*
X142785714Y-89506819D01*
X142785714Y-89506819D02*
X142976190Y-89506819D01*
X142976190Y-89506819D02*
X143071428Y-89554438D01*
X143071428Y-89554438D02*
X143119047Y-89602057D01*
X143119047Y-89602057D02*
X143166666Y-89697295D01*
X143166666Y-89697295D02*
X143166666Y-89744914D01*
X143166666Y-89744914D02*
X143119047Y-89840152D01*
X143119047Y-89840152D02*
X143071428Y-89887771D01*
X143071428Y-89887771D02*
X142976190Y-89935390D01*
X142976190Y-89935390D02*
X142785714Y-89935390D01*
X142785714Y-89935390D02*
X142690476Y-89983009D01*
X142690476Y-89983009D02*
X142642857Y-90030628D01*
X142642857Y-90030628D02*
X142595238Y-90125866D01*
X142595238Y-90125866D02*
X142595238Y-90316342D01*
X142595238Y-90316342D02*
X142642857Y-90411580D01*
X142642857Y-90411580D02*
X142690476Y-90459200D01*
X142690476Y-90459200D02*
X142785714Y-90506819D01*
X142785714Y-90506819D02*
X142976190Y-90506819D01*
X142976190Y-90506819D02*
X143071428Y-90459200D01*
X143071428Y-90459200D02*
X143119047Y-90411580D01*
X143119047Y-90411580D02*
X143166666Y-90316342D01*
X143166666Y-90316342D02*
X143166666Y-90125866D01*
X143166666Y-90125866D02*
X143119047Y-90030628D01*
X143119047Y-90030628D02*
X143071428Y-89983009D01*
X143071428Y-89983009D02*
X142976190Y-89935390D01*
X174245714Y-91702635D02*
X173979047Y-91321682D01*
X173788571Y-91702635D02*
X173788571Y-90902635D01*
X173788571Y-90902635D02*
X174093333Y-90902635D01*
X174093333Y-90902635D02*
X174169523Y-90940730D01*
X174169523Y-90940730D02*
X174207618Y-90978825D01*
X174207618Y-90978825D02*
X174245714Y-91055016D01*
X174245714Y-91055016D02*
X174245714Y-91169301D01*
X174245714Y-91169301D02*
X174207618Y-91245492D01*
X174207618Y-91245492D02*
X174169523Y-91283587D01*
X174169523Y-91283587D02*
X174093333Y-91321682D01*
X174093333Y-91321682D02*
X173788571Y-91321682D01*
X175007618Y-91702635D02*
X174550475Y-91702635D01*
X174779047Y-91702635D02*
X174779047Y-90902635D01*
X174779047Y-90902635D02*
X174702856Y-91016920D01*
X174702856Y-91016920D02*
X174626666Y-91093111D01*
X174626666Y-91093111D02*
X174550475Y-91131206D01*
X175693333Y-90902635D02*
X175540952Y-90902635D01*
X175540952Y-90902635D02*
X175464761Y-90940730D01*
X175464761Y-90940730D02*
X175426666Y-90978825D01*
X175426666Y-90978825D02*
X175350476Y-91093111D01*
X175350476Y-91093111D02*
X175312380Y-91245492D01*
X175312380Y-91245492D02*
X175312380Y-91550254D01*
X175312380Y-91550254D02*
X175350476Y-91626444D01*
X175350476Y-91626444D02*
X175388571Y-91664540D01*
X175388571Y-91664540D02*
X175464761Y-91702635D01*
X175464761Y-91702635D02*
X175617142Y-91702635D01*
X175617142Y-91702635D02*
X175693333Y-91664540D01*
X175693333Y-91664540D02*
X175731428Y-91626444D01*
X175731428Y-91626444D02*
X175769523Y-91550254D01*
X175769523Y-91550254D02*
X175769523Y-91359778D01*
X175769523Y-91359778D02*
X175731428Y-91283587D01*
X175731428Y-91283587D02*
X175693333Y-91245492D01*
X175693333Y-91245492D02*
X175617142Y-91207397D01*
X175617142Y-91207397D02*
X175464761Y-91207397D01*
X175464761Y-91207397D02*
X175388571Y-91245492D01*
X175388571Y-91245492D02*
X175350476Y-91283587D01*
X175350476Y-91283587D02*
X175312380Y-91359778D01*
X142761905Y-87606819D02*
X143333333Y-87606819D01*
X143047619Y-88606819D02*
X143047619Y-87606819D01*
X143666667Y-88606819D02*
X143666667Y-87606819D01*
X143666667Y-87606819D02*
X144047619Y-87606819D01*
X144047619Y-87606819D02*
X144142857Y-87654438D01*
X144142857Y-87654438D02*
X144190476Y-87702057D01*
X144190476Y-87702057D02*
X144238095Y-87797295D01*
X144238095Y-87797295D02*
X144238095Y-87940152D01*
X144238095Y-87940152D02*
X144190476Y-88035390D01*
X144190476Y-88035390D02*
X144142857Y-88083009D01*
X144142857Y-88083009D02*
X144047619Y-88130628D01*
X144047619Y-88130628D02*
X143666667Y-88130628D01*
X145190476Y-88606819D02*
X144619048Y-88606819D01*
X144904762Y-88606819D02*
X144904762Y-87606819D01*
X144904762Y-87606819D02*
X144809524Y-87749676D01*
X144809524Y-87749676D02*
X144714286Y-87844914D01*
X144714286Y-87844914D02*
X144619048Y-87892533D01*
X146047619Y-87940152D02*
X146047619Y-88606819D01*
X145809524Y-87559200D02*
X145571429Y-88273485D01*
X145571429Y-88273485D02*
X146190476Y-88273485D01*
X122990476Y-89312295D02*
X123447619Y-89312295D01*
X123219047Y-90112295D02*
X123219047Y-89312295D01*
X123714286Y-90112295D02*
X123714286Y-89312295D01*
X123714286Y-89312295D02*
X124019048Y-89312295D01*
X124019048Y-89312295D02*
X124095238Y-89350390D01*
X124095238Y-89350390D02*
X124133333Y-89388485D01*
X124133333Y-89388485D02*
X124171429Y-89464676D01*
X124171429Y-89464676D02*
X124171429Y-89578961D01*
X124171429Y-89578961D02*
X124133333Y-89655152D01*
X124133333Y-89655152D02*
X124095238Y-89693247D01*
X124095238Y-89693247D02*
X124019048Y-89731342D01*
X124019048Y-89731342D02*
X123714286Y-89731342D01*
X124476190Y-89388485D02*
X124514286Y-89350390D01*
X124514286Y-89350390D02*
X124590476Y-89312295D01*
X124590476Y-89312295D02*
X124780952Y-89312295D01*
X124780952Y-89312295D02*
X124857143Y-89350390D01*
X124857143Y-89350390D02*
X124895238Y-89388485D01*
X124895238Y-89388485D02*
X124933333Y-89464676D01*
X124933333Y-89464676D02*
X124933333Y-89540866D01*
X124933333Y-89540866D02*
X124895238Y-89655152D01*
X124895238Y-89655152D02*
X124438095Y-90112295D01*
X124438095Y-90112295D02*
X124933333Y-90112295D01*
X126166667Y-91786104D02*
X126128571Y-91824200D01*
X126128571Y-91824200D02*
X126014286Y-91862295D01*
X126014286Y-91862295D02*
X125938095Y-91862295D01*
X125938095Y-91862295D02*
X125823809Y-91824200D01*
X125823809Y-91824200D02*
X125747619Y-91748009D01*
X125747619Y-91748009D02*
X125709524Y-91671819D01*
X125709524Y-91671819D02*
X125671428Y-91519438D01*
X125671428Y-91519438D02*
X125671428Y-91405152D01*
X125671428Y-91405152D02*
X125709524Y-91252771D01*
X125709524Y-91252771D02*
X125747619Y-91176580D01*
X125747619Y-91176580D02*
X125823809Y-91100390D01*
X125823809Y-91100390D02*
X125938095Y-91062295D01*
X125938095Y-91062295D02*
X126014286Y-91062295D01*
X126014286Y-91062295D02*
X126128571Y-91100390D01*
X126128571Y-91100390D02*
X126166667Y-91138485D01*
X126852381Y-91328961D02*
X126852381Y-91862295D01*
X126661905Y-91024200D02*
X126471428Y-91595628D01*
X126471428Y-91595628D02*
X126966667Y-91595628D01*
X182290476Y-91062295D02*
X182290476Y-91709914D01*
X182290476Y-91709914D02*
X182328571Y-91786104D01*
X182328571Y-91786104D02*
X182366666Y-91824200D01*
X182366666Y-91824200D02*
X182442857Y-91862295D01*
X182442857Y-91862295D02*
X182595238Y-91862295D01*
X182595238Y-91862295D02*
X182671428Y-91824200D01*
X182671428Y-91824200D02*
X182709523Y-91786104D01*
X182709523Y-91786104D02*
X182747619Y-91709914D01*
X182747619Y-91709914D02*
X182747619Y-91062295D01*
X183509523Y-91062295D02*
X183128571Y-91062295D01*
X183128571Y-91062295D02*
X183090475Y-91443247D01*
X183090475Y-91443247D02*
X183128571Y-91405152D01*
X183128571Y-91405152D02*
X183204761Y-91367057D01*
X183204761Y-91367057D02*
X183395237Y-91367057D01*
X183395237Y-91367057D02*
X183471428Y-91405152D01*
X183471428Y-91405152D02*
X183509523Y-91443247D01*
X183509523Y-91443247D02*
X183547618Y-91519438D01*
X183547618Y-91519438D02*
X183547618Y-91709914D01*
X183547618Y-91709914D02*
X183509523Y-91786104D01*
X183509523Y-91786104D02*
X183471428Y-91824200D01*
X183471428Y-91824200D02*
X183395237Y-91862295D01*
X183395237Y-91862295D02*
X183204761Y-91862295D01*
X183204761Y-91862295D02*
X183128571Y-91824200D01*
X183128571Y-91824200D02*
X183090475Y-91786104D01*
X138738095Y-114954819D02*
X139309523Y-114954819D01*
X139023809Y-115954819D02*
X139023809Y-114954819D01*
X139642857Y-115954819D02*
X139642857Y-114954819D01*
X139642857Y-114954819D02*
X140023809Y-114954819D01*
X140023809Y-114954819D02*
X140119047Y-115002438D01*
X140119047Y-115002438D02*
X140166666Y-115050057D01*
X140166666Y-115050057D02*
X140214285Y-115145295D01*
X140214285Y-115145295D02*
X140214285Y-115288152D01*
X140214285Y-115288152D02*
X140166666Y-115383390D01*
X140166666Y-115383390D02*
X140119047Y-115431009D01*
X140119047Y-115431009D02*
X140023809Y-115478628D01*
X140023809Y-115478628D02*
X139642857Y-115478628D01*
X141071428Y-114954819D02*
X140880952Y-114954819D01*
X140880952Y-114954819D02*
X140785714Y-115002438D01*
X140785714Y-115002438D02*
X140738095Y-115050057D01*
X140738095Y-115050057D02*
X140642857Y-115192914D01*
X140642857Y-115192914D02*
X140595238Y-115383390D01*
X140595238Y-115383390D02*
X140595238Y-115764342D01*
X140595238Y-115764342D02*
X140642857Y-115859580D01*
X140642857Y-115859580D02*
X140690476Y-115907200D01*
X140690476Y-115907200D02*
X140785714Y-115954819D01*
X140785714Y-115954819D02*
X140976190Y-115954819D01*
X140976190Y-115954819D02*
X141071428Y-115907200D01*
X141071428Y-115907200D02*
X141119047Y-115859580D01*
X141119047Y-115859580D02*
X141166666Y-115764342D01*
X141166666Y-115764342D02*
X141166666Y-115526247D01*
X141166666Y-115526247D02*
X141119047Y-115431009D01*
X141119047Y-115431009D02*
X141071428Y-115383390D01*
X141071428Y-115383390D02*
X140976190Y-115335771D01*
X140976190Y-115335771D02*
X140785714Y-115335771D01*
X140785714Y-115335771D02*
X140690476Y-115383390D01*
X140690476Y-115383390D02*
X140642857Y-115431009D01*
X140642857Y-115431009D02*
X140595238Y-115526247D01*
X141966667Y-96892295D02*
X141700000Y-96511342D01*
X141509524Y-96892295D02*
X141509524Y-96092295D01*
X141509524Y-96092295D02*
X141814286Y-96092295D01*
X141814286Y-96092295D02*
X141890476Y-96130390D01*
X141890476Y-96130390D02*
X141928571Y-96168485D01*
X141928571Y-96168485D02*
X141966667Y-96244676D01*
X141966667Y-96244676D02*
X141966667Y-96358961D01*
X141966667Y-96358961D02*
X141928571Y-96435152D01*
X141928571Y-96435152D02*
X141890476Y-96473247D01*
X141890476Y-96473247D02*
X141814286Y-96511342D01*
X141814286Y-96511342D02*
X141509524Y-96511342D01*
X142233333Y-96092295D02*
X142766667Y-96092295D01*
X142766667Y-96092295D02*
X142423809Y-96892295D01*
X188112295Y-96014285D02*
X187731342Y-96280952D01*
X188112295Y-96471428D02*
X187312295Y-96471428D01*
X187312295Y-96471428D02*
X187312295Y-96166666D01*
X187312295Y-96166666D02*
X187350390Y-96090476D01*
X187350390Y-96090476D02*
X187388485Y-96052381D01*
X187388485Y-96052381D02*
X187464676Y-96014285D01*
X187464676Y-96014285D02*
X187578961Y-96014285D01*
X187578961Y-96014285D02*
X187655152Y-96052381D01*
X187655152Y-96052381D02*
X187693247Y-96090476D01*
X187693247Y-96090476D02*
X187731342Y-96166666D01*
X187731342Y-96166666D02*
X187731342Y-96471428D01*
X187388485Y-95709524D02*
X187350390Y-95671428D01*
X187350390Y-95671428D02*
X187312295Y-95595238D01*
X187312295Y-95595238D02*
X187312295Y-95404762D01*
X187312295Y-95404762D02*
X187350390Y-95328571D01*
X187350390Y-95328571D02*
X187388485Y-95290476D01*
X187388485Y-95290476D02*
X187464676Y-95252381D01*
X187464676Y-95252381D02*
X187540866Y-95252381D01*
X187540866Y-95252381D02*
X187655152Y-95290476D01*
X187655152Y-95290476D02*
X188112295Y-95747619D01*
X188112295Y-95747619D02*
X188112295Y-95252381D01*
X187312295Y-94566666D02*
X187312295Y-94719047D01*
X187312295Y-94719047D02*
X187350390Y-94795238D01*
X187350390Y-94795238D02*
X187388485Y-94833333D01*
X187388485Y-94833333D02*
X187502771Y-94909523D01*
X187502771Y-94909523D02*
X187655152Y-94947619D01*
X187655152Y-94947619D02*
X187959914Y-94947619D01*
X187959914Y-94947619D02*
X188036104Y-94909523D01*
X188036104Y-94909523D02*
X188074200Y-94871428D01*
X188074200Y-94871428D02*
X188112295Y-94795238D01*
X188112295Y-94795238D02*
X188112295Y-94642857D01*
X188112295Y-94642857D02*
X188074200Y-94566666D01*
X188074200Y-94566666D02*
X188036104Y-94528571D01*
X188036104Y-94528571D02*
X187959914Y-94490476D01*
X187959914Y-94490476D02*
X187769438Y-94490476D01*
X187769438Y-94490476D02*
X187693247Y-94528571D01*
X187693247Y-94528571D02*
X187655152Y-94566666D01*
X187655152Y-94566666D02*
X187617057Y-94642857D01*
X187617057Y-94642857D02*
X187617057Y-94795238D01*
X187617057Y-94795238D02*
X187655152Y-94871428D01*
X187655152Y-94871428D02*
X187693247Y-94909523D01*
X187693247Y-94909523D02*
X187769438Y-94947619D01*
X129985714Y-114886104D02*
X129947618Y-114924200D01*
X129947618Y-114924200D02*
X129833333Y-114962295D01*
X129833333Y-114962295D02*
X129757142Y-114962295D01*
X129757142Y-114962295D02*
X129642856Y-114924200D01*
X129642856Y-114924200D02*
X129566666Y-114848009D01*
X129566666Y-114848009D02*
X129528571Y-114771819D01*
X129528571Y-114771819D02*
X129490475Y-114619438D01*
X129490475Y-114619438D02*
X129490475Y-114505152D01*
X129490475Y-114505152D02*
X129528571Y-114352771D01*
X129528571Y-114352771D02*
X129566666Y-114276580D01*
X129566666Y-114276580D02*
X129642856Y-114200390D01*
X129642856Y-114200390D02*
X129757142Y-114162295D01*
X129757142Y-114162295D02*
X129833333Y-114162295D01*
X129833333Y-114162295D02*
X129947618Y-114200390D01*
X129947618Y-114200390D02*
X129985714Y-114238485D01*
X130747618Y-114962295D02*
X130290475Y-114962295D01*
X130519047Y-114962295D02*
X130519047Y-114162295D01*
X130519047Y-114162295D02*
X130442856Y-114276580D01*
X130442856Y-114276580D02*
X130366666Y-114352771D01*
X130366666Y-114352771D02*
X130290475Y-114390866D01*
X131014285Y-114162295D02*
X131509523Y-114162295D01*
X131509523Y-114162295D02*
X131242857Y-114467057D01*
X131242857Y-114467057D02*
X131357142Y-114467057D01*
X131357142Y-114467057D02*
X131433333Y-114505152D01*
X131433333Y-114505152D02*
X131471428Y-114543247D01*
X131471428Y-114543247D02*
X131509523Y-114619438D01*
X131509523Y-114619438D02*
X131509523Y-114809914D01*
X131509523Y-114809914D02*
X131471428Y-114886104D01*
X131471428Y-114886104D02*
X131433333Y-114924200D01*
X131433333Y-114924200D02*
X131357142Y-114962295D01*
X131357142Y-114962295D02*
X131128571Y-114962295D01*
X131128571Y-114962295D02*
X131052380Y-114924200D01*
X131052380Y-114924200D02*
X131014285Y-114886104D01*
X141966667Y-99862295D02*
X141700000Y-99481342D01*
X141509524Y-99862295D02*
X141509524Y-99062295D01*
X141509524Y-99062295D02*
X141814286Y-99062295D01*
X141814286Y-99062295D02*
X141890476Y-99100390D01*
X141890476Y-99100390D02*
X141928571Y-99138485D01*
X141928571Y-99138485D02*
X141966667Y-99214676D01*
X141966667Y-99214676D02*
X141966667Y-99328961D01*
X141966667Y-99328961D02*
X141928571Y-99405152D01*
X141928571Y-99405152D02*
X141890476Y-99443247D01*
X141890476Y-99443247D02*
X141814286Y-99481342D01*
X141814286Y-99481342D02*
X141509524Y-99481342D01*
X142347619Y-99862295D02*
X142500000Y-99862295D01*
X142500000Y-99862295D02*
X142576190Y-99824200D01*
X142576190Y-99824200D02*
X142614286Y-99786104D01*
X142614286Y-99786104D02*
X142690476Y-99671819D01*
X142690476Y-99671819D02*
X142728571Y-99519438D01*
X142728571Y-99519438D02*
X142728571Y-99214676D01*
X142728571Y-99214676D02*
X142690476Y-99138485D01*
X142690476Y-99138485D02*
X142652381Y-99100390D01*
X142652381Y-99100390D02*
X142576190Y-99062295D01*
X142576190Y-99062295D02*
X142423809Y-99062295D01*
X142423809Y-99062295D02*
X142347619Y-99100390D01*
X142347619Y-99100390D02*
X142309524Y-99138485D01*
X142309524Y-99138485D02*
X142271428Y-99214676D01*
X142271428Y-99214676D02*
X142271428Y-99405152D01*
X142271428Y-99405152D02*
X142309524Y-99481342D01*
X142309524Y-99481342D02*
X142347619Y-99519438D01*
X142347619Y-99519438D02*
X142423809Y-99557533D01*
X142423809Y-99557533D02*
X142576190Y-99557533D01*
X142576190Y-99557533D02*
X142652381Y-99519438D01*
X142652381Y-99519438D02*
X142690476Y-99481342D01*
X142690476Y-99481342D02*
X142728571Y-99405152D01*
X145285714Y-114386104D02*
X145247618Y-114424200D01*
X145247618Y-114424200D02*
X145133333Y-114462295D01*
X145133333Y-114462295D02*
X145057142Y-114462295D01*
X145057142Y-114462295D02*
X144942856Y-114424200D01*
X144942856Y-114424200D02*
X144866666Y-114348009D01*
X144866666Y-114348009D02*
X144828571Y-114271819D01*
X144828571Y-114271819D02*
X144790475Y-114119438D01*
X144790475Y-114119438D02*
X144790475Y-114005152D01*
X144790475Y-114005152D02*
X144828571Y-113852771D01*
X144828571Y-113852771D02*
X144866666Y-113776580D01*
X144866666Y-113776580D02*
X144942856Y-113700390D01*
X144942856Y-113700390D02*
X145057142Y-113662295D01*
X145057142Y-113662295D02*
X145133333Y-113662295D01*
X145133333Y-113662295D02*
X145247618Y-113700390D01*
X145247618Y-113700390D02*
X145285714Y-113738485D01*
X146047618Y-114462295D02*
X145590475Y-114462295D01*
X145819047Y-114462295D02*
X145819047Y-113662295D01*
X145819047Y-113662295D02*
X145742856Y-113776580D01*
X145742856Y-113776580D02*
X145666666Y-113852771D01*
X145666666Y-113852771D02*
X145590475Y-113890866D01*
X146733333Y-113662295D02*
X146580952Y-113662295D01*
X146580952Y-113662295D02*
X146504761Y-113700390D01*
X146504761Y-113700390D02*
X146466666Y-113738485D01*
X146466666Y-113738485D02*
X146390476Y-113852771D01*
X146390476Y-113852771D02*
X146352380Y-114005152D01*
X146352380Y-114005152D02*
X146352380Y-114309914D01*
X146352380Y-114309914D02*
X146390476Y-114386104D01*
X146390476Y-114386104D02*
X146428571Y-114424200D01*
X146428571Y-114424200D02*
X146504761Y-114462295D01*
X146504761Y-114462295D02*
X146657142Y-114462295D01*
X146657142Y-114462295D02*
X146733333Y-114424200D01*
X146733333Y-114424200D02*
X146771428Y-114386104D01*
X146771428Y-114386104D02*
X146809523Y-114309914D01*
X146809523Y-114309914D02*
X146809523Y-114119438D01*
X146809523Y-114119438D02*
X146771428Y-114043247D01*
X146771428Y-114043247D02*
X146733333Y-114005152D01*
X146733333Y-114005152D02*
X146657142Y-113967057D01*
X146657142Y-113967057D02*
X146504761Y-113967057D01*
X146504761Y-113967057D02*
X146428571Y-114005152D01*
X146428571Y-114005152D02*
X146390476Y-114043247D01*
X146390476Y-114043247D02*
X146352380Y-114119438D01*
X186240476Y-113612295D02*
X186240476Y-112812295D01*
X186240476Y-113193247D02*
X186697619Y-113193247D01*
X186697619Y-113612295D02*
X186697619Y-112812295D01*
X187421428Y-113078961D02*
X187421428Y-113612295D01*
X187230952Y-112774200D02*
X187040475Y-113345628D01*
X187040475Y-113345628D02*
X187535714Y-113345628D01*
X151761905Y-86756819D02*
X152333333Y-86756819D01*
X152047619Y-87756819D02*
X152047619Y-86756819D01*
X152666667Y-87756819D02*
X152666667Y-86756819D01*
X152666667Y-86756819D02*
X153047619Y-86756819D01*
X153047619Y-86756819D02*
X153142857Y-86804438D01*
X153142857Y-86804438D02*
X153190476Y-86852057D01*
X153190476Y-86852057D02*
X153238095Y-86947295D01*
X153238095Y-86947295D02*
X153238095Y-87090152D01*
X153238095Y-87090152D02*
X153190476Y-87185390D01*
X153190476Y-87185390D02*
X153142857Y-87233009D01*
X153142857Y-87233009D02*
X153047619Y-87280628D01*
X153047619Y-87280628D02*
X152666667Y-87280628D01*
X154190476Y-87756819D02*
X153619048Y-87756819D01*
X153904762Y-87756819D02*
X153904762Y-86756819D01*
X153904762Y-86756819D02*
X153809524Y-86899676D01*
X153809524Y-86899676D02*
X153714286Y-86994914D01*
X153714286Y-86994914D02*
X153619048Y-87042533D01*
X155095238Y-86756819D02*
X154619048Y-86756819D01*
X154619048Y-86756819D02*
X154571429Y-87233009D01*
X154571429Y-87233009D02*
X154619048Y-87185390D01*
X154619048Y-87185390D02*
X154714286Y-87137771D01*
X154714286Y-87137771D02*
X154952381Y-87137771D01*
X154952381Y-87137771D02*
X155047619Y-87185390D01*
X155047619Y-87185390D02*
X155095238Y-87233009D01*
X155095238Y-87233009D02*
X155142857Y-87328247D01*
X155142857Y-87328247D02*
X155142857Y-87566342D01*
X155142857Y-87566342D02*
X155095238Y-87661580D01*
X155095238Y-87661580D02*
X155047619Y-87709200D01*
X155047619Y-87709200D02*
X154952381Y-87756819D01*
X154952381Y-87756819D02*
X154714286Y-87756819D01*
X154714286Y-87756819D02*
X154619048Y-87709200D01*
X154619048Y-87709200D02*
X154571429Y-87661580D01*
X141966667Y-98362295D02*
X141700000Y-97981342D01*
X141509524Y-98362295D02*
X141509524Y-97562295D01*
X141509524Y-97562295D02*
X141814286Y-97562295D01*
X141814286Y-97562295D02*
X141890476Y-97600390D01*
X141890476Y-97600390D02*
X141928571Y-97638485D01*
X141928571Y-97638485D02*
X141966667Y-97714676D01*
X141966667Y-97714676D02*
X141966667Y-97828961D01*
X141966667Y-97828961D02*
X141928571Y-97905152D01*
X141928571Y-97905152D02*
X141890476Y-97943247D01*
X141890476Y-97943247D02*
X141814286Y-97981342D01*
X141814286Y-97981342D02*
X141509524Y-97981342D01*
X142423809Y-97905152D02*
X142347619Y-97867057D01*
X142347619Y-97867057D02*
X142309524Y-97828961D01*
X142309524Y-97828961D02*
X142271428Y-97752771D01*
X142271428Y-97752771D02*
X142271428Y-97714676D01*
X142271428Y-97714676D02*
X142309524Y-97638485D01*
X142309524Y-97638485D02*
X142347619Y-97600390D01*
X142347619Y-97600390D02*
X142423809Y-97562295D01*
X142423809Y-97562295D02*
X142576190Y-97562295D01*
X142576190Y-97562295D02*
X142652381Y-97600390D01*
X142652381Y-97600390D02*
X142690476Y-97638485D01*
X142690476Y-97638485D02*
X142728571Y-97714676D01*
X142728571Y-97714676D02*
X142728571Y-97752771D01*
X142728571Y-97752771D02*
X142690476Y-97828961D01*
X142690476Y-97828961D02*
X142652381Y-97867057D01*
X142652381Y-97867057D02*
X142576190Y-97905152D01*
X142576190Y-97905152D02*
X142423809Y-97905152D01*
X142423809Y-97905152D02*
X142347619Y-97943247D01*
X142347619Y-97943247D02*
X142309524Y-97981342D01*
X142309524Y-97981342D02*
X142271428Y-98057533D01*
X142271428Y-98057533D02*
X142271428Y-98209914D01*
X142271428Y-98209914D02*
X142309524Y-98286104D01*
X142309524Y-98286104D02*
X142347619Y-98324200D01*
X142347619Y-98324200D02*
X142423809Y-98362295D01*
X142423809Y-98362295D02*
X142576190Y-98362295D01*
X142576190Y-98362295D02*
X142652381Y-98324200D01*
X142652381Y-98324200D02*
X142690476Y-98286104D01*
X142690476Y-98286104D02*
X142728571Y-98209914D01*
X142728571Y-98209914D02*
X142728571Y-98057533D01*
X142728571Y-98057533D02*
X142690476Y-97981342D01*
X142690476Y-97981342D02*
X142652381Y-97943247D01*
X142652381Y-97943247D02*
X142576190Y-97905152D01*
X186112295Y-96114285D02*
X185731342Y-96380952D01*
X186112295Y-96571428D02*
X185312295Y-96571428D01*
X185312295Y-96571428D02*
X185312295Y-96266666D01*
X185312295Y-96266666D02*
X185350390Y-96190476D01*
X185350390Y-96190476D02*
X185388485Y-96152381D01*
X185388485Y-96152381D02*
X185464676Y-96114285D01*
X185464676Y-96114285D02*
X185578961Y-96114285D01*
X185578961Y-96114285D02*
X185655152Y-96152381D01*
X185655152Y-96152381D02*
X185693247Y-96190476D01*
X185693247Y-96190476D02*
X185731342Y-96266666D01*
X185731342Y-96266666D02*
X185731342Y-96571428D01*
X185388485Y-95809524D02*
X185350390Y-95771428D01*
X185350390Y-95771428D02*
X185312295Y-95695238D01*
X185312295Y-95695238D02*
X185312295Y-95504762D01*
X185312295Y-95504762D02*
X185350390Y-95428571D01*
X185350390Y-95428571D02*
X185388485Y-95390476D01*
X185388485Y-95390476D02*
X185464676Y-95352381D01*
X185464676Y-95352381D02*
X185540866Y-95352381D01*
X185540866Y-95352381D02*
X185655152Y-95390476D01*
X185655152Y-95390476D02*
X186112295Y-95847619D01*
X186112295Y-95847619D02*
X186112295Y-95352381D01*
X185312295Y-95085714D02*
X185312295Y-94552380D01*
X185312295Y-94552380D02*
X186112295Y-94895238D01*
X111990476Y-89862295D02*
X111990476Y-89062295D01*
X111990476Y-89443247D02*
X112447619Y-89443247D01*
X112447619Y-89862295D02*
X112447619Y-89062295D01*
X113247618Y-89862295D02*
X112790475Y-89862295D01*
X113019047Y-89862295D02*
X113019047Y-89062295D01*
X113019047Y-89062295D02*
X112942856Y-89176580D01*
X112942856Y-89176580D02*
X112866666Y-89252771D01*
X112866666Y-89252771D02*
X112790475Y-89290866D01*
X174285714Y-92862295D02*
X174019047Y-92481342D01*
X173828571Y-92862295D02*
X173828571Y-92062295D01*
X173828571Y-92062295D02*
X174133333Y-92062295D01*
X174133333Y-92062295D02*
X174209523Y-92100390D01*
X174209523Y-92100390D02*
X174247618Y-92138485D01*
X174247618Y-92138485D02*
X174285714Y-92214676D01*
X174285714Y-92214676D02*
X174285714Y-92328961D01*
X174285714Y-92328961D02*
X174247618Y-92405152D01*
X174247618Y-92405152D02*
X174209523Y-92443247D01*
X174209523Y-92443247D02*
X174133333Y-92481342D01*
X174133333Y-92481342D02*
X173828571Y-92481342D01*
X175047618Y-92862295D02*
X174590475Y-92862295D01*
X174819047Y-92862295D02*
X174819047Y-92062295D01*
X174819047Y-92062295D02*
X174742856Y-92176580D01*
X174742856Y-92176580D02*
X174666666Y-92252771D01*
X174666666Y-92252771D02*
X174590475Y-92290866D01*
X175314285Y-92062295D02*
X175847619Y-92062295D01*
X175847619Y-92062295D02*
X175504761Y-92862295D01*
X152665714Y-108962295D02*
X152399047Y-108581342D01*
X152208571Y-108962295D02*
X152208571Y-108162295D01*
X152208571Y-108162295D02*
X152513333Y-108162295D01*
X152513333Y-108162295D02*
X152589523Y-108200390D01*
X152589523Y-108200390D02*
X152627618Y-108238485D01*
X152627618Y-108238485D02*
X152665714Y-108314676D01*
X152665714Y-108314676D02*
X152665714Y-108428961D01*
X152665714Y-108428961D02*
X152627618Y-108505152D01*
X152627618Y-108505152D02*
X152589523Y-108543247D01*
X152589523Y-108543247D02*
X152513333Y-108581342D01*
X152513333Y-108581342D02*
X152208571Y-108581342D01*
X153427618Y-108962295D02*
X152970475Y-108962295D01*
X153199047Y-108962295D02*
X153199047Y-108162295D01*
X153199047Y-108162295D02*
X153122856Y-108276580D01*
X153122856Y-108276580D02*
X153046666Y-108352771D01*
X153046666Y-108352771D02*
X152970475Y-108390866D01*
X153732380Y-108238485D02*
X153770476Y-108200390D01*
X153770476Y-108200390D02*
X153846666Y-108162295D01*
X153846666Y-108162295D02*
X154037142Y-108162295D01*
X154037142Y-108162295D02*
X154113333Y-108200390D01*
X154113333Y-108200390D02*
X154151428Y-108238485D01*
X154151428Y-108238485D02*
X154189523Y-108314676D01*
X154189523Y-108314676D02*
X154189523Y-108390866D01*
X154189523Y-108390866D02*
X154151428Y-108505152D01*
X154151428Y-108505152D02*
X153694285Y-108962295D01*
X153694285Y-108962295D02*
X154189523Y-108962295D01*
X136098095Y-85854819D02*
X136669523Y-85854819D01*
X136383809Y-86854819D02*
X136383809Y-85854819D01*
X137002857Y-86854819D02*
X137002857Y-85854819D01*
X137002857Y-85854819D02*
X137383809Y-85854819D01*
X137383809Y-85854819D02*
X137479047Y-85902438D01*
X137479047Y-85902438D02*
X137526666Y-85950057D01*
X137526666Y-85950057D02*
X137574285Y-86045295D01*
X137574285Y-86045295D02*
X137574285Y-86188152D01*
X137574285Y-86188152D02*
X137526666Y-86283390D01*
X137526666Y-86283390D02*
X137479047Y-86331009D01*
X137479047Y-86331009D02*
X137383809Y-86378628D01*
X137383809Y-86378628D02*
X137002857Y-86378628D01*
X138431428Y-86188152D02*
X138431428Y-86854819D01*
X138193333Y-85807200D02*
X137955238Y-86521485D01*
X137955238Y-86521485D02*
X138574285Y-86521485D01*
X188036104Y-99014285D02*
X188074200Y-99052381D01*
X188074200Y-99052381D02*
X188112295Y-99166666D01*
X188112295Y-99166666D02*
X188112295Y-99242857D01*
X188112295Y-99242857D02*
X188074200Y-99357143D01*
X188074200Y-99357143D02*
X187998009Y-99433333D01*
X187998009Y-99433333D02*
X187921819Y-99471428D01*
X187921819Y-99471428D02*
X187769438Y-99509524D01*
X187769438Y-99509524D02*
X187655152Y-99509524D01*
X187655152Y-99509524D02*
X187502771Y-99471428D01*
X187502771Y-99471428D02*
X187426580Y-99433333D01*
X187426580Y-99433333D02*
X187350390Y-99357143D01*
X187350390Y-99357143D02*
X187312295Y-99242857D01*
X187312295Y-99242857D02*
X187312295Y-99166666D01*
X187312295Y-99166666D02*
X187350390Y-99052381D01*
X187350390Y-99052381D02*
X187388485Y-99014285D01*
X187578961Y-98328571D02*
X188112295Y-98328571D01*
X187274200Y-98519047D02*
X187845628Y-98709524D01*
X187845628Y-98709524D02*
X187845628Y-98214285D01*
X188112295Y-97871428D02*
X188112295Y-97719047D01*
X188112295Y-97719047D02*
X188074200Y-97642857D01*
X188074200Y-97642857D02*
X188036104Y-97604761D01*
X188036104Y-97604761D02*
X187921819Y-97528571D01*
X187921819Y-97528571D02*
X187769438Y-97490476D01*
X187769438Y-97490476D02*
X187464676Y-97490476D01*
X187464676Y-97490476D02*
X187388485Y-97528571D01*
X187388485Y-97528571D02*
X187350390Y-97566666D01*
X187350390Y-97566666D02*
X187312295Y-97642857D01*
X187312295Y-97642857D02*
X187312295Y-97795238D01*
X187312295Y-97795238D02*
X187350390Y-97871428D01*
X187350390Y-97871428D02*
X187388485Y-97909523D01*
X187388485Y-97909523D02*
X187464676Y-97947619D01*
X187464676Y-97947619D02*
X187655152Y-97947619D01*
X187655152Y-97947619D02*
X187731342Y-97909523D01*
X187731342Y-97909523D02*
X187769438Y-97871428D01*
X187769438Y-97871428D02*
X187807533Y-97795238D01*
X187807533Y-97795238D02*
X187807533Y-97642857D01*
X187807533Y-97642857D02*
X187769438Y-97566666D01*
X187769438Y-97566666D02*
X187731342Y-97528571D01*
X187731342Y-97528571D02*
X187655152Y-97490476D01*
X133238095Y-85854819D02*
X133809523Y-85854819D01*
X133523809Y-86854819D02*
X133523809Y-85854819D01*
X134142857Y-86854819D02*
X134142857Y-85854819D01*
X134142857Y-85854819D02*
X134523809Y-85854819D01*
X134523809Y-85854819D02*
X134619047Y-85902438D01*
X134619047Y-85902438D02*
X134666666Y-85950057D01*
X134666666Y-85950057D02*
X134714285Y-86045295D01*
X134714285Y-86045295D02*
X134714285Y-86188152D01*
X134714285Y-86188152D02*
X134666666Y-86283390D01*
X134666666Y-86283390D02*
X134619047Y-86331009D01*
X134619047Y-86331009D02*
X134523809Y-86378628D01*
X134523809Y-86378628D02*
X134142857Y-86378628D01*
X135047619Y-85854819D02*
X135666666Y-85854819D01*
X135666666Y-85854819D02*
X135333333Y-86235771D01*
X135333333Y-86235771D02*
X135476190Y-86235771D01*
X135476190Y-86235771D02*
X135571428Y-86283390D01*
X135571428Y-86283390D02*
X135619047Y-86331009D01*
X135619047Y-86331009D02*
X135666666Y-86426247D01*
X135666666Y-86426247D02*
X135666666Y-86664342D01*
X135666666Y-86664342D02*
X135619047Y-86759580D01*
X135619047Y-86759580D02*
X135571428Y-86807200D01*
X135571428Y-86807200D02*
X135476190Y-86854819D01*
X135476190Y-86854819D02*
X135190476Y-86854819D01*
X135190476Y-86854819D02*
X135095238Y-86807200D01*
X135095238Y-86807200D02*
X135047619Y-86759580D01*
X154785714Y-112286104D02*
X154747618Y-112324200D01*
X154747618Y-112324200D02*
X154633333Y-112362295D01*
X154633333Y-112362295D02*
X154557142Y-112362295D01*
X154557142Y-112362295D02*
X154442856Y-112324200D01*
X154442856Y-112324200D02*
X154366666Y-112248009D01*
X154366666Y-112248009D02*
X154328571Y-112171819D01*
X154328571Y-112171819D02*
X154290475Y-112019438D01*
X154290475Y-112019438D02*
X154290475Y-111905152D01*
X154290475Y-111905152D02*
X154328571Y-111752771D01*
X154328571Y-111752771D02*
X154366666Y-111676580D01*
X154366666Y-111676580D02*
X154442856Y-111600390D01*
X154442856Y-111600390D02*
X154557142Y-111562295D01*
X154557142Y-111562295D02*
X154633333Y-111562295D01*
X154633333Y-111562295D02*
X154747618Y-111600390D01*
X154747618Y-111600390D02*
X154785714Y-111638485D01*
X155090475Y-111638485D02*
X155128571Y-111600390D01*
X155128571Y-111600390D02*
X155204761Y-111562295D01*
X155204761Y-111562295D02*
X155395237Y-111562295D01*
X155395237Y-111562295D02*
X155471428Y-111600390D01*
X155471428Y-111600390D02*
X155509523Y-111638485D01*
X155509523Y-111638485D02*
X155547618Y-111714676D01*
X155547618Y-111714676D02*
X155547618Y-111790866D01*
X155547618Y-111790866D02*
X155509523Y-111905152D01*
X155509523Y-111905152D02*
X155052380Y-112362295D01*
X155052380Y-112362295D02*
X155547618Y-112362295D01*
X155814285Y-111562295D02*
X156347619Y-111562295D01*
X156347619Y-111562295D02*
X156004761Y-112362295D01*
X180386104Y-103314285D02*
X180424200Y-103352381D01*
X180424200Y-103352381D02*
X180462295Y-103466666D01*
X180462295Y-103466666D02*
X180462295Y-103542857D01*
X180462295Y-103542857D02*
X180424200Y-103657143D01*
X180424200Y-103657143D02*
X180348009Y-103733333D01*
X180348009Y-103733333D02*
X180271819Y-103771428D01*
X180271819Y-103771428D02*
X180119438Y-103809524D01*
X180119438Y-103809524D02*
X180005152Y-103809524D01*
X180005152Y-103809524D02*
X179852771Y-103771428D01*
X179852771Y-103771428D02*
X179776580Y-103733333D01*
X179776580Y-103733333D02*
X179700390Y-103657143D01*
X179700390Y-103657143D02*
X179662295Y-103542857D01*
X179662295Y-103542857D02*
X179662295Y-103466666D01*
X179662295Y-103466666D02*
X179700390Y-103352381D01*
X179700390Y-103352381D02*
X179738485Y-103314285D01*
X179928961Y-102628571D02*
X180462295Y-102628571D01*
X179624200Y-102819047D02*
X180195628Y-103009524D01*
X180195628Y-103009524D02*
X180195628Y-102514285D01*
X179662295Y-102285714D02*
X179662295Y-101790476D01*
X179662295Y-101790476D02*
X179967057Y-102057142D01*
X179967057Y-102057142D02*
X179967057Y-101942857D01*
X179967057Y-101942857D02*
X180005152Y-101866666D01*
X180005152Y-101866666D02*
X180043247Y-101828571D01*
X180043247Y-101828571D02*
X180119438Y-101790476D01*
X180119438Y-101790476D02*
X180309914Y-101790476D01*
X180309914Y-101790476D02*
X180386104Y-101828571D01*
X180386104Y-101828571D02*
X180424200Y-101866666D01*
X180424200Y-101866666D02*
X180462295Y-101942857D01*
X180462295Y-101942857D02*
X180462295Y-102171428D01*
X180462295Y-102171428D02*
X180424200Y-102247619D01*
X180424200Y-102247619D02*
X180386104Y-102285714D01*
X130136104Y-89133332D02*
X130174200Y-89171428D01*
X130174200Y-89171428D02*
X130212295Y-89285713D01*
X130212295Y-89285713D02*
X130212295Y-89361904D01*
X130212295Y-89361904D02*
X130174200Y-89476190D01*
X130174200Y-89476190D02*
X130098009Y-89552380D01*
X130098009Y-89552380D02*
X130021819Y-89590475D01*
X130021819Y-89590475D02*
X129869438Y-89628571D01*
X129869438Y-89628571D02*
X129755152Y-89628571D01*
X129755152Y-89628571D02*
X129602771Y-89590475D01*
X129602771Y-89590475D02*
X129526580Y-89552380D01*
X129526580Y-89552380D02*
X129450390Y-89476190D01*
X129450390Y-89476190D02*
X129412295Y-89361904D01*
X129412295Y-89361904D02*
X129412295Y-89285713D01*
X129412295Y-89285713D02*
X129450390Y-89171428D01*
X129450390Y-89171428D02*
X129488485Y-89133332D01*
X130212295Y-88752380D02*
X130212295Y-88599999D01*
X130212295Y-88599999D02*
X130174200Y-88523809D01*
X130174200Y-88523809D02*
X130136104Y-88485713D01*
X130136104Y-88485713D02*
X130021819Y-88409523D01*
X130021819Y-88409523D02*
X129869438Y-88371428D01*
X129869438Y-88371428D02*
X129564676Y-88371428D01*
X129564676Y-88371428D02*
X129488485Y-88409523D01*
X129488485Y-88409523D02*
X129450390Y-88447618D01*
X129450390Y-88447618D02*
X129412295Y-88523809D01*
X129412295Y-88523809D02*
X129412295Y-88676190D01*
X129412295Y-88676190D02*
X129450390Y-88752380D01*
X129450390Y-88752380D02*
X129488485Y-88790475D01*
X129488485Y-88790475D02*
X129564676Y-88828571D01*
X129564676Y-88828571D02*
X129755152Y-88828571D01*
X129755152Y-88828571D02*
X129831342Y-88790475D01*
X129831342Y-88790475D02*
X129869438Y-88752380D01*
X129869438Y-88752380D02*
X129907533Y-88676190D01*
X129907533Y-88676190D02*
X129907533Y-88523809D01*
X129907533Y-88523809D02*
X129869438Y-88447618D01*
X129869438Y-88447618D02*
X129831342Y-88409523D01*
X129831342Y-88409523D02*
X129755152Y-88371428D01*
X176685714Y-109586104D02*
X176647618Y-109624200D01*
X176647618Y-109624200D02*
X176533333Y-109662295D01*
X176533333Y-109662295D02*
X176457142Y-109662295D01*
X176457142Y-109662295D02*
X176342856Y-109624200D01*
X176342856Y-109624200D02*
X176266666Y-109548009D01*
X176266666Y-109548009D02*
X176228571Y-109471819D01*
X176228571Y-109471819D02*
X176190475Y-109319438D01*
X176190475Y-109319438D02*
X176190475Y-109205152D01*
X176190475Y-109205152D02*
X176228571Y-109052771D01*
X176228571Y-109052771D02*
X176266666Y-108976580D01*
X176266666Y-108976580D02*
X176342856Y-108900390D01*
X176342856Y-108900390D02*
X176457142Y-108862295D01*
X176457142Y-108862295D02*
X176533333Y-108862295D01*
X176533333Y-108862295D02*
X176647618Y-108900390D01*
X176647618Y-108900390D02*
X176685714Y-108938485D01*
X177371428Y-109128961D02*
X177371428Y-109662295D01*
X177180952Y-108824200D02*
X176990475Y-109395628D01*
X176990475Y-109395628D02*
X177485714Y-109395628D01*
X178133333Y-109128961D02*
X178133333Y-109662295D01*
X177942857Y-108824200D02*
X177752380Y-109395628D01*
X177752380Y-109395628D02*
X178247619Y-109395628D01*
X141461905Y-114954819D02*
X142033333Y-114954819D01*
X141747619Y-115954819D02*
X141747619Y-114954819D01*
X142366667Y-115954819D02*
X142366667Y-114954819D01*
X142366667Y-114954819D02*
X142747619Y-114954819D01*
X142747619Y-114954819D02*
X142842857Y-115002438D01*
X142842857Y-115002438D02*
X142890476Y-115050057D01*
X142890476Y-115050057D02*
X142938095Y-115145295D01*
X142938095Y-115145295D02*
X142938095Y-115288152D01*
X142938095Y-115288152D02*
X142890476Y-115383390D01*
X142890476Y-115383390D02*
X142842857Y-115431009D01*
X142842857Y-115431009D02*
X142747619Y-115478628D01*
X142747619Y-115478628D02*
X142366667Y-115478628D01*
X143890476Y-115954819D02*
X143319048Y-115954819D01*
X143604762Y-115954819D02*
X143604762Y-114954819D01*
X143604762Y-114954819D02*
X143509524Y-115097676D01*
X143509524Y-115097676D02*
X143414286Y-115192914D01*
X143414286Y-115192914D02*
X143319048Y-115240533D01*
X144842857Y-115954819D02*
X144271429Y-115954819D01*
X144557143Y-115954819D02*
X144557143Y-114954819D01*
X144557143Y-114954819D02*
X144461905Y-115097676D01*
X144461905Y-115097676D02*
X144366667Y-115192914D01*
X144366667Y-115192914D02*
X144271429Y-115240533D01*
X121786104Y-100633332D02*
X121824200Y-100671428D01*
X121824200Y-100671428D02*
X121862295Y-100785713D01*
X121862295Y-100785713D02*
X121862295Y-100861904D01*
X121862295Y-100861904D02*
X121824200Y-100976190D01*
X121824200Y-100976190D02*
X121748009Y-101052380D01*
X121748009Y-101052380D02*
X121671819Y-101090475D01*
X121671819Y-101090475D02*
X121519438Y-101128571D01*
X121519438Y-101128571D02*
X121405152Y-101128571D01*
X121405152Y-101128571D02*
X121252771Y-101090475D01*
X121252771Y-101090475D02*
X121176580Y-101052380D01*
X121176580Y-101052380D02*
X121100390Y-100976190D01*
X121100390Y-100976190D02*
X121062295Y-100861904D01*
X121062295Y-100861904D02*
X121062295Y-100785713D01*
X121062295Y-100785713D02*
X121100390Y-100671428D01*
X121100390Y-100671428D02*
X121138485Y-100633332D01*
X121862295Y-99871428D02*
X121862295Y-100328571D01*
X121862295Y-100099999D02*
X121062295Y-100099999D01*
X121062295Y-100099999D02*
X121176580Y-100176190D01*
X121176580Y-100176190D02*
X121252771Y-100252380D01*
X121252771Y-100252380D02*
X121290866Y-100328571D01*
X168486104Y-103414285D02*
X168524200Y-103452381D01*
X168524200Y-103452381D02*
X168562295Y-103566666D01*
X168562295Y-103566666D02*
X168562295Y-103642857D01*
X168562295Y-103642857D02*
X168524200Y-103757143D01*
X168524200Y-103757143D02*
X168448009Y-103833333D01*
X168448009Y-103833333D02*
X168371819Y-103871428D01*
X168371819Y-103871428D02*
X168219438Y-103909524D01*
X168219438Y-103909524D02*
X168105152Y-103909524D01*
X168105152Y-103909524D02*
X167952771Y-103871428D01*
X167952771Y-103871428D02*
X167876580Y-103833333D01*
X167876580Y-103833333D02*
X167800390Y-103757143D01*
X167800390Y-103757143D02*
X167762295Y-103642857D01*
X167762295Y-103642857D02*
X167762295Y-103566666D01*
X167762295Y-103566666D02*
X167800390Y-103452381D01*
X167800390Y-103452381D02*
X167838485Y-103414285D01*
X168028961Y-102728571D02*
X168562295Y-102728571D01*
X167724200Y-102919047D02*
X168295628Y-103109524D01*
X168295628Y-103109524D02*
X168295628Y-102614285D01*
X167762295Y-101928571D02*
X167762295Y-102309523D01*
X167762295Y-102309523D02*
X168143247Y-102347619D01*
X168143247Y-102347619D02*
X168105152Y-102309523D01*
X168105152Y-102309523D02*
X168067057Y-102233333D01*
X168067057Y-102233333D02*
X168067057Y-102042857D01*
X168067057Y-102042857D02*
X168105152Y-101966666D01*
X168105152Y-101966666D02*
X168143247Y-101928571D01*
X168143247Y-101928571D02*
X168219438Y-101890476D01*
X168219438Y-101890476D02*
X168409914Y-101890476D01*
X168409914Y-101890476D02*
X168486104Y-101928571D01*
X168486104Y-101928571D02*
X168524200Y-101966666D01*
X168524200Y-101966666D02*
X168562295Y-102042857D01*
X168562295Y-102042857D02*
X168562295Y-102233333D01*
X168562295Y-102233333D02*
X168524200Y-102309523D01*
X168524200Y-102309523D02*
X168486104Y-102347619D01*
X152738095Y-92206819D02*
X153309523Y-92206819D01*
X153023809Y-93206819D02*
X153023809Y-92206819D01*
X153642857Y-93206819D02*
X153642857Y-92206819D01*
X153642857Y-92206819D02*
X154023809Y-92206819D01*
X154023809Y-92206819D02*
X154119047Y-92254438D01*
X154119047Y-92254438D02*
X154166666Y-92302057D01*
X154166666Y-92302057D02*
X154214285Y-92397295D01*
X154214285Y-92397295D02*
X154214285Y-92540152D01*
X154214285Y-92540152D02*
X154166666Y-92635390D01*
X154166666Y-92635390D02*
X154119047Y-92683009D01*
X154119047Y-92683009D02*
X154023809Y-92730628D01*
X154023809Y-92730628D02*
X153642857Y-92730628D01*
X155119047Y-92206819D02*
X154642857Y-92206819D01*
X154642857Y-92206819D02*
X154595238Y-92683009D01*
X154595238Y-92683009D02*
X154642857Y-92635390D01*
X154642857Y-92635390D02*
X154738095Y-92587771D01*
X154738095Y-92587771D02*
X154976190Y-92587771D01*
X154976190Y-92587771D02*
X155071428Y-92635390D01*
X155071428Y-92635390D02*
X155119047Y-92683009D01*
X155119047Y-92683009D02*
X155166666Y-92778247D01*
X155166666Y-92778247D02*
X155166666Y-93016342D01*
X155166666Y-93016342D02*
X155119047Y-93111580D01*
X155119047Y-93111580D02*
X155071428Y-93159200D01*
X155071428Y-93159200D02*
X154976190Y-93206819D01*
X154976190Y-93206819D02*
X154738095Y-93206819D01*
X154738095Y-93206819D02*
X154642857Y-93159200D01*
X154642857Y-93159200D02*
X154595238Y-93111580D01*
X128866667Y-111386104D02*
X128828571Y-111424200D01*
X128828571Y-111424200D02*
X128714286Y-111462295D01*
X128714286Y-111462295D02*
X128638095Y-111462295D01*
X128638095Y-111462295D02*
X128523809Y-111424200D01*
X128523809Y-111424200D02*
X128447619Y-111348009D01*
X128447619Y-111348009D02*
X128409524Y-111271819D01*
X128409524Y-111271819D02*
X128371428Y-111119438D01*
X128371428Y-111119438D02*
X128371428Y-111005152D01*
X128371428Y-111005152D02*
X128409524Y-110852771D01*
X128409524Y-110852771D02*
X128447619Y-110776580D01*
X128447619Y-110776580D02*
X128523809Y-110700390D01*
X128523809Y-110700390D02*
X128638095Y-110662295D01*
X128638095Y-110662295D02*
X128714286Y-110662295D01*
X128714286Y-110662295D02*
X128828571Y-110700390D01*
X128828571Y-110700390D02*
X128866667Y-110738485D01*
X129323809Y-111005152D02*
X129247619Y-110967057D01*
X129247619Y-110967057D02*
X129209524Y-110928961D01*
X129209524Y-110928961D02*
X129171428Y-110852771D01*
X129171428Y-110852771D02*
X129171428Y-110814676D01*
X129171428Y-110814676D02*
X129209524Y-110738485D01*
X129209524Y-110738485D02*
X129247619Y-110700390D01*
X129247619Y-110700390D02*
X129323809Y-110662295D01*
X129323809Y-110662295D02*
X129476190Y-110662295D01*
X129476190Y-110662295D02*
X129552381Y-110700390D01*
X129552381Y-110700390D02*
X129590476Y-110738485D01*
X129590476Y-110738485D02*
X129628571Y-110814676D01*
X129628571Y-110814676D02*
X129628571Y-110852771D01*
X129628571Y-110852771D02*
X129590476Y-110928961D01*
X129590476Y-110928961D02*
X129552381Y-110967057D01*
X129552381Y-110967057D02*
X129476190Y-111005152D01*
X129476190Y-111005152D02*
X129323809Y-111005152D01*
X129323809Y-111005152D02*
X129247619Y-111043247D01*
X129247619Y-111043247D02*
X129209524Y-111081342D01*
X129209524Y-111081342D02*
X129171428Y-111157533D01*
X129171428Y-111157533D02*
X129171428Y-111309914D01*
X129171428Y-111309914D02*
X129209524Y-111386104D01*
X129209524Y-111386104D02*
X129247619Y-111424200D01*
X129247619Y-111424200D02*
X129323809Y-111462295D01*
X129323809Y-111462295D02*
X129476190Y-111462295D01*
X129476190Y-111462295D02*
X129552381Y-111424200D01*
X129552381Y-111424200D02*
X129590476Y-111386104D01*
X129590476Y-111386104D02*
X129628571Y-111309914D01*
X129628571Y-111309914D02*
X129628571Y-111157533D01*
X129628571Y-111157533D02*
X129590476Y-111081342D01*
X129590476Y-111081342D02*
X129552381Y-111043247D01*
X129552381Y-111043247D02*
X129476190Y-111005152D01*
X119866667Y-106862295D02*
X119600000Y-106481342D01*
X119409524Y-106862295D02*
X119409524Y-106062295D01*
X119409524Y-106062295D02*
X119714286Y-106062295D01*
X119714286Y-106062295D02*
X119790476Y-106100390D01*
X119790476Y-106100390D02*
X119828571Y-106138485D01*
X119828571Y-106138485D02*
X119866667Y-106214676D01*
X119866667Y-106214676D02*
X119866667Y-106328961D01*
X119866667Y-106328961D02*
X119828571Y-106405152D01*
X119828571Y-106405152D02*
X119790476Y-106443247D01*
X119790476Y-106443247D02*
X119714286Y-106481342D01*
X119714286Y-106481342D02*
X119409524Y-106481342D01*
X120133333Y-106062295D02*
X120628571Y-106062295D01*
X120628571Y-106062295D02*
X120361905Y-106367057D01*
X120361905Y-106367057D02*
X120476190Y-106367057D01*
X120476190Y-106367057D02*
X120552381Y-106405152D01*
X120552381Y-106405152D02*
X120590476Y-106443247D01*
X120590476Y-106443247D02*
X120628571Y-106519438D01*
X120628571Y-106519438D02*
X120628571Y-106709914D01*
X120628571Y-106709914D02*
X120590476Y-106786104D01*
X120590476Y-106786104D02*
X120552381Y-106824200D01*
X120552381Y-106824200D02*
X120476190Y-106862295D01*
X120476190Y-106862295D02*
X120247619Y-106862295D01*
X120247619Y-106862295D02*
X120171428Y-106824200D01*
X120171428Y-106824200D02*
X120133333Y-106786104D01*
X142054819Y-110138094D02*
X142054819Y-109566666D01*
X143054819Y-109852380D02*
X142054819Y-109852380D01*
X143054819Y-109233332D02*
X142054819Y-109233332D01*
X142054819Y-109233332D02*
X142054819Y-108852380D01*
X142054819Y-108852380D02*
X142102438Y-108757142D01*
X142102438Y-108757142D02*
X142150057Y-108709523D01*
X142150057Y-108709523D02*
X142245295Y-108661904D01*
X142245295Y-108661904D02*
X142388152Y-108661904D01*
X142388152Y-108661904D02*
X142483390Y-108709523D01*
X142483390Y-108709523D02*
X142531009Y-108757142D01*
X142531009Y-108757142D02*
X142578628Y-108852380D01*
X142578628Y-108852380D02*
X142578628Y-109233332D01*
X143054819Y-107709523D02*
X143054819Y-108280951D01*
X143054819Y-107995237D02*
X142054819Y-107995237D01*
X142054819Y-107995237D02*
X142197676Y-108090475D01*
X142197676Y-108090475D02*
X142292914Y-108185713D01*
X142292914Y-108185713D02*
X142340533Y-108280951D01*
X142054819Y-107090475D02*
X142054819Y-106995237D01*
X142054819Y-106995237D02*
X142102438Y-106899999D01*
X142102438Y-106899999D02*
X142150057Y-106852380D01*
X142150057Y-106852380D02*
X142245295Y-106804761D01*
X142245295Y-106804761D02*
X142435771Y-106757142D01*
X142435771Y-106757142D02*
X142673866Y-106757142D01*
X142673866Y-106757142D02*
X142864342Y-106804761D01*
X142864342Y-106804761D02*
X142959580Y-106852380D01*
X142959580Y-106852380D02*
X143007200Y-106899999D01*
X143007200Y-106899999D02*
X143054819Y-106995237D01*
X143054819Y-106995237D02*
X143054819Y-107090475D01*
X143054819Y-107090475D02*
X143007200Y-107185713D01*
X143007200Y-107185713D02*
X142959580Y-107233332D01*
X142959580Y-107233332D02*
X142864342Y-107280951D01*
X142864342Y-107280951D02*
X142673866Y-107328570D01*
X142673866Y-107328570D02*
X142435771Y-107328570D01*
X142435771Y-107328570D02*
X142245295Y-107280951D01*
X142245295Y-107280951D02*
X142150057Y-107233332D01*
X142150057Y-107233332D02*
X142102438Y-107185713D01*
X142102438Y-107185713D02*
X142054819Y-107090475D01*
X133086104Y-112914285D02*
X133124200Y-112952381D01*
X133124200Y-112952381D02*
X133162295Y-113066666D01*
X133162295Y-113066666D02*
X133162295Y-113142857D01*
X133162295Y-113142857D02*
X133124200Y-113257143D01*
X133124200Y-113257143D02*
X133048009Y-113333333D01*
X133048009Y-113333333D02*
X132971819Y-113371428D01*
X132971819Y-113371428D02*
X132819438Y-113409524D01*
X132819438Y-113409524D02*
X132705152Y-113409524D01*
X132705152Y-113409524D02*
X132552771Y-113371428D01*
X132552771Y-113371428D02*
X132476580Y-113333333D01*
X132476580Y-113333333D02*
X132400390Y-113257143D01*
X132400390Y-113257143D02*
X132362295Y-113142857D01*
X132362295Y-113142857D02*
X132362295Y-113066666D01*
X132362295Y-113066666D02*
X132400390Y-112952381D01*
X132400390Y-112952381D02*
X132438485Y-112914285D01*
X133162295Y-112152381D02*
X133162295Y-112609524D01*
X133162295Y-112380952D02*
X132362295Y-112380952D01*
X132362295Y-112380952D02*
X132476580Y-112457143D01*
X132476580Y-112457143D02*
X132552771Y-112533333D01*
X132552771Y-112533333D02*
X132590866Y-112609524D01*
X133162295Y-111390476D02*
X133162295Y-111847619D01*
X133162295Y-111619047D02*
X132362295Y-111619047D01*
X132362295Y-111619047D02*
X132476580Y-111695238D01*
X132476580Y-111695238D02*
X132552771Y-111771428D01*
X132552771Y-111771428D02*
X132590866Y-111847619D01*
X119866667Y-99262295D02*
X119600000Y-98881342D01*
X119409524Y-99262295D02*
X119409524Y-98462295D01*
X119409524Y-98462295D02*
X119714286Y-98462295D01*
X119714286Y-98462295D02*
X119790476Y-98500390D01*
X119790476Y-98500390D02*
X119828571Y-98538485D01*
X119828571Y-98538485D02*
X119866667Y-98614676D01*
X119866667Y-98614676D02*
X119866667Y-98728961D01*
X119866667Y-98728961D02*
X119828571Y-98805152D01*
X119828571Y-98805152D02*
X119790476Y-98843247D01*
X119790476Y-98843247D02*
X119714286Y-98881342D01*
X119714286Y-98881342D02*
X119409524Y-98881342D01*
X120628571Y-99262295D02*
X120171428Y-99262295D01*
X120400000Y-99262295D02*
X120400000Y-98462295D01*
X120400000Y-98462295D02*
X120323809Y-98576580D01*
X120323809Y-98576580D02*
X120247619Y-98652771D01*
X120247619Y-98652771D02*
X120171428Y-98690866D01*
X169966666Y-101962295D02*
X169585714Y-101962295D01*
X169585714Y-101962295D02*
X169585714Y-101162295D01*
X170614285Y-101162295D02*
X170233333Y-101162295D01*
X170233333Y-101162295D02*
X170195237Y-101543247D01*
X170195237Y-101543247D02*
X170233333Y-101505152D01*
X170233333Y-101505152D02*
X170309523Y-101467057D01*
X170309523Y-101467057D02*
X170499999Y-101467057D01*
X170499999Y-101467057D02*
X170576190Y-101505152D01*
X170576190Y-101505152D02*
X170614285Y-101543247D01*
X170614285Y-101543247D02*
X170652380Y-101619438D01*
X170652380Y-101619438D02*
X170652380Y-101809914D01*
X170652380Y-101809914D02*
X170614285Y-101886104D01*
X170614285Y-101886104D02*
X170576190Y-101924200D01*
X170576190Y-101924200D02*
X170499999Y-101962295D01*
X170499999Y-101962295D02*
X170309523Y-101962295D01*
X170309523Y-101962295D02*
X170233333Y-101924200D01*
X170233333Y-101924200D02*
X170195237Y-101886104D01*
X180866666Y-108112295D02*
X180485714Y-108112295D01*
X180485714Y-108112295D02*
X180485714Y-107312295D01*
X181057142Y-107312295D02*
X181590476Y-107312295D01*
X181590476Y-107312295D02*
X181247618Y-108112295D01*
X180462295Y-99524285D02*
X180081342Y-99790952D01*
X180462295Y-99981428D02*
X179662295Y-99981428D01*
X179662295Y-99981428D02*
X179662295Y-99676666D01*
X179662295Y-99676666D02*
X179700390Y-99600476D01*
X179700390Y-99600476D02*
X179738485Y-99562381D01*
X179738485Y-99562381D02*
X179814676Y-99524285D01*
X179814676Y-99524285D02*
X179928961Y-99524285D01*
X179928961Y-99524285D02*
X180005152Y-99562381D01*
X180005152Y-99562381D02*
X180043247Y-99600476D01*
X180043247Y-99600476D02*
X180081342Y-99676666D01*
X180081342Y-99676666D02*
X180081342Y-99981428D01*
X179738485Y-99219524D02*
X179700390Y-99181428D01*
X179700390Y-99181428D02*
X179662295Y-99105238D01*
X179662295Y-99105238D02*
X179662295Y-98914762D01*
X179662295Y-98914762D02*
X179700390Y-98838571D01*
X179700390Y-98838571D02*
X179738485Y-98800476D01*
X179738485Y-98800476D02*
X179814676Y-98762381D01*
X179814676Y-98762381D02*
X179890866Y-98762381D01*
X179890866Y-98762381D02*
X180005152Y-98800476D01*
X180005152Y-98800476D02*
X180462295Y-99257619D01*
X180462295Y-99257619D02*
X180462295Y-98762381D01*
X179738485Y-98457619D02*
X179700390Y-98419523D01*
X179700390Y-98419523D02*
X179662295Y-98343333D01*
X179662295Y-98343333D02*
X179662295Y-98152857D01*
X179662295Y-98152857D02*
X179700390Y-98076666D01*
X179700390Y-98076666D02*
X179738485Y-98038571D01*
X179738485Y-98038571D02*
X179814676Y-98000476D01*
X179814676Y-98000476D02*
X179890866Y-98000476D01*
X179890866Y-98000476D02*
X180005152Y-98038571D01*
X180005152Y-98038571D02*
X180462295Y-98495714D01*
X180462295Y-98495714D02*
X180462295Y-98000476D01*
X174985714Y-107862295D02*
X174719047Y-107481342D01*
X174528571Y-107862295D02*
X174528571Y-107062295D01*
X174528571Y-107062295D02*
X174833333Y-107062295D01*
X174833333Y-107062295D02*
X174909523Y-107100390D01*
X174909523Y-107100390D02*
X174947618Y-107138485D01*
X174947618Y-107138485D02*
X174985714Y-107214676D01*
X174985714Y-107214676D02*
X174985714Y-107328961D01*
X174985714Y-107328961D02*
X174947618Y-107405152D01*
X174947618Y-107405152D02*
X174909523Y-107443247D01*
X174909523Y-107443247D02*
X174833333Y-107481342D01*
X174833333Y-107481342D02*
X174528571Y-107481342D01*
X175290475Y-107138485D02*
X175328571Y-107100390D01*
X175328571Y-107100390D02*
X175404761Y-107062295D01*
X175404761Y-107062295D02*
X175595237Y-107062295D01*
X175595237Y-107062295D02*
X175671428Y-107100390D01*
X175671428Y-107100390D02*
X175709523Y-107138485D01*
X175709523Y-107138485D02*
X175747618Y-107214676D01*
X175747618Y-107214676D02*
X175747618Y-107290866D01*
X175747618Y-107290866D02*
X175709523Y-107405152D01*
X175709523Y-107405152D02*
X175252380Y-107862295D01*
X175252380Y-107862295D02*
X175747618Y-107862295D01*
X176509523Y-107862295D02*
X176052380Y-107862295D01*
X176280952Y-107862295D02*
X176280952Y-107062295D01*
X176280952Y-107062295D02*
X176204761Y-107176580D01*
X176204761Y-107176580D02*
X176128571Y-107252771D01*
X176128571Y-107252771D02*
X176052380Y-107290866D01*
X148119048Y-116981342D02*
X148119048Y-117362295D01*
X147852381Y-116562295D02*
X148119048Y-116981342D01*
X148119048Y-116981342D02*
X148385714Y-116562295D01*
X148614285Y-116638485D02*
X148652381Y-116600390D01*
X148652381Y-116600390D02*
X148728571Y-116562295D01*
X148728571Y-116562295D02*
X148919047Y-116562295D01*
X148919047Y-116562295D02*
X148995238Y-116600390D01*
X148995238Y-116600390D02*
X149033333Y-116638485D01*
X149033333Y-116638485D02*
X149071428Y-116714676D01*
X149071428Y-116714676D02*
X149071428Y-116790866D01*
X149071428Y-116790866D02*
X149033333Y-116905152D01*
X149033333Y-116905152D02*
X148576190Y-117362295D01*
X148576190Y-117362295D02*
X149071428Y-117362295D01*
X141985714Y-101362295D02*
X141719047Y-100981342D01*
X141528571Y-101362295D02*
X141528571Y-100562295D01*
X141528571Y-100562295D02*
X141833333Y-100562295D01*
X141833333Y-100562295D02*
X141909523Y-100600390D01*
X141909523Y-100600390D02*
X141947618Y-100638485D01*
X141947618Y-100638485D02*
X141985714Y-100714676D01*
X141985714Y-100714676D02*
X141985714Y-100828961D01*
X141985714Y-100828961D02*
X141947618Y-100905152D01*
X141947618Y-100905152D02*
X141909523Y-100943247D01*
X141909523Y-100943247D02*
X141833333Y-100981342D01*
X141833333Y-100981342D02*
X141528571Y-100981342D01*
X142747618Y-101362295D02*
X142290475Y-101362295D01*
X142519047Y-101362295D02*
X142519047Y-100562295D01*
X142519047Y-100562295D02*
X142442856Y-100676580D01*
X142442856Y-100676580D02*
X142366666Y-100752771D01*
X142366666Y-100752771D02*
X142290475Y-100790866D01*
X143242857Y-100562295D02*
X143319047Y-100562295D01*
X143319047Y-100562295D02*
X143395238Y-100600390D01*
X143395238Y-100600390D02*
X143433333Y-100638485D01*
X143433333Y-100638485D02*
X143471428Y-100714676D01*
X143471428Y-100714676D02*
X143509523Y-100867057D01*
X143509523Y-100867057D02*
X143509523Y-101057533D01*
X143509523Y-101057533D02*
X143471428Y-101209914D01*
X143471428Y-101209914D02*
X143433333Y-101286104D01*
X143433333Y-101286104D02*
X143395238Y-101324200D01*
X143395238Y-101324200D02*
X143319047Y-101362295D01*
X143319047Y-101362295D02*
X143242857Y-101362295D01*
X143242857Y-101362295D02*
X143166666Y-101324200D01*
X143166666Y-101324200D02*
X143128571Y-101286104D01*
X143128571Y-101286104D02*
X143090476Y-101209914D01*
X143090476Y-101209914D02*
X143052380Y-101057533D01*
X143052380Y-101057533D02*
X143052380Y-100867057D01*
X143052380Y-100867057D02*
X143090476Y-100714676D01*
X143090476Y-100714676D02*
X143128571Y-100638485D01*
X143128571Y-100638485D02*
X143166666Y-100600390D01*
X143166666Y-100600390D02*
X143242857Y-100562295D01*
X177862295Y-97014285D02*
X177481342Y-97280952D01*
X177862295Y-97471428D02*
X177062295Y-97471428D01*
X177062295Y-97471428D02*
X177062295Y-97166666D01*
X177062295Y-97166666D02*
X177100390Y-97090476D01*
X177100390Y-97090476D02*
X177138485Y-97052381D01*
X177138485Y-97052381D02*
X177214676Y-97014285D01*
X177214676Y-97014285D02*
X177328961Y-97014285D01*
X177328961Y-97014285D02*
X177405152Y-97052381D01*
X177405152Y-97052381D02*
X177443247Y-97090476D01*
X177443247Y-97090476D02*
X177481342Y-97166666D01*
X177481342Y-97166666D02*
X177481342Y-97471428D01*
X177138485Y-96709524D02*
X177100390Y-96671428D01*
X177100390Y-96671428D02*
X177062295Y-96595238D01*
X177062295Y-96595238D02*
X177062295Y-96404762D01*
X177062295Y-96404762D02*
X177100390Y-96328571D01*
X177100390Y-96328571D02*
X177138485Y-96290476D01*
X177138485Y-96290476D02*
X177214676Y-96252381D01*
X177214676Y-96252381D02*
X177290866Y-96252381D01*
X177290866Y-96252381D02*
X177405152Y-96290476D01*
X177405152Y-96290476D02*
X177862295Y-96747619D01*
X177862295Y-96747619D02*
X177862295Y-96252381D01*
X177062295Y-95985714D02*
X177062295Y-95490476D01*
X177062295Y-95490476D02*
X177367057Y-95757142D01*
X177367057Y-95757142D02*
X177367057Y-95642857D01*
X177367057Y-95642857D02*
X177405152Y-95566666D01*
X177405152Y-95566666D02*
X177443247Y-95528571D01*
X177443247Y-95528571D02*
X177519438Y-95490476D01*
X177519438Y-95490476D02*
X177709914Y-95490476D01*
X177709914Y-95490476D02*
X177786104Y-95528571D01*
X177786104Y-95528571D02*
X177824200Y-95566666D01*
X177824200Y-95566666D02*
X177862295Y-95642857D01*
X177862295Y-95642857D02*
X177862295Y-95871428D01*
X177862295Y-95871428D02*
X177824200Y-95947619D01*
X177824200Y-95947619D02*
X177786104Y-95985714D01*
X121241667Y-94166104D02*
X121203571Y-94204200D01*
X121203571Y-94204200D02*
X121089286Y-94242295D01*
X121089286Y-94242295D02*
X121013095Y-94242295D01*
X121013095Y-94242295D02*
X120898809Y-94204200D01*
X120898809Y-94204200D02*
X120822619Y-94128009D01*
X120822619Y-94128009D02*
X120784524Y-94051819D01*
X120784524Y-94051819D02*
X120746428Y-93899438D01*
X120746428Y-93899438D02*
X120746428Y-93785152D01*
X120746428Y-93785152D02*
X120784524Y-93632771D01*
X120784524Y-93632771D02*
X120822619Y-93556580D01*
X120822619Y-93556580D02*
X120898809Y-93480390D01*
X120898809Y-93480390D02*
X121013095Y-93442295D01*
X121013095Y-93442295D02*
X121089286Y-93442295D01*
X121089286Y-93442295D02*
X121203571Y-93480390D01*
X121203571Y-93480390D02*
X121241667Y-93518485D01*
X121508333Y-93442295D02*
X122003571Y-93442295D01*
X122003571Y-93442295D02*
X121736905Y-93747057D01*
X121736905Y-93747057D02*
X121851190Y-93747057D01*
X121851190Y-93747057D02*
X121927381Y-93785152D01*
X121927381Y-93785152D02*
X121965476Y-93823247D01*
X121965476Y-93823247D02*
X122003571Y-93899438D01*
X122003571Y-93899438D02*
X122003571Y-94089914D01*
X122003571Y-94089914D02*
X121965476Y-94166104D01*
X121965476Y-94166104D02*
X121927381Y-94204200D01*
X121927381Y-94204200D02*
X121851190Y-94242295D01*
X121851190Y-94242295D02*
X121622619Y-94242295D01*
X121622619Y-94242295D02*
X121546428Y-94204200D01*
X121546428Y-94204200D02*
X121508333Y-94166104D01*
X144285714Y-116986104D02*
X144247618Y-117024200D01*
X144247618Y-117024200D02*
X144133333Y-117062295D01*
X144133333Y-117062295D02*
X144057142Y-117062295D01*
X144057142Y-117062295D02*
X143942856Y-117024200D01*
X143942856Y-117024200D02*
X143866666Y-116948009D01*
X143866666Y-116948009D02*
X143828571Y-116871819D01*
X143828571Y-116871819D02*
X143790475Y-116719438D01*
X143790475Y-116719438D02*
X143790475Y-116605152D01*
X143790475Y-116605152D02*
X143828571Y-116452771D01*
X143828571Y-116452771D02*
X143866666Y-116376580D01*
X143866666Y-116376580D02*
X143942856Y-116300390D01*
X143942856Y-116300390D02*
X144057142Y-116262295D01*
X144057142Y-116262295D02*
X144133333Y-116262295D01*
X144133333Y-116262295D02*
X144247618Y-116300390D01*
X144247618Y-116300390D02*
X144285714Y-116338485D01*
X145047618Y-117062295D02*
X144590475Y-117062295D01*
X144819047Y-117062295D02*
X144819047Y-116262295D01*
X144819047Y-116262295D02*
X144742856Y-116376580D01*
X144742856Y-116376580D02*
X144666666Y-116452771D01*
X144666666Y-116452771D02*
X144590475Y-116490866D01*
X145314285Y-116262295D02*
X145847619Y-116262295D01*
X145847619Y-116262295D02*
X145504761Y-117062295D01*
X155862295Y-116514285D02*
X155481342Y-116780952D01*
X155862295Y-116971428D02*
X155062295Y-116971428D01*
X155062295Y-116971428D02*
X155062295Y-116666666D01*
X155062295Y-116666666D02*
X155100390Y-116590476D01*
X155100390Y-116590476D02*
X155138485Y-116552381D01*
X155138485Y-116552381D02*
X155214676Y-116514285D01*
X155214676Y-116514285D02*
X155328961Y-116514285D01*
X155328961Y-116514285D02*
X155405152Y-116552381D01*
X155405152Y-116552381D02*
X155443247Y-116590476D01*
X155443247Y-116590476D02*
X155481342Y-116666666D01*
X155481342Y-116666666D02*
X155481342Y-116971428D01*
X155862295Y-115752381D02*
X155862295Y-116209524D01*
X155862295Y-115980952D02*
X155062295Y-115980952D01*
X155062295Y-115980952D02*
X155176580Y-116057143D01*
X155176580Y-116057143D02*
X155252771Y-116133333D01*
X155252771Y-116133333D02*
X155290866Y-116209524D01*
X155062295Y-115485714D02*
X155062295Y-114990476D01*
X155062295Y-114990476D02*
X155367057Y-115257142D01*
X155367057Y-115257142D02*
X155367057Y-115142857D01*
X155367057Y-115142857D02*
X155405152Y-115066666D01*
X155405152Y-115066666D02*
X155443247Y-115028571D01*
X155443247Y-115028571D02*
X155519438Y-114990476D01*
X155519438Y-114990476D02*
X155709914Y-114990476D01*
X155709914Y-114990476D02*
X155786104Y-115028571D01*
X155786104Y-115028571D02*
X155824200Y-115066666D01*
X155824200Y-115066666D02*
X155862295Y-115142857D01*
X155862295Y-115142857D02*
X155862295Y-115371428D01*
X155862295Y-115371428D02*
X155824200Y-115447619D01*
X155824200Y-115447619D02*
X155786104Y-115485714D01*
X134586104Y-112914285D02*
X134624200Y-112952381D01*
X134624200Y-112952381D02*
X134662295Y-113066666D01*
X134662295Y-113066666D02*
X134662295Y-113142857D01*
X134662295Y-113142857D02*
X134624200Y-113257143D01*
X134624200Y-113257143D02*
X134548009Y-113333333D01*
X134548009Y-113333333D02*
X134471819Y-113371428D01*
X134471819Y-113371428D02*
X134319438Y-113409524D01*
X134319438Y-113409524D02*
X134205152Y-113409524D01*
X134205152Y-113409524D02*
X134052771Y-113371428D01*
X134052771Y-113371428D02*
X133976580Y-113333333D01*
X133976580Y-113333333D02*
X133900390Y-113257143D01*
X133900390Y-113257143D02*
X133862295Y-113142857D01*
X133862295Y-113142857D02*
X133862295Y-113066666D01*
X133862295Y-113066666D02*
X133900390Y-112952381D01*
X133900390Y-112952381D02*
X133938485Y-112914285D01*
X134662295Y-112152381D02*
X134662295Y-112609524D01*
X134662295Y-112380952D02*
X133862295Y-112380952D01*
X133862295Y-112380952D02*
X133976580Y-112457143D01*
X133976580Y-112457143D02*
X134052771Y-112533333D01*
X134052771Y-112533333D02*
X134090866Y-112609524D01*
X133862295Y-111428571D02*
X133862295Y-111809523D01*
X133862295Y-111809523D02*
X134243247Y-111847619D01*
X134243247Y-111847619D02*
X134205152Y-111809523D01*
X134205152Y-111809523D02*
X134167057Y-111733333D01*
X134167057Y-111733333D02*
X134167057Y-111542857D01*
X134167057Y-111542857D02*
X134205152Y-111466666D01*
X134205152Y-111466666D02*
X134243247Y-111428571D01*
X134243247Y-111428571D02*
X134319438Y-111390476D01*
X134319438Y-111390476D02*
X134509914Y-111390476D01*
X134509914Y-111390476D02*
X134586104Y-111428571D01*
X134586104Y-111428571D02*
X134624200Y-111466666D01*
X134624200Y-111466666D02*
X134662295Y-111542857D01*
X134662295Y-111542857D02*
X134662295Y-111733333D01*
X134662295Y-111733333D02*
X134624200Y-111809523D01*
X134624200Y-111809523D02*
X134586104Y-111847619D01*
X137738095Y-110954819D02*
X138309523Y-110954819D01*
X138023809Y-111954819D02*
X138023809Y-110954819D01*
X138642857Y-111954819D02*
X138642857Y-110954819D01*
X138642857Y-110954819D02*
X139023809Y-110954819D01*
X139023809Y-110954819D02*
X139119047Y-111002438D01*
X139119047Y-111002438D02*
X139166666Y-111050057D01*
X139166666Y-111050057D02*
X139214285Y-111145295D01*
X139214285Y-111145295D02*
X139214285Y-111288152D01*
X139214285Y-111288152D02*
X139166666Y-111383390D01*
X139166666Y-111383390D02*
X139119047Y-111431009D01*
X139119047Y-111431009D02*
X139023809Y-111478628D01*
X139023809Y-111478628D02*
X138642857Y-111478628D01*
X139690476Y-111954819D02*
X139880952Y-111954819D01*
X139880952Y-111954819D02*
X139976190Y-111907200D01*
X139976190Y-111907200D02*
X140023809Y-111859580D01*
X140023809Y-111859580D02*
X140119047Y-111716723D01*
X140119047Y-111716723D02*
X140166666Y-111526247D01*
X140166666Y-111526247D02*
X140166666Y-111145295D01*
X140166666Y-111145295D02*
X140119047Y-111050057D01*
X140119047Y-111050057D02*
X140071428Y-111002438D01*
X140071428Y-111002438D02*
X139976190Y-110954819D01*
X139976190Y-110954819D02*
X139785714Y-110954819D01*
X139785714Y-110954819D02*
X139690476Y-111002438D01*
X139690476Y-111002438D02*
X139642857Y-111050057D01*
X139642857Y-111050057D02*
X139595238Y-111145295D01*
X139595238Y-111145295D02*
X139595238Y-111383390D01*
X139595238Y-111383390D02*
X139642857Y-111478628D01*
X139642857Y-111478628D02*
X139690476Y-111526247D01*
X139690476Y-111526247D02*
X139785714Y-111573866D01*
X139785714Y-111573866D02*
X139976190Y-111573866D01*
X139976190Y-111573866D02*
X140071428Y-111526247D01*
X140071428Y-111526247D02*
X140119047Y-111478628D01*
X140119047Y-111478628D02*
X140166666Y-111383390D01*
X119866667Y-107962295D02*
X119600000Y-107581342D01*
X119409524Y-107962295D02*
X119409524Y-107162295D01*
X119409524Y-107162295D02*
X119714286Y-107162295D01*
X119714286Y-107162295D02*
X119790476Y-107200390D01*
X119790476Y-107200390D02*
X119828571Y-107238485D01*
X119828571Y-107238485D02*
X119866667Y-107314676D01*
X119866667Y-107314676D02*
X119866667Y-107428961D01*
X119866667Y-107428961D02*
X119828571Y-107505152D01*
X119828571Y-107505152D02*
X119790476Y-107543247D01*
X119790476Y-107543247D02*
X119714286Y-107581342D01*
X119714286Y-107581342D02*
X119409524Y-107581342D01*
X120552381Y-107428961D02*
X120552381Y-107962295D01*
X120361905Y-107124200D02*
X120171428Y-107695628D01*
X120171428Y-107695628D02*
X120666667Y-107695628D01*
X158985714Y-91112295D02*
X158719047Y-90731342D01*
X158528571Y-91112295D02*
X158528571Y-90312295D01*
X158528571Y-90312295D02*
X158833333Y-90312295D01*
X158833333Y-90312295D02*
X158909523Y-90350390D01*
X158909523Y-90350390D02*
X158947618Y-90388485D01*
X158947618Y-90388485D02*
X158985714Y-90464676D01*
X158985714Y-90464676D02*
X158985714Y-90578961D01*
X158985714Y-90578961D02*
X158947618Y-90655152D01*
X158947618Y-90655152D02*
X158909523Y-90693247D01*
X158909523Y-90693247D02*
X158833333Y-90731342D01*
X158833333Y-90731342D02*
X158528571Y-90731342D01*
X159747618Y-91112295D02*
X159290475Y-91112295D01*
X159519047Y-91112295D02*
X159519047Y-90312295D01*
X159519047Y-90312295D02*
X159442856Y-90426580D01*
X159442856Y-90426580D02*
X159366666Y-90502771D01*
X159366666Y-90502771D02*
X159290475Y-90540866D01*
X160471428Y-90312295D02*
X160090476Y-90312295D01*
X160090476Y-90312295D02*
X160052380Y-90693247D01*
X160052380Y-90693247D02*
X160090476Y-90655152D01*
X160090476Y-90655152D02*
X160166666Y-90617057D01*
X160166666Y-90617057D02*
X160357142Y-90617057D01*
X160357142Y-90617057D02*
X160433333Y-90655152D01*
X160433333Y-90655152D02*
X160471428Y-90693247D01*
X160471428Y-90693247D02*
X160509523Y-90769438D01*
X160509523Y-90769438D02*
X160509523Y-90959914D01*
X160509523Y-90959914D02*
X160471428Y-91036104D01*
X160471428Y-91036104D02*
X160433333Y-91074200D01*
X160433333Y-91074200D02*
X160357142Y-91112295D01*
X160357142Y-91112295D02*
X160166666Y-91112295D01*
X160166666Y-91112295D02*
X160090476Y-91074200D01*
X160090476Y-91074200D02*
X160052380Y-91036104D01*
X153985714Y-118362295D02*
X153719047Y-117981342D01*
X153528571Y-118362295D02*
X153528571Y-117562295D01*
X153528571Y-117562295D02*
X153833333Y-117562295D01*
X153833333Y-117562295D02*
X153909523Y-117600390D01*
X153909523Y-117600390D02*
X153947618Y-117638485D01*
X153947618Y-117638485D02*
X153985714Y-117714676D01*
X153985714Y-117714676D02*
X153985714Y-117828961D01*
X153985714Y-117828961D02*
X153947618Y-117905152D01*
X153947618Y-117905152D02*
X153909523Y-117943247D01*
X153909523Y-117943247D02*
X153833333Y-117981342D01*
X153833333Y-117981342D02*
X153528571Y-117981342D01*
X154747618Y-118362295D02*
X154290475Y-118362295D01*
X154519047Y-118362295D02*
X154519047Y-117562295D01*
X154519047Y-117562295D02*
X154442856Y-117676580D01*
X154442856Y-117676580D02*
X154366666Y-117752771D01*
X154366666Y-117752771D02*
X154290475Y-117790866D01*
X155509523Y-118362295D02*
X155052380Y-118362295D01*
X155280952Y-118362295D02*
X155280952Y-117562295D01*
X155280952Y-117562295D02*
X155204761Y-117676580D01*
X155204761Y-117676580D02*
X155128571Y-117752771D01*
X155128571Y-117752771D02*
X155052380Y-117790866D01*
X182566666Y-86954819D02*
X182566666Y-87669104D01*
X182566666Y-87669104D02*
X182519047Y-87811961D01*
X182519047Y-87811961D02*
X182423809Y-87907200D01*
X182423809Y-87907200D02*
X182280952Y-87954819D01*
X182280952Y-87954819D02*
X182185714Y-87954819D01*
X182947619Y-86954819D02*
X183566666Y-86954819D01*
X183566666Y-86954819D02*
X183233333Y-87335771D01*
X183233333Y-87335771D02*
X183376190Y-87335771D01*
X183376190Y-87335771D02*
X183471428Y-87383390D01*
X183471428Y-87383390D02*
X183519047Y-87431009D01*
X183519047Y-87431009D02*
X183566666Y-87526247D01*
X183566666Y-87526247D02*
X183566666Y-87764342D01*
X183566666Y-87764342D02*
X183519047Y-87859580D01*
X183519047Y-87859580D02*
X183471428Y-87907200D01*
X183471428Y-87907200D02*
X183376190Y-87954819D01*
X183376190Y-87954819D02*
X183090476Y-87954819D01*
X183090476Y-87954819D02*
X182995238Y-87907200D01*
X182995238Y-87907200D02*
X182947619Y-87859580D01*
X109795238Y-94831009D02*
X110128571Y-94831009D01*
X110271428Y-95354819D02*
X109795238Y-95354819D01*
X109795238Y-95354819D02*
X109795238Y-94354819D01*
X109795238Y-94354819D02*
X110271428Y-94354819D01*
X110842857Y-95354819D02*
X110747619Y-95307200D01*
X110747619Y-95307200D02*
X110700000Y-95211961D01*
X110700000Y-95211961D02*
X110700000Y-94354819D01*
X111604762Y-95307200D02*
X111509524Y-95354819D01*
X111509524Y-95354819D02*
X111319048Y-95354819D01*
X111319048Y-95354819D02*
X111223810Y-95307200D01*
X111223810Y-95307200D02*
X111176191Y-95211961D01*
X111176191Y-95211961D02*
X111176191Y-94831009D01*
X111176191Y-94831009D02*
X111223810Y-94735771D01*
X111223810Y-94735771D02*
X111319048Y-94688152D01*
X111319048Y-94688152D02*
X111509524Y-94688152D01*
X111509524Y-94688152D02*
X111604762Y-94735771D01*
X111604762Y-94735771D02*
X111652381Y-94831009D01*
X111652381Y-94831009D02*
X111652381Y-94926247D01*
X111652381Y-94926247D02*
X111176191Y-95021485D01*
X112509524Y-95307200D02*
X112414286Y-95354819D01*
X112414286Y-95354819D02*
X112223810Y-95354819D01*
X112223810Y-95354819D02*
X112128572Y-95307200D01*
X112128572Y-95307200D02*
X112080953Y-95259580D01*
X112080953Y-95259580D02*
X112033334Y-95164342D01*
X112033334Y-95164342D02*
X112033334Y-94878628D01*
X112033334Y-94878628D02*
X112080953Y-94783390D01*
X112080953Y-94783390D02*
X112128572Y-94735771D01*
X112128572Y-94735771D02*
X112223810Y-94688152D01*
X112223810Y-94688152D02*
X112414286Y-94688152D01*
X112414286Y-94688152D02*
X112509524Y-94735771D01*
X112700001Y-95450057D02*
X113461905Y-95450057D01*
X113700001Y-95354819D02*
X113700001Y-94354819D01*
X114176191Y-94688152D02*
X114176191Y-95354819D01*
X114176191Y-94783390D02*
X114223810Y-94735771D01*
X114223810Y-94735771D02*
X114319048Y-94688152D01*
X114319048Y-94688152D02*
X114461905Y-94688152D01*
X114461905Y-94688152D02*
X114557143Y-94735771D01*
X114557143Y-94735771D02*
X114604762Y-94831009D01*
X114604762Y-94831009D02*
X114604762Y-95354819D01*
X158409524Y-86562295D02*
X158409524Y-85762295D01*
X158409524Y-85762295D02*
X158600000Y-85762295D01*
X158600000Y-85762295D02*
X158714286Y-85800390D01*
X158714286Y-85800390D02*
X158790476Y-85876580D01*
X158790476Y-85876580D02*
X158828571Y-85952771D01*
X158828571Y-85952771D02*
X158866667Y-86105152D01*
X158866667Y-86105152D02*
X158866667Y-86219438D01*
X158866667Y-86219438D02*
X158828571Y-86371819D01*
X158828571Y-86371819D02*
X158790476Y-86448009D01*
X158790476Y-86448009D02*
X158714286Y-86524200D01*
X158714286Y-86524200D02*
X158600000Y-86562295D01*
X158600000Y-86562295D02*
X158409524Y-86562295D01*
X159171428Y-85838485D02*
X159209524Y-85800390D01*
X159209524Y-85800390D02*
X159285714Y-85762295D01*
X159285714Y-85762295D02*
X159476190Y-85762295D01*
X159476190Y-85762295D02*
X159552381Y-85800390D01*
X159552381Y-85800390D02*
X159590476Y-85838485D01*
X159590476Y-85838485D02*
X159628571Y-85914676D01*
X159628571Y-85914676D02*
X159628571Y-85990866D01*
X159628571Y-85990866D02*
X159590476Y-86105152D01*
X159590476Y-86105152D02*
X159133333Y-86562295D01*
X159133333Y-86562295D02*
X159628571Y-86562295D01*
X174286104Y-103514285D02*
X174324200Y-103552381D01*
X174324200Y-103552381D02*
X174362295Y-103666666D01*
X174362295Y-103666666D02*
X174362295Y-103742857D01*
X174362295Y-103742857D02*
X174324200Y-103857143D01*
X174324200Y-103857143D02*
X174248009Y-103933333D01*
X174248009Y-103933333D02*
X174171819Y-103971428D01*
X174171819Y-103971428D02*
X174019438Y-104009524D01*
X174019438Y-104009524D02*
X173905152Y-104009524D01*
X173905152Y-104009524D02*
X173752771Y-103971428D01*
X173752771Y-103971428D02*
X173676580Y-103933333D01*
X173676580Y-103933333D02*
X173600390Y-103857143D01*
X173600390Y-103857143D02*
X173562295Y-103742857D01*
X173562295Y-103742857D02*
X173562295Y-103666666D01*
X173562295Y-103666666D02*
X173600390Y-103552381D01*
X173600390Y-103552381D02*
X173638485Y-103514285D01*
X173828961Y-102828571D02*
X174362295Y-102828571D01*
X173524200Y-103019047D02*
X174095628Y-103209524D01*
X174095628Y-103209524D02*
X174095628Y-102714285D01*
X174362295Y-101990476D02*
X174362295Y-102447619D01*
X174362295Y-102219047D02*
X173562295Y-102219047D01*
X173562295Y-102219047D02*
X173676580Y-102295238D01*
X173676580Y-102295238D02*
X173752771Y-102371428D01*
X173752771Y-102371428D02*
X173790866Y-102447619D01*
X132136104Y-89514285D02*
X132174200Y-89552381D01*
X132174200Y-89552381D02*
X132212295Y-89666666D01*
X132212295Y-89666666D02*
X132212295Y-89742857D01*
X132212295Y-89742857D02*
X132174200Y-89857143D01*
X132174200Y-89857143D02*
X132098009Y-89933333D01*
X132098009Y-89933333D02*
X132021819Y-89971428D01*
X132021819Y-89971428D02*
X131869438Y-90009524D01*
X131869438Y-90009524D02*
X131755152Y-90009524D01*
X131755152Y-90009524D02*
X131602771Y-89971428D01*
X131602771Y-89971428D02*
X131526580Y-89933333D01*
X131526580Y-89933333D02*
X131450390Y-89857143D01*
X131450390Y-89857143D02*
X131412295Y-89742857D01*
X131412295Y-89742857D02*
X131412295Y-89666666D01*
X131412295Y-89666666D02*
X131450390Y-89552381D01*
X131450390Y-89552381D02*
X131488485Y-89514285D01*
X132212295Y-88752381D02*
X132212295Y-89209524D01*
X132212295Y-88980952D02*
X131412295Y-88980952D01*
X131412295Y-88980952D02*
X131526580Y-89057143D01*
X131526580Y-89057143D02*
X131602771Y-89133333D01*
X131602771Y-89133333D02*
X131640866Y-89209524D01*
X131412295Y-88257142D02*
X131412295Y-88180952D01*
X131412295Y-88180952D02*
X131450390Y-88104761D01*
X131450390Y-88104761D02*
X131488485Y-88066666D01*
X131488485Y-88066666D02*
X131564676Y-88028571D01*
X131564676Y-88028571D02*
X131717057Y-87990476D01*
X131717057Y-87990476D02*
X131907533Y-87990476D01*
X131907533Y-87990476D02*
X132059914Y-88028571D01*
X132059914Y-88028571D02*
X132136104Y-88066666D01*
X132136104Y-88066666D02*
X132174200Y-88104761D01*
X132174200Y-88104761D02*
X132212295Y-88180952D01*
X132212295Y-88180952D02*
X132212295Y-88257142D01*
X132212295Y-88257142D02*
X132174200Y-88333333D01*
X132174200Y-88333333D02*
X132136104Y-88371428D01*
X132136104Y-88371428D02*
X132059914Y-88409523D01*
X132059914Y-88409523D02*
X131907533Y-88447619D01*
X131907533Y-88447619D02*
X131717057Y-88447619D01*
X131717057Y-88447619D02*
X131564676Y-88409523D01*
X131564676Y-88409523D02*
X131488485Y-88371428D01*
X131488485Y-88371428D02*
X131450390Y-88333333D01*
X131450390Y-88333333D02*
X131412295Y-88257142D01*
X121886104Y-106113332D02*
X121924200Y-106151428D01*
X121924200Y-106151428D02*
X121962295Y-106265713D01*
X121962295Y-106265713D02*
X121962295Y-106341904D01*
X121962295Y-106341904D02*
X121924200Y-106456190D01*
X121924200Y-106456190D02*
X121848009Y-106532380D01*
X121848009Y-106532380D02*
X121771819Y-106570475D01*
X121771819Y-106570475D02*
X121619438Y-106608571D01*
X121619438Y-106608571D02*
X121505152Y-106608571D01*
X121505152Y-106608571D02*
X121352771Y-106570475D01*
X121352771Y-106570475D02*
X121276580Y-106532380D01*
X121276580Y-106532380D02*
X121200390Y-106456190D01*
X121200390Y-106456190D02*
X121162295Y-106341904D01*
X121162295Y-106341904D02*
X121162295Y-106265713D01*
X121162295Y-106265713D02*
X121200390Y-106151428D01*
X121200390Y-106151428D02*
X121238485Y-106113332D01*
X121238485Y-105808571D02*
X121200390Y-105770475D01*
X121200390Y-105770475D02*
X121162295Y-105694285D01*
X121162295Y-105694285D02*
X121162295Y-105503809D01*
X121162295Y-105503809D02*
X121200390Y-105427618D01*
X121200390Y-105427618D02*
X121238485Y-105389523D01*
X121238485Y-105389523D02*
X121314676Y-105351428D01*
X121314676Y-105351428D02*
X121390866Y-105351428D01*
X121390866Y-105351428D02*
X121505152Y-105389523D01*
X121505152Y-105389523D02*
X121962295Y-105846666D01*
X121962295Y-105846666D02*
X121962295Y-105351428D01*
X143461905Y-106654819D02*
X144033333Y-106654819D01*
X143747619Y-107654819D02*
X143747619Y-106654819D01*
X144366667Y-107654819D02*
X144366667Y-106654819D01*
X144366667Y-106654819D02*
X144747619Y-106654819D01*
X144747619Y-106654819D02*
X144842857Y-106702438D01*
X144842857Y-106702438D02*
X144890476Y-106750057D01*
X144890476Y-106750057D02*
X144938095Y-106845295D01*
X144938095Y-106845295D02*
X144938095Y-106988152D01*
X144938095Y-106988152D02*
X144890476Y-107083390D01*
X144890476Y-107083390D02*
X144842857Y-107131009D01*
X144842857Y-107131009D02*
X144747619Y-107178628D01*
X144747619Y-107178628D02*
X144366667Y-107178628D01*
X145890476Y-107654819D02*
X145319048Y-107654819D01*
X145604762Y-107654819D02*
X145604762Y-106654819D01*
X145604762Y-106654819D02*
X145509524Y-106797676D01*
X145509524Y-106797676D02*
X145414286Y-106892914D01*
X145414286Y-106892914D02*
X145319048Y-106940533D01*
X146271429Y-106750057D02*
X146319048Y-106702438D01*
X146319048Y-106702438D02*
X146414286Y-106654819D01*
X146414286Y-106654819D02*
X146652381Y-106654819D01*
X146652381Y-106654819D02*
X146747619Y-106702438D01*
X146747619Y-106702438D02*
X146795238Y-106750057D01*
X146795238Y-106750057D02*
X146842857Y-106845295D01*
X146842857Y-106845295D02*
X146842857Y-106940533D01*
X146842857Y-106940533D02*
X146795238Y-107083390D01*
X146795238Y-107083390D02*
X146223810Y-107654819D01*
X146223810Y-107654819D02*
X146842857Y-107654819D01*
X151390476Y-112062295D02*
X151390476Y-112709914D01*
X151390476Y-112709914D02*
X151428571Y-112786104D01*
X151428571Y-112786104D02*
X151466666Y-112824200D01*
X151466666Y-112824200D02*
X151542857Y-112862295D01*
X151542857Y-112862295D02*
X151695238Y-112862295D01*
X151695238Y-112862295D02*
X151771428Y-112824200D01*
X151771428Y-112824200D02*
X151809523Y-112786104D01*
X151809523Y-112786104D02*
X151847619Y-112709914D01*
X151847619Y-112709914D02*
X151847619Y-112062295D01*
X152152380Y-112062295D02*
X152647618Y-112062295D01*
X152647618Y-112062295D02*
X152380952Y-112367057D01*
X152380952Y-112367057D02*
X152495237Y-112367057D01*
X152495237Y-112367057D02*
X152571428Y-112405152D01*
X152571428Y-112405152D02*
X152609523Y-112443247D01*
X152609523Y-112443247D02*
X152647618Y-112519438D01*
X152647618Y-112519438D02*
X152647618Y-112709914D01*
X152647618Y-112709914D02*
X152609523Y-112786104D01*
X152609523Y-112786104D02*
X152571428Y-112824200D01*
X152571428Y-112824200D02*
X152495237Y-112862295D01*
X152495237Y-112862295D02*
X152266666Y-112862295D01*
X152266666Y-112862295D02*
X152190475Y-112824200D01*
X152190475Y-112824200D02*
X152152380Y-112786104D01*
X145119048Y-97731342D02*
X145119048Y-98112295D01*
X144852381Y-97312295D02*
X145119048Y-97731342D01*
X145119048Y-97731342D02*
X145385714Y-97312295D01*
X146071428Y-98112295D02*
X145614285Y-98112295D01*
X145842857Y-98112295D02*
X145842857Y-97312295D01*
X145842857Y-97312295D02*
X145766666Y-97426580D01*
X145766666Y-97426580D02*
X145690476Y-97502771D01*
X145690476Y-97502771D02*
X145614285Y-97540866D01*
X155985714Y-91062295D02*
X155719047Y-90681342D01*
X155528571Y-91062295D02*
X155528571Y-90262295D01*
X155528571Y-90262295D02*
X155833333Y-90262295D01*
X155833333Y-90262295D02*
X155909523Y-90300390D01*
X155909523Y-90300390D02*
X155947618Y-90338485D01*
X155947618Y-90338485D02*
X155985714Y-90414676D01*
X155985714Y-90414676D02*
X155985714Y-90528961D01*
X155985714Y-90528961D02*
X155947618Y-90605152D01*
X155947618Y-90605152D02*
X155909523Y-90643247D01*
X155909523Y-90643247D02*
X155833333Y-90681342D01*
X155833333Y-90681342D02*
X155528571Y-90681342D01*
X156747618Y-91062295D02*
X156290475Y-91062295D01*
X156519047Y-91062295D02*
X156519047Y-90262295D01*
X156519047Y-90262295D02*
X156442856Y-90376580D01*
X156442856Y-90376580D02*
X156366666Y-90452771D01*
X156366666Y-90452771D02*
X156290475Y-90490866D01*
X157433333Y-90528961D02*
X157433333Y-91062295D01*
X157242857Y-90224200D02*
X157052380Y-90795628D01*
X157052380Y-90795628D02*
X157547619Y-90795628D01*
X175890476Y-103962295D02*
X175890476Y-104609914D01*
X175890476Y-104609914D02*
X175928571Y-104686104D01*
X175928571Y-104686104D02*
X175966666Y-104724200D01*
X175966666Y-104724200D02*
X176042857Y-104762295D01*
X176042857Y-104762295D02*
X176195238Y-104762295D01*
X176195238Y-104762295D02*
X176271428Y-104724200D01*
X176271428Y-104724200D02*
X176309523Y-104686104D01*
X176309523Y-104686104D02*
X176347619Y-104609914D01*
X176347619Y-104609914D02*
X176347619Y-103962295D01*
X177071428Y-103962295D02*
X176919047Y-103962295D01*
X176919047Y-103962295D02*
X176842856Y-104000390D01*
X176842856Y-104000390D02*
X176804761Y-104038485D01*
X176804761Y-104038485D02*
X176728571Y-104152771D01*
X176728571Y-104152771D02*
X176690475Y-104305152D01*
X176690475Y-104305152D02*
X176690475Y-104609914D01*
X176690475Y-104609914D02*
X176728571Y-104686104D01*
X176728571Y-104686104D02*
X176766666Y-104724200D01*
X176766666Y-104724200D02*
X176842856Y-104762295D01*
X176842856Y-104762295D02*
X176995237Y-104762295D01*
X176995237Y-104762295D02*
X177071428Y-104724200D01*
X177071428Y-104724200D02*
X177109523Y-104686104D01*
X177109523Y-104686104D02*
X177147618Y-104609914D01*
X177147618Y-104609914D02*
X177147618Y-104419438D01*
X177147618Y-104419438D02*
X177109523Y-104343247D01*
X177109523Y-104343247D02*
X177071428Y-104305152D01*
X177071428Y-104305152D02*
X176995237Y-104267057D01*
X176995237Y-104267057D02*
X176842856Y-104267057D01*
X176842856Y-104267057D02*
X176766666Y-104305152D01*
X176766666Y-104305152D02*
X176728571Y-104343247D01*
X176728571Y-104343247D02*
X176690475Y-104419438D01*
X116095195Y-101154819D02*
X116095195Y-100154819D01*
X116095195Y-100154819D02*
X116333290Y-100154819D01*
X116333290Y-100154819D02*
X116476147Y-100202438D01*
X116476147Y-100202438D02*
X116571385Y-100297676D01*
X116571385Y-100297676D02*
X116619004Y-100392914D01*
X116619004Y-100392914D02*
X116666623Y-100583390D01*
X116666623Y-100583390D02*
X116666623Y-100726247D01*
X116666623Y-100726247D02*
X116619004Y-100916723D01*
X116619004Y-100916723D02*
X116571385Y-101011961D01*
X116571385Y-101011961D02*
X116476147Y-101107200D01*
X116476147Y-101107200D02*
X116333290Y-101154819D01*
X116333290Y-101154819D02*
X116095195Y-101154819D01*
X117523766Y-100488152D02*
X117523766Y-101154819D01*
X117285671Y-100107200D02*
X117047576Y-100821485D01*
X117047576Y-100821485D02*
X117666623Y-100821485D01*
X177362295Y-101114285D02*
X176981342Y-101380952D01*
X177362295Y-101571428D02*
X176562295Y-101571428D01*
X176562295Y-101571428D02*
X176562295Y-101266666D01*
X176562295Y-101266666D02*
X176600390Y-101190476D01*
X176600390Y-101190476D02*
X176638485Y-101152381D01*
X176638485Y-101152381D02*
X176714676Y-101114285D01*
X176714676Y-101114285D02*
X176828961Y-101114285D01*
X176828961Y-101114285D02*
X176905152Y-101152381D01*
X176905152Y-101152381D02*
X176943247Y-101190476D01*
X176943247Y-101190476D02*
X176981342Y-101266666D01*
X176981342Y-101266666D02*
X176981342Y-101571428D01*
X176638485Y-100809524D02*
X176600390Y-100771428D01*
X176600390Y-100771428D02*
X176562295Y-100695238D01*
X176562295Y-100695238D02*
X176562295Y-100504762D01*
X176562295Y-100504762D02*
X176600390Y-100428571D01*
X176600390Y-100428571D02*
X176638485Y-100390476D01*
X176638485Y-100390476D02*
X176714676Y-100352381D01*
X176714676Y-100352381D02*
X176790866Y-100352381D01*
X176790866Y-100352381D02*
X176905152Y-100390476D01*
X176905152Y-100390476D02*
X177362295Y-100847619D01*
X177362295Y-100847619D02*
X177362295Y-100352381D01*
X176828961Y-99666666D02*
X177362295Y-99666666D01*
X176524200Y-99857142D02*
X177095628Y-100047619D01*
X177095628Y-100047619D02*
X177095628Y-99552380D01*
X181409524Y-103762295D02*
X181409524Y-102962295D01*
X181409524Y-102962295D02*
X181600000Y-102962295D01*
X181600000Y-102962295D02*
X181714286Y-103000390D01*
X181714286Y-103000390D02*
X181790476Y-103076580D01*
X181790476Y-103076580D02*
X181828571Y-103152771D01*
X181828571Y-103152771D02*
X181866667Y-103305152D01*
X181866667Y-103305152D02*
X181866667Y-103419438D01*
X181866667Y-103419438D02*
X181828571Y-103571819D01*
X181828571Y-103571819D02*
X181790476Y-103648009D01*
X181790476Y-103648009D02*
X181714286Y-103724200D01*
X181714286Y-103724200D02*
X181600000Y-103762295D01*
X181600000Y-103762295D02*
X181409524Y-103762295D01*
X182133333Y-102962295D02*
X182628571Y-102962295D01*
X182628571Y-102962295D02*
X182361905Y-103267057D01*
X182361905Y-103267057D02*
X182476190Y-103267057D01*
X182476190Y-103267057D02*
X182552381Y-103305152D01*
X182552381Y-103305152D02*
X182590476Y-103343247D01*
X182590476Y-103343247D02*
X182628571Y-103419438D01*
X182628571Y-103419438D02*
X182628571Y-103609914D01*
X182628571Y-103609914D02*
X182590476Y-103686104D01*
X182590476Y-103686104D02*
X182552381Y-103724200D01*
X182552381Y-103724200D02*
X182476190Y-103762295D01*
X182476190Y-103762295D02*
X182247619Y-103762295D01*
X182247619Y-103762295D02*
X182171428Y-103724200D01*
X182171428Y-103724200D02*
X182133333Y-103686104D01*
X185685714Y-112386104D02*
X185647618Y-112424200D01*
X185647618Y-112424200D02*
X185533333Y-112462295D01*
X185533333Y-112462295D02*
X185457142Y-112462295D01*
X185457142Y-112462295D02*
X185342856Y-112424200D01*
X185342856Y-112424200D02*
X185266666Y-112348009D01*
X185266666Y-112348009D02*
X185228571Y-112271819D01*
X185228571Y-112271819D02*
X185190475Y-112119438D01*
X185190475Y-112119438D02*
X185190475Y-112005152D01*
X185190475Y-112005152D02*
X185228571Y-111852771D01*
X185228571Y-111852771D02*
X185266666Y-111776580D01*
X185266666Y-111776580D02*
X185342856Y-111700390D01*
X185342856Y-111700390D02*
X185457142Y-111662295D01*
X185457142Y-111662295D02*
X185533333Y-111662295D01*
X185533333Y-111662295D02*
X185647618Y-111700390D01*
X185647618Y-111700390D02*
X185685714Y-111738485D01*
X185952380Y-111662295D02*
X186447618Y-111662295D01*
X186447618Y-111662295D02*
X186180952Y-111967057D01*
X186180952Y-111967057D02*
X186295237Y-111967057D01*
X186295237Y-111967057D02*
X186371428Y-112005152D01*
X186371428Y-112005152D02*
X186409523Y-112043247D01*
X186409523Y-112043247D02*
X186447618Y-112119438D01*
X186447618Y-112119438D02*
X186447618Y-112309914D01*
X186447618Y-112309914D02*
X186409523Y-112386104D01*
X186409523Y-112386104D02*
X186371428Y-112424200D01*
X186371428Y-112424200D02*
X186295237Y-112462295D01*
X186295237Y-112462295D02*
X186066666Y-112462295D01*
X186066666Y-112462295D02*
X185990475Y-112424200D01*
X185990475Y-112424200D02*
X185952380Y-112386104D01*
X186828571Y-112462295D02*
X186980952Y-112462295D01*
X186980952Y-112462295D02*
X187057142Y-112424200D01*
X187057142Y-112424200D02*
X187095238Y-112386104D01*
X187095238Y-112386104D02*
X187171428Y-112271819D01*
X187171428Y-112271819D02*
X187209523Y-112119438D01*
X187209523Y-112119438D02*
X187209523Y-111814676D01*
X187209523Y-111814676D02*
X187171428Y-111738485D01*
X187171428Y-111738485D02*
X187133333Y-111700390D01*
X187133333Y-111700390D02*
X187057142Y-111662295D01*
X187057142Y-111662295D02*
X186904761Y-111662295D01*
X186904761Y-111662295D02*
X186828571Y-111700390D01*
X186828571Y-111700390D02*
X186790476Y-111738485D01*
X186790476Y-111738485D02*
X186752380Y-111814676D01*
X186752380Y-111814676D02*
X186752380Y-112005152D01*
X186752380Y-112005152D02*
X186790476Y-112081342D01*
X186790476Y-112081342D02*
X186828571Y-112119438D01*
X186828571Y-112119438D02*
X186904761Y-112157533D01*
X186904761Y-112157533D02*
X187057142Y-112157533D01*
X187057142Y-112157533D02*
X187133333Y-112119438D01*
X187133333Y-112119438D02*
X187171428Y-112081342D01*
X187171428Y-112081342D02*
X187209523Y-112005152D01*
X114738095Y-97854819D02*
X114738095Y-98664342D01*
X114738095Y-98664342D02*
X114785714Y-98759580D01*
X114785714Y-98759580D02*
X114833333Y-98807200D01*
X114833333Y-98807200D02*
X114928571Y-98854819D01*
X114928571Y-98854819D02*
X115119047Y-98854819D01*
X115119047Y-98854819D02*
X115214285Y-98807200D01*
X115214285Y-98807200D02*
X115261904Y-98759580D01*
X115261904Y-98759580D02*
X115309523Y-98664342D01*
X115309523Y-98664342D02*
X115309523Y-97854819D01*
X115738095Y-97950057D02*
X115785714Y-97902438D01*
X115785714Y-97902438D02*
X115880952Y-97854819D01*
X115880952Y-97854819D02*
X116119047Y-97854819D01*
X116119047Y-97854819D02*
X116214285Y-97902438D01*
X116214285Y-97902438D02*
X116261904Y-97950057D01*
X116261904Y-97950057D02*
X116309523Y-98045295D01*
X116309523Y-98045295D02*
X116309523Y-98140533D01*
X116309523Y-98140533D02*
X116261904Y-98283390D01*
X116261904Y-98283390D02*
X115690476Y-98854819D01*
X115690476Y-98854819D02*
X116309523Y-98854819D01*
X186685714Y-92186104D02*
X186647618Y-92224200D01*
X186647618Y-92224200D02*
X186533333Y-92262295D01*
X186533333Y-92262295D02*
X186457142Y-92262295D01*
X186457142Y-92262295D02*
X186342856Y-92224200D01*
X186342856Y-92224200D02*
X186266666Y-92148009D01*
X186266666Y-92148009D02*
X186228571Y-92071819D01*
X186228571Y-92071819D02*
X186190475Y-91919438D01*
X186190475Y-91919438D02*
X186190475Y-91805152D01*
X186190475Y-91805152D02*
X186228571Y-91652771D01*
X186228571Y-91652771D02*
X186266666Y-91576580D01*
X186266666Y-91576580D02*
X186342856Y-91500390D01*
X186342856Y-91500390D02*
X186457142Y-91462295D01*
X186457142Y-91462295D02*
X186533333Y-91462295D01*
X186533333Y-91462295D02*
X186647618Y-91500390D01*
X186647618Y-91500390D02*
X186685714Y-91538485D01*
X187371428Y-91728961D02*
X187371428Y-92262295D01*
X187180952Y-91424200D02*
X186990475Y-91995628D01*
X186990475Y-91995628D02*
X187485714Y-91995628D01*
X187904761Y-91805152D02*
X187828571Y-91767057D01*
X187828571Y-91767057D02*
X187790476Y-91728961D01*
X187790476Y-91728961D02*
X187752380Y-91652771D01*
X187752380Y-91652771D02*
X187752380Y-91614676D01*
X187752380Y-91614676D02*
X187790476Y-91538485D01*
X187790476Y-91538485D02*
X187828571Y-91500390D01*
X187828571Y-91500390D02*
X187904761Y-91462295D01*
X187904761Y-91462295D02*
X188057142Y-91462295D01*
X188057142Y-91462295D02*
X188133333Y-91500390D01*
X188133333Y-91500390D02*
X188171428Y-91538485D01*
X188171428Y-91538485D02*
X188209523Y-91614676D01*
X188209523Y-91614676D02*
X188209523Y-91652771D01*
X188209523Y-91652771D02*
X188171428Y-91728961D01*
X188171428Y-91728961D02*
X188133333Y-91767057D01*
X188133333Y-91767057D02*
X188057142Y-91805152D01*
X188057142Y-91805152D02*
X187904761Y-91805152D01*
X187904761Y-91805152D02*
X187828571Y-91843247D01*
X187828571Y-91843247D02*
X187790476Y-91881342D01*
X187790476Y-91881342D02*
X187752380Y-91957533D01*
X187752380Y-91957533D02*
X187752380Y-92109914D01*
X187752380Y-92109914D02*
X187790476Y-92186104D01*
X187790476Y-92186104D02*
X187828571Y-92224200D01*
X187828571Y-92224200D02*
X187904761Y-92262295D01*
X187904761Y-92262295D02*
X188057142Y-92262295D01*
X188057142Y-92262295D02*
X188133333Y-92224200D01*
X188133333Y-92224200D02*
X188171428Y-92186104D01*
X188171428Y-92186104D02*
X188209523Y-92109914D01*
X188209523Y-92109914D02*
X188209523Y-91957533D01*
X188209523Y-91957533D02*
X188171428Y-91881342D01*
X188171428Y-91881342D02*
X188133333Y-91843247D01*
X188133333Y-91843247D02*
X188057142Y-91805152D01*
X116572142Y-94964819D02*
X116238809Y-94488628D01*
X116000714Y-94964819D02*
X116000714Y-93964819D01*
X116000714Y-93964819D02*
X116381666Y-93964819D01*
X116381666Y-93964819D02*
X116476904Y-94012438D01*
X116476904Y-94012438D02*
X116524523Y-94060057D01*
X116524523Y-94060057D02*
X116572142Y-94155295D01*
X116572142Y-94155295D02*
X116572142Y-94298152D01*
X116572142Y-94298152D02*
X116524523Y-94393390D01*
X116524523Y-94393390D02*
X116476904Y-94441009D01*
X116476904Y-94441009D02*
X116381666Y-94488628D01*
X116381666Y-94488628D02*
X116000714Y-94488628D01*
X117524523Y-94964819D02*
X116953095Y-94964819D01*
X117238809Y-94964819D02*
X117238809Y-93964819D01*
X117238809Y-93964819D02*
X117143571Y-94107676D01*
X117143571Y-94107676D02*
X117048333Y-94202914D01*
X117048333Y-94202914D02*
X116953095Y-94250533D01*
X118095952Y-94393390D02*
X118000714Y-94345771D01*
X118000714Y-94345771D02*
X117953095Y-94298152D01*
X117953095Y-94298152D02*
X117905476Y-94202914D01*
X117905476Y-94202914D02*
X117905476Y-94155295D01*
X117905476Y-94155295D02*
X117953095Y-94060057D01*
X117953095Y-94060057D02*
X118000714Y-94012438D01*
X118000714Y-94012438D02*
X118095952Y-93964819D01*
X118095952Y-93964819D02*
X118286428Y-93964819D01*
X118286428Y-93964819D02*
X118381666Y-94012438D01*
X118381666Y-94012438D02*
X118429285Y-94060057D01*
X118429285Y-94060057D02*
X118476904Y-94155295D01*
X118476904Y-94155295D02*
X118476904Y-94202914D01*
X118476904Y-94202914D02*
X118429285Y-94298152D01*
X118429285Y-94298152D02*
X118381666Y-94345771D01*
X118381666Y-94345771D02*
X118286428Y-94393390D01*
X118286428Y-94393390D02*
X118095952Y-94393390D01*
X118095952Y-94393390D02*
X118000714Y-94441009D01*
X118000714Y-94441009D02*
X117953095Y-94488628D01*
X117953095Y-94488628D02*
X117905476Y-94583866D01*
X117905476Y-94583866D02*
X117905476Y-94774342D01*
X117905476Y-94774342D02*
X117953095Y-94869580D01*
X117953095Y-94869580D02*
X118000714Y-94917200D01*
X118000714Y-94917200D02*
X118095952Y-94964819D01*
X118095952Y-94964819D02*
X118286428Y-94964819D01*
X118286428Y-94964819D02*
X118381666Y-94917200D01*
X118381666Y-94917200D02*
X118429285Y-94869580D01*
X118429285Y-94869580D02*
X118476904Y-94774342D01*
X118476904Y-94774342D02*
X118476904Y-94583866D01*
X118476904Y-94583866D02*
X118429285Y-94488628D01*
X118429285Y-94488628D02*
X118381666Y-94441009D01*
X118381666Y-94441009D02*
X118286428Y-94393390D01*
X117590476Y-89312295D02*
X118047619Y-89312295D01*
X117819047Y-90112295D02*
X117819047Y-89312295D01*
X118314286Y-90112295D02*
X118314286Y-89312295D01*
X118314286Y-89312295D02*
X118619048Y-89312295D01*
X118619048Y-89312295D02*
X118695238Y-89350390D01*
X118695238Y-89350390D02*
X118733333Y-89388485D01*
X118733333Y-89388485D02*
X118771429Y-89464676D01*
X118771429Y-89464676D02*
X118771429Y-89578961D01*
X118771429Y-89578961D02*
X118733333Y-89655152D01*
X118733333Y-89655152D02*
X118695238Y-89693247D01*
X118695238Y-89693247D02*
X118619048Y-89731342D01*
X118619048Y-89731342D02*
X118314286Y-89731342D01*
X119533333Y-90112295D02*
X119076190Y-90112295D01*
X119304762Y-90112295D02*
X119304762Y-89312295D01*
X119304762Y-89312295D02*
X119228571Y-89426580D01*
X119228571Y-89426580D02*
X119152381Y-89502771D01*
X119152381Y-89502771D02*
X119076190Y-89540866D01*
X181786104Y-91514285D02*
X181824200Y-91552381D01*
X181824200Y-91552381D02*
X181862295Y-91666666D01*
X181862295Y-91666666D02*
X181862295Y-91742857D01*
X181862295Y-91742857D02*
X181824200Y-91857143D01*
X181824200Y-91857143D02*
X181748009Y-91933333D01*
X181748009Y-91933333D02*
X181671819Y-91971428D01*
X181671819Y-91971428D02*
X181519438Y-92009524D01*
X181519438Y-92009524D02*
X181405152Y-92009524D01*
X181405152Y-92009524D02*
X181252771Y-91971428D01*
X181252771Y-91971428D02*
X181176580Y-91933333D01*
X181176580Y-91933333D02*
X181100390Y-91857143D01*
X181100390Y-91857143D02*
X181062295Y-91742857D01*
X181062295Y-91742857D02*
X181062295Y-91666666D01*
X181062295Y-91666666D02*
X181100390Y-91552381D01*
X181100390Y-91552381D02*
X181138485Y-91514285D01*
X181328961Y-90828571D02*
X181862295Y-90828571D01*
X181024200Y-91019047D02*
X181595628Y-91209524D01*
X181595628Y-91209524D02*
X181595628Y-90714285D01*
X181062295Y-90257142D02*
X181062295Y-90180952D01*
X181062295Y-90180952D02*
X181100390Y-90104761D01*
X181100390Y-90104761D02*
X181138485Y-90066666D01*
X181138485Y-90066666D02*
X181214676Y-90028571D01*
X181214676Y-90028571D02*
X181367057Y-89990476D01*
X181367057Y-89990476D02*
X181557533Y-89990476D01*
X181557533Y-89990476D02*
X181709914Y-90028571D01*
X181709914Y-90028571D02*
X181786104Y-90066666D01*
X181786104Y-90066666D02*
X181824200Y-90104761D01*
X181824200Y-90104761D02*
X181862295Y-90180952D01*
X181862295Y-90180952D02*
X181862295Y-90257142D01*
X181862295Y-90257142D02*
X181824200Y-90333333D01*
X181824200Y-90333333D02*
X181786104Y-90371428D01*
X181786104Y-90371428D02*
X181709914Y-90409523D01*
X181709914Y-90409523D02*
X181557533Y-90447619D01*
X181557533Y-90447619D02*
X181367057Y-90447619D01*
X181367057Y-90447619D02*
X181214676Y-90409523D01*
X181214676Y-90409523D02*
X181138485Y-90371428D01*
X181138485Y-90371428D02*
X181100390Y-90333333D01*
X181100390Y-90333333D02*
X181062295Y-90257142D01*
X135185714Y-93786104D02*
X135147618Y-93824200D01*
X135147618Y-93824200D02*
X135033333Y-93862295D01*
X135033333Y-93862295D02*
X134957142Y-93862295D01*
X134957142Y-93862295D02*
X134842856Y-93824200D01*
X134842856Y-93824200D02*
X134766666Y-93748009D01*
X134766666Y-93748009D02*
X134728571Y-93671819D01*
X134728571Y-93671819D02*
X134690475Y-93519438D01*
X134690475Y-93519438D02*
X134690475Y-93405152D01*
X134690475Y-93405152D02*
X134728571Y-93252771D01*
X134728571Y-93252771D02*
X134766666Y-93176580D01*
X134766666Y-93176580D02*
X134842856Y-93100390D01*
X134842856Y-93100390D02*
X134957142Y-93062295D01*
X134957142Y-93062295D02*
X135033333Y-93062295D01*
X135033333Y-93062295D02*
X135147618Y-93100390D01*
X135147618Y-93100390D02*
X135185714Y-93138485D01*
X135947618Y-93862295D02*
X135490475Y-93862295D01*
X135719047Y-93862295D02*
X135719047Y-93062295D01*
X135719047Y-93062295D02*
X135642856Y-93176580D01*
X135642856Y-93176580D02*
X135566666Y-93252771D01*
X135566666Y-93252771D02*
X135490475Y-93290866D01*
X136633333Y-93328961D02*
X136633333Y-93862295D01*
X136442857Y-93024200D02*
X136252380Y-93595628D01*
X136252380Y-93595628D02*
X136747619Y-93595628D01*
X182890476Y-86362295D02*
X182890476Y-85562295D01*
X182890476Y-85943247D02*
X183347619Y-85943247D01*
X183347619Y-86362295D02*
X183347619Y-85562295D01*
X183652380Y-85562295D02*
X184147618Y-85562295D01*
X184147618Y-85562295D02*
X183880952Y-85867057D01*
X183880952Y-85867057D02*
X183995237Y-85867057D01*
X183995237Y-85867057D02*
X184071428Y-85905152D01*
X184071428Y-85905152D02*
X184109523Y-85943247D01*
X184109523Y-85943247D02*
X184147618Y-86019438D01*
X184147618Y-86019438D02*
X184147618Y-86209914D01*
X184147618Y-86209914D02*
X184109523Y-86286104D01*
X184109523Y-86286104D02*
X184071428Y-86324200D01*
X184071428Y-86324200D02*
X183995237Y-86362295D01*
X183995237Y-86362295D02*
X183766666Y-86362295D01*
X183766666Y-86362295D02*
X183690475Y-86324200D01*
X183690475Y-86324200D02*
X183652380Y-86286104D01*
X155909524Y-86562295D02*
X155909524Y-85762295D01*
X155909524Y-85762295D02*
X156100000Y-85762295D01*
X156100000Y-85762295D02*
X156214286Y-85800390D01*
X156214286Y-85800390D02*
X156290476Y-85876580D01*
X156290476Y-85876580D02*
X156328571Y-85952771D01*
X156328571Y-85952771D02*
X156366667Y-86105152D01*
X156366667Y-86105152D02*
X156366667Y-86219438D01*
X156366667Y-86219438D02*
X156328571Y-86371819D01*
X156328571Y-86371819D02*
X156290476Y-86448009D01*
X156290476Y-86448009D02*
X156214286Y-86524200D01*
X156214286Y-86524200D02*
X156100000Y-86562295D01*
X156100000Y-86562295D02*
X155909524Y-86562295D01*
X157128571Y-86562295D02*
X156671428Y-86562295D01*
X156900000Y-86562295D02*
X156900000Y-85762295D01*
X156900000Y-85762295D02*
X156823809Y-85876580D01*
X156823809Y-85876580D02*
X156747619Y-85952771D01*
X156747619Y-85952771D02*
X156671428Y-85990866D01*
X167386104Y-91014285D02*
X167424200Y-91052381D01*
X167424200Y-91052381D02*
X167462295Y-91166666D01*
X167462295Y-91166666D02*
X167462295Y-91242857D01*
X167462295Y-91242857D02*
X167424200Y-91357143D01*
X167424200Y-91357143D02*
X167348009Y-91433333D01*
X167348009Y-91433333D02*
X167271819Y-91471428D01*
X167271819Y-91471428D02*
X167119438Y-91509524D01*
X167119438Y-91509524D02*
X167005152Y-91509524D01*
X167005152Y-91509524D02*
X166852771Y-91471428D01*
X166852771Y-91471428D02*
X166776580Y-91433333D01*
X166776580Y-91433333D02*
X166700390Y-91357143D01*
X166700390Y-91357143D02*
X166662295Y-91242857D01*
X166662295Y-91242857D02*
X166662295Y-91166666D01*
X166662295Y-91166666D02*
X166700390Y-91052381D01*
X166700390Y-91052381D02*
X166738485Y-91014285D01*
X166662295Y-90747619D02*
X166662295Y-90252381D01*
X166662295Y-90252381D02*
X166967057Y-90519047D01*
X166967057Y-90519047D02*
X166967057Y-90404762D01*
X166967057Y-90404762D02*
X167005152Y-90328571D01*
X167005152Y-90328571D02*
X167043247Y-90290476D01*
X167043247Y-90290476D02*
X167119438Y-90252381D01*
X167119438Y-90252381D02*
X167309914Y-90252381D01*
X167309914Y-90252381D02*
X167386104Y-90290476D01*
X167386104Y-90290476D02*
X167424200Y-90328571D01*
X167424200Y-90328571D02*
X167462295Y-90404762D01*
X167462295Y-90404762D02*
X167462295Y-90633333D01*
X167462295Y-90633333D02*
X167424200Y-90709524D01*
X167424200Y-90709524D02*
X167386104Y-90747619D01*
X166662295Y-89985714D02*
X166662295Y-89490476D01*
X166662295Y-89490476D02*
X166967057Y-89757142D01*
X166967057Y-89757142D02*
X166967057Y-89642857D01*
X166967057Y-89642857D02*
X167005152Y-89566666D01*
X167005152Y-89566666D02*
X167043247Y-89528571D01*
X167043247Y-89528571D02*
X167119438Y-89490476D01*
X167119438Y-89490476D02*
X167309914Y-89490476D01*
X167309914Y-89490476D02*
X167386104Y-89528571D01*
X167386104Y-89528571D02*
X167424200Y-89566666D01*
X167424200Y-89566666D02*
X167462295Y-89642857D01*
X167462295Y-89642857D02*
X167462295Y-89871428D01*
X167462295Y-89871428D02*
X167424200Y-89947619D01*
X167424200Y-89947619D02*
X167386104Y-89985714D01*
X173461905Y-113454819D02*
X174033333Y-113454819D01*
X173747619Y-114454819D02*
X173747619Y-113454819D01*
X174366667Y-114454819D02*
X174366667Y-113454819D01*
X174366667Y-113454819D02*
X174747619Y-113454819D01*
X174747619Y-113454819D02*
X174842857Y-113502438D01*
X174842857Y-113502438D02*
X174890476Y-113550057D01*
X174890476Y-113550057D02*
X174938095Y-113645295D01*
X174938095Y-113645295D02*
X174938095Y-113788152D01*
X174938095Y-113788152D02*
X174890476Y-113883390D01*
X174890476Y-113883390D02*
X174842857Y-113931009D01*
X174842857Y-113931009D02*
X174747619Y-113978628D01*
X174747619Y-113978628D02*
X174366667Y-113978628D01*
X175890476Y-114454819D02*
X175319048Y-114454819D01*
X175604762Y-114454819D02*
X175604762Y-113454819D01*
X175604762Y-113454819D02*
X175509524Y-113597676D01*
X175509524Y-113597676D02*
X175414286Y-113692914D01*
X175414286Y-113692914D02*
X175319048Y-113740533D01*
X176747619Y-113454819D02*
X176557143Y-113454819D01*
X176557143Y-113454819D02*
X176461905Y-113502438D01*
X176461905Y-113502438D02*
X176414286Y-113550057D01*
X176414286Y-113550057D02*
X176319048Y-113692914D01*
X176319048Y-113692914D02*
X176271429Y-113883390D01*
X176271429Y-113883390D02*
X176271429Y-114264342D01*
X176271429Y-114264342D02*
X176319048Y-114359580D01*
X176319048Y-114359580D02*
X176366667Y-114407200D01*
X176366667Y-114407200D02*
X176461905Y-114454819D01*
X176461905Y-114454819D02*
X176652381Y-114454819D01*
X176652381Y-114454819D02*
X176747619Y-114407200D01*
X176747619Y-114407200D02*
X176795238Y-114359580D01*
X176795238Y-114359580D02*
X176842857Y-114264342D01*
X176842857Y-114264342D02*
X176842857Y-114026247D01*
X176842857Y-114026247D02*
X176795238Y-113931009D01*
X176795238Y-113931009D02*
X176747619Y-113883390D01*
X176747619Y-113883390D02*
X176652381Y-113835771D01*
X176652381Y-113835771D02*
X176461905Y-113835771D01*
X176461905Y-113835771D02*
X176366667Y-113883390D01*
X176366667Y-113883390D02*
X176319048Y-113931009D01*
X176319048Y-113931009D02*
X176271429Y-114026247D01*
X155686104Y-114114285D02*
X155724200Y-114152381D01*
X155724200Y-114152381D02*
X155762295Y-114266666D01*
X155762295Y-114266666D02*
X155762295Y-114342857D01*
X155762295Y-114342857D02*
X155724200Y-114457143D01*
X155724200Y-114457143D02*
X155648009Y-114533333D01*
X155648009Y-114533333D02*
X155571819Y-114571428D01*
X155571819Y-114571428D02*
X155419438Y-114609524D01*
X155419438Y-114609524D02*
X155305152Y-114609524D01*
X155305152Y-114609524D02*
X155152771Y-114571428D01*
X155152771Y-114571428D02*
X155076580Y-114533333D01*
X155076580Y-114533333D02*
X155000390Y-114457143D01*
X155000390Y-114457143D02*
X154962295Y-114342857D01*
X154962295Y-114342857D02*
X154962295Y-114266666D01*
X154962295Y-114266666D02*
X155000390Y-114152381D01*
X155000390Y-114152381D02*
X155038485Y-114114285D01*
X155038485Y-113809524D02*
X155000390Y-113771428D01*
X155000390Y-113771428D02*
X154962295Y-113695238D01*
X154962295Y-113695238D02*
X154962295Y-113504762D01*
X154962295Y-113504762D02*
X155000390Y-113428571D01*
X155000390Y-113428571D02*
X155038485Y-113390476D01*
X155038485Y-113390476D02*
X155114676Y-113352381D01*
X155114676Y-113352381D02*
X155190866Y-113352381D01*
X155190866Y-113352381D02*
X155305152Y-113390476D01*
X155305152Y-113390476D02*
X155762295Y-113847619D01*
X155762295Y-113847619D02*
X155762295Y-113352381D01*
X154962295Y-112666666D02*
X154962295Y-112819047D01*
X154962295Y-112819047D02*
X155000390Y-112895238D01*
X155000390Y-112895238D02*
X155038485Y-112933333D01*
X155038485Y-112933333D02*
X155152771Y-113009523D01*
X155152771Y-113009523D02*
X155305152Y-113047619D01*
X155305152Y-113047619D02*
X155609914Y-113047619D01*
X155609914Y-113047619D02*
X155686104Y-113009523D01*
X155686104Y-113009523D02*
X155724200Y-112971428D01*
X155724200Y-112971428D02*
X155762295Y-112895238D01*
X155762295Y-112895238D02*
X155762295Y-112742857D01*
X155762295Y-112742857D02*
X155724200Y-112666666D01*
X155724200Y-112666666D02*
X155686104Y-112628571D01*
X155686104Y-112628571D02*
X155609914Y-112590476D01*
X155609914Y-112590476D02*
X155419438Y-112590476D01*
X155419438Y-112590476D02*
X155343247Y-112628571D01*
X155343247Y-112628571D02*
X155305152Y-112666666D01*
X155305152Y-112666666D02*
X155267057Y-112742857D01*
X155267057Y-112742857D02*
X155267057Y-112895238D01*
X155267057Y-112895238D02*
X155305152Y-112971428D01*
X155305152Y-112971428D02*
X155343247Y-113009523D01*
X155343247Y-113009523D02*
X155419438Y-113047619D01*
X125666667Y-112886104D02*
X125628571Y-112924200D01*
X125628571Y-112924200D02*
X125514286Y-112962295D01*
X125514286Y-112962295D02*
X125438095Y-112962295D01*
X125438095Y-112962295D02*
X125323809Y-112924200D01*
X125323809Y-112924200D02*
X125247619Y-112848009D01*
X125247619Y-112848009D02*
X125209524Y-112771819D01*
X125209524Y-112771819D02*
X125171428Y-112619438D01*
X125171428Y-112619438D02*
X125171428Y-112505152D01*
X125171428Y-112505152D02*
X125209524Y-112352771D01*
X125209524Y-112352771D02*
X125247619Y-112276580D01*
X125247619Y-112276580D02*
X125323809Y-112200390D01*
X125323809Y-112200390D02*
X125438095Y-112162295D01*
X125438095Y-112162295D02*
X125514286Y-112162295D01*
X125514286Y-112162295D02*
X125628571Y-112200390D01*
X125628571Y-112200390D02*
X125666667Y-112238485D01*
X126352381Y-112162295D02*
X126200000Y-112162295D01*
X126200000Y-112162295D02*
X126123809Y-112200390D01*
X126123809Y-112200390D02*
X126085714Y-112238485D01*
X126085714Y-112238485D02*
X126009524Y-112352771D01*
X126009524Y-112352771D02*
X125971428Y-112505152D01*
X125971428Y-112505152D02*
X125971428Y-112809914D01*
X125971428Y-112809914D02*
X126009524Y-112886104D01*
X126009524Y-112886104D02*
X126047619Y-112924200D01*
X126047619Y-112924200D02*
X126123809Y-112962295D01*
X126123809Y-112962295D02*
X126276190Y-112962295D01*
X126276190Y-112962295D02*
X126352381Y-112924200D01*
X126352381Y-112924200D02*
X126390476Y-112886104D01*
X126390476Y-112886104D02*
X126428571Y-112809914D01*
X126428571Y-112809914D02*
X126428571Y-112619438D01*
X126428571Y-112619438D02*
X126390476Y-112543247D01*
X126390476Y-112543247D02*
X126352381Y-112505152D01*
X126352381Y-112505152D02*
X126276190Y-112467057D01*
X126276190Y-112467057D02*
X126123809Y-112467057D01*
X126123809Y-112467057D02*
X126047619Y-112505152D01*
X126047619Y-112505152D02*
X126009524Y-112543247D01*
X126009524Y-112543247D02*
X125971428Y-112619438D01*
X128866667Y-109386104D02*
X128828571Y-109424200D01*
X128828571Y-109424200D02*
X128714286Y-109462295D01*
X128714286Y-109462295D02*
X128638095Y-109462295D01*
X128638095Y-109462295D02*
X128523809Y-109424200D01*
X128523809Y-109424200D02*
X128447619Y-109348009D01*
X128447619Y-109348009D02*
X128409524Y-109271819D01*
X128409524Y-109271819D02*
X128371428Y-109119438D01*
X128371428Y-109119438D02*
X128371428Y-109005152D01*
X128371428Y-109005152D02*
X128409524Y-108852771D01*
X128409524Y-108852771D02*
X128447619Y-108776580D01*
X128447619Y-108776580D02*
X128523809Y-108700390D01*
X128523809Y-108700390D02*
X128638095Y-108662295D01*
X128638095Y-108662295D02*
X128714286Y-108662295D01*
X128714286Y-108662295D02*
X128828571Y-108700390D01*
X128828571Y-108700390D02*
X128866667Y-108738485D01*
X129133333Y-108662295D02*
X129666667Y-108662295D01*
X129666667Y-108662295D02*
X129323809Y-109462295D01*
X147795180Y-101238095D02*
X146985657Y-101238095D01*
X146985657Y-101238095D02*
X146890419Y-101285714D01*
X146890419Y-101285714D02*
X146842800Y-101333333D01*
X146842800Y-101333333D02*
X146795180Y-101428571D01*
X146795180Y-101428571D02*
X146795180Y-101619047D01*
X146795180Y-101619047D02*
X146842800Y-101714285D01*
X146842800Y-101714285D02*
X146890419Y-101761904D01*
X146890419Y-101761904D02*
X146985657Y-101809523D01*
X146985657Y-101809523D02*
X147795180Y-101809523D01*
X147795180Y-102190476D02*
X147795180Y-102857142D01*
X147795180Y-102857142D02*
X146795180Y-102428571D01*
X185183332Y-111069200D02*
X185297618Y-111107295D01*
X185297618Y-111107295D02*
X185488094Y-111107295D01*
X185488094Y-111107295D02*
X185564285Y-111069200D01*
X185564285Y-111069200D02*
X185602380Y-111031104D01*
X185602380Y-111031104D02*
X185640475Y-110954914D01*
X185640475Y-110954914D02*
X185640475Y-110878723D01*
X185640475Y-110878723D02*
X185602380Y-110802533D01*
X185602380Y-110802533D02*
X185564285Y-110764438D01*
X185564285Y-110764438D02*
X185488094Y-110726342D01*
X185488094Y-110726342D02*
X185335713Y-110688247D01*
X185335713Y-110688247D02*
X185259523Y-110650152D01*
X185259523Y-110650152D02*
X185221428Y-110612057D01*
X185221428Y-110612057D02*
X185183332Y-110535866D01*
X185183332Y-110535866D02*
X185183332Y-110459676D01*
X185183332Y-110459676D02*
X185221428Y-110383485D01*
X185221428Y-110383485D02*
X185259523Y-110345390D01*
X185259523Y-110345390D02*
X185335713Y-110307295D01*
X185335713Y-110307295D02*
X185526190Y-110307295D01*
X185526190Y-110307295D02*
X185640475Y-110345390D01*
X185907142Y-110307295D02*
X186097618Y-111107295D01*
X186097618Y-111107295D02*
X186249999Y-110535866D01*
X186249999Y-110535866D02*
X186402380Y-111107295D01*
X186402380Y-111107295D02*
X186592857Y-110307295D01*
X187316666Y-111107295D02*
X186859523Y-111107295D01*
X187088095Y-111107295D02*
X187088095Y-110307295D01*
X187088095Y-110307295D02*
X187011904Y-110421580D01*
X187011904Y-110421580D02*
X186935714Y-110497771D01*
X186935714Y-110497771D02*
X186859523Y-110535866D01*
X184235714Y-92262295D02*
X183969047Y-91881342D01*
X183778571Y-92262295D02*
X183778571Y-91462295D01*
X183778571Y-91462295D02*
X184083333Y-91462295D01*
X184083333Y-91462295D02*
X184159523Y-91500390D01*
X184159523Y-91500390D02*
X184197618Y-91538485D01*
X184197618Y-91538485D02*
X184235714Y-91614676D01*
X184235714Y-91614676D02*
X184235714Y-91728961D01*
X184235714Y-91728961D02*
X184197618Y-91805152D01*
X184197618Y-91805152D02*
X184159523Y-91843247D01*
X184159523Y-91843247D02*
X184083333Y-91881342D01*
X184083333Y-91881342D02*
X183778571Y-91881342D01*
X184540475Y-91538485D02*
X184578571Y-91500390D01*
X184578571Y-91500390D02*
X184654761Y-91462295D01*
X184654761Y-91462295D02*
X184845237Y-91462295D01*
X184845237Y-91462295D02*
X184921428Y-91500390D01*
X184921428Y-91500390D02*
X184959523Y-91538485D01*
X184959523Y-91538485D02*
X184997618Y-91614676D01*
X184997618Y-91614676D02*
X184997618Y-91690866D01*
X184997618Y-91690866D02*
X184959523Y-91805152D01*
X184959523Y-91805152D02*
X184502380Y-92262295D01*
X184502380Y-92262295D02*
X184997618Y-92262295D01*
X185721428Y-91462295D02*
X185340476Y-91462295D01*
X185340476Y-91462295D02*
X185302380Y-91843247D01*
X185302380Y-91843247D02*
X185340476Y-91805152D01*
X185340476Y-91805152D02*
X185416666Y-91767057D01*
X185416666Y-91767057D02*
X185607142Y-91767057D01*
X185607142Y-91767057D02*
X185683333Y-91805152D01*
X185683333Y-91805152D02*
X185721428Y-91843247D01*
X185721428Y-91843247D02*
X185759523Y-91919438D01*
X185759523Y-91919438D02*
X185759523Y-92109914D01*
X185759523Y-92109914D02*
X185721428Y-92186104D01*
X185721428Y-92186104D02*
X185683333Y-92224200D01*
X185683333Y-92224200D02*
X185607142Y-92262295D01*
X185607142Y-92262295D02*
X185416666Y-92262295D01*
X185416666Y-92262295D02*
X185340476Y-92224200D01*
X185340476Y-92224200D02*
X185302380Y-92186104D01*
X138838095Y-85854819D02*
X139409523Y-85854819D01*
X139123809Y-86854819D02*
X139123809Y-85854819D01*
X139742857Y-86854819D02*
X139742857Y-85854819D01*
X139742857Y-85854819D02*
X140123809Y-85854819D01*
X140123809Y-85854819D02*
X140219047Y-85902438D01*
X140219047Y-85902438D02*
X140266666Y-85950057D01*
X140266666Y-85950057D02*
X140314285Y-86045295D01*
X140314285Y-86045295D02*
X140314285Y-86188152D01*
X140314285Y-86188152D02*
X140266666Y-86283390D01*
X140266666Y-86283390D02*
X140219047Y-86331009D01*
X140219047Y-86331009D02*
X140123809Y-86378628D01*
X140123809Y-86378628D02*
X139742857Y-86378628D01*
X140647619Y-85854819D02*
X141314285Y-85854819D01*
X141314285Y-85854819D02*
X140885714Y-86854819D01*
X161983333Y-113792295D02*
X161983333Y-114363723D01*
X161983333Y-114363723D02*
X161945238Y-114478009D01*
X161945238Y-114478009D02*
X161869047Y-114554200D01*
X161869047Y-114554200D02*
X161754762Y-114592295D01*
X161754762Y-114592295D02*
X161678571Y-114592295D01*
X162326190Y-113868485D02*
X162364286Y-113830390D01*
X162364286Y-113830390D02*
X162440476Y-113792295D01*
X162440476Y-113792295D02*
X162630952Y-113792295D01*
X162630952Y-113792295D02*
X162707143Y-113830390D01*
X162707143Y-113830390D02*
X162745238Y-113868485D01*
X162745238Y-113868485D02*
X162783333Y-113944676D01*
X162783333Y-113944676D02*
X162783333Y-114020866D01*
X162783333Y-114020866D02*
X162745238Y-114135152D01*
X162745238Y-114135152D02*
X162288095Y-114592295D01*
X162288095Y-114592295D02*
X162783333Y-114592295D01*
X163685714Y-99086104D02*
X163647618Y-99124200D01*
X163647618Y-99124200D02*
X163533333Y-99162295D01*
X163533333Y-99162295D02*
X163457142Y-99162295D01*
X163457142Y-99162295D02*
X163342856Y-99124200D01*
X163342856Y-99124200D02*
X163266666Y-99048009D01*
X163266666Y-99048009D02*
X163228571Y-98971819D01*
X163228571Y-98971819D02*
X163190475Y-98819438D01*
X163190475Y-98819438D02*
X163190475Y-98705152D01*
X163190475Y-98705152D02*
X163228571Y-98552771D01*
X163228571Y-98552771D02*
X163266666Y-98476580D01*
X163266666Y-98476580D02*
X163342856Y-98400390D01*
X163342856Y-98400390D02*
X163457142Y-98362295D01*
X163457142Y-98362295D02*
X163533333Y-98362295D01*
X163533333Y-98362295D02*
X163647618Y-98400390D01*
X163647618Y-98400390D02*
X163685714Y-98438485D01*
X163952380Y-98362295D02*
X164447618Y-98362295D01*
X164447618Y-98362295D02*
X164180952Y-98667057D01*
X164180952Y-98667057D02*
X164295237Y-98667057D01*
X164295237Y-98667057D02*
X164371428Y-98705152D01*
X164371428Y-98705152D02*
X164409523Y-98743247D01*
X164409523Y-98743247D02*
X164447618Y-98819438D01*
X164447618Y-98819438D02*
X164447618Y-99009914D01*
X164447618Y-99009914D02*
X164409523Y-99086104D01*
X164409523Y-99086104D02*
X164371428Y-99124200D01*
X164371428Y-99124200D02*
X164295237Y-99162295D01*
X164295237Y-99162295D02*
X164066666Y-99162295D01*
X164066666Y-99162295D02*
X163990475Y-99124200D01*
X163990475Y-99124200D02*
X163952380Y-99086104D01*
X165171428Y-98362295D02*
X164790476Y-98362295D01*
X164790476Y-98362295D02*
X164752380Y-98743247D01*
X164752380Y-98743247D02*
X164790476Y-98705152D01*
X164790476Y-98705152D02*
X164866666Y-98667057D01*
X164866666Y-98667057D02*
X165057142Y-98667057D01*
X165057142Y-98667057D02*
X165133333Y-98705152D01*
X165133333Y-98705152D02*
X165171428Y-98743247D01*
X165171428Y-98743247D02*
X165209523Y-98819438D01*
X165209523Y-98819438D02*
X165209523Y-99009914D01*
X165209523Y-99009914D02*
X165171428Y-99086104D01*
X165171428Y-99086104D02*
X165133333Y-99124200D01*
X165133333Y-99124200D02*
X165057142Y-99162295D01*
X165057142Y-99162295D02*
X164866666Y-99162295D01*
X164866666Y-99162295D02*
X164790476Y-99124200D01*
X164790476Y-99124200D02*
X164752380Y-99086104D01*
X111990476Y-113862295D02*
X111990476Y-113062295D01*
X111990476Y-113443247D02*
X112447619Y-113443247D01*
X112447619Y-113862295D02*
X112447619Y-113062295D01*
X112790475Y-113138485D02*
X112828571Y-113100390D01*
X112828571Y-113100390D02*
X112904761Y-113062295D01*
X112904761Y-113062295D02*
X113095237Y-113062295D01*
X113095237Y-113062295D02*
X113171428Y-113100390D01*
X113171428Y-113100390D02*
X113209523Y-113138485D01*
X113209523Y-113138485D02*
X113247618Y-113214676D01*
X113247618Y-113214676D02*
X113247618Y-113290866D01*
X113247618Y-113290866D02*
X113209523Y-113405152D01*
X113209523Y-113405152D02*
X112752380Y-113862295D01*
X112752380Y-113862295D02*
X113247618Y-113862295D01*
X119441667Y-94242295D02*
X119175000Y-93861342D01*
X118984524Y-94242295D02*
X118984524Y-93442295D01*
X118984524Y-93442295D02*
X119289286Y-93442295D01*
X119289286Y-93442295D02*
X119365476Y-93480390D01*
X119365476Y-93480390D02*
X119403571Y-93518485D01*
X119403571Y-93518485D02*
X119441667Y-93594676D01*
X119441667Y-93594676D02*
X119441667Y-93708961D01*
X119441667Y-93708961D02*
X119403571Y-93785152D01*
X119403571Y-93785152D02*
X119365476Y-93823247D01*
X119365476Y-93823247D02*
X119289286Y-93861342D01*
X119289286Y-93861342D02*
X118984524Y-93861342D01*
X120165476Y-93442295D02*
X119784524Y-93442295D01*
X119784524Y-93442295D02*
X119746428Y-93823247D01*
X119746428Y-93823247D02*
X119784524Y-93785152D01*
X119784524Y-93785152D02*
X119860714Y-93747057D01*
X119860714Y-93747057D02*
X120051190Y-93747057D01*
X120051190Y-93747057D02*
X120127381Y-93785152D01*
X120127381Y-93785152D02*
X120165476Y-93823247D01*
X120165476Y-93823247D02*
X120203571Y-93899438D01*
X120203571Y-93899438D02*
X120203571Y-94089914D01*
X120203571Y-94089914D02*
X120165476Y-94166104D01*
X120165476Y-94166104D02*
X120127381Y-94204200D01*
X120127381Y-94204200D02*
X120051190Y-94242295D01*
X120051190Y-94242295D02*
X119860714Y-94242295D01*
X119860714Y-94242295D02*
X119784524Y-94204200D01*
X119784524Y-94204200D02*
X119746428Y-94166104D01*
X182485714Y-90086104D02*
X182447618Y-90124200D01*
X182447618Y-90124200D02*
X182333333Y-90162295D01*
X182333333Y-90162295D02*
X182257142Y-90162295D01*
X182257142Y-90162295D02*
X182142856Y-90124200D01*
X182142856Y-90124200D02*
X182066666Y-90048009D01*
X182066666Y-90048009D02*
X182028571Y-89971819D01*
X182028571Y-89971819D02*
X181990475Y-89819438D01*
X181990475Y-89819438D02*
X181990475Y-89705152D01*
X181990475Y-89705152D02*
X182028571Y-89552771D01*
X182028571Y-89552771D02*
X182066666Y-89476580D01*
X182066666Y-89476580D02*
X182142856Y-89400390D01*
X182142856Y-89400390D02*
X182257142Y-89362295D01*
X182257142Y-89362295D02*
X182333333Y-89362295D01*
X182333333Y-89362295D02*
X182447618Y-89400390D01*
X182447618Y-89400390D02*
X182485714Y-89438485D01*
X183171428Y-89628961D02*
X183171428Y-90162295D01*
X182980952Y-89324200D02*
X182790475Y-89895628D01*
X182790475Y-89895628D02*
X183285714Y-89895628D01*
X183552380Y-89438485D02*
X183590476Y-89400390D01*
X183590476Y-89400390D02*
X183666666Y-89362295D01*
X183666666Y-89362295D02*
X183857142Y-89362295D01*
X183857142Y-89362295D02*
X183933333Y-89400390D01*
X183933333Y-89400390D02*
X183971428Y-89438485D01*
X183971428Y-89438485D02*
X184009523Y-89514676D01*
X184009523Y-89514676D02*
X184009523Y-89590866D01*
X184009523Y-89590866D02*
X183971428Y-89705152D01*
X183971428Y-89705152D02*
X183514285Y-90162295D01*
X183514285Y-90162295D02*
X184009523Y-90162295D01*
X179871428Y-118993247D02*
X179985714Y-119031342D01*
X179985714Y-119031342D02*
X180023809Y-119069438D01*
X180023809Y-119069438D02*
X180061905Y-119145628D01*
X180061905Y-119145628D02*
X180061905Y-119259914D01*
X180061905Y-119259914D02*
X180023809Y-119336104D01*
X180023809Y-119336104D02*
X179985714Y-119374200D01*
X179985714Y-119374200D02*
X179909524Y-119412295D01*
X179909524Y-119412295D02*
X179604762Y-119412295D01*
X179604762Y-119412295D02*
X179604762Y-118612295D01*
X179604762Y-118612295D02*
X179871428Y-118612295D01*
X179871428Y-118612295D02*
X179947619Y-118650390D01*
X179947619Y-118650390D02*
X179985714Y-118688485D01*
X179985714Y-118688485D02*
X180023809Y-118764676D01*
X180023809Y-118764676D02*
X180023809Y-118840866D01*
X180023809Y-118840866D02*
X179985714Y-118917057D01*
X179985714Y-118917057D02*
X179947619Y-118955152D01*
X179947619Y-118955152D02*
X179871428Y-118993247D01*
X179871428Y-118993247D02*
X179604762Y-118993247D01*
X180290476Y-118612295D02*
X180747619Y-118612295D01*
X180519047Y-119412295D02*
X180519047Y-118612295D01*
X181433333Y-119412295D02*
X180976190Y-119412295D01*
X181204762Y-119412295D02*
X181204762Y-118612295D01*
X181204762Y-118612295D02*
X181128571Y-118726580D01*
X181128571Y-118726580D02*
X181052381Y-118802771D01*
X181052381Y-118802771D02*
X180976190Y-118840866D01*
X169585714Y-85486104D02*
X169547618Y-85524200D01*
X169547618Y-85524200D02*
X169433333Y-85562295D01*
X169433333Y-85562295D02*
X169357142Y-85562295D01*
X169357142Y-85562295D02*
X169242856Y-85524200D01*
X169242856Y-85524200D02*
X169166666Y-85448009D01*
X169166666Y-85448009D02*
X169128571Y-85371819D01*
X169128571Y-85371819D02*
X169090475Y-85219438D01*
X169090475Y-85219438D02*
X169090475Y-85105152D01*
X169090475Y-85105152D02*
X169128571Y-84952771D01*
X169128571Y-84952771D02*
X169166666Y-84876580D01*
X169166666Y-84876580D02*
X169242856Y-84800390D01*
X169242856Y-84800390D02*
X169357142Y-84762295D01*
X169357142Y-84762295D02*
X169433333Y-84762295D01*
X169433333Y-84762295D02*
X169547618Y-84800390D01*
X169547618Y-84800390D02*
X169585714Y-84838485D01*
X170271428Y-85028961D02*
X170271428Y-85562295D01*
X170080952Y-84724200D02*
X169890475Y-85295628D01*
X169890475Y-85295628D02*
X170385714Y-85295628D01*
X171033333Y-84762295D02*
X170880952Y-84762295D01*
X170880952Y-84762295D02*
X170804761Y-84800390D01*
X170804761Y-84800390D02*
X170766666Y-84838485D01*
X170766666Y-84838485D02*
X170690476Y-84952771D01*
X170690476Y-84952771D02*
X170652380Y-85105152D01*
X170652380Y-85105152D02*
X170652380Y-85409914D01*
X170652380Y-85409914D02*
X170690476Y-85486104D01*
X170690476Y-85486104D02*
X170728571Y-85524200D01*
X170728571Y-85524200D02*
X170804761Y-85562295D01*
X170804761Y-85562295D02*
X170957142Y-85562295D01*
X170957142Y-85562295D02*
X171033333Y-85524200D01*
X171033333Y-85524200D02*
X171071428Y-85486104D01*
X171071428Y-85486104D02*
X171109523Y-85409914D01*
X171109523Y-85409914D02*
X171109523Y-85219438D01*
X171109523Y-85219438D02*
X171071428Y-85143247D01*
X171071428Y-85143247D02*
X171033333Y-85105152D01*
X171033333Y-85105152D02*
X170957142Y-85067057D01*
X170957142Y-85067057D02*
X170804761Y-85067057D01*
X170804761Y-85067057D02*
X170728571Y-85105152D01*
X170728571Y-85105152D02*
X170690476Y-85143247D01*
X170690476Y-85143247D02*
X170652380Y-85219438D01*
X165038095Y-91254819D02*
X165038095Y-92064342D01*
X165038095Y-92064342D02*
X165085714Y-92159580D01*
X165085714Y-92159580D02*
X165133333Y-92207200D01*
X165133333Y-92207200D02*
X165228571Y-92254819D01*
X165228571Y-92254819D02*
X165419047Y-92254819D01*
X165419047Y-92254819D02*
X165514285Y-92207200D01*
X165514285Y-92207200D02*
X165561904Y-92159580D01*
X165561904Y-92159580D02*
X165609523Y-92064342D01*
X165609523Y-92064342D02*
X165609523Y-91254819D01*
X166514285Y-91588152D02*
X166514285Y-92254819D01*
X166276190Y-91207200D02*
X166038095Y-91921485D01*
X166038095Y-91921485D02*
X166657142Y-91921485D01*
X164059580Y-94442857D02*
X164107200Y-94490476D01*
X164107200Y-94490476D02*
X164154819Y-94633333D01*
X164154819Y-94633333D02*
X164154819Y-94728571D01*
X164154819Y-94728571D02*
X164107200Y-94871428D01*
X164107200Y-94871428D02*
X164011961Y-94966666D01*
X164011961Y-94966666D02*
X163916723Y-95014285D01*
X163916723Y-95014285D02*
X163726247Y-95061904D01*
X163726247Y-95061904D02*
X163583390Y-95061904D01*
X163583390Y-95061904D02*
X163392914Y-95014285D01*
X163392914Y-95014285D02*
X163297676Y-94966666D01*
X163297676Y-94966666D02*
X163202438Y-94871428D01*
X163202438Y-94871428D02*
X163154819Y-94728571D01*
X163154819Y-94728571D02*
X163154819Y-94633333D01*
X163154819Y-94633333D02*
X163202438Y-94490476D01*
X163202438Y-94490476D02*
X163250057Y-94442857D01*
X163250057Y-94061904D02*
X163202438Y-94014285D01*
X163202438Y-94014285D02*
X163154819Y-93919047D01*
X163154819Y-93919047D02*
X163154819Y-93680952D01*
X163154819Y-93680952D02*
X163202438Y-93585714D01*
X163202438Y-93585714D02*
X163250057Y-93538095D01*
X163250057Y-93538095D02*
X163345295Y-93490476D01*
X163345295Y-93490476D02*
X163440533Y-93490476D01*
X163440533Y-93490476D02*
X163583390Y-93538095D01*
X163583390Y-93538095D02*
X164154819Y-94109523D01*
X164154819Y-94109523D02*
X164154819Y-93490476D01*
X164154819Y-92538095D02*
X164154819Y-93109523D01*
X164154819Y-92823809D02*
X163154819Y-92823809D01*
X163154819Y-92823809D02*
X163297676Y-92919047D01*
X163297676Y-92919047D02*
X163392914Y-93014285D01*
X163392914Y-93014285D02*
X163440533Y-93109523D01*
X119866667Y-100362295D02*
X119600000Y-99981342D01*
X119409524Y-100362295D02*
X119409524Y-99562295D01*
X119409524Y-99562295D02*
X119714286Y-99562295D01*
X119714286Y-99562295D02*
X119790476Y-99600390D01*
X119790476Y-99600390D02*
X119828571Y-99638485D01*
X119828571Y-99638485D02*
X119866667Y-99714676D01*
X119866667Y-99714676D02*
X119866667Y-99828961D01*
X119866667Y-99828961D02*
X119828571Y-99905152D01*
X119828571Y-99905152D02*
X119790476Y-99943247D01*
X119790476Y-99943247D02*
X119714286Y-99981342D01*
X119714286Y-99981342D02*
X119409524Y-99981342D01*
X120171428Y-99638485D02*
X120209524Y-99600390D01*
X120209524Y-99600390D02*
X120285714Y-99562295D01*
X120285714Y-99562295D02*
X120476190Y-99562295D01*
X120476190Y-99562295D02*
X120552381Y-99600390D01*
X120552381Y-99600390D02*
X120590476Y-99638485D01*
X120590476Y-99638485D02*
X120628571Y-99714676D01*
X120628571Y-99714676D02*
X120628571Y-99790866D01*
X120628571Y-99790866D02*
X120590476Y-99905152D01*
X120590476Y-99905152D02*
X120133333Y-100362295D01*
X120133333Y-100362295D02*
X120628571Y-100362295D01*
X128490476Y-99812294D02*
X128490476Y-100459913D01*
X128490476Y-100459913D02*
X128528571Y-100536103D01*
X128528571Y-100536103D02*
X128566666Y-100574199D01*
X128566666Y-100574199D02*
X128642857Y-100612294D01*
X128642857Y-100612294D02*
X128795238Y-100612294D01*
X128795238Y-100612294D02*
X128871428Y-100574199D01*
X128871428Y-100574199D02*
X128909523Y-100536103D01*
X128909523Y-100536103D02*
X128947619Y-100459913D01*
X128947619Y-100459913D02*
X128947619Y-99812294D01*
X129747618Y-100612294D02*
X129290475Y-100612294D01*
X129519047Y-100612294D02*
X129519047Y-99812294D01*
X129519047Y-99812294D02*
X129442856Y-99926579D01*
X129442856Y-99926579D02*
X129366666Y-100002770D01*
X129366666Y-100002770D02*
X129290475Y-100040865D01*
X122013400Y-95323818D02*
X122013400Y-95561913D01*
X121775305Y-95466675D02*
X122013400Y-95561913D01*
X122013400Y-95561913D02*
X122251495Y-95466675D01*
X121870543Y-95752389D02*
X122013400Y-95561913D01*
X122013400Y-95561913D02*
X122156257Y-95752389D01*
X128300000Y-98154819D02*
X128300000Y-98392914D01*
X128061905Y-98297676D02*
X128300000Y-98392914D01*
X128300000Y-98392914D02*
X128538095Y-98297676D01*
X128157143Y-98583390D02*
X128300000Y-98392914D01*
X128300000Y-98392914D02*
X128442857Y-98583390D01*
X131586104Y-112914285D02*
X131624200Y-112952381D01*
X131624200Y-112952381D02*
X131662295Y-113066666D01*
X131662295Y-113066666D02*
X131662295Y-113142857D01*
X131662295Y-113142857D02*
X131624200Y-113257143D01*
X131624200Y-113257143D02*
X131548009Y-113333333D01*
X131548009Y-113333333D02*
X131471819Y-113371428D01*
X131471819Y-113371428D02*
X131319438Y-113409524D01*
X131319438Y-113409524D02*
X131205152Y-113409524D01*
X131205152Y-113409524D02*
X131052771Y-113371428D01*
X131052771Y-113371428D02*
X130976580Y-113333333D01*
X130976580Y-113333333D02*
X130900390Y-113257143D01*
X130900390Y-113257143D02*
X130862295Y-113142857D01*
X130862295Y-113142857D02*
X130862295Y-113066666D01*
X130862295Y-113066666D02*
X130900390Y-112952381D01*
X130900390Y-112952381D02*
X130938485Y-112914285D01*
X131662295Y-112152381D02*
X131662295Y-112609524D01*
X131662295Y-112380952D02*
X130862295Y-112380952D01*
X130862295Y-112380952D02*
X130976580Y-112457143D01*
X130976580Y-112457143D02*
X131052771Y-112533333D01*
X131052771Y-112533333D02*
X131090866Y-112609524D01*
X130938485Y-111847619D02*
X130900390Y-111809523D01*
X130900390Y-111809523D02*
X130862295Y-111733333D01*
X130862295Y-111733333D02*
X130862295Y-111542857D01*
X130862295Y-111542857D02*
X130900390Y-111466666D01*
X130900390Y-111466666D02*
X130938485Y-111428571D01*
X130938485Y-111428571D02*
X131014676Y-111390476D01*
X131014676Y-111390476D02*
X131090866Y-111390476D01*
X131090866Y-111390476D02*
X131205152Y-111428571D01*
X131205152Y-111428571D02*
X131662295Y-111885714D01*
X131662295Y-111885714D02*
X131662295Y-111390476D01*
X174285714Y-100262295D02*
X174019047Y-99881342D01*
X173828571Y-100262295D02*
X173828571Y-99462295D01*
X173828571Y-99462295D02*
X174133333Y-99462295D01*
X174133333Y-99462295D02*
X174209523Y-99500390D01*
X174209523Y-99500390D02*
X174247618Y-99538485D01*
X174247618Y-99538485D02*
X174285714Y-99614676D01*
X174285714Y-99614676D02*
X174285714Y-99728961D01*
X174285714Y-99728961D02*
X174247618Y-99805152D01*
X174247618Y-99805152D02*
X174209523Y-99843247D01*
X174209523Y-99843247D02*
X174133333Y-99881342D01*
X174133333Y-99881342D02*
X173828571Y-99881342D01*
X174590475Y-99538485D02*
X174628571Y-99500390D01*
X174628571Y-99500390D02*
X174704761Y-99462295D01*
X174704761Y-99462295D02*
X174895237Y-99462295D01*
X174895237Y-99462295D02*
X174971428Y-99500390D01*
X174971428Y-99500390D02*
X175009523Y-99538485D01*
X175009523Y-99538485D02*
X175047618Y-99614676D01*
X175047618Y-99614676D02*
X175047618Y-99690866D01*
X175047618Y-99690866D02*
X175009523Y-99805152D01*
X175009523Y-99805152D02*
X174552380Y-100262295D01*
X174552380Y-100262295D02*
X175047618Y-100262295D01*
X175542857Y-99462295D02*
X175619047Y-99462295D01*
X175619047Y-99462295D02*
X175695238Y-99500390D01*
X175695238Y-99500390D02*
X175733333Y-99538485D01*
X175733333Y-99538485D02*
X175771428Y-99614676D01*
X175771428Y-99614676D02*
X175809523Y-99767057D01*
X175809523Y-99767057D02*
X175809523Y-99957533D01*
X175809523Y-99957533D02*
X175771428Y-100109914D01*
X175771428Y-100109914D02*
X175733333Y-100186104D01*
X175733333Y-100186104D02*
X175695238Y-100224200D01*
X175695238Y-100224200D02*
X175619047Y-100262295D01*
X175619047Y-100262295D02*
X175542857Y-100262295D01*
X175542857Y-100262295D02*
X175466666Y-100224200D01*
X175466666Y-100224200D02*
X175428571Y-100186104D01*
X175428571Y-100186104D02*
X175390476Y-100109914D01*
X175390476Y-100109914D02*
X175352380Y-99957533D01*
X175352380Y-99957533D02*
X175352380Y-99767057D01*
X175352380Y-99767057D02*
X175390476Y-99614676D01*
X175390476Y-99614676D02*
X175428571Y-99538485D01*
X175428571Y-99538485D02*
X175466666Y-99500390D01*
X175466666Y-99500390D02*
X175542857Y-99462295D01*
X174275714Y-99197295D02*
X174009047Y-98816342D01*
X173818571Y-99197295D02*
X173818571Y-98397295D01*
X173818571Y-98397295D02*
X174123333Y-98397295D01*
X174123333Y-98397295D02*
X174199523Y-98435390D01*
X174199523Y-98435390D02*
X174237618Y-98473485D01*
X174237618Y-98473485D02*
X174275714Y-98549676D01*
X174275714Y-98549676D02*
X174275714Y-98663961D01*
X174275714Y-98663961D02*
X174237618Y-98740152D01*
X174237618Y-98740152D02*
X174199523Y-98778247D01*
X174199523Y-98778247D02*
X174123333Y-98816342D01*
X174123333Y-98816342D02*
X173818571Y-98816342D01*
X175037618Y-99197295D02*
X174580475Y-99197295D01*
X174809047Y-99197295D02*
X174809047Y-98397295D01*
X174809047Y-98397295D02*
X174732856Y-98511580D01*
X174732856Y-98511580D02*
X174656666Y-98587771D01*
X174656666Y-98587771D02*
X174580475Y-98625866D01*
X175418571Y-99197295D02*
X175570952Y-99197295D01*
X175570952Y-99197295D02*
X175647142Y-99159200D01*
X175647142Y-99159200D02*
X175685238Y-99121104D01*
X175685238Y-99121104D02*
X175761428Y-99006819D01*
X175761428Y-99006819D02*
X175799523Y-98854438D01*
X175799523Y-98854438D02*
X175799523Y-98549676D01*
X175799523Y-98549676D02*
X175761428Y-98473485D01*
X175761428Y-98473485D02*
X175723333Y-98435390D01*
X175723333Y-98435390D02*
X175647142Y-98397295D01*
X175647142Y-98397295D02*
X175494761Y-98397295D01*
X175494761Y-98397295D02*
X175418571Y-98435390D01*
X175418571Y-98435390D02*
X175380476Y-98473485D01*
X175380476Y-98473485D02*
X175342380Y-98549676D01*
X175342380Y-98549676D02*
X175342380Y-98740152D01*
X175342380Y-98740152D02*
X175380476Y-98816342D01*
X175380476Y-98816342D02*
X175418571Y-98854438D01*
X175418571Y-98854438D02*
X175494761Y-98892533D01*
X175494761Y-98892533D02*
X175647142Y-98892533D01*
X175647142Y-98892533D02*
X175723333Y-98854438D01*
X175723333Y-98854438D02*
X175761428Y-98816342D01*
X175761428Y-98816342D02*
X175799523Y-98740152D01*
X124866667Y-108386104D02*
X124828571Y-108424200D01*
X124828571Y-108424200D02*
X124714286Y-108462295D01*
X124714286Y-108462295D02*
X124638095Y-108462295D01*
X124638095Y-108462295D02*
X124523809Y-108424200D01*
X124523809Y-108424200D02*
X124447619Y-108348009D01*
X124447619Y-108348009D02*
X124409524Y-108271819D01*
X124409524Y-108271819D02*
X124371428Y-108119438D01*
X124371428Y-108119438D02*
X124371428Y-108005152D01*
X124371428Y-108005152D02*
X124409524Y-107852771D01*
X124409524Y-107852771D02*
X124447619Y-107776580D01*
X124447619Y-107776580D02*
X124523809Y-107700390D01*
X124523809Y-107700390D02*
X124638095Y-107662295D01*
X124638095Y-107662295D02*
X124714286Y-107662295D01*
X124714286Y-107662295D02*
X124828571Y-107700390D01*
X124828571Y-107700390D02*
X124866667Y-107738485D01*
X125590476Y-107662295D02*
X125209524Y-107662295D01*
X125209524Y-107662295D02*
X125171428Y-108043247D01*
X125171428Y-108043247D02*
X125209524Y-108005152D01*
X125209524Y-108005152D02*
X125285714Y-107967057D01*
X125285714Y-107967057D02*
X125476190Y-107967057D01*
X125476190Y-107967057D02*
X125552381Y-108005152D01*
X125552381Y-108005152D02*
X125590476Y-108043247D01*
X125590476Y-108043247D02*
X125628571Y-108119438D01*
X125628571Y-108119438D02*
X125628571Y-108309914D01*
X125628571Y-108309914D02*
X125590476Y-108386104D01*
X125590476Y-108386104D02*
X125552381Y-108424200D01*
X125552381Y-108424200D02*
X125476190Y-108462295D01*
X125476190Y-108462295D02*
X125285714Y-108462295D01*
X125285714Y-108462295D02*
X125209524Y-108424200D01*
X125209524Y-108424200D02*
X125171428Y-108386104D01*
D14*
%TO.C,TP8*%
X142700000Y-91500000D02*
G75*
G02*
X141300000Y-91500000I-700000J0D01*
G01*
X141300000Y-91500000D02*
G75*
G02*
X142700000Y-91500000I700000J0D01*
G01*
%TO.C,R16*%
X172556359Y-90920000D02*
X172863641Y-90920000D01*
X172556359Y-91680000D02*
X172863641Y-91680000D01*
%TO.C,TP14*%
X145200000Y-89600000D02*
G75*
G02*
X143800000Y-89600000I-700000J0D01*
G01*
X143800000Y-89600000D02*
G75*
G02*
X145200000Y-89600000I700000J0D01*
G01*
%TO.C,TP2*%
X122100000Y-87100000D02*
X122100000Y-88900000D01*
X122100000Y-88900000D02*
X125900000Y-88900000D01*
X125900000Y-87100000D02*
X122100000Y-87100000D01*
X125900000Y-88900000D02*
X125900000Y-87100000D01*
%TO.C,C4*%
X128127836Y-91140000D02*
X127912164Y-91140000D01*
X128127836Y-91860000D02*
X127912164Y-91860000D01*
%TO.C,U5*%
X179040000Y-92290000D02*
X182260000Y-92290000D01*
X179040000Y-92490000D02*
X179040000Y-92290000D01*
X179040000Y-95510000D02*
X179040000Y-95310000D01*
X182260000Y-92290000D02*
X182260000Y-92490000D01*
X182260000Y-95310000D02*
X182260000Y-95510000D01*
X182260000Y-95510000D02*
X179040000Y-95510000D01*
X178490000Y-92490000D02*
X178250000Y-92160000D01*
X178730000Y-92160000D01*
X178490000Y-92490000D01*
G36*
X178490000Y-92490000D02*
G01*
X178250000Y-92160000D01*
X178730000Y-92160000D01*
X178490000Y-92490000D01*
G37*
%TO.C,TP6*%
X141900000Y-113500000D02*
G75*
G02*
X140500000Y-113500000I-700000J0D01*
G01*
X140500000Y-113500000D02*
G75*
G02*
X141900000Y-113500000I700000J0D01*
G01*
%TO.C,R7*%
X139956359Y-96150000D02*
X140263641Y-96150000D01*
X139956359Y-96910000D02*
X140263641Y-96910000D01*
%TO.C,R26*%
X186370000Y-95753641D02*
X186370000Y-95446359D01*
X187130000Y-95753641D02*
X187130000Y-95446359D01*
%TO.C,C13*%
X128892164Y-113140000D02*
X129107836Y-113140000D01*
X128892164Y-113860000D02*
X129107836Y-113860000D01*
%TO.C,R9*%
X139956359Y-99120000D02*
X140263641Y-99120000D01*
X139956359Y-99880000D02*
X140263641Y-99880000D01*
%TO.C,C16*%
X146020336Y-112640000D02*
X145804664Y-112640000D01*
X146020336Y-113360000D02*
X145804664Y-113360000D01*
%TO.C,TP15*%
X154200000Y-88750000D02*
G75*
G02*
X152800000Y-88750000I-700000J0D01*
G01*
X152800000Y-88750000D02*
G75*
G02*
X154200000Y-88750000I700000J0D01*
G01*
%TO.C,R8*%
X139956359Y-97620000D02*
X140263641Y-97620000D01*
X139956359Y-98380000D02*
X140263641Y-98380000D01*
%TO.C,R27*%
X184370000Y-95446359D02*
X184370000Y-95753641D01*
X185130000Y-95446359D02*
X185130000Y-95753641D01*
%TO.C,R17*%
X172913641Y-92060340D02*
X172606359Y-92060340D01*
X172913641Y-92820340D02*
X172606359Y-92820340D01*
%TO.C,R12*%
X156343641Y-108970000D02*
X156036359Y-108970000D01*
X156343641Y-109730000D02*
X156036359Y-109730000D01*
%TO.C,TP4*%
X138060000Y-88000000D02*
G75*
G02*
X136660000Y-88000000I-700000J0D01*
G01*
X136660000Y-88000000D02*
G75*
G02*
X138060000Y-88000000I700000J0D01*
G01*
%TO.C,C49*%
X186390000Y-97892164D02*
X186390000Y-98107836D01*
X187110000Y-97892164D02*
X187110000Y-98107836D01*
%TO.C,TP3*%
X135600000Y-88000000D02*
G75*
G02*
X134200000Y-88000000I-700000J0D01*
G01*
X134200000Y-88000000D02*
G75*
G02*
X135600000Y-88000000I700000J0D01*
G01*
%TO.C,C27*%
X156082164Y-110540000D02*
X156297836Y-110540000D01*
X156082164Y-111260000D02*
X156297836Y-111260000D01*
%TO.C,C43*%
X178140000Y-102637164D02*
X178140000Y-102852836D01*
X178860000Y-102637164D02*
X178860000Y-102852836D01*
%TO.C,C9*%
X129520000Y-91627836D02*
X129520000Y-91412164D01*
X130240000Y-91627836D02*
X130240000Y-91412164D01*
%TO.C,C44*%
X179127836Y-108140000D02*
X178912164Y-108140000D01*
X179127836Y-108860000D02*
X178912164Y-108860000D01*
%TO.C,TP11*%
X143900000Y-113900000D02*
G75*
G02*
X142500000Y-113900000I-700000J0D01*
G01*
X142500000Y-113900000D02*
G75*
G02*
X143900000Y-113900000I700000J0D01*
G01*
%TO.C,C1*%
X121160000Y-102407836D02*
X121160000Y-102192164D01*
X121880000Y-102407836D02*
X121880000Y-102192164D01*
%TO.C,C45*%
X167840000Y-99492164D02*
X167840000Y-99707836D01*
X168560000Y-99492164D02*
X168560000Y-99707836D01*
%TO.C,TP5*%
X154700000Y-94200000D02*
G75*
G02*
X153300000Y-94200000I-700000J0D01*
G01*
X153300000Y-94200000D02*
G75*
G02*
X154700000Y-94200000I700000J0D01*
G01*
%TO.C,C8*%
X128872164Y-111640000D02*
X129087836Y-111640000D01*
X128872164Y-112360000D02*
X129087836Y-112360000D01*
%TO.C,R3*%
X120163641Y-103820000D02*
X119856359Y-103820000D01*
X120163641Y-104580000D02*
X119856359Y-104580000D01*
%TO.C,TP10*%
X144200000Y-111000000D02*
G75*
G02*
X142800000Y-111000000I-700000J0D01*
G01*
X142800000Y-111000000D02*
G75*
G02*
X144200000Y-111000000I700000J0D01*
G01*
%TO.C,C11*%
X132490000Y-110162164D02*
X132490000Y-110377836D01*
X133210000Y-110162164D02*
X133210000Y-110377836D01*
%TO.C,R1*%
X120163641Y-100820000D02*
X119856359Y-100820000D01*
X120163641Y-101580000D02*
X119856359Y-101580000D01*
%TO.C,L5*%
X169140000Y-100000200D02*
X169140000Y-99799800D01*
X169860000Y-100000200D02*
X169860000Y-99799800D01*
%TO.C,L7*%
X181640000Y-107897700D02*
X181640000Y-107697300D01*
X182360000Y-107897700D02*
X182360000Y-107697300D01*
%TO.C,R22*%
X179720000Y-96756359D02*
X179720000Y-97063641D01*
X180480000Y-96756359D02*
X180480000Y-97063641D01*
%TO.C,R21*%
X175120000Y-105856359D02*
X175120000Y-106163641D01*
X175880000Y-105856359D02*
X175880000Y-106163641D01*
%TO.C,Y2*%
X147287500Y-113575000D02*
X147287500Y-114925000D01*
X149037500Y-113575000D02*
X149037500Y-114925000D01*
%TO.C,R10*%
X139856359Y-100620000D02*
X140163641Y-100620000D01*
X139856359Y-101380000D02*
X140163641Y-101380000D01*
%TO.C,R23*%
X176540000Y-94006359D02*
X176540000Y-94313641D01*
X177300000Y-94006359D02*
X177300000Y-94313641D01*
%TO.C,C3*%
X120865000Y-95542164D02*
X120865000Y-95757836D01*
X121585000Y-95542164D02*
X121585000Y-95757836D01*
%TO.C,C17*%
X146020336Y-115140000D02*
X145804664Y-115140000D01*
X146020336Y-115860000D02*
X145804664Y-115860000D01*
%TO.C,R13*%
X156282500Y-116278641D02*
X156282500Y-115971359D01*
X157042500Y-116278641D02*
X157042500Y-115971359D01*
%TO.C,C15*%
X133990000Y-110377836D02*
X133990000Y-110162164D01*
X134710000Y-110377836D02*
X134710000Y-110162164D01*
%TO.C,TP9*%
X142200000Y-111500000D02*
G75*
G02*
X140800000Y-111500000I-700000J0D01*
G01*
X140800000Y-111500000D02*
G75*
G02*
X142200000Y-111500000I700000J0D01*
G01*
%TO.C,R4*%
X120163641Y-104820000D02*
X119856359Y-104820000D01*
X120163641Y-105580000D02*
X119856359Y-105580000D01*
%TO.C,R15*%
X159153641Y-89120000D02*
X158846359Y-89120000D01*
X159153641Y-89880000D02*
X158846359Y-89880000D01*
%TO.C,R11*%
X153336359Y-116245000D02*
X153643641Y-116245000D01*
X153336359Y-117005000D02*
X153643641Y-117005000D01*
%TO.C,J3*%
X160940000Y-86120000D02*
X160940000Y-88880000D01*
X178830000Y-86120000D02*
X160940000Y-86120000D01*
X178830000Y-86120000D02*
X178830000Y-88880000D01*
X178830000Y-88880000D02*
X160940000Y-88880000D01*
X180100000Y-86120000D02*
X181480000Y-86120000D01*
X181480000Y-86120000D02*
X181480000Y-87500000D01*
D11*
%TO.C,D2*%
X157960000Y-87750000D02*
G75*
G02*
X157860000Y-87750000I-50000J0D01*
G01*
X157860000Y-87750000D02*
G75*
G02*
X157960000Y-87750000I50000J0D01*
G01*
D14*
%TO.C,C41*%
X175140000Y-102892164D02*
X175140000Y-103107836D01*
X175860000Y-102892164D02*
X175860000Y-103107836D01*
%TO.C,C10*%
X131490000Y-91627836D02*
X131490000Y-91412164D01*
X132210000Y-91627836D02*
X132210000Y-91412164D01*
D15*
%TO.C,G\u002A\u002A\u002A*%
G36*
X124748044Y-118401082D02*
G01*
X124827935Y-118433026D01*
X124898496Y-118489716D01*
X124904293Y-118496138D01*
X124960134Y-118580501D01*
X124990211Y-118679048D01*
X124996879Y-118766190D01*
X124992826Y-118830310D01*
X124982536Y-118892472D01*
X124975828Y-118916844D01*
X124941329Y-118985471D01*
X124889482Y-119051493D01*
X124830645Y-119102496D01*
X124811366Y-119113965D01*
X124742968Y-119133874D01*
X124664394Y-119133509D01*
X124590063Y-119113493D01*
X124570439Y-119103571D01*
X124499600Y-119044224D01*
X124444315Y-118958644D01*
X124416411Y-118885958D01*
X124398608Y-118812946D01*
X124395353Y-118750012D01*
X124406763Y-118681727D01*
X124418290Y-118639794D01*
X124454873Y-118556401D01*
X124509118Y-118482133D01*
X124573056Y-118427347D01*
X124588633Y-118418415D01*
X124665912Y-118395630D01*
X124748044Y-118401082D01*
G37*
G36*
X125054726Y-116212474D02*
G01*
X125045155Y-116244266D01*
X125016459Y-116298867D01*
X124968253Y-116376923D01*
X124900149Y-116479081D01*
X124869833Y-116523115D01*
X124813608Y-116604744D01*
X124764216Y-116677463D01*
X124724445Y-116737086D01*
X124697081Y-116779427D01*
X124684912Y-116800298D01*
X124684548Y-116801482D01*
X124699340Y-116806246D01*
X124740064Y-116810126D01*
X124800383Y-116812710D01*
X124869440Y-116813585D01*
X125055018Y-116813585D01*
X125055018Y-116886203D01*
X125055018Y-116958820D01*
X124748411Y-116958820D01*
X124441803Y-116958820D01*
X124442855Y-116898306D01*
X124446094Y-116872647D01*
X124456537Y-116842293D01*
X124476562Y-116803109D01*
X124508545Y-116750961D01*
X124554863Y-116681717D01*
X124617892Y-116591243D01*
X124626104Y-116579596D01*
X124808301Y-116321400D01*
X124625052Y-116316853D01*
X124441803Y-116312307D01*
X124441803Y-116240202D01*
X124441803Y-116168096D01*
X124748411Y-116168096D01*
X125055018Y-116168096D01*
X125054726Y-116212474D01*
G37*
G36*
X124313202Y-117405249D02*
G01*
X124342747Y-117417576D01*
X124392261Y-117457634D01*
X124428103Y-117513642D01*
X124441803Y-117572035D01*
X124427291Y-117628055D01*
X124386587Y-117690682D01*
X124323938Y-117755795D01*
X124243593Y-117819277D01*
X124149798Y-117877007D01*
X124102922Y-117900678D01*
X123992543Y-117938100D01*
X123868164Y-117956395D01*
X123742174Y-117954812D01*
X123626961Y-117932601D01*
X123618805Y-117929986D01*
X123528390Y-117891995D01*
X123438366Y-117840087D01*
X123355165Y-117779346D01*
X123285218Y-117714858D01*
X123234955Y-117651707D01*
X123214757Y-117610510D01*
X123208240Y-117543795D01*
X123229888Y-117481975D01*
X123275774Y-117433391D01*
X123305840Y-117416977D01*
X123360041Y-117401482D01*
X123409519Y-117405828D01*
X123461469Y-117432350D01*
X123523086Y-117483386D01*
X123529874Y-117489756D01*
X123628132Y-117564042D01*
X123731128Y-117607460D01*
X123835848Y-117620052D01*
X123939274Y-117601860D01*
X124038390Y-117552928D01*
X124122657Y-117481342D01*
X124188451Y-117425356D01*
X124251029Y-117400263D01*
X124313202Y-117405249D01*
G37*
G36*
X126959211Y-115700736D02*
G01*
X126957963Y-115722426D01*
X126953051Y-115745607D01*
X126942722Y-115773186D01*
X126925227Y-115808068D01*
X126898813Y-115853159D01*
X126861728Y-115911366D01*
X126812221Y-115985594D01*
X126748541Y-116078749D01*
X126668935Y-116193737D01*
X126617494Y-116267678D01*
X126568448Y-116338680D01*
X126526703Y-116400207D01*
X126495434Y-116447493D01*
X126477816Y-116475772D01*
X126475094Y-116481497D01*
X126490301Y-116484748D01*
X126532204Y-116487508D01*
X126595223Y-116489560D01*
X126673782Y-116490689D01*
X126717153Y-116490841D01*
X126959211Y-116490841D01*
X126959211Y-116587664D01*
X126959211Y-116684488D01*
X126555781Y-116684488D01*
X126152350Y-116684488D01*
X126152785Y-116615904D01*
X126154370Y-116593087D01*
X126160211Y-116568756D01*
X126172378Y-116539382D01*
X126192944Y-116501435D01*
X126223978Y-116451383D01*
X126267553Y-116385697D01*
X126325740Y-116300846D01*
X126400609Y-116193301D01*
X126401306Y-116192302D01*
X126649392Y-115837283D01*
X126400871Y-115832839D01*
X126152350Y-115828395D01*
X126152350Y-115731981D01*
X126152350Y-115635568D01*
X126555781Y-115635568D01*
X126959211Y-115635568D01*
X126959211Y-115700736D01*
G37*
G36*
X125204367Y-117422225D02*
G01*
X125271280Y-117475375D01*
X125288487Y-117492872D01*
X125350432Y-117551269D01*
X125408982Y-117587400D01*
X125475315Y-117605960D01*
X125560611Y-117611643D01*
X125571410Y-117611684D01*
X125673380Y-117603885D01*
X125755800Y-117577866D01*
X125828137Y-117529539D01*
X125879147Y-117478795D01*
X125941754Y-117424252D01*
X126004712Y-117401263D01*
X126070347Y-117409170D01*
X126092777Y-117418346D01*
X126147471Y-117456288D01*
X126178028Y-117509373D01*
X126187107Y-117582791D01*
X126186536Y-117601241D01*
X126171131Y-117643588D01*
X126132164Y-117695380D01*
X126074969Y-117751691D01*
X126004882Y-117807592D01*
X125927237Y-117858156D01*
X125882043Y-117882502D01*
X125813675Y-117915094D01*
X125761046Y-117935318D01*
X125711629Y-117946387D01*
X125652897Y-117951513D01*
X125606689Y-117953105D01*
X125537525Y-117953820D01*
X125476521Y-117952547D01*
X125434082Y-117949562D01*
X125426229Y-117948313D01*
X125353416Y-117925126D01*
X125271634Y-117886297D01*
X125187811Y-117836586D01*
X125108876Y-117780750D01*
X125041756Y-117723548D01*
X124993379Y-117669740D01*
X124975101Y-117638442D01*
X124961976Y-117571666D01*
X124973627Y-117505919D01*
X125007604Y-117452371D01*
X125017897Y-117443286D01*
X125080801Y-117406753D01*
X125141916Y-117399542D01*
X125204367Y-117422225D01*
G37*
G36*
X125942265Y-115522607D02*
G01*
X125929793Y-115582239D01*
X125897880Y-115643636D01*
X125873826Y-115678748D01*
X125835636Y-115734378D01*
X125787475Y-115804464D01*
X125733511Y-115882940D01*
X125696459Y-115936795D01*
X125644959Y-116012151D01*
X125600531Y-116078154D01*
X125566157Y-116130293D01*
X125544818Y-116164057D01*
X125539135Y-116174819D01*
X125554253Y-116178385D01*
X125595534Y-116181332D01*
X125656866Y-116183373D01*
X125732141Y-116184225D01*
X125740850Y-116184233D01*
X125942566Y-116184233D01*
X125942566Y-116264920D01*
X125942566Y-116345606D01*
X125603684Y-116345606D01*
X125490524Y-116345419D01*
X125405600Y-116344636D01*
X125344876Y-116342922D01*
X125304315Y-116339942D01*
X125279880Y-116335362D01*
X125267534Y-116328848D01*
X125263240Y-116320064D01*
X125262944Y-116317366D01*
X125262859Y-116290158D01*
X125267783Y-116262347D01*
X125279905Y-116229882D01*
X125301415Y-116188715D01*
X125334502Y-116134797D01*
X125381356Y-116064078D01*
X125444167Y-115972510D01*
X125468071Y-115938033D01*
X125526635Y-115853405D01*
X125578438Y-115777989D01*
X125620824Y-115715700D01*
X125651136Y-115670450D01*
X125666718Y-115646153D01*
X125668233Y-115643157D01*
X125653106Y-115640338D01*
X125611757Y-115637369D01*
X125550237Y-115634578D01*
X125474594Y-115632293D01*
X125462483Y-115632015D01*
X125256734Y-115627499D01*
X125256734Y-115546813D01*
X125256734Y-115466127D01*
X125599643Y-115466127D01*
X125942552Y-115466127D01*
X125942265Y-115522607D01*
G37*
D14*
%TO.C,C2*%
X121140000Y-104287836D02*
X121140000Y-104072164D01*
X121860000Y-104287836D02*
X121860000Y-104072164D01*
%TO.C,TP12*%
X145700000Y-108500000D02*
G75*
G02*
X144300000Y-108500000I-700000J0D01*
G01*
X144300000Y-108500000D02*
G75*
G02*
X145700000Y-108500000I700000J0D01*
G01*
D16*
%TO.C,U3*%
X150350000Y-110124000D02*
X151061500Y-110124000D01*
X150350000Y-115501000D02*
X151061500Y-115501000D01*
X154150000Y-110124000D02*
X153438500Y-110124000D01*
X154150000Y-115501000D02*
X153438500Y-115501000D01*
D11*
X149900000Y-115312500D02*
G75*
G02*
X149800000Y-115312500I-50000J0D01*
G01*
X149800000Y-115312500D02*
G75*
G02*
X149900000Y-115312500I50000J0D01*
G01*
D14*
%TO.C,Y1*%
X144640000Y-98690000D02*
X144640000Y-101210000D01*
X146360000Y-98690000D02*
X144640000Y-98690000D01*
X146360000Y-101210000D02*
X146360000Y-98690000D01*
%TO.C,R14*%
X156643641Y-89120000D02*
X156336359Y-89120000D01*
X156643641Y-89880000D02*
X156336359Y-89880000D01*
%TO.C,U6*%
X176990000Y-104952500D02*
X177040000Y-104952500D01*
X176990000Y-106772500D02*
X176990000Y-104952500D01*
X177040000Y-106772500D02*
X176990000Y-106772500D01*
X178940000Y-106772500D02*
X178160000Y-106772500D01*
X180060000Y-104952500D02*
X180110000Y-104952500D01*
X180110000Y-104952500D02*
X180110000Y-106772500D01*
X180110000Y-106772500D02*
X180060000Y-106772500D01*
X180390000Y-104652500D02*
X180060000Y-104412500D01*
X180390000Y-104172500D01*
X180390000Y-104652500D01*
G36*
X180390000Y-104652500D02*
G01*
X180060000Y-104412500D01*
X180390000Y-104172500D01*
X180390000Y-104652500D01*
G37*
%TO.C,D4*%
X115815000Y-104800000D02*
X115815000Y-102100000D01*
X116315000Y-101600000D02*
X117815000Y-101600000D01*
X117815000Y-101600000D02*
X117815000Y-104800000D01*
X117815000Y-104800000D02*
X115815000Y-104800000D01*
D17*
X116078500Y-101800000D02*
G75*
G02*
X115951500Y-101800000I-63500J0D01*
G01*
X115951500Y-101800000D02*
G75*
G02*
X116078500Y-101800000I63500J0D01*
G01*
D14*
%TO.C,R24*%
X176620000Y-102571359D02*
X176620000Y-102878641D01*
X177380000Y-102571359D02*
X177380000Y-102878641D01*
%TO.C,D3*%
X181000000Y-100990000D02*
X181000000Y-105000000D01*
X183000000Y-100990000D02*
X181000000Y-100990000D01*
X183000000Y-100990000D02*
X183000000Y-105000000D01*
%TO.C,C39*%
X184240000Y-113187836D02*
X184240000Y-112972164D01*
X184960000Y-113187836D02*
X184960000Y-112972164D01*
%TO.C,U2*%
X114925000Y-97080000D02*
X114925000Y-95120000D01*
X116125000Y-95120000D02*
X114925000Y-95120000D01*
X116125000Y-97080000D02*
X116125000Y-95120000D01*
%TO.C,C48*%
X186390000Y-93487836D02*
X186390000Y-93272164D01*
X187110000Y-93487836D02*
X187110000Y-93272164D01*
%TO.C,R18*%
X117061359Y-95300000D02*
X117368641Y-95300000D01*
X117061359Y-96060000D02*
X117368641Y-96060000D01*
%TO.C,TP1*%
X116600000Y-87100000D02*
X116600000Y-88900000D01*
X116600000Y-88900000D02*
X120400000Y-88900000D01*
X120400000Y-87100000D02*
X116600000Y-87100000D01*
X120400000Y-88900000D02*
X120400000Y-87100000D01*
%TO.C,C40*%
X176560000Y-91762164D02*
X176560000Y-91977836D01*
X177280000Y-91762164D02*
X177280000Y-91977836D01*
%TO.C,C14*%
X136240000Y-95107836D02*
X136240000Y-94892164D01*
X136960000Y-95107836D02*
X136960000Y-94892164D01*
D11*
%TO.C,D1*%
X155460000Y-87750000D02*
G75*
G02*
X155360000Y-87750000I-50000J0D01*
G01*
X155360000Y-87750000D02*
G75*
G02*
X155460000Y-87750000I50000J0D01*
G01*
D14*
%TO.C,C33*%
X167740000Y-90607836D02*
X167740000Y-90392164D01*
X168460000Y-90607836D02*
X168460000Y-90392164D01*
%TO.C,TP16*%
X176100000Y-112200000D02*
G75*
G02*
X174700000Y-112200000I-700000J0D01*
G01*
X174700000Y-112200000D02*
G75*
G02*
X176100000Y-112200000I700000J0D01*
G01*
%TO.C,C26*%
X156302500Y-113607836D02*
X156302500Y-113392164D01*
X157022500Y-113607836D02*
X157022500Y-113392164D01*
%TO.C,C6*%
X126392164Y-111140000D02*
X126607836Y-111140000D01*
X126392164Y-111860000D02*
X126607836Y-111860000D01*
%TO.C,C7*%
X128892164Y-109640000D02*
X129107836Y-109640000D01*
X128892164Y-110360000D02*
X129107836Y-110360000D01*
D11*
%TO.C,U7*%
X148250000Y-96600000D02*
X148250000Y-99100000D01*
X148250000Y-96600000D02*
X150750000Y-96600000D01*
X148250000Y-107400000D02*
X148250000Y-104900000D01*
X148250000Y-107400000D02*
X150750000Y-107400000D01*
X160150000Y-96600000D02*
X162400000Y-96600000D01*
D14*
X160790000Y-107870000D02*
X160110000Y-107870000D01*
X160450000Y-107400000D01*
X160790000Y-107870000D01*
G36*
X160790000Y-107870000D02*
G01*
X160110000Y-107870000D01*
X160450000Y-107400000D01*
X160790000Y-107870000D01*
G37*
%TO.C,SW1*%
X185090000Y-108190000D02*
X185090000Y-106985000D01*
X185583292Y-108190000D02*
X185090000Y-108190000D01*
X185932077Y-106985000D02*
X185090000Y-106985000D01*
X187410000Y-106985000D02*
X186567923Y-106985000D01*
X187410000Y-108190000D02*
X186916708Y-108190000D01*
X187410000Y-108190000D02*
X187410000Y-106985000D01*
X187410000Y-109000000D02*
X187410000Y-109810000D01*
X187410000Y-109810000D02*
X186250000Y-109810000D01*
%TO.C,R25*%
X184320000Y-93523641D02*
X184320000Y-93216359D01*
X185080000Y-93523641D02*
X185080000Y-93216359D01*
%TO.C,TP7*%
X140600000Y-88000000D02*
G75*
G02*
X139200000Y-88000000I-700000J0D01*
G01*
X139200000Y-88000000D02*
G75*
G02*
X140600000Y-88000000I700000J0D01*
G01*
%TO.C,J2*%
X159210000Y-111050000D02*
X160485000Y-111050000D01*
X160485000Y-110985000D02*
X160485000Y-111050000D01*
X160485000Y-110985000D02*
X164115000Y-110985000D01*
X160485000Y-117490000D02*
X160485000Y-117555000D01*
X160485000Y-117555000D02*
X164115000Y-117555000D01*
X164115000Y-110985000D02*
X164115000Y-111050000D01*
X164115000Y-117490000D02*
X164115000Y-117555000D01*
%TO.C,C35*%
X164307836Y-97240000D02*
X164092164Y-97240000D01*
X164307836Y-97960000D02*
X164092164Y-97960000D01*
%TO.C,R5*%
X119045000Y-95486359D02*
X119045000Y-95793641D01*
X119805000Y-95486359D02*
X119805000Y-95793641D01*
%TO.C,C42*%
X178462164Y-91040000D02*
X178677836Y-91040000D01*
X178462164Y-91760000D02*
X178677836Y-91760000D01*
%TO.C,BT1*%
X177440000Y-110090000D02*
X177440000Y-117910000D01*
X177440000Y-111690000D02*
X178360000Y-111690000D01*
X177440000Y-117910000D02*
X183560000Y-117910000D01*
X178360000Y-110090000D02*
X177440000Y-110090000D01*
X178360000Y-111690000D02*
X178360000Y-110090000D01*
X178640000Y-111690000D02*
X178360000Y-111690000D01*
X178640000Y-111690000D02*
X178640000Y-110475000D01*
X178700000Y-115650000D02*
X178700000Y-117910000D01*
X179200000Y-115650000D02*
X179200000Y-117910000D01*
X180000000Y-113550000D02*
X181000000Y-113550000D01*
X180000000Y-117910000D02*
X180000000Y-113550000D01*
X181000000Y-113550000D02*
X181000000Y-117910000D01*
X182640000Y-110090000D02*
X182640000Y-111690000D01*
X182640000Y-111690000D02*
X182360000Y-111690000D01*
X183560000Y-110090000D02*
X182640000Y-110090000D01*
X183560000Y-111690000D02*
X182640000Y-111690000D01*
X183560000Y-117910000D02*
X183560000Y-110090000D01*
X178200000Y-114050000D02*
X179200000Y-114050000D01*
X179200000Y-115650000D01*
X178200000Y-115650000D01*
X178200000Y-114050000D01*
X181800000Y-114050000D02*
X182800000Y-114050000D01*
X182800000Y-115650000D01*
X181800000Y-115650000D01*
X181800000Y-114050000D01*
%TO.C,C46*%
X169740000Y-90627836D02*
X169740000Y-90412164D01*
X170460000Y-90627836D02*
X170460000Y-90412164D01*
%TO.C,U4*%
X166240000Y-92740000D02*
X166715000Y-92740000D01*
X166240000Y-93215000D02*
X166240000Y-92740000D01*
X166240000Y-97960000D02*
X166240000Y-97485000D01*
X166715000Y-97960000D02*
X166240000Y-97960000D01*
X170985000Y-92740000D02*
X171460000Y-92740000D01*
X171460000Y-92740000D02*
X171460000Y-93215000D01*
X171460000Y-97485000D02*
X171460000Y-97960000D01*
X171460000Y-97960000D02*
X170985000Y-97960000D01*
X167340000Y-98790000D02*
X166860000Y-98790000D01*
X167100000Y-98460000D01*
X167340000Y-98790000D01*
G36*
X167340000Y-98790000D02*
G01*
X166860000Y-98790000D01*
X167100000Y-98460000D01*
X167340000Y-98790000D01*
G37*
%TO.C,C21*%
X163940000Y-96227836D02*
X163940000Y-96012164D01*
X164660000Y-96227836D02*
X164660000Y-96012164D01*
%TO.C,R2*%
X120163641Y-101820000D02*
X119856359Y-101820000D01*
X120163641Y-102580000D02*
X119856359Y-102580000D01*
D18*
%TO.C,U1*%
X123867600Y-95017599D02*
X123867600Y-96027559D01*
X123867600Y-104472439D02*
X123867600Y-105482399D01*
X123867600Y-105482399D02*
X124877560Y-105482399D01*
X124877560Y-95017599D02*
X123867600Y-95017599D01*
X133322440Y-105482399D02*
X134332400Y-105482399D01*
X134332400Y-95017599D02*
X133322440Y-95017599D01*
X134332400Y-96027559D02*
X134332400Y-95017599D01*
X134332400Y-105482399D02*
X134332400Y-104472439D01*
D15*
G36*
X122394400Y-101190500D02*
G01*
X122140400Y-101190500D01*
X122140400Y-100809500D01*
X122394400Y-100809500D01*
X122394400Y-101190500D01*
G37*
G36*
X127040499Y-107209599D02*
G01*
X126659499Y-107209599D01*
X126659499Y-106955599D01*
X127040499Y-106955599D01*
X127040499Y-107209599D01*
G37*
G36*
X127540501Y-93544399D02*
G01*
X127159501Y-93544399D01*
X127159501Y-93290399D01*
X127540501Y-93290399D01*
X127540501Y-93544399D01*
G37*
G36*
X132040500Y-107209599D02*
G01*
X131659500Y-107209599D01*
X131659500Y-106955599D01*
X132040500Y-106955599D01*
X132040500Y-107209599D01*
G37*
G36*
X132540501Y-93544399D02*
G01*
X132159501Y-93544399D01*
X132159501Y-93290399D01*
X132540501Y-93290399D01*
X132540501Y-93544399D01*
G37*
G36*
X136059600Y-100690499D02*
G01*
X135805600Y-100690499D01*
X135805600Y-100309498D01*
X136059600Y-100309498D01*
X136059600Y-100690499D01*
G37*
D14*
%TO.C,C12*%
X130990000Y-110162164D02*
X130990000Y-110377836D01*
X131710000Y-110162164D02*
X131710000Y-110377836D01*
D15*
%TO.C,G\u002A\u002A\u002A*%
G36*
X117833333Y-116209302D02*
G01*
X117828571Y-116214065D01*
X117823809Y-116209302D01*
X117828571Y-116204538D01*
X117833333Y-116209302D01*
G37*
G36*
X117852380Y-116152137D02*
G01*
X117847619Y-116156901D01*
X117842857Y-116152137D01*
X117847619Y-116147374D01*
X117852380Y-116152137D01*
G37*
G36*
X119966666Y-116504650D02*
G01*
X119961904Y-116509414D01*
X119957142Y-116504650D01*
X119961904Y-116499887D01*
X119966666Y-116504650D01*
G37*
G36*
X117233610Y-117500952D02*
G01*
X117278219Y-117505353D01*
X117298451Y-117509372D01*
X117323788Y-117517533D01*
X117335015Y-117526719D01*
X117336753Y-117541408D01*
X117336296Y-117546041D01*
X117332507Y-117562474D01*
X117322398Y-117569344D01*
X117300125Y-117570036D01*
X117295238Y-117569809D01*
X117180118Y-117566180D01*
X117082931Y-117567750D01*
X117003279Y-117574539D01*
X116942857Y-117586005D01*
X116904755Y-117596044D01*
X116871849Y-117604675D01*
X116850026Y-117610355D01*
X116847039Y-117611122D01*
X116824684Y-117608629D01*
X116815021Y-117601187D01*
X116806517Y-117581959D01*
X116814707Y-117564211D01*
X116840160Y-117547589D01*
X116883444Y-117531740D01*
X116945128Y-117516311D01*
X116955238Y-117514171D01*
X117001174Y-117507070D01*
X117057115Y-117502126D01*
X117117924Y-117499410D01*
X117178467Y-117498995D01*
X117233610Y-117500952D01*
G37*
G36*
X118091787Y-117476416D02*
G01*
X118156350Y-117481500D01*
X118218291Y-117489967D01*
X118275449Y-117501995D01*
X118298011Y-117508304D01*
X118338894Y-117524323D01*
X118360894Y-117541703D01*
X118363962Y-117560391D01*
X118357805Y-117570919D01*
X118348677Y-117579605D01*
X118336933Y-117583527D01*
X118318666Y-117582462D01*
X118289969Y-117576190D01*
X118247619Y-117564683D01*
X118201694Y-117555462D01*
X118142077Y-117548875D01*
X118073955Y-117545026D01*
X118002517Y-117544025D01*
X117932950Y-117545976D01*
X117870441Y-117550987D01*
X117834704Y-117556181D01*
X117798029Y-117562401D01*
X117775085Y-117564411D01*
X117760994Y-117562059D01*
X117750877Y-117555192D01*
X117749151Y-117553515D01*
X117740105Y-117536163D01*
X117747878Y-117520592D01*
X117770311Y-117506981D01*
X117805244Y-117495506D01*
X117850515Y-117486346D01*
X117903966Y-117479680D01*
X117963435Y-117475684D01*
X118026762Y-117474537D01*
X118091787Y-117476416D01*
G37*
G36*
X117553081Y-117635377D02*
G01*
X117578100Y-117668268D01*
X117588885Y-117689231D01*
X117601127Y-117727329D01*
X117608587Y-117774381D01*
X117611252Y-117824972D01*
X117609108Y-117873685D01*
X117602140Y-117915105D01*
X117590337Y-117943817D01*
X117589534Y-117944938D01*
X117563671Y-117968415D01*
X117535845Y-117974018D01*
X117508763Y-117961425D01*
X117502388Y-117955356D01*
X117475674Y-117914060D01*
X117458065Y-117857644D01*
X117452036Y-117804885D01*
X117499999Y-117804885D01*
X117502776Y-117826001D01*
X117509790Y-117853836D01*
X117519075Y-117882494D01*
X117528658Y-117906081D01*
X117536572Y-117918700D01*
X117538282Y-117919467D01*
X117546567Y-117911298D01*
X117552994Y-117893266D01*
X117558810Y-117868813D01*
X117563035Y-117853503D01*
X117564849Y-117834382D01*
X117562564Y-117808530D01*
X117557447Y-117782664D01*
X117550769Y-117763502D01*
X117544906Y-117757501D01*
X117527304Y-117765008D01*
X117509961Y-117782279D01*
X117500340Y-117801438D01*
X117499999Y-117804885D01*
X117452036Y-117804885D01*
X117450108Y-117788010D01*
X117449714Y-117771792D01*
X117453383Y-117714065D01*
X117464608Y-117669070D01*
X117481789Y-117637755D01*
X117503327Y-117621069D01*
X117527624Y-117619960D01*
X117553081Y-117635377D01*
G37*
G36*
X116325022Y-116445802D02*
G01*
X116366666Y-116462157D01*
X116419046Y-116498299D01*
X116456254Y-116545869D01*
X116478360Y-116604986D01*
X116485432Y-116672083D01*
X116484665Y-116711899D01*
X116480802Y-116740101D01*
X116472069Y-116764087D01*
X116456891Y-116790923D01*
X116416307Y-116841231D01*
X116366219Y-116875366D01*
X116305596Y-116893911D01*
X116267594Y-116897667D01*
X116217970Y-116896859D01*
X116180462Y-116890579D01*
X116170688Y-116887020D01*
X116114683Y-116852148D01*
X116071795Y-116805878D01*
X116043074Y-116751262D01*
X116029567Y-116691352D01*
X116029591Y-116690806D01*
X116075304Y-116690806D01*
X116080287Y-116716546D01*
X116103225Y-116768279D01*
X116139247Y-116808843D01*
X116185061Y-116836801D01*
X116237373Y-116850715D01*
X116292891Y-116849149D01*
X116345240Y-116832191D01*
X116389194Y-116801278D01*
X116420229Y-116759680D01*
X116437977Y-116711048D01*
X116442067Y-116659033D01*
X116432130Y-116607285D01*
X116407796Y-116559454D01*
X116376312Y-116525270D01*
X116327030Y-116494815D01*
X116274066Y-116482975D01*
X116218116Y-116489817D01*
X116177922Y-116505571D01*
X116130312Y-116538994D01*
X116096289Y-116583276D01*
X116077428Y-116635015D01*
X116075304Y-116690806D01*
X116029591Y-116690806D01*
X116032324Y-116629201D01*
X116052391Y-116567859D01*
X116057593Y-116557743D01*
X116095753Y-116506184D01*
X116144927Y-116468174D01*
X116201764Y-116444749D01*
X116262913Y-116436946D01*
X116325022Y-116445802D01*
G37*
G36*
X116644060Y-115752746D02*
G01*
X116710746Y-115773870D01*
X116774258Y-115813285D01*
X116774602Y-115813558D01*
X116822546Y-115862571D01*
X116855204Y-115919577D01*
X116872894Y-115981636D01*
X116875930Y-116045806D01*
X116864630Y-116109149D01*
X116839309Y-116168724D01*
X116800284Y-116221592D01*
X116747869Y-116264812D01*
X116724666Y-116278014D01*
X116682759Y-116293641D01*
X116633188Y-116303777D01*
X116583338Y-116307554D01*
X116540594Y-116304108D01*
X116528571Y-116301000D01*
X116457637Y-116268353D01*
X116399187Y-116221378D01*
X116353596Y-116160389D01*
X116346485Y-116147374D01*
X116327946Y-116093124D01*
X116322412Y-116031142D01*
X116322743Y-116028281D01*
X116371931Y-116028281D01*
X116375133Y-116080763D01*
X116385223Y-116119345D01*
X116389433Y-116128319D01*
X116428032Y-116183898D01*
X116476474Y-116225134D01*
X116532045Y-116251094D01*
X116592030Y-116260841D01*
X116653716Y-116253442D01*
X116700607Y-116235502D01*
X116754527Y-116198750D01*
X116794217Y-116152381D01*
X116819648Y-116099341D01*
X116830790Y-116042577D01*
X116827615Y-115985036D01*
X116810091Y-115929666D01*
X116778191Y-115879412D01*
X116731884Y-115837223D01*
X116704761Y-115820822D01*
X116660163Y-115805645D01*
X116607062Y-115799660D01*
X116553134Y-115802883D01*
X116506056Y-115815328D01*
X116495238Y-115820418D01*
X116440049Y-115858869D01*
X116401326Y-115906768D01*
X116378740Y-115964668D01*
X116371931Y-116028281D01*
X116322743Y-116028281D01*
X116329781Y-115967520D01*
X116349948Y-115908350D01*
X116350580Y-115907053D01*
X116390611Y-115846476D01*
X116444282Y-115798652D01*
X116506744Y-115766354D01*
X116575595Y-115750159D01*
X116644060Y-115752746D01*
G37*
G36*
X116278595Y-114902054D02*
G01*
X116320252Y-114913847D01*
X116393790Y-114948812D01*
X116455276Y-114996743D01*
X116504005Y-115055303D01*
X116539270Y-115122153D01*
X116560366Y-115194953D01*
X116566586Y-115271366D01*
X116557225Y-115349053D01*
X116531577Y-115425675D01*
X116494479Y-115491079D01*
X116446449Y-115544425D01*
X116385506Y-115587066D01*
X116315388Y-115617552D01*
X116239832Y-115634431D01*
X116162575Y-115636256D01*
X116130726Y-115632219D01*
X116055139Y-115609823D01*
X115987328Y-115571775D01*
X115929087Y-115520515D01*
X115882209Y-115458481D01*
X115848488Y-115388111D01*
X115829719Y-115311847D01*
X115828552Y-115265890D01*
X115876198Y-115265890D01*
X115877557Y-115311094D01*
X115882675Y-115345539D01*
X115893130Y-115377397D01*
X115901294Y-115395854D01*
X115942653Y-115464058D01*
X115995112Y-115518527D01*
X116056357Y-115558370D01*
X116124074Y-115582693D01*
X116195949Y-115590605D01*
X116269666Y-115581211D01*
X116328486Y-115560603D01*
X116390141Y-115523110D01*
X116444846Y-115471925D01*
X116486982Y-115412361D01*
X116488794Y-115409001D01*
X116500723Y-115384438D01*
X116508219Y-115361536D01*
X116512287Y-115334632D01*
X116513934Y-115298066D01*
X116514183Y-115266091D01*
X116513589Y-115219192D01*
X116511059Y-115185572D01*
X116505648Y-115159483D01*
X116496411Y-115135174D01*
X116490703Y-115123180D01*
X116451648Y-115063565D01*
X116399138Y-115011491D01*
X116338631Y-114972232D01*
X116330462Y-114968344D01*
X116265093Y-114947709D01*
X116194645Y-114941212D01*
X116125294Y-114948879D01*
X116070285Y-114967266D01*
X116002019Y-115008330D01*
X115947956Y-115061448D01*
X115907235Y-115126387D01*
X115890797Y-115162352D01*
X115881399Y-115192227D01*
X115877160Y-115224465D01*
X115876198Y-115265890D01*
X115828552Y-115265890D01*
X115827694Y-115232125D01*
X115828753Y-115221646D01*
X115846769Y-115143702D01*
X115880366Y-115073693D01*
X115927214Y-115013079D01*
X115984981Y-114963321D01*
X116051334Y-114925879D01*
X116123942Y-114902214D01*
X116200473Y-114893785D01*
X116278595Y-114902054D01*
G37*
G36*
X118903186Y-115734634D02*
G01*
X119092307Y-115762035D01*
X119274684Y-115805552D01*
X119371428Y-115836419D01*
X119542069Y-115905763D01*
X119709126Y-115992572D01*
X119870950Y-116095351D01*
X120025889Y-116212609D01*
X120172295Y-116342852D01*
X120308517Y-116484589D01*
X120432904Y-116636326D01*
X120543808Y-116796570D01*
X120639577Y-116963830D01*
X120657792Y-117000074D01*
X120684181Y-117057752D01*
X120710880Y-117122913D01*
X120736272Y-117190945D01*
X120758740Y-117257234D01*
X120776667Y-117317168D01*
X120788438Y-117366132D01*
X120790738Y-117379387D01*
X120795043Y-117400674D01*
X120802557Y-117419557D01*
X120815807Y-117439767D01*
X120837316Y-117465034D01*
X120869608Y-117499087D01*
X120876667Y-117506342D01*
X120953271Y-117592204D01*
X121019298Y-117681086D01*
X121074128Y-117771224D01*
X121117141Y-117860855D01*
X121147716Y-117948214D01*
X121165232Y-118031538D01*
X121169070Y-118109063D01*
X121158608Y-118179026D01*
X121134126Y-118238140D01*
X121101894Y-118281682D01*
X121057332Y-118326454D01*
X121006120Y-118367473D01*
X120953934Y-118399757D01*
X120944745Y-118404317D01*
X120887274Y-118428475D01*
X120826620Y-118447095D01*
X120757679Y-118461454D01*
X120675345Y-118472826D01*
X120666666Y-118473795D01*
X120620134Y-118479213D01*
X120587887Y-118484347D01*
X120565249Y-118490687D01*
X120547540Y-118499726D01*
X120530082Y-118512956D01*
X120521850Y-118519991D01*
X120444633Y-118575450D01*
X120360089Y-118613999D01*
X120267200Y-118635966D01*
X120164949Y-118641681D01*
X120147619Y-118641108D01*
X120072200Y-118634344D01*
X120009612Y-118620448D01*
X119954468Y-118597849D01*
X119911920Y-118572331D01*
X119877654Y-118549037D01*
X119842291Y-118580998D01*
X119799328Y-118612423D01*
X119742227Y-118643199D01*
X119675823Y-118671018D01*
X119607580Y-118692868D01*
X119569729Y-118701865D01*
X119530845Y-118707968D01*
X119485794Y-118711684D01*
X119429441Y-118713522D01*
X119395238Y-118713897D01*
X119316786Y-118712784D01*
X119252220Y-118707784D01*
X119196618Y-118698005D01*
X119145054Y-118682552D01*
X119092604Y-118660533D01*
X119087378Y-118658058D01*
X119041423Y-118636115D01*
X118930235Y-118658421D01*
X118859731Y-118671910D01*
X118793089Y-118683078D01*
X118727407Y-118692152D01*
X118659784Y-118699359D01*
X118587318Y-118704928D01*
X118507108Y-118709084D01*
X118416253Y-118712055D01*
X118311851Y-118714069D01*
X118204761Y-118715243D01*
X118118610Y-118715697D01*
X118033757Y-118715675D01*
X117953227Y-118715211D01*
X117880042Y-118714340D01*
X117817228Y-118713098D01*
X117767808Y-118711518D01*
X117738095Y-118709898D01*
X117563417Y-118693689D01*
X117405673Y-118672629D01*
X117263306Y-118646457D01*
X117134763Y-118614908D01*
X117080952Y-118598868D01*
X117031928Y-118583830D01*
X116994349Y-118574025D01*
X116961657Y-118568458D01*
X116927295Y-118566136D01*
X116884707Y-118566064D01*
X116866666Y-118566386D01*
X116734289Y-118563624D01*
X116613233Y-118549971D01*
X116504587Y-118525725D01*
X116409440Y-118491185D01*
X116328879Y-118446648D01*
X116276425Y-118404743D01*
X116227774Y-118351344D01*
X116195702Y-118297023D01*
X116178135Y-118237014D01*
X116172994Y-118167179D01*
X116173428Y-118161730D01*
X116271637Y-118161730D01*
X116279139Y-118225552D01*
X116302225Y-118280202D01*
X116342517Y-118329472D01*
X116344102Y-118330997D01*
X116393497Y-118368073D01*
X116457651Y-118400740D01*
X116532536Y-118427703D01*
X116614119Y-118447668D01*
X116698371Y-118459340D01*
X116751493Y-118461857D01*
X116826796Y-118462527D01*
X116760124Y-118415688D01*
X116675448Y-118345037D01*
X116605725Y-118262637D01*
X116551052Y-118168665D01*
X116511526Y-118063298D01*
X116487244Y-117946714D01*
X116483049Y-117910643D01*
X116476190Y-117839891D01*
X116423809Y-117882617D01*
X116358940Y-117943867D01*
X116312445Y-118007241D01*
X116283676Y-118073931D01*
X116271982Y-118145130D01*
X116271637Y-118161730D01*
X116173428Y-118161730D01*
X116179128Y-118090168D01*
X116198249Y-118021085D01*
X116232401Y-117953273D01*
X116244601Y-117934113D01*
X116281521Y-117886052D01*
X116327664Y-117837201D01*
X116347214Y-117819924D01*
X116550864Y-117819924D01*
X116551335Y-117912220D01*
X116560660Y-117995019D01*
X116572058Y-118043323D01*
X116606274Y-118132294D01*
X116653095Y-118213017D01*
X116713054Y-118285737D01*
X116786685Y-118350696D01*
X116874521Y-118408141D01*
X116977094Y-118458314D01*
X117094938Y-118501460D01*
X117228585Y-118537823D01*
X117378568Y-118567647D01*
X117545421Y-118591177D01*
X117729676Y-118608656D01*
X117819047Y-118614651D01*
X117887363Y-118617631D01*
X117968865Y-118619444D01*
X118059852Y-118620151D01*
X118156627Y-118619815D01*
X118255491Y-118618497D01*
X118352746Y-118616259D01*
X118444693Y-118613163D01*
X118527633Y-118609271D01*
X118597868Y-118604646D01*
X118638095Y-118600939D01*
X118702956Y-118593395D01*
X118767013Y-118585046D01*
X118827119Y-118576388D01*
X118880132Y-118567917D01*
X118922905Y-118560129D01*
X118952295Y-118553519D01*
X118963792Y-118549564D01*
X118967178Y-118539724D01*
X118958277Y-118519186D01*
X118947094Y-118501436D01*
X118916049Y-118439033D01*
X118901986Y-118372229D01*
X118904443Y-118304274D01*
X118922956Y-118238421D01*
X118957065Y-118177918D01*
X118999696Y-118131612D01*
X119054529Y-118092586D01*
X119118707Y-118061039D01*
X119186752Y-118038790D01*
X119253190Y-118027659D01*
X119308930Y-118028907D01*
X119346012Y-118037039D01*
X119383408Y-118049797D01*
X119416584Y-118065046D01*
X119441004Y-118080652D01*
X119452136Y-118094481D01*
X119452380Y-118096427D01*
X119450311Y-118104917D01*
X119441323Y-118108504D01*
X119421250Y-118107724D01*
X119392857Y-118104099D01*
X119304141Y-118096286D01*
X119228348Y-118099999D01*
X119163075Y-118115448D01*
X119135821Y-118126600D01*
X119080504Y-118156157D01*
X119039727Y-118187247D01*
X119009130Y-118223746D01*
X118991216Y-118255019D01*
X118970679Y-118313759D01*
X118968797Y-118371605D01*
X118985542Y-118430900D01*
X118989208Y-118439098D01*
X119025350Y-118494468D01*
X119077256Y-118540007D01*
X119144184Y-118575391D01*
X119225394Y-118600299D01*
X119320142Y-118614408D01*
X119400000Y-118617708D01*
X119510259Y-118611865D01*
X119605950Y-118593964D01*
X119687364Y-118563868D01*
X119754790Y-118521439D01*
X119808520Y-118466543D01*
X119844165Y-118408912D01*
X119861625Y-118369587D01*
X119870789Y-118335899D01*
X119874044Y-118297713D01*
X119874229Y-118281221D01*
X119865059Y-118209567D01*
X119838958Y-118140468D01*
X119798038Y-118076132D01*
X119744412Y-118018768D01*
X119680195Y-117970584D01*
X119666691Y-117963749D01*
X119792287Y-117963749D01*
X119836608Y-118018183D01*
X119878008Y-118073892D01*
X119906797Y-118125135D01*
X119926273Y-118177916D01*
X119928172Y-118184753D01*
X119937204Y-118239080D01*
X119938500Y-118299863D01*
X119932305Y-118358462D01*
X119922176Y-118397806D01*
X119905067Y-118445403D01*
X119928633Y-118464493D01*
X119963881Y-118488146D01*
X120008580Y-118511599D01*
X120053614Y-118530386D01*
X120078532Y-118537930D01*
X120138862Y-118546264D01*
X120206962Y-118546332D01*
X120273615Y-118538480D01*
X120312373Y-118529117D01*
X120389918Y-118495656D01*
X120457612Y-118447596D01*
X120514097Y-118387393D01*
X120558014Y-118317502D01*
X120588007Y-118240380D01*
X120602718Y-118158482D01*
X120600790Y-118074265D01*
X120591303Y-118024503D01*
X120561499Y-117943988D01*
X120516985Y-117872516D01*
X120460092Y-117811644D01*
X120393156Y-117762926D01*
X120318508Y-117727919D01*
X120238482Y-117708180D01*
X120155412Y-117705264D01*
X120119132Y-117709604D01*
X120041549Y-117730954D01*
X119967714Y-117766910D01*
X119901549Y-117814752D01*
X119846976Y-117871759D01*
X119815191Y-117920433D01*
X119792287Y-117963749D01*
X119666691Y-117963749D01*
X119607498Y-117933788D01*
X119528435Y-117910590D01*
X119517800Y-117908688D01*
X119466258Y-117899903D01*
X119430588Y-117892984D01*
X119407815Y-117887045D01*
X119394962Y-117881204D01*
X119389055Y-117874577D01*
X119387636Y-117870017D01*
X119393674Y-117856445D01*
X119414255Y-117845058D01*
X119444888Y-117837299D01*
X119481084Y-117834613D01*
X119495776Y-117835254D01*
X119520937Y-117836302D01*
X119535736Y-117835067D01*
X119537446Y-117833789D01*
X119530454Y-117825915D01*
X119512048Y-117808388D01*
X119485233Y-117784005D01*
X119460682Y-117762265D01*
X119294330Y-117629087D01*
X119115724Y-117510054D01*
X118925849Y-117405612D01*
X118725692Y-117316208D01*
X118516237Y-117242286D01*
X118298469Y-117184292D01*
X118099999Y-117146674D01*
X118034795Y-117138474D01*
X117956180Y-117131620D01*
X117868449Y-117126228D01*
X117775893Y-117122414D01*
X117682804Y-117120294D01*
X117593476Y-117119985D01*
X117512200Y-117121603D01*
X117443269Y-117125264D01*
X117413144Y-117128079D01*
X117266187Y-117149284D01*
X117129916Y-117178120D01*
X117005733Y-117214083D01*
X116895040Y-117256670D01*
X116799237Y-117305376D01*
X116719728Y-117359697D01*
X116685437Y-117389851D01*
X116655174Y-117420316D01*
X116634853Y-117445404D01*
X116620280Y-117471952D01*
X116607265Y-117506799D01*
X116600226Y-117528844D01*
X116575544Y-117623957D01*
X116559012Y-117722410D01*
X116550864Y-117819924D01*
X116347214Y-117819924D01*
X116376478Y-117794062D01*
X116410062Y-117769896D01*
X116434771Y-117752433D01*
X116448656Y-117735161D01*
X116456647Y-117710441D01*
X116460050Y-117692450D01*
X116464038Y-117664271D01*
X116463416Y-117642575D01*
X116456742Y-117620348D01*
X116442573Y-117590577D01*
X116436833Y-117579485D01*
X116420311Y-117545716D01*
X116410688Y-117518133D01*
X116406170Y-117488882D01*
X116404963Y-117450113D01*
X116404962Y-117441719D01*
X116500429Y-117441719D01*
X116502795Y-117470394D01*
X116508380Y-117497879D01*
X116515722Y-117520032D01*
X116523363Y-117532714D01*
X116529843Y-117531782D01*
X116531142Y-117528844D01*
X116554549Y-117465202D01*
X116577798Y-117415787D01*
X116604060Y-117376064D01*
X116636503Y-117341497D01*
X116678296Y-117307552D01*
X116693443Y-117296590D01*
X116790757Y-117236011D01*
X116900469Y-117183937D01*
X117023958Y-117139875D01*
X117162605Y-117103332D01*
X117314684Y-117074312D01*
X117371021Y-117067492D01*
X117442402Y-117062305D01*
X117524896Y-117058747D01*
X117614569Y-117056818D01*
X117707490Y-117056513D01*
X117799725Y-117057833D01*
X117887342Y-117060773D01*
X117966409Y-117065333D01*
X118032992Y-117071510D01*
X118057142Y-117074713D01*
X118274923Y-117113751D01*
X118479547Y-117164147D01*
X118673743Y-117226745D01*
X118860240Y-117302390D01*
X118984133Y-117361754D01*
X119140455Y-117448009D01*
X119286152Y-117542725D01*
X119425615Y-117649056D01*
X119563235Y-117770160D01*
X119597319Y-117802586D01*
X119637216Y-117840411D01*
X119672986Y-117873062D01*
X119702187Y-117898409D01*
X119722374Y-117914321D01*
X119730653Y-117918837D01*
X119741260Y-117911037D01*
X119758486Y-117890908D01*
X119779041Y-117862396D01*
X119784246Y-117854527D01*
X119825636Y-117790847D01*
X119805463Y-117752452D01*
X119773807Y-117700571D01*
X119729485Y-117640169D01*
X119674995Y-117574259D01*
X119612830Y-117505855D01*
X119545488Y-117437971D01*
X119543229Y-117435796D01*
X119504359Y-117398124D01*
X119470779Y-117364990D01*
X119444712Y-117338634D01*
X119428380Y-117321299D01*
X119423809Y-117315361D01*
X119431436Y-117309688D01*
X119452379Y-117313328D01*
X119483730Y-117325609D01*
X119497951Y-117332494D01*
X119545169Y-117362028D01*
X119598838Y-117405010D01*
X119655916Y-117458368D01*
X119713360Y-117519031D01*
X119768126Y-117583929D01*
X119817172Y-117649990D01*
X119827047Y-117664609D01*
X119849479Y-117696863D01*
X119868970Y-117721972D01*
X119882651Y-117736373D01*
X119886503Y-117738446D01*
X119904249Y-117729562D01*
X119923718Y-117704744D01*
X119942907Y-117666744D01*
X119944308Y-117663241D01*
X120016562Y-117663241D01*
X120046376Y-117656967D01*
X120069371Y-117650654D01*
X120083209Y-117644190D01*
X120083298Y-117644110D01*
X120091488Y-117627297D01*
X120098485Y-117595669D01*
X120103826Y-117553450D01*
X120107047Y-117504864D01*
X120107687Y-117454137D01*
X120106871Y-117428806D01*
X120103572Y-117390873D01*
X120097661Y-117348769D01*
X120089971Y-117306216D01*
X120081337Y-117266936D01*
X120072591Y-117234650D01*
X120064567Y-117213079D01*
X120058099Y-117205945D01*
X120057091Y-117206553D01*
X120056535Y-117216981D01*
X120058241Y-117241381D01*
X120061844Y-117274852D01*
X120062646Y-117281311D01*
X120066386Y-117346227D01*
X120063504Y-117421611D01*
X120054640Y-117500314D01*
X120040436Y-117575188D01*
X120034076Y-117600058D01*
X120016562Y-117663241D01*
X119944308Y-117663241D01*
X119947970Y-117654082D01*
X119966351Y-117605688D01*
X119936840Y-117522045D01*
X119871067Y-117363793D01*
X119788071Y-117211742D01*
X119773582Y-117190622D01*
X120042857Y-117190622D01*
X120047619Y-117195386D01*
X120052380Y-117190622D01*
X120047619Y-117185858D01*
X120042857Y-117190622D01*
X119773582Y-117190622D01*
X119689113Y-117067491D01*
X119575453Y-116932640D01*
X119448352Y-116808786D01*
X119309071Y-116697529D01*
X119259603Y-116663149D01*
X119118135Y-116577737D01*
X118966729Y-116503682D01*
X118807210Y-116441069D01*
X118641403Y-116389983D01*
X118471132Y-116350510D01*
X118298223Y-116322736D01*
X118124499Y-116306746D01*
X117951787Y-116302627D01*
X117781910Y-116310463D01*
X117616693Y-116330340D01*
X117457962Y-116362344D01*
X117307540Y-116406560D01*
X117167253Y-116463075D01*
X117038925Y-116531973D01*
X117000000Y-116557112D01*
X116937406Y-116604992D01*
X116876787Y-116661553D01*
X116822213Y-116722358D01*
X116777753Y-116782968D01*
X116753202Y-116826234D01*
X116737377Y-116860411D01*
X116725444Y-116888587D01*
X116719408Y-116905945D01*
X116719047Y-116908297D01*
X116725857Y-116907556D01*
X116744195Y-116896669D01*
X116770923Y-116877647D01*
X116790835Y-116862252D01*
X116849949Y-116818241D01*
X116910926Y-116778158D01*
X116970614Y-116743676D01*
X117025860Y-116716468D01*
X117073512Y-116698205D01*
X117110419Y-116690562D01*
X117114638Y-116690434D01*
X117132514Y-116692594D01*
X117135785Y-116699608D01*
X117123743Y-116712278D01*
X117095679Y-116731407D01*
X117059523Y-116752872D01*
X116954134Y-116817091D01*
X116864363Y-116880448D01*
X116787090Y-116945499D01*
X116719194Y-117014798D01*
X116675510Y-117067286D01*
X116608383Y-117160411D01*
X116557140Y-117247266D01*
X116522084Y-117327204D01*
X116503518Y-117399578D01*
X116500429Y-117441719D01*
X116404962Y-117441719D01*
X116404962Y-117440023D01*
X116413321Y-117356434D01*
X116438258Y-117270039D01*
X116480199Y-117179782D01*
X116539572Y-117084604D01*
X116560053Y-117056012D01*
X116590210Y-117008705D01*
X116606293Y-116966805D01*
X116608808Y-116953885D01*
X116623507Y-116884673D01*
X116647116Y-116818526D01*
X116681034Y-116753315D01*
X116726662Y-116686913D01*
X116785401Y-116617191D01*
X116858650Y-116542021D01*
X116914313Y-116489592D01*
X116939569Y-116465230D01*
X116973136Y-116431176D01*
X117001991Y-116400989D01*
X117131298Y-116400989D01*
X117140925Y-116399095D01*
X117164194Y-116391381D01*
X117197113Y-116379229D01*
X117219635Y-116370461D01*
X117298640Y-116342451D01*
X117390691Y-116315304D01*
X117489802Y-116290528D01*
X117589984Y-116269633D01*
X117676190Y-116255382D01*
X117764278Y-116245960D01*
X117865568Y-116240184D01*
X117974575Y-116238014D01*
X118085813Y-116239409D01*
X118193796Y-116244329D01*
X118293039Y-116252733D01*
X118352380Y-116260364D01*
X118547558Y-116296928D01*
X118735021Y-116345978D01*
X118825809Y-116375342D01*
X118989716Y-116440537D01*
X119148262Y-116520228D01*
X119298986Y-116612725D01*
X119439428Y-116716341D01*
X119567126Y-116829384D01*
X119679619Y-116950165D01*
X119700787Y-116975988D01*
X119727629Y-117007935D01*
X119751352Y-117033328D01*
X119768821Y-117048962D01*
X119775565Y-117052386D01*
X119791760Y-117049976D01*
X119819343Y-117043659D01*
X119843207Y-117037323D01*
X119909194Y-117009654D01*
X119965528Y-116967528D01*
X120008966Y-116913542D01*
X120018084Y-116897227D01*
X120040333Y-116833320D01*
X120046634Y-116761656D01*
X120037162Y-116684624D01*
X120012091Y-116604615D01*
X119993738Y-116564197D01*
X119983510Y-116540125D01*
X119984692Y-116533233D01*
X119995238Y-116533233D01*
X119999999Y-116537996D01*
X120004761Y-116533233D01*
X119999999Y-116528469D01*
X119995238Y-116533233D01*
X119984692Y-116533233D01*
X119985474Y-116528678D01*
X120001233Y-116526640D01*
X120011904Y-116527758D01*
X120022882Y-116523075D01*
X120023809Y-116519359D01*
X120030866Y-116511618D01*
X120034935Y-116511796D01*
X120047222Y-116506183D01*
X120057179Y-116492868D01*
X120062566Y-116484364D01*
X120069083Y-116481754D01*
X120079306Y-116486726D01*
X120095811Y-116500966D01*
X120121173Y-116526164D01*
X120144419Y-116550032D01*
X120244907Y-116661645D01*
X120339997Y-116782694D01*
X120385725Y-116847652D01*
X120431621Y-116915693D01*
X120399797Y-116941095D01*
X120378830Y-116963237D01*
X120356036Y-116995503D01*
X120338817Y-117026159D01*
X120310509Y-117104600D01*
X120296752Y-117191139D01*
X120296855Y-117282445D01*
X120310127Y-117375187D01*
X120335877Y-117466036D01*
X120373414Y-117551659D01*
X120422048Y-117628727D01*
X120476422Y-117689608D01*
X120526411Y-117731066D01*
X120571661Y-117756934D01*
X120585629Y-117762236D01*
X120616686Y-117774992D01*
X120629859Y-117786519D01*
X120629893Y-117790835D01*
X120615137Y-117833417D01*
X120608994Y-117864477D01*
X120611016Y-117889252D01*
X120619583Y-117910774D01*
X120636493Y-117943285D01*
X120648965Y-117914703D01*
X120657242Y-117893408D01*
X120843883Y-117893408D01*
X120850127Y-117931103D01*
X120866329Y-117968475D01*
X120892238Y-118001550D01*
X120899435Y-118008040D01*
X120926920Y-118027626D01*
X120948055Y-118032289D01*
X120967772Y-118022458D01*
X120976190Y-118014740D01*
X120992456Y-117987067D01*
X120996708Y-117952494D01*
X120990758Y-117915037D01*
X120976420Y-117878711D01*
X120955506Y-117847529D01*
X120929829Y-117825507D01*
X120901202Y-117816659D01*
X120887416Y-117818150D01*
X120862276Y-117832956D01*
X120847848Y-117859368D01*
X120843883Y-117893408D01*
X120657242Y-117893408D01*
X120657606Y-117892471D01*
X120669701Y-117858284D01*
X120683061Y-117818388D01*
X120687342Y-117805138D01*
X120698851Y-117766543D01*
X120706426Y-117732615D01*
X120710865Y-117697259D01*
X120712965Y-117654377D01*
X120713513Y-117605063D01*
X120704535Y-117465975D01*
X120676947Y-117324738D01*
X120630698Y-117181204D01*
X120565735Y-117035223D01*
X120482006Y-116886649D01*
X120440260Y-116821985D01*
X120379458Y-116733773D01*
X120322598Y-116657362D01*
X120265309Y-116587409D01*
X120203221Y-116518569D01*
X120133827Y-116447357D01*
X119979909Y-116305870D01*
X119820104Y-116182396D01*
X119654505Y-116076981D01*
X119483205Y-115989672D01*
X119306295Y-115920514D01*
X119123869Y-115869553D01*
X118936018Y-115836836D01*
X118907518Y-115833520D01*
X118844651Y-115828501D01*
X118768609Y-115825287D01*
X118685177Y-115823881D01*
X118600140Y-115824283D01*
X118519284Y-115826494D01*
X118448397Y-115830515D01*
X118416291Y-115833440D01*
X118258754Y-115856394D01*
X118098697Y-115890907D01*
X117939617Y-115935752D01*
X117785012Y-115989706D01*
X117638379Y-116051544D01*
X117503215Y-116120041D01*
X117383019Y-116193972D01*
X117379127Y-116196642D01*
X117345089Y-116221019D01*
X117306542Y-116250122D01*
X117266180Y-116281732D01*
X117226692Y-116313628D01*
X117190770Y-116343593D01*
X117161105Y-116369406D01*
X117140390Y-116388849D01*
X117131315Y-116399703D01*
X117131298Y-116400989D01*
X117001991Y-116400989D01*
X117010634Y-116391947D01*
X117047619Y-116352129D01*
X117140859Y-116257991D01*
X117240487Y-116173558D01*
X117350020Y-116096255D01*
X117472973Y-116023506D01*
X117554472Y-115981062D01*
X117736148Y-115899993D01*
X117924743Y-115833953D01*
X118118304Y-115783098D01*
X118314881Y-115747583D01*
X118512522Y-115727564D01*
X118709274Y-115723196D01*
X118903186Y-115734634D01*
G37*
D14*
%TO.C,R20*%
X173853641Y-94820000D02*
X173546359Y-94820000D01*
X173853641Y-95580000D02*
X173546359Y-95580000D01*
%TO.C,R19*%
X173843641Y-93755000D02*
X173536359Y-93755000D01*
X173843641Y-94515000D02*
X173536359Y-94515000D01*
%TO.C,C5*%
X124640000Y-109372164D02*
X124640000Y-109587836D01*
X125360000Y-109372164D02*
X125360000Y-109587836D01*
%TD*%
G36*
X166885133Y-118284132D02*
G01*
X166897633Y-118321632D01*
X166897633Y-118577633D01*
X167470133Y-118577633D01*
X167514327Y-118595939D01*
X167532633Y-118640133D01*
X167532633Y-119023133D01*
X167514327Y-119067327D01*
X167470133Y-119085633D01*
X166897633Y-119085633D01*
X166897633Y-119341633D01*
X166879327Y-119385827D01*
X166835133Y-119404133D01*
X166797633Y-119391633D01*
X166117632Y-118881633D01*
X166093260Y-118840472D01*
X166105132Y-118794133D01*
X166117632Y-118781633D01*
X166797633Y-118271632D01*
X166843972Y-118259760D01*
X166885133Y-118284132D01*
G37*
G36*
X168461133Y-116507132D02*
G01*
X168473633Y-116519632D01*
X168983633Y-117199633D01*
X168995505Y-117245972D01*
X168971133Y-117287133D01*
X168933633Y-117299633D01*
X168677633Y-117299633D01*
X168677633Y-117872133D01*
X168659327Y-117916327D01*
X168615133Y-117934633D01*
X168232133Y-117934633D01*
X168187939Y-117916327D01*
X168169633Y-117872133D01*
X168169633Y-117299633D01*
X167913633Y-117299633D01*
X167869439Y-117281327D01*
X167851133Y-117237133D01*
X167863633Y-117199633D01*
X168373633Y-116519632D01*
X168414794Y-116495260D01*
X168461133Y-116507132D01*
G37*
M02*
