%TF.GenerationSoftware,KiCad,Pcbnew,9.0.6*%
%TF.CreationDate,2026-01-19T17:08:54-06:00*%
%TF.ProjectId,wearable,77656172-6162-46c6-952e-6b696361645f,rev?*%
%TF.SameCoordinates,Original*%
%TF.FileFunction,Copper,L2,Inr*%
%TF.FilePolarity,Positive*%
%FSLAX46Y46*%
G04 Gerber Fmt 4.6, Leading zero omitted, Abs format (unit mm)*
G04 Created by KiCad (PCBNEW 9.0.6) date 2026-01-19 17:08:54*
%MOMM*%
%LPD*%
G01*
G04 APERTURE LIST*
G04 Aperture macros list*
%AMRoundRect*
0 Rectangle with rounded corners*
0 $1 Rounding radius*
0 $2 $3 $4 $5 $6 $7 $8 $9 X,Y pos of 4 corners*
0 Add a 4 corners polygon primitive as box body*
4,1,4,$2,$3,$4,$5,$6,$7,$8,$9,$2,$3,0*
0 Add four circle primitives for the rounded corners*
1,1,$1+$1,$2,$3*
1,1,$1+$1,$4,$5*
1,1,$1+$1,$6,$7*
1,1,$1+$1,$8,$9*
0 Add four rect primitives between the rounded corners*
20,1,$1+$1,$2,$3,$4,$5,0*
20,1,$1+$1,$4,$5,$6,$7,0*
20,1,$1+$1,$6,$7,$8,$9,0*
20,1,$1+$1,$8,$9,$2,$3,0*%
G04 Aperture macros list end*
%TA.AperFunction,ComponentPad*%
%ADD10C,1.000000*%
%TD*%
%TA.AperFunction,ComponentPad*%
%ADD11C,1.400000*%
%TD*%
%TA.AperFunction,ComponentPad*%
%ADD12C,4.318000*%
%TD*%
%TA.AperFunction,ComponentPad*%
%ADD13R,0.850000X0.850000*%
%TD*%
%TA.AperFunction,ComponentPad*%
%ADD14R,1.000000X1.000000*%
%TD*%
%TA.AperFunction,ComponentPad*%
%ADD15R,1.700000X1.700000*%
%TD*%
%TA.AperFunction,ComponentPad*%
%ADD16C,1.700000*%
%TD*%
%TA.AperFunction,ComponentPad*%
%ADD17RoundRect,0.250000X-0.350000X-0.625000X0.350000X-0.625000X0.350000X0.625000X-0.350000X0.625000X0*%
%TD*%
%TA.AperFunction,ComponentPad*%
%ADD18O,1.200000X1.750000*%
%TD*%
%TA.AperFunction,HeatsinkPad*%
%ADD19C,0.500000*%
%TD*%
%TA.AperFunction,ViaPad*%
%ADD20C,0.600000*%
%TD*%
G04 APERTURE END LIST*
D10*
%TO.N,DRDY*%
%TO.C,TP8*%
X142000000Y-91500000D03*
%TD*%
%TO.N,SCK*%
%TO.C,TP14*%
X144500000Y-90500000D03*
%TD*%
D11*
%TO.N,AVDD*%
%TO.C,TP2*%
X123000000Y-88000000D03*
X125000000Y-88000000D03*
%TD*%
D10*
%TO.N,INT_BNO085*%
%TO.C,TP6*%
X139500000Y-115500000D03*
%TD*%
D12*
%TO.N,unconnected-(H4-Hole-Pad1)*%
%TO.C,H4*%
X186850000Y-117000000D03*
%TD*%
D10*
%TO.N,SCL*%
%TO.C,TP15*%
X153500000Y-88750000D03*
%TD*%
D12*
%TO.N,unconnected-(H1-Hole-Pad1)*%
%TO.C,H1*%
X112600000Y-86000000D03*
%TD*%
D10*
%TO.N,RST_ADS1299*%
%TO.C,TP4*%
X137360000Y-88000000D03*
%TD*%
%TO.N,START_ADS1299*%
%TO.C,TP3*%
X134500000Y-88000000D03*
%TD*%
D13*
%TO.N,Net-(E3-Pad1)*%
%TO.C,E3*%
X113850000Y-101950000D03*
%TD*%
D10*
%TO.N,MISO*%
%TO.C,TP11*%
X143000000Y-114000000D03*
%TD*%
%TO.N,CS_ADS1299*%
%TO.C,TP5*%
X137500000Y-114000000D03*
%TD*%
%TO.N,BOOT_BNO085*%
%TO.C,TP10*%
X143500000Y-111000000D03*
%TD*%
%TO.N,MOSI*%
%TO.C,TP9*%
X141500000Y-111500000D03*
%TD*%
%TO.N,SDA*%
%TO.C,TP13*%
X175000000Y-98000000D03*
%TD*%
D13*
%TO.N,Net-(E1-Pad1)*%
%TO.C,E1*%
X113850000Y-95850000D03*
%TD*%
%TO.N,Net-(U1-BIASIN)*%
%TO.C,E5*%
X113850000Y-108250000D03*
%TD*%
D10*
%TO.N,RST_BNO085*%
%TO.C,TP12*%
X145000000Y-108500000D03*
%TD*%
D13*
%TO.N,Net-(E4-Pad1)*%
%TO.C,E4*%
X113850000Y-105000000D03*
%TD*%
D11*
%TO.N,AVSS*%
%TO.C,TP1*%
X117500000Y-88000000D03*
X119500000Y-88000000D03*
%TD*%
D12*
%TO.N,unconnected-(H3-Hole-Pad1)*%
%TO.C,H3*%
X186850000Y-86000000D03*
%TD*%
D14*
%TO.N,AVSS*%
%TO.C,SW1*%
X186250000Y-109000000D03*
D10*
%TO.N,Net-(U4-SHPHLD)*%
X186250000Y-107730000D03*
%TD*%
%TO.N,PWDWN_ADS1299*%
%TO.C,TP7*%
X141000000Y-88000000D03*
%TD*%
D12*
%TO.N,unconnected-(H2-Hole-Pad1)*%
%TO.C,H2*%
X112600000Y-117000000D03*
%TD*%
D15*
%TO.N,unconnected-(J1-Pin_1-Pad1)*%
%TO.C,J1*%
X162350000Y-87750000D03*
D16*
%TO.N,+5V_USB*%
X164890000Y-87750000D03*
%TO.N,unconnected-(J1-Pin_3-Pad3)*%
X167430000Y-87750000D03*
%TO.N,Net-(J1-Pin_4)*%
X169970000Y-87750000D03*
%TO.N,unconnected-(J1-Pin_5-Pad5)*%
X172510000Y-87750000D03*
%TO.N,unconnected-(J1-Pin_6-Pad6)*%
X175050000Y-87750000D03*
%TO.N,unconnected-(J1-Pin_7-Pad7)*%
X177590000Y-87750000D03*
%TO.N,Net-(J1-Pin_8)*%
X180130000Y-87750000D03*
%TD*%
D17*
%TO.N,Net-(BT1-+)*%
%TO.C,BT1*%
X179500000Y-111550000D03*
D18*
%TO.N,AVSS*%
X181500000Y-111550000D03*
%TD*%
D19*
%TO.N,AVSS*%
%TO.C,U4*%
X166500000Y-96000000D03*
X167500000Y-96000000D03*
X168500000Y-96000000D03*
X166500000Y-95000000D03*
X167500000Y-95000000D03*
X168500000Y-95000000D03*
X166500000Y-94000000D03*
X167500000Y-94000000D03*
X168500000Y-94000000D03*
%TD*%
D11*
%TO.N,AVSS*%
%TO.C,IC1*%
X139500000Y-105460000D03*
%TO.N,Net-(U1-VREFP)*%
X139500000Y-108000000D03*
%TO.N,AVSS*%
X139500000Y-110540000D03*
%TD*%
D13*
%TO.N,Net-(E2-Pad1)*%
%TO.C,E2*%
X113850000Y-98900000D03*
%TD*%
D20*
%TO.N,GPIO3*%
X151000000Y-108000000D03*
%TO.N,GPIO4*%
X152000000Y-107500000D03*
%TO.N,AVSS*%
X147350000Y-93000000D03*
X180500000Y-89398000D03*
X157777005Y-87508332D03*
X162000000Y-98000000D03*
X159750000Y-102019880D03*
X128895000Y-114395000D03*
X161900000Y-113000000D03*
X185500000Y-92980000D03*
X134500000Y-106000000D03*
X184900000Y-98449000D03*
X141500000Y-98000000D03*
X158000000Y-103000000D03*
X184750000Y-102500000D03*
X124000000Y-109000000D03*
X154750000Y-95750000D03*
X158250000Y-100250000D03*
X142171000Y-88949000D03*
X141500000Y-96500000D03*
%TO.N,Net-(BT1-+)*%
X169000000Y-90500000D03*
%TO.N,AVDD*%
X124750000Y-101500000D03*
X182660735Y-92009265D03*
X125250000Y-111500000D03*
X126350000Y-104750000D03*
X127540000Y-90540000D03*
X188250000Y-97500000D03*
X127520000Y-113480000D03*
X131000000Y-92600000D03*
X129000000Y-93000000D03*
%TO.N,+3V3*%
X139500000Y-93000000D03*
X146250000Y-105250000D03*
X136000000Y-106000000D03*
X177000000Y-108500000D03*
X158250000Y-104000000D03*
X169750000Y-101250000D03*
X157000000Y-91000000D03*
X180250000Y-107000000D03*
X147500000Y-99000000D03*
%TO.N,+5V3*%
X180000000Y-101700000D03*
X178090000Y-92410000D03*
%TO.N,RESET*%
X165750000Y-110750000D03*
X158877983Y-105616051D03*
%TO.N,INT_BNO085*%
X143992830Y-103604964D03*
X145075735Y-110924265D03*
X154750000Y-112420000D03*
%TO.N,BOOT_BNO085*%
X152812500Y-113625000D03*
X143200681Y-103493142D03*
%TO.N,PWDWN_ADS1299*%
X132400000Y-103100000D03*
%TO.N,RST_BNO085*%
X145000000Y-104500000D03*
X152814500Y-112314500D03*
%TO.N,START_ADS1299*%
X130750000Y-101000000D03*
%TO.N,RST_ADS1299*%
X131400000Y-102000000D03*
%TO.N,MISO*%
X146124265Y-110275736D03*
X138000000Y-99500000D03*
X148500000Y-106000000D03*
%TO.N,MOSI*%
X152500000Y-111500000D03*
X147000000Y-107500000D03*
%TO.N,SCL*%
X167979772Y-115456944D03*
X175000000Y-93121000D03*
X158468289Y-106303186D03*
X169687500Y-116400000D03*
%TO.N,SDA*%
X158341530Y-107425901D03*
X173500000Y-95385000D03*
%TO.N,SCK*%
X142851000Y-109149000D03*
X133000000Y-99500000D03*
X142750000Y-106900000D03*
X142000000Y-101000000D03*
%TO.N,CS_ADS1299*%
X133000000Y-101000000D03*
X155800003Y-112420000D03*
%TO.N,DRDY*%
X137000000Y-96500000D03*
X142900000Y-105242711D03*
X143000000Y-100500000D03*
X143000000Y-94000000D03*
%TO.N,GPIO1*%
X149000000Y-109000000D03*
X172000000Y-119000000D03*
%TO.N,GPIO0*%
X148000000Y-109000000D03*
X170750000Y-119000000D03*
%TO.N,Net-(U2-DECA)*%
X154499460Y-97230281D03*
X153000000Y-97730000D03*
X153000000Y-95000000D03*
X156500000Y-100250000D03*
%TO.N,Net-(J1-Pin_8)*%
X164500000Y-90500000D03*
%TO.N,Net-(J1-Pin_4)*%
X165500000Y-90500000D03*
%TO.N,GPIO3*%
X173625000Y-117625000D03*
%TO.N,GPIO2*%
X149758949Y-108650000D03*
X172875000Y-118375000D03*
%TO.N,GPIO4*%
X174250000Y-117000000D03*
%TO.N,Net-(U1-BIASIN)*%
X121000000Y-107500000D03*
X128750000Y-99750000D03*
%TO.N,Net-(U1-BIASINV)*%
X121125000Y-108375000D03*
X130250000Y-99750000D03*
%TO.N,Net-(U1-VREFP)*%
X137400000Y-112000000D03*
X130500000Y-110000000D03*
%TO.N,Net-(U4-VOUT2)*%
X163750000Y-98050000D03*
X170500000Y-100250000D03*
%TO.N,Net-(U4-SHPHLD)*%
X180500000Y-90650000D03*
%TO.N,+3V3*%
X153500000Y-106080001D03*
%TO.N,AVSS*%
X156250000Y-108750000D03*
%TD*%
%TA.AperFunction,Conductor*%
%TO.N,AVSS*%
G36*
X167388280Y-94742471D02*
G01*
X167426129Y-94750000D01*
X167573870Y-94750000D01*
X167611718Y-94742471D01*
X167644396Y-94745395D01*
X167677163Y-94747151D01*
X167679024Y-94748493D01*
X167681310Y-94748698D01*
X167707214Y-94768820D01*
X167733835Y-94788016D01*
X167734675Y-94790152D01*
X167736488Y-94791560D01*
X167747405Y-94822506D01*
X167759417Y-94853034D01*
X167759253Y-94856089D01*
X167759733Y-94857449D01*
X167757529Y-94888278D01*
X167750000Y-94926131D01*
X167750000Y-95073868D01*
X167757529Y-95111721D01*
X167751300Y-95181312D01*
X167708437Y-95236489D01*
X167642547Y-95259733D01*
X167611721Y-95257529D01*
X167573869Y-95250000D01*
X167426131Y-95250000D01*
X167388278Y-95257529D01*
X167318686Y-95251300D01*
X167263509Y-95208437D01*
X167240266Y-95142547D01*
X167242471Y-95111718D01*
X167250000Y-95073870D01*
X167250000Y-94926128D01*
X167242471Y-94888280D01*
X167248698Y-94818689D01*
X167291560Y-94763511D01*
X167357450Y-94740266D01*
X167388280Y-94742471D01*
G37*
%TD.AperFunction*%
%TA.AperFunction,Conductor*%
G36*
X184648970Y-83520185D02*
G01*
X184694725Y-83572989D01*
X184704669Y-83642147D01*
X184675644Y-83705703D01*
X184669612Y-83712181D01*
X184490431Y-83891361D01*
X184269175Y-84168808D01*
X184080371Y-84469287D01*
X183926410Y-84788991D01*
X183926401Y-84789013D01*
X183809201Y-85123948D01*
X183809197Y-85123960D01*
X183730233Y-85469926D01*
X183730231Y-85469942D01*
X183690500Y-85822561D01*
X183690500Y-86177438D01*
X183730231Y-86530057D01*
X183730233Y-86530073D01*
X183809197Y-86876039D01*
X183809201Y-86876051D01*
X183926401Y-87210986D01*
X183926410Y-87211008D01*
X184080371Y-87530712D01*
X184080375Y-87530718D01*
X184269176Y-87831193D01*
X184403795Y-88000000D01*
X184483101Y-88099447D01*
X184490432Y-88108639D01*
X184741361Y-88359568D01*
X185018807Y-88580824D01*
X185161346Y-88670387D01*
X185319287Y-88769628D01*
X185638991Y-88923589D01*
X185639000Y-88923592D01*
X185639007Y-88923596D01*
X185705268Y-88946782D01*
X185973948Y-89040798D01*
X185973960Y-89040802D01*
X186319930Y-89119767D01*
X186672562Y-89159499D01*
X186672563Y-89159500D01*
X186672566Y-89159500D01*
X187027437Y-89159500D01*
X187027437Y-89159499D01*
X187380070Y-89119767D01*
X187726040Y-89040802D01*
X188060993Y-88923596D01*
X188176239Y-88868097D01*
X188380712Y-88769628D01*
X188380712Y-88769627D01*
X188380718Y-88769625D01*
X188681193Y-88580824D01*
X188958639Y-88359568D01*
X189209568Y-88108639D01*
X189216899Y-88099447D01*
X189278553Y-88022135D01*
X189335741Y-87981994D01*
X189405552Y-87979144D01*
X189465822Y-88014489D01*
X189497416Y-88076808D01*
X189499500Y-88099447D01*
X189499500Y-96625613D01*
X189479815Y-96692652D01*
X189427011Y-96738407D01*
X189357853Y-96748351D01*
X189294297Y-96719326D01*
X189275182Y-96698498D01*
X189241971Y-96652786D01*
X189097213Y-96508028D01*
X188931613Y-96387715D01*
X188931612Y-96387714D01*
X188931610Y-96387713D01*
X188859294Y-96350866D01*
X188749223Y-96294781D01*
X188554534Y-96231522D01*
X188379995Y-96203878D01*
X188352352Y-96199500D01*
X188147648Y-96199500D01*
X188123329Y-96203351D01*
X187945465Y-96231522D01*
X187750776Y-96294781D01*
X187568386Y-96387715D01*
X187402786Y-96508028D01*
X187258028Y-96652786D01*
X187137715Y-96818386D01*
X187044781Y-97000776D01*
X186981522Y-97195465D01*
X186949500Y-97397648D01*
X186949500Y-97602351D01*
X186981522Y-97804534D01*
X187044781Y-97999223D01*
X187097126Y-98101954D01*
X187123026Y-98152786D01*
X187137715Y-98181613D01*
X187258028Y-98347213D01*
X187402786Y-98491971D01*
X187520124Y-98577220D01*
X187568390Y-98612287D01*
X187647864Y-98652781D01*
X187750776Y-98705218D01*
X187750778Y-98705218D01*
X187750781Y-98705220D01*
X187855137Y-98739127D01*
X187945465Y-98768477D01*
X188046557Y-98784488D01*
X188147648Y-98800500D01*
X188147649Y-98800500D01*
X188352351Y-98800500D01*
X188352352Y-98800500D01*
X188554534Y-98768477D01*
X188749219Y-98705220D01*
X188931610Y-98612287D01*
X189024590Y-98544732D01*
X189097213Y-98491971D01*
X189097215Y-98491968D01*
X189097219Y-98491966D01*
X189241966Y-98347219D01*
X189242635Y-98346299D01*
X189275181Y-98301502D01*
X189330510Y-98258836D01*
X189400123Y-98252855D01*
X189461919Y-98285460D01*
X189496277Y-98346299D01*
X189499500Y-98374386D01*
X189499500Y-114900552D01*
X189479815Y-114967591D01*
X189427011Y-115013346D01*
X189357853Y-115023290D01*
X189294297Y-114994265D01*
X189278553Y-114977865D01*
X189209568Y-114891361D01*
X188958638Y-114640431D01*
X188877834Y-114575992D01*
X188681193Y-114419176D01*
X188502045Y-114306610D01*
X188380712Y-114230371D01*
X188061008Y-114076410D01*
X188060986Y-114076401D01*
X187726051Y-113959201D01*
X187726039Y-113959197D01*
X187380073Y-113880233D01*
X187380057Y-113880231D01*
X187027438Y-113840500D01*
X187027434Y-113840500D01*
X186672566Y-113840500D01*
X186672561Y-113840500D01*
X186319942Y-113880231D01*
X186319926Y-113880233D01*
X185973960Y-113959197D01*
X185973948Y-113959201D01*
X185639013Y-114076401D01*
X185638991Y-114076410D01*
X185319287Y-114230371D01*
X185018808Y-114419175D01*
X184741361Y-114640431D01*
X184490431Y-114891361D01*
X184269175Y-115168808D01*
X184080371Y-115469287D01*
X183926410Y-115788991D01*
X183926401Y-115789013D01*
X183809201Y-116123948D01*
X183809197Y-116123960D01*
X183730233Y-116469926D01*
X183730231Y-116469942D01*
X183690500Y-116822561D01*
X183690500Y-117177438D01*
X183730231Y-117530057D01*
X183730233Y-117530073D01*
X183809197Y-117876039D01*
X183809201Y-117876051D01*
X183926401Y-118210986D01*
X183926410Y-118211008D01*
X184080371Y-118530712D01*
X184080375Y-118530718D01*
X184269176Y-118831193D01*
X184387163Y-118979144D01*
X184490431Y-119108638D01*
X184669612Y-119287819D01*
X184703097Y-119349142D01*
X184698113Y-119418834D01*
X184656241Y-119474767D01*
X184590777Y-119499184D01*
X184581931Y-119499500D01*
X173889047Y-119499500D01*
X173822008Y-119479815D01*
X173776253Y-119427011D01*
X173766309Y-119357853D01*
X173795334Y-119294297D01*
X173801366Y-119287819D01*
X173866966Y-119222219D01*
X173866968Y-119222215D01*
X173866971Y-119222213D01*
X173987284Y-119056614D01*
X173987283Y-119056614D01*
X173987287Y-119056610D01*
X174076780Y-118880969D01*
X174124755Y-118830174D01*
X174130970Y-118826780D01*
X174306610Y-118737287D01*
X174364174Y-118695465D01*
X174472213Y-118616971D01*
X174472215Y-118616968D01*
X174472219Y-118616966D01*
X174616966Y-118472219D01*
X174737287Y-118306610D01*
X174784587Y-118213774D01*
X174832559Y-118162981D01*
X174838740Y-118159605D01*
X174931610Y-118112287D01*
X175097219Y-117991966D01*
X175241966Y-117847219D01*
X175241968Y-117847215D01*
X175241971Y-117847213D01*
X175326621Y-117730700D01*
X175362287Y-117681610D01*
X175455220Y-117499219D01*
X175518477Y-117304534D01*
X175550500Y-117102352D01*
X175550500Y-116897648D01*
X175532396Y-116783343D01*
X175518477Y-116695465D01*
X175455218Y-116500776D01*
X175409588Y-116411223D01*
X175362287Y-116318390D01*
X175339069Y-116286433D01*
X175241971Y-116152786D01*
X175097213Y-116008028D01*
X174931613Y-115887715D01*
X174931612Y-115887714D01*
X174931610Y-115887713D01*
X174860279Y-115851368D01*
X174749223Y-115794781D01*
X174554534Y-115731522D01*
X174379995Y-115703878D01*
X174352352Y-115699500D01*
X174147648Y-115699500D01*
X174123329Y-115703351D01*
X173945465Y-115731522D01*
X173750776Y-115794781D01*
X173568386Y-115887715D01*
X173402786Y-116008028D01*
X173258028Y-116152786D01*
X173137713Y-116318388D01*
X173090411Y-116411223D01*
X173042437Y-116462018D01*
X173036223Y-116465411D01*
X172943388Y-116512713D01*
X172777786Y-116633028D01*
X172633028Y-116777786D01*
X172512715Y-116943385D01*
X172423220Y-117119030D01*
X172375245Y-117169826D01*
X172369035Y-117173217D01*
X172324075Y-117196125D01*
X172193385Y-117262715D01*
X172027786Y-117383028D01*
X171883034Y-117527780D01*
X171826773Y-117605218D01*
X171771270Y-117681613D01*
X171770252Y-117683014D01*
X171714922Y-117725680D01*
X171698893Y-117730700D01*
X171695468Y-117731522D01*
X171500780Y-117794779D01*
X171431294Y-117830184D01*
X171362625Y-117843080D01*
X171318706Y-117830184D01*
X171249219Y-117794779D01*
X171054536Y-117731523D01*
X170919746Y-117710174D01*
X170852352Y-117699500D01*
X170647648Y-117699500D01*
X170472090Y-117727305D01*
X170402797Y-117718350D01*
X170349345Y-117673354D01*
X170328706Y-117606602D01*
X170347431Y-117539289D01*
X170379806Y-117504515D01*
X170534719Y-117391966D01*
X170679466Y-117247219D01*
X170679468Y-117247215D01*
X170679471Y-117247213D01*
X170784717Y-117102352D01*
X170799787Y-117081610D01*
X170892720Y-116899219D01*
X170955977Y-116704534D01*
X170988000Y-116502352D01*
X170988000Y-116297648D01*
X170955977Y-116095466D01*
X170892720Y-115900781D01*
X170892718Y-115900778D01*
X170892718Y-115900776D01*
X170838710Y-115794781D01*
X170799787Y-115718390D01*
X170786063Y-115699500D01*
X170679471Y-115552786D01*
X170534713Y-115408028D01*
X170369113Y-115287715D01*
X170369112Y-115287714D01*
X170369110Y-115287713D01*
X170312153Y-115258691D01*
X170186723Y-115194781D01*
X169992034Y-115131522D01*
X169817495Y-115103878D01*
X169789852Y-115099500D01*
X169585148Y-115099500D01*
X169517754Y-115110174D01*
X169382964Y-115131523D01*
X169382960Y-115131524D01*
X169372902Y-115134792D01*
X169303061Y-115136785D01*
X169243229Y-115100704D01*
X169216656Y-115055178D01*
X169203064Y-115013346D01*
X169184992Y-114957725D01*
X169092059Y-114775334D01*
X169084328Y-114764693D01*
X168971743Y-114609730D01*
X168826985Y-114464972D01*
X168661385Y-114344659D01*
X168661384Y-114344658D01*
X168661382Y-114344657D01*
X168586711Y-114306610D01*
X168478995Y-114251725D01*
X168284306Y-114188466D01*
X168109767Y-114160822D01*
X168082124Y-114156444D01*
X167877420Y-114156444D01*
X167853101Y-114160295D01*
X167675237Y-114188466D01*
X167480548Y-114251725D01*
X167298158Y-114344659D01*
X167132558Y-114464972D01*
X166987800Y-114609730D01*
X166867487Y-114775330D01*
X166774553Y-114957720D01*
X166711294Y-115152409D01*
X166679272Y-115354592D01*
X166679272Y-115559295D01*
X166711294Y-115761478D01*
X166774553Y-115956167D01*
X166867487Y-116138557D01*
X166987800Y-116304157D01*
X167132558Y-116448915D01*
X167287521Y-116561500D01*
X167298162Y-116569231D01*
X167414379Y-116628447D01*
X167480548Y-116662162D01*
X167480550Y-116662162D01*
X167480553Y-116662164D01*
X167543966Y-116682768D01*
X167675237Y-116725421D01*
X167776329Y-116741432D01*
X167877420Y-116757444D01*
X167877421Y-116757444D01*
X168082123Y-116757444D01*
X168082124Y-116757444D01*
X168284306Y-116725421D01*
X168294364Y-116722152D01*
X168364200Y-116720154D01*
X168424035Y-116756231D01*
X168450614Y-116801763D01*
X168482280Y-116899219D01*
X168533885Y-117000500D01*
X168575215Y-117081613D01*
X168695528Y-117247213D01*
X168840286Y-117391971D01*
X168987903Y-117499219D01*
X169005890Y-117512287D01*
X169122107Y-117571503D01*
X169188276Y-117605218D01*
X169188278Y-117605218D01*
X169188281Y-117605220D01*
X169292637Y-117639127D01*
X169382965Y-117668477D01*
X169484057Y-117684488D01*
X169585148Y-117700500D01*
X169585149Y-117700500D01*
X169789851Y-117700500D01*
X169789852Y-117700500D01*
X169965408Y-117672694D01*
X170034701Y-117681648D01*
X170088153Y-117726645D01*
X170108793Y-117793396D01*
X170090068Y-117860710D01*
X170057691Y-117895485D01*
X169902787Y-118008028D01*
X169902782Y-118008032D01*
X169758028Y-118152786D01*
X169637715Y-118318386D01*
X169544781Y-118500776D01*
X169481522Y-118695465D01*
X169449500Y-118897648D01*
X169449500Y-119102351D01*
X169481523Y-119304535D01*
X169481524Y-119304542D01*
X169492130Y-119337183D01*
X169494125Y-119407024D01*
X169458044Y-119466857D01*
X169395343Y-119497684D01*
X169374199Y-119499500D01*
X114868069Y-119499500D01*
X114801030Y-119479815D01*
X114755275Y-119427011D01*
X114745331Y-119357853D01*
X114774356Y-119294297D01*
X114780388Y-119287819D01*
X114845994Y-119222213D01*
X114959568Y-119108639D01*
X115180824Y-118831193D01*
X115369625Y-118530718D01*
X115397797Y-118472219D01*
X115523589Y-118211008D01*
X115523590Y-118211004D01*
X115523596Y-118210993D01*
X115640802Y-117876040D01*
X115719767Y-117530070D01*
X115759500Y-117177434D01*
X115759500Y-116822566D01*
X115719767Y-116469930D01*
X115640802Y-116123960D01*
X115630831Y-116095466D01*
X115523598Y-115789013D01*
X115523589Y-115788991D01*
X115369628Y-115469287D01*
X115331140Y-115408034D01*
X115180824Y-115168807D01*
X114959568Y-114891361D01*
X114708639Y-114640432D01*
X114431193Y-114419176D01*
X114252045Y-114306610D01*
X114130712Y-114230371D01*
X113811008Y-114076410D01*
X113810986Y-114076401D01*
X113476051Y-113959201D01*
X113476039Y-113959197D01*
X113130073Y-113880233D01*
X113130057Y-113880231D01*
X112777438Y-113840500D01*
X112777434Y-113840500D01*
X112422566Y-113840500D01*
X112422561Y-113840500D01*
X112069942Y-113880231D01*
X112069926Y-113880233D01*
X111723960Y-113959197D01*
X111723948Y-113959201D01*
X111389013Y-114076401D01*
X111388991Y-114076410D01*
X111069287Y-114230371D01*
X110768808Y-114419175D01*
X110491361Y-114640431D01*
X110240431Y-114891361D01*
X110221447Y-114915167D01*
X110164258Y-114955307D01*
X110094447Y-114958157D01*
X110034177Y-114922811D01*
X110002584Y-114860492D01*
X110000500Y-114837854D01*
X110000500Y-113377648D01*
X126219500Y-113377648D01*
X126219500Y-113582351D01*
X126251522Y-113784534D01*
X126314781Y-113979223D01*
X126364297Y-114076401D01*
X126388663Y-114124223D01*
X126407715Y-114161613D01*
X126528028Y-114327213D01*
X126672786Y-114471971D01*
X126815962Y-114575992D01*
X126838390Y-114592287D01*
X126932878Y-114640431D01*
X127020776Y-114685218D01*
X127020778Y-114685218D01*
X127020781Y-114685220D01*
X127108021Y-114713566D01*
X127215465Y-114748477D01*
X127316557Y-114764488D01*
X127417648Y-114780500D01*
X127417649Y-114780500D01*
X127622351Y-114780500D01*
X127622352Y-114780500D01*
X127824534Y-114748477D01*
X128019219Y-114685220D01*
X128201610Y-114592287D01*
X128297682Y-114522487D01*
X128367213Y-114471971D01*
X128367215Y-114471968D01*
X128367219Y-114471966D01*
X128511966Y-114327219D01*
X128511968Y-114327215D01*
X128511971Y-114327213D01*
X128566816Y-114251724D01*
X128632287Y-114161610D01*
X128725220Y-113979219D01*
X128756840Y-113881902D01*
X135999500Y-113881902D01*
X135999500Y-114118097D01*
X136036446Y-114351368D01*
X136109433Y-114575996D01*
X136165085Y-114685218D01*
X136216657Y-114786433D01*
X136355483Y-114977510D01*
X136522490Y-115144517D01*
X136713567Y-115283343D01*
X136722144Y-115287713D01*
X136924003Y-115390566D01*
X136924005Y-115390566D01*
X136924008Y-115390568D01*
X137044412Y-115429689D01*
X137148631Y-115463553D01*
X137381903Y-115500500D01*
X137381908Y-115500500D01*
X137618097Y-115500500D01*
X137805483Y-115470820D01*
X137851368Y-115463553D01*
X137851369Y-115463552D01*
X137856102Y-115462803D01*
X137925395Y-115471757D01*
X137978847Y-115516753D01*
X137999487Y-115583505D01*
X137999500Y-115585276D01*
X137999500Y-115618097D01*
X138036446Y-115851368D01*
X138109433Y-116075996D01*
X138148560Y-116152786D01*
X138216657Y-116286433D01*
X138355483Y-116477510D01*
X138522490Y-116644517D01*
X138713567Y-116783343D01*
X138790537Y-116822561D01*
X138924003Y-116890566D01*
X138924005Y-116890566D01*
X138924008Y-116890568D01*
X139044412Y-116929689D01*
X139148631Y-116963553D01*
X139381903Y-117000500D01*
X139381908Y-117000500D01*
X139618097Y-117000500D01*
X139851368Y-116963553D01*
X139913423Y-116943390D01*
X140075992Y-116890568D01*
X140286433Y-116783343D01*
X140477510Y-116644517D01*
X140644517Y-116477510D01*
X140783343Y-116286433D01*
X140890568Y-116075992D01*
X140963553Y-115851368D01*
X141000500Y-115618097D01*
X141000500Y-115381902D01*
X140963553Y-115148631D01*
X140908067Y-114977865D01*
X140890568Y-114924008D01*
X140890566Y-114924005D01*
X140890566Y-114924003D01*
X140814813Y-114775330D01*
X140783343Y-114713567D01*
X140644517Y-114522490D01*
X140477510Y-114355483D01*
X140286433Y-114216657D01*
X140075996Y-114109433D01*
X139851368Y-114036446D01*
X139618097Y-113999500D01*
X139618092Y-113999500D01*
X139381908Y-113999500D01*
X139381903Y-113999500D01*
X139143898Y-114037196D01*
X139074604Y-114028241D01*
X139021152Y-113983245D01*
X139000513Y-113916494D01*
X139000500Y-113914723D01*
X139000500Y-113881902D01*
X138963553Y-113648631D01*
X138922618Y-113522648D01*
X138890568Y-113424008D01*
X138890566Y-113424005D01*
X138890566Y-113424003D01*
X138810677Y-113267213D01*
X138783343Y-113213567D01*
X138644517Y-113022490D01*
X138499372Y-112877345D01*
X138465887Y-112816022D01*
X138470871Y-112746330D01*
X138486734Y-112716780D01*
X138512287Y-112681610D01*
X138605220Y-112499219D01*
X138668477Y-112304534D01*
X138700500Y-112102352D01*
X138700500Y-111897648D01*
X138668477Y-111695466D01*
X138668475Y-111695459D01*
X138667338Y-111690719D01*
X138668702Y-111690391D01*
X138666885Y-111626875D01*
X138702963Y-111567041D01*
X138765663Y-111536210D01*
X138835077Y-111544171D01*
X138859701Y-111558077D01*
X138871060Y-111566330D01*
X139039362Y-111652085D01*
X139218997Y-111710451D01*
X139405553Y-111740000D01*
X139594447Y-111740000D01*
X139780999Y-111710452D01*
X139864637Y-111683276D01*
X139934478Y-111681280D01*
X139994311Y-111717360D01*
X140025140Y-111780061D01*
X140025429Y-111781808D01*
X140036446Y-111851365D01*
X140109433Y-112075994D01*
X140144347Y-112144517D01*
X140216657Y-112286433D01*
X140355483Y-112477510D01*
X140522490Y-112644517D01*
X140713567Y-112783343D01*
X140804128Y-112829486D01*
X140924003Y-112890566D01*
X140924005Y-112890566D01*
X140924008Y-112890568D01*
X141012199Y-112919223D01*
X141148631Y-112963553D01*
X141381903Y-113000500D01*
X141381908Y-113000500D01*
X141618090Y-113000500D01*
X141618092Y-113000500D01*
X141618093Y-113000499D01*
X141618661Y-113000455D01*
X141618875Y-113000500D01*
X141622964Y-113000500D01*
X141622964Y-113001358D01*
X141687040Y-113014810D01*
X141736803Y-113063855D01*
X141752151Y-113132018D01*
X141728726Y-113196953D01*
X141716659Y-113213561D01*
X141609433Y-113424003D01*
X141536446Y-113648631D01*
X141499500Y-113881902D01*
X141499500Y-114118097D01*
X141536446Y-114351368D01*
X141609433Y-114575996D01*
X141665085Y-114685218D01*
X141716657Y-114786433D01*
X141855483Y-114977510D01*
X142022490Y-115144517D01*
X142213567Y-115283343D01*
X142222144Y-115287713D01*
X142424003Y-115390566D01*
X142424005Y-115390566D01*
X142424008Y-115390568D01*
X142544412Y-115429689D01*
X142648631Y-115463553D01*
X142881903Y-115500500D01*
X142881908Y-115500500D01*
X143118097Y-115500500D01*
X143351368Y-115463553D01*
X143353676Y-115462803D01*
X143575992Y-115390568D01*
X143786433Y-115283343D01*
X143977510Y-115144517D01*
X144144517Y-114977510D01*
X144283343Y-114786433D01*
X144390568Y-114575992D01*
X144463553Y-114351368D01*
X144467379Y-114327213D01*
X144500500Y-114118097D01*
X144500500Y-113881902D01*
X144463553Y-113648631D01*
X144422618Y-113522648D01*
X144390568Y-113424008D01*
X144390566Y-113424005D01*
X144390566Y-113424003D01*
X144310677Y-113267213D01*
X144283343Y-113213567D01*
X144144517Y-113022490D01*
X143977510Y-112855483D01*
X143786433Y-112716657D01*
X143762919Y-112704676D01*
X143712123Y-112656701D01*
X143695328Y-112588880D01*
X143717866Y-112522745D01*
X143772581Y-112479294D01*
X143799817Y-112471718D01*
X143827762Y-112467291D01*
X143851368Y-112463553D01*
X144075992Y-112390568D01*
X144286433Y-112283343D01*
X144471289Y-112149036D01*
X144537091Y-112125558D01*
X144582484Y-112131424D01*
X144727260Y-112178464D01*
X144771200Y-112192742D01*
X144872292Y-112208753D01*
X144973383Y-112224765D01*
X144973384Y-112224765D01*
X145178086Y-112224765D01*
X145178087Y-112224765D01*
X145380269Y-112192742D01*
X145574954Y-112129485D01*
X145757345Y-112036552D01*
X145869293Y-111955218D01*
X145922948Y-111916236D01*
X145922950Y-111916233D01*
X145922954Y-111916231D01*
X146067701Y-111771484D01*
X146177149Y-111620840D01*
X146232477Y-111578176D01*
X146258062Y-111571255D01*
X146428799Y-111544213D01*
X146623484Y-111480956D01*
X146786985Y-111397648D01*
X151199500Y-111397648D01*
X151199500Y-111602351D01*
X151231522Y-111804534D01*
X151294781Y-111999223D01*
X151387715Y-112181613D01*
X151490318Y-112322836D01*
X151513798Y-112388643D01*
X151514000Y-112395721D01*
X151514000Y-112416852D01*
X151527090Y-112499500D01*
X151546023Y-112619035D01*
X151546023Y-112619038D01*
X151609279Y-112813718D01*
X151609279Y-112813719D01*
X151659097Y-112911493D01*
X151671993Y-112980162D01*
X151659097Y-113024081D01*
X151607279Y-113125781D01*
X151607279Y-113125782D01*
X151544023Y-113320461D01*
X151544023Y-113320464D01*
X151512000Y-113522648D01*
X151512000Y-113727351D01*
X151544022Y-113929534D01*
X151607281Y-114124223D01*
X151700215Y-114306613D01*
X151820528Y-114472213D01*
X151965286Y-114616971D01*
X152098242Y-114713567D01*
X152130890Y-114737287D01*
X152247107Y-114796503D01*
X152313276Y-114830218D01*
X152313278Y-114830218D01*
X152313281Y-114830220D01*
X152406449Y-114860492D01*
X152507965Y-114893477D01*
X152552635Y-114900552D01*
X152710148Y-114925500D01*
X152710149Y-114925500D01*
X152914851Y-114925500D01*
X152914852Y-114925500D01*
X153117034Y-114893477D01*
X153311719Y-114830220D01*
X153494110Y-114737287D01*
X153627422Y-114640431D01*
X153659713Y-114616971D01*
X153659715Y-114616968D01*
X153659719Y-114616966D01*
X153804466Y-114472219D01*
X153804468Y-114472215D01*
X153804471Y-114472213D01*
X153857232Y-114399590D01*
X153924787Y-114306610D01*
X154017720Y-114124219D01*
X154080977Y-113929534D01*
X154112416Y-113731037D01*
X154142344Y-113667905D01*
X154201655Y-113630973D01*
X154271518Y-113631971D01*
X154273127Y-113632480D01*
X154382152Y-113667905D01*
X154445465Y-113688477D01*
X154546557Y-113704488D01*
X154647648Y-113720500D01*
X154647649Y-113720500D01*
X154852351Y-113720500D01*
X154852352Y-113720500D01*
X155054534Y-113688477D01*
X155236683Y-113629292D01*
X155306522Y-113627298D01*
X155313318Y-113629293D01*
X155485911Y-113685371D01*
X155495469Y-113688477D01*
X155697651Y-113720500D01*
X155697652Y-113720500D01*
X155902354Y-113720500D01*
X155902355Y-113720500D01*
X156104537Y-113688477D01*
X156299222Y-113625220D01*
X156481613Y-113532287D01*
X156574593Y-113464732D01*
X156647216Y-113411971D01*
X156647218Y-113411968D01*
X156647222Y-113411966D01*
X156791969Y-113267219D01*
X156791971Y-113267215D01*
X156791974Y-113267213D01*
X156858631Y-113175466D01*
X156912290Y-113101610D01*
X157005223Y-112919219D01*
X157068480Y-112724534D01*
X157100503Y-112522352D01*
X157100503Y-112317648D01*
X157089354Y-112247257D01*
X157068480Y-112115465D01*
X157016412Y-111955218D01*
X157005223Y-111920781D01*
X157005221Y-111920778D01*
X157005221Y-111920776D01*
X156945992Y-111804534D01*
X156912290Y-111738390D01*
X156881104Y-111695466D01*
X156791974Y-111572786D01*
X156647216Y-111428028D01*
X156481616Y-111307715D01*
X156481615Y-111307714D01*
X156481613Y-111307713D01*
X156403087Y-111267702D01*
X156299226Y-111214781D01*
X156104537Y-111151522D01*
X155929998Y-111123878D01*
X155902355Y-111119500D01*
X155697651Y-111119500D01*
X155630257Y-111130174D01*
X155495467Y-111151523D01*
X155495464Y-111151523D01*
X155313319Y-111210706D01*
X155243478Y-111212701D01*
X155236683Y-111210706D01*
X155054537Y-111151523D01*
X154902897Y-111127505D01*
X154852352Y-111119500D01*
X154647648Y-111119500D01*
X154625872Y-111122949D01*
X154445465Y-111151522D01*
X154250776Y-111214781D01*
X154068390Y-111307712D01*
X153979074Y-111372604D01*
X153913267Y-111396083D01*
X153845213Y-111380257D01*
X153796519Y-111330151D01*
X153783716Y-111291682D01*
X153779918Y-111267705D01*
X153768477Y-111195466D01*
X153766190Y-111188428D01*
X153722685Y-111054534D01*
X153705220Y-111000781D01*
X153705218Y-111000778D01*
X153705218Y-111000776D01*
X153647610Y-110887715D01*
X153612287Y-110818390D01*
X153595134Y-110794781D01*
X153491971Y-110652786D01*
X153347213Y-110508028D01*
X153181613Y-110387715D01*
X153181612Y-110387714D01*
X153181610Y-110387713D01*
X153109934Y-110351192D01*
X152999223Y-110294781D01*
X152804534Y-110231522D01*
X152629995Y-110203878D01*
X152602352Y-110199500D01*
X152397648Y-110199500D01*
X152373329Y-110203351D01*
X152195465Y-110231522D01*
X152000776Y-110294781D01*
X151818386Y-110387715D01*
X151652786Y-110508028D01*
X151508028Y-110652786D01*
X151387715Y-110818386D01*
X151294781Y-111000776D01*
X151231522Y-111195465D01*
X151199500Y-111397648D01*
X146786985Y-111397648D01*
X146805875Y-111388023D01*
X146885530Y-111330151D01*
X146937411Y-111292458D01*
X146937412Y-111292457D01*
X146971480Y-111267705D01*
X146971480Y-111267704D01*
X146971484Y-111267702D01*
X147116231Y-111122955D01*
X147116233Y-111122951D01*
X147116236Y-111122949D01*
X147168997Y-111050326D01*
X147236552Y-110957346D01*
X147329485Y-110774955D01*
X147392742Y-110580270D01*
X147424765Y-110378088D01*
X147424765Y-110351192D01*
X147444450Y-110284153D01*
X147497254Y-110238398D01*
X147566412Y-110228454D01*
X147587078Y-110233259D01*
X147644324Y-110251860D01*
X147695465Y-110268477D01*
X147789741Y-110283409D01*
X147897648Y-110300500D01*
X147897649Y-110300500D01*
X148102351Y-110300500D01*
X148102352Y-110300500D01*
X148304534Y-110268477D01*
X148461683Y-110217415D01*
X148531522Y-110215421D01*
X148538292Y-110217408D01*
X148644324Y-110251860D01*
X148695465Y-110268477D01*
X148789741Y-110283409D01*
X148897648Y-110300500D01*
X148897649Y-110300500D01*
X149102351Y-110300500D01*
X149102352Y-110300500D01*
X149304534Y-110268477D01*
X149499219Y-110205220D01*
X149681610Y-110112287D01*
X149847219Y-109991966D01*
X149865346Y-109973838D01*
X149926666Y-109940351D01*
X149933628Y-109939043D01*
X150063483Y-109918477D01*
X150258168Y-109855220D01*
X150440559Y-109762287D01*
X150547067Y-109684905D01*
X150606162Y-109641971D01*
X150606164Y-109641968D01*
X150606168Y-109641966D01*
X150750915Y-109497219D01*
X150856702Y-109351613D01*
X150912031Y-109308949D01*
X150957020Y-109300500D01*
X151102351Y-109300500D01*
X151102352Y-109300500D01*
X151304534Y-109268477D01*
X151499219Y-109205220D01*
X151681610Y-109112287D01*
X151777269Y-109042787D01*
X151847213Y-108991971D01*
X151847215Y-108991968D01*
X151847219Y-108991966D01*
X151991966Y-108847219D01*
X151991972Y-108847210D01*
X151994748Y-108843962D01*
X152053258Y-108805773D01*
X152089033Y-108800500D01*
X152102351Y-108800500D01*
X152102352Y-108800500D01*
X152304534Y-108768477D01*
X152499219Y-108705220D01*
X152681610Y-108612287D01*
X152783599Y-108538188D01*
X152847213Y-108491971D01*
X152847215Y-108491968D01*
X152847219Y-108491966D01*
X152991966Y-108347219D01*
X152991968Y-108347215D01*
X152991971Y-108347213D01*
X153095133Y-108205220D01*
X153112287Y-108181610D01*
X153205220Y-107999219D01*
X153268477Y-107804534D01*
X153300500Y-107602352D01*
X153300500Y-107504501D01*
X153320185Y-107437462D01*
X153372989Y-107391707D01*
X153424500Y-107380501D01*
X153602351Y-107380501D01*
X153602352Y-107380501D01*
X153804534Y-107348478D01*
X153999219Y-107285221D01*
X154181610Y-107192288D01*
X154289515Y-107113891D01*
X154347213Y-107071972D01*
X154347215Y-107071969D01*
X154347219Y-107071967D01*
X154491966Y-106927220D01*
X154491968Y-106927216D01*
X154491971Y-106927214D01*
X154571038Y-106818386D01*
X154612287Y-106761611D01*
X154703264Y-106583058D01*
X154705218Y-106579224D01*
X154705218Y-106579223D01*
X154705220Y-106579220D01*
X154768477Y-106384535D01*
X154800500Y-106182353D01*
X154800500Y-105977649D01*
X154781866Y-105860000D01*
X154768477Y-105775466D01*
X154718473Y-105621572D01*
X154705220Y-105580782D01*
X154705218Y-105580779D01*
X154705218Y-105580777D01*
X154643678Y-105460000D01*
X154612287Y-105398391D01*
X154576588Y-105349255D01*
X154491971Y-105232787D01*
X154347213Y-105088029D01*
X154181613Y-104967716D01*
X154181612Y-104967715D01*
X154181610Y-104967714D01*
X154112020Y-104932256D01*
X153999223Y-104874782D01*
X153804534Y-104811523D01*
X153629995Y-104783879D01*
X153602352Y-104779501D01*
X153397648Y-104779501D01*
X153373329Y-104783352D01*
X153195465Y-104811523D01*
X153000776Y-104874782D01*
X152818386Y-104967716D01*
X152652786Y-105088029D01*
X152508028Y-105232787D01*
X152387715Y-105398387D01*
X152294781Y-105580777D01*
X152231522Y-105775466D01*
X152199500Y-105977649D01*
X152199500Y-106075500D01*
X152179815Y-106142539D01*
X152127011Y-106188294D01*
X152075500Y-106199500D01*
X151897648Y-106199500D01*
X151889226Y-106200834D01*
X151695465Y-106231522D01*
X151500776Y-106294781D01*
X151318386Y-106387715D01*
X151152786Y-106508028D01*
X151008035Y-106652779D01*
X151005252Y-106656038D01*
X150946742Y-106694227D01*
X150910967Y-106699500D01*
X150897648Y-106699500D01*
X150873329Y-106703351D01*
X150695465Y-106731522D01*
X150500776Y-106794781D01*
X150318386Y-106887715D01*
X150152786Y-107008028D01*
X150008034Y-107152780D01*
X149969935Y-107205220D01*
X149902246Y-107298386D01*
X149846918Y-107341051D01*
X149801929Y-107349500D01*
X149656597Y-107349500D01*
X149646830Y-107351047D01*
X149454414Y-107381522D01*
X149259725Y-107444781D01*
X149077335Y-107537715D01*
X148911734Y-107658030D01*
X148911725Y-107658037D01*
X148893595Y-107676167D01*
X148832270Y-107709649D01*
X148825317Y-107710955D01*
X148695468Y-107731522D01*
X148538318Y-107782583D01*
X148517042Y-107783190D01*
X148496460Y-107788601D01*
X148472540Y-107784461D01*
X148468476Y-107784578D01*
X148461683Y-107782583D01*
X148381963Y-107756681D01*
X148324287Y-107717244D01*
X148297088Y-107652886D01*
X148297806Y-107619354D01*
X148300500Y-107602352D01*
X148300500Y-107424500D01*
X148320185Y-107357461D01*
X148372989Y-107311706D01*
X148424500Y-107300500D01*
X148602351Y-107300500D01*
X148602352Y-107300500D01*
X148804534Y-107268477D01*
X148999219Y-107205220D01*
X149181610Y-107112287D01*
X149285997Y-107036446D01*
X149347213Y-106991971D01*
X149347215Y-106991968D01*
X149347219Y-106991966D01*
X149491966Y-106847219D01*
X149491968Y-106847215D01*
X149491971Y-106847213D01*
X149560790Y-106752490D01*
X149612287Y-106681610D01*
X149705220Y-106499219D01*
X149768477Y-106304534D01*
X149800500Y-106102352D01*
X149800500Y-105897648D01*
X149768477Y-105695466D01*
X149705220Y-105500781D01*
X149705218Y-105500778D01*
X149705218Y-105500776D01*
X149657609Y-105407339D01*
X149612287Y-105318390D01*
X149598846Y-105299890D01*
X149491971Y-105152786D01*
X149347213Y-105008028D01*
X149181613Y-104887715D01*
X149181612Y-104887714D01*
X149181610Y-104887713D01*
X149112208Y-104852351D01*
X148999223Y-104794781D01*
X148804534Y-104731522D01*
X148629995Y-104703878D01*
X148602352Y-104699500D01*
X148397648Y-104699500D01*
X148373329Y-104703351D01*
X148195465Y-104731522D01*
X148000776Y-104794781D01*
X147818390Y-104887712D01*
X147698649Y-104974709D01*
X147632842Y-104998188D01*
X147564788Y-104982362D01*
X147516094Y-104932256D01*
X147507833Y-104912708D01*
X147455220Y-104750781D01*
X147362287Y-104568390D01*
X147354556Y-104557749D01*
X147241971Y-104402786D01*
X147097213Y-104258028D01*
X146931613Y-104137715D01*
X146931612Y-104137714D01*
X146931610Y-104137713D01*
X146862208Y-104102351D01*
X146749223Y-104044781D01*
X146644353Y-104010707D01*
X146554534Y-103981522D01*
X146379995Y-103953878D01*
X146352352Y-103949500D01*
X146352351Y-103949500D01*
X146255078Y-103949500D01*
X146188039Y-103929815D01*
X146158937Y-103897648D01*
X156949500Y-103897648D01*
X156949500Y-104102351D01*
X156981522Y-104304534D01*
X157044781Y-104499223D01*
X157108691Y-104624653D01*
X157120408Y-104647648D01*
X157137715Y-104681613D01*
X157258028Y-104847213D01*
X157402786Y-104991971D01*
X157568389Y-105112287D01*
X157572542Y-105114832D01*
X157571414Y-105116671D01*
X157589619Y-105133880D01*
X157614732Y-105156928D01*
X157614974Y-105157848D01*
X157615665Y-105158502D01*
X157623830Y-105191538D01*
X157632496Y-105224502D01*
X157632282Y-105225734D01*
X157632430Y-105226331D01*
X157626478Y-105259280D01*
X157613284Y-105299890D01*
X157583034Y-105349255D01*
X157476319Y-105455970D01*
X157356004Y-105621572D01*
X157263070Y-105803962D01*
X157199811Y-105998651D01*
X157177022Y-106142539D01*
X157167789Y-106200834D01*
X157167789Y-106405538D01*
X157170951Y-106425499D01*
X157199812Y-106607723D01*
X157222495Y-106677535D01*
X157224490Y-106747376D01*
X157215049Y-106772147D01*
X157136312Y-106926677D01*
X157136311Y-106926679D01*
X157136310Y-106926682D01*
X157130824Y-106943566D01*
X157073052Y-107121366D01*
X157041030Y-107323549D01*
X157041030Y-107528252D01*
X157073052Y-107730435D01*
X157136311Y-107925124D01*
X157200221Y-108050554D01*
X157215922Y-108081368D01*
X157229245Y-108107514D01*
X157349558Y-108273114D01*
X157494316Y-108417872D01*
X157649279Y-108530457D01*
X157659920Y-108538188D01*
X157776137Y-108597404D01*
X157842306Y-108631119D01*
X157842308Y-108631119D01*
X157842311Y-108631121D01*
X157899741Y-108649781D01*
X158036995Y-108694378D01*
X158119907Y-108707510D01*
X158239178Y-108726401D01*
X158239179Y-108726401D01*
X158443881Y-108726401D01*
X158443882Y-108726401D01*
X158646064Y-108694378D01*
X158840749Y-108631121D01*
X159023140Y-108538188D01*
X159120591Y-108467386D01*
X159188743Y-108417872D01*
X159188745Y-108417869D01*
X159188749Y-108417867D01*
X159333496Y-108273120D01*
X159333498Y-108273116D01*
X159333501Y-108273114D01*
X159399981Y-108181610D01*
X159453817Y-108107511D01*
X159546750Y-107925120D01*
X159610007Y-107730435D01*
X159642030Y-107528253D01*
X159642030Y-107323549D01*
X159610007Y-107121367D01*
X159587321Y-107051549D01*
X159585327Y-106981713D01*
X159594766Y-106956945D01*
X159673509Y-106802405D01*
X159732990Y-106619340D01*
X159763238Y-106569980D01*
X159869949Y-106463270D01*
X159990270Y-106297661D01*
X160083203Y-106115270D01*
X160146460Y-105920585D01*
X160178483Y-105718403D01*
X160178483Y-105513699D01*
X160169978Y-105459999D01*
X160146460Y-105311516D01*
X160107476Y-105191538D01*
X160083203Y-105116832D01*
X160083201Y-105116829D01*
X160083201Y-105116827D01*
X160049486Y-105050658D01*
X159990270Y-104934441D01*
X159956322Y-104887715D01*
X159869954Y-104768837D01*
X159725196Y-104624079D01*
X159559593Y-104503763D01*
X159555441Y-104501219D01*
X159556568Y-104499379D01*
X159512317Y-104457550D01*
X159495551Y-104389721D01*
X159501501Y-104356777D01*
X159518477Y-104304534D01*
X159550500Y-104102352D01*
X159550500Y-103897648D01*
X159518477Y-103695466D01*
X159504609Y-103652786D01*
X159479173Y-103574500D01*
X159455220Y-103500781D01*
X159455218Y-103500778D01*
X159455218Y-103500776D01*
X159416236Y-103424270D01*
X159362287Y-103318390D01*
X159345134Y-103294781D01*
X159241971Y-103152786D01*
X159097213Y-103008028D01*
X158931613Y-102887715D01*
X158931612Y-102887714D01*
X158931610Y-102887713D01*
X158874653Y-102858691D01*
X158749223Y-102794781D01*
X158554534Y-102731522D01*
X158379995Y-102703878D01*
X158352352Y-102699500D01*
X158147648Y-102699500D01*
X158123329Y-102703351D01*
X157945465Y-102731522D01*
X157750776Y-102794781D01*
X157568386Y-102887715D01*
X157402786Y-103008028D01*
X157258028Y-103152786D01*
X157137715Y-103318386D01*
X157044781Y-103500776D01*
X156981522Y-103695465D01*
X156949500Y-103897648D01*
X146158937Y-103897648D01*
X146144593Y-103881794D01*
X146112286Y-103818388D01*
X145991971Y-103652786D01*
X145847213Y-103508028D01*
X145681613Y-103387715D01*
X145681612Y-103387714D01*
X145681610Y-103387713D01*
X145499219Y-103294780D01*
X145304534Y-103231523D01*
X145304528Y-103231521D01*
X145300879Y-103230645D01*
X145240290Y-103195848D01*
X145211907Y-103148392D01*
X145198051Y-103105747D01*
X145198050Y-103105744D01*
X145165867Y-103042584D01*
X145105117Y-102923354D01*
X145079223Y-102887713D01*
X144984801Y-102757750D01*
X144840043Y-102612992D01*
X144674443Y-102492679D01*
X144674442Y-102492678D01*
X144674440Y-102492677D01*
X144600923Y-102455218D01*
X144492053Y-102399745D01*
X144297364Y-102336486D01*
X144119458Y-102308309D01*
X144095182Y-102304464D01*
X143890478Y-102304464D01*
X143890471Y-102304464D01*
X143809652Y-102317264D01*
X143740359Y-102308309D01*
X143733961Y-102305276D01*
X143699907Y-102287924D01*
X143505215Y-102224664D01*
X143330676Y-102197020D01*
X143303033Y-102192642D01*
X143098329Y-102192642D01*
X143066576Y-102197671D01*
X142934151Y-102218645D01*
X142864857Y-102209690D01*
X142811405Y-102164694D01*
X142790766Y-102097942D01*
X142809491Y-102030629D01*
X142827735Y-102007832D01*
X142834350Y-102001315D01*
X142847219Y-101991966D01*
X142991966Y-101847219D01*
X142994930Y-101843138D01*
X143002015Y-101836160D01*
X143028291Y-101822068D01*
X143053258Y-101805773D01*
X143060731Y-101804671D01*
X143063589Y-101803139D01*
X143068495Y-101803527D01*
X143089033Y-101800500D01*
X143102351Y-101800500D01*
X143102352Y-101800500D01*
X143304534Y-101768477D01*
X143499219Y-101705220D01*
X143681610Y-101612287D01*
X143774590Y-101544732D01*
X143847213Y-101491971D01*
X143847215Y-101491968D01*
X143847219Y-101491966D01*
X143991966Y-101347219D01*
X143991968Y-101347215D01*
X143991971Y-101347213D01*
X144044732Y-101274590D01*
X144112287Y-101181610D01*
X144205220Y-100999219D01*
X144268477Y-100804534D01*
X144300500Y-100602352D01*
X144300500Y-100397648D01*
X144278386Y-100258028D01*
X144268477Y-100195465D01*
X144222685Y-100054534D01*
X144205220Y-100000781D01*
X144205218Y-100000778D01*
X144205218Y-100000776D01*
X144147610Y-99887715D01*
X144112287Y-99818390D01*
X144095134Y-99794781D01*
X143991971Y-99652786D01*
X143847213Y-99508028D01*
X143681613Y-99387715D01*
X143681612Y-99387714D01*
X143681610Y-99387713D01*
X143624653Y-99358691D01*
X143499223Y-99294781D01*
X143304534Y-99231522D01*
X143129995Y-99203878D01*
X143102352Y-99199500D01*
X142897648Y-99199500D01*
X142873329Y-99203351D01*
X142695465Y-99231522D01*
X142500776Y-99294781D01*
X142318386Y-99387715D01*
X142152786Y-99508028D01*
X142008035Y-99652779D01*
X142005252Y-99656038D01*
X141946742Y-99694227D01*
X141910967Y-99699500D01*
X141897648Y-99699500D01*
X141873329Y-99703351D01*
X141695465Y-99731522D01*
X141500776Y-99794781D01*
X141318386Y-99887715D01*
X141152786Y-100008028D01*
X141008028Y-100152786D01*
X140887715Y-100318386D01*
X140794781Y-100500776D01*
X140731522Y-100695465D01*
X140699500Y-100897648D01*
X140699500Y-101102351D01*
X140731522Y-101304534D01*
X140794781Y-101499223D01*
X140887715Y-101681613D01*
X141008028Y-101847213D01*
X141152786Y-101991971D01*
X141298646Y-102097942D01*
X141318390Y-102112287D01*
X141434607Y-102171503D01*
X141500776Y-102205218D01*
X141500778Y-102205218D01*
X141500781Y-102205220D01*
X141560627Y-102224665D01*
X141695465Y-102268477D01*
X141790000Y-102283450D01*
X141897648Y-102300500D01*
X141897649Y-102300500D01*
X142102351Y-102300500D01*
X142102352Y-102300500D01*
X142266530Y-102274496D01*
X142335822Y-102283450D01*
X142389274Y-102328446D01*
X142409914Y-102395198D01*
X142391189Y-102462512D01*
X142358819Y-102497282D01*
X142353470Y-102501168D01*
X142353463Y-102501174D01*
X142208709Y-102645928D01*
X142088396Y-102811528D01*
X141995462Y-102993918D01*
X141932203Y-103188607D01*
X141900181Y-103390790D01*
X141900181Y-103595493D01*
X141932203Y-103797676D01*
X141995462Y-103992365D01*
X142061123Y-104121230D01*
X142074019Y-104189899D01*
X142047743Y-104254640D01*
X142038320Y-104265206D01*
X141908027Y-104395499D01*
X141787715Y-104561097D01*
X141694781Y-104743487D01*
X141631522Y-104938176D01*
X141599500Y-105140359D01*
X141599500Y-105345062D01*
X141631522Y-105547245D01*
X141668726Y-105661746D01*
X141694780Y-105741930D01*
X141694781Y-105741932D01*
X141694782Y-105741934D01*
X141780154Y-105909487D01*
X141793050Y-105978157D01*
X141766773Y-106042897D01*
X141759708Y-106050820D01*
X141758033Y-106052781D01*
X141637715Y-106218386D01*
X141544781Y-106400776D01*
X141481522Y-106595465D01*
X141449500Y-106797648D01*
X141449500Y-107002351D01*
X141481522Y-107204534D01*
X141544781Y-107399223D01*
X141598424Y-107504501D01*
X141621984Y-107550741D01*
X141637715Y-107581613D01*
X141758028Y-107747213D01*
X141902782Y-107891967D01*
X141902787Y-107891971D01*
X141997800Y-107961002D01*
X142040466Y-108016332D01*
X142046445Y-108085945D01*
X142013840Y-108147740D01*
X142005463Y-108155597D01*
X142003780Y-108157034D01*
X141859028Y-108301786D01*
X141738715Y-108467386D01*
X141645781Y-108649776D01*
X141582522Y-108844465D01*
X141550500Y-109046648D01*
X141550500Y-109251351D01*
X141582522Y-109453534D01*
X141645781Y-109648223D01*
X141732902Y-109819205D01*
X141745798Y-109887874D01*
X141719522Y-109952615D01*
X141662415Y-109992872D01*
X141622417Y-109999500D01*
X141381903Y-109999500D01*
X141148631Y-110036446D01*
X140924000Y-110109434D01*
X140794133Y-110175605D01*
X140725464Y-110188501D01*
X140660724Y-110162224D01*
X140620467Y-110105118D01*
X140619908Y-110103438D01*
X140612085Y-110079362D01*
X140526329Y-109911059D01*
X140507883Y-109885670D01*
X140507882Y-109885669D01*
X139900000Y-110493551D01*
X139900000Y-110487339D01*
X139872741Y-110385606D01*
X139820080Y-110294394D01*
X139745606Y-110219920D01*
X139654394Y-110167259D01*
X139552661Y-110140000D01*
X139546447Y-110140000D01*
X140072939Y-109613505D01*
X140113160Y-109586628D01*
X140253726Y-109528405D01*
X140446774Y-109416948D01*
X140623624Y-109281247D01*
X140781247Y-109123624D01*
X140916948Y-108946774D01*
X141028405Y-108753726D01*
X141113710Y-108547781D01*
X141171404Y-108332463D01*
X141200500Y-108111457D01*
X141200500Y-107888543D01*
X141171404Y-107667537D01*
X141113710Y-107452219D01*
X141111631Y-107447201D01*
X141071803Y-107351047D01*
X141028405Y-107246274D01*
X140916948Y-107053226D01*
X140832804Y-106943567D01*
X140781248Y-106876377D01*
X140781242Y-106876370D01*
X140623629Y-106718757D01*
X140623622Y-106718751D01*
X140446782Y-106583058D01*
X140446780Y-106583057D01*
X140446774Y-106583052D01*
X140253726Y-106471595D01*
X140253724Y-106471594D01*
X140253722Y-106471593D01*
X140113167Y-106413373D01*
X140072939Y-106386493D01*
X139546447Y-105860000D01*
X139552661Y-105860000D01*
X139654394Y-105832741D01*
X139745606Y-105780080D01*
X139820080Y-105705606D01*
X139872741Y-105614394D01*
X139900000Y-105512661D01*
X139900000Y-105506446D01*
X140507882Y-106114328D01*
X140507883Y-106114328D01*
X140526331Y-106088937D01*
X140612085Y-105920637D01*
X140670451Y-105741002D01*
X140700000Y-105554447D01*
X140700000Y-105365552D01*
X140670451Y-105178997D01*
X140612085Y-104999362D01*
X140526329Y-104831059D01*
X140507883Y-104805670D01*
X140507882Y-104805669D01*
X139900000Y-105413552D01*
X139900000Y-105407339D01*
X139872741Y-105305606D01*
X139820080Y-105214394D01*
X139745606Y-105139920D01*
X139654394Y-105087259D01*
X139552661Y-105060000D01*
X139546447Y-105060000D01*
X140154328Y-104452116D01*
X140128933Y-104433666D01*
X139960637Y-104347914D01*
X139781002Y-104289548D01*
X139594447Y-104260000D01*
X139405553Y-104260000D01*
X139218997Y-104289548D01*
X139039362Y-104347914D01*
X138871060Y-104433669D01*
X138845670Y-104452116D01*
X138845669Y-104452116D01*
X139453554Y-105060000D01*
X139447339Y-105060000D01*
X139345606Y-105087259D01*
X139254394Y-105139920D01*
X139179920Y-105214394D01*
X139127259Y-105305606D01*
X139100000Y-105407339D01*
X139100000Y-105413553D01*
X138492116Y-104805669D01*
X138492116Y-104805670D01*
X138473669Y-104831060D01*
X138387914Y-104999362D01*
X138329548Y-105178997D01*
X138300000Y-105365552D01*
X138300000Y-105554447D01*
X138329548Y-105741002D01*
X138387914Y-105920637D01*
X138473666Y-106088933D01*
X138492116Y-106114328D01*
X139100000Y-105506445D01*
X139100000Y-105512661D01*
X139127259Y-105614394D01*
X139179920Y-105705606D01*
X139254394Y-105780080D01*
X139345606Y-105832741D01*
X139447339Y-105860000D01*
X139453554Y-105860000D01*
X138927059Y-106386493D01*
X138886832Y-106413372D01*
X138746274Y-106471594D01*
X138746272Y-106471595D01*
X138553226Y-106583052D01*
X138553217Y-106583058D01*
X138376377Y-106718751D01*
X138376370Y-106718757D01*
X138218757Y-106876370D01*
X138218751Y-106876377D01*
X138083058Y-107053217D01*
X138083052Y-107053226D01*
X137971595Y-107246273D01*
X137971593Y-107246277D01*
X137886293Y-107452209D01*
X137886290Y-107452219D01*
X137831144Y-107658030D01*
X137828597Y-107667534D01*
X137828594Y-107667547D01*
X137799501Y-107888533D01*
X137799500Y-107888549D01*
X137799500Y-108111450D01*
X137799501Y-108111466D01*
X137828594Y-108332452D01*
X137828595Y-108332457D01*
X137828596Y-108332463D01*
X137883719Y-108538185D01*
X137886290Y-108547780D01*
X137886293Y-108547790D01*
X137963024Y-108733034D01*
X137971595Y-108753726D01*
X138083052Y-108946774D01*
X138083057Y-108946780D01*
X138083058Y-108946782D01*
X138218751Y-109123622D01*
X138218757Y-109123629D01*
X138376370Y-109281242D01*
X138376377Y-109281248D01*
X138401467Y-109300500D01*
X138553226Y-109416948D01*
X138746274Y-109528405D01*
X138746277Y-109528406D01*
X138746282Y-109528409D01*
X138871362Y-109580218D01*
X138886827Y-109586624D01*
X138886830Y-109586625D01*
X138927059Y-109613505D01*
X139453554Y-110140000D01*
X139447339Y-110140000D01*
X139345606Y-110167259D01*
X139254394Y-110219920D01*
X139179920Y-110294394D01*
X139127259Y-110385606D01*
X139100000Y-110487339D01*
X139100000Y-110493553D01*
X138492116Y-109885669D01*
X138492116Y-109885670D01*
X138473669Y-109911060D01*
X138387914Y-110079362D01*
X138329548Y-110258997D01*
X138300000Y-110445552D01*
X138300000Y-110634447D01*
X138326898Y-110804272D01*
X138317944Y-110873565D01*
X138272947Y-110927017D01*
X138206196Y-110947657D01*
X138138882Y-110928932D01*
X138131540Y-110923989D01*
X138081609Y-110887712D01*
X137899223Y-110794781D01*
X137704534Y-110731522D01*
X137529995Y-110703878D01*
X137502352Y-110699500D01*
X137297648Y-110699500D01*
X137273329Y-110703351D01*
X137095465Y-110731522D01*
X136900776Y-110794781D01*
X136718386Y-110887715D01*
X136552786Y-111008028D01*
X136408028Y-111152786D01*
X136287715Y-111318386D01*
X136194781Y-111500776D01*
X136131522Y-111695465D01*
X136099500Y-111897648D01*
X136099500Y-112102351D01*
X136131522Y-112304534D01*
X136194781Y-112499223D01*
X136287715Y-112681613D01*
X136397425Y-112832618D01*
X136420905Y-112898425D01*
X136405079Y-112966478D01*
X136384790Y-112993183D01*
X136355483Y-113022490D01*
X136216657Y-113213566D01*
X136109433Y-113424003D01*
X136036446Y-113648631D01*
X135999500Y-113881902D01*
X128756840Y-113881902D01*
X128788477Y-113784534D01*
X128820500Y-113582352D01*
X128820500Y-113377648D01*
X128811442Y-113320461D01*
X128788477Y-113175465D01*
X128738771Y-113022487D01*
X128725220Y-112980781D01*
X128725218Y-112980778D01*
X128725218Y-112980776D01*
X128683609Y-112899115D01*
X128632287Y-112798390D01*
X128578628Y-112724534D01*
X128511971Y-112632786D01*
X128367213Y-112488028D01*
X128201613Y-112367715D01*
X128201612Y-112367714D01*
X128201610Y-112367713D01*
X128144653Y-112338691D01*
X128019223Y-112274781D01*
X127824534Y-112211522D01*
X127649995Y-112183878D01*
X127622352Y-112179500D01*
X127417648Y-112179500D01*
X127393329Y-112183351D01*
X127215465Y-112211522D01*
X127020776Y-112274781D01*
X126838386Y-112367715D01*
X126672786Y-112488028D01*
X126528028Y-112632786D01*
X126407715Y-112798386D01*
X126314781Y-112980776D01*
X126251522Y-113175465D01*
X126219500Y-113377648D01*
X110000500Y-113377648D01*
X110000500Y-111397648D01*
X123949500Y-111397648D01*
X123949500Y-111602351D01*
X123981522Y-111804534D01*
X124044781Y-111999223D01*
X124137715Y-112181613D01*
X124258028Y-112347213D01*
X124402786Y-112491971D01*
X124536173Y-112588880D01*
X124568390Y-112612287D01*
X124669945Y-112664032D01*
X124750776Y-112705218D01*
X124750778Y-112705218D01*
X124750781Y-112705220D01*
X124855137Y-112739127D01*
X124945465Y-112768477D01*
X125039318Y-112783342D01*
X125147648Y-112800500D01*
X125147649Y-112800500D01*
X125352351Y-112800500D01*
X125352352Y-112800500D01*
X125554534Y-112768477D01*
X125749219Y-112705220D01*
X125931610Y-112612287D01*
X126055396Y-112522352D01*
X126097213Y-112491971D01*
X126097215Y-112491968D01*
X126097219Y-112491966D01*
X126241966Y-112347219D01*
X126241968Y-112347215D01*
X126241971Y-112347213D01*
X126340554Y-112211523D01*
X126362287Y-112181610D01*
X126455220Y-111999219D01*
X126518477Y-111804534D01*
X126550500Y-111602352D01*
X126550500Y-111397648D01*
X126548007Y-111381908D01*
X126518477Y-111195465D01*
X126472685Y-111054534D01*
X126455220Y-111000781D01*
X126455218Y-111000778D01*
X126455218Y-111000776D01*
X126397610Y-110887715D01*
X126362287Y-110818390D01*
X126345134Y-110794781D01*
X126241971Y-110652786D01*
X126097213Y-110508028D01*
X125931613Y-110387715D01*
X125931612Y-110387714D01*
X125931610Y-110387713D01*
X125859934Y-110351192D01*
X125749223Y-110294781D01*
X125554534Y-110231522D01*
X125379995Y-110203878D01*
X125352352Y-110199500D01*
X125147648Y-110199500D01*
X125123329Y-110203351D01*
X124945465Y-110231522D01*
X124750776Y-110294781D01*
X124568386Y-110387715D01*
X124402786Y-110508028D01*
X124258028Y-110652786D01*
X124137715Y-110818386D01*
X124044781Y-111000776D01*
X123981522Y-111195465D01*
X123949500Y-111397648D01*
X110000500Y-111397648D01*
X110000500Y-109897648D01*
X129199500Y-109897648D01*
X129199500Y-110102351D01*
X129231522Y-110304534D01*
X129294781Y-110499223D01*
X129342391Y-110592661D01*
X129375477Y-110657596D01*
X129387715Y-110681613D01*
X129508028Y-110847213D01*
X129652786Y-110991971D01*
X129807749Y-111104556D01*
X129818390Y-111112287D01*
X129897864Y-111152781D01*
X130000776Y-111205218D01*
X130000778Y-111205218D01*
X130000781Y-111205220D01*
X130070632Y-111227916D01*
X130195465Y-111268477D01*
X130296557Y-111284488D01*
X130397648Y-111300500D01*
X130397649Y-111300500D01*
X130602351Y-111300500D01*
X130602352Y-111300500D01*
X130804534Y-111268477D01*
X130999219Y-111205220D01*
X131181610Y-111112287D01*
X131274590Y-111044732D01*
X131347213Y-110991971D01*
X131347215Y-110991968D01*
X131347219Y-110991966D01*
X131491966Y-110847219D01*
X131491968Y-110847215D01*
X131491971Y-110847213D01*
X131576024Y-110731522D01*
X131612287Y-110681610D01*
X131705220Y-110499219D01*
X131768477Y-110304534D01*
X131800500Y-110102352D01*
X131800500Y-109897648D01*
X131790260Y-109832997D01*
X131768477Y-109695465D01*
X131731031Y-109580218D01*
X131705220Y-109500781D01*
X131705218Y-109500778D01*
X131705218Y-109500776D01*
X131662501Y-109416941D01*
X131612287Y-109318390D01*
X131598165Y-109298952D01*
X131491971Y-109152786D01*
X131347213Y-109008028D01*
X131181613Y-108887715D01*
X131181612Y-108887714D01*
X131181610Y-108887713D01*
X131110279Y-108851368D01*
X130999223Y-108794781D01*
X130804534Y-108731522D01*
X130629995Y-108703878D01*
X130602352Y-108699500D01*
X130397648Y-108699500D01*
X130373329Y-108703351D01*
X130195465Y-108731522D01*
X130000776Y-108794781D01*
X129818386Y-108887715D01*
X129652786Y-109008028D01*
X129508028Y-109152786D01*
X129387715Y-109318386D01*
X129294781Y-109500776D01*
X129231522Y-109695465D01*
X129199500Y-109897648D01*
X110000500Y-109897648D01*
X110000500Y-107766966D01*
X112424500Y-107766966D01*
X112424500Y-108733028D01*
X112424500Y-108733033D01*
X112424501Y-108733036D01*
X112426340Y-108753722D01*
X112435113Y-108852415D01*
X112491089Y-109048045D01*
X112491090Y-109048048D01*
X112491091Y-109048049D01*
X112585302Y-109228407D01*
X112604011Y-109251352D01*
X112713890Y-109386109D01*
X112796581Y-109453534D01*
X112871593Y-109514698D01*
X113051951Y-109608909D01*
X113051953Y-109608909D01*
X113051954Y-109608910D01*
X113068013Y-109613505D01*
X113247582Y-109664886D01*
X113366963Y-109675500D01*
X114333036Y-109675499D01*
X114452418Y-109664886D01*
X114648049Y-109608909D01*
X114828407Y-109514698D01*
X114986109Y-109386109D01*
X115114698Y-109228407D01*
X115208909Y-109048049D01*
X115264886Y-108852418D01*
X115275500Y-108733037D01*
X115275499Y-107766964D01*
X115264886Y-107647582D01*
X115208909Y-107451951D01*
X115180544Y-107397648D01*
X119699500Y-107397648D01*
X119699500Y-107602351D01*
X119731522Y-107804534D01*
X119759933Y-107891971D01*
X119794780Y-107999219D01*
X119832199Y-108072657D01*
X119845095Y-108141325D01*
X119844187Y-108148349D01*
X119835180Y-108205218D01*
X119824500Y-108272648D01*
X119824500Y-108477352D01*
X119828878Y-108504995D01*
X119856522Y-108679534D01*
X119919781Y-108874223D01*
X120012715Y-109056613D01*
X120133028Y-109222213D01*
X120277786Y-109366971D01*
X120432749Y-109479556D01*
X120443390Y-109487287D01*
X120559607Y-109546503D01*
X120625776Y-109580218D01*
X120625778Y-109580218D01*
X120625781Y-109580220D01*
X120645494Y-109586625D01*
X120820465Y-109643477D01*
X120921557Y-109659488D01*
X121022648Y-109675500D01*
X121022649Y-109675500D01*
X121227351Y-109675500D01*
X121227352Y-109675500D01*
X121429534Y-109643477D01*
X121624219Y-109580220D01*
X121806610Y-109487287D01*
X121903424Y-109416948D01*
X121972213Y-109366971D01*
X121972215Y-109366968D01*
X121972219Y-109366966D01*
X122116966Y-109222219D01*
X122116968Y-109222215D01*
X122116971Y-109222213D01*
X122190819Y-109120568D01*
X122237287Y-109056610D01*
X122330220Y-108874219D01*
X122393477Y-108679534D01*
X122425500Y-108477352D01*
X122425500Y-108272648D01*
X122400101Y-108112287D01*
X122393477Y-108070465D01*
X122347331Y-107928444D01*
X122330220Y-107875781D01*
X122291070Y-107798946D01*
X122289555Y-107795459D01*
X122285678Y-107764419D01*
X122279904Y-107733674D01*
X122280812Y-107726649D01*
X122287945Y-107681614D01*
X122300500Y-107602352D01*
X122300500Y-107397648D01*
X122273671Y-107228261D01*
X122268477Y-107195465D01*
X122221717Y-107051554D01*
X122205220Y-107000781D01*
X122205218Y-107000778D01*
X122205218Y-107000776D01*
X122147610Y-106887715D01*
X122112287Y-106818390D01*
X122095134Y-106794781D01*
X121991971Y-106652786D01*
X121847213Y-106508028D01*
X121681613Y-106387715D01*
X121681612Y-106387714D01*
X121681610Y-106387713D01*
X121624653Y-106358691D01*
X121499223Y-106294781D01*
X121304534Y-106231522D01*
X121110774Y-106200834D01*
X121102352Y-106199500D01*
X120897648Y-106199500D01*
X120889226Y-106200834D01*
X120695465Y-106231522D01*
X120500776Y-106294781D01*
X120318386Y-106387715D01*
X120152786Y-106508028D01*
X120008028Y-106652786D01*
X119887715Y-106818386D01*
X119794781Y-107000776D01*
X119731522Y-107195465D01*
X119699500Y-107397648D01*
X115180544Y-107397648D01*
X115114698Y-107271593D01*
X115082024Y-107231522D01*
X114986109Y-107113890D01*
X114870933Y-107019977D01*
X114828407Y-106985302D01*
X114648049Y-106891091D01*
X114648048Y-106891090D01*
X114648045Y-106891089D01*
X114530829Y-106857550D01*
X114452418Y-106835114D01*
X114452415Y-106835113D01*
X114452413Y-106835113D01*
X114386102Y-106829217D01*
X114333037Y-106824500D01*
X114333032Y-106824500D01*
X113366971Y-106824500D01*
X113366965Y-106824500D01*
X113366964Y-106824501D01*
X113355316Y-106825536D01*
X113247584Y-106835113D01*
X113051954Y-106891089D01*
X113039398Y-106897648D01*
X112871593Y-106985302D01*
X112871591Y-106985303D01*
X112871590Y-106985304D01*
X112713890Y-107113890D01*
X112585304Y-107271590D01*
X112585302Y-107271593D01*
X112549020Y-107341051D01*
X112491089Y-107451954D01*
X112435114Y-107647583D01*
X112435113Y-107647586D01*
X112428920Y-107717244D01*
X112426256Y-107747219D01*
X112424500Y-107766966D01*
X110000500Y-107766966D01*
X110000500Y-95366966D01*
X112424500Y-95366966D01*
X112424500Y-96333028D01*
X112424501Y-96333034D01*
X112435113Y-96452415D01*
X112491089Y-96648045D01*
X112491090Y-96648048D01*
X112491091Y-96648049D01*
X112585302Y-96828407D01*
X112598653Y-96844781D01*
X112713890Y-96986109D01*
X112802093Y-97058028D01*
X112871593Y-97114698D01*
X113051951Y-97208909D01*
X113215773Y-97255784D01*
X113274811Y-97293151D01*
X113304275Y-97356505D01*
X113294810Y-97425730D01*
X113249421Y-97478849D01*
X113215774Y-97494215D01*
X113180641Y-97504268D01*
X113051954Y-97541089D01*
X113033400Y-97550781D01*
X112871593Y-97635302D01*
X112871591Y-97635303D01*
X112871590Y-97635304D01*
X112713890Y-97763890D01*
X112585304Y-97921590D01*
X112491089Y-98101954D01*
X112454675Y-98229219D01*
X112435916Y-98294781D01*
X112435114Y-98297583D01*
X112435113Y-98297586D01*
X112424500Y-98416966D01*
X112424500Y-99383028D01*
X112424500Y-99383033D01*
X112424501Y-99383036D01*
X112425171Y-99390568D01*
X112435113Y-99502415D01*
X112491089Y-99698045D01*
X112491090Y-99698046D01*
X112491091Y-99698049D01*
X112585302Y-99878407D01*
X112585304Y-99878409D01*
X112713890Y-100036109D01*
X112783483Y-100092854D01*
X112871593Y-100164698D01*
X113051951Y-100258909D01*
X113215773Y-100305784D01*
X113274811Y-100343151D01*
X113304275Y-100406505D01*
X113294810Y-100475730D01*
X113249421Y-100528849D01*
X113215774Y-100544215D01*
X113180641Y-100554268D01*
X113051954Y-100591089D01*
X113011379Y-100612284D01*
X112871593Y-100685302D01*
X112871591Y-100685303D01*
X112871590Y-100685304D01*
X112713890Y-100813890D01*
X112585304Y-100971590D01*
X112585302Y-100971593D01*
X112541462Y-101055521D01*
X112491089Y-101151954D01*
X112435114Y-101347583D01*
X112435113Y-101347586D01*
X112424500Y-101466966D01*
X112424500Y-102433028D01*
X112424501Y-102433034D01*
X112435113Y-102552415D01*
X112491089Y-102748045D01*
X112491090Y-102748048D01*
X112491091Y-102748049D01*
X112585302Y-102928407D01*
X112585304Y-102928409D01*
X112713890Y-103086109D01*
X112790275Y-103148392D01*
X112871593Y-103214698D01*
X113051951Y-103308909D01*
X113051953Y-103308909D01*
X113051954Y-103308910D01*
X113103130Y-103323553D01*
X113215773Y-103355784D01*
X113274811Y-103393151D01*
X113304275Y-103456505D01*
X113294810Y-103525730D01*
X113249421Y-103578849D01*
X113215774Y-103594215D01*
X113180641Y-103604268D01*
X113051954Y-103641089D01*
X112961772Y-103688196D01*
X112871593Y-103735302D01*
X112871591Y-103735303D01*
X112871590Y-103735304D01*
X112713890Y-103863890D01*
X112609134Y-103992365D01*
X112585302Y-104021593D01*
X112548542Y-104091966D01*
X112491089Y-104201954D01*
X112461542Y-104305220D01*
X112437364Y-104389721D01*
X112435114Y-104397583D01*
X112435113Y-104397586D01*
X112429782Y-104457550D01*
X112426064Y-104499379D01*
X112424500Y-104516966D01*
X112424500Y-105483028D01*
X112424501Y-105483034D01*
X112435113Y-105602415D01*
X112491089Y-105798045D01*
X112491090Y-105798048D01*
X112491091Y-105798049D01*
X112585302Y-105978407D01*
X112585304Y-105978409D01*
X112713890Y-106136109D01*
X112807803Y-106212684D01*
X112871593Y-106264698D01*
X113051951Y-106358909D01*
X113051953Y-106358909D01*
X113051954Y-106358910D01*
X113071355Y-106364461D01*
X113247582Y-106414886D01*
X113366963Y-106425500D01*
X114333036Y-106425499D01*
X114452418Y-106414886D01*
X114648049Y-106358909D01*
X114828407Y-106264698D01*
X114986109Y-106136109D01*
X115114698Y-105978407D01*
X115208909Y-105798049D01*
X115264886Y-105602418D01*
X115275500Y-105483037D01*
X115275499Y-104647648D01*
X125049500Y-104647648D01*
X125049500Y-104852351D01*
X125081522Y-105054534D01*
X125144781Y-105249223D01*
X125193615Y-105345063D01*
X125225346Y-105407339D01*
X125237715Y-105431613D01*
X125358028Y-105597213D01*
X125502786Y-105741971D01*
X125601314Y-105813554D01*
X125668390Y-105862287D01*
X125761025Y-105909487D01*
X125850776Y-105955218D01*
X125850778Y-105955218D01*
X125850781Y-105955220D01*
X125931767Y-105981534D01*
X126045465Y-106018477D01*
X126146557Y-106034488D01*
X126247648Y-106050500D01*
X126247649Y-106050500D01*
X126452351Y-106050500D01*
X126452352Y-106050500D01*
X126654534Y-106018477D01*
X126849219Y-105955220D01*
X126962210Y-105897648D01*
X134699500Y-105897648D01*
X134699500Y-106102351D01*
X134731522Y-106304534D01*
X134794781Y-106499223D01*
X134852056Y-106611629D01*
X134874683Y-106656038D01*
X134887715Y-106681613D01*
X135008028Y-106847213D01*
X135152786Y-106991971D01*
X135307749Y-107104556D01*
X135318390Y-107112287D01*
X135434607Y-107171503D01*
X135500776Y-107205218D01*
X135500778Y-107205218D01*
X135500781Y-107205220D01*
X135605137Y-107239127D01*
X135695465Y-107268477D01*
X135796557Y-107284488D01*
X135897648Y-107300500D01*
X135897649Y-107300500D01*
X136102351Y-107300500D01*
X136102352Y-107300500D01*
X136304534Y-107268477D01*
X136499219Y-107205220D01*
X136681610Y-107112287D01*
X136785997Y-107036446D01*
X136847213Y-106991971D01*
X136847215Y-106991968D01*
X136847219Y-106991966D01*
X136991966Y-106847219D01*
X136991968Y-106847215D01*
X136991971Y-106847213D01*
X137060790Y-106752490D01*
X137112287Y-106681610D01*
X137205220Y-106499219D01*
X137268477Y-106304534D01*
X137300500Y-106102352D01*
X137300500Y-105897648D01*
X137268477Y-105695466D01*
X137205220Y-105500781D01*
X137205218Y-105500778D01*
X137205218Y-105500776D01*
X137162522Y-105416981D01*
X137136317Y-105365552D01*
X137112287Y-105318390D01*
X137098846Y-105299890D01*
X136991971Y-105152786D01*
X136847213Y-105008028D01*
X136681613Y-104887715D01*
X136681612Y-104887714D01*
X136681610Y-104887713D01*
X136612208Y-104852351D01*
X136499223Y-104794781D01*
X136304534Y-104731522D01*
X136129995Y-104703878D01*
X136102352Y-104699500D01*
X135897648Y-104699500D01*
X135873329Y-104703351D01*
X135695465Y-104731522D01*
X135500776Y-104794781D01*
X135318386Y-104887715D01*
X135152786Y-105008028D01*
X135008028Y-105152786D01*
X134887715Y-105318386D01*
X134794781Y-105500776D01*
X134731522Y-105695465D01*
X134699500Y-105897648D01*
X126962210Y-105897648D01*
X127031610Y-105862287D01*
X127197219Y-105741966D01*
X127341966Y-105597219D01*
X127341968Y-105597215D01*
X127341971Y-105597213D01*
X127424924Y-105483036D01*
X127462287Y-105431610D01*
X127555220Y-105249219D01*
X127618477Y-105054534D01*
X127650500Y-104852352D01*
X127650500Y-104647648D01*
X127636792Y-104561101D01*
X127618477Y-104445465D01*
X127572908Y-104305220D01*
X127555220Y-104250781D01*
X127555218Y-104250778D01*
X127555218Y-104250776D01*
X127497610Y-104137715D01*
X127462287Y-104068390D01*
X127445134Y-104044781D01*
X127341971Y-103902786D01*
X127197213Y-103758028D01*
X127031613Y-103637715D01*
X127031612Y-103637714D01*
X127031610Y-103637713D01*
X126974653Y-103608691D01*
X126849223Y-103544781D01*
X126654534Y-103481522D01*
X126479995Y-103453878D01*
X126452352Y-103449500D01*
X126247648Y-103449500D01*
X126223329Y-103453351D01*
X126045465Y-103481522D01*
X125850776Y-103544781D01*
X125668386Y-103637715D01*
X125502786Y-103758028D01*
X125358028Y-103902786D01*
X125237715Y-104068386D01*
X125144781Y-104250776D01*
X125081522Y-104445465D01*
X125049500Y-104647648D01*
X115275499Y-104647648D01*
X115275499Y-104516964D01*
X115264886Y-104397582D01*
X115220012Y-104240756D01*
X115208910Y-104201954D01*
X115208909Y-104201953D01*
X115208909Y-104201951D01*
X115114698Y-104021593D01*
X115017820Y-103902781D01*
X114986109Y-103863890D01*
X114870933Y-103769977D01*
X114828407Y-103735302D01*
X114648049Y-103641091D01*
X114648048Y-103641090D01*
X114648045Y-103641089D01*
X114551612Y-103613497D01*
X114484224Y-103594214D01*
X114425188Y-103556849D01*
X114395724Y-103493495D01*
X114405189Y-103424270D01*
X114450578Y-103371151D01*
X114484222Y-103355785D01*
X114648049Y-103308909D01*
X114828407Y-103214698D01*
X114986109Y-103086109D01*
X115114698Y-102928407D01*
X115208909Y-102748049D01*
X115264886Y-102552418D01*
X115275500Y-102433037D01*
X115275499Y-101466964D01*
X115269337Y-101397648D01*
X123449500Y-101397648D01*
X123449500Y-101602351D01*
X123481522Y-101804534D01*
X123544781Y-101999223D01*
X123637715Y-102181613D01*
X123758028Y-102347213D01*
X123902786Y-102491971D01*
X124052546Y-102600776D01*
X124068390Y-102612287D01*
X124184607Y-102671503D01*
X124250776Y-102705218D01*
X124250778Y-102705218D01*
X124250781Y-102705220D01*
X124355137Y-102739127D01*
X124445465Y-102768477D01*
X124546557Y-102784488D01*
X124647648Y-102800500D01*
X124647649Y-102800500D01*
X124852351Y-102800500D01*
X124852352Y-102800500D01*
X125054534Y-102768477D01*
X125249219Y-102705220D01*
X125431610Y-102612287D01*
X125534363Y-102537633D01*
X125597213Y-102491971D01*
X125597215Y-102491968D01*
X125597219Y-102491966D01*
X125741966Y-102347219D01*
X125741968Y-102347215D01*
X125741971Y-102347213D01*
X125799175Y-102268477D01*
X125862287Y-102181610D01*
X125955220Y-101999219D01*
X126018477Y-101804534D01*
X126050500Y-101602352D01*
X126050500Y-101397648D01*
X126018477Y-101195466D01*
X125955220Y-101000781D01*
X125955218Y-101000778D01*
X125955218Y-101000776D01*
X125902671Y-100897648D01*
X125862287Y-100818390D01*
X125849289Y-100800500D01*
X125741971Y-100652786D01*
X125597213Y-100508028D01*
X125431613Y-100387715D01*
X125431612Y-100387714D01*
X125431610Y-100387713D01*
X125362208Y-100352351D01*
X125249223Y-100294781D01*
X125054534Y-100231522D01*
X124879995Y-100203878D01*
X124852352Y-100199500D01*
X124647648Y-100199500D01*
X124623329Y-100203351D01*
X124445465Y-100231522D01*
X124250776Y-100294781D01*
X124068386Y-100387715D01*
X123902786Y-100508028D01*
X123758028Y-100652786D01*
X123637715Y-100818386D01*
X123544781Y-101000776D01*
X123481522Y-101195465D01*
X123449500Y-101397648D01*
X115269337Y-101397648D01*
X115264886Y-101347582D01*
X115217396Y-101181613D01*
X115208910Y-101151954D01*
X115208909Y-101151953D01*
X115208909Y-101151951D01*
X115114698Y-100971593D01*
X115025571Y-100862287D01*
X114986109Y-100813890D01*
X114870933Y-100719977D01*
X114828407Y-100685302D01*
X114648049Y-100591091D01*
X114648048Y-100591090D01*
X114648045Y-100591089D01*
X114551612Y-100563497D01*
X114484224Y-100544214D01*
X114425188Y-100506849D01*
X114395724Y-100443495D01*
X114405189Y-100374270D01*
X114450578Y-100321151D01*
X114484222Y-100305785D01*
X114648049Y-100258909D01*
X114828407Y-100164698D01*
X114986109Y-100036109D01*
X115114698Y-99878407D01*
X115208909Y-99698049D01*
X115223331Y-99647648D01*
X127449500Y-99647648D01*
X127449500Y-99852351D01*
X127481522Y-100054534D01*
X127544781Y-100249223D01*
X127597328Y-100352351D01*
X127637668Y-100431522D01*
X127637715Y-100431613D01*
X127758028Y-100597213D01*
X127902786Y-100741971D01*
X128055306Y-100852781D01*
X128068390Y-100862287D01*
X128184607Y-100921503D01*
X128250776Y-100955218D01*
X128250778Y-100955218D01*
X128250781Y-100955220D01*
X128355137Y-100989127D01*
X128445465Y-101018477D01*
X128546557Y-101034488D01*
X128647648Y-101050500D01*
X128647649Y-101050500D01*
X128852351Y-101050500D01*
X128852352Y-101050500D01*
X129054534Y-101018477D01*
X129249219Y-100955220D01*
X129269202Y-100945037D01*
X129337871Y-100932140D01*
X129402612Y-100958414D01*
X129442871Y-101015520D01*
X129449500Y-101055521D01*
X129449500Y-101102351D01*
X129481522Y-101304534D01*
X129544781Y-101499223D01*
X129637715Y-101681613D01*
X129758028Y-101847213D01*
X129758034Y-101847219D01*
X129902781Y-101991966D01*
X130063770Y-102108930D01*
X130106436Y-102164260D01*
X130113358Y-102189850D01*
X130131522Y-102304531D01*
X130131523Y-102304534D01*
X130194780Y-102499219D01*
X130252753Y-102612998D01*
X130287715Y-102681613D01*
X130408028Y-102847213D01*
X130552786Y-102991971D01*
X130707749Y-103104556D01*
X130718390Y-103112287D01*
X130900781Y-103205220D01*
X131038492Y-103249965D01*
X131096168Y-103289403D01*
X131122647Y-103348497D01*
X131131522Y-103404531D01*
X131131523Y-103404534D01*
X131194780Y-103599219D01*
X131275700Y-103758034D01*
X131287715Y-103781613D01*
X131408028Y-103947213D01*
X131552786Y-104091971D01*
X131666727Y-104174752D01*
X131718390Y-104212287D01*
X131812032Y-104260000D01*
X131900776Y-104305218D01*
X131900778Y-104305218D01*
X131900781Y-104305220D01*
X132005137Y-104339127D01*
X132095465Y-104368477D01*
X132148658Y-104376902D01*
X132297648Y-104400500D01*
X132297649Y-104400500D01*
X132502351Y-104400500D01*
X132502352Y-104400500D01*
X132704534Y-104368477D01*
X132899219Y-104305220D01*
X133081610Y-104212287D01*
X133174590Y-104144732D01*
X133247213Y-104091971D01*
X133247215Y-104091968D01*
X133247219Y-104091966D01*
X133391966Y-103947219D01*
X133391968Y-103947215D01*
X133391971Y-103947213D01*
X133452507Y-103863891D01*
X133512287Y-103781610D01*
X133605220Y-103599219D01*
X133668477Y-103404534D01*
X133700500Y-103202352D01*
X133700500Y-102997648D01*
X133668477Y-102795466D01*
X133668254Y-102794781D01*
X133619889Y-102645928D01*
X133605220Y-102600781D01*
X133605218Y-102600778D01*
X133605218Y-102600776D01*
X133563284Y-102518477D01*
X133512287Y-102418390D01*
X133495437Y-102395198D01*
X133481061Y-102375410D01*
X133457581Y-102309604D01*
X133473407Y-102241550D01*
X133523512Y-102192855D01*
X133525015Y-102192075D01*
X133681610Y-102112287D01*
X133794004Y-102030629D01*
X133847213Y-101991971D01*
X133847215Y-101991968D01*
X133847219Y-101991966D01*
X133991966Y-101847219D01*
X133991968Y-101847215D01*
X133991971Y-101847213D01*
X134063165Y-101749221D01*
X134112287Y-101681610D01*
X134205220Y-101499219D01*
X134268477Y-101304534D01*
X134300500Y-101102352D01*
X134300500Y-100897648D01*
X134293394Y-100852781D01*
X134268477Y-100695465D01*
X134236553Y-100597213D01*
X134205220Y-100500781D01*
X134205218Y-100500778D01*
X134205218Y-100500776D01*
X134112284Y-100318384D01*
X134110083Y-100314793D01*
X134091836Y-100247348D01*
X134110083Y-100185207D01*
X134112284Y-100181615D01*
X134120906Y-100164695D01*
X134205220Y-99999219D01*
X134268477Y-99804534D01*
X134300500Y-99602352D01*
X134300500Y-99397648D01*
X136699500Y-99397648D01*
X136699500Y-99602351D01*
X136731522Y-99804534D01*
X136794781Y-99999223D01*
X136852391Y-100112287D01*
X136879094Y-100164695D01*
X136887715Y-100181613D01*
X137008028Y-100347213D01*
X137152786Y-100491971D01*
X137307749Y-100604556D01*
X137318390Y-100612287D01*
X137397864Y-100652781D01*
X137500776Y-100705218D01*
X137500778Y-100705218D01*
X137500781Y-100705220D01*
X137605137Y-100739127D01*
X137695465Y-100768477D01*
X137796557Y-100784488D01*
X137897648Y-100800500D01*
X137897649Y-100800500D01*
X138102351Y-100800500D01*
X138102352Y-100800500D01*
X138304534Y-100768477D01*
X138499219Y-100705220D01*
X138681610Y-100612287D01*
X138775302Y-100544216D01*
X138847213Y-100491971D01*
X138847215Y-100491968D01*
X138847219Y-100491966D01*
X138991966Y-100347219D01*
X138991968Y-100347215D01*
X138991971Y-100347213D01*
X139056762Y-100258034D01*
X139112287Y-100181610D01*
X139205220Y-99999219D01*
X139268477Y-99804534D01*
X139300500Y-99602352D01*
X139300500Y-99397648D01*
X139287960Y-99318477D01*
X139268477Y-99195465D01*
X139218603Y-99041971D01*
X139205220Y-99000781D01*
X139205217Y-99000777D01*
X139205217Y-99000774D01*
X139178873Y-98949072D01*
X139178872Y-98949071D01*
X139152671Y-98897648D01*
X146199500Y-98897648D01*
X146199500Y-99102351D01*
X146231522Y-99304534D01*
X146294781Y-99499223D01*
X146350545Y-99608664D01*
X146374683Y-99656038D01*
X146387715Y-99681613D01*
X146508028Y-99847213D01*
X146652786Y-99991971D01*
X146807749Y-100104556D01*
X146818390Y-100112287D01*
X146921252Y-100164698D01*
X147000776Y-100205218D01*
X147000778Y-100205218D01*
X147000781Y-100205220D01*
X147105137Y-100239127D01*
X147195465Y-100268477D01*
X147296557Y-100284488D01*
X147397648Y-100300500D01*
X147397649Y-100300500D01*
X147602351Y-100300500D01*
X147602352Y-100300500D01*
X147804534Y-100268477D01*
X147999219Y-100205220D01*
X148112210Y-100147648D01*
X155199500Y-100147648D01*
X155199500Y-100352351D01*
X155231522Y-100554534D01*
X155294781Y-100749223D01*
X155352391Y-100862287D01*
X155370408Y-100897648D01*
X155387715Y-100931613D01*
X155508028Y-101097213D01*
X155652786Y-101241971D01*
X155798153Y-101347584D01*
X155818390Y-101362287D01*
X155906425Y-101407143D01*
X156000776Y-101455218D01*
X156000778Y-101455218D01*
X156000781Y-101455220D01*
X156105137Y-101489127D01*
X156195465Y-101518477D01*
X156296557Y-101534488D01*
X156397648Y-101550500D01*
X156397649Y-101550500D01*
X156602351Y-101550500D01*
X156602352Y-101550500D01*
X156804534Y-101518477D01*
X156999219Y-101455220D01*
X157181610Y-101362287D01*
X157274590Y-101294732D01*
X157347213Y-101241971D01*
X157347215Y-101241968D01*
X157347219Y-101241966D01*
X157369970Y-101219215D01*
X161765392Y-101219215D01*
X161765392Y-110219215D01*
X164384365Y-110219215D01*
X164451404Y-110238900D01*
X164497159Y-110291704D01*
X164507103Y-110360862D01*
X164502296Y-110381531D01*
X164499211Y-110391027D01*
X164481522Y-110445465D01*
X164452438Y-110629096D01*
X164449500Y-110647648D01*
X164449500Y-110852352D01*
X164450835Y-110860783D01*
X164481522Y-111054534D01*
X164544781Y-111249223D01*
X164586017Y-111330151D01*
X164624284Y-111405255D01*
X164637715Y-111431613D01*
X164758028Y-111597213D01*
X164902786Y-111741971D01*
X165051581Y-111850075D01*
X165068390Y-111862287D01*
X165141315Y-111899444D01*
X165250776Y-111955218D01*
X165250778Y-111955218D01*
X165250781Y-111955220D01*
X165355137Y-111989127D01*
X165445465Y-112018477D01*
X165546557Y-112034488D01*
X165647648Y-112050500D01*
X165647649Y-112050500D01*
X165852351Y-112050500D01*
X165852352Y-112050500D01*
X166054534Y-112018477D01*
X166249219Y-111955220D01*
X166431610Y-111862287D01*
X166542381Y-111781808D01*
X166597213Y-111741971D01*
X166597215Y-111741968D01*
X166597219Y-111741966D01*
X166741966Y-111597219D01*
X166741968Y-111597215D01*
X166741971Y-111597213D01*
X166826435Y-111480956D01*
X166862287Y-111431610D01*
X166955220Y-111249219D01*
X167018477Y-111054534D01*
X167049166Y-110860777D01*
X177899500Y-110860777D01*
X177899500Y-112239208D01*
X177899501Y-112239223D01*
X177909904Y-112371413D01*
X177909905Y-112371420D01*
X177964902Y-112589678D01*
X177964903Y-112589681D01*
X178057991Y-112794622D01*
X178057997Y-112794632D01*
X178186174Y-112979645D01*
X178186178Y-112979650D01*
X178186181Y-112979654D01*
X178345346Y-113138819D01*
X178345350Y-113138822D01*
X178345354Y-113138825D01*
X178429257Y-113196953D01*
X178530374Y-113267007D01*
X178735317Y-113360096D01*
X178735321Y-113360097D01*
X178953579Y-113415094D01*
X178953581Y-113415094D01*
X178953588Y-113415096D01*
X179085783Y-113425500D01*
X179914216Y-113425499D01*
X180046412Y-113415096D01*
X180264683Y-113360096D01*
X180469626Y-113267007D01*
X180654654Y-113138819D01*
X180813819Y-112979654D01*
X180890236Y-112869351D01*
X180944593Y-112825458D01*
X181014055Y-112817918D01*
X181048460Y-112829486D01*
X181077750Y-112844410D01*
X181242415Y-112897914D01*
X181242414Y-112897914D01*
X181249999Y-112899115D01*
X181250000Y-112899114D01*
X181250000Y-111830330D01*
X181269745Y-111850075D01*
X181355255Y-111899444D01*
X181450630Y-111925000D01*
X181549370Y-111925000D01*
X181644745Y-111899444D01*
X181730255Y-111850075D01*
X181750000Y-111830330D01*
X181750000Y-112899115D01*
X181757584Y-112897914D01*
X181922255Y-112844408D01*
X182076524Y-112765804D01*
X182216602Y-112664032D01*
X182339032Y-112541602D01*
X182440804Y-112401524D01*
X182519408Y-112247257D01*
X182572914Y-112082584D01*
X182600000Y-111911571D01*
X182600000Y-111800000D01*
X181780330Y-111800000D01*
X181800075Y-111780255D01*
X181849444Y-111694745D01*
X181875000Y-111599370D01*
X181875000Y-111500630D01*
X181849444Y-111405255D01*
X181800075Y-111319745D01*
X181780330Y-111300000D01*
X182600000Y-111300000D01*
X182600000Y-111188428D01*
X182572914Y-111017415D01*
X182519408Y-110852742D01*
X182440804Y-110698475D01*
X182339032Y-110558397D01*
X182216602Y-110435967D01*
X182076524Y-110334195D01*
X181922257Y-110255591D01*
X181757589Y-110202087D01*
X181757581Y-110202085D01*
X181750000Y-110200884D01*
X181750000Y-111269670D01*
X181730255Y-111249925D01*
X181644745Y-111200556D01*
X181549370Y-111175000D01*
X181450630Y-111175000D01*
X181355255Y-111200556D01*
X181269745Y-111249925D01*
X181250000Y-111269670D01*
X181250000Y-110200884D01*
X181249999Y-110200884D01*
X181242418Y-110202085D01*
X181242406Y-110202088D01*
X181077749Y-110255588D01*
X181048455Y-110270514D01*
X180979785Y-110283409D01*
X180915045Y-110257131D01*
X180890234Y-110230644D01*
X180813825Y-110120354D01*
X180813822Y-110120350D01*
X180813819Y-110120346D01*
X180654654Y-109961181D01*
X180654650Y-109961178D01*
X180654645Y-109961174D01*
X180469632Y-109832997D01*
X180469630Y-109832995D01*
X180469626Y-109832993D01*
X180313954Y-109762284D01*
X180264681Y-109739903D01*
X180264678Y-109739902D01*
X180046420Y-109684905D01*
X180046413Y-109684904D01*
X180002347Y-109681436D01*
X179914217Y-109674500D01*
X179914215Y-109674500D01*
X179085791Y-109674500D01*
X179085776Y-109674501D01*
X178953586Y-109684904D01*
X178953579Y-109684905D01*
X178735321Y-109739902D01*
X178735318Y-109739903D01*
X178530377Y-109832991D01*
X178530367Y-109832997D01*
X178345354Y-109961174D01*
X178345342Y-109961184D01*
X178186184Y-110120342D01*
X178186174Y-110120354D01*
X178057997Y-110305367D01*
X178057991Y-110305377D01*
X177964903Y-110510318D01*
X177964902Y-110510321D01*
X177909905Y-110728579D01*
X177909904Y-110728586D01*
X177899500Y-110860777D01*
X167049166Y-110860777D01*
X167050500Y-110852352D01*
X167050500Y-110647648D01*
X167028386Y-110508028D01*
X167018477Y-110445465D01*
X167006336Y-110408102D01*
X166997703Y-110381533D01*
X166995709Y-110311693D01*
X167031789Y-110251860D01*
X167094489Y-110221031D01*
X167115635Y-110219215D01*
X169015392Y-110219215D01*
X169015392Y-108397648D01*
X175699500Y-108397648D01*
X175699500Y-108602351D01*
X175731522Y-108804534D01*
X175794781Y-108999223D01*
X175852391Y-109112287D01*
X175885624Y-109177511D01*
X175887715Y-109181613D01*
X176008028Y-109347213D01*
X176152786Y-109491971D01*
X176283069Y-109586625D01*
X176318390Y-109612287D01*
X176421619Y-109664885D01*
X176500776Y-109705218D01*
X176500778Y-109705218D01*
X176500781Y-109705220D01*
X176605137Y-109739127D01*
X176695465Y-109768477D01*
X176796557Y-109784488D01*
X176897648Y-109800500D01*
X176897649Y-109800500D01*
X177102351Y-109800500D01*
X177102352Y-109800500D01*
X177304534Y-109768477D01*
X177499219Y-109705220D01*
X177681610Y-109612287D01*
X177797066Y-109528404D01*
X177847213Y-109491971D01*
X177847215Y-109491968D01*
X177847219Y-109491966D01*
X177991966Y-109347219D01*
X177991968Y-109347215D01*
X177991971Y-109347213D01*
X178061617Y-109251352D01*
X178112287Y-109181610D01*
X178205220Y-108999219D01*
X178268477Y-108804534D01*
X178300500Y-108602352D01*
X178300500Y-108397648D01*
X178280776Y-108273120D01*
X178268477Y-108195465D01*
X178231404Y-108081368D01*
X178205220Y-108000781D01*
X178205218Y-108000778D01*
X178205218Y-108000776D01*
X178149776Y-107891966D01*
X178112287Y-107818390D01*
X178095422Y-107795177D01*
X177991971Y-107652786D01*
X177847213Y-107508028D01*
X177681613Y-107387715D01*
X177681612Y-107387714D01*
X177681610Y-107387713D01*
X177590031Y-107341051D01*
X177499223Y-107294781D01*
X177304534Y-107231522D01*
X177118035Y-107201984D01*
X177102352Y-107199500D01*
X176897648Y-107199500D01*
X176881965Y-107201984D01*
X176695465Y-107231522D01*
X176500776Y-107294781D01*
X176318386Y-107387715D01*
X176152786Y-107508028D01*
X176008028Y-107652786D01*
X175887715Y-107818386D01*
X175794781Y-108000776D01*
X175731522Y-108195465D01*
X175699500Y-108397648D01*
X169015392Y-108397648D01*
X169015392Y-106897648D01*
X178949500Y-106897648D01*
X178949500Y-107102352D01*
X178951328Y-107113891D01*
X178981522Y-107304534D01*
X179044781Y-107499223D01*
X179086760Y-107581610D01*
X179130542Y-107667537D01*
X179137715Y-107681613D01*
X179258028Y-107847213D01*
X179402786Y-107991971D01*
X179513842Y-108072656D01*
X179568390Y-108112287D01*
X179639166Y-108148349D01*
X179750776Y-108205218D01*
X179750778Y-108205218D01*
X179750781Y-108205220D01*
X179855137Y-108239127D01*
X179945465Y-108268477D01*
X179974742Y-108273114D01*
X180147648Y-108300500D01*
X180147649Y-108300500D01*
X180352351Y-108300500D01*
X180352352Y-108300500D01*
X180554534Y-108268477D01*
X180749219Y-108205220D01*
X180931610Y-108112287D01*
X181063682Y-108016332D01*
X181097213Y-107991971D01*
X181097215Y-107991968D01*
X181097219Y-107991966D01*
X181241966Y-107847219D01*
X181241968Y-107847215D01*
X181241971Y-107847213D01*
X181362284Y-107681614D01*
X181362285Y-107681613D01*
X181362287Y-107681610D01*
X181397805Y-107611902D01*
X184749500Y-107611902D01*
X184749500Y-107848097D01*
X184786446Y-108081368D01*
X184859433Y-108305996D01*
X184941666Y-108467386D01*
X184966657Y-108516433D01*
X185105483Y-108707510D01*
X185272490Y-108874517D01*
X185463567Y-109013343D01*
X185467830Y-109015515D01*
X185518626Y-109063490D01*
X185535421Y-109131311D01*
X185512883Y-109197446D01*
X185458168Y-109240897D01*
X185411535Y-109250000D01*
X185250000Y-109250000D01*
X185250000Y-109547844D01*
X185256401Y-109607372D01*
X185256403Y-109607379D01*
X185306645Y-109742086D01*
X185306649Y-109742093D01*
X185392809Y-109857187D01*
X185392812Y-109857190D01*
X185507906Y-109943350D01*
X185507913Y-109943354D01*
X185642620Y-109993596D01*
X185642627Y-109993598D01*
X185702155Y-109999999D01*
X185702172Y-110000000D01*
X186000000Y-110000000D01*
X186000000Y-109354261D01*
X186019685Y-109287222D01*
X186050794Y-109260265D01*
X186124555Y-109302851D01*
X186207213Y-109325000D01*
X186292787Y-109325000D01*
X186375445Y-109302851D01*
X186449554Y-109260064D01*
X186449736Y-109259881D01*
X186484404Y-109294056D01*
X186500000Y-109354261D01*
X186500000Y-110000000D01*
X186797828Y-110000000D01*
X186797844Y-109999999D01*
X186857372Y-109993598D01*
X186857379Y-109993596D01*
X186992086Y-109943354D01*
X186992093Y-109943350D01*
X187107187Y-109857190D01*
X187107190Y-109857187D01*
X187193350Y-109742093D01*
X187193354Y-109742086D01*
X187243596Y-109607379D01*
X187243598Y-109607372D01*
X187249999Y-109547844D01*
X187250000Y-109547827D01*
X187250000Y-109250000D01*
X187088465Y-109250000D01*
X187021426Y-109230315D01*
X186975671Y-109177511D01*
X186965727Y-109108353D01*
X186994752Y-109044797D01*
X187032170Y-109015515D01*
X187036433Y-109013343D01*
X187227510Y-108874517D01*
X187394517Y-108707510D01*
X187533343Y-108516433D01*
X187640568Y-108305992D01*
X187713553Y-108081368D01*
X187723854Y-108016332D01*
X187750500Y-107848097D01*
X187750500Y-107611902D01*
X187713553Y-107378631D01*
X187655349Y-107199500D01*
X187640568Y-107154008D01*
X187640566Y-107154005D01*
X187640566Y-107154003D01*
X187580667Y-107036446D01*
X187533343Y-106943567D01*
X187394517Y-106752490D01*
X187227510Y-106585483D01*
X187036433Y-106446657D01*
X186994908Y-106425499D01*
X186825996Y-106339433D01*
X186601368Y-106266446D01*
X186368097Y-106229500D01*
X186368092Y-106229500D01*
X186131908Y-106229500D01*
X186131903Y-106229500D01*
X185898631Y-106266446D01*
X185674003Y-106339433D01*
X185463566Y-106446657D01*
X185354550Y-106525862D01*
X185272490Y-106585483D01*
X185272488Y-106585485D01*
X185272487Y-106585485D01*
X185105485Y-106752487D01*
X185105485Y-106752488D01*
X185105483Y-106752490D01*
X185074757Y-106794781D01*
X184966657Y-106943566D01*
X184859433Y-107154003D01*
X184786446Y-107378631D01*
X184749500Y-107611902D01*
X181397805Y-107611902D01*
X181455220Y-107499219D01*
X181518477Y-107304534D01*
X181550500Y-107102352D01*
X181550500Y-106897648D01*
X181540595Y-106835113D01*
X181518477Y-106695465D01*
X181469716Y-106545395D01*
X181455220Y-106500781D01*
X181455218Y-106500778D01*
X181455218Y-106500776D01*
X181406691Y-106405538D01*
X181362287Y-106318390D01*
X181345134Y-106294781D01*
X181241971Y-106152786D01*
X181097213Y-106008028D01*
X180931613Y-105887715D01*
X180931612Y-105887714D01*
X180931610Y-105887713D01*
X180823722Y-105832741D01*
X180749223Y-105794781D01*
X180554534Y-105731522D01*
X180379995Y-105703878D01*
X180352352Y-105699500D01*
X180147648Y-105699500D01*
X180123329Y-105703351D01*
X179945465Y-105731522D01*
X179750776Y-105794781D01*
X179568386Y-105887715D01*
X179402786Y-106008028D01*
X179258028Y-106152786D01*
X179137715Y-106318386D01*
X179044781Y-106500776D01*
X178981522Y-106695465D01*
X178957488Y-106847213D01*
X178949500Y-106897648D01*
X169015392Y-106897648D01*
X169015392Y-102537633D01*
X169035077Y-102470594D01*
X169087881Y-102424839D01*
X169157039Y-102414895D01*
X169195686Y-102427147D01*
X169208231Y-102433539D01*
X169250776Y-102455218D01*
X169250778Y-102455218D01*
X169250781Y-102455220D01*
X169355137Y-102489127D01*
X169445465Y-102518477D01*
X169546557Y-102534488D01*
X169647648Y-102550500D01*
X169647649Y-102550500D01*
X169852351Y-102550500D01*
X169852352Y-102550500D01*
X170054534Y-102518477D01*
X170249219Y-102455220D01*
X170431610Y-102362287D01*
X170533963Y-102287924D01*
X170597213Y-102241971D01*
X170597215Y-102241968D01*
X170597219Y-102241966D01*
X170741966Y-102097219D01*
X170741968Y-102097215D01*
X170741971Y-102097213D01*
X170809305Y-102004534D01*
X170862287Y-101931610D01*
X170955220Y-101749219D01*
X171004468Y-101597648D01*
X178699500Y-101597648D01*
X178699500Y-101802351D01*
X178731522Y-102004534D01*
X178794781Y-102199223D01*
X178846385Y-102300500D01*
X178887328Y-102380855D01*
X178887715Y-102381613D01*
X179008028Y-102547213D01*
X179152786Y-102691971D01*
X179258090Y-102768477D01*
X179318390Y-102812287D01*
X179434607Y-102871503D01*
X179500776Y-102905218D01*
X179500778Y-102905218D01*
X179500781Y-102905220D01*
X179605137Y-102939127D01*
X179695465Y-102968477D01*
X179796557Y-102984488D01*
X179897648Y-103000500D01*
X179897649Y-103000500D01*
X180102351Y-103000500D01*
X180102352Y-103000500D01*
X180304534Y-102968477D01*
X180499219Y-102905220D01*
X180681610Y-102812287D01*
X180792773Y-102731523D01*
X180847213Y-102691971D01*
X180847215Y-102691968D01*
X180847219Y-102691966D01*
X180991966Y-102547219D01*
X180991968Y-102547215D01*
X180991971Y-102547213D01*
X181053509Y-102462512D01*
X181112287Y-102381610D01*
X181205220Y-102199219D01*
X181268477Y-102004534D01*
X181300500Y-101802352D01*
X181300500Y-101597648D01*
X181283761Y-101491966D01*
X181268477Y-101395465D01*
X181218601Y-101241965D01*
X181205220Y-101200781D01*
X181205218Y-101200778D01*
X181205218Y-101200776D01*
X181151308Y-101094973D01*
X181112287Y-101018390D01*
X181099490Y-101000776D01*
X180991971Y-100852786D01*
X180847213Y-100708028D01*
X180681613Y-100587715D01*
X180681612Y-100587714D01*
X180681610Y-100587713D01*
X180616493Y-100554534D01*
X180499223Y-100494781D01*
X180304534Y-100431522D01*
X180129995Y-100403878D01*
X180102352Y-100399500D01*
X179897648Y-100399500D01*
X179876933Y-100402781D01*
X179695465Y-100431522D01*
X179500776Y-100494781D01*
X179318386Y-100587715D01*
X179152786Y-100708028D01*
X179008028Y-100852786D01*
X178887715Y-101018386D01*
X178794781Y-101200776D01*
X178731522Y-101395465D01*
X178699500Y-101597648D01*
X171004468Y-101597648D01*
X171018477Y-101554534D01*
X171027594Y-101496969D01*
X171027802Y-101495807D01*
X171042859Y-101465605D01*
X171057322Y-101435097D01*
X171058537Y-101434159D01*
X171058977Y-101433278D01*
X171062067Y-101431437D01*
X171093570Y-101407144D01*
X171181610Y-101362287D01*
X171347219Y-101241966D01*
X171491966Y-101097219D01*
X171491968Y-101097215D01*
X171491971Y-101097213D01*
X171562035Y-101000776D01*
X171612287Y-100931610D01*
X171705220Y-100749219D01*
X171768477Y-100554534D01*
X171800500Y-100352352D01*
X171800500Y-100147648D01*
X171787395Y-100064905D01*
X171768477Y-99945465D01*
X171705218Y-99750776D01*
X171652671Y-99647648D01*
X171612287Y-99568390D01*
X171604556Y-99557749D01*
X171491971Y-99402786D01*
X171347213Y-99258028D01*
X171181613Y-99137715D01*
X171181612Y-99137714D01*
X171181610Y-99137713D01*
X171112208Y-99102351D01*
X170999223Y-99044781D01*
X170804534Y-98981522D01*
X170629995Y-98953878D01*
X170602352Y-98949500D01*
X170397648Y-98949500D01*
X170373329Y-98953351D01*
X170195465Y-98981522D01*
X170000776Y-99044781D01*
X169818386Y-99137715D01*
X169652786Y-99258028D01*
X169508028Y-99402786D01*
X169387715Y-99568386D01*
X169294781Y-99750778D01*
X169231523Y-99945466D01*
X169222604Y-100001771D01*
X169192673Y-100064905D01*
X169156427Y-100092854D01*
X169068388Y-100137713D01*
X168902786Y-100258028D01*
X168758028Y-100402786D01*
X168637715Y-100568386D01*
X168544781Y-100750776D01*
X168481522Y-100945465D01*
X168454732Y-101114613D01*
X168424803Y-101177748D01*
X168365491Y-101214679D01*
X168332259Y-101219215D01*
X161765392Y-101219215D01*
X157369970Y-101219215D01*
X157491966Y-101097219D01*
X157493600Y-101094970D01*
X157493602Y-101094968D01*
X157562035Y-101000776D01*
X157612287Y-100931610D01*
X157705220Y-100749219D01*
X157768477Y-100554534D01*
X157800500Y-100352352D01*
X157800500Y-100147648D01*
X157787395Y-100064905D01*
X157768477Y-99945465D01*
X157705218Y-99750776D01*
X157652671Y-99647648D01*
X157612287Y-99568390D01*
X157604556Y-99557749D01*
X157491971Y-99402786D01*
X157347213Y-99258028D01*
X157181613Y-99137715D01*
X157181612Y-99137714D01*
X157181610Y-99137713D01*
X157112208Y-99102351D01*
X156999223Y-99044781D01*
X156804534Y-98981522D01*
X156629995Y-98953878D01*
X156602352Y-98949500D01*
X156397648Y-98949500D01*
X156373329Y-98953351D01*
X156195465Y-98981522D01*
X156000776Y-99044781D01*
X155818386Y-99137715D01*
X155652786Y-99258028D01*
X155508028Y-99402786D01*
X155387715Y-99568386D01*
X155294781Y-99750776D01*
X155231522Y-99945465D01*
X155199500Y-100147648D01*
X148112210Y-100147648D01*
X148181610Y-100112287D01*
X148347219Y-99991966D01*
X148491966Y-99847219D01*
X148491968Y-99847215D01*
X148491971Y-99847213D01*
X148600343Y-99698049D01*
X148612287Y-99681610D01*
X148705220Y-99499219D01*
X148768477Y-99304534D01*
X148800500Y-99102352D01*
X148800500Y-98897648D01*
X148768477Y-98695466D01*
X148754609Y-98652786D01*
X148739127Y-98605137D01*
X148705220Y-98500781D01*
X148705218Y-98500778D01*
X148705218Y-98500776D01*
X148671503Y-98434607D01*
X148612287Y-98318390D01*
X148595134Y-98294781D01*
X148491971Y-98152786D01*
X148347213Y-98008028D01*
X148181613Y-97887715D01*
X148181612Y-97887714D01*
X148181610Y-97887713D01*
X148124653Y-97858691D01*
X147999223Y-97794781D01*
X147804534Y-97731522D01*
X147629995Y-97703878D01*
X147602352Y-97699500D01*
X147397648Y-97699500D01*
X147373329Y-97703351D01*
X147195465Y-97731522D01*
X147000776Y-97794781D01*
X146818386Y-97887715D01*
X146652786Y-98008028D01*
X146508028Y-98152786D01*
X146387715Y-98318386D01*
X146294781Y-98500776D01*
X146231522Y-98695465D01*
X146199500Y-98897648D01*
X139152671Y-98897648D01*
X139124463Y-98842287D01*
X139112287Y-98818390D01*
X139112285Y-98818387D01*
X139112284Y-98818385D01*
X138991971Y-98652786D01*
X138847213Y-98508028D01*
X138681613Y-98387715D01*
X138681612Y-98387714D01*
X138681610Y-98387713D01*
X138610279Y-98351368D01*
X138499223Y-98294781D01*
X138304534Y-98231522D01*
X138129995Y-98203878D01*
X138102352Y-98199500D01*
X137897648Y-98199500D01*
X137873329Y-98203351D01*
X137695465Y-98231522D01*
X137500776Y-98294781D01*
X137318386Y-98387715D01*
X137152786Y-98508028D01*
X137008028Y-98652786D01*
X136887715Y-98818386D01*
X136794781Y-99000776D01*
X136731522Y-99195465D01*
X136699500Y-99397648D01*
X134300500Y-99397648D01*
X134287960Y-99318477D01*
X134268477Y-99195465D01*
X134205218Y-99000776D01*
X134152449Y-98897213D01*
X134112287Y-98818390D01*
X134089069Y-98786433D01*
X133991971Y-98652786D01*
X133847213Y-98508028D01*
X133681613Y-98387715D01*
X133681612Y-98387714D01*
X133681610Y-98387713D01*
X133610279Y-98351368D01*
X133499223Y-98294781D01*
X133304534Y-98231522D01*
X133129995Y-98203878D01*
X133102352Y-98199500D01*
X132897648Y-98199500D01*
X132873329Y-98203351D01*
X132695465Y-98231522D01*
X132500776Y-98294781D01*
X132318386Y-98387715D01*
X132152786Y-98508028D01*
X132008028Y-98652786D01*
X131887715Y-98818386D01*
X131794781Y-99000776D01*
X131731523Y-99195464D01*
X131715882Y-99294212D01*
X131685952Y-99357347D01*
X131626640Y-99394277D01*
X131556777Y-99393279D01*
X131498545Y-99354668D01*
X131475478Y-99313130D01*
X131469516Y-99294780D01*
X131455220Y-99250781D01*
X131362287Y-99068390D01*
X131345134Y-99044781D01*
X131241971Y-98902786D01*
X131097213Y-98758028D01*
X130931613Y-98637715D01*
X130931612Y-98637714D01*
X130931610Y-98637713D01*
X130874653Y-98608691D01*
X130749223Y-98544781D01*
X130554534Y-98481522D01*
X130379995Y-98453878D01*
X130352352Y-98449500D01*
X130147648Y-98449500D01*
X130123329Y-98453351D01*
X129945465Y-98481522D01*
X129750776Y-98544781D01*
X129568384Y-98637715D01*
X129564793Y-98639917D01*
X129497348Y-98658164D01*
X129435207Y-98639917D01*
X129431615Y-98637715D01*
X129249223Y-98544781D01*
X129054534Y-98481522D01*
X128879995Y-98453878D01*
X128852352Y-98449500D01*
X128647648Y-98449500D01*
X128623329Y-98453351D01*
X128445465Y-98481522D01*
X128250776Y-98544781D01*
X128068386Y-98637715D01*
X127902786Y-98758028D01*
X127758028Y-98902786D01*
X127637715Y-99068386D01*
X127544781Y-99250776D01*
X127481522Y-99445465D01*
X127449500Y-99647648D01*
X115223331Y-99647648D01*
X115264886Y-99502418D01*
X115275500Y-99383037D01*
X115275499Y-98416964D01*
X115264886Y-98297582D01*
X115208909Y-98101951D01*
X115114698Y-97921593D01*
X115015960Y-97800500D01*
X114986109Y-97763890D01*
X114844755Y-97648632D01*
X114828407Y-97635302D01*
X114648049Y-97541091D01*
X114648048Y-97541090D01*
X114648045Y-97541089D01*
X114551612Y-97513497D01*
X114484224Y-97494214D01*
X114425188Y-97456849D01*
X114395724Y-97393495D01*
X114405189Y-97324270D01*
X114450578Y-97271151D01*
X114484222Y-97255785D01*
X114648049Y-97208909D01*
X114828407Y-97114698D01*
X114986109Y-96986109D01*
X115114698Y-96828407D01*
X115208909Y-96648049D01*
X115264886Y-96452418D01*
X115269756Y-96397648D01*
X135699500Y-96397648D01*
X135699500Y-96602352D01*
X135700621Y-96609432D01*
X135731522Y-96804534D01*
X135794781Y-96999223D01*
X135887715Y-97181613D01*
X136008028Y-97347213D01*
X136152786Y-97491971D01*
X136307749Y-97604556D01*
X136318390Y-97612287D01*
X136434607Y-97671503D01*
X136500776Y-97705218D01*
X136500778Y-97705218D01*
X136500781Y-97705220D01*
X136605137Y-97739127D01*
X136695465Y-97768477D01*
X136796557Y-97784488D01*
X136897648Y-97800500D01*
X136897649Y-97800500D01*
X137102351Y-97800500D01*
X137102352Y-97800500D01*
X137304534Y-97768477D01*
X137499219Y-97705220D01*
X137681610Y-97612287D01*
X137779604Y-97541091D01*
X137847213Y-97491971D01*
X137847215Y-97491968D01*
X137847219Y-97491966D01*
X137991966Y-97347219D01*
X137991968Y-97347215D01*
X137991971Y-97347213D01*
X138089069Y-97213567D01*
X138112287Y-97181610D01*
X138205220Y-96999219D01*
X138268477Y-96804534D01*
X138300500Y-96602352D01*
X138300500Y-96397648D01*
X138293090Y-96350866D01*
X138268477Y-96195465D01*
X138205218Y-96000776D01*
X138167181Y-95926126D01*
X138112287Y-95818390D01*
X138085293Y-95781236D01*
X137991971Y-95652786D01*
X137847213Y-95508028D01*
X137681613Y-95387715D01*
X137681612Y-95387714D01*
X137681610Y-95387713D01*
X137614569Y-95353554D01*
X137499223Y-95294781D01*
X137304534Y-95231522D01*
X137129995Y-95203878D01*
X137102352Y-95199500D01*
X136897648Y-95199500D01*
X136873329Y-95203351D01*
X136695465Y-95231522D01*
X136500776Y-95294781D01*
X136318386Y-95387715D01*
X136152786Y-95508028D01*
X136008028Y-95652786D01*
X135887715Y-95818386D01*
X135794781Y-96000776D01*
X135731522Y-96195465D01*
X135706484Y-96353554D01*
X135699500Y-96397648D01*
X115269756Y-96397648D01*
X115275500Y-96333037D01*
X115275499Y-95366964D01*
X115264886Y-95247582D01*
X115208909Y-95051951D01*
X115114698Y-94871593D01*
X115026569Y-94763511D01*
X114986109Y-94713890D01*
X114828409Y-94585304D01*
X114828410Y-94585304D01*
X114828407Y-94585302D01*
X114648049Y-94491091D01*
X114648048Y-94491090D01*
X114648045Y-94491089D01*
X114530829Y-94457550D01*
X114452418Y-94435114D01*
X114452415Y-94435113D01*
X114452413Y-94435113D01*
X114386102Y-94429217D01*
X114333037Y-94424500D01*
X114333032Y-94424500D01*
X113366971Y-94424500D01*
X113366965Y-94424500D01*
X113366964Y-94424501D01*
X113355316Y-94425536D01*
X113247584Y-94435113D01*
X113051954Y-94491089D01*
X113033400Y-94500781D01*
X112871593Y-94585302D01*
X112871591Y-94585303D01*
X112871590Y-94585304D01*
X112713890Y-94713890D01*
X112585304Y-94871590D01*
X112585302Y-94871593D01*
X112556814Y-94926131D01*
X112491089Y-95051954D01*
X112454076Y-95181312D01*
X112439710Y-95231522D01*
X112435114Y-95247583D01*
X112435113Y-95247586D01*
X112424500Y-95366966D01*
X110000500Y-95366966D01*
X110000500Y-92897648D01*
X127699500Y-92897648D01*
X127699500Y-93102351D01*
X127731522Y-93304534D01*
X127794781Y-93499223D01*
X127856433Y-93620219D01*
X127884841Y-93675974D01*
X127887715Y-93681613D01*
X128008028Y-93847213D01*
X128152786Y-93991971D01*
X128307749Y-94104556D01*
X128318390Y-94112287D01*
X128397864Y-94152781D01*
X128500776Y-94205218D01*
X128500778Y-94205218D01*
X128500781Y-94205220D01*
X128605137Y-94239127D01*
X128695465Y-94268477D01*
X128722223Y-94272715D01*
X128897648Y-94300500D01*
X128897649Y-94300500D01*
X129102351Y-94300500D01*
X129102352Y-94300500D01*
X129304534Y-94268477D01*
X129499219Y-94205220D01*
X129681610Y-94112287D01*
X129795094Y-94029837D01*
X129847213Y-93991971D01*
X129847215Y-93991968D01*
X129847219Y-93991966D01*
X129991966Y-93847219D01*
X130096020Y-93703998D01*
X130151349Y-93661333D01*
X130220962Y-93655353D01*
X130269223Y-93676566D01*
X130300790Y-93699500D01*
X130318390Y-93712287D01*
X130434607Y-93771503D01*
X130500776Y-93805218D01*
X130500778Y-93805218D01*
X130500781Y-93805220D01*
X130605137Y-93839127D01*
X130695465Y-93868477D01*
X130796557Y-93884488D01*
X130897648Y-93900500D01*
X130897649Y-93900500D01*
X131102351Y-93900500D01*
X131102352Y-93900500D01*
X131304534Y-93868477D01*
X131499219Y-93805220D01*
X131681610Y-93712287D01*
X131774590Y-93644732D01*
X131847213Y-93591971D01*
X131847215Y-93591968D01*
X131847219Y-93591966D01*
X131991966Y-93447219D01*
X131991968Y-93447215D01*
X131991971Y-93447213D01*
X132082637Y-93322420D01*
X132112287Y-93281610D01*
X132205220Y-93099219D01*
X132268477Y-92904534D01*
X132269568Y-92897648D01*
X138199500Y-92897648D01*
X138199500Y-93102351D01*
X138231522Y-93304534D01*
X138294781Y-93499223D01*
X138356433Y-93620219D01*
X138384841Y-93675974D01*
X138387715Y-93681613D01*
X138508028Y-93847213D01*
X138652786Y-93991971D01*
X138807749Y-94104556D01*
X138818390Y-94112287D01*
X138897864Y-94152781D01*
X139000776Y-94205218D01*
X139000778Y-94205218D01*
X139000781Y-94205220D01*
X139105137Y-94239127D01*
X139195465Y-94268477D01*
X139222223Y-94272715D01*
X139397648Y-94300500D01*
X139397649Y-94300500D01*
X139602351Y-94300500D01*
X139602352Y-94300500D01*
X139804534Y-94268477D01*
X139999219Y-94205220D01*
X140181610Y-94112287D01*
X140295094Y-94029837D01*
X140347213Y-93991971D01*
X140347215Y-93991968D01*
X140347219Y-93991966D01*
X140491966Y-93847219D01*
X140491968Y-93847215D01*
X140491971Y-93847213D01*
X140576024Y-93731522D01*
X140612287Y-93681610D01*
X140705220Y-93499219D01*
X140768477Y-93304534D01*
X140800500Y-93102352D01*
X140800500Y-92897648D01*
X140770786Y-92710045D01*
X140779740Y-92640753D01*
X140824736Y-92587301D01*
X140891488Y-92566661D01*
X140958802Y-92585386D01*
X140980940Y-92602967D01*
X141022490Y-92644517D01*
X141213567Y-92783343D01*
X141278573Y-92816465D01*
X141424003Y-92890566D01*
X141424005Y-92890566D01*
X141424008Y-92890568D01*
X141544412Y-92929689D01*
X141648631Y-92963553D01*
X141881894Y-93000498D01*
X141881896Y-93000498D01*
X141881908Y-93000500D01*
X141881919Y-93000500D01*
X141885117Y-93000752D01*
X141886271Y-93001192D01*
X141886720Y-93001263D01*
X141886705Y-93001357D01*
X141950408Y-93025629D01*
X141991885Y-93081855D01*
X141996380Y-93151580D01*
X141975721Y-93197256D01*
X141887712Y-93318390D01*
X141794781Y-93500776D01*
X141731522Y-93695465D01*
X141699500Y-93897648D01*
X141699500Y-94102351D01*
X141731522Y-94304534D01*
X141794781Y-94499223D01*
X141858691Y-94624653D01*
X141887712Y-94681609D01*
X141887715Y-94681613D01*
X142008028Y-94847213D01*
X142152786Y-94991971D01*
X142307749Y-95104556D01*
X142318390Y-95112287D01*
X142434607Y-95171503D01*
X142500776Y-95205218D01*
X142500778Y-95205218D01*
X142500781Y-95205220D01*
X142597017Y-95236489D01*
X142695465Y-95268477D01*
X142784937Y-95282648D01*
X142897648Y-95300500D01*
X142897649Y-95300500D01*
X143102351Y-95300500D01*
X143102352Y-95300500D01*
X143304534Y-95268477D01*
X143499219Y-95205220D01*
X143681610Y-95112287D01*
X143836160Y-95000001D01*
X143847213Y-94991971D01*
X143847215Y-94991968D01*
X143847219Y-94991966D01*
X143941537Y-94897648D01*
X151699500Y-94897648D01*
X151699500Y-95102352D01*
X151700984Y-95111721D01*
X151731522Y-95304534D01*
X151794781Y-95499223D01*
X151799271Y-95508034D01*
X151884841Y-95675974D01*
X151887715Y-95681613D01*
X152008028Y-95847213D01*
X152152786Y-95991971D01*
X152265514Y-96073871D01*
X152318390Y-96112287D01*
X152434607Y-96171503D01*
X152500776Y-96205218D01*
X152500778Y-96205218D01*
X152500781Y-96205220D01*
X152602637Y-96238315D01*
X152629579Y-96247069D01*
X152687254Y-96286507D01*
X152714452Y-96350866D01*
X152702537Y-96419712D01*
X152655293Y-96471188D01*
X152629579Y-96482931D01*
X152500776Y-96524781D01*
X152318386Y-96617715D01*
X152152786Y-96738028D01*
X152008028Y-96882786D01*
X151887715Y-97048386D01*
X151794781Y-97230776D01*
X151731522Y-97425465D01*
X151699500Y-97627648D01*
X151699500Y-97832351D01*
X151731522Y-98034534D01*
X151794781Y-98229223D01*
X151831610Y-98301502D01*
X151868746Y-98374386D01*
X151887715Y-98411613D01*
X152008028Y-98577213D01*
X152152786Y-98721971D01*
X152285491Y-98818385D01*
X152318390Y-98842287D01*
X152426188Y-98897213D01*
X152500776Y-98935218D01*
X152500778Y-98935218D01*
X152500781Y-98935220D01*
X152605137Y-98969127D01*
X152695465Y-98998477D01*
X152796557Y-99014488D01*
X152897648Y-99030500D01*
X152897649Y-99030500D01*
X153102351Y-99030500D01*
X153102352Y-99030500D01*
X153304534Y-98998477D01*
X153499219Y-98935220D01*
X153681610Y-98842287D01*
X153783202Y-98768477D01*
X153847213Y-98721971D01*
X153847215Y-98721968D01*
X153847219Y-98721966D01*
X153991966Y-98577219D01*
X154023892Y-98533275D01*
X154079218Y-98490611D01*
X154148831Y-98484630D01*
X154162520Y-98488228D01*
X154194926Y-98498758D01*
X154397108Y-98530781D01*
X154397109Y-98530781D01*
X154601811Y-98530781D01*
X154601812Y-98530781D01*
X154803994Y-98498758D01*
X154998679Y-98435501D01*
X155181070Y-98342568D01*
X155296318Y-98258836D01*
X155346673Y-98222252D01*
X155346675Y-98222249D01*
X155346679Y-98222247D01*
X155491426Y-98077500D01*
X155491428Y-98077496D01*
X155491431Y-98077494D01*
X155585768Y-97947648D01*
X162449500Y-97947648D01*
X162449500Y-98152351D01*
X162481522Y-98354534D01*
X162544781Y-98549223D01*
X162597550Y-98652786D01*
X162632799Y-98721966D01*
X162637715Y-98731613D01*
X162758028Y-98897213D01*
X162902786Y-99041971D01*
X163034569Y-99137715D01*
X163068390Y-99162287D01*
X163141425Y-99199500D01*
X163250776Y-99255218D01*
X163250778Y-99255218D01*
X163250781Y-99255220D01*
X163337332Y-99283342D01*
X163445465Y-99318477D01*
X163546557Y-99334488D01*
X163647648Y-99350500D01*
X163647649Y-99350500D01*
X163852351Y-99350500D01*
X163852352Y-99350500D01*
X164054534Y-99318477D01*
X164249219Y-99255220D01*
X164431610Y-99162287D01*
X164524590Y-99094732D01*
X164597213Y-99041971D01*
X164597215Y-99041968D01*
X164597219Y-99041966D01*
X164741966Y-98897219D01*
X164741968Y-98897215D01*
X164741971Y-98897213D01*
X164822456Y-98786433D01*
X164862287Y-98731610D01*
X164955220Y-98549219D01*
X165018477Y-98354534D01*
X165050500Y-98152352D01*
X165050500Y-97947648D01*
X165032239Y-97832352D01*
X165018477Y-97745465D01*
X164982683Y-97635304D01*
X164955220Y-97550781D01*
X164955218Y-97550778D01*
X164955218Y-97550776D01*
X164891503Y-97425730D01*
X164862287Y-97368390D01*
X164853652Y-97356505D01*
X164741971Y-97202786D01*
X164597213Y-97058028D01*
X164431613Y-96937715D01*
X164431612Y-96937714D01*
X164431610Y-96937713D01*
X164374653Y-96908691D01*
X164249223Y-96844781D01*
X164054534Y-96781522D01*
X163927723Y-96761437D01*
X163852352Y-96749500D01*
X163647648Y-96749500D01*
X163623329Y-96753351D01*
X163445465Y-96781522D01*
X163250776Y-96844781D01*
X163068386Y-96937715D01*
X162902786Y-97058028D01*
X162758028Y-97202786D01*
X162637715Y-97368386D01*
X162544781Y-97550776D01*
X162481522Y-97745465D01*
X162449500Y-97947648D01*
X155585768Y-97947648D01*
X155611747Y-97911891D01*
X155704680Y-97729500D01*
X155767937Y-97534815D01*
X155799960Y-97332633D01*
X155799960Y-97127929D01*
X155783259Y-97022487D01*
X155767937Y-96925746D01*
X155733053Y-96818386D01*
X155704680Y-96731062D01*
X155704678Y-96731059D01*
X155704678Y-96731057D01*
X155677428Y-96677577D01*
X166175975Y-96677577D01*
X166281236Y-96721178D01*
X166281240Y-96721179D01*
X166426126Y-96749999D01*
X166426129Y-96750000D01*
X166573871Y-96750000D01*
X166573873Y-96749999D01*
X166718760Y-96721179D01*
X166718775Y-96721175D01*
X166824024Y-96677578D01*
X166824024Y-96677577D01*
X167175975Y-96677577D01*
X167281236Y-96721178D01*
X167281240Y-96721179D01*
X167426126Y-96749999D01*
X167426129Y-96750000D01*
X167573871Y-96750000D01*
X167573873Y-96749999D01*
X167718760Y-96721179D01*
X167718775Y-96721175D01*
X167824024Y-96677578D01*
X167824024Y-96677577D01*
X168175975Y-96677577D01*
X168281236Y-96721178D01*
X168281240Y-96721179D01*
X168426126Y-96749999D01*
X168426129Y-96750000D01*
X168573871Y-96750000D01*
X168573873Y-96749999D01*
X168718760Y-96721179D01*
X168718775Y-96721175D01*
X168824024Y-96677578D01*
X168824024Y-96677577D01*
X168500001Y-96353554D01*
X168500000Y-96353554D01*
X168175975Y-96677577D01*
X167824024Y-96677577D01*
X167500001Y-96353554D01*
X167500000Y-96353554D01*
X167175975Y-96677577D01*
X166824024Y-96677577D01*
X166500001Y-96353554D01*
X166500000Y-96353554D01*
X166175975Y-96677577D01*
X155677428Y-96677577D01*
X155662381Y-96648045D01*
X155611747Y-96548671D01*
X155582223Y-96508034D01*
X155491431Y-96383067D01*
X155346673Y-96238309D01*
X155181073Y-96117996D01*
X155181072Y-96117995D01*
X155181070Y-96117994D01*
X155009401Y-96030524D01*
X154998683Y-96025062D01*
X154803994Y-95961803D01*
X154629455Y-95934159D01*
X154601812Y-95929781D01*
X154397108Y-95929781D01*
X154369464Y-95934159D01*
X154194926Y-95961803D01*
X154183224Y-95965606D01*
X154113382Y-95967600D01*
X154053550Y-95931518D01*
X154050899Y-95926126D01*
X165750000Y-95926126D01*
X165750000Y-96073873D01*
X165778820Y-96218759D01*
X165778822Y-96218767D01*
X165822421Y-96324024D01*
X166146446Y-96000000D01*
X166146446Y-95999999D01*
X166116610Y-95970163D01*
X166350000Y-95970163D01*
X166350000Y-96029837D01*
X166372836Y-96084968D01*
X166415032Y-96127164D01*
X166470163Y-96150000D01*
X166529837Y-96150000D01*
X166584968Y-96127164D01*
X166627164Y-96084968D01*
X166650000Y-96029837D01*
X166650000Y-96000000D01*
X166853554Y-96000000D01*
X167000000Y-96146446D01*
X167146446Y-96000000D01*
X167116609Y-95970163D01*
X167350000Y-95970163D01*
X167350000Y-96029837D01*
X167372836Y-96084968D01*
X167415032Y-96127164D01*
X167470163Y-96150000D01*
X167529837Y-96150000D01*
X167584968Y-96127164D01*
X167627164Y-96084968D01*
X167650000Y-96029837D01*
X167650000Y-96000000D01*
X167853554Y-96000000D01*
X168000000Y-96146446D01*
X168146446Y-96000000D01*
X168116609Y-95970163D01*
X168350000Y-95970163D01*
X168350000Y-96029837D01*
X168372836Y-96084968D01*
X168415032Y-96127164D01*
X168470163Y-96150000D01*
X168529837Y-96150000D01*
X168584968Y-96127164D01*
X168627164Y-96084968D01*
X168650000Y-96029837D01*
X168650000Y-95999999D01*
X168853554Y-95999999D01*
X168853554Y-96000001D01*
X169177577Y-96324024D01*
X169177578Y-96324024D01*
X169221175Y-96218775D01*
X169221179Y-96218760D01*
X169249999Y-96073873D01*
X169250000Y-96073871D01*
X169250000Y-95926128D01*
X169249999Y-95926126D01*
X169221179Y-95781240D01*
X169221178Y-95781236D01*
X169177577Y-95675975D01*
X168853554Y-95999999D01*
X168650000Y-95999999D01*
X168650000Y-95970163D01*
X168627164Y-95915032D01*
X168584968Y-95872836D01*
X168529837Y-95850000D01*
X168470163Y-95850000D01*
X168415032Y-95872836D01*
X168372836Y-95915032D01*
X168350000Y-95970163D01*
X168116609Y-95970163D01*
X168000000Y-95853554D01*
X167853554Y-96000000D01*
X167650000Y-96000000D01*
X167650000Y-95970163D01*
X167627164Y-95915032D01*
X167584968Y-95872836D01*
X167529837Y-95850000D01*
X167470163Y-95850000D01*
X167415032Y-95872836D01*
X167372836Y-95915032D01*
X167350000Y-95970163D01*
X167116609Y-95970163D01*
X167000000Y-95853554D01*
X166853554Y-96000000D01*
X166650000Y-96000000D01*
X166650000Y-95970163D01*
X166627164Y-95915032D01*
X166584968Y-95872836D01*
X166529837Y-95850000D01*
X166470163Y-95850000D01*
X166415032Y-95872836D01*
X166372836Y-95915032D01*
X166350000Y-95970163D01*
X166116610Y-95970163D01*
X165822421Y-95675974D01*
X165822420Y-95675974D01*
X165778823Y-95781228D01*
X165778820Y-95781240D01*
X165750000Y-95926126D01*
X154050899Y-95926126D01*
X154022723Y-95868817D01*
X154030688Y-95799403D01*
X154044589Y-95774789D01*
X154112287Y-95681610D01*
X154204822Y-95500000D01*
X166353554Y-95500000D01*
X166500000Y-95646446D01*
X166646446Y-95500000D01*
X166500000Y-95353554D01*
X166353554Y-95500000D01*
X154204822Y-95500000D01*
X154205220Y-95499219D01*
X154268477Y-95304534D01*
X154300500Y-95102352D01*
X154300500Y-94926126D01*
X165750000Y-94926126D01*
X165750000Y-95073873D01*
X165778820Y-95218759D01*
X165778822Y-95218767D01*
X165822421Y-95324024D01*
X166146446Y-95000000D01*
X166146446Y-94999999D01*
X166116610Y-94970163D01*
X166350000Y-94970163D01*
X166350000Y-95029837D01*
X166372836Y-95084968D01*
X166415032Y-95127164D01*
X166470163Y-95150000D01*
X166529837Y-95150000D01*
X166584968Y-95127164D01*
X166627164Y-95084968D01*
X166650000Y-95029837D01*
X166650000Y-95000000D01*
X166853554Y-95000000D01*
X167500000Y-95646446D01*
X167646446Y-95500000D01*
X168353554Y-95500000D01*
X168500000Y-95646446D01*
X168646446Y-95500000D01*
X168500000Y-95353554D01*
X168353554Y-95500000D01*
X167646446Y-95500000D01*
X168146446Y-95000000D01*
X168116609Y-94970163D01*
X168350000Y-94970163D01*
X168350000Y-95029837D01*
X168372836Y-95084968D01*
X168415032Y-95127164D01*
X168470163Y-95150000D01*
X168529837Y-95150000D01*
X168584968Y-95127164D01*
X168627164Y-95084968D01*
X168650000Y-95029837D01*
X168650000Y-94999999D01*
X168853554Y-94999999D01*
X168853554Y-95000001D01*
X169177577Y-95324024D01*
X169194716Y-95282648D01*
X172199500Y-95282648D01*
X172199500Y-95487351D01*
X172231522Y-95689534D01*
X172294781Y-95884223D01*
X172387715Y-96066613D01*
X172508028Y-96232213D01*
X172652786Y-96376971D01*
X172798630Y-96482931D01*
X172818390Y-96497287D01*
X172895244Y-96536446D01*
X173000776Y-96590218D01*
X173000778Y-96590218D01*
X173000781Y-96590220D01*
X173059913Y-96609433D01*
X173195465Y-96653477D01*
X173296557Y-96669488D01*
X173397648Y-96685500D01*
X173397649Y-96685500D01*
X173602351Y-96685500D01*
X173602352Y-96685500D01*
X173804534Y-96653477D01*
X173957208Y-96603869D01*
X174027048Y-96601875D01*
X174086881Y-96637955D01*
X174117710Y-96700656D01*
X174109746Y-96770070D01*
X174068412Y-96822118D01*
X174022490Y-96855483D01*
X174022488Y-96855485D01*
X174022487Y-96855485D01*
X173855485Y-97022487D01*
X173855485Y-97022488D01*
X173855483Y-97022490D01*
X173829663Y-97058028D01*
X173716657Y-97213566D01*
X173609433Y-97424003D01*
X173536446Y-97648631D01*
X173499500Y-97881902D01*
X173499500Y-98118097D01*
X173536446Y-98351368D01*
X173609433Y-98575996D01*
X173670307Y-98695466D01*
X173716657Y-98786433D01*
X173855483Y-98977510D01*
X174022490Y-99144517D01*
X174213567Y-99283343D01*
X174312991Y-99334002D01*
X174424003Y-99390566D01*
X174424005Y-99390566D01*
X174424008Y-99390568D01*
X174544412Y-99429689D01*
X174648631Y-99463553D01*
X174881903Y-99500500D01*
X174881908Y-99500500D01*
X175118097Y-99500500D01*
X175351368Y-99463553D01*
X175575992Y-99390568D01*
X175786433Y-99283343D01*
X175977510Y-99144517D01*
X176144517Y-98977510D01*
X176283343Y-98786433D01*
X176390568Y-98575992D01*
X176463553Y-98351368D01*
X176472071Y-98297586D01*
X176500500Y-98118097D01*
X176500500Y-97881902D01*
X176463553Y-97648631D01*
X176413380Y-97494216D01*
X176390568Y-97424008D01*
X176390566Y-97424005D01*
X176390566Y-97424003D01*
X176314899Y-97275499D01*
X176283343Y-97213567D01*
X176144517Y-97022490D01*
X175977510Y-96855483D01*
X175786433Y-96716657D01*
X175575996Y-96609433D01*
X175351368Y-96536446D01*
X175118097Y-96499500D01*
X175118092Y-96499500D01*
X174881908Y-96499500D01*
X174881903Y-96499500D01*
X174648630Y-96536447D01*
X174648627Y-96536447D01*
X174450866Y-96600705D01*
X174381025Y-96602700D01*
X174321192Y-96566620D01*
X174290364Y-96503919D01*
X174298329Y-96434505D01*
X174339667Y-96382453D01*
X174347215Y-96376969D01*
X174347215Y-96376968D01*
X174347219Y-96376966D01*
X174491966Y-96232219D01*
X174491968Y-96232215D01*
X174491971Y-96232213D01*
X174574953Y-96117996D01*
X174612287Y-96066610D01*
X174705220Y-95884219D01*
X174768477Y-95689534D01*
X174800500Y-95487352D01*
X174800500Y-95282648D01*
X174768477Y-95080465D01*
X174732637Y-94970163D01*
X174705220Y-94885781D01*
X174705218Y-94885778D01*
X174705218Y-94885776D01*
X174657212Y-94791560D01*
X174612287Y-94703390D01*
X174570915Y-94646446D01*
X174512354Y-94565842D01*
X174488874Y-94500036D01*
X174504700Y-94431982D01*
X174554806Y-94383287D01*
X174623284Y-94369412D01*
X174650989Y-94375025D01*
X174667642Y-94380436D01*
X174695465Y-94389477D01*
X174796557Y-94405488D01*
X174897648Y-94421500D01*
X174897649Y-94421500D01*
X175102351Y-94421500D01*
X175102352Y-94421500D01*
X175304534Y-94389477D01*
X175499219Y-94326220D01*
X175681610Y-94233287D01*
X175796246Y-94150000D01*
X175847213Y-94112971D01*
X175847215Y-94112968D01*
X175847219Y-94112966D01*
X175991966Y-93968219D01*
X175991968Y-93968215D01*
X175991971Y-93968213D01*
X176050455Y-93887715D01*
X176112287Y-93802610D01*
X176205220Y-93620219D01*
X176268477Y-93425534D01*
X176300500Y-93223352D01*
X176300500Y-93018648D01*
X176280214Y-92890568D01*
X176268477Y-92816465D01*
X176205218Y-92621776D01*
X176149463Y-92512352D01*
X176112287Y-92439390D01*
X176016572Y-92307648D01*
X176789500Y-92307648D01*
X176789500Y-92512351D01*
X176821522Y-92714534D01*
X176884781Y-92909223D01*
X176977715Y-93091613D01*
X177098028Y-93257213D01*
X177242786Y-93401971D01*
X177376639Y-93499219D01*
X177408390Y-93522287D01*
X177524607Y-93581503D01*
X177590776Y-93615218D01*
X177590778Y-93615218D01*
X177590781Y-93615220D01*
X177686885Y-93646446D01*
X177785465Y-93678477D01*
X177886557Y-93694488D01*
X177987648Y-93710500D01*
X177987649Y-93710500D01*
X178192351Y-93710500D01*
X178192352Y-93710500D01*
X178394534Y-93678477D01*
X178589219Y-93615220D01*
X178771610Y-93522287D01*
X178874941Y-93447213D01*
X178937213Y-93401971D01*
X178937215Y-93401968D01*
X178937219Y-93401966D01*
X179081966Y-93257219D01*
X179081968Y-93257215D01*
X179081971Y-93257213D01*
X179157844Y-93152781D01*
X179202287Y-93091610D01*
X179295220Y-92909219D01*
X179358477Y-92714534D01*
X179390500Y-92512352D01*
X179390500Y-92307648D01*
X179374277Y-92205220D01*
X179358477Y-92105465D01*
X179321599Y-91991966D01*
X179295220Y-91910781D01*
X179295218Y-91910778D01*
X179295218Y-91910776D01*
X179236114Y-91794780D01*
X179202287Y-91728390D01*
X179185097Y-91704730D01*
X179081971Y-91562786D01*
X178937213Y-91418028D01*
X178771613Y-91297715D01*
X178771612Y-91297714D01*
X178771610Y-91297713D01*
X178714653Y-91268691D01*
X178589223Y-91204781D01*
X178394534Y-91141522D01*
X178219995Y-91113878D01*
X178192352Y-91109500D01*
X177987648Y-91109500D01*
X177963329Y-91113351D01*
X177785465Y-91141522D01*
X177590776Y-91204781D01*
X177408386Y-91297715D01*
X177242786Y-91418028D01*
X177098028Y-91562786D01*
X176977715Y-91728386D01*
X176884781Y-91910776D01*
X176821522Y-92105465D01*
X176789500Y-92307648D01*
X176016572Y-92307648D01*
X175991966Y-92273781D01*
X175847219Y-92129034D01*
X175847213Y-92129028D01*
X175681613Y-92008715D01*
X175681612Y-92008714D01*
X175681610Y-92008713D01*
X175592979Y-91963553D01*
X175499223Y-91915781D01*
X175304534Y-91852522D01*
X175129995Y-91824878D01*
X175102352Y-91820500D01*
X174897648Y-91820500D01*
X174873329Y-91824351D01*
X174695465Y-91852522D01*
X174500776Y-91915781D01*
X174318386Y-92008715D01*
X174152786Y-92129028D01*
X174008028Y-92273786D01*
X173887715Y-92439386D01*
X173794781Y-92621776D01*
X173731522Y-92816465D01*
X173699500Y-93018648D01*
X173699500Y-93223351D01*
X173731522Y-93425534D01*
X173794781Y-93620223D01*
X173841691Y-93712287D01*
X173883723Y-93794780D01*
X173887715Y-93802613D01*
X173987645Y-93940157D01*
X174011125Y-94005964D01*
X173995299Y-94074017D01*
X173945193Y-94122712D01*
X173876715Y-94136587D01*
X173849009Y-94130973D01*
X173804537Y-94116523D01*
X173652897Y-94092505D01*
X173602352Y-94084500D01*
X173397648Y-94084500D01*
X173373329Y-94088351D01*
X173195465Y-94116522D01*
X173000776Y-94179781D01*
X172818386Y-94272715D01*
X172652786Y-94393028D01*
X172508028Y-94537786D01*
X172387715Y-94703386D01*
X172294781Y-94885776D01*
X172231522Y-95080465D01*
X172199500Y-95282648D01*
X169194716Y-95282648D01*
X169216391Y-95230322D01*
X169216391Y-95230321D01*
X169216392Y-95230320D01*
X169221177Y-95218766D01*
X169221179Y-95218760D01*
X169249999Y-95073873D01*
X169250000Y-95073871D01*
X169250000Y-94926128D01*
X169249999Y-94926126D01*
X169221179Y-94781240D01*
X169221178Y-94781236D01*
X169177577Y-94675975D01*
X168853554Y-94999999D01*
X168650000Y-94999999D01*
X168650000Y-94970163D01*
X168627164Y-94915032D01*
X168584968Y-94872836D01*
X168529837Y-94850000D01*
X168470163Y-94850000D01*
X168415032Y-94872836D01*
X168372836Y-94915032D01*
X168350000Y-94970163D01*
X168116609Y-94970163D01*
X167646446Y-94500000D01*
X168353554Y-94500000D01*
X168500000Y-94646446D01*
X168646446Y-94500000D01*
X168500000Y-94353554D01*
X168353554Y-94500000D01*
X167646446Y-94500000D01*
X167500000Y-94353554D01*
X166853554Y-95000000D01*
X166650000Y-95000000D01*
X166650000Y-94970163D01*
X166627164Y-94915032D01*
X166584968Y-94872836D01*
X166529837Y-94850000D01*
X166470163Y-94850000D01*
X166415032Y-94872836D01*
X166372836Y-94915032D01*
X166350000Y-94970163D01*
X166116610Y-94970163D01*
X165822421Y-94675974D01*
X165822420Y-94675974D01*
X165778823Y-94781228D01*
X165778820Y-94781240D01*
X165750000Y-94926126D01*
X154300500Y-94926126D01*
X154300500Y-94897648D01*
X154292512Y-94847212D01*
X154268477Y-94695465D01*
X154232683Y-94585304D01*
X154205220Y-94500781D01*
X154205218Y-94500778D01*
X154205218Y-94500776D01*
X154204823Y-94500000D01*
X166353554Y-94500000D01*
X166500000Y-94646446D01*
X166646446Y-94500000D01*
X166500000Y-94353554D01*
X166353554Y-94500000D01*
X154204823Y-94500000D01*
X154150317Y-94393028D01*
X154112287Y-94318390D01*
X154099289Y-94300500D01*
X153991971Y-94152786D01*
X153847213Y-94008028D01*
X153734482Y-93926126D01*
X165750000Y-93926126D01*
X165750000Y-94073873D01*
X165778820Y-94218759D01*
X165778822Y-94218767D01*
X165822421Y-94324024D01*
X166146446Y-94000000D01*
X166146446Y-93999999D01*
X166116610Y-93970163D01*
X166350000Y-93970163D01*
X166350000Y-94029837D01*
X166372836Y-94084968D01*
X166415032Y-94127164D01*
X166470163Y-94150000D01*
X166529837Y-94150000D01*
X166584968Y-94127164D01*
X166627164Y-94084968D01*
X166650000Y-94029837D01*
X166650000Y-94000000D01*
X166853554Y-94000000D01*
X167000000Y-94146446D01*
X167146446Y-94000000D01*
X167116609Y-93970163D01*
X167350000Y-93970163D01*
X167350000Y-94029837D01*
X167372836Y-94084968D01*
X167415032Y-94127164D01*
X167470163Y-94150000D01*
X167529837Y-94150000D01*
X167584968Y-94127164D01*
X167627164Y-94084968D01*
X167650000Y-94029837D01*
X167650000Y-94000000D01*
X167853554Y-94000000D01*
X168000000Y-94146446D01*
X168146446Y-94000000D01*
X168116609Y-93970163D01*
X168350000Y-93970163D01*
X168350000Y-94029837D01*
X168372836Y-94084968D01*
X168415032Y-94127164D01*
X168470163Y-94150000D01*
X168529837Y-94150000D01*
X168584968Y-94127164D01*
X168627164Y-94084968D01*
X168650000Y-94029837D01*
X168650000Y-93999999D01*
X168853554Y-93999999D01*
X168853554Y-94000001D01*
X169177577Y-94324024D01*
X169177578Y-94324024D01*
X169221175Y-94218775D01*
X169221179Y-94218760D01*
X169249999Y-94073873D01*
X169250000Y-94073871D01*
X169250000Y-93926128D01*
X169249999Y-93926126D01*
X169221179Y-93781240D01*
X169221178Y-93781236D01*
X169177577Y-93675975D01*
X168853554Y-93999999D01*
X168650000Y-93999999D01*
X168650000Y-93970163D01*
X168627164Y-93915032D01*
X168584968Y-93872836D01*
X168529837Y-93850000D01*
X168470163Y-93850000D01*
X168415032Y-93872836D01*
X168372836Y-93915032D01*
X168350000Y-93970163D01*
X168116609Y-93970163D01*
X168000000Y-93853554D01*
X167853554Y-94000000D01*
X167650000Y-94000000D01*
X167650000Y-93970163D01*
X167627164Y-93915032D01*
X167584968Y-93872836D01*
X167529837Y-93850000D01*
X167470163Y-93850000D01*
X167415032Y-93872836D01*
X167372836Y-93915032D01*
X167350000Y-93970163D01*
X167116609Y-93970163D01*
X167000000Y-93853554D01*
X166853554Y-94000000D01*
X166650000Y-94000000D01*
X166650000Y-93970163D01*
X166627164Y-93915032D01*
X166584968Y-93872836D01*
X166529837Y-93850000D01*
X166470163Y-93850000D01*
X166415032Y-93872836D01*
X166372836Y-93915032D01*
X166350000Y-93970163D01*
X166116610Y-93970163D01*
X165822421Y-93675974D01*
X165822420Y-93675974D01*
X165778823Y-93781228D01*
X165778820Y-93781240D01*
X165750000Y-93926126D01*
X153734482Y-93926126D01*
X153681613Y-93887715D01*
X153681612Y-93887714D01*
X153681610Y-93887713D01*
X153607594Y-93850000D01*
X153499223Y-93794781D01*
X153304534Y-93731522D01*
X153129995Y-93703878D01*
X153102352Y-93699500D01*
X152897648Y-93699500D01*
X152873329Y-93703351D01*
X152695465Y-93731522D01*
X152500776Y-93794781D01*
X152318386Y-93887715D01*
X152152786Y-94008028D01*
X152008028Y-94152786D01*
X151887715Y-94318386D01*
X151794781Y-94500776D01*
X151731522Y-94695465D01*
X151707487Y-94847219D01*
X151699500Y-94897648D01*
X143941537Y-94897648D01*
X143991966Y-94847219D01*
X144112287Y-94681610D01*
X144205220Y-94499219D01*
X144268477Y-94304534D01*
X144300500Y-94102352D01*
X144300500Y-93897648D01*
X144284207Y-93794780D01*
X144268477Y-93695465D01*
X144234848Y-93591966D01*
X144205220Y-93500781D01*
X144205218Y-93500778D01*
X144205218Y-93500776D01*
X144163821Y-93419531D01*
X144154871Y-93401966D01*
X144114340Y-93322420D01*
X166175974Y-93322420D01*
X166175974Y-93322421D01*
X166500000Y-93646446D01*
X166500001Y-93646446D01*
X166824024Y-93322421D01*
X166824022Y-93322420D01*
X167175974Y-93322420D01*
X167175974Y-93322421D01*
X167500000Y-93646446D01*
X167500001Y-93646446D01*
X167824024Y-93322421D01*
X167824022Y-93322420D01*
X168175974Y-93322420D01*
X168175974Y-93322421D01*
X168500000Y-93646446D01*
X168500001Y-93646446D01*
X168824024Y-93322421D01*
X168718767Y-93278822D01*
X168718759Y-93278820D01*
X168573872Y-93250000D01*
X168426128Y-93250000D01*
X168281240Y-93278820D01*
X168281228Y-93278823D01*
X168175974Y-93322420D01*
X167824022Y-93322420D01*
X167718767Y-93278822D01*
X167718759Y-93278820D01*
X167573872Y-93250000D01*
X167426128Y-93250000D01*
X167281240Y-93278820D01*
X167281228Y-93278823D01*
X167175974Y-93322420D01*
X166824022Y-93322420D01*
X166718767Y-93278822D01*
X166718759Y-93278820D01*
X166573872Y-93250000D01*
X166426128Y-93250000D01*
X166281240Y-93278820D01*
X166281228Y-93278823D01*
X166175974Y-93322420D01*
X144114340Y-93322420D01*
X144112287Y-93318390D01*
X144083540Y-93278823D01*
X143991971Y-93152786D01*
X143847213Y-93008028D01*
X143681613Y-92887715D01*
X143681612Y-92887714D01*
X143681610Y-92887713D01*
X143620308Y-92856478D01*
X143499223Y-92794781D01*
X143304534Y-92731522D01*
X143187480Y-92712983D01*
X143124345Y-92683054D01*
X143087414Y-92623742D01*
X143088412Y-92553879D01*
X143119194Y-92502832D01*
X143144517Y-92477510D01*
X143283343Y-92286433D01*
X143390568Y-92075992D01*
X143463553Y-91851368D01*
X143467361Y-91827320D01*
X143497287Y-91764188D01*
X143556598Y-91727255D01*
X143626460Y-91728251D01*
X143662718Y-91746399D01*
X143713567Y-91783343D01*
X143786492Y-91820500D01*
X143924003Y-91890566D01*
X143924005Y-91890566D01*
X143924008Y-91890568D01*
X144009623Y-91918386D01*
X144148631Y-91963553D01*
X144381903Y-92000500D01*
X144381908Y-92000500D01*
X144618097Y-92000500D01*
X144851368Y-91963553D01*
X145075992Y-91890568D01*
X145286433Y-91783343D01*
X145477510Y-91644517D01*
X145644517Y-91477510D01*
X145783343Y-91286433D01*
X145890568Y-91075992D01*
X145939951Y-90924008D01*
X145948516Y-90897648D01*
X155699500Y-90897648D01*
X155699500Y-91102351D01*
X155731522Y-91304534D01*
X155794781Y-91499223D01*
X155887715Y-91681613D01*
X156008028Y-91847213D01*
X156152786Y-91991971D01*
X156268439Y-92075996D01*
X156318390Y-92112287D01*
X156397864Y-92152781D01*
X156500776Y-92205218D01*
X156500778Y-92205218D01*
X156500781Y-92205220D01*
X156605137Y-92239127D01*
X156695465Y-92268477D01*
X156796557Y-92284488D01*
X156897648Y-92300500D01*
X156897649Y-92300500D01*
X157102351Y-92300500D01*
X157102352Y-92300500D01*
X157304534Y-92268477D01*
X157499219Y-92205220D01*
X157681610Y-92112287D01*
X157824169Y-92008713D01*
X157847213Y-91991971D01*
X157847215Y-91991968D01*
X157847219Y-91991966D01*
X157991966Y-91847219D01*
X157991968Y-91847215D01*
X157991971Y-91847213D01*
X158060578Y-91752782D01*
X158112287Y-91681610D01*
X158205220Y-91499219D01*
X158268477Y-91304534D01*
X158300500Y-91102352D01*
X158300500Y-90897648D01*
X158277486Y-90752348D01*
X158268477Y-90695465D01*
X158220448Y-90547648D01*
X158205220Y-90500781D01*
X158205218Y-90500778D01*
X158205218Y-90500776D01*
X158142700Y-90378079D01*
X158112287Y-90318390D01*
X158104556Y-90307749D01*
X157991971Y-90152786D01*
X157847213Y-90008028D01*
X157681613Y-89887715D01*
X157681612Y-89887714D01*
X157681610Y-89887713D01*
X157624053Y-89858386D01*
X157499223Y-89794781D01*
X157304534Y-89731522D01*
X157129995Y-89703878D01*
X157102352Y-89699500D01*
X156897648Y-89699500D01*
X156873329Y-89703351D01*
X156695465Y-89731522D01*
X156500776Y-89794781D01*
X156318386Y-89887715D01*
X156152786Y-90008028D01*
X156008028Y-90152786D01*
X155887715Y-90318386D01*
X155794781Y-90500776D01*
X155731522Y-90695465D01*
X155699500Y-90897648D01*
X145948516Y-90897648D01*
X145962550Y-90854457D01*
X145963552Y-90851370D01*
X145963553Y-90851368D01*
X145986139Y-90708765D01*
X146000500Y-90618097D01*
X146000500Y-90381902D01*
X145963553Y-90148631D01*
X145915513Y-90000781D01*
X145890568Y-89924008D01*
X145890566Y-89924005D01*
X145890566Y-89924003D01*
X145828800Y-89802781D01*
X145783343Y-89713567D01*
X145644517Y-89522490D01*
X145477510Y-89355483D01*
X145286433Y-89216657D01*
X145195749Y-89170451D01*
X145075996Y-89109433D01*
X144851368Y-89036446D01*
X144618097Y-88999500D01*
X144618092Y-88999500D01*
X144381908Y-88999500D01*
X144381903Y-88999500D01*
X144148631Y-89036446D01*
X143924003Y-89109433D01*
X143713566Y-89216657D01*
X143624667Y-89281247D01*
X143522490Y-89355483D01*
X143522488Y-89355485D01*
X143522487Y-89355485D01*
X143355485Y-89522487D01*
X143355485Y-89522488D01*
X143355483Y-89522490D01*
X143321810Y-89568837D01*
X143216657Y-89713566D01*
X143109433Y-89924003D01*
X143036447Y-90148630D01*
X143032638Y-90172680D01*
X143002708Y-90235814D01*
X142943397Y-90272745D01*
X142873534Y-90271747D01*
X142837279Y-90253599D01*
X142786433Y-90216657D01*
X142575996Y-90109433D01*
X142351368Y-90036446D01*
X142118097Y-89999500D01*
X142118092Y-89999500D01*
X141881908Y-89999500D01*
X141881903Y-89999500D01*
X141648631Y-90036446D01*
X141424003Y-90109433D01*
X141213566Y-90216657D01*
X141104550Y-90295862D01*
X141022490Y-90355483D01*
X141022488Y-90355485D01*
X141022487Y-90355485D01*
X140855485Y-90522487D01*
X140855485Y-90522488D01*
X140855483Y-90522490D01*
X140837205Y-90547648D01*
X140716657Y-90713566D01*
X140609433Y-90924003D01*
X140536446Y-91148631D01*
X140499500Y-91381902D01*
X140499500Y-91618097D01*
X140536447Y-91851369D01*
X140536447Y-91851372D01*
X140543718Y-91873748D01*
X140545713Y-91943589D01*
X140509633Y-92003422D01*
X140446932Y-92034250D01*
X140377517Y-92026285D01*
X140351608Y-92010280D01*
X140351161Y-92010897D01*
X140181613Y-91887715D01*
X140181612Y-91887714D01*
X140181610Y-91887713D01*
X140110279Y-91851368D01*
X139999223Y-91794781D01*
X139804534Y-91731522D01*
X139629995Y-91703878D01*
X139602352Y-91699500D01*
X139397648Y-91699500D01*
X139373329Y-91703351D01*
X139195465Y-91731522D01*
X139000776Y-91794781D01*
X138818386Y-91887715D01*
X138652786Y-92008028D01*
X138508028Y-92152786D01*
X138387715Y-92318386D01*
X138294781Y-92500776D01*
X138231522Y-92695465D01*
X138199500Y-92897648D01*
X132269568Y-92897648D01*
X132300500Y-92702352D01*
X132300500Y-92497648D01*
X132271381Y-92313799D01*
X132268477Y-92295465D01*
X132214398Y-92129028D01*
X132205220Y-92100781D01*
X132205218Y-92100778D01*
X132205218Y-92100776D01*
X132149776Y-91991966D01*
X132112287Y-91918390D01*
X132092072Y-91890566D01*
X131991971Y-91752786D01*
X131847213Y-91608028D01*
X131681613Y-91487715D01*
X131681612Y-91487714D01*
X131681610Y-91487713D01*
X131624653Y-91458691D01*
X131499223Y-91394781D01*
X131304534Y-91331522D01*
X131129995Y-91303878D01*
X131102352Y-91299500D01*
X130897648Y-91299500D01*
X130873329Y-91303351D01*
X130695465Y-91331522D01*
X130500776Y-91394781D01*
X130318386Y-91487715D01*
X130152786Y-91608028D01*
X130008032Y-91752782D01*
X130008028Y-91752787D01*
X129903978Y-91896000D01*
X129848648Y-91938666D01*
X129779035Y-91944645D01*
X129730778Y-91923435D01*
X129681610Y-91887713D01*
X129654202Y-91873748D01*
X129499223Y-91794781D01*
X129304534Y-91731522D01*
X129129995Y-91703878D01*
X129102352Y-91699500D01*
X128897648Y-91699500D01*
X128873329Y-91703351D01*
X128695465Y-91731522D01*
X128500776Y-91794781D01*
X128318386Y-91887715D01*
X128152786Y-92008028D01*
X128008028Y-92152786D01*
X127887715Y-92318386D01*
X127794781Y-92500776D01*
X127731522Y-92695465D01*
X127699500Y-92897648D01*
X110000500Y-92897648D01*
X110000500Y-90437648D01*
X126239500Y-90437648D01*
X126239500Y-90642351D01*
X126271522Y-90844534D01*
X126334781Y-91039223D01*
X126390528Y-91148631D01*
X126419138Y-91204781D01*
X126427715Y-91221613D01*
X126548028Y-91387213D01*
X126692786Y-91531971D01*
X126797472Y-91608028D01*
X126858390Y-91652287D01*
X126951051Y-91699500D01*
X127040776Y-91745218D01*
X127040778Y-91745218D01*
X127040781Y-91745220D01*
X127112359Y-91768477D01*
X127235465Y-91808477D01*
X127311375Y-91820500D01*
X127437648Y-91840500D01*
X127437649Y-91840500D01*
X127642351Y-91840500D01*
X127642352Y-91840500D01*
X127844534Y-91808477D01*
X128039219Y-91745220D01*
X128221610Y-91652287D01*
X128344799Y-91562786D01*
X128387213Y-91531971D01*
X128387215Y-91531968D01*
X128387219Y-91531966D01*
X128531966Y-91387219D01*
X128531968Y-91387215D01*
X128531971Y-91387213D01*
X128596995Y-91297713D01*
X128652287Y-91221610D01*
X128745220Y-91039219D01*
X128808477Y-90844534D01*
X128840500Y-90642352D01*
X128840500Y-90437648D01*
X128831065Y-90378079D01*
X128808477Y-90235465D01*
X128745218Y-90040776D01*
X128685721Y-89924008D01*
X128652287Y-89858390D01*
X128623223Y-89818386D01*
X128531971Y-89692786D01*
X128387213Y-89548028D01*
X128221613Y-89427715D01*
X128221612Y-89427714D01*
X128221610Y-89427713D01*
X128159313Y-89395971D01*
X128039223Y-89334781D01*
X127844534Y-89271522D01*
X127669995Y-89243878D01*
X127642352Y-89239500D01*
X127437648Y-89239500D01*
X127413329Y-89243351D01*
X127235465Y-89271522D01*
X127040776Y-89334781D01*
X126858386Y-89427715D01*
X126692786Y-89548028D01*
X126548028Y-89692786D01*
X126427715Y-89858386D01*
X126334781Y-90040776D01*
X126271522Y-90235465D01*
X126239500Y-90437648D01*
X110000500Y-90437648D01*
X110000500Y-88162145D01*
X110020185Y-88095106D01*
X110072989Y-88049351D01*
X110142147Y-88039407D01*
X110205703Y-88068432D01*
X110221448Y-88084834D01*
X110240427Y-88108634D01*
X110240431Y-88108638D01*
X110240432Y-88108639D01*
X110491361Y-88359568D01*
X110768807Y-88580824D01*
X110911346Y-88670387D01*
X111069287Y-88769628D01*
X111388991Y-88923589D01*
X111389000Y-88923592D01*
X111389007Y-88923596D01*
X111455268Y-88946782D01*
X111723948Y-89040798D01*
X111723960Y-89040802D01*
X112069930Y-89119767D01*
X112422562Y-89159499D01*
X112422563Y-89159500D01*
X112422566Y-89159500D01*
X112777437Y-89159500D01*
X112777437Y-89159499D01*
X113130070Y-89119767D01*
X113476040Y-89040802D01*
X113570119Y-89007882D01*
X116845669Y-89007882D01*
X116845670Y-89007883D01*
X116871059Y-89026329D01*
X117039362Y-89112085D01*
X117218997Y-89170451D01*
X117405553Y-89200000D01*
X117594447Y-89200000D01*
X117781002Y-89170451D01*
X117960637Y-89112085D01*
X118128937Y-89026331D01*
X118154328Y-89007883D01*
X118154328Y-89007882D01*
X118845669Y-89007882D01*
X118845670Y-89007883D01*
X118871059Y-89026329D01*
X119039362Y-89112085D01*
X119218997Y-89170451D01*
X119405553Y-89200000D01*
X119594447Y-89200000D01*
X119781002Y-89170451D01*
X119960637Y-89112085D01*
X120128937Y-89026331D01*
X120154328Y-89007883D01*
X120154328Y-89007882D01*
X119500001Y-88353554D01*
X119500000Y-88353554D01*
X118845669Y-89007882D01*
X118154328Y-89007882D01*
X117500001Y-88353554D01*
X117500000Y-88353554D01*
X116845669Y-89007882D01*
X113570119Y-89007882D01*
X113810993Y-88923596D01*
X113811008Y-88923589D01*
X113966094Y-88848904D01*
X113966096Y-88848903D01*
X114049094Y-88808932D01*
X114130718Y-88769625D01*
X114431193Y-88580824D01*
X114708639Y-88359568D01*
X114959568Y-88108639D01*
X115121525Y-87905552D01*
X116300000Y-87905552D01*
X116300000Y-88094447D01*
X116329548Y-88281002D01*
X116387914Y-88460637D01*
X116473666Y-88628933D01*
X116492116Y-88654328D01*
X117146446Y-88000000D01*
X117146446Y-87999999D01*
X117100369Y-87953922D01*
X117150000Y-87953922D01*
X117150000Y-88046078D01*
X117173852Y-88135095D01*
X117219930Y-88214905D01*
X117285095Y-88280070D01*
X117364905Y-88326148D01*
X117453922Y-88350000D01*
X117546078Y-88350000D01*
X117635095Y-88326148D01*
X117714905Y-88280070D01*
X117780070Y-88214905D01*
X117826148Y-88135095D01*
X117850000Y-88046078D01*
X117850000Y-88000000D01*
X117853554Y-88000000D01*
X118500000Y-88646446D01*
X119146446Y-88000000D01*
X119100368Y-87953922D01*
X119150000Y-87953922D01*
X119150000Y-88046078D01*
X119173852Y-88135095D01*
X119219930Y-88214905D01*
X119285095Y-88280070D01*
X119364905Y-88326148D01*
X119453922Y-88350000D01*
X119546078Y-88350000D01*
X119635095Y-88326148D01*
X119714905Y-88280070D01*
X119780070Y-88214905D01*
X119826148Y-88135095D01*
X119850000Y-88046078D01*
X119850000Y-87999999D01*
X119853554Y-87999999D01*
X119853554Y-88000000D01*
X120507882Y-88654328D01*
X120507883Y-88654328D01*
X120526331Y-88628937D01*
X120612085Y-88460637D01*
X120670451Y-88281002D01*
X120700000Y-88094447D01*
X120700000Y-87905555D01*
X120699736Y-87903889D01*
X120699736Y-87903886D01*
X120699735Y-87903882D01*
X120697306Y-87888549D01*
X121299500Y-87888549D01*
X121299500Y-88111450D01*
X121299501Y-88111466D01*
X121328594Y-88332452D01*
X121328595Y-88332457D01*
X121328596Y-88332463D01*
X121362940Y-88460637D01*
X121386290Y-88547780D01*
X121386293Y-88547790D01*
X121471593Y-88753722D01*
X121471595Y-88753726D01*
X121583052Y-88946774D01*
X121583057Y-88946780D01*
X121583058Y-88946782D01*
X121718751Y-89123622D01*
X121718757Y-89123629D01*
X121876370Y-89281242D01*
X121876377Y-89281248D01*
X121915293Y-89311109D01*
X122053226Y-89416948D01*
X122246274Y-89528405D01*
X122452219Y-89613710D01*
X122667537Y-89671404D01*
X122888543Y-89700500D01*
X122888550Y-89700500D01*
X123111450Y-89700500D01*
X123111457Y-89700500D01*
X123332463Y-89671404D01*
X123547781Y-89613710D01*
X123753726Y-89528405D01*
X123938002Y-89422012D01*
X124005899Y-89405540D01*
X124061996Y-89422011D01*
X124246274Y-89528405D01*
X124452219Y-89613710D01*
X124667537Y-89671404D01*
X124888543Y-89700500D01*
X124888550Y-89700500D01*
X125111450Y-89700500D01*
X125111457Y-89700500D01*
X125332463Y-89671404D01*
X125547781Y-89613710D01*
X125753726Y-89528405D01*
X125946774Y-89416948D01*
X126123624Y-89281247D01*
X126281247Y-89123624D01*
X126416948Y-88946774D01*
X126528405Y-88753726D01*
X126613710Y-88547781D01*
X126671404Y-88332463D01*
X126700500Y-88111457D01*
X126700500Y-87888543D01*
X126699626Y-87881902D01*
X132999500Y-87881902D01*
X132999500Y-88118097D01*
X133036446Y-88351368D01*
X133109433Y-88575996D01*
X133216657Y-88786433D01*
X133355483Y-88977510D01*
X133522490Y-89144517D01*
X133713567Y-89283343D01*
X133797278Y-89325996D01*
X133924003Y-89390566D01*
X133924005Y-89390566D01*
X133924008Y-89390568D01*
X134038328Y-89427713D01*
X134148631Y-89463553D01*
X134381903Y-89500500D01*
X134381908Y-89500500D01*
X134618097Y-89500500D01*
X134851368Y-89463553D01*
X134862232Y-89460023D01*
X135075992Y-89390568D01*
X135286433Y-89283343D01*
X135477510Y-89144517D01*
X135644517Y-88977510D01*
X135783343Y-88786433D01*
X135819515Y-88715440D01*
X135867489Y-88664645D01*
X135935310Y-88647850D01*
X136001445Y-88670387D01*
X136040484Y-88715440D01*
X136076657Y-88786433D01*
X136215483Y-88977510D01*
X136382490Y-89144517D01*
X136573567Y-89283343D01*
X136657278Y-89325996D01*
X136784003Y-89390566D01*
X136784005Y-89390566D01*
X136784008Y-89390568D01*
X136898328Y-89427713D01*
X137008631Y-89463553D01*
X137241903Y-89500500D01*
X137241908Y-89500500D01*
X137478097Y-89500500D01*
X137711368Y-89463553D01*
X137722232Y-89460023D01*
X137935992Y-89390568D01*
X138146433Y-89283343D01*
X138337510Y-89144517D01*
X138504517Y-88977510D01*
X138643343Y-88786433D01*
X138750568Y-88575992D01*
X138823553Y-88351368D01*
X138826549Y-88332452D01*
X138860500Y-88118097D01*
X138860500Y-87881902D01*
X139499500Y-87881902D01*
X139499500Y-88118097D01*
X139536446Y-88351368D01*
X139609433Y-88575996D01*
X139716657Y-88786433D01*
X139855483Y-88977510D01*
X140022490Y-89144517D01*
X140213567Y-89283343D01*
X140297278Y-89325996D01*
X140424003Y-89390566D01*
X140424005Y-89390566D01*
X140424008Y-89390568D01*
X140538328Y-89427713D01*
X140648631Y-89463553D01*
X140881903Y-89500500D01*
X140881908Y-89500500D01*
X141118097Y-89500500D01*
X141351368Y-89463553D01*
X141362232Y-89460023D01*
X141575992Y-89390568D01*
X141786433Y-89283343D01*
X141977510Y-89144517D01*
X142144517Y-88977510D01*
X142283343Y-88786433D01*
X142362080Y-88631902D01*
X151999500Y-88631902D01*
X151999500Y-88868097D01*
X152036446Y-89101368D01*
X152109433Y-89325996D01*
X152212567Y-89528406D01*
X152216657Y-89536433D01*
X152355483Y-89727510D01*
X152522490Y-89894517D01*
X152713567Y-90033343D01*
X152812991Y-90084002D01*
X152924003Y-90140566D01*
X152924005Y-90140566D01*
X152924008Y-90140568D01*
X153022838Y-90172680D01*
X153148631Y-90213553D01*
X153381903Y-90250500D01*
X153381908Y-90250500D01*
X153618097Y-90250500D01*
X153851368Y-90213553D01*
X154075992Y-90140568D01*
X154286433Y-90033343D01*
X154477510Y-89894517D01*
X154644517Y-89727510D01*
X154783343Y-89536433D01*
X154890568Y-89325992D01*
X154963553Y-89101368D01*
X154973146Y-89040798D01*
X155000500Y-88868097D01*
X155000500Y-88631902D01*
X154963553Y-88398631D01*
X154890566Y-88174003D01*
X154809289Y-88014489D01*
X154783343Y-87963567D01*
X154644517Y-87772490D01*
X154477510Y-87605483D01*
X154286433Y-87466657D01*
X154202730Y-87424008D01*
X154075996Y-87359433D01*
X153851368Y-87286446D01*
X153618097Y-87249500D01*
X153618092Y-87249500D01*
X153381908Y-87249500D01*
X153381903Y-87249500D01*
X153148631Y-87286446D01*
X152924003Y-87359433D01*
X152713566Y-87466657D01*
X152625403Y-87530712D01*
X152522490Y-87605483D01*
X152522488Y-87605485D01*
X152522487Y-87605485D01*
X152355485Y-87772487D01*
X152355485Y-87772488D01*
X152355483Y-87772490D01*
X152346325Y-87785095D01*
X152216657Y-87963566D01*
X152109433Y-88174003D01*
X152036446Y-88398631D01*
X151999500Y-88631902D01*
X142362080Y-88631902D01*
X142390568Y-88575992D01*
X142463553Y-88351368D01*
X142466549Y-88332452D01*
X142500500Y-88118097D01*
X142500500Y-87881902D01*
X142463553Y-87648631D01*
X142425238Y-87530712D01*
X142390568Y-87424008D01*
X142390566Y-87424005D01*
X142390566Y-87424003D01*
X142319515Y-87284558D01*
X142283343Y-87213567D01*
X142144517Y-87022490D01*
X141977510Y-86855483D01*
X141958906Y-86841966D01*
X160499500Y-86841966D01*
X160499500Y-88658028D01*
X160499501Y-88658034D01*
X160510113Y-88777415D01*
X160566089Y-88973045D01*
X160566090Y-88973048D01*
X160566091Y-88973049D01*
X160660302Y-89153407D01*
X160670507Y-89165922D01*
X160788890Y-89311109D01*
X160872978Y-89379673D01*
X160946593Y-89439698D01*
X161126951Y-89533909D01*
X161322582Y-89589886D01*
X161441963Y-89600500D01*
X163258036Y-89600499D01*
X163294378Y-89597268D01*
X163362896Y-89610939D01*
X163413147Y-89659484D01*
X163429175Y-89727491D01*
X163405892Y-89793367D01*
X163405676Y-89793666D01*
X163387712Y-89818390D01*
X163294781Y-90000776D01*
X163231522Y-90195465D01*
X163199500Y-90397648D01*
X163199500Y-90602351D01*
X163231522Y-90804534D01*
X163294781Y-90999223D01*
X163347328Y-91102351D01*
X163370909Y-91148631D01*
X163387715Y-91181613D01*
X163508028Y-91347213D01*
X163652786Y-91491971D01*
X163807749Y-91604556D01*
X163818390Y-91612287D01*
X163934607Y-91671503D01*
X164000776Y-91705218D01*
X164000778Y-91705218D01*
X164000781Y-91705220D01*
X164105137Y-91739127D01*
X164195465Y-91768477D01*
X164289318Y-91783342D01*
X164397648Y-91800500D01*
X164397649Y-91800500D01*
X164602351Y-91800500D01*
X164602352Y-91800500D01*
X164804534Y-91768477D01*
X164961683Y-91717415D01*
X165031522Y-91715421D01*
X165038292Y-91717408D01*
X165132983Y-91748175D01*
X165195465Y-91768477D01*
X165289318Y-91783342D01*
X165397648Y-91800500D01*
X165397649Y-91800500D01*
X165602351Y-91800500D01*
X165602352Y-91800500D01*
X165804534Y-91768477D01*
X165999219Y-91705220D01*
X166181610Y-91612287D01*
X166274590Y-91544732D01*
X166347213Y-91491971D01*
X166347215Y-91491968D01*
X166347219Y-91491966D01*
X166491966Y-91347219D01*
X166491968Y-91347215D01*
X166491971Y-91347213D01*
X166583223Y-91221613D01*
X166612287Y-91181610D01*
X166705220Y-90999219D01*
X166768477Y-90804534D01*
X166800500Y-90602352D01*
X166800500Y-90397648D01*
X166774868Y-90235814D01*
X166768477Y-90195465D01*
X166718215Y-90040776D01*
X166705220Y-90000781D01*
X166705218Y-90000778D01*
X166705218Y-90000776D01*
X166666100Y-89924003D01*
X166612287Y-89818390D01*
X166600950Y-89802786D01*
X166491971Y-89652786D01*
X166430223Y-89591038D01*
X166396738Y-89529715D01*
X166401722Y-89460023D01*
X166443594Y-89404090D01*
X166509058Y-89379673D01*
X166577331Y-89394525D01*
X166579905Y-89395971D01*
X166609780Y-89413220D01*
X166609784Y-89413221D01*
X166609788Y-89413224D01*
X166833900Y-89506054D01*
X167068211Y-89568838D01*
X167236840Y-89591038D01*
X167308711Y-89600500D01*
X167308712Y-89600500D01*
X167551289Y-89600500D01*
X167579267Y-89596816D01*
X167791789Y-89568838D01*
X167797805Y-89567226D01*
X167867655Y-89568888D01*
X167925518Y-89608049D01*
X167953023Y-89672277D01*
X167941437Y-89741180D01*
X167930219Y-89759885D01*
X167887712Y-89818390D01*
X167794781Y-90000776D01*
X167731522Y-90195465D01*
X167699500Y-90397648D01*
X167699500Y-90602351D01*
X167731522Y-90804534D01*
X167794781Y-90999223D01*
X167847328Y-91102351D01*
X167870909Y-91148631D01*
X167887715Y-91181613D01*
X168008028Y-91347213D01*
X168152786Y-91491971D01*
X168307749Y-91604556D01*
X168318390Y-91612287D01*
X168434607Y-91671503D01*
X168500776Y-91705218D01*
X168500778Y-91705218D01*
X168500781Y-91705220D01*
X168605137Y-91739127D01*
X168695465Y-91768477D01*
X168789318Y-91783342D01*
X168897648Y-91800500D01*
X168897649Y-91800500D01*
X169102351Y-91800500D01*
X169102352Y-91800500D01*
X169304534Y-91768477D01*
X169499219Y-91705220D01*
X169681610Y-91612287D01*
X169774590Y-91544732D01*
X169847213Y-91491971D01*
X169847215Y-91491968D01*
X169847219Y-91491966D01*
X169991966Y-91347219D01*
X169991968Y-91347215D01*
X169991971Y-91347213D01*
X170083223Y-91221613D01*
X170112287Y-91181610D01*
X170205220Y-90999219D01*
X170268477Y-90804534D01*
X170300500Y-90602352D01*
X170300500Y-90397648D01*
X170274868Y-90235814D01*
X170268477Y-90195465D01*
X170218215Y-90040776D01*
X170205220Y-90000781D01*
X170205218Y-90000778D01*
X170205218Y-90000776D01*
X170166100Y-89924003D01*
X170112287Y-89818390D01*
X170100950Y-89802786D01*
X170088477Y-89785617D01*
X170064997Y-89719810D01*
X170080823Y-89651757D01*
X170130929Y-89603062D01*
X170172606Y-89589794D01*
X170331789Y-89568838D01*
X170566100Y-89506054D01*
X170790212Y-89413224D01*
X171000289Y-89291936D01*
X171164514Y-89165922D01*
X171229683Y-89140728D01*
X171298128Y-89154766D01*
X171315486Y-89165922D01*
X171479711Y-89291936D01*
X171689788Y-89413224D01*
X171913900Y-89506054D01*
X172148211Y-89568838D01*
X172316840Y-89591038D01*
X172388711Y-89600500D01*
X172388712Y-89600500D01*
X172631289Y-89600500D01*
X172703160Y-89591038D01*
X172871789Y-89568838D01*
X173106100Y-89506054D01*
X173330212Y-89413224D01*
X173540289Y-89291936D01*
X173704514Y-89165922D01*
X173769683Y-89140728D01*
X173838128Y-89154766D01*
X173855486Y-89165922D01*
X174019711Y-89291936D01*
X174229788Y-89413224D01*
X174453900Y-89506054D01*
X174688211Y-89568838D01*
X174856840Y-89591038D01*
X174928711Y-89600500D01*
X174928712Y-89600500D01*
X175171289Y-89600500D01*
X175243160Y-89591038D01*
X175411789Y-89568838D01*
X175646100Y-89506054D01*
X175870212Y-89413224D01*
X176080289Y-89291936D01*
X176244514Y-89165922D01*
X176309683Y-89140728D01*
X176378128Y-89154766D01*
X176395486Y-89165922D01*
X176559711Y-89291936D01*
X176769788Y-89413224D01*
X176993900Y-89506054D01*
X177228211Y-89568838D01*
X177396840Y-89591038D01*
X177468711Y-89600500D01*
X177468712Y-89600500D01*
X177711289Y-89600500D01*
X177783160Y-89591038D01*
X177951789Y-89568838D01*
X178186100Y-89506054D01*
X178410212Y-89413224D01*
X178620289Y-89291936D01*
X178784514Y-89165922D01*
X178849683Y-89140728D01*
X178918128Y-89154766D01*
X178935486Y-89165922D01*
X179099711Y-89291936D01*
X179309788Y-89413224D01*
X179533900Y-89506054D01*
X179540059Y-89507704D01*
X179599720Y-89544063D01*
X179630254Y-89606908D01*
X179621964Y-89676284D01*
X179595654Y-89715161D01*
X179508027Y-89802788D01*
X179387715Y-89968386D01*
X179294781Y-90150776D01*
X179231522Y-90345465D01*
X179199500Y-90547648D01*
X179199500Y-90752351D01*
X179231522Y-90954534D01*
X179294781Y-91149223D01*
X179358691Y-91274653D01*
X179387668Y-91331522D01*
X179387715Y-91331613D01*
X179508028Y-91497213D01*
X179652786Y-91641971D01*
X179794896Y-91745218D01*
X179818390Y-91762287D01*
X179909043Y-91808477D01*
X180000776Y-91855218D01*
X180000778Y-91855218D01*
X180000781Y-91855220D01*
X180100778Y-91887711D01*
X180195465Y-91918477D01*
X180296557Y-91934488D01*
X180397648Y-91950500D01*
X180397649Y-91950500D01*
X180602351Y-91950500D01*
X180602352Y-91950500D01*
X180804534Y-91918477D01*
X180999219Y-91855220D01*
X181181610Y-91762287D01*
X181181613Y-91762284D01*
X181183993Y-91761072D01*
X181252663Y-91748175D01*
X181317403Y-91774451D01*
X181357661Y-91831557D01*
X181362763Y-91890949D01*
X181360235Y-91906914D01*
X181360235Y-92111616D01*
X181392257Y-92313799D01*
X181455516Y-92508488D01*
X181548450Y-92690878D01*
X181668763Y-92856478D01*
X181813521Y-93001236D01*
X181952697Y-93102351D01*
X181979125Y-93121552D01*
X182095342Y-93180768D01*
X182161511Y-93214483D01*
X182161513Y-93214483D01*
X182161516Y-93214485D01*
X182265872Y-93248392D01*
X182356200Y-93277742D01*
X182457292Y-93293753D01*
X182558383Y-93309765D01*
X182558384Y-93309765D01*
X182763086Y-93309765D01*
X182763087Y-93309765D01*
X182965269Y-93277742D01*
X183159954Y-93214485D01*
X183342345Y-93121552D01*
X183474373Y-93025629D01*
X183507948Y-93001236D01*
X183507950Y-93001233D01*
X183507954Y-93001231D01*
X183652701Y-92856484D01*
X183652703Y-92856480D01*
X183652706Y-92856478D01*
X183705841Y-92783342D01*
X183773022Y-92690875D01*
X183865955Y-92508484D01*
X183929212Y-92313799D01*
X183961235Y-92111617D01*
X183961235Y-91906913D01*
X183938136Y-91761072D01*
X183929212Y-91704730D01*
X183883091Y-91562786D01*
X183865955Y-91510046D01*
X183865953Y-91510043D01*
X183865953Y-91510041D01*
X183782987Y-91347213D01*
X183773022Y-91327655D01*
X183756224Y-91304534D01*
X183652706Y-91162051D01*
X183507948Y-91017293D01*
X183342348Y-90896980D01*
X183342347Y-90896979D01*
X183342345Y-90896978D01*
X183258893Y-90854457D01*
X183159958Y-90804046D01*
X182965269Y-90740787D01*
X182790730Y-90713143D01*
X182763087Y-90708765D01*
X182558383Y-90708765D01*
X182534064Y-90712616D01*
X182356200Y-90740787D01*
X182161511Y-90804046D01*
X181976740Y-90898193D01*
X181908071Y-90911089D01*
X181843330Y-90884813D01*
X181803073Y-90827706D01*
X181797972Y-90768311D01*
X181800500Y-90752352D01*
X181800500Y-90547648D01*
X181793076Y-90500776D01*
X181768477Y-90345465D01*
X181732736Y-90235466D01*
X181705220Y-90150781D01*
X181705218Y-90150778D01*
X181705218Y-90150776D01*
X181649172Y-90040781D01*
X181612287Y-89968390D01*
X181580042Y-89924008D01*
X181491971Y-89802786D01*
X181347213Y-89658028D01*
X181181614Y-89537715D01*
X181147639Y-89520404D01*
X181096843Y-89472429D01*
X181080048Y-89404608D01*
X181102585Y-89338473D01*
X181141929Y-89302535D01*
X181160289Y-89291936D01*
X181352738Y-89144265D01*
X181524265Y-88972738D01*
X181671936Y-88780289D01*
X181793224Y-88570212D01*
X181886054Y-88346100D01*
X181948838Y-88111789D01*
X181980500Y-87871288D01*
X181980500Y-87628712D01*
X181948838Y-87388211D01*
X181886054Y-87153900D01*
X181793224Y-86929788D01*
X181671936Y-86719711D01*
X181524265Y-86527262D01*
X181524260Y-86527256D01*
X181352743Y-86355739D01*
X181352736Y-86355733D01*
X181160293Y-86208067D01*
X181160292Y-86208066D01*
X181160289Y-86208064D01*
X180950212Y-86086776D01*
X180950205Y-86086773D01*
X180726104Y-85993947D01*
X180491785Y-85931161D01*
X180251289Y-85899500D01*
X180251288Y-85899500D01*
X180008712Y-85899500D01*
X180008711Y-85899500D01*
X179768214Y-85931161D01*
X179533895Y-85993947D01*
X179309794Y-86086773D01*
X179309785Y-86086777D01*
X179099706Y-86208067D01*
X178935486Y-86334077D01*
X178870317Y-86359271D01*
X178801872Y-86345232D01*
X178784514Y-86334077D01*
X178620293Y-86208067D01*
X178620292Y-86208066D01*
X178620289Y-86208064D01*
X178410212Y-86086776D01*
X178410205Y-86086773D01*
X178186104Y-85993947D01*
X177951785Y-85931161D01*
X177711289Y-85899500D01*
X177711288Y-85899500D01*
X177468712Y-85899500D01*
X177468711Y-85899500D01*
X177228214Y-85931161D01*
X176993895Y-85993947D01*
X176769794Y-86086773D01*
X176769785Y-86086777D01*
X176559706Y-86208067D01*
X176395486Y-86334077D01*
X176330317Y-86359271D01*
X176261872Y-86345232D01*
X176244514Y-86334077D01*
X176080293Y-86208067D01*
X176080292Y-86208066D01*
X176080289Y-86208064D01*
X175870212Y-86086776D01*
X175870205Y-86086773D01*
X175646104Y-85993947D01*
X175411785Y-85931161D01*
X175171289Y-85899500D01*
X175171288Y-85899500D01*
X174928712Y-85899500D01*
X174928711Y-85899500D01*
X174688214Y-85931161D01*
X174453895Y-85993947D01*
X174229794Y-86086773D01*
X174229785Y-86086777D01*
X174019706Y-86208067D01*
X173855486Y-86334077D01*
X173790317Y-86359271D01*
X173721872Y-86345232D01*
X173704514Y-86334077D01*
X173540293Y-86208067D01*
X173540292Y-86208066D01*
X173540289Y-86208064D01*
X173330212Y-86086776D01*
X173330205Y-86086773D01*
X173106104Y-85993947D01*
X172871785Y-85931161D01*
X172631289Y-85899500D01*
X172631288Y-85899500D01*
X172388712Y-85899500D01*
X172388711Y-85899500D01*
X172148214Y-85931161D01*
X171913895Y-85993947D01*
X171689794Y-86086773D01*
X171689785Y-86086777D01*
X171479706Y-86208067D01*
X171315486Y-86334077D01*
X171250317Y-86359271D01*
X171181872Y-86345232D01*
X171164514Y-86334077D01*
X171000293Y-86208067D01*
X171000292Y-86208066D01*
X171000289Y-86208064D01*
X170790212Y-86086776D01*
X170790205Y-86086773D01*
X170566104Y-85993947D01*
X170331785Y-85931161D01*
X170091289Y-85899500D01*
X170091288Y-85899500D01*
X169848712Y-85899500D01*
X169848711Y-85899500D01*
X169608214Y-85931161D01*
X169373895Y-85993947D01*
X169149794Y-86086773D01*
X169149785Y-86086777D01*
X168939706Y-86208067D01*
X168775486Y-86334077D01*
X168710317Y-86359271D01*
X168641872Y-86345232D01*
X168624514Y-86334077D01*
X168460293Y-86208067D01*
X168460292Y-86208066D01*
X168460289Y-86208064D01*
X168250212Y-86086776D01*
X168250205Y-86086773D01*
X168026104Y-85993947D01*
X167791785Y-85931161D01*
X167551289Y-85899500D01*
X167551288Y-85899500D01*
X167308712Y-85899500D01*
X167308711Y-85899500D01*
X167068214Y-85931161D01*
X166833895Y-85993947D01*
X166609794Y-86086773D01*
X166609785Y-86086777D01*
X166399706Y-86208067D01*
X166235486Y-86334077D01*
X166170317Y-86359271D01*
X166101872Y-86345232D01*
X166084514Y-86334077D01*
X165920293Y-86208067D01*
X165920292Y-86208066D01*
X165920289Y-86208064D01*
X165710212Y-86086776D01*
X165710205Y-86086773D01*
X165486104Y-85993947D01*
X165251785Y-85931161D01*
X165011289Y-85899500D01*
X165011288Y-85899500D01*
X164768712Y-85899500D01*
X164768711Y-85899500D01*
X164528214Y-85931161D01*
X164293895Y-85993947D01*
X164069794Y-86086773D01*
X164069789Y-86086775D01*
X163977640Y-86139977D01*
X163909740Y-86156449D01*
X163843713Y-86133596D01*
X163837281Y-86128691D01*
X163753412Y-86060305D01*
X163753408Y-86060303D01*
X163753407Y-86060302D01*
X163573049Y-85966091D01*
X163573048Y-85966090D01*
X163573045Y-85966089D01*
X163455829Y-85932550D01*
X163377418Y-85910114D01*
X163377415Y-85910113D01*
X163377413Y-85910113D01*
X163311102Y-85904217D01*
X163258037Y-85899500D01*
X163258032Y-85899500D01*
X161441971Y-85899500D01*
X161441965Y-85899500D01*
X161441964Y-85899501D01*
X161430316Y-85900536D01*
X161322584Y-85910113D01*
X161126954Y-85966089D01*
X161073625Y-85993946D01*
X160946593Y-86060302D01*
X160946591Y-86060303D01*
X160946590Y-86060304D01*
X160788890Y-86188890D01*
X160660304Y-86346590D01*
X160660302Y-86346593D01*
X160630839Y-86402997D01*
X160566089Y-86526954D01*
X160538352Y-86623893D01*
X160510936Y-86719711D01*
X160510114Y-86722583D01*
X160510113Y-86722586D01*
X160499500Y-86841966D01*
X141958906Y-86841966D01*
X141786433Y-86716657D01*
X141575996Y-86609433D01*
X141351368Y-86536446D01*
X141118097Y-86499500D01*
X141118092Y-86499500D01*
X140881908Y-86499500D01*
X140881903Y-86499500D01*
X140648631Y-86536446D01*
X140424003Y-86609433D01*
X140213566Y-86716657D01*
X140205406Y-86722586D01*
X140022490Y-86855483D01*
X140022488Y-86855485D01*
X140022487Y-86855485D01*
X139855485Y-87022487D01*
X139855485Y-87022488D01*
X139855483Y-87022490D01*
X139833152Y-87053226D01*
X139716657Y-87213566D01*
X139609433Y-87424003D01*
X139536446Y-87648631D01*
X139499500Y-87881902D01*
X138860500Y-87881902D01*
X138823553Y-87648631D01*
X138785238Y-87530712D01*
X138750568Y-87424008D01*
X138750566Y-87424005D01*
X138750566Y-87424003D01*
X138679515Y-87284558D01*
X138643343Y-87213567D01*
X138504517Y-87022490D01*
X138337510Y-86855483D01*
X138146433Y-86716657D01*
X137935996Y-86609433D01*
X137711368Y-86536446D01*
X137478097Y-86499500D01*
X137478092Y-86499500D01*
X137241908Y-86499500D01*
X137241903Y-86499500D01*
X137008631Y-86536446D01*
X136784003Y-86609433D01*
X136573566Y-86716657D01*
X136565406Y-86722586D01*
X136382490Y-86855483D01*
X136382488Y-86855485D01*
X136382487Y-86855485D01*
X136215485Y-87022487D01*
X136215485Y-87022488D01*
X136215483Y-87022490D01*
X136193152Y-87053226D01*
X136076657Y-87213566D01*
X136040485Y-87284558D01*
X135992510Y-87335354D01*
X135924689Y-87352149D01*
X135858554Y-87329611D01*
X135819515Y-87284558D01*
X135801652Y-87249500D01*
X135783343Y-87213567D01*
X135644517Y-87022490D01*
X135477510Y-86855483D01*
X135286433Y-86716657D01*
X135075996Y-86609433D01*
X134851368Y-86536446D01*
X134618097Y-86499500D01*
X134618092Y-86499500D01*
X134381908Y-86499500D01*
X134381903Y-86499500D01*
X134148631Y-86536446D01*
X133924003Y-86609433D01*
X133713566Y-86716657D01*
X133705406Y-86722586D01*
X133522490Y-86855483D01*
X133522488Y-86855485D01*
X133522487Y-86855485D01*
X133355485Y-87022487D01*
X133355485Y-87022488D01*
X133355483Y-87022490D01*
X133333152Y-87053226D01*
X133216657Y-87213566D01*
X133109433Y-87424003D01*
X133036446Y-87648631D01*
X132999500Y-87881902D01*
X126699626Y-87881902D01*
X126671404Y-87667537D01*
X126613710Y-87452219D01*
X126528405Y-87246274D01*
X126416948Y-87053226D01*
X126322229Y-86929785D01*
X126281248Y-86876377D01*
X126281242Y-86876370D01*
X126123629Y-86718757D01*
X126123622Y-86718751D01*
X125946782Y-86583058D01*
X125946780Y-86583057D01*
X125946774Y-86583052D01*
X125753726Y-86471595D01*
X125753722Y-86471593D01*
X125547790Y-86386293D01*
X125547783Y-86386291D01*
X125547781Y-86386290D01*
X125332463Y-86328596D01*
X125332457Y-86328595D01*
X125332452Y-86328594D01*
X125111466Y-86299501D01*
X125111463Y-86299500D01*
X125111457Y-86299500D01*
X124888543Y-86299500D01*
X124888537Y-86299500D01*
X124888533Y-86299501D01*
X124667547Y-86328594D01*
X124667540Y-86328595D01*
X124667537Y-86328596D01*
X124553056Y-86359271D01*
X124452219Y-86386290D01*
X124452209Y-86386293D01*
X124246277Y-86471593D01*
X124246266Y-86471598D01*
X124062000Y-86577986D01*
X123994100Y-86594459D01*
X123938000Y-86577986D01*
X123753733Y-86471598D01*
X123753722Y-86471593D01*
X123547790Y-86386293D01*
X123547783Y-86386291D01*
X123547781Y-86386290D01*
X123332463Y-86328596D01*
X123332457Y-86328595D01*
X123332452Y-86328594D01*
X123111466Y-86299501D01*
X123111463Y-86299500D01*
X123111457Y-86299500D01*
X122888543Y-86299500D01*
X122888537Y-86299500D01*
X122888533Y-86299501D01*
X122667547Y-86328594D01*
X122667540Y-86328595D01*
X122667537Y-86328596D01*
X122553056Y-86359271D01*
X122452219Y-86386290D01*
X122452209Y-86386293D01*
X122246277Y-86471593D01*
X122246273Y-86471595D01*
X122053226Y-86583052D01*
X122053217Y-86583058D01*
X121876377Y-86718751D01*
X121876370Y-86718757D01*
X121718757Y-86876370D01*
X121718751Y-86876377D01*
X121583058Y-87053217D01*
X121583052Y-87053226D01*
X121471595Y-87246273D01*
X121471593Y-87246277D01*
X121386293Y-87452209D01*
X121386290Y-87452219D01*
X121339000Y-87628711D01*
X121328597Y-87667534D01*
X121328594Y-87667547D01*
X121299501Y-87888533D01*
X121299500Y-87888549D01*
X120697306Y-87888549D01*
X120670451Y-87718997D01*
X120612085Y-87539362D01*
X120526329Y-87371059D01*
X120507883Y-87345670D01*
X120507882Y-87345669D01*
X119853554Y-87999999D01*
X119850000Y-87999999D01*
X119850000Y-87953922D01*
X119826148Y-87864905D01*
X119780070Y-87785095D01*
X119714905Y-87719930D01*
X119635095Y-87673852D01*
X119546078Y-87650000D01*
X119453922Y-87650000D01*
X119364905Y-87673852D01*
X119285095Y-87719930D01*
X119219930Y-87785095D01*
X119173852Y-87864905D01*
X119150000Y-87953922D01*
X119100368Y-87953922D01*
X118500000Y-87353554D01*
X117853554Y-88000000D01*
X117850000Y-88000000D01*
X117850000Y-87953922D01*
X117826148Y-87864905D01*
X117780070Y-87785095D01*
X117714905Y-87719930D01*
X117635095Y-87673852D01*
X117546078Y-87650000D01*
X117453922Y-87650000D01*
X117364905Y-87673852D01*
X117285095Y-87719930D01*
X117219930Y-87785095D01*
X117173852Y-87864905D01*
X117150000Y-87953922D01*
X117100369Y-87953922D01*
X116492116Y-87345669D01*
X116492116Y-87345670D01*
X116473669Y-87371060D01*
X116387914Y-87539362D01*
X116329548Y-87718997D01*
X116300000Y-87905552D01*
X115121525Y-87905552D01*
X115180824Y-87831193D01*
X115369625Y-87530718D01*
X115446512Y-87371060D01*
X115523589Y-87211008D01*
X115523590Y-87211004D01*
X115523596Y-87210993D01*
X115547758Y-87141941D01*
X115597980Y-86998420D01*
X115600186Y-86992116D01*
X116845669Y-86992116D01*
X117500000Y-87646446D01*
X117500001Y-87646446D01*
X118154328Y-86992116D01*
X118845669Y-86992116D01*
X119500000Y-87646446D01*
X119500001Y-87646446D01*
X120154328Y-86992116D01*
X120128933Y-86973666D01*
X119960637Y-86887914D01*
X119781002Y-86829548D01*
X119594447Y-86800000D01*
X119405553Y-86800000D01*
X119218997Y-86829548D01*
X119039362Y-86887914D01*
X118871060Y-86973669D01*
X118845670Y-86992116D01*
X118845669Y-86992116D01*
X118154328Y-86992116D01*
X118128933Y-86973666D01*
X117960637Y-86887914D01*
X117781002Y-86829548D01*
X117594447Y-86800000D01*
X117405553Y-86800000D01*
X117218997Y-86829548D01*
X117039362Y-86887914D01*
X116871060Y-86973669D01*
X116845670Y-86992116D01*
X116845669Y-86992116D01*
X115600186Y-86992116D01*
X115640684Y-86876376D01*
X115640802Y-86876040D01*
X115719767Y-86530070D01*
X115759500Y-86177434D01*
X115759500Y-85822566D01*
X115719767Y-85469930D01*
X115640802Y-85123960D01*
X115523596Y-84789007D01*
X115523592Y-84789000D01*
X115523589Y-84788991D01*
X115369628Y-84469287D01*
X115369625Y-84469282D01*
X115180824Y-84168807D01*
X114959568Y-83891361D01*
X114780388Y-83712181D01*
X114746903Y-83650858D01*
X114751887Y-83581166D01*
X114793759Y-83525233D01*
X114859223Y-83500816D01*
X114868069Y-83500500D01*
X184581931Y-83500500D01*
X184648970Y-83520185D01*
G37*
%TD.AperFunction*%
%TD*%
M02*
