M48
; DRILL file {KiCad 9.0.6} date 2026-01-21T16:07:41-0600
; FORMAT={-:-/ absolute / inch / decimal}
; #@! TF.CreationDate,2026-01-21T16:07:41-06:00
; #@! TF.GenerationSoftware,Kicad,Pcbnew,9.0.6
; #@! TF.FileFunction,Plated,1,4,PTH
FMAT,2
INCH
; #@! TA.AperFunction,Plated,PTH,ViaDrill
T1C0.0118
; #@! TA.AperFunction,Plated,PTH,ComponentDrill
T2C0.0118
; #@! TA.AperFunction,Plated,PTH,ComponentDrill
T3C0.0197
; #@! TA.AperFunction,Plated,PTH,ComponentDrill
T4C0.0256
; #@! TA.AperFunction,Plated,PTH,ComponentDrill
T5C0.0276
; #@! TA.AperFunction,Plated,PTH,ComponentDrill
T6C0.0295
; #@! TA.AperFunction,Plated,PTH,ComponentDrill
T7C0.0315
; #@! TA.AperFunction,Plated,PTH,ComponentDrill
T8C0.0394
; #@! TA.AperFunction,Plated,PTH,ComponentDrill
T9C0.1250
%
G90
G05
T1
X4.8858Y-3.9055
X4.8917Y-4.3799
X4.9567Y-4.3543
X5.0213Y-3.5646
X5.0551Y-4.514
X5.0591Y-4.4409
X5.0787Y-3.6614
X5.1378Y-4.3307
X5.1543Y-3.9626
X5.1575Y-3.6457
X5.174Y-4.0118
X5.2134Y-4.0583
X5.2362Y-3.9173
X5.2362Y-3.9606
X5.2953Y-4.1732
X5.3529Y-4.3222
X5.3543Y-4.1732
X5.4331Y-3.9173
X5.4787Y-3.6205
X5.4921Y-3.6614
X5.5433Y-3.7598
X5.5906Y-3.9764
X5.6201Y-4.2087
X5.6241Y-4.2972
X5.626Y-4.1434
X5.6299Y-3.7008
X5.6299Y-3.9567
X5.6378Y-4.0745
X5.669Y-4.0789
X5.7087Y-4.1142
X5.7116Y-4.3671
X5.748Y-3.6614
X5.7529Y-4.3416
X5.7579Y-4.1437
X5.7874Y-4.2323
X5.8071Y-3.8976
X5.8268Y-4.2913
X5.8465Y-4.1732
X5.8661Y-4.2913
X5.896Y-4.2776
X5.9449Y-4.252
X5.9677Y-4.0157
X5.9843Y-4.2323
X6.0039Y-4.3898
X6.0162Y-4.4734
X6.0163Y-4.4218
X6.0236Y-3.7402
X6.0236Y-3.8476
X6.0433Y-4.1764
X6.0827Y-3.828
X6.0827Y-4.2421
X6.0867Y-3.7975
X6.0925Y-4.426
X6.1339Y-4.426
X6.1614Y-3.9469
X6.185Y-3.6181
X6.2117Y-3.4398
X6.2205Y-4.0551
X6.2303Y-3.9469
X6.2303Y-4.0945
X6.2339Y-4.2294
X6.2362Y-3.7835
X6.2389Y-4.1852
X6.255Y-4.1581
X6.2894Y-4.0165
X6.378Y-3.8583
X6.378Y-4.5197
X6.4469Y-3.8602
X6.4764Y-3.5814
X6.5157Y-3.5814
X6.5354Y-4.5354
X6.6535Y-3.563
X6.7244Y-4.0039
X6.7283Y-3.9646
X6.7323Y-4.685
X6.7724Y-4.685
X6.8031Y-4.685
X6.8307Y-3.7553
X6.8338Y-4.685
X6.8645Y-4.685
X6.8898Y-3.6662
X6.9377Y-4.2997
X6.939Y-4.3799
X6.9587Y-4.2126
X7.0114Y-3.6382
X7.0276Y-3.8484
X7.062Y-3.5483
X7.124Y-3.5413
X7.2016Y-3.6326
X7.2835Y-4.098
X7.3819Y-3.8091
T2
X6.5551Y-3.7008
X6.5551Y-3.7402
X6.5551Y-3.7795
X6.5945Y-3.7008
X6.5945Y-3.7402
X6.5945Y-3.7795
X6.6339Y-3.7008
X6.6339Y-3.7402
X6.6339Y-3.7795
T3
X4.4823Y-3.7736
X4.4823Y-3.8937
X4.4823Y-4.0138
X4.4823Y-4.1339
X4.4823Y-4.2618
X5.311Y-3.4646
X5.4035Y-4.3898
X5.4079Y-3.4646
X5.4173Y-4.4961
X5.4921Y-4.439
X5.5079Y-3.4646
X5.5709Y-4.3898
X5.5906Y-3.6024
X5.6496Y-4.3701
X5.689Y-3.563
X5.7087Y-4.2717
X6.0433Y-3.4941
X6.9055Y-4.4173
T4
X7.3327Y-4.2413
X7.3327Y-4.2913
T5
X4.626Y-3.4646
X4.7047Y-3.4646
X4.8425Y-3.4646
X4.9213Y-3.4646
T6
X7.0669Y-4.3917
X7.1457Y-4.3917
T7
X5.4921Y-4.152
X5.4921Y-4.252
X5.4921Y-4.352
T8
X6.3917Y-3.4547
X6.4917Y-3.4547
X6.5917Y-3.4547
X6.6917Y-3.4547
X6.7917Y-3.4547
X6.8917Y-3.4547
X6.9917Y-3.4547
X7.0917Y-3.4547
T9
X4.4331Y-3.3858
X4.4331Y-4.6063
X7.3563Y-3.3858
X7.3563Y-4.6063
M30
