%TF.GenerationSoftware,KiCad,Pcbnew,9.0.7*%
%TF.CreationDate,2026-02-05T20:31:52-06:00*%
%TF.ProjectId,wearable,77656172-6162-46c6-952e-6b696361645f,rev?*%
%TF.SameCoordinates,Original*%
%TF.FileFunction,Copper,L3,Inr*%
%TF.FilePolarity,Positive*%
%FSLAX46Y46*%
G04 Gerber Fmt 4.6, Leading zero omitted, Abs format (unit mm)*
G04 Created by KiCad (PCBNEW 9.0.7) date 2026-02-05 20:31:52*
%MOMM*%
%LPD*%
G01*
G04 APERTURE LIST*
G04 Aperture macros list*
%AMRoundRect*
0 Rectangle with rounded corners*
0 $1 Rounding radius*
0 $2 $3 $4 $5 $6 $7 $8 $9 X,Y pos of 4 corners*
0 Add a 4 corners polygon primitive as box body*
4,1,4,$2,$3,$4,$5,$6,$7,$8,$9,$2,$3,0*
0 Add four circle primitives for the rounded corners*
1,1,$1+$1,$2,$3*
1,1,$1+$1,$4,$5*
1,1,$1+$1,$6,$7*
1,1,$1+$1,$8,$9*
0 Add four rect primitives between the rounded corners*
20,1,$1+$1,$2,$3,$4,$5,0*
20,1,$1+$1,$4,$5,$6,$7,0*
20,1,$1+$1,$6,$7,$8,$9,0*
20,1,$1+$1,$8,$9,$2,$3,0*%
G04 Aperture macros list end*
%TA.AperFunction,ComponentPad*%
%ADD10C,1.000000*%
%TD*%
%TA.AperFunction,ComponentPad*%
%ADD11C,1.400000*%
%TD*%
%TA.AperFunction,ComponentPad*%
%ADD12C,4.318000*%
%TD*%
%TA.AperFunction,ComponentPad*%
%ADD13R,1.700000X1.700000*%
%TD*%
%TA.AperFunction,ComponentPad*%
%ADD14C,1.700000*%
%TD*%
%TA.AperFunction,ComponentPad*%
%ADD15RoundRect,0.250000X-0.625000X0.350000X-0.625000X-0.350000X0.625000X-0.350000X0.625000X0.350000X0*%
%TD*%
%TA.AperFunction,ComponentPad*%
%ADD16O,1.750000X1.200000*%
%TD*%
%TA.AperFunction,ComponentPad*%
%ADD17R,1.000000X1.000000*%
%TD*%
%TA.AperFunction,ComponentPad*%
%ADD18RoundRect,0.250000X-0.350000X-0.625000X0.350000X-0.625000X0.350000X0.625000X-0.350000X0.625000X0*%
%TD*%
%TA.AperFunction,ComponentPad*%
%ADD19O,1.200000X1.750000*%
%TD*%
%TA.AperFunction,HeatsinkPad*%
%ADD20C,0.500000*%
%TD*%
%TA.AperFunction,ViaPad*%
%ADD21C,0.600000*%
%TD*%
G04 APERTURE END LIST*
D10*
%TO.N,DRDY*%
%TO.C,TP8*%
X142000000Y-91500000D03*
%TD*%
%TO.N,SCK*%
%TO.C,TP14*%
X144500000Y-89600000D03*
%TD*%
D11*
%TO.N,AVDD*%
%TO.C,TP2*%
X123000000Y-88000000D03*
X125000000Y-88000000D03*
%TD*%
D10*
%TO.N,INT_BNO085*%
%TO.C,TP6*%
X141200000Y-113500000D03*
%TD*%
D12*
%TO.N,unconnected-(H4-Hole-Pad1)*%
%TO.C,H4*%
X186850000Y-117000000D03*
%TD*%
D10*
%TO.N,SCL*%
%TO.C,TP15*%
X153500000Y-88750000D03*
%TD*%
D12*
%TO.N,unconnected-(H1-Hole-Pad1)*%
%TO.C,H1*%
X112600000Y-86000000D03*
%TD*%
D10*
%TO.N,RST_ADS1299*%
%TO.C,TP4*%
X137360000Y-88000000D03*
%TD*%
%TO.N,START_ADS1299*%
%TO.C,TP3*%
X134900000Y-88000000D03*
%TD*%
%TO.N,MISO*%
%TO.C,TP11*%
X143200000Y-113900000D03*
%TD*%
%TO.N,CS_ADS1299*%
%TO.C,TP5*%
X154000000Y-94200000D03*
%TD*%
%TO.N,BOOT_BNO085*%
%TO.C,TP10*%
X143500000Y-111000000D03*
%TD*%
%TO.N,MOSI*%
%TO.C,TP9*%
X141500000Y-111500000D03*
%TD*%
D13*
%TO.N,AVSS*%
%TO.C,J3*%
X180100000Y-87500000D03*
D14*
%TO.N,+5V_USB*%
X177560000Y-87500000D03*
%TO.N,AVSS*%
X175020000Y-87500000D03*
%TO.N,Net-(J3-Pin_4)*%
X172480000Y-87500000D03*
%TO.N,unconnected-(J3-Pin_5-Pad5)*%
X169940000Y-87500000D03*
%TO.N,unconnected-(J3-Pin_6-Pad6)*%
X167400000Y-87500000D03*
%TO.N,AVSS*%
X164860000Y-87500000D03*
%TO.N,Net-(J3-Pin_8)*%
X162320000Y-87500000D03*
%TD*%
D15*
%TO.N,VBIAS*%
%TO.C,Elec_In*%
X112800000Y-98200000D03*
D16*
%TO.N,Net-(D4-D1+)*%
X112800000Y-100200000D03*
%TO.N,Net-(D4-D1-)*%
X112800000Y-102200000D03*
%TO.N,Net-(D4-D2+)*%
X112800000Y-104200000D03*
%TO.N,Net-(D4-D2-)*%
X112800000Y-106200000D03*
%TD*%
D10*
%TO.N,RST_BNO085*%
%TO.C,TP12*%
X145000000Y-108500000D03*
%TD*%
D11*
%TO.N,AVSS*%
%TO.C,TP1*%
X117500000Y-88000000D03*
X119500000Y-88000000D03*
%TD*%
D12*
%TO.N,unconnected-(H3-Hole-Pad1)*%
%TO.C,H3*%
X186850000Y-86000000D03*
%TD*%
D10*
%TO.N,SDA*%
%TO.C,TP16*%
X175400000Y-112200000D03*
%TD*%
D17*
%TO.N,AVSS*%
%TO.C,SW1*%
X186250000Y-109000000D03*
D10*
%TO.N,Net-(U4-SHPHLD)*%
X186250000Y-107730000D03*
%TD*%
%TO.N,PWDWN_ADS1299*%
%TO.C,TP7*%
X139900000Y-88000000D03*
%TD*%
D12*
%TO.N,unconnected-(H2-Hole-Pad1)*%
%TO.C,H2*%
X112600000Y-117000000D03*
%TD*%
D18*
%TO.N,Net-(BT1-+)*%
%TO.C,BT1*%
X179500000Y-111550000D03*
D19*
%TO.N,AVSS*%
X181500000Y-111550000D03*
%TD*%
D20*
%TO.N,AVSS*%
%TO.C,U4*%
X167850000Y-96350000D03*
X168850000Y-96350000D03*
X169850000Y-96350000D03*
X167850000Y-95350000D03*
X168850000Y-95350000D03*
X169850000Y-95350000D03*
X167850000Y-94350000D03*
X168850000Y-94350000D03*
X169850000Y-94350000D03*
%TD*%
D21*
%TO.N,AVSS*%
X119300000Y-103200000D03*
X146000000Y-93000000D03*
X126500000Y-113500000D03*
X157777005Y-87371509D03*
X179300000Y-103300000D03*
X148600000Y-107100000D03*
X175020000Y-85520000D03*
X160350000Y-113750000D03*
X164900000Y-85510000D03*
X134500000Y-106000000D03*
X125900000Y-110600000D03*
X167100000Y-90100000D03*
X160500000Y-107320000D03*
X145432500Y-114200000D03*
X164233812Y-99166188D03*
X116500000Y-97000000D03*
X170810122Y-100310122D03*
X114628442Y-103187501D03*
X181500000Y-96260000D03*
X139160000Y-91960000D03*
X140800000Y-95500000D03*
%TO.N,Net-(BT1-+)*%
X172900000Y-90500000D03*
%TO.N,AVDD*%
X124100000Y-99200000D03*
X124250000Y-111250000D03*
X182920000Y-92268530D03*
X127540000Y-90540000D03*
X128500000Y-112800000D03*
X187500000Y-96750000D03*
X131000000Y-92600000D03*
X129000000Y-93000000D03*
%TO.N,+3V3*%
X139500000Y-93000000D03*
X136000000Y-106000000D03*
X176750000Y-107000000D03*
X165200000Y-96100000D03*
X171300000Y-113500000D03*
X165600000Y-98400000D03*
X171300000Y-107000000D03*
X162130000Y-111730000D03*
%TO.N,+5V3*%
X178515000Y-100600000D03*
X178090000Y-92410000D03*
%TO.N,INT_BNO085*%
X152900000Y-111267502D03*
X145075735Y-110924265D03*
%TO.N,BOOT_BNO085*%
X152900000Y-114300000D03*
X143580000Y-103330000D03*
%TO.N,PWDWN_ADS1299*%
X132400000Y-103080000D03*
%TO.N,RST_BNO085*%
X151800000Y-111400000D03*
%TO.N,START_ADS1299*%
X130920000Y-100650000D03*
%TO.N,RST_ADS1299*%
X131420000Y-101900000D03*
%TO.N,MISO*%
X149600000Y-109700000D03*
X153800000Y-109300000D03*
X138000000Y-99500000D03*
X153100000Y-100900000D03*
%TO.N,MOSI*%
X147400000Y-103910000D03*
X150985000Y-103470000D03*
%TO.N,SCL*%
X155350000Y-98350000D03*
X174686300Y-93405001D03*
%TO.N,SDA*%
X173230424Y-95928606D03*
X152139878Y-105560122D03*
X175600000Y-109213493D03*
%TO.N,SCK*%
X153189878Y-108810122D03*
X151883812Y-102683812D03*
X151420000Y-108800000D03*
X133000000Y-99500000D03*
X141100000Y-101900000D03*
%TO.N,CS_ADS1299*%
X133460186Y-100780431D03*
%TO.N,DRDY*%
X142920000Y-106050000D03*
X143000000Y-100500000D03*
X143000000Y-94000000D03*
%TO.N,GPIO0*%
X151400000Y-107700000D03*
X171500000Y-117700000D03*
%TO.N,VSYS*%
X164800000Y-94200000D03*
X164800000Y-92720000D03*
X167100000Y-100000000D03*
X169300000Y-91000000D03*
%TO.N,GPIO2*%
X172100000Y-98200000D03*
X155300000Y-95600000D03*
%TO.N,GPIO4*%
X170100000Y-110900000D03*
X173600000Y-110900000D03*
%TO.N,Net-(U4-SHPHLD)*%
X179920000Y-91237625D03*
%TD*%
%TA.AperFunction,Conductor*%
%TO.N,AVDD*%
G36*
X184648970Y-83520185D02*
G01*
X184694725Y-83572989D01*
X184704669Y-83642147D01*
X184675644Y-83705703D01*
X184669612Y-83712181D01*
X184490431Y-83891361D01*
X184269175Y-84168808D01*
X184080371Y-84469287D01*
X183926410Y-84788991D01*
X183926401Y-84789013D01*
X183809201Y-85123948D01*
X183809197Y-85123960D01*
X183730233Y-85469926D01*
X183730231Y-85469942D01*
X183690500Y-85822561D01*
X183690500Y-86177438D01*
X183730231Y-86530057D01*
X183730233Y-86530073D01*
X183809197Y-86876039D01*
X183809201Y-86876051D01*
X183926401Y-87210986D01*
X183926410Y-87211008D01*
X184080371Y-87530712D01*
X184080375Y-87530718D01*
X184269176Y-87831193D01*
X184403795Y-88000000D01*
X184483101Y-88099447D01*
X184490432Y-88108639D01*
X184741361Y-88359568D01*
X185018807Y-88580824D01*
X185245157Y-88723049D01*
X185319287Y-88769628D01*
X185638991Y-88923589D01*
X185639000Y-88923592D01*
X185639007Y-88923596D01*
X185705268Y-88946782D01*
X185973948Y-89040798D01*
X185973960Y-89040802D01*
X186319930Y-89119767D01*
X186672562Y-89159499D01*
X186672563Y-89159500D01*
X186672566Y-89159500D01*
X187027437Y-89159500D01*
X187027437Y-89159499D01*
X187380070Y-89119767D01*
X187726040Y-89040802D01*
X188060993Y-88923596D01*
X188076929Y-88915922D01*
X188380712Y-88769628D01*
X188380712Y-88769627D01*
X188380718Y-88769625D01*
X188681193Y-88580824D01*
X188958639Y-88359568D01*
X189209568Y-88108639D01*
X189216857Y-88099500D01*
X189278553Y-88022135D01*
X189335741Y-87981994D01*
X189405552Y-87979144D01*
X189465822Y-88014489D01*
X189497416Y-88076808D01*
X189499500Y-88099447D01*
X189499500Y-114900552D01*
X189479815Y-114967591D01*
X189427011Y-115013346D01*
X189357853Y-115023290D01*
X189294297Y-114994265D01*
X189278553Y-114977865D01*
X189209568Y-114891361D01*
X188958638Y-114640431D01*
X188772475Y-114491971D01*
X188681193Y-114419176D01*
X188469934Y-114286433D01*
X188380712Y-114230371D01*
X188061008Y-114076410D01*
X188060986Y-114076401D01*
X187726051Y-113959201D01*
X187726039Y-113959197D01*
X187380073Y-113880233D01*
X187380057Y-113880231D01*
X187027438Y-113840500D01*
X187027434Y-113840500D01*
X186672566Y-113840500D01*
X186672561Y-113840500D01*
X186319942Y-113880231D01*
X186319926Y-113880233D01*
X185973960Y-113959197D01*
X185973948Y-113959201D01*
X185639013Y-114076401D01*
X185638991Y-114076410D01*
X185319287Y-114230371D01*
X185018808Y-114419175D01*
X184741361Y-114640431D01*
X184490431Y-114891361D01*
X184269175Y-115168808D01*
X184080371Y-115469287D01*
X183926410Y-115788991D01*
X183926401Y-115789013D01*
X183809201Y-116123948D01*
X183809197Y-116123960D01*
X183730233Y-116469926D01*
X183730231Y-116469942D01*
X183690500Y-116822561D01*
X183690500Y-117177438D01*
X183730231Y-117530057D01*
X183730233Y-117530073D01*
X183809197Y-117876039D01*
X183809201Y-117876051D01*
X183926401Y-118210986D01*
X183926410Y-118211008D01*
X184080371Y-118530712D01*
X184080375Y-118530718D01*
X184269176Y-118831193D01*
X184387163Y-118979144D01*
X184490431Y-119108638D01*
X184669612Y-119287819D01*
X184703097Y-119349142D01*
X184698113Y-119418834D01*
X184656241Y-119474767D01*
X184590777Y-119499184D01*
X184581931Y-119499500D01*
X114868069Y-119499500D01*
X114801030Y-119479815D01*
X114755275Y-119427011D01*
X114745331Y-119357853D01*
X114774356Y-119294297D01*
X114780388Y-119287819D01*
X114959568Y-119108639D01*
X115180824Y-118831193D01*
X115369625Y-118530718D01*
X115441430Y-118381613D01*
X115523589Y-118211008D01*
X115523590Y-118211004D01*
X115523596Y-118210993D01*
X115640802Y-117876040D01*
X115704343Y-117597648D01*
X170199500Y-117597648D01*
X170199500Y-117802351D01*
X170231522Y-118004534D01*
X170294781Y-118199223D01*
X170387715Y-118381613D01*
X170508028Y-118547213D01*
X170652786Y-118691971D01*
X170803502Y-118801470D01*
X170818390Y-118812287D01*
X170934607Y-118871503D01*
X171000776Y-118905218D01*
X171000778Y-118905218D01*
X171000781Y-118905220D01*
X171105137Y-118939127D01*
X171195465Y-118968477D01*
X171296557Y-118984488D01*
X171397648Y-119000500D01*
X171397649Y-119000500D01*
X171602351Y-119000500D01*
X171602352Y-119000500D01*
X171804534Y-118968477D01*
X171999219Y-118905220D01*
X172181610Y-118812287D01*
X172306025Y-118721895D01*
X172347213Y-118691971D01*
X172347215Y-118691968D01*
X172347219Y-118691966D01*
X172491966Y-118547219D01*
X172491968Y-118547215D01*
X172491971Y-118547213D01*
X172544732Y-118474590D01*
X172612287Y-118381610D01*
X172705220Y-118199219D01*
X172768477Y-118004534D01*
X172800500Y-117802352D01*
X172800500Y-117597648D01*
X172789797Y-117530070D01*
X172768477Y-117395465D01*
X172705218Y-117200776D01*
X172671503Y-117134607D01*
X172612287Y-117018390D01*
X172604556Y-117007749D01*
X172491971Y-116852786D01*
X172347213Y-116708028D01*
X172181613Y-116587715D01*
X172181612Y-116587714D01*
X172181610Y-116587713D01*
X172124653Y-116558691D01*
X171999223Y-116494781D01*
X171804534Y-116431522D01*
X171629995Y-116403878D01*
X171602352Y-116399500D01*
X171397648Y-116399500D01*
X171373329Y-116403351D01*
X171195465Y-116431522D01*
X171000776Y-116494781D01*
X170818386Y-116587715D01*
X170652786Y-116708028D01*
X170508028Y-116852786D01*
X170387715Y-117018386D01*
X170294781Y-117200776D01*
X170231522Y-117395465D01*
X170199500Y-117597648D01*
X115704343Y-117597648D01*
X115719767Y-117530070D01*
X115759500Y-117177434D01*
X115759500Y-116822566D01*
X115719767Y-116469930D01*
X115640802Y-116123960D01*
X115523596Y-115789007D01*
X115523592Y-115789000D01*
X115523589Y-115788991D01*
X115369628Y-115469287D01*
X115369119Y-115468477D01*
X115180824Y-115168807D01*
X114959568Y-114891361D01*
X114708639Y-114640432D01*
X114431193Y-114419176D01*
X114219934Y-114286433D01*
X114130712Y-114230371D01*
X113811008Y-114076410D01*
X113810986Y-114076401D01*
X113476051Y-113959201D01*
X113476039Y-113959197D01*
X113130073Y-113880233D01*
X113130057Y-113880231D01*
X112777438Y-113840500D01*
X112777434Y-113840500D01*
X112422566Y-113840500D01*
X112422561Y-113840500D01*
X112069942Y-113880231D01*
X112069926Y-113880233D01*
X111723960Y-113959197D01*
X111723948Y-113959201D01*
X111389013Y-114076401D01*
X111388991Y-114076410D01*
X111069287Y-114230371D01*
X110768808Y-114419175D01*
X110491361Y-114640431D01*
X110240431Y-114891361D01*
X110221447Y-114915167D01*
X110164258Y-114955307D01*
X110094447Y-114958157D01*
X110034177Y-114922811D01*
X110002584Y-114860492D01*
X110000500Y-114837854D01*
X110000500Y-113397648D01*
X125199500Y-113397648D01*
X125199500Y-113602351D01*
X125231522Y-113804534D01*
X125294781Y-113999223D01*
X125387715Y-114181613D01*
X125508028Y-114347213D01*
X125652786Y-114491971D01*
X125807719Y-114604534D01*
X125818390Y-114612287D01*
X125934607Y-114671503D01*
X126000776Y-114705218D01*
X126000778Y-114705218D01*
X126000781Y-114705220D01*
X126105137Y-114739127D01*
X126195465Y-114768477D01*
X126287418Y-114783041D01*
X126397648Y-114800500D01*
X126397649Y-114800500D01*
X126602351Y-114800500D01*
X126602352Y-114800500D01*
X126804534Y-114768477D01*
X126999219Y-114705220D01*
X127181610Y-114612287D01*
X127274590Y-114544732D01*
X127347213Y-114491971D01*
X127347215Y-114491968D01*
X127347219Y-114491966D01*
X127491966Y-114347219D01*
X127491968Y-114347215D01*
X127491971Y-114347213D01*
X127544732Y-114274590D01*
X127612287Y-114181610D01*
X127705220Y-113999219D01*
X127768477Y-113804534D01*
X127800500Y-113602352D01*
X127800500Y-113397648D01*
X127798006Y-113381902D01*
X139699500Y-113381902D01*
X139699500Y-113618097D01*
X139736446Y-113851368D01*
X139809433Y-114075996D01*
X139916657Y-114286433D01*
X140055483Y-114477510D01*
X140222490Y-114644517D01*
X140413567Y-114783343D01*
X140507468Y-114831188D01*
X140624003Y-114890566D01*
X140624005Y-114890566D01*
X140624008Y-114890568D01*
X140744412Y-114929689D01*
X140848631Y-114963553D01*
X141081903Y-115000500D01*
X141081908Y-115000500D01*
X141318097Y-115000500D01*
X141551368Y-114963553D01*
X141577020Y-114955218D01*
X141775992Y-114890568D01*
X141892532Y-114831187D01*
X141961201Y-114818291D01*
X142025941Y-114844567D01*
X142049143Y-114868784D01*
X142055483Y-114877510D01*
X142222490Y-115044517D01*
X142413567Y-115183343D01*
X142512991Y-115234002D01*
X142624003Y-115290566D01*
X142624005Y-115290566D01*
X142624008Y-115290568D01*
X142744412Y-115329689D01*
X142848631Y-115363553D01*
X143081903Y-115400500D01*
X143081908Y-115400500D01*
X143318097Y-115400500D01*
X143551368Y-115363553D01*
X143775992Y-115290568D01*
X143986433Y-115183343D01*
X144177510Y-115044517D01*
X144226053Y-114995973D01*
X144287375Y-114962488D01*
X144357066Y-114967472D01*
X144413000Y-115009343D01*
X144413961Y-115010644D01*
X144440534Y-115047219D01*
X144440537Y-115047222D01*
X144585286Y-115191971D01*
X144720993Y-115290566D01*
X144750890Y-115312287D01*
X144851505Y-115363553D01*
X144933276Y-115405218D01*
X144933278Y-115405218D01*
X144933281Y-115405220D01*
X145037637Y-115439127D01*
X145127965Y-115468477D01*
X145229057Y-115484488D01*
X145330148Y-115500500D01*
X145330149Y-115500500D01*
X145534851Y-115500500D01*
X145534852Y-115500500D01*
X145737034Y-115468477D01*
X145931719Y-115405220D01*
X146114110Y-115312287D01*
X146207090Y-115244732D01*
X146279713Y-115191971D01*
X146279715Y-115191968D01*
X146279719Y-115191966D01*
X146424466Y-115047219D01*
X146424468Y-115047215D01*
X146424471Y-115047213D01*
X146491243Y-114955307D01*
X146544787Y-114881610D01*
X146637720Y-114699219D01*
X146700977Y-114504534D01*
X146733000Y-114302352D01*
X146733000Y-114197648D01*
X151599500Y-114197648D01*
X151599500Y-114402351D01*
X151631522Y-114604534D01*
X151694781Y-114799223D01*
X151757753Y-114922811D01*
X151780509Y-114967472D01*
X151787715Y-114981613D01*
X151908028Y-115147213D01*
X152052786Y-115291971D01*
X152202166Y-115400500D01*
X152218390Y-115412287D01*
X152328669Y-115468477D01*
X152400776Y-115505218D01*
X152400778Y-115505218D01*
X152400781Y-115505220D01*
X152505137Y-115539127D01*
X152595465Y-115568477D01*
X152696557Y-115584488D01*
X152797648Y-115600500D01*
X152797649Y-115600500D01*
X153002351Y-115600500D01*
X153002352Y-115600500D01*
X153204534Y-115568477D01*
X153399219Y-115505220D01*
X153581610Y-115412287D01*
X153674590Y-115344732D01*
X153747213Y-115291971D01*
X153747215Y-115291968D01*
X153747219Y-115291966D01*
X153891966Y-115147219D01*
X153891968Y-115147215D01*
X153891971Y-115147213D01*
X153964617Y-115047222D01*
X154012287Y-114981610D01*
X154105220Y-114799219D01*
X154168477Y-114604534D01*
X154200500Y-114402352D01*
X154200500Y-114197648D01*
X154184661Y-114097648D01*
X154168477Y-113995465D01*
X154135985Y-113895465D01*
X154105220Y-113800781D01*
X154105218Y-113800778D01*
X154105218Y-113800776D01*
X154053396Y-113699071D01*
X154027195Y-113647648D01*
X159049500Y-113647648D01*
X159049500Y-113852351D01*
X159081522Y-114054534D01*
X159144781Y-114249223D01*
X159208691Y-114374653D01*
X159222805Y-114402352D01*
X159237715Y-114431613D01*
X159358028Y-114597213D01*
X159502786Y-114741971D01*
X159644000Y-114844567D01*
X159668390Y-114862287D01*
X159772173Y-114915167D01*
X159850776Y-114955218D01*
X159850778Y-114955218D01*
X159850781Y-114955220D01*
X159955137Y-114989127D01*
X160045465Y-115018477D01*
X160146557Y-115034488D01*
X160247648Y-115050500D01*
X160247649Y-115050500D01*
X160452351Y-115050500D01*
X160452352Y-115050500D01*
X160654534Y-115018477D01*
X160849219Y-114955220D01*
X161031610Y-114862287D01*
X161140268Y-114783343D01*
X161197213Y-114741971D01*
X161197215Y-114741968D01*
X161197219Y-114741966D01*
X161341966Y-114597219D01*
X161341968Y-114597215D01*
X161341971Y-114597213D01*
X161409305Y-114504534D01*
X161462287Y-114431610D01*
X161555220Y-114249219D01*
X161618477Y-114054534D01*
X161650500Y-113852352D01*
X161650500Y-113647648D01*
X161618477Y-113445466D01*
X161618476Y-113445462D01*
X161618476Y-113445461D01*
X161613808Y-113431094D01*
X161602941Y-113397648D01*
X169999500Y-113397648D01*
X169999500Y-113602351D01*
X170031522Y-113804534D01*
X170094781Y-113999223D01*
X170187715Y-114181613D01*
X170308028Y-114347213D01*
X170452786Y-114491971D01*
X170607719Y-114604534D01*
X170618390Y-114612287D01*
X170734607Y-114671503D01*
X170800776Y-114705218D01*
X170800778Y-114705218D01*
X170800781Y-114705220D01*
X170905137Y-114739127D01*
X170995465Y-114768477D01*
X171087418Y-114783041D01*
X171197648Y-114800500D01*
X171197649Y-114800500D01*
X171402351Y-114800500D01*
X171402352Y-114800500D01*
X171604534Y-114768477D01*
X171799219Y-114705220D01*
X171981610Y-114612287D01*
X172074590Y-114544732D01*
X172147213Y-114491971D01*
X172147215Y-114491968D01*
X172147219Y-114491966D01*
X172291966Y-114347219D01*
X172291968Y-114347215D01*
X172291971Y-114347213D01*
X172344732Y-114274590D01*
X172412287Y-114181610D01*
X172505220Y-113999219D01*
X172568477Y-113804534D01*
X172600500Y-113602352D01*
X172600500Y-113397648D01*
X172568477Y-113195466D01*
X172567958Y-113193870D01*
X172519847Y-113045798D01*
X172505220Y-113000781D01*
X172505218Y-113000778D01*
X172505218Y-113000776D01*
X172455286Y-112902781D01*
X172412287Y-112818390D01*
X172381486Y-112775996D01*
X172291971Y-112652786D01*
X172147213Y-112508028D01*
X171981613Y-112387715D01*
X171981612Y-112387714D01*
X171981610Y-112387713D01*
X171876978Y-112334400D01*
X171799223Y-112294781D01*
X171604534Y-112231522D01*
X171429995Y-112203878D01*
X171402352Y-112199500D01*
X171197648Y-112199500D01*
X171173329Y-112203351D01*
X170995465Y-112231522D01*
X170800776Y-112294781D01*
X170618386Y-112387715D01*
X170452786Y-112508028D01*
X170308028Y-112652786D01*
X170187715Y-112818386D01*
X170094781Y-113000776D01*
X170031522Y-113195465D01*
X169999500Y-113397648D01*
X161602941Y-113397648D01*
X161560492Y-113267006D01*
X161555220Y-113250781D01*
X161555218Y-113250778D01*
X161555218Y-113250776D01*
X161483449Y-113109923D01*
X161470553Y-113041254D01*
X161496829Y-112976513D01*
X161553936Y-112936256D01*
X161623741Y-112933264D01*
X161632220Y-112935687D01*
X161767535Y-112979654D01*
X161825465Y-112998477D01*
X161926557Y-113014488D01*
X162027648Y-113030500D01*
X162027649Y-113030500D01*
X162232351Y-113030500D01*
X162232352Y-113030500D01*
X162434534Y-112998477D01*
X162629219Y-112935220D01*
X162811610Y-112842287D01*
X162904590Y-112774732D01*
X162977213Y-112721971D01*
X162977215Y-112721968D01*
X162977219Y-112721966D01*
X163121966Y-112577219D01*
X163121968Y-112577215D01*
X163121971Y-112577213D01*
X163179056Y-112498641D01*
X163242287Y-112411610D01*
X163335220Y-112229219D01*
X163398477Y-112034534D01*
X163430500Y-111832352D01*
X163430500Y-111627648D01*
X163410655Y-111502351D01*
X163398477Y-111425465D01*
X163335218Y-111230776D01*
X163293362Y-111148631D01*
X163242287Y-111048390D01*
X163207493Y-111000500D01*
X163121971Y-110882786D01*
X163036833Y-110797648D01*
X168799500Y-110797648D01*
X168799500Y-111002351D01*
X168831522Y-111204534D01*
X168894781Y-111399223D01*
X168987715Y-111581613D01*
X169108028Y-111747213D01*
X169252786Y-111891971D01*
X169407749Y-112004556D01*
X169418390Y-112012287D01*
X169534607Y-112071503D01*
X169600776Y-112105218D01*
X169600778Y-112105218D01*
X169600781Y-112105220D01*
X169663375Y-112125558D01*
X169795465Y-112168477D01*
X169896557Y-112184488D01*
X169997648Y-112200500D01*
X169997649Y-112200500D01*
X170202351Y-112200500D01*
X170202352Y-112200500D01*
X170404534Y-112168477D01*
X170599219Y-112105220D01*
X170781610Y-112012287D01*
X170913821Y-111916231D01*
X170947213Y-111891971D01*
X170947215Y-111891968D01*
X170947219Y-111891966D01*
X171091966Y-111747219D01*
X171091968Y-111747215D01*
X171091971Y-111747213D01*
X171144732Y-111674590D01*
X171212287Y-111581610D01*
X171305220Y-111399219D01*
X171368477Y-111204534D01*
X171400500Y-111002352D01*
X171400500Y-110797648D01*
X172299500Y-110797648D01*
X172299500Y-111002351D01*
X172331522Y-111204534D01*
X172394781Y-111399223D01*
X172487715Y-111581613D01*
X172608028Y-111747213D01*
X172752786Y-111891971D01*
X172907749Y-112004556D01*
X172918390Y-112012287D01*
X173034607Y-112071503D01*
X173100776Y-112105218D01*
X173100778Y-112105218D01*
X173100781Y-112105220D01*
X173163375Y-112125558D01*
X173295465Y-112168477D01*
X173396557Y-112184488D01*
X173497648Y-112200500D01*
X173497649Y-112200500D01*
X173702350Y-112200500D01*
X173702352Y-112200500D01*
X173756103Y-112191986D01*
X173825394Y-112200940D01*
X173878847Y-112245936D01*
X173899487Y-112312687D01*
X173899500Y-112314459D01*
X173899500Y-112318097D01*
X173936446Y-112551368D01*
X174009433Y-112775996D01*
X174113198Y-112979645D01*
X174116657Y-112986433D01*
X174255483Y-113177510D01*
X174422490Y-113344517D01*
X174613567Y-113483343D01*
X174682343Y-113518386D01*
X174824003Y-113590566D01*
X174824005Y-113590566D01*
X174824008Y-113590568D01*
X174909620Y-113618385D01*
X175048631Y-113663553D01*
X175281903Y-113700500D01*
X175281908Y-113700500D01*
X175518097Y-113700500D01*
X175751368Y-113663553D01*
X175800318Y-113647648D01*
X175975992Y-113590568D01*
X176186433Y-113483343D01*
X176377510Y-113344517D01*
X176544517Y-113177510D01*
X176683343Y-112986433D01*
X176790568Y-112775992D01*
X176863553Y-112551368D01*
X176868317Y-112521288D01*
X176900500Y-112318097D01*
X176900500Y-112081902D01*
X176863553Y-111848631D01*
X176819251Y-111712284D01*
X176790568Y-111624008D01*
X176790566Y-111624005D01*
X176790566Y-111624003D01*
X176728581Y-111502351D01*
X176683343Y-111413567D01*
X176544517Y-111222490D01*
X176377510Y-111055483D01*
X176186433Y-110916657D01*
X176154162Y-110900214D01*
X176076763Y-110860777D01*
X177899500Y-110860777D01*
X177899500Y-112239208D01*
X177899501Y-112239223D01*
X177909904Y-112371413D01*
X177909905Y-112371420D01*
X177964902Y-112589678D01*
X177964903Y-112589681D01*
X178057991Y-112794622D01*
X178057997Y-112794632D01*
X178186174Y-112979645D01*
X178186178Y-112979650D01*
X178186181Y-112979654D01*
X178345346Y-113138819D01*
X178345350Y-113138822D01*
X178345354Y-113138825D01*
X178445243Y-113208028D01*
X178530374Y-113267007D01*
X178735317Y-113360096D01*
X178735321Y-113360097D01*
X178953579Y-113415094D01*
X178953581Y-113415094D01*
X178953588Y-113415096D01*
X179085783Y-113425500D01*
X179914216Y-113425499D01*
X180046412Y-113415096D01*
X180264683Y-113360096D01*
X180469626Y-113267007D01*
X180550722Y-113210822D01*
X180617037Y-113188825D01*
X180677629Y-113202264D01*
X180804685Y-113267002D01*
X180885616Y-113308239D01*
X180885618Y-113308239D01*
X180885621Y-113308241D01*
X181125215Y-113386090D01*
X181374038Y-113425500D01*
X181374039Y-113425500D01*
X181625961Y-113425500D01*
X181625962Y-113425500D01*
X181874785Y-113386090D01*
X182114379Y-113308241D01*
X182338845Y-113193870D01*
X182542656Y-113045793D01*
X182720793Y-112867656D01*
X182868870Y-112663845D01*
X182983241Y-112439379D01*
X183061090Y-112199785D01*
X183100500Y-111950962D01*
X183100500Y-111149038D01*
X183061090Y-110900215D01*
X182983241Y-110660621D01*
X182983239Y-110660618D01*
X182983239Y-110660616D01*
X182928080Y-110552361D01*
X182868870Y-110436155D01*
X182788676Y-110325777D01*
X182720798Y-110232350D01*
X182720794Y-110232345D01*
X182542654Y-110054205D01*
X182542649Y-110054201D01*
X182338848Y-109906132D01*
X182338847Y-109906131D01*
X182338845Y-109906130D01*
X182268747Y-109870413D01*
X182114383Y-109791760D01*
X181874785Y-109713910D01*
X181754010Y-109694781D01*
X181625962Y-109674500D01*
X181374038Y-109674500D01*
X181308344Y-109684905D01*
X181125214Y-109713910D01*
X180885616Y-109791760D01*
X180726088Y-109873045D01*
X180677632Y-109897734D01*
X180608965Y-109910630D01*
X180550723Y-109889177D01*
X180522608Y-109869699D01*
X180469627Y-109832993D01*
X180264681Y-109739903D01*
X180264678Y-109739902D01*
X180046420Y-109684905D01*
X180046413Y-109684904D01*
X180002347Y-109681436D01*
X179914217Y-109674500D01*
X179914215Y-109674500D01*
X179085791Y-109674500D01*
X179085776Y-109674501D01*
X178953586Y-109684904D01*
X178953579Y-109684905D01*
X178735321Y-109739902D01*
X178735318Y-109739903D01*
X178530377Y-109832991D01*
X178530367Y-109832997D01*
X178345354Y-109961174D01*
X178345342Y-109961184D01*
X178186184Y-110120342D01*
X178186174Y-110120354D01*
X178057997Y-110305367D01*
X178057991Y-110305377D01*
X177964903Y-110510318D01*
X177964902Y-110510321D01*
X177909905Y-110728579D01*
X177909904Y-110728586D01*
X177899500Y-110860777D01*
X176076763Y-110860777D01*
X175975996Y-110809433D01*
X175766244Y-110741280D01*
X175708569Y-110701842D01*
X175681371Y-110637483D01*
X175693286Y-110568637D01*
X175740530Y-110517161D01*
X175785162Y-110500876D01*
X175904534Y-110481970D01*
X176099219Y-110418713D01*
X176281610Y-110325780D01*
X176396028Y-110242651D01*
X176447213Y-110205464D01*
X176447215Y-110205461D01*
X176447219Y-110205459D01*
X176591966Y-110060712D01*
X176591968Y-110060708D01*
X176591971Y-110060706D01*
X176650237Y-109980508D01*
X176712287Y-109895103D01*
X176805220Y-109712712D01*
X176868477Y-109518027D01*
X176900500Y-109315845D01*
X176900500Y-109111141D01*
X176868477Y-108908958D01*
X176805218Y-108714269D01*
X176712285Y-108531880D01*
X176687223Y-108497384D01*
X176663744Y-108431578D01*
X176679570Y-108363524D01*
X176729676Y-108314830D01*
X176787542Y-108300500D01*
X176852351Y-108300500D01*
X176852352Y-108300500D01*
X177054534Y-108268477D01*
X177249219Y-108205220D01*
X177431610Y-108112287D01*
X177574773Y-108008274D01*
X177597213Y-107991971D01*
X177597215Y-107991968D01*
X177597219Y-107991966D01*
X177741966Y-107847219D01*
X177741968Y-107847215D01*
X177741971Y-107847213D01*
X177862284Y-107681614D01*
X177862285Y-107681613D01*
X177862287Y-107681610D01*
X177897805Y-107611902D01*
X184749500Y-107611902D01*
X184749500Y-107848097D01*
X184786447Y-108081369D01*
X184786447Y-108081372D01*
X184797441Y-108115206D01*
X184799436Y-108185047D01*
X184798726Y-108187635D01*
X184760114Y-108322582D01*
X184760113Y-108322586D01*
X184754840Y-108381902D01*
X184750424Y-108431578D01*
X184749500Y-108441966D01*
X184749500Y-109558028D01*
X184749501Y-109558034D01*
X184760113Y-109677415D01*
X184816089Y-109873045D01*
X184816090Y-109873048D01*
X184816091Y-109873049D01*
X184910302Y-110053407D01*
X184917539Y-110062282D01*
X185038890Y-110211109D01*
X185077574Y-110242651D01*
X185196593Y-110339698D01*
X185376951Y-110433909D01*
X185572582Y-110489886D01*
X185691963Y-110500500D01*
X186808036Y-110500499D01*
X186927418Y-110489886D01*
X187123049Y-110433909D01*
X187303407Y-110339698D01*
X187461109Y-110211109D01*
X187589698Y-110053407D01*
X187683909Y-109873049D01*
X187739886Y-109677418D01*
X187750500Y-109558037D01*
X187750499Y-108441964D01*
X187739886Y-108322582D01*
X187701272Y-108187633D01*
X187701755Y-108117768D01*
X187702528Y-108115297D01*
X187713553Y-108081368D01*
X187740221Y-107912993D01*
X187750500Y-107848097D01*
X187750500Y-107611902D01*
X187713553Y-107378631D01*
X187671176Y-107248210D01*
X187640568Y-107154008D01*
X187640566Y-107154005D01*
X187640566Y-107154003D01*
X187561842Y-106999500D01*
X187533343Y-106943567D01*
X187394517Y-106752490D01*
X187227510Y-106585483D01*
X187036433Y-106446657D01*
X186980956Y-106418390D01*
X186825996Y-106339433D01*
X186601368Y-106266446D01*
X186368097Y-106229500D01*
X186368092Y-106229500D01*
X186131908Y-106229500D01*
X186131903Y-106229500D01*
X185898631Y-106266446D01*
X185674003Y-106339433D01*
X185463566Y-106446657D01*
X185397330Y-106494781D01*
X185272490Y-106585483D01*
X185272488Y-106585485D01*
X185272487Y-106585485D01*
X185105485Y-106752487D01*
X185105485Y-106752488D01*
X185105483Y-106752490D01*
X185075133Y-106794263D01*
X184966657Y-106943566D01*
X184859433Y-107154003D01*
X184786446Y-107378631D01*
X184749500Y-107611902D01*
X177897805Y-107611902D01*
X177955220Y-107499219D01*
X178018477Y-107304534D01*
X178050500Y-107102352D01*
X178050500Y-106897648D01*
X178038325Y-106820781D01*
X178018477Y-106695465D01*
X177971892Y-106552093D01*
X177955220Y-106500781D01*
X177955218Y-106500778D01*
X177955218Y-106500776D01*
X177914592Y-106421045D01*
X177862287Y-106318390D01*
X177824548Y-106266446D01*
X177741971Y-106152786D01*
X177597213Y-106008028D01*
X177431613Y-105887715D01*
X177431612Y-105887714D01*
X177431610Y-105887713D01*
X177374653Y-105858691D01*
X177249223Y-105794781D01*
X177054534Y-105731522D01*
X176879995Y-105703878D01*
X176852352Y-105699500D01*
X176647648Y-105699500D01*
X176623329Y-105703351D01*
X176445465Y-105731522D01*
X176250776Y-105794781D01*
X176068386Y-105887715D01*
X175902786Y-106008028D01*
X175758028Y-106152786D01*
X175637715Y-106318386D01*
X175544781Y-106500776D01*
X175481522Y-106695465D01*
X175449569Y-106897213D01*
X175449500Y-106897648D01*
X175449500Y-107102352D01*
X175451073Y-107112284D01*
X175481522Y-107304534D01*
X175544781Y-107499223D01*
X175637714Y-107681612D01*
X175662777Y-107716109D01*
X175686256Y-107781915D01*
X175670430Y-107849969D01*
X175620324Y-107898663D01*
X175562458Y-107912993D01*
X175497648Y-107912993D01*
X175473329Y-107916844D01*
X175295465Y-107945015D01*
X175100776Y-108008274D01*
X174918386Y-108101208D01*
X174752786Y-108221521D01*
X174608028Y-108366279D01*
X174487715Y-108531879D01*
X174394781Y-108714269D01*
X174331522Y-108908958D01*
X174299500Y-109111141D01*
X174299500Y-109315844D01*
X174331523Y-109518028D01*
X174331523Y-109518031D01*
X174353928Y-109586985D01*
X174355923Y-109656826D01*
X174319843Y-109716659D01*
X174257142Y-109747487D01*
X174187727Y-109739522D01*
X174179702Y-109735788D01*
X174099223Y-109694781D01*
X173904534Y-109631522D01*
X173729995Y-109603878D01*
X173702352Y-109599500D01*
X173497648Y-109599500D01*
X173473329Y-109603351D01*
X173295465Y-109631522D01*
X173100776Y-109694781D01*
X172918386Y-109787715D01*
X172752786Y-109908028D01*
X172608028Y-110052786D01*
X172487715Y-110218386D01*
X172394781Y-110400776D01*
X172331522Y-110595465D01*
X172299500Y-110797648D01*
X171400500Y-110797648D01*
X171389562Y-110728588D01*
X171368477Y-110595465D01*
X171324956Y-110461522D01*
X171305220Y-110400781D01*
X171305218Y-110400778D01*
X171305218Y-110400776D01*
X171256609Y-110305377D01*
X171212287Y-110218390D01*
X171202892Y-110205459D01*
X171091971Y-110052786D01*
X170947213Y-109908028D01*
X170781613Y-109787715D01*
X170781612Y-109787714D01*
X170781610Y-109787713D01*
X170713052Y-109752781D01*
X170599223Y-109694781D01*
X170404534Y-109631522D01*
X170229995Y-109603878D01*
X170202352Y-109599500D01*
X169997648Y-109599500D01*
X169973329Y-109603351D01*
X169795465Y-109631522D01*
X169600776Y-109694781D01*
X169418386Y-109787715D01*
X169252786Y-109908028D01*
X169108028Y-110052786D01*
X168987715Y-110218386D01*
X168894781Y-110400776D01*
X168831522Y-110595465D01*
X168799500Y-110797648D01*
X163036833Y-110797648D01*
X162977213Y-110738028D01*
X162811613Y-110617715D01*
X162811612Y-110617714D01*
X162811610Y-110617713D01*
X162744222Y-110583377D01*
X162629223Y-110524781D01*
X162434534Y-110461522D01*
X162259995Y-110433878D01*
X162232352Y-110429500D01*
X162027648Y-110429500D01*
X162003329Y-110433351D01*
X161825465Y-110461522D01*
X161630776Y-110524781D01*
X161448386Y-110617715D01*
X161282786Y-110738028D01*
X161138028Y-110882786D01*
X161017715Y-111048386D01*
X160924781Y-111230776D01*
X160861522Y-111425465D01*
X160829500Y-111627648D01*
X160829500Y-111832351D01*
X160861522Y-112034534D01*
X160924781Y-112229223D01*
X160996550Y-112370076D01*
X161009446Y-112438745D01*
X160983170Y-112503486D01*
X160926063Y-112543743D01*
X160856258Y-112546735D01*
X160847761Y-112544306D01*
X160773065Y-112520036D01*
X160654534Y-112481522D01*
X160479995Y-112453878D01*
X160452352Y-112449500D01*
X160247648Y-112449500D01*
X160223329Y-112453351D01*
X160045465Y-112481522D01*
X159850776Y-112544781D01*
X159668386Y-112637715D01*
X159502786Y-112758028D01*
X159358028Y-112902786D01*
X159237715Y-113068386D01*
X159144781Y-113250776D01*
X159081522Y-113445465D01*
X159049500Y-113647648D01*
X154027195Y-113647648D01*
X154012287Y-113618390D01*
X154012285Y-113618387D01*
X154012284Y-113618385D01*
X153891971Y-113452786D01*
X153747213Y-113308028D01*
X153581613Y-113187715D01*
X153581612Y-113187714D01*
X153581610Y-113187713D01*
X153524653Y-113158691D01*
X153399223Y-113094781D01*
X153204534Y-113031522D01*
X153029995Y-113003878D01*
X153002352Y-112999500D01*
X152797648Y-112999500D01*
X152773329Y-113003351D01*
X152595465Y-113031522D01*
X152400776Y-113094781D01*
X152218386Y-113187715D01*
X152052786Y-113308028D01*
X151908028Y-113452786D01*
X151787715Y-113618386D01*
X151694781Y-113800776D01*
X151631522Y-113995465D01*
X151599500Y-114197648D01*
X146733000Y-114197648D01*
X146733000Y-114097648D01*
X146700977Y-113895466D01*
X146696027Y-113880233D01*
X146637718Y-113700776D01*
X146604003Y-113634607D01*
X146544787Y-113518390D01*
X146519324Y-113483343D01*
X146424471Y-113352786D01*
X146279713Y-113208028D01*
X146114113Y-113087715D01*
X146114112Y-113087714D01*
X146114110Y-113087713D01*
X146057153Y-113058691D01*
X145931723Y-112994781D01*
X145737034Y-112931522D01*
X145562495Y-112903878D01*
X145534852Y-112899500D01*
X145330148Y-112899500D01*
X145309433Y-112902781D01*
X145127965Y-112931522D01*
X144933276Y-112994781D01*
X144750890Y-113087712D01*
X144663325Y-113151332D01*
X144597518Y-113174811D01*
X144529464Y-113158985D01*
X144486365Y-113117393D01*
X144486207Y-113117509D01*
X144485554Y-113116610D01*
X144484707Y-113115793D01*
X144483344Y-113113569D01*
X144464560Y-113087715D01*
X144344517Y-112922490D01*
X144177510Y-112755483D01*
X143995969Y-112623585D01*
X143953304Y-112568255D01*
X143947325Y-112498641D01*
X143979931Y-112436846D01*
X144030533Y-112405338D01*
X144075992Y-112390568D01*
X144286433Y-112283343D01*
X144471289Y-112149036D01*
X144537091Y-112125558D01*
X144582484Y-112131424D01*
X144727260Y-112178464D01*
X144771200Y-112192742D01*
X144820182Y-112200500D01*
X144973383Y-112224765D01*
X144973384Y-112224765D01*
X145178086Y-112224765D01*
X145178087Y-112224765D01*
X145380269Y-112192742D01*
X145574954Y-112129485D01*
X145757345Y-112036552D01*
X145850325Y-111968997D01*
X145922948Y-111916236D01*
X145922950Y-111916233D01*
X145922954Y-111916231D01*
X146067701Y-111771484D01*
X146067703Y-111771480D01*
X146067706Y-111771478D01*
X146120467Y-111698855D01*
X146188022Y-111605875D01*
X146280955Y-111423484D01*
X146344212Y-111228799D01*
X146376235Y-111026617D01*
X146376235Y-110821913D01*
X146353617Y-110679112D01*
X146344212Y-110619730D01*
X146312616Y-110522488D01*
X146280955Y-110425046D01*
X146280953Y-110425043D01*
X146280953Y-110425041D01*
X146230375Y-110325777D01*
X146188022Y-110242655D01*
X146165103Y-110211109D01*
X146067706Y-110077051D01*
X145922954Y-109932299D01*
X145903804Y-109918386D01*
X145890258Y-109908544D01*
X145847593Y-109853215D01*
X145841614Y-109783602D01*
X145874219Y-109721806D01*
X145890253Y-109707912D01*
X145977510Y-109644517D01*
X146144517Y-109477510D01*
X146283343Y-109286433D01*
X146390568Y-109075992D01*
X146463553Y-108851368D01*
X146471566Y-108800776D01*
X146500500Y-108618097D01*
X146500500Y-108381902D01*
X146463553Y-108148631D01*
X146416733Y-108004535D01*
X146390568Y-107924008D01*
X146390566Y-107924005D01*
X146390566Y-107924003D01*
X146328581Y-107802351D01*
X146283343Y-107713567D01*
X146144517Y-107522490D01*
X145977510Y-107355483D01*
X145786433Y-107216657D01*
X145575992Y-107109432D01*
X145483477Y-107079372D01*
X145351368Y-107036446D01*
X145118097Y-106999500D01*
X145118092Y-106999500D01*
X144881908Y-106999500D01*
X144881903Y-106999500D01*
X144648631Y-107036446D01*
X144424003Y-107109433D01*
X144213566Y-107216657D01*
X144142243Y-107268477D01*
X144022490Y-107355483D01*
X144022488Y-107355485D01*
X144022487Y-107355485D01*
X143855485Y-107522487D01*
X143855485Y-107522488D01*
X143855483Y-107522490D01*
X143826936Y-107561782D01*
X143716657Y-107713566D01*
X143609433Y-107924003D01*
X143536446Y-108148631D01*
X143499500Y-108381902D01*
X143499500Y-108618097D01*
X143536446Y-108851368D01*
X143609433Y-109075996D01*
X143716656Y-109286432D01*
X143728725Y-109303043D01*
X143752204Y-109368850D01*
X143736378Y-109436903D01*
X143686272Y-109485598D01*
X143622964Y-109498662D01*
X143622964Y-109499500D01*
X143618907Y-109499500D01*
X143618684Y-109499546D01*
X143618099Y-109499500D01*
X143618092Y-109499500D01*
X143381908Y-109499500D01*
X143381903Y-109499500D01*
X143148631Y-109536446D01*
X142924003Y-109609433D01*
X142713566Y-109716657D01*
X142654864Y-109759307D01*
X142522490Y-109855483D01*
X142522488Y-109855485D01*
X142522487Y-109855485D01*
X142355482Y-110022490D01*
X142296119Y-110104196D01*
X142240789Y-110146861D01*
X142171175Y-110152839D01*
X142139508Y-110141794D01*
X142075999Y-110109434D01*
X141851368Y-110036446D01*
X141618097Y-109999500D01*
X141618092Y-109999500D01*
X141381908Y-109999500D01*
X141381903Y-109999500D01*
X141148631Y-110036446D01*
X140924003Y-110109433D01*
X140713566Y-110216657D01*
X140615767Y-110287713D01*
X140522490Y-110355483D01*
X140522488Y-110355485D01*
X140522487Y-110355485D01*
X140355485Y-110522487D01*
X140355485Y-110522488D01*
X140355483Y-110522490D01*
X140321955Y-110568637D01*
X140216657Y-110713566D01*
X140109433Y-110924003D01*
X140036446Y-111148631D01*
X139999500Y-111381902D01*
X139999500Y-111618097D01*
X140036446Y-111851368D01*
X140109433Y-112075996D01*
X140172872Y-112200500D01*
X140196676Y-112247219D01*
X140201032Y-112255767D01*
X140213928Y-112324436D01*
X140187652Y-112389177D01*
X140178229Y-112399743D01*
X140055482Y-112522490D01*
X139916657Y-112713566D01*
X139809433Y-112924003D01*
X139736446Y-113148631D01*
X139699500Y-113381902D01*
X127798006Y-113381902D01*
X127777238Y-113250781D01*
X127768477Y-113195465D01*
X127719847Y-113045798D01*
X127705220Y-113000781D01*
X127705218Y-113000778D01*
X127705218Y-113000776D01*
X127655286Y-112902781D01*
X127612287Y-112818390D01*
X127581486Y-112775996D01*
X127491971Y-112652786D01*
X127347213Y-112508028D01*
X127181613Y-112387715D01*
X127181612Y-112387714D01*
X127181610Y-112387713D01*
X127076978Y-112334400D01*
X126999223Y-112294781D01*
X126804534Y-112231522D01*
X126629995Y-112203878D01*
X126602352Y-112199500D01*
X126397648Y-112199500D01*
X126373329Y-112203351D01*
X126195465Y-112231522D01*
X126000776Y-112294781D01*
X125818386Y-112387715D01*
X125652786Y-112508028D01*
X125508028Y-112652786D01*
X125387715Y-112818386D01*
X125294781Y-113000776D01*
X125231522Y-113195465D01*
X125199500Y-113397648D01*
X110000500Y-113397648D01*
X110000500Y-110497648D01*
X124599500Y-110497648D01*
X124599500Y-110702351D01*
X124631522Y-110904534D01*
X124694781Y-111099223D01*
X124787715Y-111281613D01*
X124908028Y-111447213D01*
X125052786Y-111591971D01*
X125207719Y-111704534D01*
X125218390Y-111712287D01*
X125334559Y-111771478D01*
X125400776Y-111805218D01*
X125400778Y-111805218D01*
X125400781Y-111805220D01*
X125484282Y-111832351D01*
X125595465Y-111868477D01*
X125696557Y-111884488D01*
X125797648Y-111900500D01*
X125797649Y-111900500D01*
X126002351Y-111900500D01*
X126002352Y-111900500D01*
X126204534Y-111868477D01*
X126399219Y-111805220D01*
X126581610Y-111712287D01*
X126703117Y-111624008D01*
X126747213Y-111591971D01*
X126747215Y-111591968D01*
X126747219Y-111591966D01*
X126891966Y-111447219D01*
X126891968Y-111447215D01*
X126891971Y-111447213D01*
X126944732Y-111374590D01*
X127012287Y-111281610D01*
X127105220Y-111099219D01*
X127168477Y-110904534D01*
X127200500Y-110702352D01*
X127200500Y-110497648D01*
X127186980Y-110412287D01*
X127168477Y-110295465D01*
X127122907Y-110155215D01*
X127105220Y-110100781D01*
X127105218Y-110100778D01*
X127105218Y-110100776D01*
X127056529Y-110005220D01*
X127012287Y-109918390D01*
X126979345Y-109873049D01*
X126891971Y-109752786D01*
X126747213Y-109608028D01*
X126581613Y-109487715D01*
X126581612Y-109487714D01*
X126581610Y-109487713D01*
X126524653Y-109458691D01*
X126399223Y-109394781D01*
X126204534Y-109331522D01*
X126024721Y-109303043D01*
X126002352Y-109299500D01*
X125797648Y-109299500D01*
X125775279Y-109303043D01*
X125595465Y-109331522D01*
X125400776Y-109394781D01*
X125218386Y-109487715D01*
X125052786Y-109608028D01*
X124908028Y-109752786D01*
X124787715Y-109918386D01*
X124694781Y-110100776D01*
X124631522Y-110295465D01*
X124599500Y-110497648D01*
X110000500Y-110497648D01*
X110000500Y-97785777D01*
X110924500Y-97785777D01*
X110924500Y-98614208D01*
X110924501Y-98614223D01*
X110934904Y-98746413D01*
X110934905Y-98746420D01*
X110989902Y-98964678D01*
X110989903Y-98964681D01*
X111082993Y-99169627D01*
X111103690Y-99199500D01*
X111125875Y-99231523D01*
X111139177Y-99250722D01*
X111161174Y-99317039D01*
X111147734Y-99377632D01*
X111138997Y-99394781D01*
X111041760Y-99585616D01*
X110963910Y-99825214D01*
X110963910Y-99825215D01*
X110924500Y-100074038D01*
X110924500Y-100325962D01*
X110951693Y-100497648D01*
X110963910Y-100574785D01*
X111041760Y-100814383D01*
X111113171Y-100954534D01*
X111137535Y-101002351D01*
X111156132Y-101038848D01*
X111220261Y-101127115D01*
X111243741Y-101192921D01*
X111227915Y-101260975D01*
X111220261Y-101272885D01*
X111156132Y-101361151D01*
X111041760Y-101585616D01*
X110963910Y-101825214D01*
X110938499Y-101985651D01*
X110924500Y-102074038D01*
X110924500Y-102325962D01*
X110944586Y-102452781D01*
X110963910Y-102574785D01*
X111041760Y-102814383D01*
X111120413Y-102968747D01*
X111134027Y-102995466D01*
X111156132Y-103038848D01*
X111220261Y-103127115D01*
X111243741Y-103192921D01*
X111227915Y-103260975D01*
X111220261Y-103272885D01*
X111156132Y-103361151D01*
X111041760Y-103585616D01*
X110963910Y-103825214D01*
X110924500Y-104074038D01*
X110924500Y-104325961D01*
X110963910Y-104574785D01*
X111041760Y-104814383D01*
X111091574Y-104912147D01*
X111147693Y-105022287D01*
X111156132Y-105038848D01*
X111220261Y-105127115D01*
X111243741Y-105192921D01*
X111227915Y-105260975D01*
X111220261Y-105272885D01*
X111156132Y-105361151D01*
X111041760Y-105585616D01*
X110972265Y-105799500D01*
X110963910Y-105825215D01*
X110924500Y-106074038D01*
X110924500Y-106325962D01*
X110937388Y-106407335D01*
X110963910Y-106574785D01*
X111041760Y-106814383D01*
X111107583Y-106943566D01*
X111154908Y-107036447D01*
X111156132Y-107038848D01*
X111304201Y-107242649D01*
X111304205Y-107242654D01*
X111482345Y-107420794D01*
X111482350Y-107420798D01*
X111648683Y-107541645D01*
X111686155Y-107568870D01*
X111795402Y-107624534D01*
X111910616Y-107683239D01*
X111910618Y-107683239D01*
X111910621Y-107683241D01*
X112150215Y-107761090D01*
X112399038Y-107800500D01*
X112399039Y-107800500D01*
X113200961Y-107800500D01*
X113200962Y-107800500D01*
X113449785Y-107761090D01*
X113689379Y-107683241D01*
X113913845Y-107568870D01*
X114117656Y-107420793D01*
X114295793Y-107242656D01*
X114443870Y-107038845D01*
X114558241Y-106814379D01*
X114636090Y-106574785D01*
X114675500Y-106325962D01*
X114675500Y-106074038D01*
X114647562Y-105897648D01*
X133199500Y-105897648D01*
X133199500Y-106102352D01*
X133201469Y-106114781D01*
X133231522Y-106304534D01*
X133294781Y-106499223D01*
X133358691Y-106624653D01*
X133383023Y-106672406D01*
X133387715Y-106681613D01*
X133508028Y-106847213D01*
X133652786Y-106991971D01*
X133807749Y-107104556D01*
X133818390Y-107112287D01*
X133934607Y-107171503D01*
X134000776Y-107205218D01*
X134000778Y-107205218D01*
X134000781Y-107205220D01*
X134105137Y-107239127D01*
X134195465Y-107268477D01*
X134296557Y-107284488D01*
X134397648Y-107300500D01*
X134397649Y-107300500D01*
X134602351Y-107300500D01*
X134602352Y-107300500D01*
X134804534Y-107268477D01*
X134999219Y-107205220D01*
X135181610Y-107112287D01*
X135181612Y-107112285D01*
X135181615Y-107112284D01*
X135185207Y-107110083D01*
X135252652Y-107091836D01*
X135314793Y-107110083D01*
X135318384Y-107112284D01*
X135500776Y-107205218D01*
X135500778Y-107205218D01*
X135500781Y-107205220D01*
X135605137Y-107239127D01*
X135695465Y-107268477D01*
X135796557Y-107284488D01*
X135897648Y-107300500D01*
X135897649Y-107300500D01*
X136102351Y-107300500D01*
X136102352Y-107300500D01*
X136304534Y-107268477D01*
X136499219Y-107205220D01*
X136681610Y-107112287D01*
X136774590Y-107044732D01*
X136847213Y-106991971D01*
X136847215Y-106991968D01*
X136847219Y-106991966D01*
X136991966Y-106847219D01*
X136991968Y-106847215D01*
X136991971Y-106847213D01*
X137060790Y-106752490D01*
X137112287Y-106681610D01*
X137205220Y-106499219D01*
X137268477Y-106304534D01*
X137300500Y-106102352D01*
X137300500Y-105947648D01*
X141619500Y-105947648D01*
X141619500Y-106152351D01*
X141651522Y-106354534D01*
X141714781Y-106549223D01*
X141741052Y-106600781D01*
X141795700Y-106708034D01*
X141807715Y-106731613D01*
X141928028Y-106897213D01*
X142072786Y-107041971D01*
X142169566Y-107112284D01*
X142238390Y-107162287D01*
X142317022Y-107202352D01*
X142420776Y-107255218D01*
X142420778Y-107255218D01*
X142420781Y-107255220D01*
X142525137Y-107289127D01*
X142615465Y-107318477D01*
X142716557Y-107334488D01*
X142817648Y-107350500D01*
X142817649Y-107350500D01*
X143022351Y-107350500D01*
X143022352Y-107350500D01*
X143224534Y-107318477D01*
X143419219Y-107255220D01*
X143601610Y-107162287D01*
X143738820Y-107062599D01*
X143767213Y-107041971D01*
X143767215Y-107041968D01*
X143767219Y-107041966D01*
X143811537Y-106997648D01*
X147299500Y-106997648D01*
X147299500Y-107202351D01*
X147331522Y-107404534D01*
X147394781Y-107599223D01*
X147487715Y-107781613D01*
X147608028Y-107947213D01*
X147752786Y-108091971D01*
X147900399Y-108199216D01*
X147918390Y-108212287D01*
X148028669Y-108268477D01*
X148100776Y-108305218D01*
X148100778Y-108305218D01*
X148100781Y-108305220D01*
X148205137Y-108339127D01*
X148295465Y-108368477D01*
X148396557Y-108384488D01*
X148497648Y-108400500D01*
X148497649Y-108400500D01*
X148702350Y-108400500D01*
X148702352Y-108400500D01*
X148797987Y-108385352D01*
X148867276Y-108394306D01*
X148920729Y-108439302D01*
X148941369Y-108506053D01*
X148922645Y-108573367D01*
X148890268Y-108608143D01*
X148752782Y-108708032D01*
X148608028Y-108852786D01*
X148487715Y-109018386D01*
X148394781Y-109200776D01*
X148331522Y-109395465D01*
X148299500Y-109597648D01*
X148299500Y-109802351D01*
X148331522Y-110004534D01*
X148394781Y-110199223D01*
X148487715Y-110381613D01*
X148608028Y-110547213D01*
X148752786Y-110691971D01*
X148857823Y-110768283D01*
X148918390Y-110812287D01*
X149010468Y-110859203D01*
X149100776Y-110905218D01*
X149100778Y-110905218D01*
X149100781Y-110905220D01*
X149158605Y-110924008D01*
X149295465Y-110968477D01*
X149396557Y-110984488D01*
X149497648Y-111000500D01*
X149497649Y-111000500D01*
X149702351Y-111000500D01*
X149702352Y-111000500D01*
X149904534Y-110968477D01*
X150099219Y-110905220D01*
X150281610Y-110812287D01*
X150432593Y-110702591D01*
X150498399Y-110679112D01*
X150566453Y-110694937D01*
X150615148Y-110745043D01*
X150629023Y-110813521D01*
X150615964Y-110859203D01*
X150594782Y-110900776D01*
X150594781Y-110900778D01*
X150594780Y-110900781D01*
X150593338Y-110905220D01*
X150531522Y-111095465D01*
X150499500Y-111297648D01*
X150499500Y-111502351D01*
X150531522Y-111704534D01*
X150594781Y-111899223D01*
X150652391Y-112012287D01*
X150684850Y-112075992D01*
X150687715Y-112081613D01*
X150808028Y-112247213D01*
X150952786Y-112391971D01*
X151083052Y-112486613D01*
X151118390Y-112512287D01*
X151195091Y-112551368D01*
X151300776Y-112605218D01*
X151300778Y-112605218D01*
X151300781Y-112605220D01*
X151357303Y-112623585D01*
X151495465Y-112668477D01*
X151596557Y-112684488D01*
X151697648Y-112700500D01*
X151697649Y-112700500D01*
X151902351Y-112700500D01*
X151902352Y-112700500D01*
X152104534Y-112668477D01*
X152299219Y-112605220D01*
X152451788Y-112527481D01*
X152520456Y-112514586D01*
X152546397Y-112520035D01*
X152595466Y-112535979D01*
X152797648Y-112568002D01*
X152797649Y-112568002D01*
X153002351Y-112568002D01*
X153002352Y-112568002D01*
X153204534Y-112535979D01*
X153399219Y-112472722D01*
X153581610Y-112379789D01*
X153677495Y-112310125D01*
X153747213Y-112259473D01*
X153747215Y-112259470D01*
X153747219Y-112259468D01*
X153891966Y-112114721D01*
X153891968Y-112114717D01*
X153891971Y-112114715D01*
X153966390Y-112012284D01*
X154012287Y-111949112D01*
X154105220Y-111766721D01*
X154168477Y-111572036D01*
X154200500Y-111369854D01*
X154200500Y-111165150D01*
X154189463Y-111095465D01*
X154168477Y-110962967D01*
X154135273Y-110860777D01*
X154105220Y-110768283D01*
X154105217Y-110768279D01*
X154105217Y-110768276D01*
X154083690Y-110726028D01*
X154070793Y-110657359D01*
X154097069Y-110592618D01*
X154154175Y-110552361D01*
X154155798Y-110551820D01*
X154299219Y-110505220D01*
X154481610Y-110412287D01*
X154600682Y-110325777D01*
X154647213Y-110291971D01*
X154647215Y-110291968D01*
X154647219Y-110291966D01*
X154791966Y-110147219D01*
X154791968Y-110147215D01*
X154791971Y-110147213D01*
X154853676Y-110062282D01*
X154912287Y-109981610D01*
X155005220Y-109799219D01*
X155068477Y-109604534D01*
X155100500Y-109402352D01*
X155100500Y-109197648D01*
X155068477Y-108995466D01*
X155005220Y-108800781D01*
X155005218Y-108800778D01*
X155005218Y-108800776D01*
X154957962Y-108708032D01*
X154912287Y-108618390D01*
X154879576Y-108573367D01*
X154791971Y-108452786D01*
X154647213Y-108308028D01*
X154481613Y-108187715D01*
X154481612Y-108187714D01*
X154481610Y-108187713D01*
X154333578Y-108112287D01*
X154294878Y-108092568D01*
X154295519Y-108091309D01*
X154247820Y-108053712D01*
X154181844Y-107962903D01*
X154037097Y-107818156D01*
X154037091Y-107818150D01*
X153871491Y-107697837D01*
X153871490Y-107697836D01*
X153871488Y-107697835D01*
X153814531Y-107668813D01*
X153689101Y-107604903D01*
X153494412Y-107541644D01*
X153319873Y-107514000D01*
X153292230Y-107509622D01*
X153087526Y-107509622D01*
X153047089Y-107516026D01*
X152885340Y-107541645D01*
X152839188Y-107556641D01*
X152827109Y-107556986D01*
X152816015Y-107561782D01*
X152792831Y-107557965D01*
X152769347Y-107558636D01*
X152758997Y-107552395D01*
X152747074Y-107550432D01*
X152729634Y-107534687D01*
X152709515Y-107522555D01*
X152702894Y-107510547D01*
X152695212Y-107503612D01*
X152687372Y-107482397D01*
X152681207Y-107471215D01*
X152679450Y-107464748D01*
X152668477Y-107395466D01*
X152610700Y-107217648D01*
X159199500Y-107217648D01*
X159199500Y-107422351D01*
X159231522Y-107624534D01*
X159294781Y-107819223D01*
X159358691Y-107944653D01*
X159382799Y-107991966D01*
X159387715Y-108001613D01*
X159508028Y-108167213D01*
X159652786Y-108311971D01*
X159781785Y-108405692D01*
X159818390Y-108432287D01*
X159934607Y-108491503D01*
X160000776Y-108525218D01*
X160000778Y-108525218D01*
X160000781Y-108525220D01*
X160105137Y-108559127D01*
X160195465Y-108588477D01*
X160296557Y-108604488D01*
X160397648Y-108620500D01*
X160397649Y-108620500D01*
X160602351Y-108620500D01*
X160602352Y-108620500D01*
X160804534Y-108588477D01*
X160999219Y-108525220D01*
X161181610Y-108432287D01*
X161332602Y-108322586D01*
X161347213Y-108311971D01*
X161347215Y-108311968D01*
X161347219Y-108311966D01*
X161491966Y-108167219D01*
X161491968Y-108167215D01*
X161491971Y-108167213D01*
X161554344Y-108081362D01*
X161612287Y-108001610D01*
X161705220Y-107819219D01*
X161768477Y-107624534D01*
X161800500Y-107422352D01*
X161800500Y-107217648D01*
X161790420Y-107154008D01*
X161768477Y-107015465D01*
X161751392Y-106962883D01*
X161730196Y-106897648D01*
X169999500Y-106897648D01*
X169999500Y-107102352D01*
X170001073Y-107112284D01*
X170031522Y-107304534D01*
X170094781Y-107499223D01*
X170187715Y-107681613D01*
X170308028Y-107847213D01*
X170452786Y-107991971D01*
X170589516Y-108091309D01*
X170618390Y-108112287D01*
X170726188Y-108167213D01*
X170800776Y-108205218D01*
X170800778Y-108205218D01*
X170800781Y-108205220D01*
X170905137Y-108239127D01*
X170995465Y-108268477D01*
X171087008Y-108282976D01*
X171197648Y-108300500D01*
X171197649Y-108300500D01*
X171402351Y-108300500D01*
X171402352Y-108300500D01*
X171604534Y-108268477D01*
X171799219Y-108205220D01*
X171981610Y-108112287D01*
X172124773Y-108008274D01*
X172147213Y-107991971D01*
X172147215Y-107991968D01*
X172147219Y-107991966D01*
X172291966Y-107847219D01*
X172291968Y-107847215D01*
X172291971Y-107847213D01*
X172354542Y-107761090D01*
X172412287Y-107681610D01*
X172505220Y-107499219D01*
X172568477Y-107304534D01*
X172600500Y-107102352D01*
X172600500Y-106897648D01*
X172588325Y-106820781D01*
X172568477Y-106695465D01*
X172521892Y-106552093D01*
X172505220Y-106500781D01*
X172505218Y-106500778D01*
X172505218Y-106500776D01*
X172464592Y-106421045D01*
X172412287Y-106318390D01*
X172374548Y-106266446D01*
X172291971Y-106152786D01*
X172147213Y-106008028D01*
X171981613Y-105887715D01*
X171981612Y-105887714D01*
X171981610Y-105887713D01*
X171924653Y-105858691D01*
X171799223Y-105794781D01*
X171604534Y-105731522D01*
X171429995Y-105703878D01*
X171402352Y-105699500D01*
X171197648Y-105699500D01*
X171173329Y-105703351D01*
X170995465Y-105731522D01*
X170800776Y-105794781D01*
X170618386Y-105887715D01*
X170452786Y-106008028D01*
X170308028Y-106152786D01*
X170187715Y-106318386D01*
X170094781Y-106500776D01*
X170031522Y-106695465D01*
X169999569Y-106897213D01*
X169999500Y-106897648D01*
X161730196Y-106897648D01*
X161705220Y-106820781D01*
X161705218Y-106820778D01*
X161705218Y-106820776D01*
X161670422Y-106752487D01*
X161612287Y-106638390D01*
X161575470Y-106587715D01*
X161491971Y-106472786D01*
X161347213Y-106328028D01*
X161181613Y-106207715D01*
X161181612Y-106207714D01*
X161181610Y-106207713D01*
X161124653Y-106178691D01*
X160999223Y-106114781D01*
X160804534Y-106051522D01*
X160629995Y-106023878D01*
X160602352Y-106019500D01*
X160397648Y-106019500D01*
X160373329Y-106023351D01*
X160195465Y-106051522D01*
X160000776Y-106114781D01*
X159818386Y-106207715D01*
X159652786Y-106328028D01*
X159508028Y-106472786D01*
X159387715Y-106638386D01*
X159294781Y-106820776D01*
X159231522Y-107015465D01*
X159199500Y-107217648D01*
X152610700Y-107217648D01*
X152605220Y-107200781D01*
X152512287Y-107018390D01*
X152498563Y-106999500D01*
X152488086Y-106985079D01*
X152464606Y-106919273D01*
X152480432Y-106851219D01*
X152530538Y-106802524D01*
X152550081Y-106794264D01*
X152639097Y-106765342D01*
X152821488Y-106672409D01*
X152920083Y-106600776D01*
X152987091Y-106552093D01*
X152987093Y-106552090D01*
X152987097Y-106552088D01*
X153131844Y-106407341D01*
X153131846Y-106407337D01*
X153131849Y-106407335D01*
X153190969Y-106325962D01*
X153252165Y-106241732D01*
X153345098Y-106059341D01*
X153408355Y-105864656D01*
X153440378Y-105662474D01*
X153440378Y-105500000D01*
X157650000Y-105500000D01*
X162650000Y-105500000D01*
X162650000Y-99063836D01*
X162933312Y-99063836D01*
X162933312Y-99268539D01*
X162965334Y-99470722D01*
X163028593Y-99665411D01*
X163066807Y-99740409D01*
X163119537Y-99843897D01*
X163121527Y-99847801D01*
X163241840Y-100013401D01*
X163386598Y-100158159D01*
X163469501Y-100218390D01*
X163552202Y-100278475D01*
X163668419Y-100337691D01*
X163734588Y-100371406D01*
X163734590Y-100371406D01*
X163734593Y-100371408D01*
X163824994Y-100400781D01*
X163929277Y-100434665D01*
X164030369Y-100450676D01*
X164131460Y-100466688D01*
X164131461Y-100466688D01*
X164336163Y-100466688D01*
X164336164Y-100466688D01*
X164538346Y-100434665D01*
X164733031Y-100371408D01*
X164915422Y-100278475D01*
X165029675Y-100195466D01*
X165081025Y-100158159D01*
X165081027Y-100158156D01*
X165081031Y-100158154D01*
X165225778Y-100013407D01*
X165346099Y-99847798D01*
X165386653Y-99768204D01*
X165397102Y-99757140D01*
X165403425Y-99743297D01*
X165420605Y-99732255D01*
X165434628Y-99717409D01*
X165450307Y-99713167D01*
X165462203Y-99705523D01*
X165497138Y-99700500D01*
X165685540Y-99700500D01*
X165752579Y-99720185D01*
X165798334Y-99772989D01*
X165808278Y-99842147D01*
X165808013Y-99843897D01*
X165799500Y-99897647D01*
X165799500Y-100102351D01*
X165831522Y-100304534D01*
X165894781Y-100499223D01*
X165952391Y-100612287D01*
X165984152Y-100674622D01*
X165987715Y-100681613D01*
X166108028Y-100847213D01*
X166252786Y-100991971D01*
X166380784Y-101084965D01*
X166418390Y-101112287D01*
X166534607Y-101171503D01*
X166600776Y-101205218D01*
X166600778Y-101205218D01*
X166600781Y-101205220D01*
X166673793Y-101228943D01*
X166795465Y-101268477D01*
X166878383Y-101281610D01*
X166997648Y-101300500D01*
X166997649Y-101300500D01*
X167202351Y-101300500D01*
X167202352Y-101300500D01*
X167404534Y-101268477D01*
X167599219Y-101205220D01*
X167781610Y-101112287D01*
X167932924Y-101002352D01*
X167947213Y-100991971D01*
X167947215Y-100991968D01*
X167947219Y-100991966D01*
X168091966Y-100847219D01*
X168091968Y-100847215D01*
X168091971Y-100847213D01*
X168195133Y-100705220D01*
X168212287Y-100681610D01*
X168305220Y-100499219D01*
X168368477Y-100304534D01*
X168383803Y-100207770D01*
X169509622Y-100207770D01*
X169509622Y-100412473D01*
X169541644Y-100614656D01*
X169604903Y-100809345D01*
X169697837Y-100991735D01*
X169818150Y-101157335D01*
X169962908Y-101302093D01*
X170096593Y-101399219D01*
X170128512Y-101422409D01*
X170238777Y-101478592D01*
X170310898Y-101515340D01*
X170310900Y-101515340D01*
X170310903Y-101515342D01*
X170415259Y-101549249D01*
X170505587Y-101578599D01*
X170590014Y-101591971D01*
X170707770Y-101610622D01*
X170707771Y-101610622D01*
X170912473Y-101610622D01*
X170912474Y-101610622D01*
X171114656Y-101578599D01*
X171309341Y-101515342D01*
X171491732Y-101422409D01*
X171616703Y-101331613D01*
X171657335Y-101302093D01*
X171657337Y-101302090D01*
X171657341Y-101302088D01*
X171802088Y-101157341D01*
X171802090Y-101157337D01*
X171802093Y-101157335D01*
X171878051Y-101052786D01*
X171922409Y-100991732D01*
X172015342Y-100809341D01*
X172078599Y-100614656D01*
X172081000Y-100599500D01*
X172097132Y-100497648D01*
X177214500Y-100497648D01*
X177214500Y-100702351D01*
X177246522Y-100904534D01*
X177309781Y-101099223D01*
X177363438Y-101204529D01*
X177401716Y-101279654D01*
X177402715Y-101281613D01*
X177523028Y-101447213D01*
X177667786Y-101591971D01*
X177800611Y-101688472D01*
X177833390Y-101712287D01*
X177933942Y-101763521D01*
X178015776Y-101805218D01*
X178015778Y-101805218D01*
X178015781Y-101805220D01*
X178112337Y-101836593D01*
X178210465Y-101868477D01*
X178311557Y-101884488D01*
X178412648Y-101900500D01*
X178412649Y-101900500D01*
X178617350Y-101900500D01*
X178617352Y-101900500D01*
X178663534Y-101893185D01*
X178732827Y-101902139D01*
X178786279Y-101947135D01*
X178806919Y-102013887D01*
X178788195Y-102081200D01*
X178739227Y-102126143D01*
X178618386Y-102187715D01*
X178452786Y-102308028D01*
X178308028Y-102452786D01*
X178187715Y-102618386D01*
X178094781Y-102800776D01*
X178031522Y-102995465D01*
X177999500Y-103197648D01*
X177999500Y-103402351D01*
X178031522Y-103604534D01*
X178094781Y-103799223D01*
X178130393Y-103869114D01*
X178181401Y-103969223D01*
X178187715Y-103981613D01*
X178308028Y-104147213D01*
X178452786Y-104291971D01*
X178591457Y-104392719D01*
X178618390Y-104412287D01*
X178715900Y-104461971D01*
X178800776Y-104505218D01*
X178800778Y-104505218D01*
X178800781Y-104505220D01*
X178905137Y-104539127D01*
X178995465Y-104568477D01*
X179096557Y-104584488D01*
X179197648Y-104600500D01*
X179197649Y-104600500D01*
X179402351Y-104600500D01*
X179402352Y-104600500D01*
X179604534Y-104568477D01*
X179799219Y-104505220D01*
X179981610Y-104412287D01*
X180100429Y-104325961D01*
X180147213Y-104291971D01*
X180147215Y-104291968D01*
X180147219Y-104291966D01*
X180291966Y-104147219D01*
X180291968Y-104147215D01*
X180291971Y-104147213D01*
X180346640Y-104071966D01*
X180412287Y-103981610D01*
X180505220Y-103799219D01*
X180568477Y-103604534D01*
X180600500Y-103402352D01*
X180600500Y-103197648D01*
X180599751Y-103192921D01*
X180568477Y-102995465D01*
X180531924Y-102882967D01*
X180505220Y-102800781D01*
X180505218Y-102800778D01*
X180505218Y-102800776D01*
X180454265Y-102700776D01*
X180412287Y-102618390D01*
X180384959Y-102580776D01*
X180291971Y-102452786D01*
X180147213Y-102308028D01*
X179981613Y-102187715D01*
X179981612Y-102187714D01*
X179981610Y-102187713D01*
X179924653Y-102158691D01*
X179799223Y-102094781D01*
X179604534Y-102031522D01*
X179429995Y-102003878D01*
X179402352Y-101999500D01*
X179197648Y-101999500D01*
X179156801Y-102005969D01*
X179151463Y-102006815D01*
X179082170Y-101997859D01*
X179028718Y-101952862D01*
X179008080Y-101886110D01*
X179026806Y-101818796D01*
X179075771Y-101773857D01*
X179196610Y-101712287D01*
X179289042Y-101645132D01*
X179362213Y-101591971D01*
X179362215Y-101591968D01*
X179362219Y-101591966D01*
X179506966Y-101447219D01*
X179506968Y-101447215D01*
X179506971Y-101447213D01*
X179569495Y-101361154D01*
X179627287Y-101281610D01*
X179720220Y-101099219D01*
X179783477Y-100904534D01*
X179815500Y-100702352D01*
X179815500Y-100497648D01*
X179783477Y-100295466D01*
X179777956Y-100278475D01*
X179738863Y-100158159D01*
X179720220Y-100100781D01*
X179720218Y-100100778D01*
X179720218Y-100100776D01*
X179686503Y-100034607D01*
X179627287Y-99918390D01*
X179612217Y-99897648D01*
X179506971Y-99752786D01*
X179362213Y-99608028D01*
X179196613Y-99487715D01*
X179196612Y-99487714D01*
X179196610Y-99487713D01*
X179139653Y-99458691D01*
X179014223Y-99394781D01*
X178819534Y-99331522D01*
X178644995Y-99303878D01*
X178617352Y-99299500D01*
X178412648Y-99299500D01*
X178388329Y-99303351D01*
X178210465Y-99331522D01*
X178015776Y-99394781D01*
X177833386Y-99487715D01*
X177667786Y-99608028D01*
X177523028Y-99752786D01*
X177402715Y-99918386D01*
X177309781Y-100100776D01*
X177246522Y-100295465D01*
X177214500Y-100497648D01*
X172097132Y-100497648D01*
X172100976Y-100473378D01*
X172100976Y-100473377D01*
X172110622Y-100412474D01*
X172110622Y-100207770D01*
X172078599Y-100005587D01*
X172019992Y-99825214D01*
X172015342Y-99810903D01*
X172015340Y-99810900D01*
X172015340Y-99810898D01*
X171949049Y-99680795D01*
X171936153Y-99612125D01*
X171962429Y-99547385D01*
X172019536Y-99507128D01*
X172059534Y-99500500D01*
X172202351Y-99500500D01*
X172202352Y-99500500D01*
X172404534Y-99468477D01*
X172599219Y-99405220D01*
X172781610Y-99312287D01*
X172892773Y-99231523D01*
X172947213Y-99191971D01*
X172947215Y-99191968D01*
X172947219Y-99191966D01*
X173091966Y-99047219D01*
X173091968Y-99047215D01*
X173091971Y-99047213D01*
X173207851Y-98887715D01*
X173212287Y-98881610D01*
X173305220Y-98699219D01*
X173368477Y-98504534D01*
X173400500Y-98302352D01*
X173400500Y-98097648D01*
X173368833Y-97897711D01*
X173368477Y-97895465D01*
X173332837Y-97785777D01*
X173305220Y-97700781D01*
X173305218Y-97700778D01*
X173305218Y-97700776D01*
X173212287Y-97518390D01*
X173145156Y-97425991D01*
X173121677Y-97360184D01*
X173137503Y-97292130D01*
X173187609Y-97243436D01*
X173245475Y-97229106D01*
X173332775Y-97229106D01*
X173332776Y-97229106D01*
X173534958Y-97197083D01*
X173729643Y-97133826D01*
X173912034Y-97040893D01*
X174011002Y-96968989D01*
X174077637Y-96920577D01*
X174077639Y-96920574D01*
X174077643Y-96920572D01*
X174222390Y-96775825D01*
X174222392Y-96775821D01*
X174222395Y-96775819D01*
X174302979Y-96664903D01*
X174342711Y-96610216D01*
X174435644Y-96427825D01*
X174498901Y-96233140D01*
X174510858Y-96157648D01*
X180199500Y-96157648D01*
X180199500Y-96362351D01*
X180231522Y-96564534D01*
X180294781Y-96759223D01*
X180346481Y-96860688D01*
X180382573Y-96931523D01*
X180387715Y-96941613D01*
X180508028Y-97107213D01*
X180652786Y-97251971D01*
X180807749Y-97364556D01*
X180818390Y-97372287D01*
X180911096Y-97419523D01*
X181000776Y-97465218D01*
X181000778Y-97465218D01*
X181000781Y-97465220D01*
X181103840Y-97498706D01*
X181195465Y-97528477D01*
X181296557Y-97544488D01*
X181397648Y-97560500D01*
X181397649Y-97560500D01*
X181602351Y-97560500D01*
X181602352Y-97560500D01*
X181804534Y-97528477D01*
X181999219Y-97465220D01*
X182181610Y-97372287D01*
X182274865Y-97304534D01*
X182347213Y-97251971D01*
X182347215Y-97251968D01*
X182347219Y-97251966D01*
X182491966Y-97107219D01*
X182491968Y-97107215D01*
X182491971Y-97107213D01*
X182553996Y-97021841D01*
X182612287Y-96941610D01*
X182705220Y-96759219D01*
X182768477Y-96564534D01*
X182800500Y-96362352D01*
X182800500Y-96157648D01*
X182768477Y-95955466D01*
X182705220Y-95760781D01*
X182705218Y-95760778D01*
X182705218Y-95760776D01*
X182655680Y-95663553D01*
X182612287Y-95578390D01*
X182604556Y-95567749D01*
X182491971Y-95412786D01*
X182347213Y-95268028D01*
X182181613Y-95147715D01*
X182181612Y-95147714D01*
X182181610Y-95147713D01*
X182089501Y-95100781D01*
X181999223Y-95054781D01*
X181804534Y-94991522D01*
X181629995Y-94963878D01*
X181602352Y-94959500D01*
X181397648Y-94959500D01*
X181373329Y-94963351D01*
X181195465Y-94991522D01*
X181000776Y-95054781D01*
X180818386Y-95147715D01*
X180652786Y-95268028D01*
X180508028Y-95412786D01*
X180387715Y-95578386D01*
X180294781Y-95760776D01*
X180231522Y-95955465D01*
X180199500Y-96157648D01*
X174510858Y-96157648D01*
X174530924Y-96030958D01*
X174530924Y-95826254D01*
X174505154Y-95663553D01*
X174498901Y-95624071D01*
X174443425Y-95453335D01*
X174435644Y-95429387D01*
X174435642Y-95429384D01*
X174435642Y-95429382D01*
X174401927Y-95363213D01*
X174342711Y-95246996D01*
X174302730Y-95191966D01*
X174222395Y-95081392D01*
X174077637Y-94936634D01*
X173912037Y-94816321D01*
X173912036Y-94816320D01*
X173912034Y-94816319D01*
X173832888Y-94775992D01*
X173729647Y-94723387D01*
X173534958Y-94660128D01*
X173360419Y-94632484D01*
X173332776Y-94628106D01*
X173128072Y-94628106D01*
X173103753Y-94631957D01*
X172925889Y-94660128D01*
X172731200Y-94723387D01*
X172548810Y-94816321D01*
X172383210Y-94936634D01*
X172238452Y-95081392D01*
X172118139Y-95246992D01*
X172025205Y-95429382D01*
X171961946Y-95624071D01*
X171929924Y-95826254D01*
X171929924Y-96030957D01*
X171961946Y-96233140D01*
X172025205Y-96427829D01*
X172118136Y-96610215D01*
X172185268Y-96702615D01*
X172208747Y-96768422D01*
X172192921Y-96836476D01*
X172142815Y-96885170D01*
X172084949Y-96899500D01*
X171997648Y-96899500D01*
X171973329Y-96903351D01*
X171795465Y-96931522D01*
X171600776Y-96994781D01*
X171418386Y-97087715D01*
X171252786Y-97208028D01*
X171108028Y-97352786D01*
X170987715Y-97518386D01*
X170894781Y-97700776D01*
X170831522Y-97895465D01*
X170799500Y-98097648D01*
X170799500Y-98302351D01*
X170831522Y-98504534D01*
X170894781Y-98699223D01*
X170961073Y-98829327D01*
X170973969Y-98897997D01*
X170947693Y-98962737D01*
X170890586Y-99002994D01*
X170850588Y-99009622D01*
X170707770Y-99009622D01*
X170683451Y-99013473D01*
X170505587Y-99041644D01*
X170310898Y-99104903D01*
X170128508Y-99197837D01*
X169962908Y-99318150D01*
X169818150Y-99462908D01*
X169697837Y-99628508D01*
X169604903Y-99810898D01*
X169541644Y-100005587D01*
X169509622Y-100207770D01*
X168383803Y-100207770D01*
X168400500Y-100102352D01*
X168400500Y-99897648D01*
X168376053Y-99743297D01*
X168368477Y-99695465D01*
X168332786Y-99585621D01*
X168305220Y-99500781D01*
X168305218Y-99500778D01*
X168305218Y-99500776D01*
X168251210Y-99394781D01*
X168212287Y-99318390D01*
X168195134Y-99294781D01*
X168091971Y-99152786D01*
X167947213Y-99008028D01*
X167781613Y-98887715D01*
X167781612Y-98887714D01*
X167781610Y-98887713D01*
X167724653Y-98858691D01*
X167599223Y-98794781D01*
X167404534Y-98731522D01*
X167229995Y-98703878D01*
X167202352Y-98699500D01*
X167014460Y-98699500D01*
X166947421Y-98679815D01*
X166901666Y-98627011D01*
X166891722Y-98557853D01*
X166891987Y-98556103D01*
X166900500Y-98502352D01*
X166900500Y-98297648D01*
X166868477Y-98095465D01*
X166805218Y-97900776D01*
X166771503Y-97834607D01*
X166712287Y-97718390D01*
X166685565Y-97681610D01*
X166591971Y-97552786D01*
X166447213Y-97408028D01*
X166281613Y-97287715D01*
X166281612Y-97287714D01*
X166281610Y-97287713D01*
X166169062Y-97230367D01*
X166148730Y-97220007D01*
X166097934Y-97172032D01*
X166081139Y-97104211D01*
X166103677Y-97038076D01*
X166117344Y-97021841D01*
X166144405Y-96994780D01*
X166191966Y-96947219D01*
X166191968Y-96947215D01*
X166191971Y-96947213D01*
X166312284Y-96781614D01*
X166312285Y-96781613D01*
X166312287Y-96781610D01*
X166398497Y-96612412D01*
X166446470Y-96561618D01*
X166514291Y-96544823D01*
X166580426Y-96567360D01*
X166623878Y-96622075D01*
X166629555Y-96639763D01*
X166630289Y-96642821D01*
X166691117Y-96830029D01*
X166750826Y-96947213D01*
X166780476Y-97005405D01*
X166896172Y-97164646D01*
X167035354Y-97303828D01*
X167194595Y-97419524D01*
X167225591Y-97435317D01*
X167369970Y-97508882D01*
X167369972Y-97508882D01*
X167369975Y-97508884D01*
X167430276Y-97528477D01*
X167557173Y-97569709D01*
X167751578Y-97600500D01*
X167751583Y-97600500D01*
X167948422Y-97600500D01*
X168142826Y-97569709D01*
X168171168Y-97560500D01*
X168311685Y-97514842D01*
X168381522Y-97512847D01*
X168388275Y-97514830D01*
X168505091Y-97552786D01*
X168557173Y-97569709D01*
X168751578Y-97600500D01*
X168751583Y-97600500D01*
X168948422Y-97600500D01*
X169142826Y-97569709D01*
X169171168Y-97560500D01*
X169311685Y-97514842D01*
X169381522Y-97512847D01*
X169388275Y-97514830D01*
X169505091Y-97552786D01*
X169557173Y-97569709D01*
X169751578Y-97600500D01*
X169751583Y-97600500D01*
X169948422Y-97600500D01*
X170142826Y-97569709D01*
X170194909Y-97552786D01*
X170330025Y-97508884D01*
X170505405Y-97419524D01*
X170664646Y-97303828D01*
X170803828Y-97164646D01*
X170919524Y-97005405D01*
X171008884Y-96830025D01*
X171069709Y-96642826D01*
X171074546Y-96612284D01*
X171100500Y-96448422D01*
X171100500Y-96251577D01*
X171069709Y-96057173D01*
X171050878Y-95999219D01*
X171014842Y-95888314D01*
X171012847Y-95818478D01*
X171014830Y-95811724D01*
X171069709Y-95642826D01*
X171072679Y-95624072D01*
X171100500Y-95448422D01*
X171100500Y-95251577D01*
X171069709Y-95057173D01*
X171059140Y-95024649D01*
X171014842Y-94888314D01*
X171012847Y-94818478D01*
X171014830Y-94811724D01*
X171069709Y-94642826D01*
X171074873Y-94610221D01*
X171100500Y-94448422D01*
X171100500Y-94251577D01*
X171069709Y-94057173D01*
X171020011Y-93904220D01*
X171008884Y-93869975D01*
X171008882Y-93869972D01*
X171008882Y-93869970D01*
X170927136Y-93709535D01*
X170919524Y-93694595D01*
X170803828Y-93535354D01*
X170664646Y-93396172D01*
X170535923Y-93302649D01*
X173385800Y-93302649D01*
X173385800Y-93507352D01*
X173417822Y-93709535D01*
X173481081Y-93904224D01*
X173574015Y-94086614D01*
X173694328Y-94252214D01*
X173839086Y-94396972D01*
X173963983Y-94487713D01*
X174004690Y-94517288D01*
X174071576Y-94551368D01*
X174187076Y-94610219D01*
X174187078Y-94610219D01*
X174187081Y-94610221D01*
X174287429Y-94642826D01*
X174381765Y-94673478D01*
X174482857Y-94689489D01*
X174583948Y-94705501D01*
X174583949Y-94705501D01*
X174788651Y-94705501D01*
X174788652Y-94705501D01*
X174990834Y-94673478D01*
X175185519Y-94610221D01*
X175367910Y-94517288D01*
X175463673Y-94447713D01*
X175533513Y-94396972D01*
X175533515Y-94396969D01*
X175533519Y-94396967D01*
X175678266Y-94252220D01*
X175678268Y-94252216D01*
X175678271Y-94252214D01*
X175779932Y-94112287D01*
X175798587Y-94086611D01*
X175891520Y-93904220D01*
X175954777Y-93709535D01*
X175986800Y-93507353D01*
X175986800Y-93302649D01*
X175983288Y-93280476D01*
X175954777Y-93100466D01*
X175919889Y-92993094D01*
X175891520Y-92905782D01*
X175891518Y-92905779D01*
X175891518Y-92905777D01*
X175842469Y-92809515D01*
X175798587Y-92723391D01*
X175781229Y-92699500D01*
X175678271Y-92557787D01*
X175533517Y-92413033D01*
X175519837Y-92403094D01*
X175388465Y-92307648D01*
X176789500Y-92307648D01*
X176789500Y-92512352D01*
X176793582Y-92538125D01*
X176821522Y-92714534D01*
X176884781Y-92909223D01*
X176935126Y-93008028D01*
X176959306Y-93055485D01*
X176977715Y-93091613D01*
X177098028Y-93257213D01*
X177242786Y-93401971D01*
X177387835Y-93507353D01*
X177408390Y-93522287D01*
X177524607Y-93581503D01*
X177590776Y-93615218D01*
X177590778Y-93615218D01*
X177590781Y-93615220D01*
X177695137Y-93649127D01*
X177785465Y-93678477D01*
X177886557Y-93694488D01*
X177987648Y-93710500D01*
X177987649Y-93710500D01*
X178192351Y-93710500D01*
X178192352Y-93710500D01*
X178394534Y-93678477D01*
X178589219Y-93615220D01*
X178771610Y-93522287D01*
X178874373Y-93447626D01*
X178937213Y-93401971D01*
X178937215Y-93401968D01*
X178937219Y-93401966D01*
X179081966Y-93257219D01*
X179081968Y-93257215D01*
X179081971Y-93257213D01*
X179157844Y-93152781D01*
X179202287Y-93091610D01*
X179295220Y-92909219D01*
X179358477Y-92714534D01*
X179379740Y-92580285D01*
X179409668Y-92517153D01*
X179468979Y-92480221D01*
X179538842Y-92481219D01*
X179540531Y-92481754D01*
X179615465Y-92506102D01*
X179654926Y-92512352D01*
X179817648Y-92538125D01*
X179817649Y-92538125D01*
X180022351Y-92538125D01*
X180022352Y-92538125D01*
X180224534Y-92506102D01*
X180419219Y-92442845D01*
X180601610Y-92349912D01*
X180719124Y-92264534D01*
X180767213Y-92229596D01*
X180767215Y-92229593D01*
X180767219Y-92229591D01*
X180911966Y-92084844D01*
X180911968Y-92084840D01*
X180911971Y-92084838D01*
X180973608Y-92000000D01*
X181032287Y-91919235D01*
X181125220Y-91736844D01*
X181188477Y-91542159D01*
X181220500Y-91339977D01*
X181220500Y-91135273D01*
X181209740Y-91067337D01*
X181188477Y-90933090D01*
X181144215Y-90796866D01*
X181125220Y-90738406D01*
X181125218Y-90738403D01*
X181125218Y-90738401D01*
X181085015Y-90659500D01*
X181032287Y-90556015D01*
X181007930Y-90522490D01*
X180911971Y-90390411D01*
X180767213Y-90245653D01*
X180601613Y-90125340D01*
X180601612Y-90125339D01*
X180601610Y-90125338D01*
X180544653Y-90096316D01*
X180419223Y-90032406D01*
X180224534Y-89969147D01*
X180049995Y-89941503D01*
X180022352Y-89937125D01*
X179817648Y-89937125D01*
X179793329Y-89940976D01*
X179615465Y-89969147D01*
X179420776Y-90032406D01*
X179238386Y-90125340D01*
X179072786Y-90245653D01*
X178928028Y-90390411D01*
X178807715Y-90556011D01*
X178714781Y-90738401D01*
X178651522Y-90933090D01*
X178630260Y-91067337D01*
X178600331Y-91130472D01*
X178541019Y-91167403D01*
X178471156Y-91166405D01*
X178469469Y-91165870D01*
X178394537Y-91141523D01*
X178242897Y-91117505D01*
X178192352Y-91109500D01*
X177987648Y-91109500D01*
X177966933Y-91112781D01*
X177785465Y-91141522D01*
X177590776Y-91204781D01*
X177408386Y-91297715D01*
X177242786Y-91418028D01*
X177098028Y-91562786D01*
X176977715Y-91728386D01*
X176884781Y-91910776D01*
X176821522Y-92105465D01*
X176791865Y-92292714D01*
X176789500Y-92307648D01*
X175388465Y-92307648D01*
X175367909Y-92292713D01*
X175185523Y-92199782D01*
X174990834Y-92136523D01*
X174816295Y-92108879D01*
X174788652Y-92104501D01*
X174583948Y-92104501D01*
X174559629Y-92108352D01*
X174381765Y-92136523D01*
X174187076Y-92199782D01*
X174004686Y-92292716D01*
X173839086Y-92413029D01*
X173694328Y-92557787D01*
X173574015Y-92723387D01*
X173481081Y-92905777D01*
X173417822Y-93100466D01*
X173385800Y-93302649D01*
X170535923Y-93302649D01*
X170505405Y-93280476D01*
X170330029Y-93191117D01*
X170142826Y-93130290D01*
X169948422Y-93099500D01*
X169948417Y-93099500D01*
X169751583Y-93099500D01*
X169751578Y-93099500D01*
X169557172Y-93130291D01*
X169557169Y-93130291D01*
X169388318Y-93185155D01*
X169318477Y-93187150D01*
X169311682Y-93185155D01*
X169142828Y-93130291D01*
X168948422Y-93099500D01*
X168948417Y-93099500D01*
X168751583Y-93099500D01*
X168751578Y-93099500D01*
X168557172Y-93130291D01*
X168557169Y-93130291D01*
X168388318Y-93185155D01*
X168318477Y-93187150D01*
X168311682Y-93185155D01*
X168142828Y-93130291D01*
X167948422Y-93099500D01*
X167948417Y-93099500D01*
X167751583Y-93099500D01*
X167751578Y-93099500D01*
X167557173Y-93130290D01*
X167369970Y-93191117D01*
X167194594Y-93280476D01*
X167142411Y-93318390D01*
X167035354Y-93396172D01*
X167035352Y-93396174D01*
X167035351Y-93396174D01*
X166896174Y-93535351D01*
X166896174Y-93535352D01*
X166896172Y-93535354D01*
X166846485Y-93603741D01*
X166780476Y-93694594D01*
X166691117Y-93869970D01*
X166630290Y-94057173D01*
X166599500Y-94251577D01*
X166599500Y-94448422D01*
X166630291Y-94642827D01*
X166630291Y-94642830D01*
X166685155Y-94811682D01*
X166687150Y-94881523D01*
X166685155Y-94888318D01*
X166630291Y-95057169D01*
X166630291Y-95057172D01*
X166599500Y-95251577D01*
X166599500Y-95448420D01*
X166599676Y-95449533D01*
X166599620Y-95449959D01*
X166599882Y-95453281D01*
X166599184Y-95453335D01*
X166590713Y-95518825D01*
X166545711Y-95572272D01*
X166478957Y-95592905D01*
X166411645Y-95574172D01*
X166366716Y-95525213D01*
X166312287Y-95418390D01*
X166312285Y-95418387D01*
X166312284Y-95418385D01*
X166191971Y-95252786D01*
X166047213Y-95108028D01*
X165950223Y-95037562D01*
X165907557Y-94982233D01*
X165901578Y-94912619D01*
X165912621Y-94880953D01*
X166005220Y-94699219D01*
X166068477Y-94504534D01*
X166100500Y-94302352D01*
X166100500Y-94097648D01*
X166068477Y-93895466D01*
X166060194Y-93869975D01*
X166005218Y-93700776D01*
X165957998Y-93608104D01*
X165912287Y-93518390D01*
X165912285Y-93518387D01*
X165911219Y-93516295D01*
X165898323Y-93447626D01*
X165911219Y-93403705D01*
X165912285Y-93401612D01*
X165912287Y-93401610D01*
X166005220Y-93219219D01*
X166068477Y-93024534D01*
X166100500Y-92822352D01*
X166100500Y-92617648D01*
X166084583Y-92517153D01*
X166068477Y-92415465D01*
X166028592Y-92292713D01*
X166005220Y-92220781D01*
X166005218Y-92220778D01*
X166005218Y-92220776D01*
X165945972Y-92104501D01*
X165912287Y-92038390D01*
X165890228Y-92008028D01*
X165791971Y-91872786D01*
X165647213Y-91728028D01*
X165481613Y-91607715D01*
X165481612Y-91607714D01*
X165481610Y-91607713D01*
X165393436Y-91562786D01*
X165299223Y-91514781D01*
X165104534Y-91451522D01*
X164929995Y-91423878D01*
X164902352Y-91419500D01*
X164697648Y-91419500D01*
X164673329Y-91423351D01*
X164495465Y-91451522D01*
X164300776Y-91514781D01*
X164118386Y-91607715D01*
X163952786Y-91728028D01*
X163808028Y-91872786D01*
X163687715Y-92038386D01*
X163594781Y-92220776D01*
X163531522Y-92415465D01*
X163499500Y-92617648D01*
X163499500Y-92822351D01*
X163531522Y-93024534D01*
X163594781Y-93219223D01*
X163688780Y-93403705D01*
X163701676Y-93472374D01*
X163688780Y-93516295D01*
X163594781Y-93700776D01*
X163531522Y-93895465D01*
X163499500Y-94097648D01*
X163499500Y-94302351D01*
X163531522Y-94504534D01*
X163594781Y-94699223D01*
X163655499Y-94818386D01*
X163687376Y-94880949D01*
X163687715Y-94881613D01*
X163808028Y-95047213D01*
X163952784Y-95191969D01*
X164017056Y-95238664D01*
X164049776Y-95262436D01*
X164092443Y-95317766D01*
X164098423Y-95387379D01*
X164087377Y-95419050D01*
X163994781Y-95600776D01*
X163931522Y-95795465D01*
X163899500Y-95997648D01*
X163899500Y-96202351D01*
X163931522Y-96404534D01*
X163994781Y-96599223D01*
X164052391Y-96712287D01*
X164084765Y-96775825D01*
X164087715Y-96781613D01*
X164208028Y-96947213D01*
X164352786Y-97091971D01*
X164518388Y-97212286D01*
X164518390Y-97212287D01*
X164651269Y-97279992D01*
X164702066Y-97327966D01*
X164718861Y-97395787D01*
X164696324Y-97461922D01*
X164682657Y-97478158D01*
X164608027Y-97552788D01*
X164487715Y-97718386D01*
X164447158Y-97797983D01*
X164399183Y-97848779D01*
X164336673Y-97865688D01*
X164336164Y-97865688D01*
X164131460Y-97865688D01*
X164107141Y-97869539D01*
X163929277Y-97897710D01*
X163734588Y-97960969D01*
X163552198Y-98053903D01*
X163386598Y-98174216D01*
X163241840Y-98318974D01*
X163121527Y-98484574D01*
X163028593Y-98666964D01*
X162965334Y-98861653D01*
X162933312Y-99063836D01*
X162650000Y-99063836D01*
X162650000Y-92000000D01*
X157650000Y-92000000D01*
X157650000Y-105500000D01*
X153440378Y-105500000D01*
X153440378Y-105457770D01*
X153426221Y-105368386D01*
X153408355Y-105255587D01*
X153383300Y-105178477D01*
X153345098Y-105060903D01*
X153252165Y-104878512D01*
X153227658Y-104844781D01*
X153131849Y-104712908D01*
X152987091Y-104568150D01*
X152821491Y-104447837D01*
X152821490Y-104447836D01*
X152821488Y-104447835D01*
X152751721Y-104412287D01*
X152639101Y-104354903D01*
X152444412Y-104291644D01*
X152242227Y-104259621D01*
X152239652Y-104259418D01*
X152239293Y-104259508D01*
X152238845Y-104259355D01*
X152237367Y-104259239D01*
X152237396Y-104258861D01*
X152208640Y-104249062D01*
X152177563Y-104239937D01*
X152175761Y-104237858D01*
X152173158Y-104236971D01*
X152153013Y-104211605D01*
X152131808Y-104187133D01*
X152131416Y-104184410D01*
X152129706Y-104182257D01*
X152126473Y-104150031D01*
X152121864Y-104117975D01*
X152122922Y-104114636D01*
X152122732Y-104112736D01*
X152134117Y-104079328D01*
X152150480Y-104047213D01*
X152177612Y-103993962D01*
X152225584Y-103943168D01*
X152249775Y-103932328D01*
X152383031Y-103889032D01*
X152565422Y-103796099D01*
X152658402Y-103728544D01*
X152731025Y-103675783D01*
X152731027Y-103675780D01*
X152731031Y-103675778D01*
X152875778Y-103531031D01*
X152875780Y-103531027D01*
X152875783Y-103531025D01*
X152947472Y-103432352D01*
X152996099Y-103365422D01*
X153089032Y-103183031D01*
X153152289Y-102988346D01*
X153184312Y-102786164D01*
X153184312Y-102581460D01*
X153152289Y-102379278D01*
X153144357Y-102354869D01*
X153142363Y-102285029D01*
X153178443Y-102225196D01*
X153241144Y-102194368D01*
X153242869Y-102194082D01*
X153404534Y-102168477D01*
X153599219Y-102105220D01*
X153781610Y-102012287D01*
X153892773Y-101931523D01*
X153947213Y-101891971D01*
X153947215Y-101891968D01*
X153947219Y-101891966D01*
X154091966Y-101747219D01*
X154091968Y-101747215D01*
X154091971Y-101747213D01*
X154166411Y-101644753D01*
X154212287Y-101581610D01*
X154305220Y-101399219D01*
X154368477Y-101204534D01*
X154400500Y-101002352D01*
X154400500Y-100797648D01*
X154372954Y-100623730D01*
X154368477Y-100595465D01*
X154326634Y-100466688D01*
X154305220Y-100400781D01*
X154305218Y-100400778D01*
X154305218Y-100400776D01*
X154267097Y-100325961D01*
X154212287Y-100218390D01*
X154168527Y-100158159D01*
X154091971Y-100052786D01*
X153947213Y-99908028D01*
X153781613Y-99787715D01*
X153781612Y-99787714D01*
X153781610Y-99787713D01*
X153688771Y-99740409D01*
X153599223Y-99694781D01*
X153404534Y-99631522D01*
X153229995Y-99603878D01*
X153202352Y-99599500D01*
X152997648Y-99599500D01*
X152973329Y-99603351D01*
X152795465Y-99631522D01*
X152600776Y-99694781D01*
X152418386Y-99787715D01*
X152252786Y-99908028D01*
X152108028Y-100052786D01*
X151987715Y-100218386D01*
X151894781Y-100400776D01*
X151831522Y-100595465D01*
X151814139Y-100705220D01*
X151799500Y-100797648D01*
X151799500Y-101002352D01*
X151807487Y-101052781D01*
X151829683Y-101192921D01*
X151831523Y-101204534D01*
X151836024Y-101218386D01*
X151839454Y-101228943D01*
X151841448Y-101298785D01*
X151805366Y-101358617D01*
X151742664Y-101389443D01*
X151740921Y-101389732D01*
X151579276Y-101415335D01*
X151384588Y-101478593D01*
X151202198Y-101571527D01*
X151036598Y-101691840D01*
X150891840Y-101836598D01*
X150771527Y-102002198D01*
X150691200Y-102159847D01*
X150643225Y-102210643D01*
X150619034Y-102221483D01*
X150485776Y-102264781D01*
X150303386Y-102357715D01*
X150137786Y-102478028D01*
X149993028Y-102622786D01*
X149872715Y-102788386D01*
X149779781Y-102970776D01*
X149716522Y-103165465D01*
X149684500Y-103367648D01*
X149684500Y-103572351D01*
X149716522Y-103774534D01*
X149779781Y-103969223D01*
X149801757Y-104012352D01*
X149871908Y-104150031D01*
X149872715Y-104151613D01*
X149993028Y-104317213D01*
X150137786Y-104461971D01*
X150238607Y-104535220D01*
X150303390Y-104582287D01*
X150398624Y-104630811D01*
X150485776Y-104675218D01*
X150485778Y-104675218D01*
X150485781Y-104675220D01*
X150509892Y-104683054D01*
X150680465Y-104738477D01*
X150747860Y-104749151D01*
X150882648Y-104770500D01*
X150882650Y-104770500D01*
X150887511Y-104770883D01*
X150887376Y-104772585D01*
X150947315Y-104790185D01*
X150993070Y-104842989D01*
X151003014Y-104912147D01*
X150990761Y-104950794D01*
X150934658Y-105060903D01*
X150909274Y-105139026D01*
X150871400Y-105255587D01*
X150839378Y-105457770D01*
X150839378Y-105662473D01*
X150871400Y-105864656D01*
X150934659Y-106059345D01*
X151027590Y-106241731D01*
X151051792Y-106275042D01*
X151075271Y-106340849D01*
X151059445Y-106408903D01*
X151009339Y-106457597D01*
X150989792Y-106465858D01*
X150900777Y-106494781D01*
X150718386Y-106587715D01*
X150552786Y-106708028D01*
X150408028Y-106852786D01*
X150287715Y-107018386D01*
X150194781Y-107200776D01*
X150131522Y-107395465D01*
X150099500Y-107597648D01*
X150099500Y-107802351D01*
X150131523Y-108004535D01*
X150131523Y-108004538D01*
X150194778Y-108199216D01*
X150203824Y-108216969D01*
X150209488Y-108247133D01*
X150217288Y-108276805D01*
X150216220Y-108282976D01*
X150216720Y-108285638D01*
X150211270Y-108311582D01*
X150185048Y-108392286D01*
X150145611Y-108449961D01*
X150081252Y-108477160D01*
X150028798Y-108471899D01*
X150010456Y-108465939D01*
X149904534Y-108431522D01*
X149729995Y-108403878D01*
X149702352Y-108399500D01*
X149497648Y-108399500D01*
X149402015Y-108414647D01*
X149332722Y-108405692D01*
X149279270Y-108360696D01*
X149258630Y-108293945D01*
X149277355Y-108226631D01*
X149309732Y-108191855D01*
X149447219Y-108091966D01*
X149591966Y-107947219D01*
X149591968Y-107947215D01*
X149591971Y-107947213D01*
X149644732Y-107874590D01*
X149712287Y-107781610D01*
X149805220Y-107599219D01*
X149868477Y-107404534D01*
X149900500Y-107202352D01*
X149900500Y-106997648D01*
X149868477Y-106795466D01*
X149858688Y-106765340D01*
X149817440Y-106638390D01*
X149805220Y-106600781D01*
X149805218Y-106600778D01*
X149805218Y-106600776D01*
X149754265Y-106500776D01*
X149712287Y-106418390D01*
X149704556Y-106407749D01*
X149591971Y-106252786D01*
X149447213Y-106108028D01*
X149281613Y-105987715D01*
X149281612Y-105987714D01*
X149281610Y-105987713D01*
X149202978Y-105947648D01*
X149099223Y-105894781D01*
X148904534Y-105831522D01*
X148729995Y-105803878D01*
X148702352Y-105799500D01*
X148497648Y-105799500D01*
X148473329Y-105803351D01*
X148295465Y-105831522D01*
X148100776Y-105894781D01*
X147918386Y-105987715D01*
X147752786Y-106108028D01*
X147608028Y-106252786D01*
X147487715Y-106418386D01*
X147394781Y-106600776D01*
X147331522Y-106795465D01*
X147299500Y-106997648D01*
X143811537Y-106997648D01*
X143911966Y-106897219D01*
X143911968Y-106897215D01*
X143911971Y-106897213D01*
X144007779Y-106765342D01*
X144032287Y-106731610D01*
X144125220Y-106549219D01*
X144188477Y-106354534D01*
X144220500Y-106152352D01*
X144220500Y-105947648D01*
X144188477Y-105745466D01*
X144183946Y-105731522D01*
X144136540Y-105585621D01*
X144125220Y-105550781D01*
X144125218Y-105550778D01*
X144125218Y-105550776D01*
X144077828Y-105457770D01*
X144032287Y-105368390D01*
X144024556Y-105357749D01*
X143911971Y-105202786D01*
X143767213Y-105058028D01*
X143601613Y-104937715D01*
X143601612Y-104937714D01*
X143601610Y-104937713D01*
X143485414Y-104878508D01*
X143458874Y-104864985D01*
X143408078Y-104817010D01*
X143391283Y-104749189D01*
X143413821Y-104683054D01*
X143468536Y-104639603D01*
X143515169Y-104630500D01*
X143682351Y-104630500D01*
X143682352Y-104630500D01*
X143884534Y-104598477D01*
X144079219Y-104535220D01*
X144261610Y-104442287D01*
X144381886Y-104354902D01*
X144427213Y-104321971D01*
X144427215Y-104321968D01*
X144427219Y-104321966D01*
X144571966Y-104177219D01*
X144571968Y-104177215D01*
X144571971Y-104177213D01*
X144646931Y-104074038D01*
X144692287Y-104011610D01*
X144785220Y-103829219D01*
X144792229Y-103807648D01*
X146099500Y-103807648D01*
X146099500Y-104012351D01*
X146131522Y-104214534D01*
X146194781Y-104409223D01*
X146234921Y-104488001D01*
X146282961Y-104582284D01*
X146287715Y-104591613D01*
X146408028Y-104757213D01*
X146552786Y-104901971D01*
X146698764Y-105008028D01*
X146718390Y-105022287D01*
X146834607Y-105081503D01*
X146900776Y-105115218D01*
X146900778Y-105115218D01*
X146900781Y-105115220D01*
X147005137Y-105149127D01*
X147095465Y-105178477D01*
X147186660Y-105192921D01*
X147297648Y-105210500D01*
X147297649Y-105210500D01*
X147502351Y-105210500D01*
X147502352Y-105210500D01*
X147704534Y-105178477D01*
X147899219Y-105115220D01*
X148081610Y-105022287D01*
X148180011Y-104950795D01*
X148247213Y-104901971D01*
X148247215Y-104901968D01*
X148247219Y-104901966D01*
X148391966Y-104757219D01*
X148391968Y-104757215D01*
X148391971Y-104757213D01*
X148484032Y-104630500D01*
X148512287Y-104591610D01*
X148605220Y-104409219D01*
X148668477Y-104214534D01*
X148700500Y-104012352D01*
X148700500Y-103807648D01*
X148668477Y-103605466D01*
X148662027Y-103585616D01*
X148612229Y-103432352D01*
X148605220Y-103410781D01*
X148605218Y-103410778D01*
X148605218Y-103410776D01*
X148571503Y-103344607D01*
X148512287Y-103228390D01*
X148489952Y-103197648D01*
X148391971Y-103062786D01*
X148247213Y-102918028D01*
X148081613Y-102797715D01*
X148081612Y-102797714D01*
X148081610Y-102797713D01*
X148024653Y-102768691D01*
X147899223Y-102704781D01*
X147704534Y-102641522D01*
X147529995Y-102613878D01*
X147502352Y-102609500D01*
X147297648Y-102609500D01*
X147273329Y-102613351D01*
X147095465Y-102641522D01*
X146900776Y-102704781D01*
X146718386Y-102797715D01*
X146552786Y-102918028D01*
X146408028Y-103062786D01*
X146287715Y-103228386D01*
X146194781Y-103410776D01*
X146131522Y-103605465D01*
X146099500Y-103807648D01*
X144792229Y-103807648D01*
X144848477Y-103634534D01*
X144880500Y-103432352D01*
X144880500Y-103227648D01*
X144848477Y-103025466D01*
X144838729Y-102995466D01*
X144785218Y-102830776D01*
X144742640Y-102747213D01*
X144692287Y-102648390D01*
X144664032Y-102609500D01*
X144571971Y-102482786D01*
X144427213Y-102338028D01*
X144261613Y-102217715D01*
X144261612Y-102217714D01*
X144261610Y-102217713D01*
X144202732Y-102187713D01*
X144079223Y-102124781D01*
X143884534Y-102061522D01*
X143709995Y-102033878D01*
X143682352Y-102029500D01*
X143477648Y-102029500D01*
X143453329Y-102033351D01*
X143275465Y-102061522D01*
X143080776Y-102124781D01*
X142898386Y-102217715D01*
X142732786Y-102338028D01*
X142588028Y-102482786D01*
X142467715Y-102648386D01*
X142374781Y-102830776D01*
X142311522Y-103025465D01*
X142279500Y-103227648D01*
X142279500Y-103432351D01*
X142311522Y-103634534D01*
X142374781Y-103829223D01*
X142467715Y-104011613D01*
X142588028Y-104177213D01*
X142732786Y-104321971D01*
X142847368Y-104405218D01*
X142898390Y-104442287D01*
X142986572Y-104487218D01*
X143041126Y-104515015D01*
X143091922Y-104562990D01*
X143108717Y-104630811D01*
X143086179Y-104696946D01*
X143031464Y-104740397D01*
X142984831Y-104749500D01*
X142817648Y-104749500D01*
X142793329Y-104753351D01*
X142615465Y-104781522D01*
X142420776Y-104844781D01*
X142238386Y-104937715D01*
X142072786Y-105058028D01*
X141928028Y-105202786D01*
X141807715Y-105368386D01*
X141714781Y-105550776D01*
X141651522Y-105745465D01*
X141619500Y-105947648D01*
X137300500Y-105947648D01*
X137300500Y-105897648D01*
X137298926Y-105887713D01*
X137268477Y-105695465D01*
X137232786Y-105585621D01*
X137205220Y-105500781D01*
X137205218Y-105500778D01*
X137205218Y-105500776D01*
X137137761Y-105368386D01*
X137112287Y-105318390D01*
X137070573Y-105260975D01*
X136991971Y-105152786D01*
X136847213Y-105008028D01*
X136681613Y-104887715D01*
X136681612Y-104887714D01*
X136681610Y-104887713D01*
X136624653Y-104858691D01*
X136499223Y-104794781D01*
X136304534Y-104731522D01*
X136129995Y-104703878D01*
X136102352Y-104699500D01*
X135897648Y-104699500D01*
X135873329Y-104703351D01*
X135695465Y-104731522D01*
X135500776Y-104794781D01*
X135318384Y-104887715D01*
X135314793Y-104889917D01*
X135247348Y-104908164D01*
X135185207Y-104889917D01*
X135181615Y-104887715D01*
X134999223Y-104794781D01*
X134804534Y-104731522D01*
X134629995Y-104703878D01*
X134602352Y-104699500D01*
X134397648Y-104699500D01*
X134373329Y-104703351D01*
X134195465Y-104731522D01*
X134000776Y-104794781D01*
X133818386Y-104887715D01*
X133652786Y-105008028D01*
X133508028Y-105152786D01*
X133387715Y-105318386D01*
X133294781Y-105500776D01*
X133231522Y-105695465D01*
X133201074Y-105887713D01*
X133199500Y-105897648D01*
X114647562Y-105897648D01*
X114636090Y-105825215D01*
X114558241Y-105585621D01*
X114558239Y-105585618D01*
X114558239Y-105585616D01*
X114443869Y-105361154D01*
X114412796Y-105318386D01*
X114379737Y-105272883D01*
X114356258Y-105207080D01*
X114372083Y-105139026D01*
X114379731Y-105127123D01*
X114443870Y-105038845D01*
X114558241Y-104814379D01*
X114630623Y-104591610D01*
X114637199Y-104571373D01*
X114676637Y-104513697D01*
X114735728Y-104487219D01*
X114932976Y-104455978D01*
X115127661Y-104392721D01*
X115310052Y-104299788D01*
X115427395Y-104214534D01*
X115475655Y-104179472D01*
X115475657Y-104179469D01*
X115475661Y-104179467D01*
X115620408Y-104034720D01*
X115620410Y-104034716D01*
X115620413Y-104034714D01*
X115698511Y-103927219D01*
X115740729Y-103869111D01*
X115833662Y-103686720D01*
X115896919Y-103492035D01*
X115928942Y-103289853D01*
X115928942Y-103097648D01*
X117999500Y-103097648D01*
X117999500Y-103302351D01*
X118031522Y-103504534D01*
X118094781Y-103699223D01*
X118150027Y-103807648D01*
X118181344Y-103869111D01*
X118187715Y-103881613D01*
X118308028Y-104047213D01*
X118452786Y-104191971D01*
X118581132Y-104285218D01*
X118618390Y-104312287D01*
X118734607Y-104371503D01*
X118800776Y-104405218D01*
X118800778Y-104405218D01*
X118800781Y-104405220D01*
X118905137Y-104439127D01*
X118995465Y-104468477D01*
X119096557Y-104484488D01*
X119197648Y-104500500D01*
X119197649Y-104500500D01*
X119402351Y-104500500D01*
X119402352Y-104500500D01*
X119604534Y-104468477D01*
X119799219Y-104405220D01*
X119981610Y-104312287D01*
X120084054Y-104237858D01*
X120147213Y-104191971D01*
X120147215Y-104191968D01*
X120147219Y-104191966D01*
X120291966Y-104047219D01*
X120291968Y-104047215D01*
X120291971Y-104047213D01*
X120379150Y-103927219D01*
X120412287Y-103881610D01*
X120505220Y-103699219D01*
X120568477Y-103504534D01*
X120600500Y-103302352D01*
X120600500Y-103097648D01*
X120586980Y-103012287D01*
X120568477Y-102895465D01*
X120529486Y-102775465D01*
X120505220Y-102700781D01*
X120505218Y-102700778D01*
X120505218Y-102700776D01*
X120471503Y-102634607D01*
X120412287Y-102518390D01*
X120403203Y-102505887D01*
X120291971Y-102352786D01*
X120147213Y-102208028D01*
X119981613Y-102087715D01*
X119981612Y-102087714D01*
X119981610Y-102087713D01*
X119905451Y-102048908D01*
X119799223Y-101994781D01*
X119604534Y-101931522D01*
X119429995Y-101903878D01*
X119402352Y-101899500D01*
X119197648Y-101899500D01*
X119173329Y-101903351D01*
X118995465Y-101931522D01*
X118800776Y-101994781D01*
X118618386Y-102087715D01*
X118452786Y-102208028D01*
X118308028Y-102352786D01*
X118187715Y-102518386D01*
X118094781Y-102700776D01*
X118031522Y-102895465D01*
X117999500Y-103097648D01*
X115928942Y-103097648D01*
X115928942Y-103085149D01*
X115896919Y-102882967D01*
X115833662Y-102688282D01*
X115833660Y-102688279D01*
X115833660Y-102688277D01*
X115798048Y-102618386D01*
X115740729Y-102505891D01*
X115720486Y-102478028D01*
X115620413Y-102340287D01*
X115475655Y-102195529D01*
X115310055Y-102075216D01*
X115310054Y-102075215D01*
X115310052Y-102075214D01*
X115224302Y-102031522D01*
X115127665Y-101982282D01*
X114932976Y-101919023D01*
X114727168Y-101886426D01*
X114664033Y-101856496D01*
X114628635Y-101802271D01*
X114618928Y-101772397D01*
X114558241Y-101585621D01*
X114443870Y-101361155D01*
X114379737Y-101272883D01*
X114356258Y-101207080D01*
X114372083Y-101139026D01*
X114379731Y-101127123D01*
X114443870Y-101038845D01*
X114558241Y-100814379D01*
X114636090Y-100574785D01*
X114640388Y-100547648D01*
X129619500Y-100547648D01*
X129619500Y-100752351D01*
X129651522Y-100954534D01*
X129714781Y-101149223D01*
X129750022Y-101218386D01*
X129792673Y-101302093D01*
X129807715Y-101331613D01*
X129928028Y-101497213D01*
X130072782Y-101641967D01*
X130075315Y-101643807D01*
X130076044Y-101644753D01*
X130076488Y-101645132D01*
X130076408Y-101645225D01*
X130117982Y-101699137D01*
X130124905Y-101763521D01*
X130119500Y-101797651D01*
X130119500Y-102002351D01*
X130151522Y-102204534D01*
X130214781Y-102399223D01*
X130269130Y-102505887D01*
X130307288Y-102580776D01*
X130307715Y-102581613D01*
X130428028Y-102747213D01*
X130572786Y-102891971D01*
X130681261Y-102970781D01*
X130738390Y-103012287D01*
X130881390Y-103085149D01*
X130920785Y-103105222D01*
X130988167Y-103127115D01*
X131024048Y-103138773D01*
X131081724Y-103178209D01*
X131108204Y-103237306D01*
X131131522Y-103384534D01*
X131194781Y-103579223D01*
X131287715Y-103761613D01*
X131408028Y-103927213D01*
X131552786Y-104071971D01*
X131704585Y-104182257D01*
X131718390Y-104192287D01*
X131829817Y-104249062D01*
X131900776Y-104285218D01*
X131900778Y-104285218D01*
X131900781Y-104285220D01*
X131984085Y-104312287D01*
X132095465Y-104348477D01*
X132196557Y-104364488D01*
X132297648Y-104380500D01*
X132297649Y-104380500D01*
X132502351Y-104380500D01*
X132502352Y-104380500D01*
X132704534Y-104348477D01*
X132899219Y-104285220D01*
X133081610Y-104192287D01*
X133188488Y-104114636D01*
X133247213Y-104071971D01*
X133247215Y-104071968D01*
X133247219Y-104071966D01*
X133391966Y-103927219D01*
X133391968Y-103927215D01*
X133391971Y-103927213D01*
X133444732Y-103854590D01*
X133512287Y-103761610D01*
X133605220Y-103579219D01*
X133668477Y-103384534D01*
X133700500Y-103182352D01*
X133700500Y-102977648D01*
X133691057Y-102918028D01*
X133668477Y-102775465D01*
X133618868Y-102622786D01*
X133605220Y-102580781D01*
X133605218Y-102580778D01*
X133605218Y-102580776D01*
X133512287Y-102398390D01*
X133424686Y-102277816D01*
X133401207Y-102212009D01*
X133417033Y-102143955D01*
X133467139Y-102095261D01*
X133525005Y-102080931D01*
X133562537Y-102080931D01*
X133562538Y-102080931D01*
X133764720Y-102048908D01*
X133959405Y-101985651D01*
X134141796Y-101892718D01*
X134262228Y-101805220D01*
X134272650Y-101797648D01*
X139799500Y-101797648D01*
X139799500Y-102002351D01*
X139831522Y-102204534D01*
X139894781Y-102399223D01*
X139949130Y-102505887D01*
X139987288Y-102580776D01*
X139987715Y-102581613D01*
X140108028Y-102747213D01*
X140252786Y-102891971D01*
X140361261Y-102970781D01*
X140418390Y-103012287D01*
X140517490Y-103062781D01*
X140600776Y-103105218D01*
X140600778Y-103105218D01*
X140600781Y-103105220D01*
X140668167Y-103127115D01*
X140795465Y-103168477D01*
X140883068Y-103182352D01*
X140997648Y-103200500D01*
X140997649Y-103200500D01*
X141202351Y-103200500D01*
X141202352Y-103200500D01*
X141404534Y-103168477D01*
X141599219Y-103105220D01*
X141781610Y-103012287D01*
X141874590Y-102944732D01*
X141947213Y-102891971D01*
X141947215Y-102891968D01*
X141947219Y-102891966D01*
X142091966Y-102747219D01*
X142091968Y-102747215D01*
X142091971Y-102747213D01*
X142168758Y-102641523D01*
X142212287Y-102581610D01*
X142305220Y-102399219D01*
X142368477Y-102204534D01*
X142400500Y-102002352D01*
X142400500Y-101843308D01*
X142420185Y-101776269D01*
X142472989Y-101730514D01*
X142542147Y-101720570D01*
X142562814Y-101725376D01*
X142630022Y-101747213D01*
X142695465Y-101768477D01*
X142796557Y-101784488D01*
X142897648Y-101800500D01*
X142897649Y-101800500D01*
X143102351Y-101800500D01*
X143102352Y-101800500D01*
X143304534Y-101768477D01*
X143499219Y-101705220D01*
X143681610Y-101612287D01*
X143774590Y-101544732D01*
X143847213Y-101491971D01*
X143847215Y-101491968D01*
X143847219Y-101491966D01*
X143991966Y-101347219D01*
X143991968Y-101347215D01*
X143991971Y-101347213D01*
X144054625Y-101260975D01*
X144112287Y-101181610D01*
X144205220Y-100999219D01*
X144268477Y-100804534D01*
X144300500Y-100602352D01*
X144300500Y-100397648D01*
X144268477Y-100195466D01*
X144253956Y-100150776D01*
X144206782Y-100005588D01*
X144205220Y-100000781D01*
X144205218Y-100000778D01*
X144205218Y-100000776D01*
X144170792Y-99933212D01*
X144112287Y-99818390D01*
X144100950Y-99802786D01*
X143991971Y-99652786D01*
X143847213Y-99508028D01*
X143681613Y-99387715D01*
X143681612Y-99387714D01*
X143681610Y-99387713D01*
X143606613Y-99349500D01*
X143499223Y-99294781D01*
X143304534Y-99231522D01*
X143129995Y-99203878D01*
X143102352Y-99199500D01*
X142897648Y-99199500D01*
X142873329Y-99203351D01*
X142695465Y-99231522D01*
X142500776Y-99294781D01*
X142318386Y-99387715D01*
X142152786Y-99508028D01*
X142008028Y-99652786D01*
X141887715Y-99818386D01*
X141794781Y-100000776D01*
X141731522Y-100195465D01*
X141699500Y-100397648D01*
X141699500Y-100556691D01*
X141679815Y-100623730D01*
X141627011Y-100669485D01*
X141557853Y-100679429D01*
X141537182Y-100674622D01*
X141404537Y-100631523D01*
X141252897Y-100607505D01*
X141202352Y-100599500D01*
X140997648Y-100599500D01*
X140973329Y-100603351D01*
X140795465Y-100631522D01*
X140600776Y-100694781D01*
X140418386Y-100787715D01*
X140252786Y-100908028D01*
X140108028Y-101052786D01*
X139987715Y-101218386D01*
X139894781Y-101400776D01*
X139831522Y-101595465D01*
X139799500Y-101797648D01*
X134272650Y-101797648D01*
X134307399Y-101772402D01*
X134307401Y-101772399D01*
X134307405Y-101772397D01*
X134452152Y-101627650D01*
X134452154Y-101627646D01*
X134452157Y-101627644D01*
X134533749Y-101515340D01*
X134572473Y-101462041D01*
X134665406Y-101279650D01*
X134728663Y-101084965D01*
X134760686Y-100882783D01*
X134760686Y-100678079D01*
X134741460Y-100556691D01*
X134728663Y-100475896D01*
X134679946Y-100325961D01*
X134665406Y-100281212D01*
X134665404Y-100281209D01*
X134665404Y-100281207D01*
X134621716Y-100195466D01*
X134572473Y-100098821D01*
X134539027Y-100052786D01*
X134452157Y-99933217D01*
X134320672Y-99801732D01*
X134287187Y-99740409D01*
X134285880Y-99694652D01*
X134290513Y-99665407D01*
X134300500Y-99602352D01*
X134300500Y-99397648D01*
X136699500Y-99397648D01*
X136699500Y-99602351D01*
X136731522Y-99804534D01*
X136794781Y-99999223D01*
X136887715Y-100181613D01*
X137008028Y-100347213D01*
X137152786Y-100491971D01*
X137307749Y-100604556D01*
X137318390Y-100612287D01*
X137430647Y-100669485D01*
X137500776Y-100705218D01*
X137500778Y-100705218D01*
X137500781Y-100705220D01*
X137605137Y-100739127D01*
X137695465Y-100768477D01*
X137796557Y-100784488D01*
X137897648Y-100800500D01*
X137897649Y-100800500D01*
X138102351Y-100800500D01*
X138102352Y-100800500D01*
X138304534Y-100768477D01*
X138499219Y-100705220D01*
X138681610Y-100612287D01*
X138774590Y-100544732D01*
X138847213Y-100491971D01*
X138847215Y-100491968D01*
X138847219Y-100491966D01*
X138991966Y-100347219D01*
X138991968Y-100347215D01*
X138991971Y-100347213D01*
X139044732Y-100274590D01*
X139112287Y-100181610D01*
X139205220Y-99999219D01*
X139268477Y-99804534D01*
X139300500Y-99602352D01*
X139300500Y-99397648D01*
X139292874Y-99349500D01*
X139268477Y-99195465D01*
X139225708Y-99063836D01*
X139205220Y-99000781D01*
X139205218Y-99000778D01*
X139205218Y-99000776D01*
X139147610Y-98887715D01*
X139112287Y-98818390D01*
X139095134Y-98794781D01*
X138991971Y-98652786D01*
X138847213Y-98508028D01*
X138681613Y-98387715D01*
X138681612Y-98387714D01*
X138681610Y-98387713D01*
X138624653Y-98358691D01*
X138499223Y-98294781D01*
X138304534Y-98231522D01*
X138129995Y-98203878D01*
X138102352Y-98199500D01*
X137897648Y-98199500D01*
X137873329Y-98203351D01*
X137695465Y-98231522D01*
X137500776Y-98294781D01*
X137318386Y-98387715D01*
X137152786Y-98508028D01*
X137008028Y-98652786D01*
X136887715Y-98818386D01*
X136794781Y-99000776D01*
X136731522Y-99195465D01*
X136699500Y-99397648D01*
X134300500Y-99397648D01*
X134292874Y-99349500D01*
X134268477Y-99195465D01*
X134225708Y-99063836D01*
X134205220Y-99000781D01*
X134205218Y-99000778D01*
X134205218Y-99000776D01*
X134147610Y-98887715D01*
X134112287Y-98818390D01*
X134095134Y-98794781D01*
X133991971Y-98652786D01*
X133847213Y-98508028D01*
X133681613Y-98387715D01*
X133681612Y-98387714D01*
X133681610Y-98387713D01*
X133624653Y-98358691D01*
X133499223Y-98294781D01*
X133304534Y-98231522D01*
X133129995Y-98203878D01*
X133102352Y-98199500D01*
X132897648Y-98199500D01*
X132873329Y-98203351D01*
X132695465Y-98231522D01*
X132500776Y-98294781D01*
X132318386Y-98387715D01*
X132152786Y-98508028D01*
X132008028Y-98652786D01*
X131887715Y-98818386D01*
X131794781Y-99000776D01*
X131731522Y-99195465D01*
X131698738Y-99402460D01*
X131697053Y-99402193D01*
X131674783Y-99460576D01*
X131618541Y-99502031D01*
X131548814Y-99506498D01*
X131519775Y-99496016D01*
X131419223Y-99444781D01*
X131224534Y-99381522D01*
X131049995Y-99353878D01*
X131022352Y-99349500D01*
X130817648Y-99349500D01*
X130793329Y-99353351D01*
X130615465Y-99381522D01*
X130420776Y-99444781D01*
X130238386Y-99537715D01*
X130072786Y-99658028D01*
X129928028Y-99802786D01*
X129807715Y-99968386D01*
X129714781Y-100150776D01*
X129651522Y-100345465D01*
X129619500Y-100547648D01*
X114640388Y-100547648D01*
X114675500Y-100325962D01*
X114675500Y-100074038D01*
X114636090Y-99825215D01*
X114558241Y-99585621D01*
X114558239Y-99585618D01*
X114558239Y-99585616D01*
X114498553Y-99468477D01*
X114452264Y-99377630D01*
X114439369Y-99308964D01*
X114460822Y-99250722D01*
X114517007Y-99169626D01*
X114610096Y-98964683D01*
X114665096Y-98746412D01*
X114675500Y-98614217D01*
X114675499Y-97785784D01*
X114665096Y-97653588D01*
X114639696Y-97552788D01*
X114610097Y-97435321D01*
X114610096Y-97435318D01*
X114602922Y-97419524D01*
X114517007Y-97230374D01*
X114485297Y-97184603D01*
X114388825Y-97045354D01*
X114388822Y-97045350D01*
X114388819Y-97045346D01*
X114241121Y-96897648D01*
X115199500Y-96897648D01*
X115199500Y-97102352D01*
X115200270Y-97107213D01*
X115231522Y-97304534D01*
X115294781Y-97499223D01*
X115346385Y-97600500D01*
X115373430Y-97653579D01*
X115387715Y-97681613D01*
X115508028Y-97847213D01*
X115652786Y-97991971D01*
X115795236Y-98095465D01*
X115818390Y-98112287D01*
X115934607Y-98171503D01*
X116000776Y-98205218D01*
X116000778Y-98205218D01*
X116000781Y-98205220D01*
X116105137Y-98239127D01*
X116195465Y-98268477D01*
X116296557Y-98284488D01*
X116397648Y-98300500D01*
X116397649Y-98300500D01*
X116602351Y-98300500D01*
X116602352Y-98300500D01*
X116804534Y-98268477D01*
X116999219Y-98205220D01*
X117181610Y-98112287D01*
X117274590Y-98044732D01*
X117347213Y-97991971D01*
X117347215Y-97991968D01*
X117347219Y-97991966D01*
X117491966Y-97847219D01*
X117491968Y-97847215D01*
X117491971Y-97847213D01*
X117544732Y-97774590D01*
X117612287Y-97681610D01*
X117705220Y-97499219D01*
X117768477Y-97304534D01*
X117800500Y-97102352D01*
X117800500Y-96897648D01*
X117778381Y-96757997D01*
X117768477Y-96695465D01*
X117726853Y-96567360D01*
X117705220Y-96500781D01*
X117705218Y-96500778D01*
X117705218Y-96500776D01*
X117668047Y-96427825D01*
X117612287Y-96318390D01*
X117585565Y-96281610D01*
X117491971Y-96152786D01*
X117347213Y-96008028D01*
X117181613Y-95887715D01*
X117181612Y-95887714D01*
X117181610Y-95887713D01*
X117107594Y-95850000D01*
X116999223Y-95794781D01*
X116804534Y-95731522D01*
X116629995Y-95703878D01*
X116602352Y-95699500D01*
X116397648Y-95699500D01*
X116373329Y-95703351D01*
X116195465Y-95731522D01*
X116000776Y-95794781D01*
X115818386Y-95887715D01*
X115652786Y-96008028D01*
X115508028Y-96152786D01*
X115387715Y-96318386D01*
X115294781Y-96500776D01*
X115231522Y-96695465D01*
X115204120Y-96868477D01*
X115199500Y-96897648D01*
X114241121Y-96897648D01*
X114229654Y-96886181D01*
X114229650Y-96886178D01*
X114229645Y-96886174D01*
X114044632Y-96757997D01*
X114044630Y-96757995D01*
X114044626Y-96757993D01*
X113839683Y-96664904D01*
X113839681Y-96664903D01*
X113839678Y-96664902D01*
X113621420Y-96609905D01*
X113621413Y-96609904D01*
X113577347Y-96606436D01*
X113489217Y-96599500D01*
X113489215Y-96599500D01*
X112110791Y-96599500D01*
X112110776Y-96599501D01*
X111978586Y-96609904D01*
X111978579Y-96609905D01*
X111760321Y-96664902D01*
X111760318Y-96664903D01*
X111555377Y-96757991D01*
X111555367Y-96757997D01*
X111370354Y-96886174D01*
X111370342Y-96886184D01*
X111211184Y-97045342D01*
X111211174Y-97045354D01*
X111082997Y-97230367D01*
X111082991Y-97230377D01*
X110989903Y-97435318D01*
X110989902Y-97435321D01*
X110934905Y-97653579D01*
X110934904Y-97653586D01*
X110924500Y-97785777D01*
X110000500Y-97785777D01*
X110000500Y-91857648D01*
X137859500Y-91857648D01*
X137859500Y-92062352D01*
X137863062Y-92084844D01*
X137891522Y-92264534D01*
X137954781Y-92459223D01*
X138016468Y-92580288D01*
X138047276Y-92640753D01*
X138047715Y-92641613D01*
X138168023Y-92807206D01*
X138169996Y-92809515D01*
X138170470Y-92810574D01*
X138170897Y-92811161D01*
X138170773Y-92811250D01*
X138198573Y-92873274D01*
X138199131Y-92892776D01*
X138199500Y-92892776D01*
X138199500Y-93102351D01*
X138231522Y-93304534D01*
X138294781Y-93499223D01*
X138387715Y-93681613D01*
X138508028Y-93847213D01*
X138652786Y-93991971D01*
X138807445Y-94104335D01*
X138818390Y-94112287D01*
X138934607Y-94171503D01*
X139000776Y-94205218D01*
X139000778Y-94205218D01*
X139000781Y-94205220D01*
X139096897Y-94236450D01*
X139195465Y-94268477D01*
X139296557Y-94284488D01*
X139397648Y-94300500D01*
X139397649Y-94300500D01*
X139602351Y-94300500D01*
X139602352Y-94300500D01*
X139804534Y-94268477D01*
X139804539Y-94268475D01*
X139804541Y-94268475D01*
X139834210Y-94258834D01*
X139924600Y-94229464D01*
X139994439Y-94227468D01*
X140054273Y-94263548D01*
X140085102Y-94326249D01*
X140077138Y-94395663D01*
X140035804Y-94447713D01*
X139952782Y-94508032D01*
X139808028Y-94652786D01*
X139687715Y-94818386D01*
X139594781Y-95000776D01*
X139531522Y-95195465D01*
X139499500Y-95397648D01*
X139499500Y-95602351D01*
X139531522Y-95804534D01*
X139594781Y-95999223D01*
X139658691Y-96124653D01*
X139673026Y-96152786D01*
X139687715Y-96181613D01*
X139808028Y-96347213D01*
X139952786Y-96491971D01*
X140090420Y-96591966D01*
X140118390Y-96612287D01*
X140221653Y-96664902D01*
X140300776Y-96705218D01*
X140300778Y-96705218D01*
X140300781Y-96705220D01*
X140405137Y-96739127D01*
X140495465Y-96768477D01*
X140578383Y-96781610D01*
X140697648Y-96800500D01*
X140697649Y-96800500D01*
X140902351Y-96800500D01*
X140902352Y-96800500D01*
X141104534Y-96768477D01*
X141299219Y-96705220D01*
X141481610Y-96612287D01*
X141574590Y-96544732D01*
X141647213Y-96491971D01*
X141647215Y-96491968D01*
X141647219Y-96491966D01*
X141791966Y-96347219D01*
X141791968Y-96347215D01*
X141791971Y-96347213D01*
X141861453Y-96251577D01*
X141912287Y-96181610D01*
X142005220Y-95999219D01*
X142068477Y-95804534D01*
X142100500Y-95602352D01*
X142100500Y-95397648D01*
X142068477Y-95195466D01*
X142068476Y-95195464D01*
X142067922Y-95191964D01*
X142076876Y-95122671D01*
X142121872Y-95069219D01*
X142188624Y-95048579D01*
X142255938Y-95067304D01*
X142263280Y-95072248D01*
X142275859Y-95081387D01*
X142318390Y-95112287D01*
X142434607Y-95171503D01*
X142500776Y-95205218D01*
X142500778Y-95205218D01*
X142500781Y-95205220D01*
X142605137Y-95239127D01*
X142695465Y-95268477D01*
X142796557Y-95284488D01*
X142897648Y-95300500D01*
X142897649Y-95300500D01*
X143102351Y-95300500D01*
X143102352Y-95300500D01*
X143304534Y-95268477D01*
X143499219Y-95205220D01*
X143681610Y-95112287D01*
X143784461Y-95037562D01*
X143847213Y-94991971D01*
X143847215Y-94991968D01*
X143847219Y-94991966D01*
X143991966Y-94847219D01*
X143991968Y-94847215D01*
X143991971Y-94847213D01*
X144060575Y-94752786D01*
X144112287Y-94681610D01*
X144205220Y-94499219D01*
X144268477Y-94304534D01*
X144300500Y-94102352D01*
X144300500Y-93897648D01*
X144268477Y-93695466D01*
X144242403Y-93615220D01*
X144216452Y-93535351D01*
X144205220Y-93500781D01*
X144205218Y-93500778D01*
X144205218Y-93500776D01*
X144160782Y-93413567D01*
X144112287Y-93318390D01*
X144067840Y-93257213D01*
X143991971Y-93152786D01*
X143847213Y-93008028D01*
X143826657Y-92993094D01*
X143695285Y-92897648D01*
X144699500Y-92897648D01*
X144699500Y-93102351D01*
X144731522Y-93304534D01*
X144794781Y-93499223D01*
X144887715Y-93681613D01*
X145008028Y-93847213D01*
X145152786Y-93991971D01*
X145307445Y-94104335D01*
X145318390Y-94112287D01*
X145434607Y-94171503D01*
X145500776Y-94205218D01*
X145500778Y-94205218D01*
X145500781Y-94205220D01*
X145596897Y-94236450D01*
X145695465Y-94268477D01*
X145796557Y-94284488D01*
X145897648Y-94300500D01*
X145897649Y-94300500D01*
X146102351Y-94300500D01*
X146102352Y-94300500D01*
X146304534Y-94268477D01*
X146499219Y-94205220D01*
X146681610Y-94112287D01*
X146723431Y-94081902D01*
X152499500Y-94081902D01*
X152499500Y-94318097D01*
X152536446Y-94551368D01*
X152609433Y-94775996D01*
X152666665Y-94888319D01*
X152716657Y-94986433D01*
X152855483Y-95177510D01*
X153022490Y-95344517D01*
X153213567Y-95483343D01*
X153295740Y-95525212D01*
X153424003Y-95590566D01*
X153424005Y-95590566D01*
X153424008Y-95590568D01*
X153544412Y-95629689D01*
X153648631Y-95663553D01*
X153881903Y-95700500D01*
X153881908Y-95700500D01*
X153893301Y-95700500D01*
X153960340Y-95720185D01*
X154006095Y-95772989D01*
X154015774Y-95805102D01*
X154031522Y-95904534D01*
X154094781Y-96099223D01*
X154124551Y-96157648D01*
X154172413Y-96251583D01*
X154187715Y-96281613D01*
X154308028Y-96447213D01*
X154452786Y-96591971D01*
X154607749Y-96704556D01*
X154618390Y-96712287D01*
X154708089Y-96757991D01*
X154800776Y-96805218D01*
X154800778Y-96805218D01*
X154800781Y-96805220D01*
X154896977Y-96836476D01*
X154985355Y-96865192D01*
X155043030Y-96904630D01*
X155070228Y-96968989D01*
X155058313Y-97037835D01*
X155011069Y-97089311D01*
X154985355Y-97101054D01*
X154850776Y-97144781D01*
X154668386Y-97237715D01*
X154502786Y-97358028D01*
X154358028Y-97502786D01*
X154237715Y-97668386D01*
X154144781Y-97850776D01*
X154081522Y-98045465D01*
X154049500Y-98247648D01*
X154049500Y-98452351D01*
X154081522Y-98654534D01*
X154144781Y-98849223D01*
X154202620Y-98962737D01*
X154225700Y-99008034D01*
X154237715Y-99031613D01*
X154358028Y-99197213D01*
X154502786Y-99341971D01*
X154589843Y-99405220D01*
X154668390Y-99462287D01*
X154784607Y-99521503D01*
X154850776Y-99555218D01*
X154850778Y-99555218D01*
X154850781Y-99555220D01*
X154944330Y-99585616D01*
X155045465Y-99618477D01*
X155127834Y-99631523D01*
X155247648Y-99650500D01*
X155247649Y-99650500D01*
X155452351Y-99650500D01*
X155452352Y-99650500D01*
X155654534Y-99618477D01*
X155849219Y-99555220D01*
X156031610Y-99462287D01*
X156124590Y-99394732D01*
X156197213Y-99341971D01*
X156197215Y-99341968D01*
X156197219Y-99341966D01*
X156341966Y-99197219D01*
X156341968Y-99197215D01*
X156341971Y-99197213D01*
X156409038Y-99104902D01*
X156462287Y-99031610D01*
X156555220Y-98849219D01*
X156618477Y-98654534D01*
X156650500Y-98452352D01*
X156650500Y-98247648D01*
X156618477Y-98045466D01*
X156601095Y-97991971D01*
X156569739Y-97895466D01*
X156555220Y-97850781D01*
X156555218Y-97850778D01*
X156555218Y-97850776D01*
X156487761Y-97718386D01*
X156462287Y-97668390D01*
X156451526Y-97653579D01*
X156341971Y-97502786D01*
X156197213Y-97358028D01*
X156031613Y-97237715D01*
X156031612Y-97237714D01*
X156031610Y-97237713D01*
X155954356Y-97198350D01*
X155849223Y-97144781D01*
X155664644Y-97084807D01*
X155606969Y-97045369D01*
X155579771Y-96981010D01*
X155591686Y-96912164D01*
X155638931Y-96860688D01*
X155664639Y-96848947D01*
X155799219Y-96805220D01*
X155981610Y-96712287D01*
X156081432Y-96639763D01*
X156147213Y-96591971D01*
X156147215Y-96591968D01*
X156147219Y-96591966D01*
X156291966Y-96447219D01*
X156291968Y-96447215D01*
X156291971Y-96447213D01*
X156353626Y-96362351D01*
X156412287Y-96281610D01*
X156505220Y-96099219D01*
X156568477Y-95904534D01*
X156600500Y-95702352D01*
X156600500Y-95497648D01*
X156587058Y-95412781D01*
X156568477Y-95295465D01*
X156512332Y-95122671D01*
X156505220Y-95100781D01*
X156505218Y-95100778D01*
X156505218Y-95100776D01*
X156449550Y-94991523D01*
X156412287Y-94918390D01*
X156377112Y-94869975D01*
X156291971Y-94752786D01*
X156147213Y-94608028D01*
X155981613Y-94487715D01*
X155981612Y-94487714D01*
X155981610Y-94487713D01*
X155799219Y-94394780D01*
X155604534Y-94331523D01*
X155604531Y-94331522D01*
X155599794Y-94330385D01*
X155600070Y-94329233D01*
X155541950Y-94301667D01*
X155505030Y-94242349D01*
X155500500Y-94209139D01*
X155500500Y-94081902D01*
X155463553Y-93848631D01*
X155415513Y-93700781D01*
X155390568Y-93624008D01*
X155390566Y-93624005D01*
X155390566Y-93624003D01*
X155326985Y-93499219D01*
X155283343Y-93413567D01*
X155144517Y-93222490D01*
X154977510Y-93055483D01*
X154786433Y-92916657D01*
X154739564Y-92892776D01*
X154575996Y-92809433D01*
X154351368Y-92736446D01*
X154118097Y-92699500D01*
X154118092Y-92699500D01*
X153881908Y-92699500D01*
X153881903Y-92699500D01*
X153648631Y-92736446D01*
X153424003Y-92809433D01*
X153213566Y-92916657D01*
X153149020Y-92963553D01*
X153022490Y-93055483D01*
X153022488Y-93055485D01*
X153022487Y-93055485D01*
X152855485Y-93222487D01*
X152855485Y-93222488D01*
X152855483Y-93222490D01*
X152830251Y-93257219D01*
X152716657Y-93413566D01*
X152609433Y-93624003D01*
X152536446Y-93848631D01*
X152499500Y-94081902D01*
X146723431Y-94081902D01*
X146774590Y-94044732D01*
X146847213Y-93991971D01*
X146847215Y-93991968D01*
X146847219Y-93991966D01*
X146991966Y-93847219D01*
X146991968Y-93847215D01*
X146991971Y-93847213D01*
X147091998Y-93709535D01*
X147112287Y-93681610D01*
X147205220Y-93499219D01*
X147268477Y-93304534D01*
X147300500Y-93102352D01*
X147300500Y-92897648D01*
X147282396Y-92783343D01*
X147268477Y-92695465D01*
X147223741Y-92557782D01*
X147205220Y-92500781D01*
X147205218Y-92500778D01*
X147205218Y-92500776D01*
X147128348Y-92349912D01*
X147112287Y-92318390D01*
X147093634Y-92292716D01*
X146991971Y-92152786D01*
X146847213Y-92008028D01*
X146681613Y-91887715D01*
X146681612Y-91887714D01*
X146681610Y-91887713D01*
X146610279Y-91851368D01*
X146499223Y-91794781D01*
X146304534Y-91731522D01*
X146129995Y-91703878D01*
X146102352Y-91699500D01*
X145897648Y-91699500D01*
X145873329Y-91703351D01*
X145695465Y-91731522D01*
X145500776Y-91794781D01*
X145318386Y-91887715D01*
X145152786Y-92008028D01*
X145008028Y-92152786D01*
X144887715Y-92318386D01*
X144794781Y-92500776D01*
X144731522Y-92695465D01*
X144699500Y-92897648D01*
X143695285Y-92897648D01*
X143681613Y-92887715D01*
X143681612Y-92887714D01*
X143681610Y-92887713D01*
X143601210Y-92846747D01*
X143499223Y-92794781D01*
X143304534Y-92731522D01*
X143187480Y-92712983D01*
X143124345Y-92683054D01*
X143087414Y-92623742D01*
X143088412Y-92553879D01*
X143119194Y-92502832D01*
X143144517Y-92477510D01*
X143283343Y-92286433D01*
X143390568Y-92075992D01*
X143463553Y-91851368D01*
X143471610Y-91800500D01*
X143500500Y-91618097D01*
X143500500Y-91381902D01*
X143463553Y-91148631D01*
X143415007Y-90999223D01*
X143391389Y-90926537D01*
X143389395Y-90856699D01*
X143425475Y-90796866D01*
X143488176Y-90766037D01*
X143557590Y-90774001D01*
X143582200Y-90787899D01*
X143713567Y-90883343D01*
X143793367Y-90924003D01*
X143924003Y-90990566D01*
X143924005Y-90990566D01*
X143924008Y-90990568D01*
X144044412Y-91029689D01*
X144148631Y-91063553D01*
X144381903Y-91100500D01*
X144381908Y-91100500D01*
X144618097Y-91100500D01*
X144851368Y-91063553D01*
X145075992Y-90990568D01*
X145286433Y-90883343D01*
X145477510Y-90744517D01*
X145644517Y-90577510D01*
X145783343Y-90386433D01*
X145890568Y-90175992D01*
X145963553Y-89951368D01*
X145981007Y-89841167D01*
X146000500Y-89718097D01*
X146000500Y-89481902D01*
X145963553Y-89248631D01*
X145915704Y-89101368D01*
X145890568Y-89024008D01*
X145890566Y-89024005D01*
X145890566Y-89024003D01*
X145783342Y-88813566D01*
X145751417Y-88769625D01*
X145651355Y-88631902D01*
X151999500Y-88631902D01*
X151999500Y-88868097D01*
X152036446Y-89101368D01*
X152109433Y-89325996D01*
X152212567Y-89528406D01*
X152216657Y-89536433D01*
X152355483Y-89727510D01*
X152522490Y-89894517D01*
X152713567Y-90033343D01*
X152766503Y-90060315D01*
X152924003Y-90140566D01*
X152924005Y-90140566D01*
X152924008Y-90140568D01*
X153025239Y-90173460D01*
X153148631Y-90213553D01*
X153381903Y-90250500D01*
X153381908Y-90250500D01*
X153618097Y-90250500D01*
X153851368Y-90213553D01*
X153885844Y-90202351D01*
X154075992Y-90140568D01*
X154286433Y-90033343D01*
X154477510Y-89894517D01*
X154644517Y-89727510D01*
X154783343Y-89536433D01*
X154890568Y-89325992D01*
X154963553Y-89101368D01*
X154975806Y-89024008D01*
X155000500Y-88868097D01*
X155000500Y-88631902D01*
X154963553Y-88398631D01*
X154905098Y-88218728D01*
X154890568Y-88174008D01*
X154890566Y-88174005D01*
X154890566Y-88174003D01*
X154834002Y-88062991D01*
X154783343Y-87963567D01*
X154644517Y-87772490D01*
X154477510Y-87605483D01*
X154286433Y-87466657D01*
X154202720Y-87424003D01*
X154106095Y-87374770D01*
X154075996Y-87359434D01*
X154075995Y-87359433D01*
X154075992Y-87359432D01*
X153983477Y-87329372D01*
X153851368Y-87286446D01*
X153742208Y-87269157D01*
X156476505Y-87269157D01*
X156476505Y-87473860D01*
X156508527Y-87676043D01*
X156571786Y-87870732D01*
X156619088Y-87963566D01*
X156662798Y-88049351D01*
X156664720Y-88053122D01*
X156785033Y-88218722D01*
X156929791Y-88363480D01*
X157056425Y-88455483D01*
X157095395Y-88483796D01*
X157211612Y-88543012D01*
X157277781Y-88576727D01*
X157277783Y-88576727D01*
X157277786Y-88576729D01*
X157382142Y-88610636D01*
X157472470Y-88639986D01*
X157513257Y-88646446D01*
X157674653Y-88672009D01*
X157674654Y-88672009D01*
X157879356Y-88672009D01*
X157879357Y-88672009D01*
X158081539Y-88639986D01*
X158276224Y-88576729D01*
X158458615Y-88483796D01*
X158575836Y-88398631D01*
X158624218Y-88363480D01*
X158624220Y-88363477D01*
X158624224Y-88363475D01*
X158768971Y-88218728D01*
X158768973Y-88218724D01*
X158768976Y-88218722D01*
X158842083Y-88118097D01*
X158889292Y-88053119D01*
X158982225Y-87870728D01*
X159045482Y-87676043D01*
X159077505Y-87473861D01*
X159077505Y-87378711D01*
X160469500Y-87378711D01*
X160469500Y-87621288D01*
X160501161Y-87861785D01*
X160563947Y-88096104D01*
X160640535Y-88281002D01*
X160656776Y-88320212D01*
X160778064Y-88530289D01*
X160778066Y-88530292D01*
X160778067Y-88530293D01*
X160925733Y-88722736D01*
X160925739Y-88722743D01*
X161097256Y-88894260D01*
X161097263Y-88894266D01*
X161148772Y-88933790D01*
X161289711Y-89041936D01*
X161499788Y-89163224D01*
X161723900Y-89256054D01*
X161958211Y-89318838D01*
X162138586Y-89342584D01*
X162198711Y-89350500D01*
X162198712Y-89350500D01*
X162441289Y-89350500D01*
X162494763Y-89343460D01*
X162681789Y-89318838D01*
X162916100Y-89256054D01*
X163140212Y-89163224D01*
X163350289Y-89041936D01*
X163514514Y-88915922D01*
X163579683Y-88890728D01*
X163648128Y-88904766D01*
X163665486Y-88915922D01*
X163829711Y-89041936D01*
X164039788Y-89163224D01*
X164263900Y-89256054D01*
X164498211Y-89318838D01*
X164678586Y-89342584D01*
X164738711Y-89350500D01*
X164738712Y-89350500D01*
X164981289Y-89350500D01*
X165034763Y-89343460D01*
X165221789Y-89318838D01*
X165456100Y-89256054D01*
X165680212Y-89163224D01*
X165890289Y-89041936D01*
X166054514Y-88915922D01*
X166080489Y-88905879D01*
X166105086Y-88892827D01*
X166112625Y-88893456D01*
X166119683Y-88890728D01*
X166146963Y-88896323D01*
X166174713Y-88898640D01*
X166184178Y-88903956D01*
X166188128Y-88904766D01*
X166205486Y-88915922D01*
X166228772Y-88933790D01*
X166269975Y-88990218D01*
X166274130Y-89059964D01*
X166240968Y-89119847D01*
X166108027Y-89252788D01*
X165987715Y-89418386D01*
X165894781Y-89600776D01*
X165831522Y-89795465D01*
X165799500Y-89997648D01*
X165799500Y-90202351D01*
X165831522Y-90404534D01*
X165894781Y-90599223D01*
X165941811Y-90691522D01*
X165974042Y-90754780D01*
X165987715Y-90781613D01*
X166108028Y-90947213D01*
X166252786Y-91091971D01*
X166407749Y-91204556D01*
X166418390Y-91212287D01*
X166509736Y-91258830D01*
X166600776Y-91305218D01*
X166600778Y-91305218D01*
X166600781Y-91305220D01*
X166705137Y-91339127D01*
X166795465Y-91368477D01*
X166896557Y-91384488D01*
X166997648Y-91400500D01*
X166997649Y-91400500D01*
X167202351Y-91400500D01*
X167202352Y-91400500D01*
X167404534Y-91368477D01*
X167599219Y-91305220D01*
X167781610Y-91212287D01*
X167828927Y-91177909D01*
X167894731Y-91154430D01*
X167962785Y-91170255D01*
X168011480Y-91220360D01*
X168024284Y-91258830D01*
X168031522Y-91304534D01*
X168094781Y-91499223D01*
X168152391Y-91612287D01*
X168174391Y-91655465D01*
X168187715Y-91681613D01*
X168308028Y-91847213D01*
X168452786Y-91991971D01*
X168607673Y-92104501D01*
X168618390Y-92112287D01*
X168697864Y-92152781D01*
X168800776Y-92205218D01*
X168800778Y-92205218D01*
X168800781Y-92205220D01*
X168875803Y-92229596D01*
X168995465Y-92268477D01*
X169096557Y-92284488D01*
X169197648Y-92300500D01*
X169197649Y-92300500D01*
X169402351Y-92300500D01*
X169402352Y-92300500D01*
X169604534Y-92268477D01*
X169799219Y-92205220D01*
X169981610Y-92112287D01*
X170083327Y-92038386D01*
X170147213Y-91991971D01*
X170147215Y-91991968D01*
X170147219Y-91991966D01*
X170291966Y-91847219D01*
X170291968Y-91847215D01*
X170291971Y-91847213D01*
X170349175Y-91768477D01*
X170412287Y-91681610D01*
X170505220Y-91499219D01*
X170568477Y-91304534D01*
X170600500Y-91102352D01*
X170600500Y-90897648D01*
X170585752Y-90804534D01*
X170568477Y-90695465D01*
X170530151Y-90577510D01*
X170505220Y-90500781D01*
X170505218Y-90500778D01*
X170505218Y-90500776D01*
X170471503Y-90434607D01*
X170412287Y-90318390D01*
X170401203Y-90303134D01*
X170291971Y-90152786D01*
X170147213Y-90008028D01*
X169981613Y-89887715D01*
X169981612Y-89887714D01*
X169981610Y-89887713D01*
X169924653Y-89858691D01*
X169799223Y-89794781D01*
X169604534Y-89731522D01*
X169429995Y-89703878D01*
X169402352Y-89699500D01*
X169197648Y-89699500D01*
X169173329Y-89703351D01*
X168995465Y-89731522D01*
X168800776Y-89794781D01*
X168618387Y-89887714D01*
X168571072Y-89922090D01*
X168505265Y-89945569D01*
X168437212Y-89929743D01*
X168388517Y-89879636D01*
X168375716Y-89841175D01*
X168368477Y-89795466D01*
X168305220Y-89600781D01*
X168305218Y-89600778D01*
X168305218Y-89600776D01*
X168268343Y-89528406D01*
X168212287Y-89418390D01*
X168202951Y-89405540D01*
X168164072Y-89352026D01*
X168140592Y-89286219D01*
X168156418Y-89218166D01*
X168206524Y-89169471D01*
X168216924Y-89164585D01*
X168220212Y-89163224D01*
X168430289Y-89041936D01*
X168594514Y-88915922D01*
X168659683Y-88890728D01*
X168728128Y-88904766D01*
X168745486Y-88915922D01*
X168909711Y-89041936D01*
X169119788Y-89163224D01*
X169343900Y-89256054D01*
X169578211Y-89318838D01*
X169758586Y-89342584D01*
X169818711Y-89350500D01*
X169818712Y-89350500D01*
X170061289Y-89350500D01*
X170114763Y-89343460D01*
X170301789Y-89318838D01*
X170536100Y-89256054D01*
X170760212Y-89163224D01*
X170970289Y-89041936D01*
X171134514Y-88915922D01*
X171199683Y-88890728D01*
X171268128Y-88904766D01*
X171285486Y-88915922D01*
X171449711Y-89041936D01*
X171659788Y-89163224D01*
X171883900Y-89256054D01*
X172009543Y-89289720D01*
X172069201Y-89326084D01*
X172099730Y-89388931D01*
X172091435Y-89458307D01*
X172055352Y-89503525D01*
X172056494Y-89504862D01*
X172052782Y-89508032D01*
X171908028Y-89652786D01*
X171787715Y-89818386D01*
X171694781Y-90000776D01*
X171631522Y-90195465D01*
X171599500Y-90397648D01*
X171599500Y-90602351D01*
X171631522Y-90804534D01*
X171694781Y-90999223D01*
X171746385Y-91100500D01*
X171781927Y-91170255D01*
X171787715Y-91181613D01*
X171908028Y-91347213D01*
X172052786Y-91491971D01*
X172207749Y-91604556D01*
X172218390Y-91612287D01*
X172334607Y-91671503D01*
X172400776Y-91705218D01*
X172400778Y-91705218D01*
X172400781Y-91705220D01*
X172498110Y-91736844D01*
X172595465Y-91768477D01*
X172696557Y-91784488D01*
X172797648Y-91800500D01*
X172797649Y-91800500D01*
X173002351Y-91800500D01*
X173002352Y-91800500D01*
X173204534Y-91768477D01*
X173399219Y-91705220D01*
X173581610Y-91612287D01*
X173737231Y-91499223D01*
X173747213Y-91491971D01*
X173747215Y-91491968D01*
X173747219Y-91491966D01*
X173891966Y-91347219D01*
X173891968Y-91347215D01*
X173891971Y-91347213D01*
X173956184Y-91258830D01*
X174012287Y-91181610D01*
X174105220Y-90999219D01*
X174168477Y-90804534D01*
X174200500Y-90602352D01*
X174200500Y-90397648D01*
X174176426Y-90245653D01*
X174168477Y-90195465D01*
X174124564Y-90060315D01*
X174105220Y-90000781D01*
X174105218Y-90000778D01*
X174105218Y-90000776D01*
X174065125Y-89922090D01*
X174012287Y-89818390D01*
X173995134Y-89794781D01*
X173891971Y-89652786D01*
X173747213Y-89508028D01*
X173581613Y-89387715D01*
X173581612Y-89387714D01*
X173581610Y-89387713D01*
X173487744Y-89339886D01*
X173429073Y-89309991D01*
X173378277Y-89262016D01*
X173361482Y-89194195D01*
X173384020Y-89128060D01*
X173423365Y-89092121D01*
X173510289Y-89041936D01*
X173674514Y-88915922D01*
X173739683Y-88890728D01*
X173808128Y-88904766D01*
X173825486Y-88915922D01*
X173989711Y-89041936D01*
X174199788Y-89163224D01*
X174423900Y-89256054D01*
X174658211Y-89318838D01*
X174838586Y-89342584D01*
X174898711Y-89350500D01*
X174898712Y-89350500D01*
X175141289Y-89350500D01*
X175194763Y-89343460D01*
X175381789Y-89318838D01*
X175616100Y-89256054D01*
X175840212Y-89163224D01*
X176050289Y-89041936D01*
X176214514Y-88915922D01*
X176279683Y-88890728D01*
X176348128Y-88904766D01*
X176365486Y-88915922D01*
X176529711Y-89041936D01*
X176739788Y-89163224D01*
X176963900Y-89256054D01*
X177198211Y-89318838D01*
X177378586Y-89342584D01*
X177438711Y-89350500D01*
X177438712Y-89350500D01*
X177681289Y-89350500D01*
X177734763Y-89343460D01*
X177921789Y-89318838D01*
X178156100Y-89256054D01*
X178380212Y-89163224D01*
X178472359Y-89110022D01*
X178540257Y-89093550D01*
X178606284Y-89116402D01*
X178612719Y-89121308D01*
X178615566Y-89123629D01*
X178696593Y-89189698D01*
X178876951Y-89283909D01*
X179072582Y-89339886D01*
X179191963Y-89350500D01*
X181008036Y-89350499D01*
X181127418Y-89339886D01*
X181323049Y-89283909D01*
X181503407Y-89189698D01*
X181661109Y-89061109D01*
X181789698Y-88903407D01*
X181883909Y-88723049D01*
X181939886Y-88527418D01*
X181950500Y-88408037D01*
X181950499Y-86591964D01*
X181939886Y-86472582D01*
X181883909Y-86276951D01*
X181789698Y-86096593D01*
X181718454Y-86009219D01*
X181661109Y-85938890D01*
X181520861Y-85824534D01*
X181503407Y-85810302D01*
X181323049Y-85716091D01*
X181323048Y-85716090D01*
X181323045Y-85716089D01*
X181205829Y-85682550D01*
X181127418Y-85660114D01*
X181127415Y-85660113D01*
X181127413Y-85660113D01*
X181061102Y-85654217D01*
X181008037Y-85649500D01*
X181008032Y-85649500D01*
X179191971Y-85649500D01*
X179191965Y-85649500D01*
X179191964Y-85649501D01*
X179180316Y-85650536D01*
X179072584Y-85660113D01*
X178876954Y-85716089D01*
X178696591Y-85810303D01*
X178612718Y-85878692D01*
X178548321Y-85905800D01*
X178479492Y-85893790D01*
X178472358Y-85889976D01*
X178380215Y-85836777D01*
X178380205Y-85836773D01*
X178156104Y-85743947D01*
X177921785Y-85681161D01*
X177681289Y-85649500D01*
X177681288Y-85649500D01*
X177438712Y-85649500D01*
X177438711Y-85649500D01*
X177198214Y-85681161D01*
X176963895Y-85743947D01*
X176739794Y-85836773D01*
X176739785Y-85836777D01*
X176529707Y-85958066D01*
X176467381Y-86005890D01*
X176402211Y-86031083D01*
X176333767Y-86017044D01*
X176283778Y-85968229D01*
X176268116Y-85900138D01*
X176273965Y-85869196D01*
X176288477Y-85824534D01*
X176320500Y-85622352D01*
X176320500Y-85417648D01*
X176288477Y-85215466D01*
X176285227Y-85205465D01*
X176225218Y-85020776D01*
X176191503Y-84954607D01*
X176132287Y-84838390D01*
X176096413Y-84789013D01*
X176011971Y-84672786D01*
X175867213Y-84528028D01*
X175701613Y-84407715D01*
X175701612Y-84407714D01*
X175701610Y-84407713D01*
X175644653Y-84378691D01*
X175519223Y-84314781D01*
X175324534Y-84251522D01*
X175149995Y-84223878D01*
X175122352Y-84219500D01*
X174917648Y-84219500D01*
X174893329Y-84223351D01*
X174715465Y-84251522D01*
X174520776Y-84314781D01*
X174338386Y-84407715D01*
X174172786Y-84528028D01*
X174028028Y-84672786D01*
X173907715Y-84838386D01*
X173814781Y-85020776D01*
X173751522Y-85215465D01*
X173719500Y-85417648D01*
X173719500Y-85622351D01*
X173751523Y-85824535D01*
X173751524Y-85824542D01*
X173766033Y-85869196D01*
X173768028Y-85939037D01*
X173731947Y-85998870D01*
X173669245Y-86029697D01*
X173599831Y-86021732D01*
X173572616Y-86005889D01*
X173510293Y-85958067D01*
X173510292Y-85958066D01*
X173510289Y-85958064D01*
X173300212Y-85836776D01*
X173287772Y-85831623D01*
X173076104Y-85743947D01*
X172841785Y-85681161D01*
X172601289Y-85649500D01*
X172601288Y-85649500D01*
X172358712Y-85649500D01*
X172358711Y-85649500D01*
X172118214Y-85681161D01*
X171883895Y-85743947D01*
X171659794Y-85836773D01*
X171659785Y-85836777D01*
X171449706Y-85958067D01*
X171285486Y-86084077D01*
X171220317Y-86109271D01*
X171151872Y-86095232D01*
X171134514Y-86084077D01*
X170970293Y-85958067D01*
X170970292Y-85958066D01*
X170970289Y-85958064D01*
X170760212Y-85836776D01*
X170747772Y-85831623D01*
X170536104Y-85743947D01*
X170301785Y-85681161D01*
X170061289Y-85649500D01*
X170061288Y-85649500D01*
X169818712Y-85649500D01*
X169818711Y-85649500D01*
X169578214Y-85681161D01*
X169343895Y-85743947D01*
X169119794Y-85836773D01*
X169119785Y-85836777D01*
X168909706Y-85958067D01*
X168745486Y-86084077D01*
X168680317Y-86109271D01*
X168611872Y-86095232D01*
X168594514Y-86084077D01*
X168430293Y-85958067D01*
X168430292Y-85958066D01*
X168430289Y-85958064D01*
X168220212Y-85836776D01*
X168207772Y-85831623D01*
X167996104Y-85743947D01*
X167761785Y-85681161D01*
X167521289Y-85649500D01*
X167521288Y-85649500D01*
X167278712Y-85649500D01*
X167278711Y-85649500D01*
X167038214Y-85681161D01*
X166803895Y-85743947D01*
X166579794Y-85836773D01*
X166579785Y-85836777D01*
X166369706Y-85958067D01*
X166356334Y-85968327D01*
X166291163Y-85993518D01*
X166222719Y-85979475D01*
X166172732Y-85930659D01*
X166157073Y-85862566D01*
X166162924Y-85831623D01*
X166165227Y-85824537D01*
X166168477Y-85814534D01*
X166200500Y-85612352D01*
X166200500Y-85407648D01*
X166168477Y-85205466D01*
X166105220Y-85010781D01*
X166105218Y-85010778D01*
X166105218Y-85010776D01*
X166071503Y-84944607D01*
X166012287Y-84828390D01*
X165983662Y-84788991D01*
X165891971Y-84662786D01*
X165747213Y-84518028D01*
X165581613Y-84397715D01*
X165581612Y-84397714D01*
X165581610Y-84397713D01*
X165524653Y-84368691D01*
X165399223Y-84304781D01*
X165204534Y-84241522D01*
X165029995Y-84213878D01*
X165002352Y-84209500D01*
X164797648Y-84209500D01*
X164773329Y-84213351D01*
X164595465Y-84241522D01*
X164400776Y-84304781D01*
X164218386Y-84397715D01*
X164052786Y-84518028D01*
X163908028Y-84662786D01*
X163787715Y-84828386D01*
X163694781Y-85010776D01*
X163631522Y-85205465D01*
X163599500Y-85407648D01*
X163599500Y-85612352D01*
X163610399Y-85681162D01*
X163631523Y-85814535D01*
X163631524Y-85814542D01*
X163663646Y-85913404D01*
X163665641Y-85983245D01*
X163629560Y-86043078D01*
X163566859Y-86073905D01*
X163497445Y-86065940D01*
X163470229Y-86050097D01*
X163350293Y-85958067D01*
X163350292Y-85958066D01*
X163350289Y-85958064D01*
X163140212Y-85836776D01*
X163127772Y-85831623D01*
X162916104Y-85743947D01*
X162681785Y-85681161D01*
X162441289Y-85649500D01*
X162441288Y-85649500D01*
X162198712Y-85649500D01*
X162198711Y-85649500D01*
X161958214Y-85681161D01*
X161723895Y-85743947D01*
X161499794Y-85836773D01*
X161499785Y-85836777D01*
X161289706Y-85958067D01*
X161097263Y-86105733D01*
X161097256Y-86105739D01*
X160925739Y-86277256D01*
X160925733Y-86277263D01*
X160778067Y-86469706D01*
X160778064Y-86469710D01*
X160778064Y-86469711D01*
X160776405Y-86472584D01*
X160656777Y-86679785D01*
X160656773Y-86679794D01*
X160563947Y-86903895D01*
X160501161Y-87138214D01*
X160469500Y-87378711D01*
X159077505Y-87378711D01*
X159077505Y-87269157D01*
X159068293Y-87210993D01*
X159045482Y-87066974D01*
X159015164Y-86973666D01*
X158982225Y-86872290D01*
X158982223Y-86872287D01*
X158982223Y-86872285D01*
X158945391Y-86800000D01*
X158889292Y-86689899D01*
X158881561Y-86679258D01*
X158768976Y-86524295D01*
X158624218Y-86379537D01*
X158458618Y-86259224D01*
X158458617Y-86259223D01*
X158458615Y-86259222D01*
X158401658Y-86230200D01*
X158276228Y-86166290D01*
X158081539Y-86103031D01*
X157884054Y-86071753D01*
X157879357Y-86071009D01*
X157674653Y-86071009D01*
X157669956Y-86071753D01*
X157472470Y-86103031D01*
X157277781Y-86166290D01*
X157095391Y-86259224D01*
X156929791Y-86379537D01*
X156785033Y-86524295D01*
X156664720Y-86689895D01*
X156571786Y-86872285D01*
X156508527Y-87066974D01*
X156476505Y-87269157D01*
X153742208Y-87269157D01*
X153618097Y-87249500D01*
X153618092Y-87249500D01*
X153381908Y-87249500D01*
X153381903Y-87249500D01*
X153148631Y-87286446D01*
X152924003Y-87359433D01*
X152713566Y-87466657D01*
X152625403Y-87530712D01*
X152522490Y-87605483D01*
X152522488Y-87605485D01*
X152522487Y-87605485D01*
X152355485Y-87772487D01*
X152355485Y-87772488D01*
X152355483Y-87772490D01*
X152346325Y-87785095D01*
X152216657Y-87963566D01*
X152109433Y-88174003D01*
X152036446Y-88398631D01*
X151999500Y-88631902D01*
X145651355Y-88631902D01*
X145644517Y-88622490D01*
X145477510Y-88455483D01*
X145286433Y-88316657D01*
X145075996Y-88209433D01*
X144851368Y-88136446D01*
X144618097Y-88099500D01*
X144618092Y-88099500D01*
X144381908Y-88099500D01*
X144381903Y-88099500D01*
X144148631Y-88136446D01*
X143924003Y-88209433D01*
X143713566Y-88316657D01*
X143604550Y-88395862D01*
X143522490Y-88455483D01*
X143522488Y-88455485D01*
X143522487Y-88455485D01*
X143355485Y-88622487D01*
X143355485Y-88622488D01*
X143355483Y-88622490D01*
X143319505Y-88672009D01*
X143216657Y-88813566D01*
X143109433Y-89024003D01*
X143036446Y-89248631D01*
X142999500Y-89481902D01*
X142999500Y-89718097D01*
X143036447Y-89951369D01*
X143036447Y-89951372D01*
X143108609Y-90173460D01*
X143110604Y-90243301D01*
X143074524Y-90303134D01*
X143011823Y-90333962D01*
X142942409Y-90325997D01*
X142917796Y-90312098D01*
X142786433Y-90216657D01*
X142758356Y-90202351D01*
X142575996Y-90109433D01*
X142351368Y-90036446D01*
X142118097Y-89999500D01*
X142118092Y-89999500D01*
X141881908Y-89999500D01*
X141881903Y-89999500D01*
X141648631Y-90036446D01*
X141424003Y-90109433D01*
X141213566Y-90216657D01*
X141173649Y-90245659D01*
X141022490Y-90355483D01*
X141022488Y-90355485D01*
X141022487Y-90355485D01*
X140855485Y-90522487D01*
X140855485Y-90522488D01*
X140855483Y-90522490D01*
X140831126Y-90556015D01*
X140716657Y-90713566D01*
X140609433Y-90924003D01*
X140536447Y-91148630D01*
X140517827Y-91266188D01*
X140487897Y-91329322D01*
X140428585Y-91366253D01*
X140358723Y-91365255D01*
X140300490Y-91326645D01*
X140284869Y-91303084D01*
X140272287Y-91278390D01*
X140272285Y-91278387D01*
X140272284Y-91278385D01*
X140151971Y-91112786D01*
X140007213Y-90968028D01*
X139841613Y-90847715D01*
X139841612Y-90847714D01*
X139841610Y-90847713D01*
X139756867Y-90804534D01*
X139659223Y-90754781D01*
X139464534Y-90691522D01*
X139289995Y-90663878D01*
X139262352Y-90659500D01*
X139057648Y-90659500D01*
X139033329Y-90663351D01*
X138855465Y-90691522D01*
X138660776Y-90754781D01*
X138478386Y-90847715D01*
X138312786Y-90968028D01*
X138168028Y-91112786D01*
X138047715Y-91278386D01*
X137954781Y-91460776D01*
X137891522Y-91655465D01*
X137861153Y-91847213D01*
X137859500Y-91857648D01*
X110000500Y-91857648D01*
X110000500Y-88162145D01*
X110020185Y-88095106D01*
X110072989Y-88049351D01*
X110142147Y-88039407D01*
X110205703Y-88068432D01*
X110221448Y-88084834D01*
X110240427Y-88108634D01*
X110240431Y-88108638D01*
X110240432Y-88108639D01*
X110491361Y-88359568D01*
X110768807Y-88580824D01*
X110995157Y-88723049D01*
X111069287Y-88769628D01*
X111388991Y-88923589D01*
X111389000Y-88923592D01*
X111389007Y-88923596D01*
X111455268Y-88946782D01*
X111723948Y-89040798D01*
X111723960Y-89040802D01*
X112069930Y-89119767D01*
X112422562Y-89159499D01*
X112422563Y-89159500D01*
X112422566Y-89159500D01*
X112777437Y-89159500D01*
X112777437Y-89159499D01*
X113130070Y-89119767D01*
X113476040Y-89040802D01*
X113810993Y-88923596D01*
X113826929Y-88915922D01*
X114130712Y-88769628D01*
X114130712Y-88769627D01*
X114130718Y-88769625D01*
X114431193Y-88580824D01*
X114708639Y-88359568D01*
X114959568Y-88108639D01*
X115135084Y-87888549D01*
X115799500Y-87888549D01*
X115799500Y-88111450D01*
X115799501Y-88111466D01*
X115828594Y-88332452D01*
X115828595Y-88332457D01*
X115828596Y-88332463D01*
X115880834Y-88527418D01*
X115886290Y-88547780D01*
X115886293Y-88547790D01*
X115958888Y-88723049D01*
X115971595Y-88753726D01*
X116083052Y-88946774D01*
X116083057Y-88946780D01*
X116083058Y-88946782D01*
X116218751Y-89123622D01*
X116218757Y-89123629D01*
X116376370Y-89281242D01*
X116376377Y-89281248D01*
X116499999Y-89376106D01*
X116553226Y-89416948D01*
X116746274Y-89528405D01*
X116876140Y-89582197D01*
X116921005Y-89600781D01*
X116952219Y-89613710D01*
X117167537Y-89671404D01*
X117388543Y-89700500D01*
X117388550Y-89700500D01*
X117611450Y-89700500D01*
X117611457Y-89700500D01*
X117832463Y-89671404D01*
X118047781Y-89613710D01*
X118253726Y-89528405D01*
X118438002Y-89422012D01*
X118505899Y-89405540D01*
X118561996Y-89422011D01*
X118746274Y-89528405D01*
X118876140Y-89582197D01*
X118921005Y-89600781D01*
X118952219Y-89613710D01*
X119167537Y-89671404D01*
X119388543Y-89700500D01*
X119388550Y-89700500D01*
X119611450Y-89700500D01*
X119611457Y-89700500D01*
X119832463Y-89671404D01*
X120047781Y-89613710D01*
X120253726Y-89528405D01*
X120446774Y-89416948D01*
X120623624Y-89281247D01*
X120781247Y-89123624D01*
X120870058Y-89007882D01*
X122345669Y-89007882D01*
X122345670Y-89007883D01*
X122371059Y-89026329D01*
X122539362Y-89112085D01*
X122718997Y-89170451D01*
X122905553Y-89200000D01*
X123094447Y-89200000D01*
X123281002Y-89170451D01*
X123460637Y-89112085D01*
X123628937Y-89026331D01*
X123654328Y-89007883D01*
X123654328Y-89007882D01*
X124345669Y-89007882D01*
X124345670Y-89007883D01*
X124371059Y-89026329D01*
X124539362Y-89112085D01*
X124718997Y-89170451D01*
X124905553Y-89200000D01*
X125094447Y-89200000D01*
X125281002Y-89170451D01*
X125460637Y-89112085D01*
X125628937Y-89026331D01*
X125654328Y-89007883D01*
X125654328Y-89007882D01*
X125000001Y-88353554D01*
X125000000Y-88353554D01*
X124345669Y-89007882D01*
X123654328Y-89007882D01*
X123000001Y-88353554D01*
X123000000Y-88353554D01*
X122345669Y-89007882D01*
X120870058Y-89007882D01*
X120916948Y-88946774D01*
X121028405Y-88753726D01*
X121113710Y-88547781D01*
X121171404Y-88332463D01*
X121200500Y-88111457D01*
X121200500Y-87905552D01*
X121800000Y-87905552D01*
X121800000Y-88094447D01*
X121829548Y-88281002D01*
X121887914Y-88460637D01*
X121973666Y-88628933D01*
X121992116Y-88654328D01*
X122646446Y-88000000D01*
X122646446Y-87999999D01*
X122600369Y-87953922D01*
X122650000Y-87953922D01*
X122650000Y-88046078D01*
X122673852Y-88135095D01*
X122719930Y-88214905D01*
X122785095Y-88280070D01*
X122864905Y-88326148D01*
X122953922Y-88350000D01*
X123046078Y-88350000D01*
X123135095Y-88326148D01*
X123214905Y-88280070D01*
X123280070Y-88214905D01*
X123326148Y-88135095D01*
X123350000Y-88046078D01*
X123350000Y-88000000D01*
X123353554Y-88000000D01*
X124000000Y-88646446D01*
X124646446Y-88000000D01*
X124600368Y-87953922D01*
X124650000Y-87953922D01*
X124650000Y-88046078D01*
X124673852Y-88135095D01*
X124719930Y-88214905D01*
X124785095Y-88280070D01*
X124864905Y-88326148D01*
X124953922Y-88350000D01*
X125046078Y-88350000D01*
X125135095Y-88326148D01*
X125214905Y-88280070D01*
X125280070Y-88214905D01*
X125326148Y-88135095D01*
X125350000Y-88046078D01*
X125350000Y-87999999D01*
X125353554Y-87999999D01*
X125353554Y-88000000D01*
X126007882Y-88654328D01*
X126007883Y-88654328D01*
X126026331Y-88628937D01*
X126112085Y-88460637D01*
X126170451Y-88281002D01*
X126200000Y-88094447D01*
X126200000Y-87905556D01*
X126198555Y-87896432D01*
X126198555Y-87896429D01*
X126196254Y-87881902D01*
X133399500Y-87881902D01*
X133399500Y-88118097D01*
X133436446Y-88351368D01*
X133509433Y-88575996D01*
X133584205Y-88722743D01*
X133616657Y-88786433D01*
X133755483Y-88977510D01*
X133922490Y-89144517D01*
X134113567Y-89283343D01*
X134197278Y-89325996D01*
X134324003Y-89390566D01*
X134324005Y-89390566D01*
X134324008Y-89390568D01*
X134444412Y-89429689D01*
X134548631Y-89463553D01*
X134781903Y-89500500D01*
X134781908Y-89500500D01*
X135018097Y-89500500D01*
X135251368Y-89463553D01*
X135267513Y-89458307D01*
X135475992Y-89390568D01*
X135686433Y-89283343D01*
X135877510Y-89144517D01*
X136042319Y-88979708D01*
X136103642Y-88946223D01*
X136173334Y-88951207D01*
X136217681Y-88979708D01*
X136382490Y-89144517D01*
X136573567Y-89283343D01*
X136657278Y-89325996D01*
X136784003Y-89390566D01*
X136784005Y-89390566D01*
X136784008Y-89390568D01*
X136904412Y-89429689D01*
X137008631Y-89463553D01*
X137241903Y-89500500D01*
X137241908Y-89500500D01*
X137478097Y-89500500D01*
X137711368Y-89463553D01*
X137727513Y-89458307D01*
X137935992Y-89390568D01*
X138146433Y-89283343D01*
X138337510Y-89144517D01*
X138504517Y-88977510D01*
X138529682Y-88942872D01*
X138585011Y-88900207D01*
X138654625Y-88894228D01*
X138716420Y-88926833D01*
X138730315Y-88942870D01*
X138755483Y-88977510D01*
X138922490Y-89144517D01*
X139113567Y-89283343D01*
X139197278Y-89325996D01*
X139324003Y-89390566D01*
X139324005Y-89390566D01*
X139324008Y-89390568D01*
X139444412Y-89429689D01*
X139548631Y-89463553D01*
X139781903Y-89500500D01*
X139781908Y-89500500D01*
X140018097Y-89500500D01*
X140251368Y-89463553D01*
X140267513Y-89458307D01*
X140475992Y-89390568D01*
X140686433Y-89283343D01*
X140877510Y-89144517D01*
X141044517Y-88977510D01*
X141183343Y-88786433D01*
X141288106Y-88580824D01*
X141290566Y-88575996D01*
X141290566Y-88575995D01*
X141290568Y-88575992D01*
X141363553Y-88351368D01*
X141366549Y-88332452D01*
X141400500Y-88118097D01*
X141400500Y-87881902D01*
X141363553Y-87648631D01*
X141306766Y-87473860D01*
X141290568Y-87424008D01*
X141290566Y-87424005D01*
X141290566Y-87424003D01*
X141220477Y-87286446D01*
X141183343Y-87213567D01*
X141044517Y-87022490D01*
X140877510Y-86855483D01*
X140686433Y-86716657D01*
X140475996Y-86609433D01*
X140251368Y-86536446D01*
X140018097Y-86499500D01*
X140018092Y-86499500D01*
X139781908Y-86499500D01*
X139781903Y-86499500D01*
X139548631Y-86536446D01*
X139324003Y-86609433D01*
X139113566Y-86716657D01*
X139004550Y-86795862D01*
X138922490Y-86855483D01*
X138922488Y-86855485D01*
X138922487Y-86855485D01*
X138755484Y-87022488D01*
X138755483Y-87022490D01*
X138732752Y-87053777D01*
X138730318Y-87057127D01*
X138674987Y-87099792D01*
X138605374Y-87105771D01*
X138543579Y-87073165D01*
X138529682Y-87057127D01*
X138504517Y-87022490D01*
X138337510Y-86855483D01*
X138146433Y-86716657D01*
X137935996Y-86609433D01*
X137711368Y-86536446D01*
X137478097Y-86499500D01*
X137478092Y-86499500D01*
X137241908Y-86499500D01*
X137241903Y-86499500D01*
X137008631Y-86536446D01*
X136784003Y-86609433D01*
X136573566Y-86716657D01*
X136464550Y-86795862D01*
X136382490Y-86855483D01*
X136382488Y-86855485D01*
X136382487Y-86855485D01*
X136217681Y-87020292D01*
X136156358Y-87053777D01*
X136086666Y-87048793D01*
X136042319Y-87020292D01*
X135877512Y-86855485D01*
X135877510Y-86855483D01*
X135686433Y-86716657D01*
X135475996Y-86609433D01*
X135251368Y-86536446D01*
X135018097Y-86499500D01*
X135018092Y-86499500D01*
X134781908Y-86499500D01*
X134781903Y-86499500D01*
X134548631Y-86536446D01*
X134324003Y-86609433D01*
X134113566Y-86716657D01*
X134004550Y-86795862D01*
X133922490Y-86855483D01*
X133922488Y-86855485D01*
X133922487Y-86855485D01*
X133755485Y-87022487D01*
X133755485Y-87022488D01*
X133755483Y-87022490D01*
X133699320Y-87099792D01*
X133616657Y-87213566D01*
X133509433Y-87424003D01*
X133436446Y-87648631D01*
X133399500Y-87881902D01*
X126196254Y-87881902D01*
X126170452Y-87718997D01*
X126112085Y-87539362D01*
X126026329Y-87371059D01*
X126007883Y-87345670D01*
X126007882Y-87345669D01*
X125353554Y-87999999D01*
X125350000Y-87999999D01*
X125350000Y-87953922D01*
X125326148Y-87864905D01*
X125280070Y-87785095D01*
X125214905Y-87719930D01*
X125135095Y-87673852D01*
X125046078Y-87650000D01*
X124953922Y-87650000D01*
X124864905Y-87673852D01*
X124785095Y-87719930D01*
X124719930Y-87785095D01*
X124673852Y-87864905D01*
X124650000Y-87953922D01*
X124600368Y-87953922D01*
X124000000Y-87353554D01*
X123353554Y-88000000D01*
X123350000Y-88000000D01*
X123350000Y-87953922D01*
X123326148Y-87864905D01*
X123280070Y-87785095D01*
X123214905Y-87719930D01*
X123135095Y-87673852D01*
X123046078Y-87650000D01*
X122953922Y-87650000D01*
X122864905Y-87673852D01*
X122785095Y-87719930D01*
X122719930Y-87785095D01*
X122673852Y-87864905D01*
X122650000Y-87953922D01*
X122600369Y-87953922D01*
X121992116Y-87345669D01*
X121992116Y-87345670D01*
X121973669Y-87371060D01*
X121887914Y-87539362D01*
X121829548Y-87718997D01*
X121800000Y-87905552D01*
X121200500Y-87905552D01*
X121200500Y-87888543D01*
X121171404Y-87667537D01*
X121113710Y-87452219D01*
X121028405Y-87246274D01*
X120916948Y-87053226D01*
X120870057Y-86992116D01*
X122345669Y-86992116D01*
X123000000Y-87646446D01*
X123000001Y-87646446D01*
X123654328Y-86992116D01*
X124345669Y-86992116D01*
X125000000Y-87646446D01*
X125000001Y-87646446D01*
X125654328Y-86992116D01*
X125628933Y-86973666D01*
X125460637Y-86887914D01*
X125281002Y-86829548D01*
X125094447Y-86800000D01*
X124905553Y-86800000D01*
X124718997Y-86829548D01*
X124539362Y-86887914D01*
X124371060Y-86973669D01*
X124345670Y-86992116D01*
X124345669Y-86992116D01*
X123654328Y-86992116D01*
X123628933Y-86973666D01*
X123460637Y-86887914D01*
X123281002Y-86829548D01*
X123094447Y-86800000D01*
X122905553Y-86800000D01*
X122718997Y-86829548D01*
X122539362Y-86887914D01*
X122371060Y-86973669D01*
X122345670Y-86992116D01*
X122345669Y-86992116D01*
X120870057Y-86992116D01*
X120802363Y-86903895D01*
X120781248Y-86876377D01*
X120781242Y-86876370D01*
X120623629Y-86718757D01*
X120623622Y-86718751D01*
X120446782Y-86583058D01*
X120446780Y-86583057D01*
X120446774Y-86583052D01*
X120253726Y-86471595D01*
X120253722Y-86471593D01*
X120047790Y-86386293D01*
X120047783Y-86386291D01*
X120047781Y-86386290D01*
X119832463Y-86328596D01*
X119832457Y-86328595D01*
X119832452Y-86328594D01*
X119611466Y-86299501D01*
X119611463Y-86299500D01*
X119611457Y-86299500D01*
X119388543Y-86299500D01*
X119388537Y-86299500D01*
X119388533Y-86299501D01*
X119167547Y-86328594D01*
X119167540Y-86328595D01*
X119167537Y-86328596D01*
X118977422Y-86379537D01*
X118952219Y-86386290D01*
X118952209Y-86386293D01*
X118746277Y-86471593D01*
X118746266Y-86471598D01*
X118562000Y-86577986D01*
X118494100Y-86594459D01*
X118438000Y-86577986D01*
X118253733Y-86471598D01*
X118253722Y-86471593D01*
X118047790Y-86386293D01*
X118047783Y-86386291D01*
X118047781Y-86386290D01*
X117832463Y-86328596D01*
X117832457Y-86328595D01*
X117832452Y-86328594D01*
X117611466Y-86299501D01*
X117611463Y-86299500D01*
X117611457Y-86299500D01*
X117388543Y-86299500D01*
X117388537Y-86299500D01*
X117388533Y-86299501D01*
X117167547Y-86328594D01*
X117167540Y-86328595D01*
X117167537Y-86328596D01*
X116977422Y-86379537D01*
X116952219Y-86386290D01*
X116952209Y-86386293D01*
X116746277Y-86471593D01*
X116746273Y-86471595D01*
X116553226Y-86583052D01*
X116553217Y-86583058D01*
X116376377Y-86718751D01*
X116376370Y-86718757D01*
X116218757Y-86876370D01*
X116218751Y-86876377D01*
X116083058Y-87053217D01*
X116083052Y-87053226D01*
X115971595Y-87246273D01*
X115971593Y-87246277D01*
X115886293Y-87452209D01*
X115886290Y-87452219D01*
X115828597Y-87667534D01*
X115828594Y-87667547D01*
X115799501Y-87888533D01*
X115799500Y-87888549D01*
X115135084Y-87888549D01*
X115180824Y-87831193D01*
X115369625Y-87530718D01*
X115442828Y-87378711D01*
X115523589Y-87211008D01*
X115523590Y-87211004D01*
X115523596Y-87210993D01*
X115640802Y-86876040D01*
X115719767Y-86530070D01*
X115759500Y-86177434D01*
X115759500Y-85822566D01*
X115719767Y-85469930D01*
X115640802Y-85123960D01*
X115523596Y-84789007D01*
X115523592Y-84789000D01*
X115523589Y-84788991D01*
X115369628Y-84469287D01*
X115330940Y-84407715D01*
X115180824Y-84168807D01*
X114959568Y-83891361D01*
X114780388Y-83712181D01*
X114746903Y-83650858D01*
X114751887Y-83581166D01*
X114793759Y-83525233D01*
X114859223Y-83500816D01*
X114868069Y-83500500D01*
X184581931Y-83500500D01*
X184648970Y-83520185D01*
G37*
%TD.AperFunction*%
%TD*%
M02*
