%TF.GenerationSoftware,KiCad,Pcbnew,9.0.6*%
%TF.CreationDate,2026-01-21T16:07:36-06:00*%
%TF.ProjectId,wearable,77656172-6162-46c6-952e-6b696361645f,rev?*%
%TF.SameCoordinates,Original*%
%TF.FileFunction,Copper,L1,Top*%
%TF.FilePolarity,Positive*%
%FSLAX46Y46*%
G04 Gerber Fmt 4.6, Leading zero omitted, Abs format (unit mm)*
G04 Created by KiCad (PCBNEW 9.0.6) date 2026-01-21 16:07:36*
%MOMM*%
%LPD*%
G01*
G04 APERTURE LIST*
G04 Aperture macros list*
%AMRoundRect*
0 Rectangle with rounded corners*
0 $1 Rounding radius*
0 $2 $3 $4 $5 $6 $7 $8 $9 X,Y pos of 4 corners*
0 Add a 4 corners polygon primitive as box body*
4,1,4,$2,$3,$4,$5,$6,$7,$8,$9,$2,$3,0*
0 Add four circle primitives for the rounded corners*
1,1,$1+$1,$2,$3*
1,1,$1+$1,$4,$5*
1,1,$1+$1,$6,$7*
1,1,$1+$1,$8,$9*
0 Add four rect primitives between the rounded corners*
20,1,$1+$1,$2,$3,$4,$5,0*
20,1,$1+$1,$4,$5,$6,$7,0*
20,1,$1+$1,$6,$7,$8,$9,0*
20,1,$1+$1,$8,$9,$2,$3,0*%
G04 Aperture macros list end*
%TA.AperFunction,SMDPad,CuDef*%
%ADD10RoundRect,0.200000X0.200000X-0.250000X0.200000X0.250000X-0.200000X0.250000X-0.200000X-0.250000X0*%
%TD*%
%TA.AperFunction,ComponentPad*%
%ADD11C,1.000000*%
%TD*%
%TA.AperFunction,SMDPad,CuDef*%
%ADD12RoundRect,0.135000X-0.135000X-0.185000X0.135000X-0.185000X0.135000X0.185000X-0.135000X0.185000X0*%
%TD*%
%TA.AperFunction,ComponentPad*%
%ADD13C,1.400000*%
%TD*%
%TA.AperFunction,SMDPad,CuDef*%
%ADD14RoundRect,0.140000X0.140000X0.170000X-0.140000X0.170000X-0.140000X-0.170000X0.140000X-0.170000X0*%
%TD*%
%TA.AperFunction,SMDPad,CuDef*%
%ADD15RoundRect,0.075000X-0.650000X-0.075000X0.650000X-0.075000X0.650000X0.075000X-0.650000X0.075000X0*%
%TD*%
%TA.AperFunction,HeatsinkPad*%
%ADD16R,1.680000X1.880000*%
%TD*%
%TA.AperFunction,SMDPad,CuDef*%
%ADD17RoundRect,0.100000X0.130000X0.100000X-0.130000X0.100000X-0.130000X-0.100000X0.130000X-0.100000X0*%
%TD*%
%TA.AperFunction,SMDPad,CuDef*%
%ADD18RoundRect,0.135000X0.185000X-0.135000X0.185000X0.135000X-0.185000X0.135000X-0.185000X-0.135000X0*%
%TD*%
%TA.AperFunction,SMDPad,CuDef*%
%ADD19RoundRect,0.140000X-0.140000X-0.170000X0.140000X-0.170000X0.140000X0.170000X-0.140000X0.170000X0*%
%TD*%
%TA.AperFunction,SMDPad,CuDef*%
%ADD20RoundRect,0.140000X0.170000X-0.140000X0.170000X0.140000X-0.170000X0.140000X-0.170000X-0.140000X0*%
%TD*%
%TA.AperFunction,ComponentPad*%
%ADD21C,4.318000*%
%TD*%
%TA.AperFunction,SMDPad,CuDef*%
%ADD22RoundRect,0.140000X-0.170000X0.140000X-0.170000X-0.140000X0.170000X-0.140000X0.170000X0.140000X0*%
%TD*%
%TA.AperFunction,SMDPad,CuDef*%
%ADD23RoundRect,0.135000X-0.185000X0.135000X-0.185000X-0.135000X0.185000X-0.135000X0.185000X0.135000X0*%
%TD*%
%TA.AperFunction,SMDPad,CuDef*%
%ADD24RoundRect,0.160000X0.160000X-0.222500X0.160000X0.222500X-0.160000X0.222500X-0.160000X-0.222500X0*%
%TD*%
%TA.AperFunction,ComponentPad*%
%ADD25R,0.850000X0.850000*%
%TD*%
%TA.AperFunction,SMDPad,CuDef*%
%ADD26RoundRect,0.135000X0.135000X0.185000X-0.135000X0.185000X-0.135000X-0.185000X0.135000X-0.185000X0*%
%TD*%
%TA.AperFunction,SMDPad,CuDef*%
%ADD27RoundRect,0.100000X-0.100000X0.130000X-0.100000X-0.130000X0.100000X-0.130000X0.100000X0.130000X0*%
%TD*%
%TA.AperFunction,SMDPad,CuDef*%
%ADD28RoundRect,0.050000X-0.350000X-0.050000X0.350000X-0.050000X0.350000X0.050000X-0.350000X0.050000X0*%
%TD*%
%TA.AperFunction,SMDPad,CuDef*%
%ADD29RoundRect,0.050000X-0.050000X-0.350000X0.050000X-0.350000X0.050000X0.350000X-0.050000X0.350000X0*%
%TD*%
%TA.AperFunction,HeatsinkPad*%
%ADD30R,4.600000X4.600000*%
%TD*%
%TA.AperFunction,SMDPad,CuDef*%
%ADD31R,1.800000X1.000000*%
%TD*%
%TA.AperFunction,SMDPad,CuDef*%
%ADD32RoundRect,0.100000X-0.130000X-0.100000X0.130000X-0.100000X0.130000X0.100000X-0.130000X0.100000X0*%
%TD*%
%TA.AperFunction,SMDPad,CuDef*%
%ADD33RoundRect,0.147500X-0.147500X-0.172500X0.147500X-0.172500X0.147500X0.172500X-0.147500X0.172500X0*%
%TD*%
%TA.AperFunction,SMDPad,CuDef*%
%ADD34RoundRect,0.218750X0.218750X0.256250X-0.218750X0.256250X-0.218750X-0.256250X0.218750X-0.256250X0*%
%TD*%
%TA.AperFunction,SMDPad,CuDef*%
%ADD35R,0.675000X0.250000*%
%TD*%
%TA.AperFunction,SMDPad,CuDef*%
%ADD36R,0.250000X0.575000*%
%TD*%
%TA.AperFunction,SMDPad,CuDef*%
%ADD37RoundRect,0.150000X-0.400000X0.150000X-0.400000X-0.150000X0.400000X-0.150000X0.400000X0.150000X0*%
%TD*%
%TA.AperFunction,SMDPad,CuDef*%
%ADD38RoundRect,0.150000X-0.150000X0.512500X-0.150000X-0.512500X0.150000X-0.512500X0.150000X0.512500X0*%
%TD*%
%TA.AperFunction,SMDPad,CuDef*%
%ADD39RoundRect,0.225000X-0.375000X0.225000X-0.375000X-0.225000X0.375000X-0.225000X0.375000X0.225000X0*%
%TD*%
%TA.AperFunction,ComponentPad*%
%ADD40R,1.000000X1.000000*%
%TD*%
%TA.AperFunction,SMDPad,CuDef*%
%ADD41R,2.400000X0.740000*%
%TD*%
%TA.AperFunction,ComponentPad*%
%ADD42R,1.700000X1.700000*%
%TD*%
%TA.AperFunction,ComponentPad*%
%ADD43C,1.700000*%
%TD*%
%TA.AperFunction,ComponentPad*%
%ADD44RoundRect,0.250000X-0.350000X-0.625000X0.350000X-0.625000X0.350000X0.625000X-0.350000X0.625000X0*%
%TD*%
%TA.AperFunction,ComponentPad*%
%ADD45O,1.200000X1.750000*%
%TD*%
%TA.AperFunction,SMDPad,CuDef*%
%ADD46RoundRect,0.062500X0.062500X-0.337500X0.062500X0.337500X-0.062500X0.337500X-0.062500X-0.337500X0*%
%TD*%
%TA.AperFunction,SMDPad,CuDef*%
%ADD47RoundRect,0.062500X0.337500X-0.062500X0.337500X0.062500X-0.337500X0.062500X-0.337500X-0.062500X0*%
%TD*%
%TA.AperFunction,HeatsinkPad*%
%ADD48C,0.500000*%
%TD*%
%TA.AperFunction,HeatsinkPad*%
%ADD49R,3.600000X3.600000*%
%TD*%
%TA.AperFunction,SMDPad,CuDef*%
%ADD50R,1.346200X0.279400*%
%TD*%
%TA.AperFunction,SMDPad,CuDef*%
%ADD51R,0.279400X1.346200*%
%TD*%
%TA.AperFunction,ViaPad*%
%ADD52C,0.600000*%
%TD*%
%TA.AperFunction,Conductor*%
%ADD53C,0.200000*%
%TD*%
%TA.AperFunction,Conductor*%
%ADD54C,0.500000*%
%TD*%
%TA.AperFunction,Conductor*%
%ADD55C,0.370000*%
%TD*%
%TA.AperFunction,Conductor*%
%ADD56C,1.000000*%
%TD*%
%TA.AperFunction,Conductor*%
%ADD57C,0.125000*%
%TD*%
%TA.AperFunction,Conductor*%
%ADD58C,0.250000*%
%TD*%
G04 APERTURE END LIST*
D10*
%TO.P,Y3,1,1*%
%TO.N,Net-(U2-XC1)*%
X158400000Y-98750000D03*
%TO.P,Y3,2,2*%
%TO.N,AVSS*%
X158400000Y-97350000D03*
%TO.P,Y3,3,3*%
%TO.N,Net-(U2-XC2)*%
X157300000Y-97350000D03*
%TO.P,Y3,4,4*%
%TO.N,AVSS*%
X157300000Y-98750000D03*
%TD*%
D11*
%TO.P,TP8,1,A*%
%TO.N,DRDY*%
X142000000Y-91500000D03*
%TD*%
D12*
%TO.P,R16,1*%
%TO.N,Net-(U4-NTC)*%
X170480000Y-90359660D03*
%TO.P,R16,2*%
%TO.N,AVSS*%
X171500000Y-90359660D03*
%TD*%
D11*
%TO.P,TP14,1,A*%
%TO.N,SCK*%
X144500000Y-90500000D03*
%TD*%
D13*
%TO.P,TP2,1,1*%
%TO.N,AVDD*%
X123000000Y-88000000D03*
X125000000Y-88000000D03*
%TD*%
D14*
%TO.P,C4,1*%
%TO.N,AVSS*%
X128500000Y-91500000D03*
%TO.P,C4,2*%
%TO.N,AVDD*%
X127540000Y-91500000D03*
%TD*%
D15*
%TO.P,U5,1,IN*%
%TO.N,+5V3*%
X178500000Y-92900000D03*
%TO.P,U5,2,IN*%
X178500000Y-93400000D03*
%TO.P,U5,3,EN/UV*%
%TO.N,Net-(U5-EN{slash}UV)*%
X178500000Y-93900000D03*
%TO.P,U5,4,PG*%
%TO.N,Net-(U5-PG)*%
X178500000Y-94400000D03*
%TO.P,U5,5,ILIM*%
%TO.N,Net-(U5-ILIM)*%
X178500000Y-94900000D03*
%TO.P,U5,6,PGFB*%
%TO.N,Net-(U5-PGFB)*%
X182800000Y-94900000D03*
%TO.P,U5,7,SET*%
%TO.N,Net-(U5-SET)*%
X182800000Y-94400000D03*
%TO.P,U5,8,GND*%
%TO.N,AVSS*%
X182800000Y-93900000D03*
%TO.P,U5,9,OUTS*%
%TO.N,AVDD*%
X182800000Y-93400000D03*
%TO.P,U5,10,OUT*%
X182800000Y-92900000D03*
D16*
%TO.P,U5,11,GND*%
%TO.N,AVSS*%
X180650000Y-93900000D03*
%TD*%
D11*
%TO.P,TP6,1,A*%
%TO.N,INT_BNO085*%
X139500000Y-112750000D03*
%TD*%
D12*
%TO.P,R7,1*%
%TO.N,Net-(U1-GPIO4)*%
X139600000Y-96530000D03*
%TO.P,R7,2*%
%TO.N,AVSS*%
X140620000Y-96530000D03*
%TD*%
D17*
%TO.P,C32,1*%
%TO.N,Net-(C32-Pad1)*%
X156390000Y-101320000D03*
%TO.P,C32,2*%
%TO.N,AVSS*%
X155750000Y-101320000D03*
%TD*%
D18*
%TO.P,R26,1*%
%TO.N,AVDD*%
X186750000Y-96110000D03*
%TO.P,R26,2*%
%TO.N,Net-(U5-PGFB)*%
X186750000Y-95090000D03*
%TD*%
D19*
%TO.P,C13,1*%
%TO.N,AVDD*%
X128520000Y-113500000D03*
%TO.P,C13,2*%
%TO.N,AVSS*%
X129480000Y-113500000D03*
%TD*%
D20*
%TO.P,C24,1*%
%TO.N,Net-(U2-DECA)*%
X152100000Y-97730000D03*
%TO.P,C24,2*%
%TO.N,AVSS*%
X152100000Y-96770000D03*
%TD*%
D12*
%TO.P,R9,1*%
%TO.N,Net-(U1-GPIO2)*%
X139600000Y-99500000D03*
%TO.P,R9,2*%
%TO.N,AVSS*%
X140620000Y-99500000D03*
%TD*%
D14*
%TO.P,C18,1*%
%TO.N,+3V3*%
X145500000Y-105500000D03*
%TO.P,C18,2*%
%TO.N,AVSS*%
X144540000Y-105500000D03*
%TD*%
%TO.P,C16,1*%
%TO.N,/XOUT*%
X146392500Y-113000000D03*
%TO.P,C16,2*%
%TO.N,AVSS*%
X145432500Y-113000000D03*
%TD*%
D21*
%TO.P,H4,1,Hole*%
%TO.N,unconnected-(H4-Hole-Pad1)*%
X186850000Y-117000000D03*
%TD*%
D22*
%TO.P,C22,1*%
%TO.N,Net-(U2-DECA)*%
X153600000Y-95520000D03*
%TO.P,C22,2*%
%TO.N,AVSS*%
X153600000Y-96480000D03*
%TD*%
D11*
%TO.P,TP15,1,A*%
%TO.N,SCL*%
X153500000Y-88750000D03*
%TD*%
D12*
%TO.P,R8,1*%
%TO.N,Net-(U1-GPIO3)*%
X139600000Y-98000000D03*
%TO.P,R8,2*%
%TO.N,AVSS*%
X140620000Y-98000000D03*
%TD*%
D23*
%TO.P,R27,1*%
%TO.N,Net-(U5-PGFB)*%
X184750000Y-95090000D03*
%TO.P,R27,2*%
%TO.N,AVSS*%
X184750000Y-96110000D03*
%TD*%
D14*
%TO.P,C30,1*%
%TO.N,Net-(U4-LSOUT2{slash}VOUTLDO2)*%
X163000000Y-95500000D03*
%TO.P,C30,2*%
%TO.N,AVSS*%
X162040000Y-95500000D03*
%TD*%
D21*
%TO.P,H1,1,Hole*%
%TO.N,unconnected-(H1-Hole-Pad1)*%
X112600000Y-86000000D03*
%TD*%
D12*
%TO.P,R17,1*%
%TO.N,Net-(U4-VSET1)*%
X170530000Y-91500000D03*
%TO.P,R17,2*%
%TO.N,AVSS*%
X171550000Y-91500000D03*
%TD*%
%TO.P,R12,1*%
%TO.N,RESET*%
X156480000Y-104000000D03*
%TO.P,R12,2*%
%TO.N,+3V3*%
X157500000Y-104000000D03*
%TD*%
D11*
%TO.P,TP4,1,A*%
%TO.N,RST_ADS1299*%
X137360000Y-88000000D03*
%TD*%
D23*
%TO.P,R6,1*%
%TO.N,+3V3*%
X136000000Y-106990000D03*
%TO.P,R6,2*%
%TO.N,Net-(U1-VREFP)*%
X136000000Y-108010000D03*
%TD*%
D24*
%TO.P,FB1,1*%
%TO.N,Net-(U2-DECD)*%
X152100000Y-95572500D03*
%TO.P,FB1,2*%
%TO.N,Net-(U2-DECA)*%
X152100000Y-94427500D03*
%TD*%
D20*
%TO.P,C34,1*%
%TO.N,Net-(U4-LSOUT1{slash}VOUTLDO1)*%
X163290000Y-94030000D03*
%TO.P,C34,2*%
%TO.N,AVSS*%
X163290000Y-93070000D03*
%TD*%
D22*
%TO.P,C49,1*%
%TO.N,AVDD*%
X186750000Y-97520000D03*
%TO.P,C49,2*%
%TO.N,AVSS*%
X186750000Y-98480000D03*
%TD*%
D20*
%TO.P,C19,1*%
%TO.N,+3V3*%
X147350000Y-95230000D03*
%TO.P,C19,2*%
%TO.N,AVSS*%
X147350000Y-94270000D03*
%TD*%
%TO.P,C37,1*%
%TO.N,Net-(U4-VOUT2)*%
X169550000Y-100230000D03*
%TO.P,C37,2*%
%TO.N,Net-(U4-PVSS2)*%
X169550000Y-99270000D03*
%TD*%
D11*
%TO.P,TP3,1,A*%
%TO.N,START_ADS1299*%
X134900000Y-88000000D03*
%TD*%
D19*
%TO.P,C27,1*%
%TO.N,RESET*%
X156400000Y-103010000D03*
%TO.P,C27,2*%
%TO.N,AVSS*%
X157360000Y-103010000D03*
%TD*%
D22*
%TO.P,C43,1*%
%TO.N,+5V3*%
X178500000Y-102265000D03*
%TO.P,C43,2*%
%TO.N,AVSS*%
X178500000Y-103225000D03*
%TD*%
D20*
%TO.P,C9,1*%
%TO.N,Net-(U1-VCAP3)*%
X129880000Y-92000000D03*
%TO.P,C9,2*%
%TO.N,AVSS*%
X129880000Y-91040000D03*
%TD*%
D14*
%TO.P,C44,1*%
%TO.N,+3V3*%
X179500000Y-108500000D03*
%TO.P,C44,2*%
%TO.N,AVSS*%
X178540000Y-108500000D03*
%TD*%
D25*
%TO.P,E3,1*%
%TO.N,Net-(E3-Pad1)*%
X113850000Y-101950000D03*
%TD*%
D11*
%TO.P,TP11,1,A*%
%TO.N,MISO*%
X137600000Y-114200000D03*
%TD*%
D20*
%TO.P,C1,1*%
%TO.N,Net-(U1-IN2P)*%
X120620000Y-97480000D03*
%TO.P,C1,2*%
%TO.N,Net-(U1-IN2N)*%
X120620000Y-96520000D03*
%TD*%
D14*
%TO.P,C45,1*%
%TO.N,+3V3*%
X182400000Y-97350000D03*
%TO.P,C45,2*%
%TO.N,AVSS*%
X181440000Y-97350000D03*
%TD*%
D11*
%TO.P,TP5,1,A*%
%TO.N,CS_ADS1299*%
X137250000Y-111500000D03*
%TD*%
D19*
%TO.P,C8,1*%
%TO.N,AVDD*%
X128500000Y-112000000D03*
%TO.P,C8,2*%
%TO.N,AVSS*%
X129460000Y-112000000D03*
%TD*%
D26*
%TO.P,R3,1*%
%TO.N,Net-(U1-IN1N)*%
X117790000Y-102000000D03*
%TO.P,R3,2*%
%TO.N,Net-(E3-Pad1)*%
X116770000Y-102000000D03*
%TD*%
D14*
%TO.P,C29,1*%
%TO.N,Net-(U4-LSOUT2{slash}VOUTLDO2)*%
X163000000Y-96970000D03*
%TO.P,C29,2*%
%TO.N,AVSS*%
X162040000Y-96970000D03*
%TD*%
D11*
%TO.P,TP10,1,A*%
%TO.N,BOOT_BNO085*%
X143500000Y-111000000D03*
%TD*%
D20*
%TO.P,C28,1*%
%TO.N,Net-(U4-LSOUT1{slash}VOUTLDO1)*%
X161500000Y-94010000D03*
%TO.P,C28,2*%
%TO.N,AVSS*%
X161500000Y-93050000D03*
%TD*%
D27*
%TO.P,C38,1*%
%TO.N,RF*%
X160975000Y-101250000D03*
%TO.P,C38,2*%
%TO.N,AVSS*%
X160975000Y-101890000D03*
%TD*%
D22*
%TO.P,C11,1*%
%TO.N,Net-(U1-VCAP1)*%
X132850000Y-109790000D03*
%TO.P,C11,2*%
%TO.N,AVSS*%
X132850000Y-110750000D03*
%TD*%
%TO.P,C25,1*%
%TO.N,+3V3*%
X154500000Y-106000000D03*
%TO.P,C25,2*%
%TO.N,AVSS*%
X154500000Y-106960000D03*
%TD*%
D26*
%TO.P,R1,1*%
%TO.N,Net-(U1-IN2N)*%
X117790000Y-96020000D03*
%TO.P,R1,2*%
%TO.N,Net-(E1-Pad1)*%
X116770000Y-96020000D03*
%TD*%
D24*
%TO.P,L5,1,1*%
%TO.N,Net-(U4-VOUT1)*%
X166550000Y-100145000D03*
%TO.P,L5,2,2*%
%TO.N,Net-(U4-SW1)*%
X166550000Y-99000000D03*
%TD*%
%TO.P,L7,1,1*%
%TO.N,+3V3*%
X182000000Y-108370000D03*
%TO.P,L7,2,2*%
%TO.N,Net-(D3-A)*%
X182000000Y-107225000D03*
%TD*%
D23*
%TO.P,R22,1*%
%TO.N,Net-(U5-ILIM)*%
X180000000Y-96590000D03*
%TO.P,R22,2*%
%TO.N,AVSS*%
X180000000Y-97610000D03*
%TD*%
D28*
%TO.P,U2,1,P1.00*%
%TO.N,Net-(U2-P1.00)*%
X148370000Y-99800000D03*
%TO.P,U2,2,P1.01*%
%TO.N,Net-(U2-P1.01)*%
X148370000Y-100200000D03*
%TO.P,U2,3,P1.02*%
%TO.N,START_ADS1299*%
X148370000Y-100600000D03*
%TO.P,U2,4,P1.03*%
%TO.N,RST_ADS1299*%
X148370000Y-101000000D03*
%TO.P,U2,5,P1.04*%
%TO.N,PWDWN_ADS1299*%
X148370000Y-101400000D03*
%TO.P,U2,6,P1.05*%
%TO.N,BOOT_BNO085*%
X148370000Y-101800000D03*
%TO.P,U2,7,P1.06*%
%TO.N,unconnected-(U2-P1.06-Pad7)*%
X148370000Y-102200000D03*
%TO.P,U2,8,P1.07*%
%TO.N,INT_BNO085*%
X148370000Y-102600000D03*
%TO.P,U2,9,P1.08*%
%TO.N,RST_BNO085*%
X148370000Y-103000000D03*
%TO.P,U2,10,VDD*%
%TO.N,+3V3*%
X148370000Y-103400000D03*
%TO.P,U2,11,P2.00*%
%TO.N,DRDY*%
X148370000Y-103800000D03*
%TO.P,U2,12,P2.01*%
%TO.N,SCK*%
X148370000Y-104200000D03*
D29*
%TO.P,U2,13,P2.02*%
%TO.N,MISO*%
X149120000Y-104950000D03*
%TO.P,U2,14,P2.03*%
%TO.N,MOSI*%
X149520000Y-104950000D03*
%TO.P,U2,15,P2.04*%
%TO.N,GPIO0*%
X149920000Y-104950000D03*
%TO.P,U2,16,P2.05*%
%TO.N,GPIO1*%
X150320000Y-104950000D03*
%TO.P,U2,17,P2.06*%
%TO.N,GPIO2*%
X150720000Y-104950000D03*
%TO.P,U2,18,P2.07*%
%TO.N,GPIO3*%
X151120000Y-104950000D03*
%TO.P,U2,19,P2.08*%
%TO.N,GPIO4*%
X151520000Y-104950000D03*
%TO.P,U2,20,P2.09*%
%TO.N,CS_BNO085*%
X151920000Y-104950000D03*
%TO.P,U2,21,P2.10*%
%TO.N,CS_ADS1299*%
X152320000Y-104950000D03*
%TO.P,U2,22,VDD*%
%TO.N,+3V3*%
X152720000Y-104950000D03*
%TO.P,U2,23,P0.00*%
%TO.N,unconnected-(U2-P0.00-Pad23)*%
X153120000Y-104950000D03*
%TO.P,U2,24,P0.01*%
%TO.N,unconnected-(U2-P0.01-Pad24)*%
X153520000Y-104950000D03*
D28*
%TO.P,U2,25,SWDIO*%
%TO.N,SWDCLK*%
X154270000Y-104200000D03*
%TO.P,U2,26,SWDCLK*%
%TO.N,SWDIO*%
X154270000Y-103800000D03*
%TO.P,U2,27,P0.02*%
%TO.N,SDA*%
X154270000Y-103400000D03*
%TO.P,U2,28,P0.03*%
%TO.N,SCL*%
X154270000Y-103000000D03*
%TO.P,U2,29,P0.04*%
%TO.N,unconnected-(U2-P0.04-Pad29)*%
X154270000Y-102600000D03*
%TO.P,U2,30,~{RESET}*%
%TO.N,RESET*%
X154270000Y-102200000D03*
%TO.P,U2,31,ANT*%
%TO.N,Net-(U2-ANT)*%
X154270000Y-101800000D03*
%TO.P,U2,32,VSS_PA*%
%TO.N,AVSS*%
X154270000Y-101400000D03*
%TO.P,U2,33,DECRF*%
%TO.N,Net-(U2-DECA)*%
X154270000Y-101000000D03*
%TO.P,U2,34,XC1*%
%TO.N,Net-(U2-XC1)*%
X154270000Y-100600000D03*
%TO.P,U2,35,XC2*%
%TO.N,Net-(U2-XC2)*%
X154270000Y-100200000D03*
%TO.P,U2,36,VDD*%
%TO.N,+3V3*%
X154270000Y-99800000D03*
D29*
%TO.P,U2,37,P1.09*%
%TO.N,unconnected-(U2-P1.09-Pad37)*%
X153520000Y-99050000D03*
%TO.P,U2,38,P1.10*%
%TO.N,unconnected-(U2-P1.10-Pad38)*%
X153120000Y-99050000D03*
%TO.P,U2,39,P1.11*%
%TO.N,unconnected-(U2-P1.11-Pad39)*%
X152720000Y-99050000D03*
%TO.P,U2,40,P1.12*%
%TO.N,unconnected-(U2-P1.12-Pad40)*%
X152320000Y-99050000D03*
%TO.P,U2,41,P1.13*%
%TO.N,unconnected-(U2-P1.13-Pad41)*%
X151920000Y-99050000D03*
%TO.P,U2,42,P1.14*%
%TO.N,unconnected-(U2-P1.14-Pad42)*%
X151520000Y-99050000D03*
%TO.P,U2,43,DECA*%
%TO.N,Net-(U2-DECA)*%
X151120000Y-99050000D03*
%TO.P,U2,44,VSS*%
%TO.N,AVSS*%
X150720000Y-99050000D03*
%TO.P,U2,45,DECD*%
%TO.N,Net-(U2-DECD)*%
X150320000Y-99050000D03*
%TO.P,U2,46,DCC*%
%TO.N,Net-(U2-DCC)*%
X149920000Y-99050000D03*
%TO.P,U2,47,VDD*%
%TO.N,+3V3*%
X149520000Y-99050000D03*
%TO.P,U2,48,VDD*%
X149120000Y-99050000D03*
D30*
%TO.P,U2,49,VSS*%
%TO.N,AVSS*%
X151320000Y-102000000D03*
%TD*%
D23*
%TO.P,R21,1*%
%TO.N,Net-(U6-FB)*%
X175500000Y-105500000D03*
%TO.P,R21,2*%
%TO.N,AVSS*%
X175500000Y-106520000D03*
%TD*%
D31*
%TO.P,Y2,1,1*%
%TO.N,/XIN*%
X148162500Y-115500000D03*
%TO.P,Y2,2,2*%
%TO.N,/XOUT*%
X148162500Y-113000000D03*
%TD*%
D12*
%TO.P,R10,1*%
%TO.N,Net-(U1-GPIO1)*%
X139500000Y-101000000D03*
%TO.P,R10,2*%
%TO.N,AVSS*%
X140520000Y-101000000D03*
%TD*%
D23*
%TO.P,R23,1*%
%TO.N,Net-(U5-EN{slash}UV)*%
X176920000Y-93650000D03*
%TO.P,R23,2*%
%TO.N,Net-(U5-PG)*%
X176920000Y-94670000D03*
%TD*%
D19*
%TO.P,C47,1*%
%TO.N,+3V3*%
X184040000Y-103500000D03*
%TO.P,C47,2*%
%TO.N,AVSS*%
X185000000Y-103500000D03*
%TD*%
D20*
%TO.P,C23,1*%
%TO.N,+3V3*%
X155500000Y-97980000D03*
%TO.P,C23,2*%
%TO.N,AVSS*%
X155500000Y-97020000D03*
%TD*%
D22*
%TO.P,C3,1*%
%TO.N,Net-(U1-BIASIN)*%
X119850000Y-107790000D03*
%TO.P,C3,2*%
%TO.N,Net-(U1-BIASINV)*%
X119850000Y-108750000D03*
%TD*%
D14*
%TO.P,C17,1*%
%TO.N,/XIN*%
X146392500Y-115500000D03*
%TO.P,C17,2*%
%TO.N,AVSS*%
X145432500Y-115500000D03*
%TD*%
D18*
%TO.P,R13,1*%
%TO.N,+3V3*%
X156662500Y-116635000D03*
%TO.P,R13,2*%
%TO.N,Net-(U3-PS0{slash}WAKE)*%
X156662500Y-115615000D03*
%TD*%
D20*
%TO.P,C15,1*%
%TO.N,AVSS*%
X134350000Y-110750000D03*
%TO.P,C15,2*%
%TO.N,Net-(U1-VCAP2)*%
X134350000Y-109790000D03*
%TD*%
D11*
%TO.P,TP9,1,A*%
%TO.N,MOSI*%
X141500000Y-111500000D03*
%TD*%
D26*
%TO.P,R4,1*%
%TO.N,Net-(U1-IN1P)*%
X117790000Y-104500000D03*
%TO.P,R4,2*%
%TO.N,Net-(E4-Pad1)*%
X116770000Y-104500000D03*
%TD*%
%TO.P,R15,1*%
%TO.N,Net-(D2-A)*%
X159510000Y-89500000D03*
%TO.P,R15,2*%
%TO.N,+3V3*%
X158490000Y-89500000D03*
%TD*%
D32*
%TO.P,L2,1,1*%
%TO.N,Net-(U2-ANT)*%
X155725000Y-102070000D03*
%TO.P,L2,2,2*%
%TO.N,Net-(C32-Pad1)*%
X156365000Y-102070000D03*
%TD*%
D12*
%TO.P,R11,1*%
%TO.N,+3V3*%
X152980000Y-116625000D03*
%TO.P,R11,2*%
%TO.N,Net-(U3-PS1)*%
X154000000Y-116625000D03*
%TD*%
D11*
%TO.P,TP13,1,A*%
%TO.N,SDA*%
X175400000Y-112200000D03*
%TD*%
D25*
%TO.P,E1,1*%
%TO.N,Net-(E1-Pad1)*%
X113850000Y-95850000D03*
%TD*%
D33*
%TO.P,D2,1,K*%
%TO.N,AVSS*%
X158515000Y-87750000D03*
%TO.P,D2,2,A*%
%TO.N,Net-(D2-A)*%
X159485000Y-87750000D03*
%TD*%
D25*
%TO.P,E5,1*%
%TO.N,Net-(U1-BIASIN)*%
X113850000Y-108250000D03*
%TD*%
D22*
%TO.P,C41,1*%
%TO.N,+5V3*%
X175500000Y-102520000D03*
%TO.P,C41,2*%
%TO.N,Net-(U6-FB)*%
X175500000Y-103480000D03*
%TD*%
D20*
%TO.P,C10,1*%
%TO.N,Net-(U1-VCAP3)*%
X131850000Y-92000000D03*
%TO.P,C10,2*%
%TO.N,AVSS*%
X131850000Y-91040000D03*
%TD*%
%TO.P,C2,1*%
%TO.N,Net-(U1-IN1P)*%
X120600000Y-103480000D03*
%TO.P,C2,2*%
%TO.N,Net-(U1-IN1N)*%
X120600000Y-102520000D03*
%TD*%
D11*
%TO.P,TP12,1,A*%
%TO.N,RST_BNO085*%
X145000000Y-108500000D03*
%TD*%
D34*
%TO.P,L1,1,1*%
%TO.N,Net-(U2-DECD)*%
X150637500Y-95000000D03*
%TO.P,L1,2,2*%
%TO.N,Net-(U2-DCC)*%
X149062500Y-95000000D03*
%TD*%
D32*
%TO.P,L3,1,1*%
%TO.N,Net-(C32-Pad1)*%
X157250000Y-101320000D03*
%TO.P,L3,2,2*%
%TO.N,Net-(C36-Pad1)*%
X157890000Y-101320000D03*
%TD*%
D35*
%TO.P,U3,1*%
%TO.N,N/C*%
X150687500Y-115062500D03*
D36*
%TO.P,U3,2,GND*%
%TO.N,AVSS*%
X151500000Y-115125000D03*
%TO.P,U3,3,VDD*%
%TO.N,+3V3*%
X152000000Y-115125000D03*
%TO.P,U3,4,~{BOOT}*%
%TO.N,BOOT_BNO085*%
X152500000Y-115125000D03*
%TO.P,U3,5,PS1*%
%TO.N,Net-(U3-PS1)*%
X153000000Y-115125000D03*
D35*
%TO.P,U3,6,PS0/WAKE*%
%TO.N,Net-(U3-PS0{slash}WAKE)*%
X153812500Y-115062500D03*
%TO.P,U3,7*%
%TO.N,N/C*%
X153812500Y-114562500D03*
%TO.P,U3,8*%
X153812500Y-114062500D03*
%TO.P,U3,9,CAP*%
%TO.N,/CAP*%
X153812500Y-113562500D03*
%TO.P,U3,10,CLKSEL0*%
%TO.N,AVSS*%
X153812500Y-113062500D03*
%TO.P,U3,11,~{RST}*%
%TO.N,RST_BNO085*%
X153812500Y-112562500D03*
%TO.P,U3,12*%
%TO.N,N/C*%
X153812500Y-112062500D03*
%TO.P,U3,13*%
X153812500Y-111562500D03*
%TO.P,U3,14,~{H_INT}*%
%TO.N,INT_BNO085*%
X153812500Y-111062500D03*
%TO.P,U3,15,ENV_SCL*%
%TO.N,unconnected-(U3-ENV_SCL-Pad15)*%
X153812500Y-110562500D03*
D36*
%TO.P,U3,16,ENV_SDA*%
%TO.N,unconnected-(U3-ENV_SDA-Pad16)*%
X153000000Y-110500000D03*
%TO.P,U3,17,SA0/H_MOSI*%
%TO.N,MOSI*%
X152500000Y-110500000D03*
%TO.P,U3,18,~{H_CS}*%
%TO.N,CS_BNO085*%
X152000000Y-110500000D03*
%TO.P,U3,19,H_SCL/SCK/RX*%
%TO.N,SCK*%
X151500000Y-110500000D03*
D35*
%TO.P,U3,20,H_SDA/H_MISO/TX*%
%TO.N,MISO*%
X150687500Y-110562500D03*
%TO.P,U3,21*%
%TO.N,N/C*%
X150687500Y-111062500D03*
%TO.P,U3,22*%
X150687500Y-111562500D03*
%TO.P,U3,23*%
X150687500Y-112062500D03*
%TO.P,U3,24*%
X150687500Y-112562500D03*
%TO.P,U3,25,GNDIO*%
%TO.N,AVSS*%
X150687500Y-113062500D03*
%TO.P,U3,26,XOUT32/CLKSEL1*%
%TO.N,/XOUT*%
X150687500Y-113562500D03*
%TO.P,U3,27,XIN32*%
%TO.N,/XIN*%
X150687500Y-114062500D03*
%TO.P,U3,28,VDDIO*%
%TO.N,+3V3*%
X150687500Y-114562500D03*
%TD*%
D37*
%TO.P,Y1,1,1*%
%TO.N,Net-(U2-P1.00)*%
X145500000Y-99250000D03*
%TO.P,Y1,2,2*%
%TO.N,Net-(U2-P1.01)*%
X145500000Y-100650000D03*
%TD*%
D26*
%TO.P,R14,1*%
%TO.N,Net-(D1-A)*%
X157000000Y-89500000D03*
%TO.P,R14,2*%
%TO.N,SCK*%
X155980000Y-89500000D03*
%TD*%
D38*
%TO.P,U6,1,SW*%
%TO.N,Net-(D3-A)*%
X179500000Y-104725000D03*
%TO.P,U6,2,GND*%
%TO.N,AVSS*%
X178550000Y-104725000D03*
%TO.P,U6,3,FB*%
%TO.N,Net-(U6-FB)*%
X177600000Y-104725000D03*
%TO.P,U6,4,EN*%
%TO.N,+3V3*%
X177600000Y-107000000D03*
%TO.P,U6,5,VIN*%
X179500000Y-107000000D03*
%TD*%
D23*
%TO.P,R24,1*%
%TO.N,+5V3*%
X177000000Y-102215000D03*
%TO.P,R24,2*%
%TO.N,Net-(U6-FB)*%
X177000000Y-103235000D03*
%TD*%
D25*
%TO.P,E4,1*%
%TO.N,Net-(E4-Pad1)*%
X113850000Y-105000000D03*
%TD*%
D39*
%TO.P,D3,1,K*%
%TO.N,+5V3*%
X182000000Y-101700000D03*
%TO.P,D3,2,A*%
%TO.N,Net-(D3-A)*%
X182000000Y-105000000D03*
%TD*%
D20*
%TO.P,C39,1*%
%TO.N,Net-(BT1-+)*%
X168000000Y-91000000D03*
%TO.P,C39,2*%
%TO.N,AVSS*%
X168000000Y-90040000D03*
%TD*%
D19*
%TO.P,C21,1*%
%TO.N,Net-(U2-DECD)*%
X149775000Y-97250000D03*
%TO.P,C21,2*%
%TO.N,AVSS*%
X150735000Y-97250000D03*
%TD*%
D24*
%TO.P,L6,1,1*%
%TO.N,Net-(U4-VOUT2)*%
X168050000Y-100145000D03*
%TO.P,L6,2,2*%
%TO.N,Net-(U4-SW2)*%
X168050000Y-99000000D03*
%TD*%
D20*
%TO.P,C48,1*%
%TO.N,Net-(U5-SET)*%
X186750000Y-93860000D03*
%TO.P,C48,2*%
%TO.N,AVSS*%
X186750000Y-92900000D03*
%TD*%
D13*
%TO.P,TP1,1,1*%
%TO.N,AVSS*%
X117500000Y-88000000D03*
X119500000Y-88000000D03*
%TD*%
D22*
%TO.P,C40,1*%
%TO.N,AVSS*%
X176920000Y-91390000D03*
%TO.P,C40,2*%
%TO.N,VDDIO*%
X176920000Y-92350000D03*
%TD*%
D20*
%TO.P,C14,1*%
%TO.N,+3V3*%
X136600000Y-95480000D03*
%TO.P,C14,2*%
%TO.N,AVSS*%
X136600000Y-94520000D03*
%TD*%
D21*
%TO.P,H3,1,Hole*%
%TO.N,unconnected-(H3-Hole-Pad1)*%
X186850000Y-86000000D03*
%TD*%
D19*
%TO.P,C20,1*%
%TO.N,+3V3*%
X147370000Y-97750000D03*
%TO.P,C20,2*%
%TO.N,AVSS*%
X148330000Y-97750000D03*
%TD*%
D33*
%TO.P,D1,1,K*%
%TO.N,AVSS*%
X156015000Y-87750000D03*
%TO.P,D1,2,A*%
%TO.N,Net-(D1-A)*%
X156985000Y-87750000D03*
%TD*%
D14*
%TO.P,C33,1*%
%TO.N,Net-(U4-VBUSOUT)*%
X163480000Y-90500000D03*
%TO.P,C33,2*%
%TO.N,AVSS*%
X162520000Y-90500000D03*
%TD*%
D27*
%TO.P,C36,1*%
%TO.N,Net-(C36-Pad1)*%
X158725000Y-101250000D03*
%TO.P,C36,2*%
%TO.N,AVSS*%
X158725000Y-101890000D03*
%TD*%
D20*
%TO.P,C26,1*%
%TO.N,/CAP*%
X156662500Y-113980000D03*
%TO.P,C26,2*%
%TO.N,AVSS*%
X156662500Y-113020000D03*
%TD*%
D19*
%TO.P,C6,1*%
%TO.N,AVDD*%
X126020000Y-111500000D03*
%TO.P,C6,2*%
%TO.N,AVSS*%
X126980000Y-111500000D03*
%TD*%
%TO.P,C7,1*%
%TO.N,Net-(U1-VREFP)*%
X128520000Y-110000000D03*
%TO.P,C7,2*%
%TO.N,Net-(U1-VREFN)*%
X129480000Y-110000000D03*
%TD*%
D40*
%TO.P,SW1,1,1*%
%TO.N,AVSS*%
X186250000Y-109000000D03*
D11*
%TO.P,SW1,2,2*%
%TO.N,Net-(U4-SHPHLD)*%
X186250000Y-107730000D03*
%TD*%
D18*
%TO.P,R25,1*%
%TO.N,Net-(U5-SET)*%
X184700000Y-93880000D03*
%TO.P,R25,2*%
%TO.N,AVSS*%
X184700000Y-92860000D03*
%TD*%
D11*
%TO.P,TP7,1,A*%
%TO.N,PWDWN_ADS1299*%
X139900000Y-88000000D03*
%TD*%
D32*
%TO.P,L4,1,1*%
%TO.N,Net-(C36-Pad1)*%
X159500000Y-101320000D03*
%TO.P,L4,2,2*%
%TO.N,RF*%
X160140000Y-101320000D03*
%TD*%
D41*
%TO.P,J2,1,Pin_1*%
%TO.N,+3V3*%
X160350000Y-111730000D03*
%TO.P,J2,2,Pin_2*%
%TO.N,SWDIO*%
X164250000Y-111730000D03*
%TO.P,J2,3,Pin_3*%
%TO.N,AVSS*%
X160350000Y-113000000D03*
%TO.P,J2,4,Pin_4*%
%TO.N,SWDCLK*%
X164250000Y-113000000D03*
%TO.P,J2,5,Pin_5*%
%TO.N,AVSS*%
X160350000Y-114270000D03*
%TO.P,J2,6,Pin_6*%
%TO.N,unconnected-(J2-Pin_6-Pad6)*%
X164250000Y-114270000D03*
%TO.P,J2,7,Pin_7*%
%TO.N,unconnected-(J2-Pin_7-Pad7)*%
X160350000Y-115540000D03*
%TO.P,J2,8,Pin_8*%
%TO.N,unconnected-(J2-Pin_8-Pad8)*%
X164250000Y-115540000D03*
%TO.P,J2,9,Pin_9*%
%TO.N,unconnected-(J2-Pin_9-Pad9)*%
X160350000Y-116810000D03*
%TO.P,J2,10,Pin_10*%
%TO.N,RESET*%
X164250000Y-116810000D03*
%TD*%
D19*
%TO.P,C35,1*%
%TO.N,Net-(U4-VOUT1)*%
X164270000Y-99500000D03*
%TO.P,C35,2*%
%TO.N,Net-(U4-PVSS1)*%
X165230000Y-99500000D03*
%TD*%
D21*
%TO.P,H2,1,Hole*%
%TO.N,unconnected-(H2-Hole-Pad1)*%
X112600000Y-117000000D03*
%TD*%
D18*
%TO.P,R18,1*%
%TO.N,Net-(U4-VSET2)*%
X173500000Y-92510000D03*
%TO.P,R18,2*%
%TO.N,AVSS*%
X173500000Y-91490000D03*
%TD*%
D42*
%TO.P,J1,1,Pin_1*%
%TO.N,unconnected-(J1-Pin_1-Pad1)*%
X162350000Y-87750000D03*
D43*
%TO.P,J1,2,Pin_2*%
%TO.N,+5V_USB*%
X164890000Y-87750000D03*
%TO.P,J1,3,Pin_3*%
%TO.N,unconnected-(J1-Pin_3-Pad3)*%
X167430000Y-87750000D03*
%TO.P,J1,4,Pin_4*%
%TO.N,Net-(J1-Pin_4)*%
X169970000Y-87750000D03*
%TO.P,J1,5,Pin_5*%
%TO.N,unconnected-(J1-Pin_5-Pad5)*%
X172510000Y-87750000D03*
%TO.P,J1,6,Pin_6*%
%TO.N,unconnected-(J1-Pin_6-Pad6)*%
X175050000Y-87750000D03*
%TO.P,J1,7,Pin_7*%
%TO.N,unconnected-(J1-Pin_7-Pad7)*%
X177590000Y-87750000D03*
%TO.P,J1,8,Pin_8*%
%TO.N,Net-(J1-Pin_8)*%
X180130000Y-87750000D03*
%TD*%
D23*
%TO.P,R5,1*%
%TO.N,Net-(U1-BIASIN)*%
X116850000Y-107750000D03*
%TO.P,R5,2*%
%TO.N,Net-(U1-BIASINV)*%
X116850000Y-108770000D03*
%TD*%
D19*
%TO.P,C42,1*%
%TO.N,+5V3*%
X178090000Y-91400000D03*
%TO.P,C42,2*%
%TO.N,AVSS*%
X179050000Y-91400000D03*
%TD*%
D44*
%TO.P,BT1,1,+*%
%TO.N,Net-(BT1-+)*%
X179500000Y-111550000D03*
D45*
%TO.P,BT1,2,-*%
%TO.N,AVSS*%
X181500000Y-111550000D03*
%TD*%
D19*
%TO.P,C31,1*%
%TO.N,Net-(U2-DECA)*%
X156500000Y-100250000D03*
%TO.P,C31,2*%
%TO.N,AVSS*%
X157460000Y-100250000D03*
%TD*%
%TO.P,C46,1*%
%TO.N,+3V3*%
X183940000Y-97370000D03*
%TO.P,C46,2*%
%TO.N,AVSS*%
X184900000Y-97370000D03*
%TD*%
D46*
%TO.P,U4,1,VOUT1*%
%TO.N,Net-(U4-VOUT1)*%
X165750000Y-97450000D03*
%TO.P,U4,2,PVSS1*%
%TO.N,Net-(U4-PVSS1)*%
X166250000Y-97450000D03*
%TO.P,U4,3,SW1*%
%TO.N,Net-(U4-SW1)*%
X166750000Y-97450000D03*
%TO.P,U4,4,PVDD*%
%TO.N,+3V3*%
X167250000Y-97450000D03*
%TO.P,U4,5,SW2*%
%TO.N,Net-(U4-SW2)*%
X167750000Y-97450000D03*
%TO.P,U4,6,PVSS2*%
%TO.N,Net-(U4-PVSS2)*%
X168250000Y-97450000D03*
%TO.P,U4,7,GPIO0*%
%TO.N,GPIO0*%
X168750000Y-97450000D03*
%TO.P,U4,8,GPIO1*%
%TO.N,GPIO1*%
X169250000Y-97450000D03*
D47*
%TO.P,U4,9,GPIO2*%
%TO.N,GPIO2*%
X169950000Y-96750000D03*
%TO.P,U4,10,GPIO3*%
%TO.N,GPIO3*%
X169950000Y-96250000D03*
%TO.P,U4,11,GPIO4*%
%TO.N,GPIO4*%
X169950000Y-95750000D03*
%TO.P,U4,12,VDDIO*%
%TO.N,VDDIO*%
X169950000Y-95250000D03*
%TO.P,U4,13,SDA*%
%TO.N,SDA*%
X169950000Y-94750000D03*
%TO.P,U4,14,SCL*%
%TO.N,SCL*%
X169950000Y-94250000D03*
%TO.P,U4,15,SHPHLD*%
%TO.N,Net-(U4-SHPHLD)*%
X169950000Y-93750000D03*
%TO.P,U4,16,VSET2*%
%TO.N,Net-(U4-VSET2)*%
X169950000Y-93250000D03*
D46*
%TO.P,U4,17,VSET1*%
%TO.N,Net-(U4-VSET1)*%
X169250000Y-92550000D03*
%TO.P,U4,18,NTC*%
%TO.N,Net-(U4-NTC)*%
X168750000Y-92550000D03*
%TO.P,U4,19,VBAT*%
%TO.N,Net-(BT1-+)*%
X168250000Y-92550000D03*
%TO.P,U4,20,VSYS*%
%TO.N,+3V3*%
X167750000Y-92550000D03*
%TO.P,U4,21,VBUS*%
%TO.N,+5V_USB*%
X167250000Y-92550000D03*
%TO.P,U4,22,VBUSOUT*%
%TO.N,Net-(U4-VBUSOUT)*%
X166750000Y-92550000D03*
%TO.P,U4,23,CC1*%
%TO.N,Net-(J1-Pin_4)*%
X166250000Y-92550000D03*
%TO.P,U4,24,CC2*%
%TO.N,Net-(J1-Pin_8)*%
X165750000Y-92550000D03*
D47*
%TO.P,U4,25,LED0*%
%TO.N,unconnected-(U4-LED0-Pad25)*%
X165050000Y-93250000D03*
%TO.P,U4,26,LED1*%
%TO.N,unconnected-(U4-LED1-Pad26)*%
X165050000Y-93750000D03*
%TO.P,U4,27,LED2*%
%TO.N,unconnected-(U4-LED2-Pad27)*%
X165050000Y-94250000D03*
%TO.P,U4,28,LSIN1/VINLDO1*%
%TO.N,VINLDO1*%
X165050000Y-94750000D03*
%TO.P,U4,29,LSOUT1/VOUTLDO1*%
%TO.N,Net-(U4-LSOUT1{slash}VOUTLDO1)*%
X165050000Y-95250000D03*
%TO.P,U4,30,LSIN2/VINLDO2*%
%TO.N,VINLDO2*%
X165050000Y-95750000D03*
%TO.P,U4,31,LSOUT2/VOUTLDO2*%
%TO.N,Net-(U4-LSOUT2{slash}VOUTLDO2)*%
X165050000Y-96250000D03*
%TO.P,U4,32,VOUT2*%
%TO.N,Net-(U4-VOUT2)*%
X165050000Y-96750000D03*
D48*
%TO.P,U4,33,AVSS*%
%TO.N,AVSS*%
X166500000Y-96000000D03*
X167500000Y-96000000D03*
X168500000Y-96000000D03*
X166500000Y-95000000D03*
X167500000Y-95000000D03*
D49*
X167500000Y-95000000D03*
D48*
X168500000Y-95000000D03*
X166500000Y-94000000D03*
X167500000Y-94000000D03*
X168500000Y-94000000D03*
%TD*%
D26*
%TO.P,R2,1*%
%TO.N,Net-(U1-IN2P)*%
X117765000Y-98250000D03*
%TO.P,R2,2*%
%TO.N,Net-(E2-Pad1)*%
X116745000Y-98250000D03*
%TD*%
D50*
%TO.P,U1,1,IN8N*%
%TO.N,AVDD*%
X123321500Y-96499999D03*
%TO.P,U1,2,IN8P*%
X123321500Y-96999998D03*
%TO.P,U1,3,IN7N*%
X123321500Y-97499999D03*
%TO.P,U1,4,IN7P*%
X123321500Y-97999998D03*
%TO.P,U1,5,IN6N*%
X123321500Y-98500000D03*
%TO.P,U1,6,IN6P*%
X123321500Y-98999999D03*
%TO.P,U1,7,IN5N*%
X123321500Y-99499998D03*
%TO.P,U1,8,IN5P*%
X123321500Y-99999999D03*
%TO.P,U1,9,IN4N*%
X123321500Y-100499999D03*
%TO.P,U1,10,IN4P*%
X123321500Y-101000000D03*
%TO.P,U1,11,IN3N*%
X123321500Y-101499999D03*
%TO.P,U1,12,IN3P*%
X123321500Y-101999998D03*
%TO.P,U1,13,IN2N*%
%TO.N,Net-(U1-IN2N)*%
X123321500Y-102500000D03*
%TO.P,U1,14,IN2P*%
%TO.N,Net-(U1-IN2P)*%
X123321500Y-102999999D03*
%TO.P,U1,15,IN1N*%
%TO.N,Net-(U1-IN1N)*%
X123321500Y-103500000D03*
%TO.P,U1,16,IN1P*%
%TO.N,Net-(U1-IN1P)*%
X123321500Y-103999999D03*
D51*
%TO.P,U1,17,SRB1*%
%TO.N,AVDD*%
X125350000Y-106028499D03*
%TO.P,U1,18,SRB2*%
X125849999Y-106028499D03*
%TO.P,U1,19,AVDD*%
X126350000Y-106028499D03*
%TO.P,U1,20,AVSS*%
%TO.N,AVSS*%
X126849999Y-106028499D03*
%TO.P,U1,21,AVDD*%
%TO.N,AVDD*%
X127350001Y-106028499D03*
%TO.P,U1,22,AVDD*%
X127850000Y-106028499D03*
%TO.P,U1,23,AVSS*%
%TO.N,AVSS*%
X128349999Y-106028499D03*
%TO.P,U1,24,VREFP*%
%TO.N,Net-(U1-VREFP)*%
X128850000Y-106028499D03*
%TO.P,U1,25,VREFN*%
%TO.N,Net-(U1-VREFN)*%
X129350000Y-106028499D03*
%TO.P,U1,26,VCAP4*%
%TO.N,Net-(U1-VCAP4)*%
X129850001Y-106028499D03*
%TO.P,U1,27,NC*%
%TO.N,unconnected-(U1-NC-Pad27)*%
X130350000Y-106028499D03*
%TO.P,U1,28,VCAP1*%
%TO.N,Net-(U1-VCAP1)*%
X130849999Y-106028499D03*
%TO.P,U1,29,NC*%
%TO.N,unconnected-(U1-NC-Pad29)*%
X131350001Y-106028499D03*
%TO.P,U1,30,VCAP2*%
%TO.N,Net-(U1-VCAP2)*%
X131850000Y-106028499D03*
%TO.P,U1,31,RESV1*%
%TO.N,AVSS*%
X132350001Y-106028499D03*
%TO.P,U1,32,AVSS*%
X132850000Y-106028499D03*
D50*
%TO.P,U1,33,DGND*%
X134878500Y-103999999D03*
%TO.P,U1,34,DIN*%
%TO.N,MOSI*%
X134878500Y-103500000D03*
%TO.P,U1,35,\u002APWDN*%
%TO.N,PWDWN_ADS1299*%
X134878500Y-102999999D03*
%TO.P,U1,36,\u002ARESET*%
%TO.N,RST_ADS1299*%
X134878500Y-102500000D03*
%TO.P,U1,37,CLK*%
%TO.N,unconnected-(U1-CLK-Pad37)*%
X134878500Y-101999998D03*
%TO.P,U1,38,START*%
%TO.N,START_ADS1299*%
X134878500Y-101499999D03*
%TO.P,U1,39,\u002ACS*%
%TO.N,CS_ADS1299*%
X134878500Y-101000000D03*
%TO.P,U1,40,SCLK*%
%TO.N,SCK*%
X134878500Y-100499999D03*
%TO.P,U1,41,DAISY_IN*%
%TO.N,unconnected-(U1-DAISY_IN-Pad41)*%
X134878500Y-99999999D03*
%TO.P,U1,42,GPIO1*%
%TO.N,Net-(U1-GPIO1)*%
X134878500Y-99499998D03*
%TO.P,U1,43,DOUT*%
%TO.N,MISO*%
X134878500Y-98999999D03*
%TO.P,U1,44,GPIO2*%
%TO.N,Net-(U1-GPIO2)*%
X134878500Y-98500000D03*
%TO.P,U1,45,GPIO3*%
%TO.N,Net-(U1-GPIO3)*%
X134878500Y-97999998D03*
%TO.P,U1,46,GPIO4*%
%TO.N,Net-(U1-GPIO4)*%
X134878500Y-97499999D03*
%TO.P,U1,47,\u002ADRDY*%
%TO.N,DRDY*%
X134878500Y-96999998D03*
%TO.P,U1,48,DVDD*%
%TO.N,+3V3*%
X134878500Y-96499999D03*
D51*
%TO.P,U1,49,DGND*%
%TO.N,AVSS*%
X132850000Y-94471499D03*
%TO.P,U1,50,DVDD*%
%TO.N,+3V3*%
X132350001Y-94471499D03*
%TO.P,U1,51,DGND*%
%TO.N,AVSS*%
X131850000Y-94471499D03*
%TO.P,U1,52,CLKSEL*%
%TO.N,+3V3*%
X131350001Y-94471499D03*
%TO.P,U1,53,AVSS1*%
%TO.N,AVSS*%
X130849999Y-94471499D03*
%TO.P,U1,54,AVDD1*%
%TO.N,AVDD*%
X130350000Y-94471499D03*
%TO.P,U1,55,VCAP3*%
%TO.N,Net-(U1-VCAP3)*%
X129850001Y-94471499D03*
%TO.P,U1,56,AVDD*%
%TO.N,AVDD*%
X129350000Y-94471499D03*
%TO.P,U1,57,AVSS*%
%TO.N,AVSS*%
X128850000Y-94471499D03*
%TO.P,U1,58,AVSS*%
X128349999Y-94471499D03*
%TO.P,U1,59,AVDD*%
%TO.N,AVDD*%
X127850000Y-94471499D03*
%TO.P,U1,60,BIASREF*%
%TO.N,unconnected-(U1-BIASREF-Pad60)*%
X127350001Y-94471499D03*
%TO.P,U1,61,BIASINV*%
%TO.N,Net-(U1-BIASINV)*%
X126849999Y-94471499D03*
%TO.P,U1,62,BIASIN*%
%TO.N,Net-(U1-BIASIN)*%
X126350000Y-94471499D03*
%TO.P,U1,63,BIASOUT*%
X125849999Y-94471499D03*
%TO.P,U1,64,RESERVED*%
%TO.N,unconnected-(U1-RESERVED-Pad64)*%
X125350000Y-94471499D03*
%TD*%
D13*
%TO.P,IC1,1*%
%TO.N,AVSS*%
X139500000Y-105460000D03*
%TO.P,IC1,2*%
%TO.N,Net-(U1-VREFP)*%
X139500000Y-108000000D03*
%TO.P,IC1,3*%
%TO.N,AVSS*%
X139500000Y-110540000D03*
%TD*%
D22*
%TO.P,C12,1*%
%TO.N,Net-(U1-VCAP4)*%
X131350000Y-109790000D03*
%TO.P,C12,2*%
%TO.N,AVSS*%
X131350000Y-110750000D03*
%TD*%
D25*
%TO.P,E2,1*%
%TO.N,Net-(E2-Pad1)*%
X113850000Y-98900000D03*
%TD*%
D18*
%TO.P,R20,1*%
%TO.N,VDDIO*%
X172550000Y-96405000D03*
%TO.P,R20,2*%
%TO.N,SDA*%
X172550000Y-95385000D03*
%TD*%
D26*
%TO.P,R19,1*%
%TO.N,VDDIO*%
X172510000Y-94135000D03*
%TO.P,R19,2*%
%TO.N,SCL*%
X171490000Y-94135000D03*
%TD*%
D22*
%TO.P,C5,1*%
%TO.N,AVDD*%
X125000000Y-109000000D03*
%TO.P,C5,2*%
%TO.N,AVSS*%
X125000000Y-109960000D03*
%TD*%
D52*
%TO.N,AVSS*%
X158400000Y-96100000D03*
X146000000Y-93000000D03*
X128400000Y-114654736D03*
X157777005Y-87371509D03*
X162000000Y-98000000D03*
X159750000Y-102019880D03*
X162000000Y-114800000D03*
X134500000Y-106000000D03*
X125900000Y-110600000D03*
X151580000Y-102000000D03*
X158000000Y-103000000D03*
X185000000Y-104090000D03*
X180950000Y-89950000D03*
X154603057Y-96457189D03*
X154500000Y-107750000D03*
X158250000Y-100250000D03*
X139160000Y-91960000D03*
X140800000Y-95500000D03*
%TO.N,Net-(BT1-+)*%
X169000000Y-90500000D03*
%TO.N,AVDD*%
X124100000Y-99200000D03*
X124250000Y-111250000D03*
X182920000Y-92268530D03*
X127540000Y-90540000D03*
X128500000Y-112800000D03*
X187500000Y-96750000D03*
X131000000Y-92600000D03*
X129000000Y-93000000D03*
%TO.N,+3V3*%
X139500000Y-93000000D03*
X146250000Y-105250000D03*
X136000000Y-106000000D03*
X176750000Y-107000000D03*
X158250000Y-104000000D03*
X170800000Y-101700000D03*
X153500000Y-106080001D03*
X157100000Y-91900000D03*
X147500000Y-99000000D03*
%TO.N,+5V3*%
X178500000Y-97750000D03*
X178090000Y-92410000D03*
%TO.N,RESET*%
X166000000Y-115200000D03*
X158877983Y-105616051D03*
%TO.N,INT_BNO085*%
X143992830Y-103604964D03*
X145075735Y-110924265D03*
X154750000Y-112420000D03*
%TO.N,BOOT_BNO085*%
X152812500Y-113625000D03*
X143200681Y-103493142D03*
%TO.N,PWDWN_ADS1299*%
X132420000Y-103080000D03*
%TO.N,RST_BNO085*%
X145000000Y-104500000D03*
X152814500Y-112314500D03*
%TO.N,START_ADS1299*%
X130920000Y-100650000D03*
%TO.N,RST_ADS1299*%
X131420000Y-101900000D03*
%TO.N,MISO*%
X148500000Y-106000000D03*
X146124265Y-110275736D03*
X138000000Y-99500000D03*
%TO.N,MOSI*%
X152500000Y-111500000D03*
X147000000Y-107500000D03*
%TO.N,SCL*%
X175000000Y-93121000D03*
X158468289Y-106303186D03*
%TO.N,SDA*%
X176250000Y-111250000D03*
X158341530Y-107425901D03*
X173500000Y-95385000D03*
X176218227Y-109213493D03*
%TO.N,SCK*%
X142851000Y-109149000D03*
X133000000Y-99500000D03*
X142750000Y-106900000D03*
X142000000Y-101000000D03*
%TO.N,CS_ADS1299*%
X133000000Y-100600000D03*
X155800003Y-112420000D03*
%TO.N,DRDY*%
X142900000Y-105242711D03*
X143000000Y-100500000D03*
X143000000Y-94000000D03*
%TO.N,GPIO1*%
X149000000Y-109000000D03*
X172018768Y-119000000D03*
%TO.N,GPIO0*%
X148000000Y-109000000D03*
X171000000Y-119000000D03*
%TO.N,Net-(U2-DECA)*%
X154499460Y-97230281D03*
X153000000Y-97730000D03*
X153000000Y-95000000D03*
X156500000Y-100250000D03*
%TO.N,Net-(J1-Pin_8)*%
X164500000Y-90968000D03*
%TO.N,Net-(J1-Pin_4)*%
X165500000Y-90968000D03*
%TO.N,GPIO3*%
X151000000Y-108000000D03*
X173578774Y-119000000D03*
%TO.N,GPIO2*%
X149758949Y-108650000D03*
X172798771Y-119000000D03*
%TO.N,GPIO4*%
X174358777Y-119000000D03*
X152000000Y-107500000D03*
%TO.N,Net-(U1-VREFP)*%
X135964878Y-109785122D03*
X130500000Y-110000000D03*
%TO.N,Net-(U4-VOUT2)*%
X163750000Y-98050000D03*
X170900000Y-100700000D03*
%TO.N,Net-(U4-SHPHLD)*%
X179375000Y-90128000D03*
%TD*%
D53*
%TO.N,AVSS*%
X158400000Y-97350000D02*
X158400000Y-96100000D01*
%TO.N,Net-(U2-XC1)*%
X158100000Y-99500000D02*
X158400000Y-99200000D01*
X155500000Y-99500000D02*
X158100000Y-99500000D01*
X155401000Y-99599000D02*
X155500000Y-99500000D01*
X155401000Y-100166100D02*
X155401000Y-99599000D01*
X158400000Y-99200000D02*
X158400000Y-98750000D01*
X154967100Y-100600000D02*
X155401000Y-100166100D01*
X154270000Y-100600000D02*
X154967100Y-100600000D01*
%TO.N,Net-(U2-XC2)*%
X157300000Y-97614222D02*
X157300000Y-97350000D01*
X155550000Y-98750000D02*
X156164222Y-98750000D01*
X155000000Y-99300000D02*
X155550000Y-98750000D01*
X156164222Y-98750000D02*
X157300000Y-97614222D01*
X154800000Y-100200000D02*
X155000000Y-100000000D01*
X155000000Y-100000000D02*
X155000000Y-99300000D01*
X154270000Y-100200000D02*
X154800000Y-100200000D01*
%TO.N,AVSS*%
X158400000Y-97385778D02*
X158400000Y-97350000D01*
X157300000Y-98485778D02*
X158400000Y-97385778D01*
X157300000Y-98750000D02*
X157300000Y-98485778D01*
D54*
X152100000Y-96770000D02*
X151215000Y-96770000D01*
D55*
X129480000Y-113720000D02*
X129480000Y-113500000D01*
D53*
X150888500Y-116301000D02*
X146233500Y-116301000D01*
D54*
X180500000Y-89398000D02*
X171500000Y-89398000D01*
D55*
X160845120Y-102019880D02*
X159750000Y-102019880D01*
D53*
X128349999Y-109150001D02*
X128349999Y-106028499D01*
X126849999Y-105113701D02*
X126909301Y-105054399D01*
D54*
X163290000Y-93070000D02*
X163290000Y-92710000D01*
X162500000Y-93070000D02*
X161520000Y-93070000D01*
X160500000Y-95200000D02*
X160800000Y-95500000D01*
D53*
X126909301Y-105054399D02*
X128290700Y-105054399D01*
D55*
X155750000Y-101320000D02*
X155617308Y-101320000D01*
D54*
X171560000Y-91490000D02*
X171550000Y-91500000D01*
X157384496Y-86979000D02*
X156585504Y-86979000D01*
X184720000Y-96130000D02*
X184720000Y-96140000D01*
X136600000Y-94520000D02*
X139160000Y-91960000D01*
X162040000Y-96970000D02*
X162030000Y-96960000D01*
D53*
X151500000Y-115689500D02*
X151500000Y-115125000D01*
D54*
X154500000Y-108000000D02*
X156662500Y-110162500D01*
D53*
X153812500Y-113062500D02*
X156620000Y-113062500D01*
D54*
X154580246Y-96480000D02*
X154603057Y-96457189D01*
X163290000Y-93070000D02*
X161290318Y-93070000D01*
X187059999Y-92900000D02*
X186750000Y-92900000D01*
X140620000Y-99500000D02*
X140620000Y-96530000D01*
X178500000Y-104675000D02*
X178550000Y-104725000D01*
X162550000Y-93070000D02*
X162500000Y-93070000D01*
D53*
X125949024Y-109960000D02*
X125000000Y-109960000D01*
X127750000Y-110730000D02*
X127750000Y-109750000D01*
X131850000Y-94471499D02*
X131850000Y-93150000D01*
D54*
X171500000Y-89398000D02*
X171500000Y-90359660D01*
X148111000Y-97531000D02*
X148330000Y-97750000D01*
X168642000Y-89398000D02*
X168000000Y-90040000D01*
X181440000Y-96250000D02*
X181440000Y-94690000D01*
X185000000Y-104090000D02*
X185000000Y-103500000D01*
X184750000Y-96110000D02*
X181580000Y-96110000D01*
X140600000Y-96510000D02*
X140620000Y-96530000D01*
X160350000Y-113750000D02*
X160350000Y-114270000D01*
X179050000Y-91090001D02*
X179050000Y-91400000D01*
X184900000Y-97900000D02*
X185500000Y-98500000D01*
D53*
X131567100Y-93000000D02*
X132000000Y-93000000D01*
D54*
X188981000Y-94821001D02*
X187059999Y-92900000D01*
X129500000Y-112000000D02*
X130750000Y-110750000D01*
X140600000Y-95700000D02*
X140600000Y-96510000D01*
D53*
X182800000Y-93900000D02*
X180650000Y-93900000D01*
X150720000Y-99050000D02*
X150720000Y-101400000D01*
D54*
X140600000Y-99520000D02*
X140620000Y-99500000D01*
D55*
X126980000Y-113234736D02*
X126980000Y-111500000D01*
D54*
X134000000Y-94200000D02*
X134271499Y-94471499D01*
X153310000Y-96770000D02*
X152100000Y-96770000D01*
X161981000Y-114739000D02*
X160819000Y-114739000D01*
D53*
X133728501Y-94471499D02*
X132850000Y-94471499D01*
X126980000Y-111500000D02*
X127750000Y-110730000D01*
X157460000Y-100250000D02*
X158250000Y-100250000D01*
D54*
X175500000Y-106789999D02*
X177210001Y-108500000D01*
D53*
X150687500Y-113062500D02*
X151100000Y-113062500D01*
D54*
X186600000Y-92750000D02*
X186750000Y-92900000D01*
X179230001Y-109500000D02*
X179500000Y-109500000D01*
X180260000Y-97350000D02*
X180000000Y-97610000D01*
X132000000Y-93000000D02*
X131662075Y-93000000D01*
X154500000Y-107750000D02*
X154500000Y-106960000D01*
D55*
X125260000Y-109960000D02*
X125000000Y-109960000D01*
D54*
X181440000Y-97350000D02*
X181440000Y-96250000D01*
X188303791Y-98480000D02*
X188981000Y-97802791D01*
D53*
X134878500Y-103999999D02*
X134878500Y-105621500D01*
X132350001Y-105113700D02*
X132350001Y-106028499D01*
D54*
X161290318Y-93070000D02*
X160500000Y-93860318D01*
D55*
X128400000Y-114654736D02*
X128545264Y-114654736D01*
D54*
X178500000Y-103225000D02*
X178500000Y-104675000D01*
D55*
X158854880Y-102019880D02*
X159750000Y-102019880D01*
D54*
X129460000Y-112000000D02*
X129460000Y-113480000D01*
X131350000Y-110750000D02*
X134350000Y-110750000D01*
X178550000Y-105650000D02*
X178550000Y-104725000D01*
X139500000Y-105460000D02*
X141577925Y-105460000D01*
D53*
X128349999Y-94471499D02*
X128349999Y-91650001D01*
D54*
X181250000Y-90250000D02*
X181250000Y-91187924D01*
X181550000Y-111500000D02*
X181500000Y-111550000D01*
X177671000Y-90639000D02*
X178598999Y-90639000D01*
X184750000Y-96110000D02*
X184900000Y-96260000D01*
D53*
X134000000Y-94200000D02*
X133728501Y-94471499D01*
D54*
X157370000Y-103000000D02*
X157360000Y-103010000D01*
X132000000Y-93000000D02*
X134000000Y-93000000D01*
X181500000Y-111250000D02*
X181500000Y-111550000D01*
X134000000Y-92000000D02*
X134000000Y-93000000D01*
X178313500Y-105886500D02*
X178550000Y-105650000D01*
X188981000Y-97802791D02*
X188981000Y-94821001D01*
X181037924Y-91400000D02*
X179050000Y-91400000D01*
D53*
X126849999Y-106028499D02*
X126849999Y-105113701D01*
D54*
X161520000Y-93070000D02*
X161500000Y-93050000D01*
D53*
X149187500Y-111875000D02*
X146557500Y-111875000D01*
D54*
X173500000Y-91490000D02*
X171560000Y-91490000D01*
X154937189Y-96457189D02*
X155500000Y-97020000D01*
X160800000Y-95500000D02*
X162040000Y-95500000D01*
X153600000Y-96480000D02*
X153310000Y-96770000D01*
X154500000Y-106960000D02*
X154658318Y-106960000D01*
D53*
X154270000Y-101400000D02*
X152180000Y-101400000D01*
D54*
X162040000Y-95500000D02*
X162040000Y-96250000D01*
X181440000Y-94690000D02*
X180650000Y-93900000D01*
D53*
X152180000Y-101400000D02*
X151580000Y-102000000D01*
D54*
X179050000Y-91400000D02*
X180650000Y-93000000D01*
X162040000Y-96970000D02*
X162040000Y-97960000D01*
X163290000Y-93070000D02*
X162550000Y-93070000D01*
X130750000Y-110750000D02*
X131350000Y-110750000D01*
X129460000Y-113480000D02*
X129480000Y-113500000D01*
D53*
X130849999Y-93717101D02*
X131567100Y-93000000D01*
X152525057Y-113062500D02*
X150687500Y-113062500D01*
D54*
X143489000Y-104449000D02*
X142588925Y-104449000D01*
D53*
X146233500Y-116301000D02*
X145432500Y-115500000D01*
D54*
X181440000Y-97350000D02*
X180260000Y-97350000D01*
X162010000Y-90500000D02*
X161500000Y-91010000D01*
X158273332Y-87508332D02*
X158515000Y-87750000D01*
X180950000Y-89950000D02*
X181250000Y-90250000D01*
X140600000Y-100920000D02*
X140600000Y-99520000D01*
X178540000Y-108500000D02*
X178540000Y-108809999D01*
X180500000Y-89500000D02*
X180950000Y-89950000D01*
X186420001Y-98500000D02*
X186440001Y-98480000D01*
X162040000Y-97960000D02*
X162000000Y-98000000D01*
X179500000Y-109500000D02*
X180194000Y-110194000D01*
X146000000Y-93000000D02*
X147080318Y-94080318D01*
X175500000Y-106520000D02*
X175819999Y-106520000D01*
X180194000Y-110194000D02*
X180444000Y-110194000D01*
X154500000Y-107750000D02*
X154500000Y-108000000D01*
X180444000Y-110194000D02*
X181500000Y-111250000D01*
D53*
X128290700Y-105054399D02*
X132290700Y-105054399D01*
D54*
X154603057Y-96457189D02*
X154937189Y-96457189D01*
D53*
X146557500Y-111875000D02*
X145432500Y-113000000D01*
D54*
X148111000Y-94841318D02*
X148111000Y-97531000D01*
X160819000Y-114739000D02*
X160350000Y-114270000D01*
D53*
X126849999Y-106028499D02*
X126849999Y-109059025D01*
D54*
X162000000Y-114800000D02*
X161981000Y-114800000D01*
D55*
X158725000Y-101890000D02*
X158854880Y-102019880D01*
D54*
X171500000Y-89398000D02*
X168642000Y-89398000D01*
X133040000Y-91040000D02*
X134000000Y-92000000D01*
D53*
X182800000Y-93900000D02*
X182041176Y-93900000D01*
D54*
X157777005Y-87371509D02*
X157384496Y-86979000D01*
D53*
X128349999Y-91650001D02*
X128500000Y-91500000D01*
X136551499Y-94471499D02*
X136600000Y-94520000D01*
X127750000Y-109750000D02*
X128349999Y-109150001D01*
D54*
X176920000Y-91390000D02*
X177671000Y-90639000D01*
D53*
X155670000Y-101400000D02*
X154270000Y-101400000D01*
D54*
X129460000Y-112000000D02*
X129500000Y-112000000D01*
X161500000Y-91010000D02*
X161500000Y-93050000D01*
X160350000Y-113000000D02*
X160350000Y-113750000D01*
D53*
X131850000Y-93150000D02*
X132000000Y-93000000D01*
D54*
X175819999Y-106520000D02*
X176453499Y-105886500D01*
D53*
X132350001Y-106028499D02*
X132850000Y-106028499D01*
D54*
X156585504Y-86979000D02*
X156015000Y-87549504D01*
D55*
X128545264Y-114654736D02*
X129480000Y-113720000D01*
D54*
X155125000Y-96645000D02*
X155500000Y-97020000D01*
D55*
X160975000Y-101890000D02*
X160845120Y-102019880D01*
X128400000Y-114654736D02*
X126980000Y-113234736D01*
D53*
X126880000Y-106058500D02*
X126849999Y-106028499D01*
X149500000Y-113000000D02*
X149500000Y-112187500D01*
D54*
X161981000Y-114800000D02*
X161981000Y-114739000D01*
D53*
X128290700Y-105054399D02*
X128349999Y-105113698D01*
D54*
X184900000Y-97370000D02*
X184900000Y-97900000D01*
D53*
X153037443Y-113000000D02*
X152587557Y-113000000D01*
D54*
X160650000Y-113000000D02*
X160350000Y-113000000D01*
X178598999Y-90639000D02*
X179050000Y-91090001D01*
D53*
X151500000Y-115689500D02*
X150888500Y-116301000D01*
X128349999Y-105113698D02*
X128349999Y-106028499D01*
D54*
X176453499Y-105886500D02*
X178313500Y-105886500D01*
X184900000Y-96260000D02*
X184900000Y-97370000D01*
D53*
X152587557Y-113000000D02*
X152525057Y-113062500D01*
D54*
X184810000Y-92750000D02*
X186600000Y-92750000D01*
D53*
X149562500Y-113062500D02*
X150687500Y-113062500D01*
X126849999Y-109059025D02*
X125949024Y-109960000D01*
D54*
X140520000Y-101000000D02*
X140600000Y-100920000D01*
X140800000Y-95500000D02*
X140600000Y-95700000D01*
X131850000Y-91040000D02*
X133040000Y-91040000D01*
X177210001Y-108500000D02*
X178540000Y-108500000D01*
D55*
X125900000Y-110600000D02*
X125260000Y-109960000D01*
D53*
X155750000Y-101320000D02*
X155670000Y-101400000D01*
D54*
X142588925Y-104449000D02*
X141577925Y-105460000D01*
X186750000Y-98480000D02*
X188303791Y-98480000D01*
X147080318Y-94080318D02*
X147350000Y-94080318D01*
X128960000Y-91040000D02*
X128500000Y-91500000D01*
D53*
X149500000Y-113000000D02*
X149562500Y-113062500D01*
D54*
X156662500Y-110162500D02*
X156662500Y-113020000D01*
X156015000Y-87549504D02*
X156015000Y-87750000D01*
X181250000Y-91187924D02*
X181037924Y-91400000D01*
X184700000Y-92860000D02*
X184810000Y-92750000D01*
D53*
X153099943Y-113062500D02*
X153037443Y-113000000D01*
D54*
X180650000Y-93000000D02*
X180650000Y-93900000D01*
D53*
X132290700Y-105054399D02*
X132350001Y-105113700D01*
D54*
X151215000Y-96770000D02*
X150735000Y-97250000D01*
X134271499Y-94471499D02*
X136551499Y-94471499D01*
X171500000Y-90359660D02*
X171500000Y-91450000D01*
D53*
X130849999Y-94471499D02*
X130849999Y-93717101D01*
D54*
X158000000Y-103000000D02*
X157370000Y-103000000D01*
X175500000Y-106520000D02*
X175500000Y-106789999D01*
X162040000Y-96250000D02*
X162040000Y-96970000D01*
X180500000Y-89398000D02*
X180500000Y-89500000D01*
D53*
X134471501Y-106028499D02*
X132850000Y-106028499D01*
D54*
X131850000Y-91040000D02*
X129880000Y-91040000D01*
X160500000Y-93860318D02*
X160500000Y-95200000D01*
D53*
X156620000Y-113062500D02*
X156662500Y-113020000D01*
D54*
X178540000Y-108809999D02*
X179230001Y-109500000D01*
D53*
X134878500Y-105621500D02*
X134471501Y-106028499D01*
D54*
X185500000Y-98500000D02*
X186420001Y-98500000D01*
D53*
X153812500Y-113062500D02*
X153099943Y-113062500D01*
X150720000Y-97265000D02*
X150735000Y-97250000D01*
D54*
X157913828Y-87508332D02*
X158273332Y-87508332D01*
X153600000Y-96480000D02*
X154580246Y-96480000D01*
X147350000Y-94080318D02*
X148111000Y-94841318D01*
X144540000Y-105500000D02*
X143489000Y-104449000D01*
X184700000Y-96110000D02*
X184720000Y-96130000D01*
X129880000Y-91040000D02*
X128960000Y-91040000D01*
X131662075Y-93000000D02*
X131614587Y-93047488D01*
X145432500Y-113000000D02*
X145432500Y-115500000D01*
X178550000Y-108490000D02*
X178540000Y-108500000D01*
X157777005Y-87371509D02*
X157913828Y-87508332D01*
X171500000Y-91450000D02*
X171550000Y-91500000D01*
D53*
X128349999Y-94471499D02*
X128850000Y-94471499D01*
D54*
X162520000Y-90500000D02*
X162010000Y-90500000D01*
X134000000Y-93000000D02*
X134000000Y-94200000D01*
D53*
X149500000Y-112187500D02*
X149187500Y-111875000D01*
X150720000Y-99050000D02*
X150720000Y-97265000D01*
D54*
%TO.N,Net-(BT1-+)*%
X169000000Y-90500000D02*
X168500000Y-91000000D01*
X168500000Y-91000000D02*
X168000000Y-91000000D01*
D53*
X168250000Y-91250000D02*
X168000000Y-91000000D01*
X168250000Y-92550000D02*
X168250000Y-91250000D01*
D54*
%TO.N,AVDD*%
X123321500Y-99200000D02*
X123321500Y-101909300D01*
D55*
X126250000Y-109000000D02*
X126250000Y-106128499D01*
X124500000Y-111500000D02*
X126020000Y-111500000D01*
D54*
X123321500Y-96499999D02*
X123321500Y-99200000D01*
D53*
X127540000Y-90540000D02*
X127500000Y-90500000D01*
X127850000Y-106028499D02*
X127850000Y-107350000D01*
X126514000Y-111006000D02*
X126020000Y-111500000D01*
D54*
X124100000Y-99200000D02*
X123321500Y-99200000D01*
D53*
X127369000Y-107831000D02*
X127369000Y-110151000D01*
X129350000Y-93350000D02*
X129000000Y-93000000D01*
X126786976Y-110724001D02*
X126514000Y-110996977D01*
X130350000Y-93650000D02*
X130350000Y-94471499D01*
X127369000Y-110151000D02*
X126795999Y-110724001D01*
D54*
X127540000Y-90540000D02*
X127540000Y-91500000D01*
D55*
X124000000Y-111000000D02*
X124250000Y-111250000D01*
D53*
X127850000Y-107350000D02*
X127369000Y-107831000D01*
X123321500Y-96499999D02*
X123321500Y-96500000D01*
X123321500Y-99978500D02*
X123321500Y-101499999D01*
D55*
X124300000Y-109100000D02*
X124000000Y-109400000D01*
X124250000Y-111250000D02*
X124500000Y-111500000D01*
X125000000Y-109000000D02*
X124900000Y-109100000D01*
D54*
X186750000Y-96750000D02*
X186750000Y-97520000D01*
D55*
X126250000Y-106128499D02*
X126344299Y-106034200D01*
D54*
X182901000Y-93299000D02*
X182920000Y-93299000D01*
X125350000Y-106028499D02*
X125330137Y-106028499D01*
D53*
X126514000Y-110996977D02*
X126514000Y-111006000D01*
D54*
X125350000Y-106028499D02*
X126259299Y-106028499D01*
X128500000Y-113480000D02*
X128520000Y-113500000D01*
X187500000Y-96750000D02*
X186750000Y-96750000D01*
X127540000Y-90540000D02*
X125000000Y-88000000D01*
D55*
X124900000Y-109100000D02*
X124300000Y-109100000D01*
D54*
X128500000Y-112000000D02*
X128500000Y-112800000D01*
X127440699Y-106028499D02*
X127759299Y-106028499D01*
D53*
X127850000Y-91810000D02*
X127540000Y-91500000D01*
D54*
X186750000Y-97520000D02*
X186750000Y-96110000D01*
D55*
X126344299Y-106034200D02*
X126344299Y-106028499D01*
D53*
X131000000Y-93000000D02*
X130350000Y-93650000D01*
D54*
X128500000Y-112800000D02*
X128500000Y-113480000D01*
X182920000Y-93280000D02*
X182901000Y-93299000D01*
D55*
X125000000Y-109000000D02*
X126250000Y-109000000D01*
D53*
X127850000Y-94471499D02*
X127850000Y-91810000D01*
X126795999Y-110724001D02*
X126786976Y-110724001D01*
D54*
X182920000Y-92268530D02*
X182920000Y-93280000D01*
D53*
X127910000Y-94411499D02*
X127850000Y-94471499D01*
X129350000Y-94471499D02*
X129350000Y-93350000D01*
D55*
X124000000Y-109400000D02*
X124000000Y-111000000D01*
D53*
X131000000Y-92600000D02*
X131000000Y-93000000D01*
%TO.N,+3V3*%
X131409300Y-95445599D02*
X131350001Y-95386300D01*
X146000000Y-104500000D02*
X146701300Y-104500000D01*
D54*
X158490000Y-90510000D02*
X158490000Y-89500000D01*
X137020000Y-95480000D02*
X139500000Y-93000000D01*
X156652500Y-116625000D02*
X156662500Y-116635000D01*
D53*
X132350001Y-95386298D02*
X132290700Y-95445599D01*
D54*
X139500000Y-93000000D02*
X144810001Y-93000000D01*
D53*
X136600000Y-95480000D02*
X135898499Y-95480000D01*
D54*
X154520000Y-97980000D02*
X154270000Y-98230000D01*
X158000000Y-111991364D02*
X158000000Y-115600000D01*
X135111000Y-107559001D02*
X135680001Y-106990000D01*
X158311075Y-111751000D02*
X158332075Y-111730000D01*
X155500000Y-97980000D02*
X154520000Y-97980000D01*
X156261000Y-92839000D02*
X156261000Y-97408682D01*
X158000000Y-115600000D02*
X156965000Y-116635000D01*
D55*
X177600000Y-107000000D02*
X179500000Y-107000000D01*
D54*
X147370000Y-95250000D02*
X147350000Y-95230000D01*
X158332075Y-111730000D02*
X160350000Y-111730000D01*
X155689682Y-97980000D02*
X155500000Y-97980000D01*
X182420000Y-97370000D02*
X182400000Y-97350000D01*
D53*
X161401000Y-86599000D02*
X161199000Y-86801000D01*
D54*
X156261000Y-97408682D02*
X155689682Y-97980000D01*
X158240364Y-111751000D02*
X158311075Y-111751000D01*
D53*
X152720000Y-104950000D02*
X152720000Y-105720000D01*
D54*
X138611000Y-117500000D02*
X135111000Y-114000000D01*
D53*
X167000000Y-89500000D02*
X166041000Y-88541000D01*
D54*
X176750000Y-107000000D02*
X177600000Y-107000000D01*
D53*
X149520000Y-99050000D02*
X149120000Y-99050000D01*
D54*
X183500000Y-104040000D02*
X184040000Y-103500000D01*
X152980000Y-117500000D02*
X138611000Y-117500000D01*
X154689682Y-106000000D02*
X154500000Y-106000000D01*
D53*
X159829340Y-90121000D02*
X159111000Y-90121000D01*
D54*
X135111000Y-114000000D02*
X135111000Y-107559001D01*
D53*
X165366760Y-86599000D02*
X161401000Y-86599000D01*
X145500000Y-105000000D02*
X146000000Y-104500000D01*
D54*
X183940000Y-97370000D02*
X182420000Y-97370000D01*
D53*
X152000000Y-115996319D02*
X152009714Y-116006033D01*
X132290700Y-95445599D02*
X131409300Y-95445599D01*
X154609681Y-106080001D02*
X154689682Y-106000000D01*
X152720000Y-105720000D02*
X153080001Y-106080001D01*
D54*
X179630000Y-108370000D02*
X179500000Y-108500000D01*
D53*
X131350001Y-95386300D02*
X131350001Y-94471499D01*
X133345100Y-96499999D02*
X134878500Y-96499999D01*
X170800000Y-101700000D02*
X170100000Y-101000000D01*
D54*
X135680001Y-106990000D02*
X136000000Y-106990000D01*
D53*
X161199000Y-86801000D02*
X161199000Y-88751340D01*
D54*
X156965000Y-116635000D02*
X156662500Y-116635000D01*
D53*
X159111000Y-90121000D02*
X158490000Y-89500000D01*
D54*
X183500000Y-107189999D02*
X183500000Y-104040000D01*
X158000000Y-111991364D02*
X158240364Y-111751000D01*
X147500000Y-99000000D02*
X149369000Y-99000000D01*
D53*
X151126000Y-114536500D02*
X151100000Y-114562500D01*
D54*
X158000000Y-109310318D02*
X158000000Y-111991364D01*
X182319999Y-108370000D02*
X183500000Y-107189999D01*
X156662500Y-116635000D02*
X155797500Y-117500000D01*
D53*
X147550000Y-99050000D02*
X147500000Y-99000000D01*
D54*
X144810001Y-93000000D02*
X147040001Y-95230000D01*
X182000000Y-108370000D02*
X179630000Y-108370000D01*
X183940000Y-103400000D02*
X184040000Y-103500000D01*
D53*
X167750000Y-92550000D02*
X167676000Y-92476000D01*
X153080001Y-106080001D02*
X153500000Y-106080001D01*
D54*
X157100000Y-91900000D02*
X158490000Y-90510000D01*
D53*
X132290700Y-95445599D02*
X133345100Y-96499999D01*
D54*
X153500000Y-106080001D02*
X154609681Y-106080001D01*
X152980000Y-116625000D02*
X152980000Y-117500000D01*
D53*
X158490000Y-89500000D02*
X158569660Y-89500000D01*
D54*
X152009714Y-116006033D02*
X152628681Y-116625000D01*
D53*
X167866114Y-101000000D02*
X167250000Y-100383886D01*
D54*
X179500000Y-107000000D02*
X179500000Y-108500000D01*
X157100000Y-91900000D02*
X157100000Y-92000000D01*
D53*
X151100000Y-114562500D02*
X150687500Y-114562500D01*
X135898499Y-95480000D02*
X134878500Y-96499999D01*
X151812500Y-114536500D02*
X152000000Y-114724000D01*
D54*
X154270000Y-98230000D02*
X154270000Y-99649000D01*
D53*
X147801300Y-103400000D02*
X148370000Y-103400000D01*
X166041000Y-87273240D02*
X165366760Y-86599000D01*
D54*
X157100000Y-91900000D02*
X145910001Y-91900000D01*
X149369000Y-99000000D02*
X149369000Y-99050000D01*
D53*
X146701300Y-104500000D02*
X147801300Y-103400000D01*
D54*
X147370000Y-97750000D02*
X147370000Y-98870000D01*
D53*
X167000000Y-91000000D02*
X167000000Y-89500000D01*
X154500000Y-106000000D02*
X154770001Y-106000000D01*
X167651000Y-92035202D02*
X167651000Y-91651000D01*
D54*
X147370000Y-98870000D02*
X147500000Y-99000000D01*
X147370000Y-97750000D02*
X147370000Y-95250000D01*
D53*
X167676000Y-92476000D02*
X167676000Y-92060202D01*
D54*
X146250000Y-105250000D02*
X145750000Y-105250000D01*
D53*
X167250000Y-100383886D02*
X167250000Y-97450000D01*
X167676000Y-92060202D02*
X167651000Y-92035202D01*
D54*
X157100000Y-92000000D02*
X156261000Y-92839000D01*
X182000000Y-108370000D02*
X182319999Y-108370000D01*
X155797500Y-117500000D02*
X152980000Y-117500000D01*
D53*
X132350001Y-94471499D02*
X132350001Y-95386298D01*
X152000000Y-114724000D02*
X152000000Y-115125000D01*
X151812500Y-114536500D02*
X151126000Y-114536500D01*
X145500000Y-105500000D02*
X145500000Y-105000000D01*
D54*
X152628681Y-116625000D02*
X152980000Y-116625000D01*
D53*
X152000000Y-115125000D02*
X152000000Y-115996319D01*
D54*
X145910001Y-91900000D02*
X144810001Y-93000000D01*
D53*
X170100000Y-101000000D02*
X167866114Y-101000000D01*
D54*
X154689682Y-106000000D02*
X158000000Y-109310318D01*
X136600000Y-95480000D02*
X137020000Y-95480000D01*
X136000000Y-106990000D02*
X136000000Y-106000000D01*
X183940000Y-97370000D02*
X183940000Y-103400000D01*
X147040001Y-95230000D02*
X147350000Y-95230000D01*
D53*
X167651000Y-91651000D02*
X167000000Y-91000000D01*
D54*
X158250000Y-104000000D02*
X157500000Y-104000000D01*
X145750000Y-105250000D02*
X145500000Y-105500000D01*
D53*
X166041000Y-88541000D02*
X166041000Y-87273240D01*
X161199000Y-88751340D02*
X159829340Y-90121000D01*
D54*
%TO.N,+5V3*%
X178500000Y-97750000D02*
X178500000Y-102265000D01*
X178500000Y-102265000D02*
X175755000Y-102265000D01*
X179065000Y-101700000D02*
X182000000Y-101700000D01*
X178090000Y-91400000D02*
X178090000Y-92410000D01*
X178500000Y-92900000D02*
X178500000Y-93319000D01*
X178500000Y-97750000D02*
X178515000Y-97765000D01*
X175755000Y-102265000D02*
X175500000Y-102520000D01*
X178515000Y-97765000D02*
X178515000Y-102250000D01*
X178090000Y-92410000D02*
X178090000Y-92490000D01*
X178515000Y-102250000D02*
X178500000Y-102265000D01*
X178500000Y-102265000D02*
X179065000Y-101700000D01*
X178090000Y-92490000D02*
X178500000Y-92900000D01*
D53*
%TO.N,+5V_USB*%
X167250000Y-91817100D02*
X167250000Y-92550000D01*
X166599000Y-89666100D02*
X166599000Y-91166100D01*
X166432900Y-89500000D02*
X166599000Y-89666100D01*
D54*
X165490000Y-88769232D02*
X165490000Y-88350000D01*
X166000000Y-89279232D02*
X165490000Y-88769232D01*
D53*
X166220768Y-89500000D02*
X166432900Y-89500000D01*
X166599000Y-91166100D02*
X167250000Y-91817100D01*
D54*
X165490000Y-88350000D02*
X164890000Y-87750000D01*
D53*
X166000000Y-89279232D02*
X166220768Y-89500000D01*
D56*
%TO.N,RF*%
X164265392Y-102500000D02*
X166234607Y-102500000D01*
D55*
X160210000Y-101250000D02*
X160975000Y-101250000D01*
X161796177Y-101250000D02*
X162265392Y-101719215D01*
D56*
X162265392Y-101719215D02*
X162500000Y-101953823D01*
X162500000Y-101953823D02*
X162500000Y-109500000D01*
X166265392Y-109500000D02*
X168265392Y-109500000D01*
X166265392Y-102530785D02*
X166265392Y-109500000D01*
D55*
X160140000Y-101320000D02*
X160210000Y-101250000D01*
D56*
X164265392Y-109500000D02*
X164265392Y-102500000D01*
X168265392Y-109500000D02*
X168265392Y-102500000D01*
X162500000Y-109500000D02*
X164265392Y-109500000D01*
D55*
X160975000Y-101250000D02*
X161796177Y-101250000D01*
D53*
%TO.N,/XIN*%
X148937500Y-114062500D02*
X148162500Y-114837500D01*
X146392500Y-115500000D02*
X147787500Y-115500000D01*
X150687500Y-114062500D02*
X148937500Y-114062500D01*
X147787500Y-115500000D02*
X148162500Y-115125000D01*
X148162500Y-114837500D02*
X148162500Y-115500000D01*
X148162500Y-115500000D02*
X148331250Y-115500000D01*
%TO.N,/XOUT*%
X146392500Y-113000000D02*
X148162500Y-113000000D01*
X148162500Y-113000000D02*
X148725000Y-113562500D01*
X148725000Y-113562500D02*
X150687500Y-113562500D01*
%TO.N,/CAP*%
X153812500Y-113562500D02*
X155887900Y-113562500D01*
X155887900Y-113562500D02*
X156305400Y-113980000D01*
X156305400Y-113980000D02*
X156662500Y-113980000D01*
%TO.N,Net-(D1-A)*%
X157000000Y-87765000D02*
X156985000Y-87750000D01*
X157000000Y-89500000D02*
X157000000Y-87765000D01*
%TO.N,SWDIO*%
X154270000Y-103800000D02*
X154800000Y-103800000D01*
X162750000Y-111500000D02*
X163000000Y-111750000D01*
X156250000Y-106213986D02*
X158952000Y-108915986D01*
X156250000Y-106192100D02*
X156250000Y-106213986D01*
X158952000Y-108915986D02*
X158952000Y-110202000D01*
X162317100Y-110500000D02*
X162750000Y-110932900D01*
X159250000Y-110500000D02*
X162317100Y-110500000D01*
X155000000Y-104942100D02*
X156250000Y-106192100D01*
X164230000Y-111750000D02*
X164250000Y-111730000D01*
X155000000Y-104000000D02*
X155000000Y-104942100D01*
X162750000Y-110932900D02*
X162750000Y-111500000D01*
X163000000Y-111750000D02*
X164230000Y-111750000D01*
X158952000Y-110202000D02*
X159250000Y-110500000D01*
X163730000Y-111730000D02*
X164250000Y-111730000D01*
X154800000Y-103800000D02*
X155000000Y-104000000D01*
%TO.N,SWDCLK*%
X162000000Y-111000000D02*
X162250000Y-111250000D01*
X162500000Y-113000000D02*
X164250000Y-113000000D01*
X162250000Y-112750000D02*
X162500000Y-113000000D01*
X159000000Y-111000000D02*
X162000000Y-111000000D01*
X162250000Y-111250000D02*
X162250000Y-112750000D01*
X154270000Y-104200000D02*
X154270000Y-105399000D01*
X158551000Y-109082086D02*
X158551000Y-110551000D01*
X154250000Y-105419000D02*
X154887914Y-105419000D01*
X164000000Y-113250000D02*
X164000000Y-113270000D01*
X154270000Y-105399000D02*
X154250000Y-105419000D01*
X154887914Y-105419000D02*
X158551000Y-109082086D01*
X158551000Y-110551000D02*
X159000000Y-111000000D01*
%TO.N,RESET*%
X166000000Y-115890000D02*
X165080000Y-116810000D01*
X165080000Y-116810000D02*
X164250000Y-116810000D01*
X154900130Y-102200000D02*
X155299130Y-102599000D01*
X158067100Y-105500000D02*
X157166100Y-104599000D01*
X157166100Y-104599000D02*
X156500000Y-104599000D01*
X155599000Y-102599000D02*
X155750000Y-102750000D01*
X156400000Y-103010000D02*
X156400000Y-103900000D01*
X156010000Y-103010000D02*
X156400000Y-103010000D01*
X166000000Y-115200000D02*
X166000000Y-115890000D01*
X158877983Y-105616051D02*
X158761932Y-105500000D01*
X156400000Y-103900000D02*
X156500000Y-104000000D01*
X156500000Y-104599000D02*
X156500000Y-104020000D01*
X154270000Y-102200000D02*
X154900130Y-102200000D01*
X156500000Y-104020000D02*
X156480000Y-104000000D01*
X155750000Y-102750000D02*
X156010000Y-103010000D01*
X155299130Y-102599000D02*
X155599000Y-102599000D01*
X164310000Y-116750000D02*
X164250000Y-116810000D01*
X158761932Y-105500000D02*
X158067100Y-105500000D01*
%TO.N,INT_BNO085*%
X154437500Y-111062500D02*
X153812500Y-111062500D01*
X147467100Y-102600000D02*
X148370000Y-102600000D01*
X143250000Y-112750000D02*
X139500000Y-112750000D01*
X146567100Y-103500000D02*
X147467100Y-102600000D01*
X154750000Y-111375000D02*
X154437500Y-111062500D01*
X145100000Y-103500000D02*
X146567100Y-103500000D01*
X145075735Y-110924265D02*
X143250000Y-112750000D01*
X143992830Y-103604964D02*
X144995036Y-103604964D01*
X154750000Y-112420000D02*
X154750000Y-111375000D01*
X144995036Y-103604964D02*
X145100000Y-103500000D01*
%TO.N,BOOT_BNO085*%
X152812500Y-113625000D02*
X152500000Y-113937500D01*
X143200681Y-103493142D02*
X143256123Y-103493142D01*
X152500000Y-113937500D02*
X152500000Y-115125000D01*
X143749265Y-103000000D02*
X146500000Y-103000000D01*
X143256123Y-103493142D02*
X143749265Y-103000000D01*
X147700000Y-101800000D02*
X148370000Y-101800000D01*
X146500000Y-103000000D02*
X147700000Y-101800000D01*
%TO.N,PWDWN_ADS1299*%
X147350000Y-101400000D02*
X146250000Y-102500000D01*
X132500001Y-102999999D02*
X134878500Y-102999999D01*
X142250000Y-103500000D02*
X137500000Y-103500000D01*
X136999999Y-102999999D02*
X134878500Y-102999999D01*
X137500000Y-103500000D02*
X136999999Y-102999999D01*
X143250000Y-102500000D02*
X142250000Y-103500000D01*
X148370000Y-101400000D02*
X147350000Y-101400000D01*
X146250000Y-102500000D02*
X143250000Y-102500000D01*
X132420000Y-103080000D02*
X132500001Y-102999999D01*
%TO.N,RST_BNO085*%
X153248000Y-112562500D02*
X153812500Y-112562500D01*
X152814500Y-112314500D02*
X153000000Y-112314500D01*
X146634200Y-104000000D02*
X147634200Y-103000000D01*
X145000000Y-104500000D02*
X145500000Y-104000000D01*
X145500000Y-104000000D02*
X146634200Y-104000000D01*
X153000000Y-112314500D02*
X153248000Y-112562500D01*
X147634200Y-103000000D02*
X148370000Y-103000000D01*
%TO.N,START_ADS1299*%
X130920000Y-100650000D02*
X131050000Y-100650000D01*
X137500000Y-101500000D02*
X138500000Y-102500000D01*
X135793301Y-101499999D02*
X135793302Y-101500000D01*
X142750000Y-101500000D02*
X146000000Y-101500000D01*
X138500000Y-102500000D02*
X141750000Y-102500000D01*
X146900000Y-100600000D02*
X148370000Y-100600000D01*
X134878500Y-101499999D02*
X135793301Y-101499999D01*
X135793302Y-101500000D02*
X137500000Y-101500000D01*
X146000000Y-101500000D02*
X146900000Y-100600000D01*
X131050000Y-100650000D02*
X131899999Y-101499999D01*
X131899999Y-101499999D02*
X134878500Y-101499999D01*
X141750000Y-102500000D02*
X142750000Y-101500000D01*
%TO.N,RST_ADS1299*%
X138000000Y-103000000D02*
X142000000Y-103000000D01*
X143000000Y-102000000D02*
X146093057Y-102000000D01*
X137500000Y-102500000D02*
X138000000Y-103000000D01*
X131420000Y-101900000D02*
X131420000Y-102020000D01*
X142000000Y-103000000D02*
X143000000Y-102000000D01*
X131900000Y-102500000D02*
X134878500Y-102500000D01*
X134878500Y-102500000D02*
X137500000Y-102500000D01*
X147093057Y-101000000D02*
X148370000Y-101000000D01*
X146093057Y-102000000D02*
X147093057Y-101000000D01*
X131420000Y-102020000D02*
X131900000Y-102500000D01*
%TO.N,MISO*%
X137999000Y-99499000D02*
X137500000Y-99499000D01*
X137000999Y-98999999D02*
X134878500Y-98999999D01*
X146000000Y-110400000D02*
X146000000Y-111000000D01*
X146124266Y-110275735D02*
X146275735Y-110275735D01*
X146562500Y-110562500D02*
X150687500Y-110562500D01*
X138000000Y-99500000D02*
X137999000Y-99499000D01*
X146124265Y-110275736D02*
X146000000Y-110400000D01*
X146275735Y-110275735D02*
X146500000Y-110500000D01*
X148500000Y-106000000D02*
X149120000Y-105380000D01*
X146275735Y-110275735D02*
X146562500Y-110562500D01*
X146124265Y-110275736D02*
X146124266Y-110275735D01*
X149120000Y-105380000D02*
X149120000Y-104950000D01*
X142800000Y-114200000D02*
X137600000Y-114200000D01*
X137500000Y-99499000D02*
X137000999Y-98999999D01*
X146000000Y-111000000D02*
X142800000Y-114200000D01*
%TO.N,CS_BNO085*%
X151939000Y-104969000D02*
X151939000Y-106477816D01*
X151920000Y-104950000D02*
X151939000Y-104969000D01*
X152342185Y-106881000D02*
X152581000Y-106881000D01*
X152000000Y-110000000D02*
X152000000Y-110500000D01*
X151939000Y-106477816D02*
X152342185Y-106881000D01*
X152581000Y-109419000D02*
X152000000Y-110000000D01*
X152581000Y-106881000D02*
X152581000Y-109419000D01*
%TO.N,MOSI*%
X147000000Y-107500000D02*
X148101000Y-107500000D01*
X141500000Y-111500000D02*
X141500000Y-107500000D01*
X148101000Y-107500000D02*
X149520000Y-106081000D01*
X149520000Y-106081000D02*
X149520000Y-104950000D01*
X152500000Y-111500000D02*
X152500000Y-110500000D01*
X138500000Y-106500000D02*
X137000000Y-105000000D01*
X137000000Y-104000000D02*
X136500000Y-103500000D01*
X147000000Y-107500000D02*
X141500000Y-107500000D01*
X137000000Y-105000000D02*
X137000000Y-104000000D01*
X136500000Y-103500000D02*
X134878500Y-103500000D01*
X140500000Y-106500000D02*
X138500000Y-106500000D01*
X141500000Y-107500000D02*
X140500000Y-106500000D01*
%TO.N,SCL*%
X155432900Y-103000000D02*
X154270000Y-103000000D01*
X158468289Y-106303186D02*
X158165103Y-106000000D01*
X171240000Y-94250000D02*
X169950000Y-94250000D01*
X158165103Y-106000000D02*
X158000000Y-106000000D01*
X171355000Y-94135000D02*
X171240000Y-94250000D01*
X175000000Y-93121000D02*
X174621000Y-93500000D01*
X158000000Y-106000000D02*
X157000000Y-105000000D01*
X157000000Y-105000000D02*
X156250000Y-105000000D01*
X155879000Y-103629000D02*
X155750000Y-103500000D01*
X155750000Y-103500000D02*
X155750000Y-103317100D01*
X174621000Y-93500000D02*
X171995000Y-93500000D01*
X171490000Y-94135000D02*
X171355000Y-94135000D01*
X155879000Y-104629000D02*
X155879000Y-103629000D01*
X155750000Y-103317100D02*
X155432900Y-103000000D01*
X156250000Y-105000000D02*
X155879000Y-104629000D01*
X171995000Y-93500000D02*
X171490000Y-94005000D01*
X171490000Y-94005000D02*
X171490000Y-94135000D01*
%TO.N,SDA*%
X158232569Y-106982569D02*
X156750000Y-105500000D01*
X176250000Y-109245266D02*
X176218227Y-109213493D01*
X171678550Y-95250000D02*
X171277550Y-94849000D01*
X156750000Y-105500000D02*
X156182900Y-105500000D01*
X155150000Y-103400000D02*
X154270000Y-103400000D01*
X155250000Y-103567100D02*
X155250000Y-103500000D01*
X172550000Y-95385000D02*
X173500000Y-95385000D01*
X155478000Y-104795100D02*
X155478000Y-103795100D01*
X171277550Y-94849000D02*
X170849000Y-94849000D01*
X155478000Y-103795100D02*
X155250000Y-103567100D01*
X170849000Y-94849000D02*
X170750000Y-94750000D01*
X156182900Y-105500000D02*
X155478000Y-104795100D01*
X170750000Y-94750000D02*
X169950000Y-94750000D01*
X172550000Y-95250000D02*
X171678550Y-95250000D01*
X176250000Y-111250000D02*
X176250000Y-109245266D01*
X155250000Y-103500000D02*
X155150000Y-103400000D01*
X158341530Y-107425901D02*
X158232569Y-107316940D01*
X158232569Y-107316940D02*
X158232569Y-106982569D01*
%TO.N,SCK*%
X155480000Y-90000000D02*
X145000000Y-90000000D01*
X142000000Y-101000000D02*
X141000000Y-102000000D01*
X138500000Y-101000000D02*
X136567100Y-101000000D01*
X151500000Y-110310500D02*
X151500000Y-110500000D01*
X147000000Y-106000000D02*
X147500000Y-106000000D01*
X145000000Y-90000000D02*
X144500000Y-90500000D01*
X147500000Y-106000000D02*
X148370000Y-105130000D01*
X146373208Y-109674735D02*
X146698473Y-110000000D01*
X146698473Y-110000000D02*
X151189500Y-110000000D01*
X133000000Y-99500000D02*
X133999999Y-100499999D01*
X145875322Y-109674735D02*
X146373208Y-109674735D01*
X143500000Y-107000000D02*
X146000000Y-107000000D01*
X136567100Y-101000000D02*
X136067099Y-100499999D01*
X148370000Y-105130000D02*
X148370000Y-104201000D01*
X142851000Y-109149000D02*
X143702000Y-110000000D01*
X151189500Y-110000000D02*
X151500000Y-110310500D01*
X142750000Y-106900000D02*
X143400000Y-106900000D01*
X146000000Y-107000000D02*
X147000000Y-106000000D01*
X143702000Y-110000000D02*
X145550057Y-110000000D01*
X145550057Y-110000000D02*
X145875322Y-109674735D01*
X139500000Y-102000000D02*
X138500000Y-101000000D01*
X155980000Y-89500000D02*
X155480000Y-90000000D01*
X133999999Y-100499999D02*
X134878500Y-100499999D01*
X136067099Y-100499999D02*
X134878500Y-100499999D01*
X141000000Y-102000000D02*
X139500000Y-102000000D01*
X143400000Y-106900000D02*
X143500000Y-107000000D01*
%TO.N,CS_ADS1299*%
X152320000Y-106320000D02*
X152320000Y-104950000D01*
X134878500Y-101000000D02*
X133400000Y-101000000D01*
X155800003Y-111800003D02*
X155000000Y-111000000D01*
X152962000Y-106723185D02*
X152738815Y-106500000D01*
X152500000Y-106500000D02*
X152320000Y-106320000D01*
X133400000Y-101000000D02*
X133000000Y-100600000D01*
X155000000Y-110500000D02*
X152962000Y-108462000D01*
X152738815Y-106500000D02*
X152500000Y-106500000D01*
X152962000Y-108462000D02*
X152962000Y-106723185D01*
X155000000Y-111000000D02*
X155000000Y-110500000D01*
X155800003Y-112420000D02*
X155800003Y-111800003D01*
%TO.N,DRDY*%
X143499000Y-106499000D02*
X143566100Y-106499000D01*
X143567100Y-106500000D02*
X145932900Y-106500000D01*
X146932900Y-105500000D02*
X147432900Y-105500000D01*
X145932900Y-106500000D02*
X146932900Y-105500000D01*
X143000000Y-100500000D02*
X143000000Y-94000000D01*
X147432900Y-105500000D02*
X147669000Y-105263900D01*
X148370000Y-103800000D02*
X148000000Y-103800000D01*
D57*
X147669000Y-104056258D02*
X147925258Y-103800000D01*
X147669000Y-104099400D02*
X147669000Y-104056258D01*
D53*
X143000000Y-94000000D02*
X140800000Y-94000000D01*
X143566100Y-106499000D02*
X143567100Y-106500000D01*
X137800002Y-96999998D02*
X134878500Y-96999998D01*
X142900000Y-105242711D02*
X142900000Y-105900000D01*
X140800000Y-94000000D02*
X137800002Y-96999998D01*
X142900000Y-105900000D02*
X143499000Y-106499000D01*
X147669000Y-105263900D02*
X147669000Y-104099400D01*
D57*
X147925258Y-103800000D02*
X148370000Y-103800000D01*
D53*
%TO.N,GPIO1*%
X172000000Y-118740616D02*
X172000000Y-99598960D01*
X172000000Y-99598960D02*
X169851040Y-97450000D01*
X150320000Y-106820000D02*
X150320000Y-104950000D01*
X150320000Y-106820000D02*
X149000000Y-108140000D01*
X169851040Y-97450000D02*
X169250000Y-97450000D01*
X149000000Y-108140000D02*
X149000000Y-109000000D01*
X172018768Y-118759384D02*
X172000000Y-118740616D01*
X172018768Y-119000000D02*
X172018768Y-118759384D01*
%TO.N,GPIO0*%
X171000000Y-119000000D02*
X171500000Y-118500000D01*
X149920000Y-106580000D02*
X149920000Y-104950000D01*
X171500000Y-118500000D02*
X171500000Y-100000000D01*
X169651000Y-98151000D02*
X169035202Y-98151000D01*
X169035202Y-98151000D02*
X168750000Y-97865798D01*
X148000000Y-108500000D02*
X149920000Y-106580000D01*
X148000000Y-109000000D02*
X148000000Y-108500000D01*
X171500000Y-100000000D02*
X169651000Y-98151000D01*
X168750000Y-97865798D02*
X168750000Y-97450000D01*
%TO.N,Net-(U2-DECA)*%
X153301000Y-97429000D02*
X153000000Y-97730000D01*
X153620000Y-95500000D02*
X153600000Y-95520000D01*
X155250000Y-101000000D02*
X154270000Y-101000000D01*
X154500000Y-97230821D02*
X154500000Y-97250000D01*
X153000000Y-97730000D02*
X152100000Y-97730000D01*
X153600712Y-95519288D02*
X153600000Y-95520000D01*
X154499460Y-97230281D02*
X154300741Y-97429000D01*
X152507500Y-94427500D02*
X153600000Y-95520000D01*
X154300741Y-97429000D02*
X153301000Y-97429000D01*
X151660000Y-97730000D02*
X152100000Y-97730000D01*
X156000000Y-100250000D02*
X155250000Y-101000000D01*
X151120000Y-98270000D02*
X151660000Y-97730000D01*
X156500000Y-100250000D02*
X156000000Y-100250000D01*
X152100000Y-94427500D02*
X152507500Y-94427500D01*
X154499460Y-97230281D02*
X154500000Y-97230821D01*
X151120000Y-99050000D02*
X151120000Y-98270000D01*
%TO.N,Net-(U2-DECD)*%
X152100000Y-95572500D02*
X151210000Y-95572500D01*
X150320000Y-99050000D02*
X150320000Y-97795000D01*
X149775000Y-97250000D02*
X151452500Y-95572500D01*
X151452500Y-95572500D02*
X152100000Y-95572500D01*
X151210000Y-95572500D02*
X150637500Y-95000000D01*
X150320000Y-97795000D02*
X149775000Y-97250000D01*
D54*
%TO.N,Net-(D3-A)*%
X179775000Y-105000000D02*
X179500000Y-104725000D01*
X182000000Y-107225000D02*
X182000000Y-105000000D01*
X182000000Y-105000000D02*
X179775000Y-105000000D01*
D53*
%TO.N,Net-(J1-Pin_8)*%
X164500000Y-90968000D02*
X164500000Y-91750000D01*
X165300000Y-92550000D02*
X165750000Y-92550000D01*
X164500000Y-91750000D02*
X165300000Y-92550000D01*
%TO.N,Net-(J1-Pin_4)*%
X165500000Y-91384202D02*
X166250000Y-92134202D01*
X165500000Y-90968000D02*
X165500000Y-91384202D01*
X166250000Y-92134202D02*
X166250000Y-92550000D01*
D55*
%TO.N,Net-(U2-ANT)*%
X155725000Y-102070000D02*
X155470000Y-102070000D01*
X155470000Y-102070000D02*
X155396000Y-101996000D01*
X155396000Y-101996000D02*
X155383438Y-101996000D01*
D53*
X154270000Y-101800000D02*
X155200000Y-101800000D01*
X155470000Y-102070000D02*
X155200000Y-101800000D01*
D58*
%TO.N,Net-(E1-Pad1)*%
X114020000Y-96020000D02*
X113850000Y-95850000D01*
X116770000Y-96020000D02*
X114020000Y-96020000D01*
%TO.N,Net-(E2-Pad1)*%
X116745000Y-98250000D02*
X114500000Y-98250000D01*
X114500000Y-98250000D02*
X113850000Y-98900000D01*
%TO.N,Net-(E3-Pad1)*%
X116770000Y-102000000D02*
X113900000Y-102000000D01*
X113900000Y-102000000D02*
X113850000Y-101950000D01*
%TO.N,Net-(E4-Pad1)*%
X116770000Y-104500000D02*
X114350000Y-104500000D01*
X114350000Y-104500000D02*
X113850000Y-105000000D01*
D53*
%TO.N,Net-(U2-DCC)*%
X149920000Y-99050000D02*
X149920000Y-98332550D01*
X149062500Y-97475050D02*
X149062500Y-95000000D01*
X149920000Y-98332550D02*
X149062500Y-97475050D01*
D54*
%TO.N,VDDIO*%
X175270000Y-95865000D02*
X175270000Y-94135000D01*
D53*
X171111450Y-95250000D02*
X172266450Y-96405000D01*
D54*
X174730000Y-96405000D02*
X175270000Y-95865000D01*
X175270000Y-94000000D02*
X176920000Y-92350000D01*
D53*
X169950000Y-95250000D02*
X171111450Y-95250000D01*
X172266450Y-96405000D02*
X172550000Y-96405000D01*
D54*
X172510000Y-94135000D02*
X175270000Y-94135000D01*
X172550000Y-96405000D02*
X174730000Y-96405000D01*
D53*
%TO.N,Net-(D2-A)*%
X159510000Y-89500000D02*
X159510000Y-87775000D01*
X159510000Y-87775000D02*
X159485000Y-87750000D01*
%TO.N,Net-(U2-P1.01)*%
X146050000Y-100200000D02*
X148370000Y-100200000D01*
X145600000Y-100650000D02*
X146050000Y-100200000D01*
%TO.N,Net-(U2-P1.00)*%
X145600000Y-99250000D02*
X146100000Y-99250000D01*
X146100000Y-99250000D02*
X146650000Y-99800000D01*
X146650000Y-99800000D02*
X148370000Y-99800000D01*
%TO.N,GPIO3*%
X170651000Y-96535202D02*
X170439798Y-96324000D01*
X173500000Y-99400000D02*
X170651000Y-96551000D01*
X151120000Y-104950000D02*
X151120000Y-106500000D01*
X151120000Y-106500000D02*
X151120000Y-107880000D01*
X170439798Y-96324000D02*
X170424000Y-96324000D01*
X173500000Y-117500000D02*
X173500000Y-99400000D01*
X170424000Y-96324000D02*
X170350000Y-96250000D01*
X173578774Y-117578774D02*
X173500000Y-117500000D01*
X151120000Y-107880000D02*
X151000000Y-108000000D01*
X170350000Y-96250000D02*
X169950000Y-96250000D01*
X173578774Y-119000000D02*
X173578774Y-117578774D01*
X170651000Y-96551000D02*
X170651000Y-96535202D01*
%TO.N,GPIO2*%
X172750000Y-118347542D02*
X172798771Y-118298771D01*
X172798771Y-119000000D02*
X172750000Y-118951229D01*
X172750000Y-118951229D02*
X172750000Y-118347542D01*
X150720000Y-107220000D02*
X150720000Y-104950000D01*
X172750000Y-99550000D02*
X169950000Y-96750000D01*
X149758949Y-108181051D02*
X150720000Y-107220000D01*
X149758949Y-108650000D02*
X149758949Y-108181051D01*
X172750000Y-118250000D02*
X172750000Y-99550000D01*
%TO.N,GPIO4*%
X151520000Y-106980000D02*
X151520000Y-107020000D01*
X151520000Y-104950000D02*
X151520000Y-106980000D01*
X174250000Y-108063945D02*
X174198000Y-108011945D01*
X151520000Y-107020000D02*
X152000000Y-107500000D01*
X174250000Y-116750000D02*
X174250000Y-108063945D01*
X174198000Y-99271280D02*
X170676720Y-95750000D01*
X174198000Y-108011945D02*
X174198000Y-99271280D01*
X170676720Y-95750000D02*
X169950000Y-95750000D01*
X174358777Y-116858777D02*
X174250000Y-116750000D01*
X174358777Y-119000000D02*
X174358777Y-116858777D01*
%TO.N,Net-(U2-XC1)*%
X154270000Y-100600000D02*
X153921000Y-100600000D01*
D58*
%TO.N,Net-(U1-IN2P)*%
X120620000Y-97480000D02*
X120620000Y-101520000D01*
X121687000Y-102587000D02*
X121687000Y-102981394D01*
X120620000Y-101520000D02*
X121687000Y-102587000D01*
X121687000Y-102981394D02*
X121705605Y-102999999D01*
X119250000Y-98250000D02*
X120000000Y-97500000D01*
X120600000Y-97500000D02*
X120620000Y-97480000D01*
X120000000Y-97500000D02*
X120600000Y-97500000D01*
X117765000Y-98250000D02*
X119250000Y-98250000D01*
X121705605Y-102999999D02*
X123321500Y-102999999D01*
%TO.N,Net-(U1-IN2N)*%
X120040000Y-96520000D02*
X119520000Y-96000000D01*
X117810000Y-96000000D02*
X117790000Y-96020000D01*
X119520000Y-96000000D02*
X117810000Y-96000000D01*
X121500000Y-101643298D02*
X122356702Y-102500000D01*
X120620000Y-96520000D02*
X120040000Y-96520000D01*
X122356702Y-102500000D02*
X123321500Y-102500000D01*
X121500000Y-96700000D02*
X121500000Y-101643298D01*
X121320000Y-96520000D02*
X121500000Y-96700000D01*
X120620000Y-96520000D02*
X121320000Y-96520000D01*
%TO.N,Net-(U1-IN1N)*%
X121236000Y-103442599D02*
X121236000Y-103143096D01*
X121236000Y-103143096D02*
X120600000Y-102507096D01*
X120020000Y-102520000D02*
X119500000Y-102000000D01*
X123321500Y-103500000D02*
X121293401Y-103500000D01*
X120600000Y-102520000D02*
X120020000Y-102520000D01*
X120600000Y-102507096D02*
X120600000Y-102520000D01*
X119500000Y-102000000D02*
X117790000Y-102000000D01*
X121293401Y-103500000D02*
X121236000Y-103442599D01*
%TO.N,Net-(U1-IN1P)*%
X117790000Y-104500000D02*
X119580000Y-104500000D01*
X123321500Y-103999999D02*
X121119999Y-103999999D01*
X121119999Y-103999999D02*
X120600000Y-103480000D01*
X119580000Y-104500000D02*
X120600000Y-103480000D01*
D53*
%TO.N,Net-(U1-BIASIN)*%
X126350000Y-94471499D02*
X125849999Y-94471499D01*
D58*
X119850000Y-107790000D02*
X116890000Y-107790000D01*
X120290000Y-107790000D02*
X119850000Y-107790000D01*
D53*
X126100000Y-102596299D02*
X126100000Y-94721500D01*
X126100000Y-94721500D02*
X125849999Y-94471499D01*
X120906299Y-107790000D02*
X126100000Y-102596299D01*
X120290000Y-107790000D02*
X120906299Y-107790000D01*
D58*
X113850000Y-108250000D02*
X116350000Y-108250000D01*
X116890000Y-107790000D02*
X116850000Y-107750000D01*
X116350000Y-108250000D02*
X116850000Y-107750000D01*
D53*
%TO.N,Net-(U1-BIASINV)*%
X126849999Y-94471499D02*
X126849999Y-102650001D01*
X126849999Y-102650001D02*
X120750000Y-108750000D01*
D58*
X116850000Y-108770000D02*
X119830000Y-108770000D01*
D53*
X120750000Y-108750000D02*
X119850000Y-108750000D01*
D58*
X119830000Y-108770000D02*
X119850000Y-108750000D01*
D53*
%TO.N,Net-(U1-VREFN)*%
X129350000Y-106028499D02*
X129350000Y-109870000D01*
X129350000Y-109870000D02*
X129480000Y-110000000D01*
%TO.N,Net-(U1-VREFP)*%
X129131000Y-110611000D02*
X128520000Y-110000000D01*
D54*
X136000000Y-108010000D02*
X139490000Y-108010000D01*
D53*
X135964878Y-108045122D02*
X136000000Y-108010000D01*
X129889000Y-110611000D02*
X129131000Y-110611000D01*
X128850000Y-106028499D02*
X128909300Y-106087799D01*
X128850000Y-106028499D02*
X128850000Y-107150000D01*
X130500000Y-110000000D02*
X129889000Y-110611000D01*
X135964878Y-109785122D02*
X135964878Y-108045122D01*
D54*
X139490000Y-108010000D02*
X139500000Y-108000000D01*
D53*
X128949000Y-109571000D02*
X128520000Y-110000000D01*
X128850000Y-107150000D02*
X128949000Y-107249000D01*
X128949000Y-107249000D02*
X128949000Y-109571000D01*
%TO.N,Net-(U1-VCAP3)*%
X129880000Y-94441500D02*
X129850001Y-94471499D01*
X129880000Y-92000000D02*
X129880000Y-94441500D01*
X129880000Y-92000000D02*
X131850000Y-92000000D01*
%TO.N,Net-(U1-VCAP1)*%
X130849999Y-107789999D02*
X130849999Y-106028499D01*
X132850000Y-109790000D02*
X130849999Y-107789999D01*
%TO.N,Net-(U1-VCAP4)*%
X131350000Y-109790000D02*
X129850001Y-108290001D01*
X129850001Y-108290001D02*
X129850001Y-106028499D01*
%TO.N,Net-(U1-VCAP2)*%
X134350000Y-109790000D02*
X131850000Y-107290000D01*
X131850000Y-107290000D02*
X131850000Y-106028499D01*
X134350000Y-109500000D02*
X134350000Y-109790000D01*
%TO.N,Net-(U4-LSOUT1{slash}VOUTLDO1)*%
X164510000Y-95250000D02*
X165050000Y-95250000D01*
X163290000Y-94030000D02*
X161520000Y-94030000D01*
X163290000Y-94030000D02*
X164510000Y-95250000D01*
X161520000Y-94030000D02*
X161500000Y-94010000D01*
%TO.N,Net-(U4-LSOUT2{slash}VOUTLDO2)*%
X163000000Y-96970000D02*
X163720000Y-96250000D01*
X163000000Y-96970000D02*
X163000000Y-95500000D01*
X163720000Y-96250000D02*
X165050000Y-96250000D01*
%TO.N,Net-(C32-Pad1)*%
X156365000Y-101275000D02*
X156390000Y-101250000D01*
D55*
X156365000Y-101345000D02*
X156390000Y-101320000D01*
X157250000Y-101320000D02*
X156390000Y-101320000D01*
X156365000Y-102070000D02*
X156365000Y-101345000D01*
D53*
%TO.N,Net-(U4-VBUSOUT)*%
X165741536Y-89800000D02*
X166200000Y-90258464D01*
X163495000Y-90500000D02*
X164195000Y-89800000D01*
X163480000Y-90500000D02*
X163495000Y-90500000D01*
X166200000Y-90258464D02*
X166200000Y-90400000D01*
X166198000Y-90402000D02*
X166198000Y-91332200D01*
X166750000Y-91884200D02*
X166750000Y-92550000D01*
X166200000Y-90400000D02*
X166198000Y-90402000D01*
X164195000Y-89800000D02*
X165741536Y-89800000D01*
X166198000Y-91332200D02*
X166750000Y-91884200D01*
%TO.N,Net-(U4-VOUT1)*%
X164270000Y-99500000D02*
X164270000Y-98930000D01*
X164270000Y-98930000D02*
X165750000Y-97450000D01*
X164270000Y-99500000D02*
X164915000Y-100145000D01*
X164915000Y-100145000D02*
X166550000Y-100145000D01*
%TO.N,Net-(U4-PVSS1)*%
X165230000Y-98885798D02*
X166250000Y-97865798D01*
X166250000Y-97865798D02*
X166250000Y-97450000D01*
X165230000Y-99500000D02*
X165230000Y-98885798D01*
%TO.N,Net-(C36-Pad1)*%
X158795000Y-101250000D02*
X158725000Y-101180000D01*
D55*
X159500000Y-101320000D02*
X159430000Y-101250000D01*
X158725000Y-101250000D02*
X157960000Y-101250000D01*
D53*
X157960000Y-101180000D02*
X157890000Y-101250000D01*
D55*
X157960000Y-101250000D02*
X157890000Y-101320000D01*
X159430000Y-101250000D02*
X158725000Y-101250000D01*
D53*
%TO.N,Net-(U4-VOUT2)*%
X169550000Y-100230000D02*
X168135000Y-100230000D01*
X168135000Y-100230000D02*
X168050000Y-100145000D01*
X169570000Y-100250000D02*
X169550000Y-100230000D01*
X170900000Y-100700000D02*
X170450000Y-100250000D01*
X170450000Y-100250000D02*
X169570000Y-100250000D01*
X165050000Y-96750000D02*
X163750000Y-98050000D01*
X163750000Y-98050000D02*
X163689000Y-98111000D01*
%TO.N,Net-(U4-PVSS2)*%
X169050000Y-99250000D02*
X169070000Y-99270000D01*
X169050000Y-99250000D02*
X169050000Y-98817100D01*
X169050000Y-98817100D02*
X168250000Y-98017100D01*
X168250000Y-98017100D02*
X168250000Y-97450000D01*
X169070000Y-99270000D02*
X169550000Y-99270000D01*
D54*
%TO.N,Net-(U6-FB)*%
X177600000Y-104725000D02*
X177600000Y-103835000D01*
X175500000Y-105500000D02*
X175500000Y-103480000D01*
X175500000Y-103480000D02*
X176755000Y-103480000D01*
X176755000Y-103480000D02*
X177000000Y-103235000D01*
X177600000Y-103835000D02*
X177000000Y-103235000D01*
D53*
%TO.N,Net-(U5-SET)*%
X184720000Y-93860000D02*
X184700000Y-93880000D01*
X184700000Y-93880000D02*
X184180000Y-94400000D01*
X186750000Y-93860000D02*
X184720000Y-93860000D01*
X184180000Y-94400000D02*
X182800000Y-94400000D01*
%TO.N,Net-(U4-SW1)*%
X166550000Y-99000000D02*
X166750000Y-98800000D01*
X166750000Y-98800000D02*
X166750000Y-97450000D01*
%TO.N,Net-(U4-SW2)*%
X167750000Y-98700000D02*
X167750000Y-97450000D01*
X168050000Y-99000000D02*
X167750000Y-98700000D01*
%TO.N,Net-(U1-GPIO4)*%
X134878500Y-97499999D02*
X138630001Y-97499999D01*
X138630001Y-97499999D02*
X139600000Y-96530000D01*
%TO.N,Net-(U1-GPIO3)*%
X134878500Y-97999998D02*
X139599998Y-97999998D01*
X139599998Y-97999998D02*
X139600000Y-98000000D01*
%TO.N,Net-(U1-GPIO2)*%
X138600000Y-98500000D02*
X139600000Y-99500000D01*
X134878500Y-98500000D02*
X138600000Y-98500000D01*
%TO.N,Net-(U1-GPIO1)*%
X138666100Y-100599000D02*
X137098999Y-100599000D01*
X139067100Y-101000000D02*
X138666100Y-100599000D01*
X139500000Y-101000000D02*
X139067100Y-101000000D01*
X135999997Y-99499998D02*
X134878500Y-99499998D01*
X137098999Y-100599000D02*
X135999997Y-99499998D01*
%TO.N,Net-(U3-PS1)*%
X153000000Y-115625000D02*
X154000000Y-116625000D01*
X153000000Y-115125000D02*
X153000000Y-115500000D01*
X153000000Y-115500000D02*
X153000000Y-115625000D01*
%TO.N,Net-(U3-PS0{slash}WAKE)*%
X154365000Y-115615000D02*
X153812500Y-115062500D01*
X156662500Y-115615000D02*
X154365000Y-115615000D01*
%TO.N,Net-(U4-NTC)*%
X168750000Y-92089660D02*
X168750000Y-92550000D01*
X170480000Y-90359660D02*
X168750000Y-92089660D01*
%TO.N,Net-(U4-VSET1)*%
X170000000Y-91780000D02*
X170000000Y-91800000D01*
X170000000Y-91800000D02*
X169250000Y-92550000D01*
X170530000Y-91250000D02*
X170000000Y-91780000D01*
%TO.N,Net-(U4-VSET2)*%
X170690000Y-92510000D02*
X173500000Y-92510000D01*
X169950000Y-93250000D02*
X170690000Y-92510000D01*
%TO.N,Net-(U5-ILIM)*%
X178990000Y-96590000D02*
X180000000Y-96590000D01*
X178500000Y-94900000D02*
X178500000Y-96100000D01*
X178500000Y-96100000D02*
X178990000Y-96590000D01*
%TO.N,Net-(U5-PG)*%
X177190000Y-94400000D02*
X176920000Y-94670000D01*
X178500000Y-94400000D02*
X177190000Y-94400000D01*
%TO.N,Net-(U5-EN{slash}UV)*%
X177170000Y-93900000D02*
X176920000Y-93650000D01*
X178500000Y-93900000D02*
X177170000Y-93900000D01*
%TO.N,Net-(U5-PGFB)*%
X184700000Y-95115924D02*
X184700000Y-95090000D01*
X183625924Y-94900000D02*
X183815924Y-95090000D01*
X183815924Y-95090000D02*
X184700000Y-95090000D01*
X186750000Y-95090000D02*
X184700000Y-95090000D01*
X182800000Y-94900000D02*
X183625924Y-94900000D01*
%TO.N,Net-(U4-SHPHLD)*%
X179375000Y-90025000D02*
X179299000Y-89949000D01*
X171419000Y-93081000D02*
X170750000Y-93750000D01*
X177322057Y-89949000D02*
X174190057Y-93081000D01*
X179299000Y-89949000D02*
X177322057Y-89949000D01*
X179375000Y-90128000D02*
X179375000Y-90025000D01*
X174190057Y-93081000D02*
X171419000Y-93081000D01*
X170750000Y-93750000D02*
X169950000Y-93750000D01*
%TD*%
M02*
