%TF.GenerationSoftware,KiCad,Pcbnew,9.0.7*%
%TF.CreationDate,2026-02-05T20:31:52-06:00*%
%TF.ProjectId,wearable,77656172-6162-46c6-952e-6b696361645f,rev?*%
%TF.SameCoordinates,Original*%
%TF.FileFunction,Legend,Bot*%
%TF.FilePolarity,Positive*%
%FSLAX46Y46*%
G04 Gerber Fmt 4.6, Leading zero omitted, Abs format (unit mm)*
G04 Created by KiCad (PCBNEW 9.0.7) date 2026-02-05 20:31:52*
%MOMM*%
%LPD*%
G01*
G04 APERTURE LIST*
%ADD10C,0.200000*%
%ADD11C,0.250000*%
%ADD12C,0.000000*%
G04 APERTURE END LIST*
D10*
X140800000Y-115900000D02*
G75*
G02*
X135800000Y-115900000I-2500000J0D01*
G01*
X135800000Y-115900000D02*
G75*
G02*
X140800000Y-115900000I2500000J0D01*
G01*
X121600000Y-115900000D02*
G75*
G02*
X116600000Y-115900000I-2500000J0D01*
G01*
X116600000Y-115900000D02*
G75*
G02*
X121600000Y-115900000I2500000J0D01*
G01*
X154200000Y-115900000D02*
G75*
G02*
X149200000Y-115900000I-2500000J0D01*
G01*
X149200000Y-115900000D02*
G75*
G02*
X154200000Y-115900000I2500000J0D01*
G01*
X130600000Y-115900000D02*
G75*
G02*
X125600000Y-115900000I-2500000J0D01*
G01*
X125600000Y-115900000D02*
G75*
G02*
X130600000Y-115900000I2500000J0D01*
G01*
D11*
X167049812Y-119340809D02*
X166649812Y-119340809D01*
X166478384Y-119864619D02*
X167049812Y-119864619D01*
X167049812Y-119864619D02*
X167049812Y-118864619D01*
X167049812Y-118864619D02*
X166478384Y-118864619D01*
X165278384Y-119769380D02*
X165335527Y-119817000D01*
X165335527Y-119817000D02*
X165506955Y-119864619D01*
X165506955Y-119864619D02*
X165621241Y-119864619D01*
X165621241Y-119864619D02*
X165792670Y-119817000D01*
X165792670Y-119817000D02*
X165906955Y-119721761D01*
X165906955Y-119721761D02*
X165964098Y-119626523D01*
X165964098Y-119626523D02*
X166021241Y-119436047D01*
X166021241Y-119436047D02*
X166021241Y-119293190D01*
X166021241Y-119293190D02*
X165964098Y-119102714D01*
X165964098Y-119102714D02*
X165906955Y-119007476D01*
X165906955Y-119007476D02*
X165792670Y-118912238D01*
X165792670Y-118912238D02*
X165621241Y-118864619D01*
X165621241Y-118864619D02*
X165506955Y-118864619D01*
X165506955Y-118864619D02*
X165335527Y-118912238D01*
X165335527Y-118912238D02*
X165278384Y-118959857D01*
X164764098Y-119340809D02*
X164364098Y-119340809D01*
X164192670Y-119864619D02*
X164764098Y-119864619D01*
X164764098Y-119864619D02*
X164764098Y-118864619D01*
X164764098Y-118864619D02*
X164192670Y-118864619D01*
X162249813Y-119197952D02*
X162249813Y-119864619D01*
X162535527Y-118817000D02*
X162821241Y-119531285D01*
X162821241Y-119531285D02*
X162078384Y-119531285D01*
X161106956Y-118864619D02*
X161335527Y-118864619D01*
X161335527Y-118864619D02*
X161449813Y-118912238D01*
X161449813Y-118912238D02*
X161506956Y-118959857D01*
X161506956Y-118959857D02*
X161621241Y-119102714D01*
X161621241Y-119102714D02*
X161678384Y-119293190D01*
X161678384Y-119293190D02*
X161678384Y-119674142D01*
X161678384Y-119674142D02*
X161621241Y-119769380D01*
X161621241Y-119769380D02*
X161564098Y-119817000D01*
X161564098Y-119817000D02*
X161449813Y-119864619D01*
X161449813Y-119864619D02*
X161221241Y-119864619D01*
X161221241Y-119864619D02*
X161106956Y-119817000D01*
X161106956Y-119817000D02*
X161049813Y-119769380D01*
X161049813Y-119769380D02*
X160992670Y-119674142D01*
X160992670Y-119674142D02*
X160992670Y-119436047D01*
X160992670Y-119436047D02*
X161049813Y-119340809D01*
X161049813Y-119340809D02*
X161106956Y-119293190D01*
X161106956Y-119293190D02*
X161221241Y-119245571D01*
X161221241Y-119245571D02*
X161449813Y-119245571D01*
X161449813Y-119245571D02*
X161564098Y-119293190D01*
X161564098Y-119293190D02*
X161621241Y-119340809D01*
X161621241Y-119340809D02*
X161678384Y-119436047D01*
X159964099Y-119197952D02*
X159964099Y-119864619D01*
X160249813Y-118817000D02*
X160535527Y-119531285D01*
X160535527Y-119531285D02*
X159792670Y-119531285D01*
X159335527Y-119864619D02*
X159335527Y-118864619D01*
X158649813Y-119864619D02*
X159164099Y-119293190D01*
X158649813Y-118864619D02*
X159335527Y-119436047D01*
X158135527Y-119769380D02*
X158078384Y-119817000D01*
X158078384Y-119817000D02*
X158135527Y-119864619D01*
X158135527Y-119864619D02*
X158192670Y-119817000D01*
X158192670Y-119817000D02*
X158135527Y-119769380D01*
X158135527Y-119769380D02*
X158135527Y-119864619D01*
X158135527Y-119245571D02*
X158078384Y-119293190D01*
X158078384Y-119293190D02*
X158135527Y-119340809D01*
X158135527Y-119340809D02*
X158192670Y-119293190D01*
X158192670Y-119293190D02*
X158135527Y-119245571D01*
X158135527Y-119245571D02*
X158135527Y-119340809D01*
X156706955Y-119578904D02*
X156135527Y-119578904D01*
X156821241Y-119864619D02*
X156421241Y-118864619D01*
X156421241Y-118864619D02*
X156021241Y-119864619D01*
X155621241Y-119864619D02*
X155621241Y-119197952D01*
X155621241Y-118864619D02*
X155678384Y-118912238D01*
X155678384Y-118912238D02*
X155621241Y-118959857D01*
X155621241Y-118959857D02*
X155564098Y-118912238D01*
X155564098Y-118912238D02*
X155621241Y-118864619D01*
X155621241Y-118864619D02*
X155621241Y-118959857D01*
X154535527Y-119864619D02*
X154535527Y-118864619D01*
X154535527Y-119817000D02*
X154649812Y-119864619D01*
X154649812Y-119864619D02*
X154878384Y-119864619D01*
X154878384Y-119864619D02*
X154992669Y-119817000D01*
X154992669Y-119817000D02*
X155049812Y-119769380D01*
X155049812Y-119769380D02*
X155106955Y-119674142D01*
X155106955Y-119674142D02*
X155106955Y-119388428D01*
X155106955Y-119388428D02*
X155049812Y-119293190D01*
X155049812Y-119293190D02*
X154992669Y-119245571D01*
X154992669Y-119245571D02*
X154878384Y-119197952D01*
X154878384Y-119197952D02*
X154649812Y-119197952D01*
X154649812Y-119197952D02*
X154535527Y-119245571D01*
X153449813Y-119864619D02*
X153449813Y-119340809D01*
X153449813Y-119340809D02*
X153506955Y-119245571D01*
X153506955Y-119245571D02*
X153621241Y-119197952D01*
X153621241Y-119197952D02*
X153849813Y-119197952D01*
X153849813Y-119197952D02*
X153964098Y-119245571D01*
X153449813Y-119817000D02*
X153564098Y-119864619D01*
X153564098Y-119864619D02*
X153849813Y-119864619D01*
X153849813Y-119864619D02*
X153964098Y-119817000D01*
X153964098Y-119817000D02*
X154021241Y-119721761D01*
X154021241Y-119721761D02*
X154021241Y-119626523D01*
X154021241Y-119626523D02*
X153964098Y-119531285D01*
X153964098Y-119531285D02*
X153849813Y-119483666D01*
X153849813Y-119483666D02*
X153564098Y-119483666D01*
X153564098Y-119483666D02*
X153449813Y-119436047D01*
X152878384Y-119197952D02*
X152878384Y-119864619D01*
X152878384Y-119293190D02*
X152821241Y-119245571D01*
X152821241Y-119245571D02*
X152706956Y-119197952D01*
X152706956Y-119197952D02*
X152535527Y-119197952D01*
X152535527Y-119197952D02*
X152421241Y-119245571D01*
X152421241Y-119245571D02*
X152364099Y-119340809D01*
X152364099Y-119340809D02*
X152364099Y-119864619D01*
X150935527Y-119578904D02*
X150364099Y-119578904D01*
X151049813Y-119864619D02*
X150649813Y-118864619D01*
X150649813Y-118864619D02*
X150249813Y-119864619D01*
X149335528Y-119864619D02*
X149335528Y-119340809D01*
X149335528Y-119340809D02*
X149392670Y-119245571D01*
X149392670Y-119245571D02*
X149506956Y-119197952D01*
X149506956Y-119197952D02*
X149735528Y-119197952D01*
X149735528Y-119197952D02*
X149849813Y-119245571D01*
X149335528Y-119817000D02*
X149449813Y-119864619D01*
X149449813Y-119864619D02*
X149735528Y-119864619D01*
X149735528Y-119864619D02*
X149849813Y-119817000D01*
X149849813Y-119817000D02*
X149906956Y-119721761D01*
X149906956Y-119721761D02*
X149906956Y-119626523D01*
X149906956Y-119626523D02*
X149849813Y-119531285D01*
X149849813Y-119531285D02*
X149735528Y-119483666D01*
X149735528Y-119483666D02*
X149449813Y-119483666D01*
X149449813Y-119483666D02*
X149335528Y-119436047D01*
X148592671Y-119864619D02*
X148706956Y-119817000D01*
X148706956Y-119817000D02*
X148764099Y-119721761D01*
X148764099Y-119721761D02*
X148764099Y-118864619D01*
X147621243Y-119197952D02*
X147621243Y-119864619D01*
X148135528Y-119197952D02*
X148135528Y-119721761D01*
X148135528Y-119721761D02*
X148078385Y-119817000D01*
X148078385Y-119817000D02*
X147964100Y-119864619D01*
X147964100Y-119864619D02*
X147792671Y-119864619D01*
X147792671Y-119864619D02*
X147678385Y-119817000D01*
X147678385Y-119817000D02*
X147621243Y-119769380D01*
X147049814Y-119197952D02*
X147049814Y-119864619D01*
X147049814Y-119293190D02*
X146992671Y-119245571D01*
X146992671Y-119245571D02*
X146878386Y-119197952D01*
X146878386Y-119197952D02*
X146706957Y-119197952D01*
X146706957Y-119197952D02*
X146592671Y-119245571D01*
X146592671Y-119245571D02*
X146535529Y-119340809D01*
X146535529Y-119340809D02*
X146535529Y-119864619D01*
X145449815Y-119864619D02*
X145449815Y-118864619D01*
X145449815Y-119817000D02*
X145564100Y-119864619D01*
X145564100Y-119864619D02*
X145792672Y-119864619D01*
X145792672Y-119864619D02*
X145906957Y-119817000D01*
X145906957Y-119817000D02*
X145964100Y-119769380D01*
X145964100Y-119769380D02*
X146021243Y-119674142D01*
X146021243Y-119674142D02*
X146021243Y-119388428D01*
X146021243Y-119388428D02*
X145964100Y-119293190D01*
X145964100Y-119293190D02*
X145906957Y-119245571D01*
X145906957Y-119245571D02*
X145792672Y-119197952D01*
X145792672Y-119197952D02*
X145564100Y-119197952D01*
X145564100Y-119197952D02*
X145449815Y-119245571D01*
X144821243Y-119817000D02*
X144821243Y-119864619D01*
X144821243Y-119864619D02*
X144878386Y-119959857D01*
X144878386Y-119959857D02*
X144935529Y-120007476D01*
X143049814Y-118864619D02*
X143049814Y-119578904D01*
X143049814Y-119578904D02*
X143106957Y-119721761D01*
X143106957Y-119721761D02*
X143221243Y-119817000D01*
X143221243Y-119817000D02*
X143392671Y-119864619D01*
X143392671Y-119864619D02*
X143506957Y-119864619D01*
X141964100Y-119197952D02*
X141964100Y-119864619D01*
X142478385Y-119197952D02*
X142478385Y-119721761D01*
X142478385Y-119721761D02*
X142421242Y-119817000D01*
X142421242Y-119817000D02*
X142306957Y-119864619D01*
X142306957Y-119864619D02*
X142135528Y-119864619D01*
X142135528Y-119864619D02*
X142021242Y-119817000D01*
X142021242Y-119817000D02*
X141964100Y-119769380D01*
X141449814Y-119817000D02*
X141335528Y-119864619D01*
X141335528Y-119864619D02*
X141106957Y-119864619D01*
X141106957Y-119864619D02*
X140992671Y-119817000D01*
X140992671Y-119817000D02*
X140935528Y-119721761D01*
X140935528Y-119721761D02*
X140935528Y-119674142D01*
X140935528Y-119674142D02*
X140992671Y-119578904D01*
X140992671Y-119578904D02*
X141106957Y-119531285D01*
X141106957Y-119531285D02*
X141278386Y-119531285D01*
X141278386Y-119531285D02*
X141392671Y-119483666D01*
X141392671Y-119483666D02*
X141449814Y-119388428D01*
X141449814Y-119388428D02*
X141449814Y-119340809D01*
X141449814Y-119340809D02*
X141392671Y-119245571D01*
X141392671Y-119245571D02*
X141278386Y-119197952D01*
X141278386Y-119197952D02*
X141106957Y-119197952D01*
X141106957Y-119197952D02*
X140992671Y-119245571D01*
X140592671Y-119197952D02*
X140135528Y-119197952D01*
X140421242Y-118864619D02*
X140421242Y-119721761D01*
X140421242Y-119721761D02*
X140364099Y-119817000D01*
X140364099Y-119817000D02*
X140249814Y-119864619D01*
X140249814Y-119864619D02*
X140135528Y-119864619D01*
X139735528Y-119864619D02*
X139735528Y-119197952D01*
X139735528Y-118864619D02*
X139792671Y-118912238D01*
X139792671Y-118912238D02*
X139735528Y-118959857D01*
X139735528Y-118959857D02*
X139678385Y-118912238D01*
X139678385Y-118912238D02*
X139735528Y-118864619D01*
X139735528Y-118864619D02*
X139735528Y-118959857D01*
X139164099Y-119197952D02*
X139164099Y-119864619D01*
X139164099Y-119293190D02*
X139106956Y-119245571D01*
X139106956Y-119245571D02*
X138992671Y-119197952D01*
X138992671Y-119197952D02*
X138821242Y-119197952D01*
X138821242Y-119197952D02*
X138706956Y-119245571D01*
X138706956Y-119245571D02*
X138649814Y-119340809D01*
X138649814Y-119340809D02*
X138649814Y-119864619D01*
X136764099Y-119340809D02*
X136592671Y-119388428D01*
X136592671Y-119388428D02*
X136535528Y-119436047D01*
X136535528Y-119436047D02*
X136478385Y-119531285D01*
X136478385Y-119531285D02*
X136478385Y-119674142D01*
X136478385Y-119674142D02*
X136535528Y-119769380D01*
X136535528Y-119769380D02*
X136592671Y-119817000D01*
X136592671Y-119817000D02*
X136706956Y-119864619D01*
X136706956Y-119864619D02*
X137164099Y-119864619D01*
X137164099Y-119864619D02*
X137164099Y-118864619D01*
X137164099Y-118864619D02*
X136764099Y-118864619D01*
X136764099Y-118864619D02*
X136649814Y-118912238D01*
X136649814Y-118912238D02*
X136592671Y-118959857D01*
X136592671Y-118959857D02*
X136535528Y-119055095D01*
X136535528Y-119055095D02*
X136535528Y-119150333D01*
X136535528Y-119150333D02*
X136592671Y-119245571D01*
X136592671Y-119245571D02*
X136649814Y-119293190D01*
X136649814Y-119293190D02*
X136764099Y-119340809D01*
X136764099Y-119340809D02*
X137164099Y-119340809D01*
X135449814Y-119864619D02*
X135449814Y-119340809D01*
X135449814Y-119340809D02*
X135506956Y-119245571D01*
X135506956Y-119245571D02*
X135621242Y-119197952D01*
X135621242Y-119197952D02*
X135849814Y-119197952D01*
X135849814Y-119197952D02*
X135964099Y-119245571D01*
X135449814Y-119817000D02*
X135564099Y-119864619D01*
X135564099Y-119864619D02*
X135849814Y-119864619D01*
X135849814Y-119864619D02*
X135964099Y-119817000D01*
X135964099Y-119817000D02*
X136021242Y-119721761D01*
X136021242Y-119721761D02*
X136021242Y-119626523D01*
X136021242Y-119626523D02*
X135964099Y-119531285D01*
X135964099Y-119531285D02*
X135849814Y-119483666D01*
X135849814Y-119483666D02*
X135564099Y-119483666D01*
X135564099Y-119483666D02*
X135449814Y-119436047D01*
X134878385Y-119864619D02*
X134878385Y-118864619D01*
X134364100Y-119864619D02*
X134364100Y-119340809D01*
X134364100Y-119340809D02*
X134421242Y-119245571D01*
X134421242Y-119245571D02*
X134535528Y-119197952D01*
X134535528Y-119197952D02*
X134706957Y-119197952D01*
X134706957Y-119197952D02*
X134821242Y-119245571D01*
X134821242Y-119245571D02*
X134878385Y-119293190D01*
X133792671Y-119197952D02*
X133792671Y-119864619D01*
X133792671Y-119293190D02*
X133735528Y-119245571D01*
X133735528Y-119245571D02*
X133621243Y-119197952D01*
X133621243Y-119197952D02*
X133449814Y-119197952D01*
X133449814Y-119197952D02*
X133335528Y-119245571D01*
X133335528Y-119245571D02*
X133278386Y-119340809D01*
X133278386Y-119340809D02*
X133278386Y-119864619D01*
X132649814Y-119817000D02*
X132649814Y-119864619D01*
X132649814Y-119864619D02*
X132706957Y-119959857D01*
X132706957Y-119959857D02*
X132764100Y-120007476D01*
X131278385Y-119578904D02*
X130706957Y-119578904D01*
X131392671Y-119864619D02*
X130992671Y-118864619D01*
X130992671Y-118864619D02*
X130592671Y-119864619D01*
X130021243Y-119864619D02*
X130135528Y-119817000D01*
X130135528Y-119817000D02*
X130192671Y-119721761D01*
X130192671Y-119721761D02*
X130192671Y-118864619D01*
X129106957Y-119817000D02*
X129221243Y-119864619D01*
X129221243Y-119864619D02*
X129449815Y-119864619D01*
X129449815Y-119864619D02*
X129564100Y-119817000D01*
X129564100Y-119817000D02*
X129621243Y-119721761D01*
X129621243Y-119721761D02*
X129621243Y-119340809D01*
X129621243Y-119340809D02*
X129564100Y-119245571D01*
X129564100Y-119245571D02*
X129449815Y-119197952D01*
X129449815Y-119197952D02*
X129221243Y-119197952D01*
X129221243Y-119197952D02*
X129106957Y-119245571D01*
X129106957Y-119245571D02*
X129049815Y-119340809D01*
X129049815Y-119340809D02*
X129049815Y-119436047D01*
X129049815Y-119436047D02*
X129621243Y-119531285D01*
X128649815Y-119864619D02*
X128021244Y-119197952D01*
X128649815Y-119197952D02*
X128021244Y-119864619D01*
X126649814Y-119864619D02*
X126649814Y-118864619D01*
X126649814Y-119340809D02*
X125964100Y-119340809D01*
X125964100Y-119864619D02*
X125964100Y-118864619D01*
X125221243Y-119864619D02*
X125335528Y-119817000D01*
X125335528Y-119817000D02*
X125392671Y-119769380D01*
X125392671Y-119769380D02*
X125449814Y-119674142D01*
X125449814Y-119674142D02*
X125449814Y-119388428D01*
X125449814Y-119388428D02*
X125392671Y-119293190D01*
X125392671Y-119293190D02*
X125335528Y-119245571D01*
X125335528Y-119245571D02*
X125221243Y-119197952D01*
X125221243Y-119197952D02*
X125049814Y-119197952D01*
X125049814Y-119197952D02*
X124935528Y-119245571D01*
X124935528Y-119245571D02*
X124878386Y-119293190D01*
X124878386Y-119293190D02*
X124821243Y-119388428D01*
X124821243Y-119388428D02*
X124821243Y-119674142D01*
X124821243Y-119674142D02*
X124878386Y-119769380D01*
X124878386Y-119769380D02*
X124935528Y-119817000D01*
X124935528Y-119817000D02*
X125049814Y-119864619D01*
X125049814Y-119864619D02*
X125221243Y-119864619D01*
X124249814Y-119817000D02*
X124249814Y-119864619D01*
X124249814Y-119864619D02*
X124306957Y-119959857D01*
X124306957Y-119959857D02*
X124364100Y-120007476D01*
X122821242Y-119864619D02*
X122821242Y-118864619D01*
X122135528Y-119864619D02*
X122649814Y-119293190D01*
X122135528Y-118864619D02*
X122821242Y-119436047D01*
X121621242Y-119864619D02*
X121621242Y-119197952D01*
X121621242Y-118864619D02*
X121678385Y-118912238D01*
X121678385Y-118912238D02*
X121621242Y-118959857D01*
X121621242Y-118959857D02*
X121564099Y-118912238D01*
X121564099Y-118912238D02*
X121621242Y-118864619D01*
X121621242Y-118864619D02*
X121621242Y-118959857D01*
X120592670Y-119817000D02*
X120706956Y-119864619D01*
X120706956Y-119864619D02*
X120935528Y-119864619D01*
X120935528Y-119864619D02*
X121049813Y-119817000D01*
X121049813Y-119817000D02*
X121106956Y-119721761D01*
X121106956Y-119721761D02*
X121106956Y-119340809D01*
X121106956Y-119340809D02*
X121049813Y-119245571D01*
X121049813Y-119245571D02*
X120935528Y-119197952D01*
X120935528Y-119197952D02*
X120706956Y-119197952D01*
X120706956Y-119197952D02*
X120592670Y-119245571D01*
X120592670Y-119245571D02*
X120535528Y-119340809D01*
X120535528Y-119340809D02*
X120535528Y-119436047D01*
X120535528Y-119436047D02*
X121106956Y-119531285D01*
X120021242Y-119197952D02*
X120021242Y-119864619D01*
X120021242Y-119293190D02*
X119964099Y-119245571D01*
X119964099Y-119245571D02*
X119849814Y-119197952D01*
X119849814Y-119197952D02*
X119678385Y-119197952D01*
X119678385Y-119197952D02*
X119564099Y-119245571D01*
X119564099Y-119245571D02*
X119506957Y-119340809D01*
X119506957Y-119340809D02*
X119506957Y-119864619D01*
X118192671Y-118864619D02*
X117506957Y-118864619D01*
X117849814Y-119864619D02*
X117849814Y-118864619D01*
X116935528Y-119864619D02*
X117049813Y-119817000D01*
X117049813Y-119817000D02*
X117106956Y-119769380D01*
X117106956Y-119769380D02*
X117164099Y-119674142D01*
X117164099Y-119674142D02*
X117164099Y-119388428D01*
X117164099Y-119388428D02*
X117106956Y-119293190D01*
X117106956Y-119293190D02*
X117049813Y-119245571D01*
X117049813Y-119245571D02*
X116935528Y-119197952D01*
X116935528Y-119197952D02*
X116764099Y-119197952D01*
X116764099Y-119197952D02*
X116649813Y-119245571D01*
X116649813Y-119245571D02*
X116592671Y-119293190D01*
X116592671Y-119293190D02*
X116535528Y-119388428D01*
X116535528Y-119388428D02*
X116535528Y-119674142D01*
X116535528Y-119674142D02*
X116592671Y-119769380D01*
X116592671Y-119769380D02*
X116649813Y-119817000D01*
X116649813Y-119817000D02*
X116764099Y-119864619D01*
X116764099Y-119864619D02*
X116935528Y-119864619D01*
X116021242Y-119197952D02*
X116021242Y-119864619D01*
X116021242Y-119293190D02*
X115964099Y-119245571D01*
X115964099Y-119245571D02*
X115849814Y-119197952D01*
X115849814Y-119197952D02*
X115678385Y-119197952D01*
X115678385Y-119197952D02*
X115564099Y-119245571D01*
X115564099Y-119245571D02*
X115506957Y-119340809D01*
X115506957Y-119340809D02*
X115506957Y-119864619D01*
D12*
%TO.C,G\u002A\u002A\u002A*%
G36*
X120133754Y-114344629D02*
G01*
X120281165Y-114461420D01*
X120416415Y-114593321D01*
X120539233Y-114740058D01*
X120649344Y-114901354D01*
X120746476Y-115076936D01*
X120786570Y-115162621D01*
X120823232Y-115250572D01*
X120825118Y-115255096D01*
X120858973Y-115346874D01*
X120887105Y-115434718D01*
X120908480Y-115515395D01*
X120922067Y-115585669D01*
X120926834Y-115642306D01*
X120927135Y-115658153D01*
X120930109Y-115678873D01*
X120935199Y-115690105D01*
X120938572Y-115697549D01*
X120955287Y-115719480D01*
X120983020Y-115749961D01*
X120995485Y-115763743D01*
X121055645Y-115847126D01*
X121099436Y-115940458D01*
X121126342Y-116042385D01*
X121135848Y-116151551D01*
X121133226Y-116223885D01*
X121123192Y-116288888D01*
X121103996Y-116353391D01*
X121073895Y-116425089D01*
X121045338Y-116480359D01*
X120990323Y-116562634D01*
X120921480Y-116640636D01*
X120836933Y-116716395D01*
X120734807Y-116791938D01*
X120723705Y-116799574D01*
X120684651Y-116828302D01*
X120655991Y-116854189D01*
X120632318Y-116882672D01*
X120608225Y-116919187D01*
X120566967Y-116981925D01*
X120555490Y-116999378D01*
X120446149Y-117138887D01*
X120322965Y-117265518D01*
X120187078Y-117378543D01*
X120039631Y-117477239D01*
X119881767Y-117560879D01*
X119714628Y-117628736D01*
X119539356Y-117680086D01*
X119357092Y-117714202D01*
X119349481Y-117715185D01*
X119300171Y-117720013D01*
X119239630Y-117724072D01*
X119174822Y-117726959D01*
X119112712Y-117728275D01*
X119109322Y-117728295D01*
X118920104Y-117720268D01*
X118736482Y-117694593D01*
X118559480Y-117651814D01*
X118390121Y-117592476D01*
X118229429Y-117517122D01*
X118078426Y-117426299D01*
X117938135Y-117320549D01*
X117809581Y-117200418D01*
X117693787Y-117066449D01*
X117635489Y-116982291D01*
X117821575Y-116982291D01*
X117824960Y-116993723D01*
X117840778Y-117015413D01*
X117866752Y-117045109D01*
X117900605Y-117080558D01*
X117940061Y-117119509D01*
X117982843Y-117159711D01*
X118026673Y-117198910D01*
X118069276Y-117234856D01*
X118108374Y-117265296D01*
X118114569Y-117269829D01*
X118154032Y-117297681D01*
X118193307Y-117323979D01*
X118224727Y-117343566D01*
X118272646Y-117371452D01*
X118266534Y-117347103D01*
X118264213Y-117333462D01*
X118260703Y-117302403D01*
X118257083Y-117261023D01*
X118253849Y-117214512D01*
X118250115Y-117153033D01*
X118377018Y-117153033D01*
X118378217Y-117181314D01*
X118381164Y-117219617D01*
X118385409Y-117263578D01*
X118390499Y-117308834D01*
X118395984Y-117351022D01*
X118399173Y-117371452D01*
X118401410Y-117385779D01*
X118406328Y-117408743D01*
X118409826Y-117419761D01*
X118417714Y-117434961D01*
X118431263Y-117446907D01*
X118454735Y-117458828D01*
X118492394Y-117473955D01*
X118523860Y-117485385D01*
X118596733Y-117508326D01*
X118677421Y-117530086D01*
X118758201Y-117548658D01*
X118831347Y-117562035D01*
X118836343Y-117562789D01*
X118909196Y-117572972D01*
X118964364Y-117578861D01*
X119003131Y-117580513D01*
X119026783Y-117577987D01*
X119026972Y-117577859D01*
X119163500Y-117577859D01*
X119197693Y-117579057D01*
X119229715Y-117578869D01*
X119261193Y-117576638D01*
X119306322Y-117570696D01*
X119455285Y-117545268D01*
X119589723Y-117512865D01*
X119707607Y-117473955D01*
X119730498Y-117464978D01*
X119759763Y-117452027D01*
X119777205Y-117440491D01*
X119787088Y-117427139D01*
X119793673Y-117408743D01*
X119794304Y-117406438D01*
X119799319Y-117381589D01*
X119801842Y-117364937D01*
X119934048Y-117364937D01*
X119937697Y-117365221D01*
X119954896Y-117357530D01*
X119982971Y-117340574D01*
X120019083Y-117316397D01*
X120060392Y-117287041D01*
X120104057Y-117254549D01*
X120147239Y-117220964D01*
X120187097Y-117188329D01*
X120220792Y-117158686D01*
X120240887Y-117139594D01*
X120274188Y-117106214D01*
X120306850Y-117071708D01*
X120336223Y-117039051D01*
X120359660Y-117011218D01*
X120374512Y-116991184D01*
X120378131Y-116981925D01*
X120368752Y-116983096D01*
X120344534Y-116989746D01*
X120309337Y-117000836D01*
X120266953Y-117015231D01*
X120239000Y-117024758D01*
X120176456Y-117044792D01*
X120111684Y-117064202D01*
X120054943Y-117079861D01*
X119949923Y-117106999D01*
X119949585Y-117150163D01*
X119949495Y-117161698D01*
X119948244Y-117196914D01*
X119945015Y-117243976D01*
X119940572Y-117289666D01*
X119939779Y-117296589D01*
X119936198Y-117330605D01*
X119934146Y-117355020D01*
X119934048Y-117364937D01*
X119801842Y-117364937D01*
X119804780Y-117345547D01*
X119810237Y-117302677D01*
X119815238Y-117257340D01*
X119819331Y-117213900D01*
X119822064Y-117176720D01*
X119822985Y-117150163D01*
X119821643Y-117138591D01*
X119819388Y-117137938D01*
X119802125Y-117138482D01*
X119772201Y-117141906D01*
X119734361Y-117147716D01*
X119628242Y-117163626D01*
X119476483Y-117179744D01*
X119310039Y-117190272D01*
X119163500Y-117196859D01*
X119163500Y-117387359D01*
X119163500Y-117435379D01*
X119163500Y-117577859D01*
X119026972Y-117577859D01*
X119036604Y-117571342D01*
X119038067Y-117558652D01*
X119039151Y-117529425D01*
X119039726Y-117487215D01*
X119039748Y-117435379D01*
X119039171Y-117377275D01*
X119036500Y-117196859D01*
X118889962Y-117190272D01*
X118764247Y-117182932D01*
X118609151Y-117168274D01*
X118465640Y-117147716D01*
X118450605Y-117145255D01*
X118415219Y-117140295D01*
X118389555Y-117137908D01*
X118378358Y-117138591D01*
X118378021Y-117139135D01*
X118377018Y-117153033D01*
X118250115Y-117153033D01*
X118247275Y-117106270D01*
X118143657Y-117079496D01*
X118116134Y-117072105D01*
X118054605Y-117054285D01*
X117990198Y-117034295D01*
X117933048Y-117015231D01*
X117892714Y-117001510D01*
X117857052Y-116990221D01*
X117832172Y-116983313D01*
X117821870Y-116981925D01*
X117821575Y-116982291D01*
X117635489Y-116982291D01*
X117591775Y-116919187D01*
X117585874Y-116909729D01*
X117562359Y-116875559D01*
X117538013Y-116848161D01*
X117507427Y-116822099D01*
X117465194Y-116791938D01*
X117398339Y-116743985D01*
X117307570Y-116668540D01*
X117233192Y-116591595D01*
X117173329Y-116511121D01*
X117126106Y-116425089D01*
X117097627Y-116357589D01*
X117077845Y-116292243D01*
X117067363Y-116226226D01*
X117064420Y-116152586D01*
X117215854Y-116152586D01*
X117219963Y-116228524D01*
X117235820Y-116297299D01*
X117264740Y-116365782D01*
X117277104Y-116388795D01*
X117337533Y-116477292D01*
X117416159Y-116562035D01*
X117512050Y-116642118D01*
X117624278Y-116716633D01*
X117694755Y-116755611D01*
X117819089Y-116813549D01*
X117957700Y-116866897D01*
X118107535Y-116914798D01*
X118265543Y-116956395D01*
X118428671Y-116990832D01*
X118593866Y-117017252D01*
X118758077Y-117034799D01*
X118885697Y-117043117D01*
X119153429Y-117048701D01*
X119411983Y-117037527D01*
X119661138Y-117009622D01*
X119900674Y-116965017D01*
X120130369Y-116903740D01*
X120350002Y-116825820D01*
X120399744Y-116805016D01*
X120533741Y-116739787D01*
X120652346Y-116667581D01*
X120754808Y-116589022D01*
X120840374Y-116504736D01*
X120908291Y-116415346D01*
X120957805Y-116321478D01*
X120965852Y-116300506D01*
X120972947Y-116274521D01*
X120977166Y-116244467D01*
X120979170Y-116205193D01*
X120979620Y-116151551D01*
X120979616Y-116149473D01*
X120977944Y-116083618D01*
X120972488Y-116031816D01*
X120961993Y-115988882D01*
X120945204Y-115949634D01*
X120920866Y-115908889D01*
X120896106Y-115871382D01*
X120841820Y-115931370D01*
X120801432Y-115972264D01*
X120740082Y-116022246D01*
X120667397Y-116068569D01*
X120579326Y-116114053D01*
X120560439Y-116122832D01*
X120424466Y-116177662D01*
X120271793Y-116226042D01*
X120104029Y-116267699D01*
X119922781Y-116302360D01*
X119729658Y-116329753D01*
X119526267Y-116349605D01*
X119314217Y-116361644D01*
X119095116Y-116365597D01*
X119060929Y-116365469D01*
X118844697Y-116359930D01*
X118635506Y-116346431D01*
X118435007Y-116325254D01*
X118244851Y-116296680D01*
X118066688Y-116260991D01*
X117902171Y-116218470D01*
X117752949Y-116169396D01*
X117620675Y-116114053D01*
X117554010Y-116080444D01*
X117477689Y-116034613D01*
X117413763Y-115985862D01*
X117358181Y-115931370D01*
X117303895Y-115871382D01*
X117279135Y-115908889D01*
X117272358Y-115919524D01*
X117244218Y-115976453D01*
X117226387Y-116040733D01*
X117217259Y-116117791D01*
X117215854Y-116152586D01*
X117064420Y-116152586D01*
X117064379Y-116151551D01*
X117064736Y-116130777D01*
X117077218Y-116023311D01*
X117107116Y-115923064D01*
X117153885Y-115831470D01*
X117216981Y-115749961D01*
X117226782Y-115739407D01*
X117251257Y-115711307D01*
X117265283Y-115690247D01*
X117267335Y-115684116D01*
X117421769Y-115684116D01*
X117421859Y-115738019D01*
X117428786Y-115778271D01*
X117429684Y-115780845D01*
X117451105Y-115817218D01*
X117488525Y-115856825D01*
X117539329Y-115897760D01*
X117600904Y-115938118D01*
X117670637Y-115975994D01*
X117745915Y-116009481D01*
X117771806Y-116019466D01*
X117859958Y-116050176D01*
X117956613Y-116079811D01*
X118053567Y-116105957D01*
X118142616Y-116126200D01*
X118144765Y-116126630D01*
X118219362Y-116140990D01*
X118284877Y-116152529D01*
X118339313Y-116160964D01*
X118380670Y-116166014D01*
X118406950Y-116167394D01*
X118416154Y-116164825D01*
X118415466Y-116162604D01*
X118406545Y-116146346D01*
X118388514Y-116117113D01*
X118362899Y-116077158D01*
X118331224Y-116028738D01*
X118295016Y-115974105D01*
X118255800Y-115915514D01*
X118215102Y-115855219D01*
X118174448Y-115795475D01*
X118135363Y-115738537D01*
X118099373Y-115686658D01*
X118068003Y-115642092D01*
X118042779Y-115607095D01*
X118025226Y-115583920D01*
X118016871Y-115574821D01*
X118016484Y-115574669D01*
X118002010Y-115569520D01*
X117971764Y-115559084D01*
X117928298Y-115544233D01*
X117874165Y-115525834D01*
X117843818Y-115515559D01*
X118177888Y-115515559D01*
X118178913Y-115517948D01*
X118188540Y-115534439D01*
X118207365Y-115564689D01*
X118234248Y-115606924D01*
X118268048Y-115659369D01*
X118307623Y-115720251D01*
X118351833Y-115787795D01*
X118399537Y-115860228D01*
X118600746Y-116164825D01*
X118620107Y-116194135D01*
X118662227Y-116199938D01*
X118677842Y-116201654D01*
X118713144Y-116204641D01*
X118760643Y-116208086D01*
X118816109Y-116211686D01*
X118875308Y-116215139D01*
X118876743Y-116215217D01*
X118975428Y-116219234D01*
X119079639Y-116221040D01*
X119185210Y-116220729D01*
X119287974Y-116218395D01*
X119383767Y-116214132D01*
X119468422Y-116208034D01*
X119537774Y-116200196D01*
X119579894Y-116194135D01*
X119598856Y-116165430D01*
X119785740Y-116165430D01*
X119789981Y-116166848D01*
X119810403Y-116166249D01*
X119844711Y-116162452D01*
X119889649Y-116156001D01*
X119941961Y-116147439D01*
X119998392Y-116137311D01*
X120055687Y-116126159D01*
X120110591Y-116114527D01*
X120159847Y-116102960D01*
X120240686Y-116081290D01*
X120360961Y-116043171D01*
X120469494Y-116001281D01*
X120564728Y-115956383D01*
X120645101Y-115909242D01*
X120709055Y-115860622D01*
X120755030Y-115811288D01*
X120766077Y-115788627D01*
X120774594Y-115745313D01*
X120776425Y-115690105D01*
X120771866Y-115626574D01*
X120761212Y-115558291D01*
X120744758Y-115488827D01*
X120722800Y-115421753D01*
X120712751Y-115395339D01*
X120455895Y-115481876D01*
X120450538Y-115483681D01*
X120383065Y-115506455D01*
X120356183Y-115515559D01*
X120321350Y-115527356D01*
X120267947Y-115545512D01*
X120225408Y-115560055D01*
X120196285Y-115570115D01*
X120183130Y-115574821D01*
X120175654Y-115582419D01*
X120158276Y-115604728D01*
X120132689Y-115639786D01*
X120100230Y-115685698D01*
X120062235Y-115740571D01*
X120020041Y-115802513D01*
X119974985Y-115869629D01*
X119934408Y-115930773D01*
X119893404Y-115993159D01*
X119857285Y-116048743D01*
X119827255Y-116095645D01*
X119804518Y-116131982D01*
X119790278Y-116155870D01*
X119785740Y-116165430D01*
X119598856Y-116165430D01*
X119800464Y-115860228D01*
X119820692Y-115829568D01*
X119867079Y-115758956D01*
X119909496Y-115693972D01*
X119946804Y-115636390D01*
X119977860Y-115587983D01*
X120001524Y-115550526D01*
X120016656Y-115525794D01*
X120022113Y-115515559D01*
X120022010Y-115515009D01*
X120014568Y-115503082D01*
X119996340Y-115477978D01*
X119968657Y-115441421D01*
X119932852Y-115395135D01*
X119890259Y-115340846D01*
X119842208Y-115280278D01*
X119790032Y-115215155D01*
X119556872Y-114925513D01*
X119100000Y-114925513D01*
X118643129Y-114925513D01*
X118409968Y-115215155D01*
X118401842Y-115225258D01*
X118350206Y-115289801D01*
X118302897Y-115349527D01*
X118261248Y-115402714D01*
X118226590Y-115447635D01*
X118200255Y-115482566D01*
X118183577Y-115505782D01*
X118177888Y-115515559D01*
X117843818Y-115515559D01*
X117811917Y-115504758D01*
X117744106Y-115481876D01*
X117487250Y-115395339D01*
X117477371Y-115421324D01*
X117456515Y-115484647D01*
X117439699Y-115553014D01*
X117427916Y-115620976D01*
X117421769Y-115684116D01*
X117267335Y-115684116D01*
X117271652Y-115671220D01*
X117273154Y-115649221D01*
X117276177Y-115603875D01*
X117288128Y-115533955D01*
X117308197Y-115453129D01*
X117335355Y-115364694D01*
X117368569Y-115271947D01*
X117376305Y-115252979D01*
X117538907Y-115252979D01*
X117538909Y-115252982D01*
X117548604Y-115256736D01*
X117574371Y-115265895D01*
X117613777Y-115279616D01*
X117664390Y-115297058D01*
X117723776Y-115317378D01*
X117789502Y-115339733D01*
X117855213Y-115361937D01*
X117915013Y-115381986D01*
X117966216Y-115398990D01*
X118006347Y-115412132D01*
X118032934Y-115420597D01*
X118043502Y-115423567D01*
X118044407Y-115423550D01*
X118046339Y-115423062D01*
X118049378Y-115420846D01*
X118054641Y-115415554D01*
X118063240Y-115405837D01*
X118076293Y-115390346D01*
X118094915Y-115367734D01*
X118120220Y-115336651D01*
X118153324Y-115295749D01*
X118195342Y-115243679D01*
X118247391Y-115179093D01*
X118310584Y-115100643D01*
X118511822Y-114850813D01*
X119688179Y-114850813D01*
X119889417Y-115100643D01*
X119917049Y-115134943D01*
X119965744Y-115195365D01*
X120010822Y-115251272D01*
X120050557Y-115300523D01*
X120083220Y-115340977D01*
X120107085Y-115370494D01*
X120120424Y-115386933D01*
X120130551Y-115398672D01*
X120148536Y-115416254D01*
X120159962Y-115423001D01*
X120163145Y-115422258D01*
X120181954Y-115416499D01*
X120214742Y-115405879D01*
X120258552Y-115391402D01*
X120310428Y-115374070D01*
X120367414Y-115354886D01*
X120426555Y-115334853D01*
X120484893Y-115314973D01*
X120539473Y-115296251D01*
X120587340Y-115279688D01*
X120625536Y-115266288D01*
X120651106Y-115257053D01*
X120661094Y-115252986D01*
X120661282Y-115250572D01*
X120655855Y-115234213D01*
X120643576Y-115205799D01*
X120626208Y-115168920D01*
X120605513Y-115127167D01*
X120583254Y-115084127D01*
X120561192Y-115043392D01*
X120541090Y-115008551D01*
X120517445Y-114970579D01*
X120439887Y-114858622D01*
X120354282Y-114751069D01*
X120266393Y-114655332D01*
X120242707Y-114632365D01*
X120203747Y-114596851D01*
X120160954Y-114559846D01*
X120116957Y-114523421D01*
X120074386Y-114489649D01*
X120035870Y-114460603D01*
X120004040Y-114438353D01*
X119981525Y-114424973D01*
X119970954Y-114422534D01*
X119965477Y-114430153D01*
X119950513Y-114452226D01*
X119927665Y-114486440D01*
X119898416Y-114530559D01*
X119864252Y-114582351D01*
X119826658Y-114639581D01*
X119688179Y-114850813D01*
X118511822Y-114850813D01*
X118371060Y-114636605D01*
X118335132Y-114582560D01*
X118299945Y-114530933D01*
X118269268Y-114487272D01*
X118244618Y-114453691D01*
X118227514Y-114432305D01*
X118219472Y-114425232D01*
X118208466Y-114431435D01*
X118185068Y-114447112D01*
X118152955Y-114469797D01*
X118115637Y-114497062D01*
X118074814Y-114528529D01*
X117955337Y-114634512D01*
X117842629Y-114755061D01*
X117739564Y-114886612D01*
X117649017Y-115025603D01*
X117573865Y-115168471D01*
X117564965Y-115187950D01*
X117550702Y-115220516D01*
X117541456Y-115243545D01*
X117538907Y-115252979D01*
X117376305Y-115252979D01*
X117406809Y-115178185D01*
X117449045Y-115086705D01*
X117517675Y-114957961D01*
X117621121Y-114795683D01*
X117736518Y-114646789D01*
X117862775Y-114512653D01*
X117998802Y-114394648D01*
X118069565Y-114344243D01*
X118358465Y-114344243D01*
X118501684Y-114561609D01*
X118644903Y-114778974D01*
X119100000Y-114778974D01*
X119555098Y-114778974D01*
X119698317Y-114561609D01*
X119841536Y-114344243D01*
X119777694Y-114311953D01*
X119738593Y-114293726D01*
X119666496Y-114265144D01*
X119584366Y-114237280D01*
X119497855Y-114212003D01*
X119412616Y-114191183D01*
X119390300Y-114186492D01*
X119354318Y-114179937D01*
X119318675Y-114175209D01*
X119279396Y-114172024D01*
X119232507Y-114170100D01*
X119174034Y-114169154D01*
X119100000Y-114168901D01*
X119055428Y-114168978D01*
X118990800Y-114169594D01*
X118939454Y-114171066D01*
X118897413Y-114173677D01*
X118860705Y-114177712D01*
X118825354Y-114183453D01*
X118787385Y-114191183D01*
X118731938Y-114204233D01*
X118645226Y-114228186D01*
X118560949Y-114255370D01*
X118484758Y-114283916D01*
X118422307Y-114311953D01*
X118358465Y-114344243D01*
X118069565Y-114344243D01*
X118132087Y-114299708D01*
X118292344Y-114206694D01*
X118458554Y-114131394D01*
X118629521Y-114073943D01*
X118804050Y-114034477D01*
X118980945Y-114013133D01*
X119159010Y-114010046D01*
X119337050Y-114025352D01*
X119513869Y-114059188D01*
X119688271Y-114111689D01*
X119859060Y-114182992D01*
X119974456Y-114243223D01*
X120133148Y-114344243D01*
X120133754Y-114344629D01*
G37*
G36*
X181135066Y-115028733D02*
G01*
X181177939Y-115066393D01*
X181146843Y-115099343D01*
X181052693Y-115116492D01*
X180970319Y-115104054D01*
X180927446Y-115066393D01*
X180958542Y-115033444D01*
X181052693Y-115016295D01*
X181135066Y-115028733D01*
G37*
G36*
X181485756Y-114978634D02*
G01*
X181528629Y-115016295D01*
X181497534Y-115049244D01*
X181403383Y-115066393D01*
X181321010Y-115053955D01*
X181278136Y-115016295D01*
X181309232Y-114983346D01*
X181403383Y-114966196D01*
X181485756Y-114978634D01*
G37*
G36*
X181485756Y-115229128D02*
G01*
X181528629Y-115266788D01*
X181497534Y-115299737D01*
X181403383Y-115316887D01*
X181321010Y-115304448D01*
X181278136Y-115266788D01*
X181309232Y-115233839D01*
X181403383Y-115216689D01*
X181485756Y-115229128D01*
G37*
G36*
X182384791Y-115475195D02*
G01*
X182455454Y-115517281D01*
X182443450Y-115551476D01*
X182358213Y-115567380D01*
X182272972Y-115554622D01*
X182230010Y-115517281D01*
X182247461Y-115488732D01*
X182327251Y-115467182D01*
X182384791Y-115475195D01*
G37*
G36*
X182388444Y-115025689D02*
G01*
X182430405Y-115066393D01*
X182411616Y-115095512D01*
X182330207Y-115116492D01*
X182271970Y-115107098D01*
X182230010Y-115066393D01*
X182248799Y-115037275D01*
X182330207Y-115016295D01*
X182388444Y-115025689D01*
G37*
G36*
X182439925Y-115272440D02*
G01*
X182480503Y-115316887D01*
X182472025Y-115339933D01*
X182405355Y-115366985D01*
X182370785Y-115361333D01*
X182330207Y-115316887D01*
X182338686Y-115293840D01*
X182405355Y-115266788D01*
X182439925Y-115272440D01*
G37*
G36*
X181109679Y-115487927D02*
G01*
X181118669Y-115537521D01*
X181040168Y-115582944D01*
X180992301Y-115595833D01*
X180939971Y-115611667D01*
X180934168Y-115605752D01*
X180927446Y-115542330D01*
X180946043Y-115498508D01*
X181027643Y-115467182D01*
X181109679Y-115487927D01*
G37*
G36*
X181216395Y-115238446D02*
G01*
X181222940Y-115263906D01*
X181176488Y-115318843D01*
X181164070Y-115326205D01*
X181059483Y-115361253D01*
X180967173Y-115358411D01*
X180927446Y-115317841D01*
X180955861Y-115279970D01*
X181044195Y-115240866D01*
X181146875Y-115222674D01*
X181216395Y-115238446D01*
G37*
G36*
X181466006Y-115443669D02*
G01*
X181501957Y-115460984D01*
X181509946Y-115487750D01*
X181428432Y-115519183D01*
X181401477Y-115527344D01*
X181287862Y-115557085D01*
X181238679Y-115553356D01*
X181228038Y-115515709D01*
X181261817Y-115457793D01*
X181354916Y-115426737D01*
X181466006Y-115443669D01*
G37*
G36*
X182135046Y-114982558D02*
G01*
X182179911Y-115032667D01*
X182145930Y-115076682D01*
X182029616Y-115077080D01*
X182027679Y-115076792D01*
X181922832Y-115048172D01*
X181879320Y-115010609D01*
X181879330Y-115010077D01*
X181924064Y-114979067D01*
X182029616Y-114966196D01*
X182135046Y-114982558D01*
G37*
G36*
X182023274Y-115429364D02*
G01*
X182116902Y-115460929D01*
X182170359Y-115512740D01*
X182170763Y-115556406D01*
X182107502Y-115550313D01*
X182058584Y-115534770D01*
X181950370Y-115517281D01*
X181919538Y-115511956D01*
X181879320Y-115463855D01*
X181880652Y-115454708D01*
X181930763Y-115424979D01*
X182023274Y-115429364D01*
G37*
G36*
X182124635Y-115217967D02*
G01*
X182235664Y-115235416D01*
X182280109Y-115266788D01*
X182274999Y-115278018D01*
X182205202Y-115305775D01*
X182079714Y-115316887D01*
X182034794Y-115315609D01*
X181923765Y-115298160D01*
X181879320Y-115266788D01*
X181884430Y-115255558D01*
X181954227Y-115227801D01*
X182079714Y-115216689D01*
X182124635Y-115217967D01*
G37*
G36*
X182333311Y-117184032D02*
G01*
X182213932Y-117277819D01*
X182116931Y-117364980D01*
X182079714Y-117414157D01*
X182090641Y-117464607D01*
X182126957Y-117586475D01*
X182179911Y-117746670D01*
X182226031Y-117882841D01*
X182265094Y-118003182D01*
X182280109Y-118056685D01*
X182280052Y-118057026D01*
X182240857Y-118037356D01*
X182142913Y-117971605D01*
X182006705Y-117873496D01*
X181864301Y-117771849D01*
X181753361Y-117699225D01*
X181698141Y-117671522D01*
X181645032Y-117698424D01*
X181535959Y-117771114D01*
X181395411Y-117873539D01*
X181390710Y-117877081D01*
X181258106Y-117970945D01*
X181163766Y-118026448D01*
X181127840Y-118031678D01*
X181138722Y-117980224D01*
X181175041Y-117857294D01*
X181228038Y-117696571D01*
X181274301Y-117560461D01*
X181313263Y-117441986D01*
X181328235Y-117390893D01*
X181328097Y-117390343D01*
X181286493Y-117353482D01*
X181185030Y-117275806D01*
X181044537Y-117173293D01*
X180971886Y-117121269D01*
X181261452Y-117121269D01*
X181372586Y-117239565D01*
X181451773Y-117360813D01*
X181450645Y-117489642D01*
X181448156Y-117499880D01*
X181442113Y-117596273D01*
X181491009Y-117611318D01*
X181598468Y-117546408D01*
X181662532Y-117508123D01*
X181733986Y-117513409D01*
X181839795Y-117578853D01*
X181986235Y-117683128D01*
X181952254Y-117501997D01*
X181939444Y-117408570D01*
X181957454Y-117309415D01*
X182034329Y-117226892D01*
X182150384Y-117132916D01*
X181985294Y-117096656D01*
X181848779Y-117038119D01*
X181756566Y-116909046D01*
X181692928Y-116757696D01*
X181640976Y-116906725D01*
X181636950Y-116917888D01*
X181561021Y-117033125D01*
X181425238Y-117088512D01*
X181261452Y-117121269D01*
X180971886Y-117121269D01*
X180760839Y-116970141D01*
X181118243Y-116970141D01*
X181475647Y-116970141D01*
X181587058Y-116606926D01*
X181698469Y-116243711D01*
X181804558Y-116594401D01*
X181910647Y-116945092D01*
X182248777Y-116970141D01*
X182586908Y-116995190D01*
X182401955Y-117132916D01*
X182333311Y-117184032D01*
G37*
G36*
X182730996Y-115875181D02*
G01*
X182442929Y-115834809D01*
X182391820Y-115828281D01*
X182124095Y-115806844D01*
X181808088Y-115796496D01*
X181480758Y-115797292D01*
X181179066Y-115809288D01*
X180939971Y-115832539D01*
X180676953Y-115871422D01*
X180676953Y-115719401D01*
X180676941Y-115716106D01*
X180661876Y-115610953D01*
X180626854Y-115567380D01*
X180603807Y-115558901D01*
X180576756Y-115492232D01*
X180582408Y-115457661D01*
X180626854Y-115417084D01*
X180655973Y-115398295D01*
X180676953Y-115316887D01*
X180667559Y-115258649D01*
X180626854Y-115216689D01*
X180603807Y-115208211D01*
X180576756Y-115141541D01*
X180582408Y-115106971D01*
X180626854Y-115066393D01*
X180659412Y-115036889D01*
X180676953Y-114944217D01*
X180677358Y-114929717D01*
X180827249Y-114929717D01*
X180827249Y-115323696D01*
X180827384Y-115384826D01*
X180831596Y-115560415D01*
X180845181Y-115661101D01*
X180872795Y-115706862D01*
X180919096Y-115717675D01*
X180970295Y-115714474D01*
X181032516Y-115696103D01*
X181064457Y-115685585D01*
X181173574Y-115668336D01*
X181328933Y-115652638D01*
X181603777Y-115630744D01*
X181618257Y-115252332D01*
X181779122Y-115252332D01*
X181779122Y-115653197D01*
X181916894Y-115649226D01*
X181977076Y-115650057D01*
X182138842Y-115661901D01*
X182319545Y-115683438D01*
X182584426Y-115721621D01*
X182575633Y-115373227D01*
X182575593Y-115371660D01*
X182566340Y-115189060D01*
X182550638Y-115044171D01*
X182531863Y-114968237D01*
X182530103Y-114965861D01*
X182459444Y-114933939D01*
X182319289Y-114903756D01*
X182138004Y-114881554D01*
X181779122Y-114851467D01*
X181779122Y-114865999D01*
X181779122Y-115252332D01*
X181618257Y-115252332D01*
X181618409Y-115248372D01*
X181633041Y-114865999D01*
X181462581Y-114865999D01*
X181421107Y-114866726D01*
X181244754Y-114877761D01*
X181059685Y-114897858D01*
X180827249Y-114929717D01*
X180677358Y-114929717D01*
X180677636Y-114919773D01*
X180699161Y-114853066D01*
X180769799Y-114812772D01*
X180914921Y-114781548D01*
X180965588Y-114774189D01*
X181177241Y-114756536D01*
X181447586Y-114746610D01*
X181745481Y-114744374D01*
X182039782Y-114749792D01*
X182299346Y-114762826D01*
X182493028Y-114783439D01*
X182541836Y-114791724D01*
X182663881Y-114822596D01*
X182718456Y-114867699D01*
X182730996Y-114944217D01*
X182743095Y-115023616D01*
X182781095Y-115066393D01*
X182804142Y-115074872D01*
X182831193Y-115141541D01*
X182825541Y-115176112D01*
X182781095Y-115216689D01*
X182751976Y-115235478D01*
X182730996Y-115316887D01*
X182740391Y-115375124D01*
X182781095Y-115417084D01*
X182804142Y-115425562D01*
X182831193Y-115492232D01*
X182825541Y-115526802D01*
X182781095Y-115567380D01*
X182779515Y-115567456D01*
X182745194Y-115614205D01*
X182730996Y-115721280D01*
X182730996Y-115721621D01*
X182730996Y-115875181D01*
G37*
G36*
X183879893Y-116121014D02*
G01*
X183875678Y-116287051D01*
X183869442Y-116532659D01*
X183850379Y-116875921D01*
X183821180Y-117166180D01*
X183780323Y-117418816D01*
X183726285Y-117649208D01*
X183657542Y-117872737D01*
X183578524Y-118081311D01*
X183339581Y-118536928D01*
X183021278Y-118949001D01*
X182617482Y-119324713D01*
X182122066Y-119671242D01*
X182010464Y-119739631D01*
X181851999Y-119835566D01*
X181740601Y-119901466D01*
X181695321Y-119925959D01*
X181686829Y-119922219D01*
X181613954Y-119881127D01*
X181484012Y-119804305D01*
X181317487Y-119703795D01*
X181312962Y-119701038D01*
X180830873Y-119372139D01*
X180439693Y-119026358D01*
X180130505Y-118654572D01*
X179894392Y-118247656D01*
X179869540Y-118194949D01*
X179782742Y-118003118D01*
X179713543Y-117828711D01*
X179659744Y-117657024D01*
X179619143Y-117473355D01*
X179589540Y-117263002D01*
X179568734Y-117011262D01*
X179554523Y-116703432D01*
X179544708Y-116324811D01*
X179544067Y-116285767D01*
X179725079Y-116285767D01*
X179725458Y-116565331D01*
X179744360Y-116939936D01*
X179843751Y-117500766D01*
X180024100Y-118024759D01*
X180280582Y-118495139D01*
X180453058Y-118726473D01*
X180690247Y-118973201D01*
X180982292Y-119206870D01*
X181350337Y-119446282D01*
X181356270Y-119449848D01*
X181507465Y-119538198D01*
X181622174Y-119600660D01*
X181675978Y-119623915D01*
X181697409Y-119620303D01*
X181813271Y-119572436D01*
X181979840Y-119480128D01*
X182175748Y-119357231D01*
X182379626Y-119217595D01*
X182570102Y-119075068D01*
X182725808Y-118943502D01*
X182882499Y-118785767D01*
X183190771Y-118374085D01*
X183423772Y-117896580D01*
X183581587Y-117353052D01*
X183664302Y-116743300D01*
X183696373Y-116287051D01*
X182700174Y-116234683D01*
X182477670Y-116224135D01*
X181599487Y-116207658D01*
X180714527Y-116234041D01*
X179725079Y-116285767D01*
X179544067Y-116285767D01*
X179540497Y-116068366D01*
X179715437Y-116068366D01*
X181700326Y-116068366D01*
X183685214Y-116068366D01*
X183652192Y-115655052D01*
X183651549Y-115647023D01*
X183630808Y-115395942D01*
X183608161Y-115133808D01*
X183588396Y-114916098D01*
X183557623Y-114590457D01*
X183206933Y-114548414D01*
X183034733Y-114534219D01*
X182774420Y-114522400D01*
X182453673Y-114513899D01*
X182092564Y-114508719D01*
X181711163Y-114506867D01*
X181329544Y-114508347D01*
X180967779Y-114513163D01*
X180645938Y-114521321D01*
X180384095Y-114532826D01*
X180202320Y-114547682D01*
X179852935Y-114590457D01*
X179819863Y-114790851D01*
X179809044Y-114869623D01*
X179789585Y-115052911D01*
X179769287Y-115283595D01*
X179751114Y-115529806D01*
X179715437Y-116068366D01*
X179540497Y-116068366D01*
X179537087Y-115860694D01*
X179516736Y-114425607D01*
X179758679Y-114394492D01*
X180483590Y-114320228D01*
X181548492Y-114274041D01*
X182614407Y-114298472D01*
X183645296Y-114393531D01*
X183883264Y-114424514D01*
X183883264Y-115593505D01*
X183883255Y-115625607D01*
X183880250Y-116068366D01*
X183879893Y-116121014D01*
G37*
G36*
X180510439Y-116811851D02*
G01*
X180426460Y-116983811D01*
X180368721Y-117063015D01*
X180330389Y-117138245D01*
X180351274Y-117150789D01*
X180430985Y-117091293D01*
X180501028Y-117032791D01*
X180550710Y-117028320D01*
X180606330Y-117093103D01*
X180660022Y-117208756D01*
X180665546Y-117323883D01*
X180668644Y-117388440D01*
X180603398Y-117549224D01*
X180558830Y-117624412D01*
X180531641Y-117721620D01*
X180547168Y-117745756D01*
X180587802Y-117684046D01*
X180588002Y-117683633D01*
X180651247Y-117589465D01*
X180716022Y-117589181D01*
X180799359Y-117682669D01*
X180854105Y-117801470D01*
X180865594Y-117915170D01*
X180873727Y-117995664D01*
X180825486Y-118175801D01*
X180799214Y-118242038D01*
X180825486Y-118272705D01*
X180848372Y-118265249D01*
X180877347Y-118200514D01*
X180877383Y-118196535D01*
X180910412Y-118109843D01*
X180990099Y-118098658D01*
X181094003Y-118166503D01*
X181176185Y-118300534D01*
X181204567Y-118496944D01*
X181204927Y-118502996D01*
X181211106Y-118606910D01*
X181229286Y-118713371D01*
X181251471Y-118761773D01*
X181270232Y-118738630D01*
X181278136Y-118630459D01*
X181278142Y-118614671D01*
X181284626Y-118516636D01*
X181322828Y-118498998D01*
X181421376Y-118544598D01*
X181491270Y-118591240D01*
X181612832Y-118751865D01*
X181672126Y-118929537D01*
X181695353Y-118999135D01*
X181704258Y-119037413D01*
X181716547Y-119058909D01*
X181723212Y-118984122D01*
X181732005Y-118946549D01*
X181829221Y-118946549D01*
X181830243Y-118952177D01*
X181877557Y-118974086D01*
X181902331Y-118966903D01*
X181953010Y-118910682D01*
X182199200Y-118910682D01*
X182263955Y-118923987D01*
X182341610Y-118907913D01*
X182438385Y-118846443D01*
X182480503Y-118768362D01*
X182463194Y-118749170D01*
X182391679Y-118756851D01*
X182299647Y-118796192D01*
X182225517Y-118854253D01*
X182222220Y-118858270D01*
X182199200Y-118910682D01*
X181953010Y-118910682D01*
X181965145Y-118897220D01*
X182010577Y-118788279D01*
X182017739Y-118683393D01*
X182007233Y-118654444D01*
X181973686Y-118662903D01*
X181914374Y-118758679D01*
X181903035Y-118780274D01*
X181850556Y-118888195D01*
X181829221Y-118946549D01*
X181732005Y-118946549D01*
X181763457Y-118812154D01*
X181864469Y-118643490D01*
X182000809Y-118534026D01*
X182085279Y-118501552D01*
X182123216Y-118524286D01*
X182129813Y-118627426D01*
X182129879Y-118635604D01*
X182137090Y-118683393D01*
X182143950Y-118728856D01*
X182175143Y-118751589D01*
X182182947Y-118743319D01*
X182200636Y-118661748D01*
X182194810Y-118532240D01*
X182192512Y-118508576D01*
X182289466Y-118508576D01*
X182301310Y-118541290D01*
X182339537Y-118548479D01*
X182383105Y-118496522D01*
X182400979Y-118448875D01*
X182608644Y-118448875D01*
X182628318Y-118469458D01*
X182701966Y-118436366D01*
X182815875Y-118349436D01*
X182858921Y-118309795D01*
X182908347Y-118245162D01*
X182877500Y-118224190D01*
X182872266Y-118224340D01*
X182783041Y-118262501D01*
X182722563Y-118313037D01*
X182680898Y-118347853D01*
X182656657Y-118374777D01*
X182608644Y-118448875D01*
X182400979Y-118448875D01*
X182415605Y-118409885D01*
X182420624Y-118313037D01*
X182403153Y-118197557D01*
X182338463Y-118312905D01*
X182300726Y-118405429D01*
X182289466Y-118508576D01*
X182192512Y-118508576D01*
X182188006Y-118462166D01*
X182207131Y-118326027D01*
X182291570Y-118198580D01*
X182333079Y-118155072D01*
X182433797Y-118094618D01*
X182504147Y-118119665D01*
X182530602Y-118228520D01*
X182540928Y-118282812D01*
X182580836Y-118297671D01*
X182603817Y-118268036D01*
X182580836Y-118172761D01*
X182540099Y-118042397D01*
X182537770Y-117924971D01*
X182630799Y-117924971D01*
X182645453Y-118028845D01*
X182680898Y-118072311D01*
X182688080Y-118070470D01*
X182718607Y-118011076D01*
X182730351Y-117900104D01*
X182942879Y-117900104D01*
X182995789Y-117894051D01*
X183076263Y-117838359D01*
X183149751Y-117762293D01*
X183181884Y-117695302D01*
X183173123Y-117661954D01*
X183120576Y-117650025D01*
X183045269Y-117694053D01*
X182976039Y-117781904D01*
X182947807Y-117846573D01*
X182943440Y-117894009D01*
X182942879Y-117900104D01*
X182730351Y-117900104D01*
X182730996Y-117894009D01*
X182730627Y-117869898D01*
X182714988Y-117767835D01*
X182680898Y-117746670D01*
X182646242Y-117809274D01*
X182630799Y-117924971D01*
X182537770Y-117924971D01*
X182536905Y-117881387D01*
X182569728Y-117729168D01*
X182631796Y-117615795D01*
X182716339Y-117571324D01*
X182761115Y-117598060D01*
X182820147Y-117684046D01*
X182859443Y-117744861D01*
X182876308Y-117721620D01*
X182861975Y-117655300D01*
X182804551Y-117549224D01*
X182748149Y-117431056D01*
X182741271Y-117287983D01*
X182841195Y-117287983D01*
X182852481Y-117398827D01*
X182884561Y-117478785D01*
X182932345Y-117521226D01*
X182969879Y-117485275D01*
X182972834Y-117384684D01*
X182946383Y-117285882D01*
X183146163Y-117285882D01*
X183174518Y-117296027D01*
X183253380Y-117224669D01*
X183305007Y-117141167D01*
X183321526Y-117036492D01*
X183306523Y-116997532D01*
X183272994Y-117012820D01*
X183213244Y-117112568D01*
X183170576Y-117200545D01*
X183146163Y-117285882D01*
X182946383Y-117285882D01*
X182936512Y-117249009D01*
X182896122Y-117192713D01*
X182859843Y-117211966D01*
X182841195Y-117287983D01*
X182741271Y-117287983D01*
X182739561Y-117252423D01*
X182806144Y-117092438D01*
X182846035Y-117043949D01*
X182893109Y-117024468D01*
X182949438Y-117082863D01*
X183000790Y-117142447D01*
X183044893Y-117169006D01*
X183039641Y-117120839D01*
X182980940Y-117007715D01*
X182910896Y-116857546D01*
X182892692Y-116710073D01*
X182981489Y-116710073D01*
X182996399Y-116784322D01*
X183055044Y-116897942D01*
X183096849Y-116951165D01*
X183124696Y-116961994D01*
X183130192Y-116886566D01*
X183121226Y-116776460D01*
X183082984Y-116664082D01*
X183026228Y-116619451D01*
X183002008Y-116633977D01*
X182981489Y-116710073D01*
X182892692Y-116710073D01*
X182886751Y-116661944D01*
X182947849Y-116497480D01*
X182952481Y-116491180D01*
X183000603Y-116441479D01*
X183047487Y-116456638D01*
X183123194Y-116544760D01*
X183127486Y-116550309D01*
X183201434Y-116681134D01*
X183231982Y-116803315D01*
X183233408Y-116848621D01*
X183252511Y-116886566D01*
X183257560Y-116896596D01*
X183332180Y-116869944D01*
X183411671Y-116841812D01*
X183437922Y-116880706D01*
X183437220Y-117036492D01*
X183437196Y-117041854D01*
X183379318Y-117207338D01*
X183242279Y-117363061D01*
X183218670Y-117384684D01*
X183165652Y-117433241D01*
X183106746Y-117496294D01*
X183113751Y-117518107D01*
X183180649Y-117513357D01*
X183233317Y-117510878D01*
X183308388Y-117550707D01*
X183308357Y-117652017D01*
X183287640Y-117695302D01*
X183232480Y-117810551D01*
X183138524Y-117923939D01*
X182981461Y-118004683D01*
X182911546Y-118023490D01*
X182840164Y-118066820D01*
X182852099Y-118105606D01*
X182951750Y-118122409D01*
X183032461Y-118144186D01*
X183052068Y-118206903D01*
X183035736Y-118245162D01*
X183014561Y-118294765D01*
X182933487Y-118391821D01*
X182822393Y-118482119D01*
X182694826Y-118549704D01*
X182564332Y-118578626D01*
X182405355Y-118583956D01*
X182543126Y-118638396D01*
X182623146Y-118674294D01*
X182670939Y-118724201D01*
X182649924Y-118768362D01*
X182639244Y-118790806D01*
X182526758Y-118894484D01*
X182394595Y-118980076D01*
X182185643Y-119024184D01*
X182101664Y-119031459D01*
X181978189Y-119065204D01*
X181882510Y-119114554D01*
X181837768Y-119166231D01*
X181867107Y-119206956D01*
X181891254Y-119222550D01*
X181901725Y-119278956D01*
X181897987Y-119284635D01*
X181825717Y-119322792D01*
X181753989Y-119274542D01*
X181724286Y-119251577D01*
X181628827Y-119274677D01*
X181568919Y-119296682D01*
X181506308Y-119279092D01*
X181500244Y-119256941D01*
X181540842Y-119206956D01*
X181572249Y-119177794D01*
X181544833Y-119128596D01*
X181458781Y-119078592D01*
X181336461Y-119039787D01*
X181200245Y-119024184D01*
X181151911Y-119023063D01*
X180991069Y-118988858D01*
X180859130Y-118892106D01*
X180788723Y-118818777D01*
X180742563Y-118747758D01*
X180886581Y-118747758D01*
X180892343Y-118782880D01*
X180956153Y-118847764D01*
X181038555Y-118894257D01*
X181133334Y-118920111D01*
X181197884Y-118913268D01*
X181201078Y-118870798D01*
X181154057Y-118827586D01*
X181054038Y-118775517D01*
X181013225Y-118762801D01*
X181383587Y-118762801D01*
X181427594Y-118870798D01*
X181430195Y-118877182D01*
X181491566Y-118952081D01*
X181551742Y-118973710D01*
X181578728Y-118929537D01*
X181550143Y-118863926D01*
X181480198Y-118766717D01*
X181436248Y-118721572D01*
X181387750Y-118706191D01*
X181383587Y-118762801D01*
X181013225Y-118762801D01*
X180950195Y-118743163D01*
X180886581Y-118747758D01*
X180742563Y-118747758D01*
X180737365Y-118739761D01*
X180762553Y-118687607D01*
X180864823Y-118638396D01*
X181002594Y-118583956D01*
X180867180Y-118578626D01*
X180736698Y-118561122D01*
X180539420Y-118468628D01*
X180406523Y-118303619D01*
X180396175Y-118282307D01*
X180378239Y-118238657D01*
X180495363Y-118238657D01*
X180528927Y-118300490D01*
X180576776Y-118350233D01*
X180668240Y-118417817D01*
X180744959Y-118448691D01*
X180777150Y-118427604D01*
X180761336Y-118392306D01*
X180687667Y-118318815D01*
X180669260Y-118306182D01*
X180979138Y-118306182D01*
X180983169Y-118377857D01*
X180993780Y-118427604D01*
X181007954Y-118494051D01*
X181028897Y-118533258D01*
X181083102Y-118573297D01*
X181103992Y-118566758D01*
X181126735Y-118502996D01*
X181108923Y-118400329D01*
X181054286Y-118294805D01*
X181012480Y-118241583D01*
X180984634Y-118230753D01*
X180979138Y-118306182D01*
X180669260Y-118306182D01*
X180590104Y-118251855D01*
X180509375Y-118222606D01*
X180495363Y-118238657D01*
X180378239Y-118238657D01*
X180357459Y-118188086D01*
X180373819Y-118148003D01*
X180453590Y-118131606D01*
X180493931Y-118123875D01*
X180566272Y-118084884D01*
X180563472Y-118042252D01*
X180479352Y-118022212D01*
X180406769Y-118007726D01*
X180273424Y-117923705D01*
X180159591Y-117790999D01*
X180112678Y-117680073D01*
X180226065Y-117680073D01*
X180246095Y-117745563D01*
X180317683Y-117839102D01*
X180366820Y-117880084D01*
X180449594Y-117924061D01*
X180477525Y-117902093D01*
X180459988Y-117861420D01*
X180662011Y-117861420D01*
X180663171Y-117902093D01*
X180665503Y-117983838D01*
X180684718Y-118031041D01*
X180732895Y-118072311D01*
X180738768Y-118071622D01*
X180771006Y-118020691D01*
X180772989Y-117915170D01*
X180743340Y-117792004D01*
X180730895Y-117760918D01*
X180705510Y-117733659D01*
X180675949Y-117799631D01*
X180662011Y-117861420D01*
X180459988Y-117861420D01*
X180446226Y-117829504D01*
X180351312Y-117721620D01*
X180306277Y-117681306D01*
X180243996Y-117644668D01*
X180226065Y-117680073D01*
X180112678Y-117680073D01*
X180095699Y-117639926D01*
X180081801Y-117538203D01*
X180108028Y-117499288D01*
X180195949Y-117507996D01*
X180253091Y-117516669D01*
X180318475Y-117509012D01*
X180293892Y-117467651D01*
X180197104Y-117408504D01*
X180427227Y-117408504D01*
X180429174Y-117446246D01*
X180460060Y-117514091D01*
X180510128Y-117497683D01*
X180555468Y-117398827D01*
X180567006Y-117323883D01*
X180556477Y-117230938D01*
X180520621Y-117191062D01*
X180471063Y-117227810D01*
X180446359Y-117286854D01*
X180443363Y-117305904D01*
X180427227Y-117408504D01*
X180197104Y-117408504D01*
X180180139Y-117398137D01*
X180087166Y-117323203D01*
X179992713Y-117181911D01*
X179954996Y-117070842D01*
X180061385Y-117070842D01*
X180073860Y-117102394D01*
X180126096Y-117183698D01*
X180193346Y-117262361D01*
X180251429Y-117311918D01*
X180276164Y-117305904D01*
X180261391Y-117253060D01*
X180219279Y-117150599D01*
X180165018Y-117060506D01*
X180103638Y-117003997D01*
X180061908Y-117003812D01*
X180061385Y-117070842D01*
X179954996Y-117070842D01*
X179939276Y-117024549D01*
X179945212Y-116890766D01*
X179946337Y-116887894D01*
X179989962Y-116842084D01*
X180075026Y-116869546D01*
X180114181Y-116888766D01*
X180164958Y-116886970D01*
X180171975Y-116833651D01*
X180280851Y-116833651D01*
X180285477Y-116923474D01*
X180317193Y-116946218D01*
X180367967Y-116885628D01*
X180403624Y-116802634D01*
X180426460Y-116697892D01*
X180424019Y-116666732D01*
X180391318Y-116620952D01*
X180340502Y-116649186D01*
X180297276Y-116742547D01*
X180280851Y-116833651D01*
X180171975Y-116833651D01*
X180175967Y-116803315D01*
X180176051Y-116798464D01*
X180209357Y-116674382D01*
X180284755Y-116544760D01*
X180292313Y-116535172D01*
X180364724Y-116452972D01*
X180410633Y-116443110D01*
X180460100Y-116497480D01*
X180516615Y-116630406D01*
X180514318Y-116697892D01*
X180510439Y-116811851D01*
G37*
G36*
X138752662Y-115181866D02*
G01*
X138799198Y-115232992D01*
X138828086Y-115323730D01*
X138834233Y-115426372D01*
X138812543Y-115513213D01*
X138783301Y-115549004D01*
X138711790Y-115582161D01*
X138637943Y-115577017D01*
X138589970Y-115531280D01*
X138572582Y-115436429D01*
X138586535Y-115331749D01*
X138626521Y-115242434D01*
X138684280Y-115186366D01*
X138751553Y-115181425D01*
X138752662Y-115181866D01*
G37*
G36*
X139487951Y-115216391D02*
G01*
X139497788Y-115234025D01*
X139515644Y-115307427D01*
X139527838Y-115406729D01*
X139531430Y-115502914D01*
X139523478Y-115566969D01*
X139507737Y-115592461D01*
X139454158Y-115620380D01*
X139422278Y-115605631D01*
X139386730Y-115541910D01*
X139366171Y-115448509D01*
X139362760Y-115348222D01*
X139378658Y-115263841D01*
X139416027Y-115218158D01*
X139444070Y-115210628D01*
X139487951Y-115216391D01*
G37*
G36*
X139862648Y-116425487D02*
G01*
X139827745Y-116519265D01*
X139781570Y-116563657D01*
X139770592Y-116566449D01*
X139622011Y-116575924D01*
X139503714Y-116530983D01*
X139425529Y-116438256D01*
X139400075Y-116317610D01*
X139535036Y-116317610D01*
X139556275Y-116428562D01*
X139593307Y-116470129D01*
X139664010Y-116479571D01*
X139735490Y-116441738D01*
X139757317Y-116410413D01*
X139776235Y-116323864D01*
X139761524Y-116235137D01*
X139715618Y-116176694D01*
X139681319Y-116163103D01*
X139606466Y-116170800D01*
X139554736Y-116226996D01*
X139535036Y-116317610D01*
X139400075Y-116317610D01*
X139397283Y-116304374D01*
X139409566Y-116238049D01*
X139465558Y-116139987D01*
X139548710Y-116064633D01*
X139638859Y-116034510D01*
X139699151Y-116050762D01*
X139783879Y-116110100D01*
X139852300Y-116191046D01*
X139880436Y-116270204D01*
X139879720Y-116301795D01*
X139876674Y-116323864D01*
X139862648Y-116425487D01*
G37*
G36*
X138866439Y-116389629D02*
G01*
X138826495Y-116488966D01*
X138756945Y-116578056D01*
X138671383Y-116634199D01*
X138553467Y-116650090D01*
X138430030Y-116597312D01*
X138344298Y-116529107D01*
X138303759Y-116461602D01*
X138293464Y-116368336D01*
X138300511Y-116341730D01*
X138448234Y-116341730D01*
X138450755Y-116379626D01*
X138489298Y-116475765D01*
X138564319Y-116524676D01*
X138662895Y-116515873D01*
X138733230Y-116466373D01*
X138766460Y-116387654D01*
X138757350Y-116302434D01*
X138712691Y-116229169D01*
X138639273Y-116186320D01*
X138543884Y-116192344D01*
X138504387Y-116208983D01*
X138459334Y-116255592D01*
X138448234Y-116341730D01*
X138300511Y-116341730D01*
X138318611Y-116273390D01*
X138389718Y-116174183D01*
X138485950Y-116098894D01*
X138586278Y-116069021D01*
X138680921Y-116097122D01*
X138782780Y-116173936D01*
X138841119Y-116239242D01*
X138871527Y-116307500D01*
X138866561Y-116387654D01*
X138866439Y-116389629D01*
G37*
G36*
X139890100Y-115634188D02*
G01*
X139889036Y-115717163D01*
X139865956Y-115836560D01*
X139809731Y-115907919D01*
X139713983Y-115942403D01*
X139698556Y-115944130D01*
X139614651Y-115948065D01*
X139477569Y-115950938D01*
X139298819Y-115952621D01*
X139089914Y-115952985D01*
X138862365Y-115951902D01*
X138594557Y-115948854D01*
X138379383Y-115943265D01*
X138216087Y-115933569D01*
X138095989Y-115918139D01*
X138010408Y-115895346D01*
X137950665Y-115863561D01*
X137908079Y-115821157D01*
X137873969Y-115766505D01*
X137842218Y-115672788D01*
X137837960Y-115593290D01*
X137987342Y-115593290D01*
X138007487Y-115668225D01*
X138061537Y-115743192D01*
X138148786Y-115844700D01*
X138867940Y-115850274D01*
X138992976Y-115851139D01*
X139229458Y-115851719D01*
X139409113Y-115849848D01*
X139540386Y-115844858D01*
X139631717Y-115836078D01*
X139691550Y-115822841D01*
X139728328Y-115804476D01*
X139750491Y-115780314D01*
X139769365Y-115732611D01*
X139776215Y-115616164D01*
X139755418Y-115473686D01*
X139712187Y-115325958D01*
X139651736Y-115193757D01*
X139579277Y-115097863D01*
X139569887Y-115089414D01*
X139407113Y-114986362D01*
X139200601Y-114915589D01*
X138967239Y-114878560D01*
X138723913Y-114876743D01*
X138487508Y-114911603D01*
X138274911Y-114984607D01*
X138237767Y-115005267D01*
X138123588Y-115116057D01*
X138040045Y-115277480D01*
X137993663Y-115478093D01*
X137992763Y-115485815D01*
X137987342Y-115593290D01*
X137837960Y-115593290D01*
X137833625Y-115512336D01*
X137863146Y-115332734D01*
X137928912Y-115154785D01*
X137945853Y-115120968D01*
X138010769Y-115015493D01*
X138088130Y-114943316D01*
X138204101Y-114878135D01*
X138280999Y-114845670D01*
X138495531Y-114789601D01*
X138738981Y-114762793D01*
X138987028Y-114767027D01*
X139215352Y-114804085D01*
X139247923Y-114812765D01*
X139485452Y-114901397D01*
X139664112Y-115022538D01*
X139788225Y-115181505D01*
X139862114Y-115383616D01*
X139888087Y-115616164D01*
X139890100Y-115634188D01*
G37*
G36*
X140647327Y-115641161D02*
G01*
X140575253Y-115857869D01*
X140475125Y-116073826D01*
X140352250Y-116272435D01*
X140271263Y-116411995D01*
X140265716Y-116429424D01*
X140193928Y-116654988D01*
X140169777Y-116763762D01*
X140105296Y-116955688D01*
X140013795Y-117111325D01*
X139884001Y-117252409D01*
X139827758Y-117308836D01*
X139766283Y-117385255D01*
X139742392Y-117437285D01*
X139737905Y-117471309D01*
X139736243Y-117476143D01*
X139702549Y-117574146D01*
X139641258Y-117701862D01*
X139565178Y-117834292D01*
X139485457Y-117951276D01*
X139413240Y-118032651D01*
X139331403Y-118092653D01*
X139201665Y-118140008D01*
X139083294Y-118125155D01*
X138984908Y-118047788D01*
X138972177Y-118031351D01*
X138934368Y-117974553D01*
X138908129Y-117911212D01*
X138886567Y-117820704D01*
X138862789Y-117682404D01*
X138855492Y-117637019D01*
X138983153Y-117637019D01*
X138985010Y-117671517D01*
X139008282Y-117780827D01*
X139049473Y-117880137D01*
X139097472Y-117940005D01*
X139107757Y-117946097D01*
X139211017Y-117966883D01*
X139322000Y-117926346D01*
X139432257Y-117829498D01*
X139533340Y-117681354D01*
X139556511Y-117635448D01*
X139592467Y-117544469D01*
X139607276Y-117476143D01*
X139595721Y-117449829D01*
X139580588Y-117453594D01*
X139515273Y-117472388D01*
X139417682Y-117501595D01*
X139366400Y-117515621D01*
X139231172Y-117542369D01*
X139115712Y-117552988D01*
X139029582Y-117558138D01*
X138991494Y-117582008D01*
X138983153Y-117637019D01*
X138855492Y-117637019D01*
X138841982Y-117552988D01*
X138550785Y-117552988D01*
X138259587Y-117552988D01*
X138252662Y-117566509D01*
X138175634Y-117716915D01*
X138133332Y-117789792D01*
X138030964Y-117926940D01*
X137911218Y-118053344D01*
X137790758Y-118152308D01*
X137686251Y-118207140D01*
X137631531Y-118223228D01*
X137564630Y-118237179D01*
X137513756Y-118230328D01*
X137446455Y-118201976D01*
X137427899Y-118192960D01*
X137352650Y-118137873D01*
X137299232Y-118056182D01*
X137264284Y-117937409D01*
X137244450Y-117771079D01*
X137236369Y-117546716D01*
X137234528Y-117452881D01*
X137325472Y-117452881D01*
X137335029Y-117586637D01*
X137357146Y-117728001D01*
X137388169Y-117851661D01*
X137424444Y-117932308D01*
X137477287Y-117985261D01*
X137587670Y-118028403D01*
X137714925Y-118015471D01*
X137847642Y-117948590D01*
X137974410Y-117829886D01*
X138025497Y-117758337D01*
X138073411Y-117675127D01*
X138105783Y-117603645D01*
X138110894Y-117566509D01*
X138083155Y-117554473D01*
X138004531Y-117529685D01*
X137895587Y-117499649D01*
X137817210Y-117476796D01*
X137661369Y-117421519D01*
X137526633Y-117362871D01*
X137474006Y-117337005D01*
X137397846Y-117305734D01*
X137357823Y-117304984D01*
X137337784Y-117332126D01*
X137332130Y-117352042D01*
X137325472Y-117452881D01*
X137234528Y-117452881D01*
X137233507Y-117400813D01*
X137226540Y-117262395D01*
X137213900Y-117166952D01*
X137193436Y-117099813D01*
X137162997Y-117046309D01*
X137123328Y-116987917D01*
X137054060Y-116865612D01*
X137009892Y-116740488D01*
X136977686Y-116579450D01*
X136965450Y-116511674D01*
X136932625Y-116400404D01*
X136877413Y-116304215D01*
X136784826Y-116193082D01*
X136637200Y-116016780D01*
X136483156Y-115792276D01*
X136375308Y-115582426D01*
X136312573Y-115392114D01*
X136304580Y-115321232D01*
X136464617Y-115321232D01*
X136476740Y-115408424D01*
X136508626Y-115515148D01*
X136551463Y-115617216D01*
X136596435Y-115693760D01*
X136634726Y-115723912D01*
X136652928Y-115731672D01*
X136670925Y-115780752D01*
X136693451Y-115844354D01*
X136758397Y-115940973D01*
X136854298Y-116054696D01*
X136969624Y-116171907D01*
X137092846Y-116278992D01*
X137213058Y-116362985D01*
X137336078Y-116411685D01*
X137439016Y-116398163D01*
X137530300Y-116320799D01*
X137618357Y-116177974D01*
X137629763Y-116156485D01*
X137670033Y-116096273D01*
X137695733Y-116081510D01*
X137696387Y-116099227D01*
X137672617Y-116163035D01*
X137625343Y-116252781D01*
X137578419Y-116321629D01*
X137459321Y-116434418D01*
X137324858Y-116496988D01*
X137190119Y-116500743D01*
X137091353Y-116479050D01*
X137128509Y-116627772D01*
X137131682Y-116640148D01*
X137224525Y-116867432D01*
X137373377Y-117055207D01*
X137578800Y-117204014D01*
X137841356Y-117314396D01*
X137953453Y-117344463D01*
X138106610Y-117370869D01*
X138294633Y-117388193D01*
X138534512Y-117398497D01*
X138546593Y-117398821D01*
X138896160Y-117398672D01*
X139186531Y-117376571D01*
X139424571Y-117329909D01*
X139617147Y-117256079D01*
X139771124Y-117152476D01*
X139893368Y-117016490D01*
X139990746Y-116845515D01*
X139999559Y-116826081D01*
X140030777Y-116746631D01*
X140050959Y-116665203D01*
X140062197Y-116565051D01*
X140066585Y-116429424D01*
X140066214Y-116241575D01*
X140064792Y-116166612D01*
X140026071Y-115740198D01*
X139932713Y-115334221D01*
X139899419Y-115246792D01*
X140075441Y-115246792D01*
X140092999Y-115304697D01*
X140110055Y-115361010D01*
X140137974Y-115475030D01*
X140170592Y-115623968D01*
X140203844Y-115790019D01*
X140279082Y-116183979D01*
X140396043Y-115930228D01*
X140441712Y-115822747D01*
X140504224Y-115628030D01*
X140534254Y-115454722D01*
X140531429Y-115312492D01*
X140495377Y-115211008D01*
X140425725Y-115159938D01*
X140406446Y-115156557D01*
X140312746Y-115157947D01*
X140203228Y-115176613D01*
X140153640Y-115189546D01*
X140091033Y-115213778D01*
X140075441Y-115246792D01*
X139899419Y-115246792D01*
X139780845Y-114935421D01*
X139566594Y-114530535D01*
X139500433Y-114426385D01*
X139368094Y-114249325D01*
X139231727Y-114101616D01*
X139099042Y-113989341D01*
X138977750Y-113918583D01*
X138875562Y-113895426D01*
X138800189Y-113925952D01*
X138773893Y-113982312D01*
X138755559Y-114078071D01*
X138746240Y-114191597D01*
X138746770Y-114301473D01*
X138757986Y-114386278D01*
X138780724Y-114424596D01*
X138807029Y-114431470D01*
X138891669Y-114452519D01*
X139000408Y-114478829D01*
X139102383Y-114505344D01*
X139173427Y-114531485D01*
X139180105Y-114550149D01*
X139121307Y-114561828D01*
X138995926Y-114567010D01*
X138802853Y-114566187D01*
X138379213Y-114559361D01*
X138150611Y-114338001D01*
X138129506Y-114317880D01*
X137966655Y-114180092D01*
X137795989Y-114061739D01*
X137631251Y-113970563D01*
X137486181Y-113914307D01*
X137374523Y-113900713D01*
X137339837Y-113906267D01*
X137284438Y-113938670D01*
X137262687Y-114015624D01*
X137261188Y-114089051D01*
X137274653Y-114233326D01*
X137303138Y-114410028D01*
X137343380Y-114599792D01*
X137392114Y-114783253D01*
X137406120Y-114831561D01*
X137429645Y-114935431D01*
X137429565Y-115006538D01*
X137407109Y-115068206D01*
X137388919Y-115106267D01*
X137382818Y-115148884D01*
X137418332Y-115166525D01*
X137460199Y-115184977D01*
X137544461Y-115257806D01*
X137631361Y-115368024D01*
X137706274Y-115498757D01*
X137745006Y-115594015D01*
X137753947Y-115646491D01*
X137734428Y-115649058D01*
X137687810Y-115594649D01*
X137686426Y-115592703D01*
X137611860Y-115517293D01*
X137491484Y-115425469D01*
X137342371Y-115327761D01*
X137181594Y-115234700D01*
X137026224Y-115156815D01*
X136893336Y-115104636D01*
X136749938Y-115067982D01*
X136615652Y-115060272D01*
X136527162Y-115097978D01*
X136478729Y-115183998D01*
X136464617Y-115321232D01*
X136304580Y-115321232D01*
X136293866Y-115226224D01*
X136318106Y-115089642D01*
X136384208Y-114987251D01*
X136491090Y-114923936D01*
X136637668Y-114904582D01*
X136822859Y-114934074D01*
X137045580Y-115017296D01*
X137127855Y-115054946D01*
X137205821Y-115089420D01*
X137239756Y-115102717D01*
X137245776Y-115101512D01*
X137265969Y-115059919D01*
X137267988Y-114970281D01*
X137252582Y-114847942D01*
X137220500Y-114708246D01*
X137216374Y-114693363D01*
X137166648Y-114477853D01*
X137135988Y-114271109D01*
X137125268Y-114087246D01*
X137135359Y-113940383D01*
X137167133Y-113844635D01*
X137240041Y-113779024D01*
X137359012Y-113751028D01*
X137509351Y-113769563D01*
X137683488Y-113831833D01*
X137873855Y-113935042D01*
X138072879Y-114076394D01*
X138272993Y-114253094D01*
X138296785Y-114275877D01*
X138397163Y-114362921D01*
X138482903Y-114423980D01*
X138537574Y-114447010D01*
X138561516Y-114444511D01*
X138588369Y-114421596D01*
X138600620Y-114361493D01*
X138603533Y-114248345D01*
X138608193Y-114126716D01*
X138630203Y-113969404D01*
X138667031Y-113850712D01*
X138715063Y-113785631D01*
X138744860Y-113771743D01*
X138853931Y-113758108D01*
X138985831Y-113776013D01*
X139113944Y-113822966D01*
X139204919Y-113881110D01*
X139349539Y-114006622D01*
X139497842Y-114168267D01*
X139634607Y-114350619D01*
X139650622Y-114375095D01*
X139719151Y-114489857D01*
X139793156Y-114625894D01*
X139864638Y-114766996D01*
X139925600Y-114896955D01*
X139968043Y-114999561D01*
X139983968Y-115058604D01*
X139985197Y-115075022D01*
X140000247Y-115095734D01*
X140042783Y-115098054D01*
X140125634Y-115081352D01*
X140261630Y-115044999D01*
X140286021Y-115038239D01*
X140392088Y-115011341D01*
X140458444Y-115004875D01*
X140507661Y-115019725D01*
X140562309Y-115056776D01*
X140633000Y-115135507D01*
X140681072Y-115243909D01*
X140686092Y-115271883D01*
X140686042Y-115440300D01*
X140683262Y-115454722D01*
X140647327Y-115641161D01*
G37*
G36*
X151656564Y-116685787D02*
G01*
X151649896Y-116714113D01*
X151637498Y-116752069D01*
X151618364Y-116803810D01*
X151573787Y-116920970D01*
X151603704Y-117023438D01*
X151611336Y-117051103D01*
X151625092Y-117120331D01*
X151626639Y-117176512D01*
X151615618Y-117221562D01*
X151591671Y-117257395D01*
X151554437Y-117285924D01*
X151517314Y-117301252D01*
X151465813Y-117304311D01*
X151410842Y-117288154D01*
X151390401Y-117277497D01*
X151370185Y-117262086D01*
X151351683Y-117240495D01*
X151332773Y-117209685D01*
X151311335Y-117166621D01*
X151285250Y-117108265D01*
X151272461Y-117079084D01*
X151256747Y-117045513D01*
X151241623Y-117018419D01*
X151224147Y-116993808D01*
X151201376Y-116967682D01*
X151170370Y-116936046D01*
X151128185Y-116894901D01*
X151097135Y-116864299D01*
X151049672Y-116814165D01*
X151015517Y-116772103D01*
X150993104Y-116735791D01*
X150980867Y-116702906D01*
X150978261Y-116680081D01*
X151069848Y-116680081D01*
X151075586Y-116700366D01*
X151090362Y-116724385D01*
X151115671Y-116754332D01*
X151153004Y-116792400D01*
X151203855Y-116840781D01*
X151314116Y-116943760D01*
X151366554Y-117066993D01*
X151385941Y-117111566D01*
X151404754Y-117151322D01*
X151420000Y-117178103D01*
X151433398Y-117194857D01*
X151446666Y-117204536D01*
X151475823Y-117216516D01*
X151498074Y-117216018D01*
X151516994Y-117201750D01*
X151520049Y-117198217D01*
X151531864Y-117178968D01*
X151536996Y-117155451D01*
X151535329Y-117124187D01*
X151526748Y-117081696D01*
X151511139Y-117024499D01*
X151478681Y-116913191D01*
X151526249Y-116791421D01*
X151539223Y-116757927D01*
X151554300Y-116717086D01*
X151563326Y-116688240D01*
X151567178Y-116667673D01*
X151566737Y-116651670D01*
X151562880Y-116636513D01*
X151559005Y-116626837D01*
X151538319Y-116602430D01*
X151509517Y-116594600D01*
X151476102Y-116604634D01*
X151470576Y-116608698D01*
X151452013Y-116629191D01*
X151429602Y-116660599D01*
X151406826Y-116698216D01*
X151362534Y-116777777D01*
X151269940Y-116700708D01*
X151223824Y-116664118D01*
X151177336Y-116632939D01*
X151140563Y-116616433D01*
X151112157Y-116614259D01*
X151090768Y-116626079D01*
X151075051Y-116651552D01*
X151071657Y-116661337D01*
X151069848Y-116680081D01*
X150978261Y-116680081D01*
X150977238Y-116671127D01*
X150979176Y-116652196D01*
X150994533Y-116609401D01*
X151021372Y-116570593D01*
X151055079Y-116543343D01*
X151059586Y-116541031D01*
X151111139Y-116525983D01*
X151165811Y-116530141D01*
X151223413Y-116553460D01*
X151283755Y-116595898D01*
X151331586Y-116636230D01*
X151349297Y-116612480D01*
X151364446Y-116592335D01*
X151387644Y-116563024D01*
X151405415Y-116544003D01*
X151421554Y-116531464D01*
X151439855Y-116521599D01*
X151448462Y-116517902D01*
X151494002Y-116507375D01*
X151541605Y-116508079D01*
X151582312Y-116520109D01*
X151588293Y-116523520D01*
X151619605Y-116552817D01*
X151643661Y-116594768D01*
X151657061Y-116643749D01*
X151658506Y-116662936D01*
X151658103Y-116667673D01*
X151656564Y-116685787D01*
G37*
G36*
X152060624Y-115853451D02*
G01*
X152051835Y-115928713D01*
X152040332Y-115965342D01*
X152005301Y-116031526D01*
X151955546Y-116090686D01*
X151894159Y-116139487D01*
X151824227Y-116174589D01*
X151808481Y-116179967D01*
X151774959Y-116187680D01*
X151735876Y-116190915D01*
X151684353Y-116190453D01*
X151675363Y-116190126D01*
X151630929Y-116187313D01*
X151597148Y-116181795D01*
X151566415Y-116171850D01*
X151531124Y-116155755D01*
X151505509Y-116141807D01*
X151442783Y-116094503D01*
X151392398Y-116036134D01*
X151357770Y-115970354D01*
X151351381Y-115952111D01*
X151342971Y-115917985D01*
X151339579Y-115880473D01*
X151340200Y-115831615D01*
X151341260Y-115818694D01*
X151433000Y-115818694D01*
X151433111Y-115879222D01*
X151448313Y-115937976D01*
X151478435Y-115992101D01*
X151523310Y-116038746D01*
X151582770Y-116075055D01*
X151612946Y-116085022D01*
X151662422Y-116093008D01*
X151716113Y-116095024D01*
X151766474Y-116090890D01*
X151805960Y-116080424D01*
X151832455Y-116067182D01*
X151886881Y-116026444D01*
X151928270Y-115974865D01*
X151954472Y-115915569D01*
X151963341Y-115851678D01*
X151963013Y-115838679D01*
X151952008Y-115769516D01*
X151925073Y-115711489D01*
X151881645Y-115663703D01*
X151821163Y-115625263D01*
X151807205Y-115618483D01*
X151777373Y-115605676D01*
X151751621Y-115599157D01*
X151722108Y-115597464D01*
X151680992Y-115599137D01*
X151650811Y-115601362D01*
X151614628Y-115606849D01*
X151585724Y-115616515D01*
X151556616Y-115632360D01*
X151524891Y-115655001D01*
X151478721Y-115703730D01*
X151448147Y-115759245D01*
X151433000Y-115818694D01*
X151341260Y-115818694D01*
X151344233Y-115782444D01*
X151357695Y-115723783D01*
X151382614Y-115671682D01*
X151421616Y-115619294D01*
X151455754Y-115579412D01*
X151404473Y-115533059D01*
X151345605Y-115488008D01*
X151271562Y-115451342D01*
X151186077Y-115428379D01*
X151150359Y-115421132D01*
X151128718Y-115413781D01*
X151116740Y-115403893D01*
X151109542Y-115388954D01*
X151105112Y-115371594D01*
X151108959Y-115347339D01*
X151129159Y-115332310D01*
X151166612Y-115325503D01*
X151194659Y-115325265D01*
X151265775Y-115336955D01*
X151339591Y-115364844D01*
X151412930Y-115407542D01*
X151482616Y-115463661D01*
X151548577Y-115525243D01*
X151587654Y-115513103D01*
X151589570Y-115512521D01*
X151637981Y-115503511D01*
X151695582Y-115500716D01*
X151753471Y-115504113D01*
X151802744Y-115513676D01*
X151849978Y-115527892D01*
X151916662Y-115464985D01*
X151944981Y-115439857D01*
X152016624Y-115388606D01*
X152090632Y-115351557D01*
X152163915Y-115330070D01*
X152233389Y-115325503D01*
X152255888Y-115328233D01*
X152283876Y-115339373D01*
X152295099Y-115359279D01*
X152290459Y-115388954D01*
X152283353Y-115403767D01*
X152271451Y-115413694D01*
X152249936Y-115421060D01*
X152213924Y-115428379D01*
X152131042Y-115450276D01*
X152058987Y-115485185D01*
X151993592Y-115535362D01*
X151940376Y-115584318D01*
X151971846Y-115617601D01*
X151991201Y-115640394D01*
X152029113Y-115704647D01*
X152052652Y-115777214D01*
X152060439Y-115851678D01*
X152060624Y-115853451D01*
G37*
G36*
X152411570Y-116705388D02*
G01*
X152406206Y-116727889D01*
X152395257Y-116750888D01*
X152376962Y-116776932D01*
X152349565Y-116808567D01*
X152311306Y-116848339D01*
X152260427Y-116898793D01*
X152231156Y-116927580D01*
X152197953Y-116961188D01*
X152173717Y-116988243D01*
X152155451Y-117012953D01*
X152140163Y-117039530D01*
X152124857Y-117072182D01*
X152106538Y-117115119D01*
X152091599Y-117149328D01*
X152062452Y-117207047D01*
X152034235Y-117249108D01*
X152005186Y-117277908D01*
X151973539Y-117295843D01*
X151927516Y-117305958D01*
X151877562Y-117300998D01*
X151832360Y-117281014D01*
X151797196Y-117247455D01*
X151781290Y-117217880D01*
X151770129Y-117164807D01*
X151773636Y-117099975D01*
X151791799Y-117022794D01*
X151796624Y-117006677D01*
X151807167Y-116969055D01*
X151814489Y-116939393D01*
X151817231Y-116923019D01*
X151815196Y-116912701D01*
X151807086Y-116886561D01*
X151794223Y-116850331D01*
X151778154Y-116808538D01*
X151770453Y-116788693D01*
X151749774Y-116725631D01*
X151740155Y-116673927D01*
X151740280Y-116668628D01*
X151829238Y-116668628D01*
X151835925Y-116700029D01*
X151849994Y-116742442D01*
X151871979Y-116799169D01*
X151916958Y-116911068D01*
X151886633Y-117019410D01*
X151874995Y-117062094D01*
X151863700Y-117109040D01*
X151858332Y-117142996D01*
X151858697Y-117167202D01*
X151864599Y-117184893D01*
X151875847Y-117199307D01*
X151894091Y-117213542D01*
X151918804Y-117219063D01*
X151943852Y-117207843D01*
X151969965Y-117179250D01*
X151997871Y-117132654D01*
X152028302Y-117067423D01*
X152033764Y-117054659D01*
X152049402Y-117019158D01*
X152063526Y-116990669D01*
X152078679Y-116965708D01*
X152097403Y-116940791D01*
X152122237Y-116912433D01*
X152155725Y-116877149D01*
X152200408Y-116831455D01*
X152236826Y-116794215D01*
X152271873Y-116757603D01*
X152296276Y-116730533D01*
X152311836Y-116710651D01*
X152320354Y-116695600D01*
X152323634Y-116683024D01*
X152323478Y-116670568D01*
X152321705Y-116660418D01*
X152305835Y-116632351D01*
X152278492Y-116616611D01*
X152244593Y-116616563D01*
X152244549Y-116616574D01*
X152227276Y-116625254D01*
X152199217Y-116644062D01*
X152164244Y-116670235D01*
X152126229Y-116701010D01*
X152033420Y-116779044D01*
X151993192Y-116706170D01*
X151987467Y-116696008D01*
X151953680Y-116644759D01*
X151921482Y-116610597D01*
X151891651Y-116593992D01*
X151864966Y-116595412D01*
X151842208Y-116615327D01*
X151835870Y-116625654D01*
X151829398Y-116644937D01*
X151829238Y-116668628D01*
X151740280Y-116668628D01*
X151741189Y-116630148D01*
X151752472Y-116590859D01*
X151754719Y-116585771D01*
X151781908Y-116544583D01*
X151819582Y-116519124D01*
X151869980Y-116507810D01*
X151886645Y-116507191D01*
X151940693Y-116516099D01*
X151987437Y-116540546D01*
X152022690Y-116578589D01*
X152024013Y-116580669D01*
X152039289Y-116604542D01*
X152050528Y-116621903D01*
X152055122Y-116626017D01*
X152066496Y-116624956D01*
X152085948Y-116613700D01*
X152116649Y-116590754D01*
X152120152Y-116588019D01*
X152163105Y-116557000D01*
X152198671Y-116537774D01*
X152232364Y-116527982D01*
X152269694Y-116525267D01*
X152299596Y-116528217D01*
X152345640Y-116546454D01*
X152381504Y-116579148D01*
X152404794Y-116623755D01*
X152413118Y-116677732D01*
X152413107Y-116680840D01*
X152412970Y-116683024D01*
X152411570Y-116705388D01*
G37*
G36*
X154044388Y-116041786D02*
G01*
X154039773Y-116127670D01*
X154030976Y-116202963D01*
X154012507Y-116294663D01*
X153969802Y-116430920D01*
X153910821Y-116556617D01*
X153835976Y-116671238D01*
X153745679Y-116774269D01*
X153640342Y-116865194D01*
X153520378Y-116943498D01*
X153386199Y-117008667D01*
X153355789Y-117020590D01*
X153307282Y-117035074D01*
X153273358Y-117036986D01*
X153253230Y-117025638D01*
X153246110Y-117000342D01*
X153251209Y-116960409D01*
X153267739Y-116905151D01*
X153286414Y-116834931D01*
X153292042Y-116767804D01*
X153283977Y-116709286D01*
X153262940Y-116661004D01*
X153229655Y-116624583D01*
X153184846Y-116601650D01*
X153129236Y-116593830D01*
X153105479Y-116595287D01*
X153058268Y-116606850D01*
X153007978Y-116631333D01*
X152950725Y-116670403D01*
X152921895Y-116690448D01*
X152896046Y-116705208D01*
X152879654Y-116710846D01*
X152878151Y-116710752D01*
X152859244Y-116705387D01*
X152829647Y-116693416D01*
X152795075Y-116677117D01*
X152788006Y-116673607D01*
X152756539Y-116659280D01*
X152733003Y-116650636D01*
X152722050Y-116649438D01*
X152720287Y-116653142D01*
X152717189Y-116672198D01*
X152715932Y-116700262D01*
X152714433Y-116730595D01*
X152702011Y-116803951D01*
X152678448Y-116885155D01*
X152645469Y-116970038D01*
X152604797Y-117054428D01*
X152558155Y-117134157D01*
X152507268Y-117205054D01*
X152454257Y-117265463D01*
X152353381Y-117357741D01*
X152240239Y-117436663D01*
X152117168Y-117500895D01*
X151986508Y-117549102D01*
X151850596Y-117579950D01*
X151814985Y-117584141D01*
X151744588Y-117587178D01*
X151665778Y-117585635D01*
X151585068Y-117579878D01*
X151508968Y-117570270D01*
X151443990Y-117557177D01*
X151331818Y-117521232D01*
X151206693Y-117463520D01*
X151089943Y-117390398D01*
X150984359Y-117303649D01*
X150892733Y-117205054D01*
X150868601Y-117173380D01*
X150819477Y-117097848D01*
X150775403Y-117015428D01*
X150738101Y-116930289D01*
X150709296Y-116846602D01*
X150690710Y-116768536D01*
X150684069Y-116700262D01*
X150683786Y-116686972D01*
X150681592Y-116662067D01*
X150677951Y-116649438D01*
X150676946Y-116648988D01*
X150663010Y-116651871D01*
X150637453Y-116661834D01*
X150604926Y-116677117D01*
X150599869Y-116679639D01*
X150565661Y-116695456D01*
X150537248Y-116706618D01*
X150520347Y-116710846D01*
X150504546Y-116705493D01*
X150478877Y-116690937D01*
X150449276Y-116670403D01*
X150419427Y-116648866D01*
X150366154Y-116617326D01*
X150317894Y-116599535D01*
X150270765Y-116593830D01*
X150221159Y-116599587D01*
X150177690Y-116620452D01*
X150139983Y-116658639D01*
X150131088Y-116671100D01*
X150119197Y-116694513D01*
X150112639Y-116722956D01*
X150109299Y-116763669D01*
X150108526Y-116794336D01*
X150111135Y-116829992D01*
X150119316Y-116866113D01*
X150134532Y-116911263D01*
X150144599Y-116939837D01*
X150154217Y-116973088D01*
X150156870Y-116995593D01*
X150153354Y-117011610D01*
X150144352Y-117026148D01*
X150127222Y-117036671D01*
X150101585Y-117037303D01*
X150064693Y-117027988D01*
X150013801Y-117008667D01*
X150002108Y-117003761D01*
X149868635Y-116937442D01*
X149749937Y-116858457D01*
X149646272Y-116767202D01*
X149557895Y-116664078D01*
X149485063Y-116549480D01*
X149428032Y-116423807D01*
X149387057Y-116287458D01*
X149362396Y-116140829D01*
X149354303Y-115984319D01*
X149354705Y-115966858D01*
X149491455Y-115966858D01*
X149496504Y-116101067D01*
X149516422Y-116230871D01*
X149551183Y-116352105D01*
X149576792Y-116416227D01*
X149639578Y-116537701D01*
X149716220Y-116645522D01*
X149806975Y-116740026D01*
X149912101Y-116821549D01*
X149939308Y-116839081D01*
X149961867Y-116852321D01*
X149973345Y-116857384D01*
X149976577Y-116849644D01*
X149973620Y-116830519D01*
X149971459Y-116820143D01*
X149968150Y-116788776D01*
X149967333Y-116753662D01*
X149968281Y-116734932D01*
X149983073Y-116661796D01*
X150013732Y-116596888D01*
X150058065Y-116542002D01*
X150113875Y-116498933D01*
X150178968Y-116469478D01*
X150251147Y-116455430D01*
X150328218Y-116458585D01*
X150349510Y-116462922D01*
X150404984Y-116480907D01*
X150460312Y-116506447D01*
X150505806Y-116535356D01*
X150507966Y-116537031D01*
X150518752Y-116543900D01*
X150530430Y-116545980D01*
X150547245Y-116542494D01*
X150573442Y-116532667D01*
X150613267Y-116515723D01*
X150633598Y-116506981D01*
X150670384Y-116491389D01*
X150699117Y-116479500D01*
X150714870Y-116473368D01*
X150722392Y-116467291D01*
X150735343Y-116444988D01*
X150747554Y-116411254D01*
X150772394Y-116339608D01*
X150812513Y-116252046D01*
X150858978Y-116173664D01*
X150897440Y-116117317D01*
X150863281Y-116084370D01*
X150838702Y-116059222D01*
X150777796Y-115984933D01*
X150721065Y-115899515D01*
X150672256Y-115808963D01*
X150635114Y-115719269D01*
X150621191Y-115672057D01*
X150607872Y-115614529D01*
X150596755Y-115554568D01*
X150589136Y-115499172D01*
X150586308Y-115455343D01*
X150585032Y-115432041D01*
X150577491Y-115411819D01*
X150576595Y-115411038D01*
X150690482Y-115411038D01*
X150691045Y-115488068D01*
X150696545Y-115560658D01*
X150706982Y-115621577D01*
X150709948Y-115633124D01*
X150740194Y-115720301D01*
X150783429Y-115809163D01*
X150836785Y-115895475D01*
X150897392Y-115975001D01*
X150962381Y-116043506D01*
X151028883Y-116096756D01*
X151029668Y-116099513D01*
X151023350Y-116114780D01*
X151021745Y-116117317D01*
X151007689Y-116139539D01*
X150984941Y-116170025D01*
X150945179Y-116222452D01*
X150909796Y-116277015D01*
X150881602Y-116332268D01*
X150856508Y-116395386D01*
X150842412Y-116439270D01*
X150820812Y-116548643D01*
X150817202Y-116658279D01*
X150830583Y-116766677D01*
X150859955Y-116872336D01*
X150904319Y-116973752D01*
X150962677Y-117069425D01*
X151034028Y-117157853D01*
X151117373Y-117237534D01*
X151211714Y-117306967D01*
X151316051Y-117364648D01*
X151429384Y-117409078D01*
X151550716Y-117438753D01*
X151559618Y-117440258D01*
X151686468Y-117451620D01*
X151811682Y-117444766D01*
X151933517Y-117420716D01*
X152050229Y-117380490D01*
X152160075Y-117325110D01*
X152261312Y-117255595D01*
X152352198Y-117172965D01*
X152430987Y-117078242D01*
X152495938Y-116972444D01*
X152545308Y-116856594D01*
X152560313Y-116806727D01*
X152580365Y-116693102D01*
X152581374Y-116579414D01*
X152563613Y-116466996D01*
X152527358Y-116357182D01*
X152472880Y-116251305D01*
X152400454Y-116150698D01*
X152383078Y-116127915D01*
X152378437Y-116119807D01*
X152503986Y-116119807D01*
X152532771Y-116158884D01*
X152555506Y-116192829D01*
X152590787Y-116256512D01*
X152622689Y-116326634D01*
X152647413Y-116395355D01*
X152668539Y-116464908D01*
X152724020Y-116486919D01*
X152746412Y-116496099D01*
X152789507Y-116514887D01*
X152826968Y-116532438D01*
X152874436Y-116555945D01*
X152895381Y-116536268D01*
X152906819Y-116527003D01*
X152942423Y-116505676D01*
X152987224Y-116485059D01*
X153034377Y-116468109D01*
X153077037Y-116457783D01*
X153094975Y-116455451D01*
X153169499Y-116456543D01*
X153239145Y-116474119D01*
X153301590Y-116506313D01*
X153354512Y-116551257D01*
X153395589Y-116607085D01*
X153422499Y-116671930D01*
X153432921Y-116743923D01*
X153432710Y-116770940D01*
X153430455Y-116806004D01*
X153426526Y-116830519D01*
X153423457Y-116849352D01*
X153426630Y-116857384D01*
X153436747Y-116854016D01*
X153460523Y-116840326D01*
X153492609Y-116818634D01*
X153529306Y-116791683D01*
X153566912Y-116762213D01*
X153601726Y-116732968D01*
X153630048Y-116706688D01*
X153694395Y-116634210D01*
X153766639Y-116528539D01*
X153825462Y-116412110D01*
X153869932Y-116287652D01*
X153899114Y-116157897D01*
X153912077Y-116025576D01*
X153907888Y-115893418D01*
X153889995Y-115771063D01*
X153851846Y-115624438D01*
X153796271Y-115486576D01*
X153723180Y-115357265D01*
X153632485Y-115236292D01*
X153604374Y-115204572D01*
X153535176Y-115136130D01*
X153463559Y-115077490D01*
X153391630Y-115029794D01*
X153321498Y-114994182D01*
X153255269Y-114971796D01*
X153195051Y-114963777D01*
X153142951Y-114971266D01*
X153130278Y-114976813D01*
X153100576Y-114996331D01*
X153073222Y-115021342D01*
X153051034Y-115051148D01*
X153039249Y-115086567D01*
X153043446Y-115125534D01*
X153063348Y-115172269D01*
X153070362Y-115186116D01*
X153080350Y-115213145D01*
X153077624Y-115225823D01*
X153072508Y-115229298D01*
X153053142Y-115243025D01*
X153022726Y-115264867D01*
X152984205Y-115292706D01*
X152940524Y-115324425D01*
X152814112Y-115416423D01*
X152813774Y-115470153D01*
X152813738Y-115470653D01*
X152808137Y-115548579D01*
X152786155Y-115654895D01*
X152749067Y-115762531D01*
X152698449Y-115867799D01*
X152635880Y-115967011D01*
X152562937Y-116056479D01*
X152503986Y-116119807D01*
X152378437Y-116119807D01*
X152371280Y-116107303D01*
X152370775Y-116096967D01*
X152380560Y-116090259D01*
X152446946Y-116034665D01*
X152511426Y-115964430D01*
X152571137Y-115883778D01*
X152623216Y-115796935D01*
X152664798Y-115708127D01*
X152693019Y-115621577D01*
X152695830Y-115609103D01*
X152705143Y-115544891D01*
X152709518Y-115470653D01*
X152708956Y-115393623D01*
X152703456Y-115321033D01*
X152693019Y-115260115D01*
X152688575Y-115243150D01*
X152655282Y-115150446D01*
X152607925Y-115056584D01*
X152549777Y-114966733D01*
X152484109Y-114886061D01*
X152414194Y-114819734D01*
X152398915Y-114807261D01*
X152375852Y-114786846D01*
X152363930Y-114771541D01*
X152360174Y-114756704D01*
X152361609Y-114737691D01*
X152363031Y-114713675D01*
X152355326Y-114654304D01*
X152334100Y-114587498D01*
X152300921Y-114516032D01*
X152257356Y-114442679D01*
X152204971Y-114370215D01*
X152145334Y-114301415D01*
X152080012Y-114239052D01*
X152062286Y-114224020D01*
X152027338Y-114195820D01*
X151999165Y-114175040D01*
X151980372Y-114163540D01*
X151973565Y-114163175D01*
X151973566Y-114163194D01*
X151975892Y-114173431D01*
X151982083Y-114198768D01*
X151991206Y-114235428D01*
X152002327Y-114279632D01*
X152002782Y-114281438D01*
X152013681Y-114328051D01*
X152024975Y-114381878D01*
X152036118Y-114439627D01*
X152046566Y-114498004D01*
X152055773Y-114553716D01*
X152060280Y-114583938D01*
X152063193Y-114603469D01*
X152068283Y-114643971D01*
X152070495Y-114671928D01*
X152069286Y-114684047D01*
X152064817Y-114684960D01*
X152044459Y-114683708D01*
X152012039Y-114679267D01*
X151972059Y-114672185D01*
X151968883Y-114671578D01*
X151904809Y-114662673D01*
X151827215Y-114656766D01*
X151741573Y-114653855D01*
X151653354Y-114653942D01*
X151568028Y-114657025D01*
X151491067Y-114663107D01*
X151427942Y-114672185D01*
X151404654Y-114676484D01*
X151368399Y-114682140D01*
X151342251Y-114684844D01*
X151330715Y-114684047D01*
X151330584Y-114683895D01*
X151329534Y-114671021D01*
X151331883Y-114642452D01*
X151337085Y-114601481D01*
X151341933Y-114569145D01*
X151429259Y-114569145D01*
X151434354Y-114577536D01*
X151448853Y-114579966D01*
X151476057Y-114577433D01*
X151519270Y-114570935D01*
X151531258Y-114569231D01*
X151575005Y-114564702D01*
X151615794Y-114562471D01*
X151663472Y-114561615D01*
X151663358Y-114558545D01*
X151736633Y-114558545D01*
X151775510Y-114561615D01*
X151818451Y-114565006D01*
X151826625Y-114565667D01*
X151870279Y-114569658D01*
X151909840Y-114573943D01*
X151937608Y-114577703D01*
X151974947Y-114583938D01*
X151968465Y-114545911D01*
X151961331Y-114507939D01*
X151950085Y-114453847D01*
X151936508Y-114392188D01*
X151921934Y-114328875D01*
X151907697Y-114269823D01*
X151895132Y-114220944D01*
X151894739Y-114219489D01*
X151881355Y-114175948D01*
X151868590Y-114150442D01*
X151854426Y-114141688D01*
X151836842Y-114148404D01*
X151813820Y-114169308D01*
X151792694Y-114195395D01*
X151771497Y-114235804D01*
X151756428Y-114286503D01*
X151746664Y-114350458D01*
X151741382Y-114430637D01*
X151736633Y-114558545D01*
X151663358Y-114558545D01*
X151658671Y-114432173D01*
X151654622Y-114364292D01*
X151645868Y-114297912D01*
X151632092Y-114245279D01*
X151612471Y-114203407D01*
X151586181Y-114169308D01*
X151585462Y-114168559D01*
X151562616Y-114148026D01*
X151545152Y-114141716D01*
X151531053Y-114150910D01*
X151518298Y-114176892D01*
X151504869Y-114220944D01*
X151492748Y-114268043D01*
X151478706Y-114326180D01*
X151464272Y-114388729D01*
X151450764Y-114449857D01*
X151439500Y-114503732D01*
X151431797Y-114544519D01*
X151430263Y-114553796D01*
X151429259Y-114569145D01*
X151341933Y-114569145D01*
X151344594Y-114551401D01*
X151353866Y-114495505D01*
X151364355Y-114437087D01*
X151375516Y-114379440D01*
X151386804Y-114325858D01*
X151397673Y-114279632D01*
X151397849Y-114278938D01*
X151408947Y-114234819D01*
X151418034Y-114198300D01*
X151424174Y-114173159D01*
X151426436Y-114163175D01*
X151424944Y-114161841D01*
X151412272Y-114167586D01*
X151388818Y-114183607D01*
X151357188Y-114208049D01*
X151319989Y-114239052D01*
X151289378Y-114266721D01*
X151226473Y-114332386D01*
X151169972Y-114403213D01*
X151121444Y-114476430D01*
X151082455Y-114549261D01*
X151054572Y-114618931D01*
X151039362Y-114682666D01*
X151038392Y-114737691D01*
X151039512Y-114747309D01*
X151038913Y-114763811D01*
X151031747Y-114778288D01*
X151015036Y-114795381D01*
X150985807Y-114819734D01*
X150972421Y-114830930D01*
X150903057Y-114900363D01*
X150838560Y-114983166D01*
X150782200Y-115074171D01*
X150737250Y-115168210D01*
X150706982Y-115260115D01*
X150704171Y-115272588D01*
X150694858Y-115336801D01*
X150690482Y-115411038D01*
X150576595Y-115411038D01*
X150559916Y-115396493D01*
X150557086Y-115394600D01*
X150536470Y-115380143D01*
X150504837Y-115357382D01*
X150465959Y-115329048D01*
X150423606Y-115297867D01*
X150313686Y-115216534D01*
X150337533Y-115174824D01*
X150351649Y-115144674D01*
X150360668Y-115095504D01*
X150351150Y-115050764D01*
X150323642Y-115012247D01*
X150278689Y-114981746D01*
X150240021Y-114968160D01*
X150185976Y-114964382D01*
X150125126Y-114976235D01*
X150055308Y-115003934D01*
X149975581Y-115049188D01*
X149886177Y-115117384D01*
X149801242Y-115200425D01*
X149722809Y-115295803D01*
X149652910Y-115401013D01*
X149593577Y-115513549D01*
X149546843Y-115630905D01*
X149526063Y-115701889D01*
X149501299Y-115832411D01*
X149491455Y-115966858D01*
X149354705Y-115966858D01*
X149355886Y-115915637D01*
X149368953Y-115781354D01*
X149396235Y-115654118D01*
X149438959Y-115528964D01*
X149498349Y-115400927D01*
X149507928Y-115382854D01*
X149576885Y-115269478D01*
X149656286Y-115163909D01*
X149743796Y-115068487D01*
X149837082Y-114985550D01*
X149933811Y-114917435D01*
X150031650Y-114866483D01*
X150050171Y-114858903D01*
X150079245Y-114849276D01*
X150108973Y-114843621D01*
X150145642Y-114840932D01*
X150195539Y-114840198D01*
X150222268Y-114840292D01*
X150263718Y-114841608D01*
X150293424Y-114845073D01*
X150316568Y-114851463D01*
X150338331Y-114861552D01*
X150373881Y-114882695D01*
X150426685Y-114926581D01*
X150466827Y-114980279D01*
X150467452Y-114981346D01*
X150481051Y-115007394D01*
X150488985Y-115032264D01*
X150492730Y-115062850D01*
X150493764Y-115106043D01*
X150494134Y-115143959D01*
X150496039Y-115169876D01*
X150501122Y-115186268D01*
X150511030Y-115198281D01*
X150527412Y-115211062D01*
X150535738Y-115217055D01*
X150556151Y-115230377D01*
X150567508Y-115235692D01*
X150570484Y-115232934D01*
X150577854Y-115216299D01*
X150585823Y-115189609D01*
X150607644Y-115121235D01*
X150648160Y-115031131D01*
X150700696Y-114940449D01*
X150762383Y-114854033D01*
X150830351Y-114776729D01*
X150832541Y-114774507D01*
X150862872Y-114742990D01*
X150882492Y-114719422D01*
X150894520Y-114698448D01*
X150902070Y-114674714D01*
X150908260Y-114642865D01*
X150934083Y-114546696D01*
X150978563Y-114447211D01*
X151041178Y-114345520D01*
X151121437Y-114242544D01*
X151158552Y-114201947D01*
X151219967Y-114143605D01*
X151284317Y-114091631D01*
X151348722Y-114047916D01*
X151410303Y-114014351D01*
X151466178Y-113992826D01*
X151513467Y-113985230D01*
X151530943Y-113986177D01*
X151584354Y-113999804D01*
X151632690Y-114027002D01*
X151669339Y-114064412D01*
X151677536Y-114075929D01*
X151692065Y-114094422D01*
X151700000Y-114101720D01*
X151702773Y-114099890D01*
X151714439Y-114086509D01*
X151730662Y-114064412D01*
X151740968Y-114051245D01*
X151782171Y-114016809D01*
X151832897Y-113993685D01*
X151886533Y-113985230D01*
X151916267Y-113988510D01*
X151969484Y-114005408D01*
X152029408Y-114035003D01*
X152093158Y-114075405D01*
X152157854Y-114124722D01*
X152220616Y-114181065D01*
X152278563Y-114242544D01*
X152358160Y-114344561D01*
X152421097Y-114446566D01*
X152465795Y-114546400D01*
X152491800Y-114643206D01*
X152496535Y-114668512D01*
X152503904Y-114695024D01*
X152515258Y-114716795D01*
X152534012Y-114739871D01*
X152563579Y-114770294D01*
X152608789Y-114819066D01*
X152674558Y-114903698D01*
X152731998Y-114994496D01*
X152778071Y-115086472D01*
X152809738Y-115174634D01*
X152818816Y-115204476D01*
X152827336Y-115227056D01*
X152832935Y-115235692D01*
X152835485Y-115234942D01*
X152850599Y-115226289D01*
X152872588Y-115211062D01*
X152888261Y-115198910D01*
X152898479Y-115186988D01*
X152903782Y-115170967D01*
X152905818Y-115145701D01*
X152906236Y-115106043D01*
X152906243Y-115104156D01*
X152907351Y-115061547D01*
X152911224Y-115031293D01*
X152919340Y-115006501D01*
X152933174Y-114980279D01*
X152953698Y-114949612D01*
X153000207Y-114901735D01*
X153061670Y-114861552D01*
X153072695Y-114856000D01*
X153094500Y-114847856D01*
X153120276Y-114843025D01*
X153155203Y-114840730D01*
X153204462Y-114840198D01*
X153234659Y-114840432D01*
X153276307Y-114842147D01*
X153308280Y-114846388D01*
X153336866Y-114854164D01*
X153368351Y-114866483D01*
X153382764Y-114872859D01*
X153468287Y-114919464D01*
X153556630Y-114981640D01*
X153644406Y-115057048D01*
X153701374Y-115114611D01*
X153794902Y-115228762D01*
X153876366Y-115354594D01*
X153943921Y-115488706D01*
X153995722Y-115627695D01*
X154029924Y-115768158D01*
X154033295Y-115789331D01*
X154041132Y-115865743D01*
X154044835Y-115952186D01*
X154044469Y-116025576D01*
X154044388Y-116041786D01*
G37*
G36*
X126930022Y-115009034D02*
G01*
X126975937Y-115029510D01*
X127014488Y-115063677D01*
X127043286Y-115110488D01*
X127059944Y-115168891D01*
X127062074Y-115237838D01*
X127058882Y-115264701D01*
X127039433Y-115336942D01*
X127006152Y-115400970D01*
X126961022Y-115453563D01*
X126906023Y-115491501D01*
X126858136Y-115509343D01*
X126801078Y-115514959D01*
X126748367Y-115503216D01*
X126702563Y-115474770D01*
X126666228Y-115430273D01*
X126662416Y-115423686D01*
X126650358Y-115399410D01*
X126643496Y-115375389D01*
X126640486Y-115345038D01*
X126639983Y-115301769D01*
X126643060Y-115246003D01*
X126655727Y-115187792D01*
X126680230Y-115136746D01*
X126718747Y-115086923D01*
X126720460Y-115085041D01*
X126771960Y-115040254D01*
X126825645Y-115013357D01*
X126879128Y-115003300D01*
X126930022Y-115009034D01*
G37*
G36*
X129376665Y-115013483D02*
G01*
X129430675Y-115041825D01*
X129481254Y-115086923D01*
X129513279Y-115126904D01*
X129540402Y-115177231D01*
X129555255Y-115233539D01*
X129560018Y-115301769D01*
X129560053Y-115313311D01*
X129559084Y-115353021D01*
X129555294Y-115381331D01*
X129547345Y-115404819D01*
X129533898Y-115430060D01*
X129507479Y-115465405D01*
X129465513Y-115495995D01*
X129462271Y-115497568D01*
X129407743Y-115514295D01*
X129352364Y-115512292D01*
X129293978Y-115491501D01*
X129273558Y-115479983D01*
X129221817Y-115436503D01*
X129180644Y-115379506D01*
X129152020Y-115312210D01*
X129137926Y-115237838D01*
X129136900Y-115216469D01*
X129143680Y-115150020D01*
X129165510Y-115093275D01*
X129201456Y-115048076D01*
X129250582Y-115016262D01*
X129267506Y-115009871D01*
X129321513Y-115002598D01*
X129376665Y-115013483D01*
G37*
G36*
X130124079Y-115561505D02*
G01*
X130128865Y-115721243D01*
X130115386Y-115877824D01*
X130111999Y-115894221D01*
X130083948Y-116030011D01*
X130034856Y-116176569D01*
X129968417Y-116316261D01*
X129884936Y-116447851D01*
X129784718Y-116570104D01*
X129718873Y-116641223D01*
X129740822Y-116656597D01*
X129741232Y-116656885D01*
X129771472Y-116679766D01*
X129809483Y-116710967D01*
X129852419Y-116747883D01*
X129897434Y-116787909D01*
X129941682Y-116828437D01*
X129982318Y-116866862D01*
X130016496Y-116900579D01*
X130041370Y-116926981D01*
X130054095Y-116943463D01*
X130053903Y-116956406D01*
X130042538Y-116984208D01*
X130019869Y-117024132D01*
X129986763Y-117074787D01*
X129944087Y-117134781D01*
X129892705Y-117202723D01*
X129890582Y-117205450D01*
X129840032Y-117266213D01*
X129778515Y-117334010D01*
X129710475Y-117404370D01*
X129640356Y-117472821D01*
X129572601Y-117534892D01*
X129511654Y-117586112D01*
X129479130Y-117611540D01*
X129449051Y-117634469D01*
X129427713Y-117650059D01*
X129418372Y-117655875D01*
X129413049Y-117651472D01*
X129397630Y-117634523D01*
X129375055Y-117607796D01*
X129348048Y-117574444D01*
X129269663Y-117485456D01*
X129156651Y-117381962D01*
X129028899Y-117288495D01*
X128888037Y-117205987D01*
X128735690Y-117135369D01*
X128573487Y-117077572D01*
X128403055Y-117033530D01*
X128398467Y-117032561D01*
X128351202Y-117023139D01*
X128309686Y-117016399D01*
X128268865Y-117011910D01*
X128223681Y-117009239D01*
X128169078Y-117007953D01*
X128100000Y-117007620D01*
X128093233Y-117007622D01*
X128025627Y-117008021D01*
X127972053Y-117009411D01*
X127927454Y-117012225D01*
X127886774Y-117016894D01*
X127844957Y-117023852D01*
X127796946Y-117033530D01*
X127640829Y-117073381D01*
X127483197Y-117128109D01*
X127334212Y-117194889D01*
X127195826Y-117272619D01*
X127069993Y-117360196D01*
X126958665Y-117456517D01*
X126863797Y-117560478D01*
X126851077Y-117576331D01*
X126825883Y-117607514D01*
X126805927Y-117631928D01*
X126794676Y-117645315D01*
X126789396Y-117649023D01*
X126778725Y-117648368D01*
X126761541Y-117639683D01*
X126735033Y-117621448D01*
X126696394Y-117592142D01*
X126674320Y-117574533D01*
X126613562Y-117522160D01*
X126546945Y-117460262D01*
X126478733Y-117393102D01*
X126413190Y-117324949D01*
X126354581Y-117260067D01*
X126307168Y-117202723D01*
X126264154Y-117146017D01*
X126219780Y-117084301D01*
X126184924Y-117031829D01*
X126160430Y-116989960D01*
X126147142Y-116960052D01*
X126145906Y-116943463D01*
X126146000Y-116943289D01*
X126158945Y-116926626D01*
X126183992Y-116900084D01*
X126218297Y-116866270D01*
X126259014Y-116827790D01*
X126303297Y-116787250D01*
X126348301Y-116747254D01*
X126391180Y-116710410D01*
X126429087Y-116679322D01*
X126459179Y-116656597D01*
X126481128Y-116641223D01*
X126415283Y-116570104D01*
X126378612Y-116528796D01*
X126284170Y-116403161D01*
X126206571Y-116268618D01*
X126146120Y-116126403D01*
X126103122Y-115977751D01*
X126095141Y-115929096D01*
X127038360Y-115929096D01*
X127055769Y-115983461D01*
X127091486Y-116040513D01*
X127145254Y-116099556D01*
X127194558Y-116142560D01*
X127294187Y-116211462D01*
X127409108Y-116271409D01*
X127537664Y-116321696D01*
X127678198Y-116361619D01*
X127829053Y-116390473D01*
X127847943Y-116392995D01*
X127914028Y-116398958D01*
X127992060Y-116402797D01*
X128076810Y-116404515D01*
X128163050Y-116404114D01*
X128245551Y-116401596D01*
X128319085Y-116396965D01*
X128378423Y-116390222D01*
X128470030Y-116373668D01*
X128611771Y-116337839D01*
X128743063Y-116291676D01*
X128861956Y-116236015D01*
X128966501Y-116171696D01*
X129054747Y-116099556D01*
X129093055Y-116059462D01*
X129134651Y-116001689D01*
X129158021Y-115946376D01*
X129162907Y-115894221D01*
X129149050Y-115845918D01*
X129132800Y-115817757D01*
X129103808Y-115783565D01*
X129066058Y-115756920D01*
X129015960Y-115735498D01*
X128949923Y-115716972D01*
X128901536Y-115704356D01*
X128796382Y-115670279D01*
X128679192Y-115624059D01*
X128548729Y-115565227D01*
X128539568Y-115560886D01*
X128463790Y-115526114D01*
X128399939Y-115499760D01*
X128343455Y-115480707D01*
X128289780Y-115467836D01*
X128234352Y-115460027D01*
X128172612Y-115456163D01*
X128100000Y-115455123D01*
X128091430Y-115455133D01*
X128020223Y-115456426D01*
X127959392Y-115460666D01*
X127904376Y-115468971D01*
X127850615Y-115482461D01*
X127793551Y-115502255D01*
X127728623Y-115529470D01*
X127651271Y-115565227D01*
X127584393Y-115596209D01*
X127460712Y-115648685D01*
X127349687Y-115688783D01*
X127250077Y-115716972D01*
X127204069Y-115729126D01*
X127149066Y-115749326D01*
X127107606Y-115773975D01*
X127076098Y-115805397D01*
X127050951Y-115845918D01*
X127039519Y-115878113D01*
X127038360Y-115929096D01*
X126095141Y-115929096D01*
X126077884Y-115823898D01*
X126070712Y-115666081D01*
X126081911Y-115505535D01*
X126105291Y-115378727D01*
X126505112Y-115378727D01*
X126508576Y-115453743D01*
X126523374Y-115523532D01*
X126549432Y-115585906D01*
X126586676Y-115638675D01*
X126635031Y-115679650D01*
X126694422Y-115706641D01*
X126728002Y-115715903D01*
X126754221Y-115719910D01*
X126779519Y-115718239D01*
X126812944Y-115711240D01*
X126833772Y-115705515D01*
X126904409Y-115673953D01*
X126970992Y-115626092D01*
X127031353Y-115564415D01*
X127083326Y-115491403D01*
X127124741Y-115409540D01*
X127153431Y-115321307D01*
X127166053Y-115240298D01*
X127166026Y-115237030D01*
X129033715Y-115237030D01*
X129034213Y-115240298D01*
X129046570Y-115321307D01*
X129056143Y-115356281D01*
X129089319Y-115440424D01*
X129134024Y-115518411D01*
X129187805Y-115586914D01*
X129248207Y-115642607D01*
X129312776Y-115682164D01*
X129359648Y-115701443D01*
X129414400Y-115715279D01*
X129464440Y-115715838D01*
X129514755Y-115703650D01*
X129518253Y-115702385D01*
X129576291Y-115670885D01*
X129623992Y-115624403D01*
X129660365Y-115565027D01*
X129684422Y-115494847D01*
X129695173Y-115415951D01*
X129691626Y-115330428D01*
X129680610Y-115268610D01*
X129654885Y-115185403D01*
X129618893Y-115109221D01*
X129574309Y-115041389D01*
X129522805Y-114983230D01*
X129466055Y-114936068D01*
X129405732Y-114901227D01*
X129343511Y-114880032D01*
X129281063Y-114873806D01*
X129220064Y-114883873D01*
X129162185Y-114911557D01*
X129114921Y-114953325D01*
X129076353Y-115010474D01*
X129049420Y-115078730D01*
X129034936Y-115155210D01*
X129033715Y-115237030D01*
X127166026Y-115237030D01*
X127165367Y-115158328D01*
X127151386Y-115081585D01*
X127124925Y-115012953D01*
X127086797Y-114955316D01*
X127037815Y-114911557D01*
X126994609Y-114888887D01*
X126932036Y-114873974D01*
X126866670Y-114877156D01*
X126800141Y-114898080D01*
X126734079Y-114936389D01*
X126670114Y-114991728D01*
X126660414Y-115001894D01*
X126606089Y-115070196D01*
X126563471Y-115144220D01*
X126532485Y-115221777D01*
X126513057Y-115300675D01*
X126505112Y-115378727D01*
X126105291Y-115378727D01*
X126111787Y-115343497D01*
X126121507Y-115305762D01*
X126172881Y-115154013D01*
X126241697Y-115009627D01*
X126327204Y-114873184D01*
X126428650Y-114745265D01*
X126545284Y-114626449D01*
X126676355Y-114517317D01*
X126821111Y-114418449D01*
X126978802Y-114330426D01*
X127148676Y-114253828D01*
X127329982Y-114189234D01*
X127521969Y-114137225D01*
X127723885Y-114098381D01*
X127734261Y-114096821D01*
X127827761Y-114086221D01*
X127934407Y-114079228D01*
X128048806Y-114075844D01*
X128165568Y-114076066D01*
X128279301Y-114079897D01*
X128384614Y-114087335D01*
X128476116Y-114098381D01*
X128525811Y-114106536D01*
X128725395Y-114148616D01*
X128914868Y-114203722D01*
X129093479Y-114271271D01*
X129260475Y-114350686D01*
X129415108Y-114441385D01*
X129556624Y-114542787D01*
X129684272Y-114654314D01*
X129797303Y-114775384D01*
X129894963Y-114905418D01*
X129976503Y-115043835D01*
X130041170Y-115190055D01*
X130088214Y-115343497D01*
X130100722Y-115399845D01*
X130103049Y-115415951D01*
X130124079Y-115561505D01*
G37*
%TD*%
M02*
