%TF.GenerationSoftware,KiCad,Pcbnew,9.0.7*%
%TF.CreationDate,2026-02-05T20:31:52-06:00*%
%TF.ProjectId,wearable,77656172-6162-46c6-952e-6b696361645f,rev?*%
%TF.SameCoordinates,Original*%
%TF.FileFunction,Paste,Top*%
%TF.FilePolarity,Positive*%
%FSLAX46Y46*%
G04 Gerber Fmt 4.6, Leading zero omitted, Abs format (unit mm)*
G04 Created by KiCad (PCBNEW 9.0.7) date 2026-02-05 20:31:52*
%MOMM*%
%LPD*%
G01*
G04 APERTURE LIST*
G04 Aperture macros list*
%AMRoundRect*
0 Rectangle with rounded corners*
0 $1 Rounding radius*
0 $2 $3 $4 $5 $6 $7 $8 $9 X,Y pos of 4 corners*
0 Add a 4 corners polygon primitive as box body*
4,1,4,$2,$3,$4,$5,$6,$7,$8,$9,$2,$3,0*
0 Add four circle primitives for the rounded corners*
1,1,$1+$1,$2,$3*
1,1,$1+$1,$4,$5*
1,1,$1+$1,$6,$7*
1,1,$1+$1,$8,$9*
0 Add four rect primitives between the rounded corners*
20,1,$1+$1,$2,$3,$4,$5,0*
20,1,$1+$1,$4,$5,$6,$7,0*
20,1,$1+$1,$6,$7,$8,$9,0*
20,1,$1+$1,$8,$9,$2,$3,0*%
G04 Aperture macros list end*
%ADD10RoundRect,0.135000X-0.135000X-0.185000X0.135000X-0.185000X0.135000X0.185000X-0.135000X0.185000X0*%
%ADD11RoundRect,0.140000X0.140000X0.170000X-0.140000X0.170000X-0.140000X-0.170000X0.140000X-0.170000X0*%
%ADD12RoundRect,0.170000X-0.170000X-0.210000X0.170000X-0.210000X0.170000X0.210000X-0.170000X0.210000X0*%
%ADD13RoundRect,0.075000X-0.650000X-0.075000X0.650000X-0.075000X0.650000X0.075000X-0.650000X0.075000X0*%
%ADD14RoundRect,0.135000X0.185000X-0.135000X0.185000X0.135000X-0.185000X0.135000X-0.185000X-0.135000X0*%
%ADD15RoundRect,0.140000X-0.140000X-0.170000X0.140000X-0.170000X0.140000X0.170000X-0.140000X0.170000X0*%
%ADD16RoundRect,0.135000X-0.185000X0.135000X-0.185000X-0.135000X0.185000X-0.135000X0.185000X0.135000X0*%
%ADD17RoundRect,0.135000X0.135000X0.185000X-0.135000X0.185000X-0.135000X-0.185000X0.135000X-0.185000X0*%
%ADD18RoundRect,0.140000X-0.170000X0.140000X-0.170000X-0.140000X0.170000X-0.140000X0.170000X0.140000X0*%
%ADD19RoundRect,0.140000X0.170000X-0.140000X0.170000X0.140000X-0.170000X0.140000X-0.170000X-0.140000X0*%
%ADD20RoundRect,0.160000X0.160000X-0.222500X0.160000X0.222500X-0.160000X0.222500X-0.160000X-0.222500X0*%
%ADD21R,1.800000X1.000000*%
%ADD22RoundRect,0.147500X-0.147500X-0.172500X0.147500X-0.172500X0.147500X0.172500X-0.147500X0.172500X0*%
%ADD23R,0.675000X0.250000*%
%ADD24R,0.250000X0.575000*%
%ADD25RoundRect,0.150000X-0.400000X0.150000X-0.400000X-0.150000X0.400000X-0.150000X0.400000X0.150000X0*%
%ADD26RoundRect,0.150000X-0.150000X0.512500X-0.150000X-0.512500X0.150000X-0.512500X0.150000X0.512500X0*%
%ADD27RoundRect,0.075000X-0.200000X0.075000X-0.200000X-0.075000X0.200000X-0.075000X0.200000X0.075000X0*%
%ADD28RoundRect,0.100000X-0.175000X0.100000X-0.175000X-0.100000X0.175000X-0.100000X0.175000X0.100000X0*%
%ADD29RoundRect,0.225000X-0.375000X0.225000X-0.375000X-0.225000X0.375000X-0.225000X0.375000X0.225000X0*%
%ADD30RoundRect,0.150000X0.200000X-0.150000X0.200000X0.150000X-0.200000X0.150000X-0.200000X-0.150000X0*%
%ADD31RoundRect,0.067500X-0.157500X0.232500X-0.157500X-0.232500X0.157500X-0.232500X0.157500X0.232500X0*%
%ADD32RoundRect,0.067500X0.232500X0.157500X-0.232500X0.157500X-0.232500X-0.157500X0.232500X-0.157500X0*%
%ADD33R,2.400000X0.740000*%
%ADD34RoundRect,0.242500X0.242500X-0.242500X0.242500X0.242500X-0.242500X0.242500X-0.242500X-0.242500X0*%
%ADD35RoundRect,0.062500X0.062500X-0.337500X0.062500X0.337500X-0.062500X0.337500X-0.062500X-0.337500X0*%
%ADD36RoundRect,0.062500X0.337500X-0.062500X0.337500X0.062500X-0.337500X0.062500X-0.337500X-0.062500X0*%
%ADD37R,1.346200X0.279400*%
%ADD38R,0.279400X1.346200*%
G04 APERTURE END LIST*
D10*
%TO.C,R16*%
X172200000Y-91300000D03*
X173220000Y-91300000D03*
%TD*%
D11*
%TO.C,C4*%
X128500000Y-91500000D03*
X127540000Y-91500000D03*
%TD*%
D12*
%TO.C,U5*%
X180230000Y-93430000D03*
X180230000Y-94370000D03*
X181070000Y-93430000D03*
X181070000Y-94370000D03*
D13*
X178500000Y-92900000D03*
X178500000Y-93400000D03*
X178500000Y-93900000D03*
X178500000Y-94400000D03*
X178500000Y-94900000D03*
X182800000Y-94900000D03*
X182800000Y-94400000D03*
X182800000Y-93900000D03*
X182800000Y-93400000D03*
X182800000Y-92900000D03*
%TD*%
D10*
%TO.C,R7*%
X139600000Y-96530000D03*
X140620000Y-96530000D03*
%TD*%
D14*
%TO.C,R26*%
X186750000Y-96110000D03*
X186750000Y-95090000D03*
%TD*%
D15*
%TO.C,C13*%
X128520000Y-113500000D03*
X129480000Y-113500000D03*
%TD*%
D10*
%TO.C,R9*%
X139600000Y-99500000D03*
X140620000Y-99500000D03*
%TD*%
D11*
%TO.C,C16*%
X146392500Y-113000000D03*
X145432500Y-113000000D03*
%TD*%
D10*
%TO.C,R8*%
X139600000Y-98000000D03*
X140620000Y-98000000D03*
%TD*%
D16*
%TO.C,R27*%
X184750000Y-95090000D03*
X184750000Y-96110000D03*
%TD*%
D17*
%TO.C,R17*%
X173270000Y-92440340D03*
X172250000Y-92440340D03*
%TD*%
%TO.C,R12*%
X156700000Y-109350000D03*
X155680000Y-109350000D03*
%TD*%
D18*
%TO.C,C49*%
X186750000Y-97520000D03*
X186750000Y-98480000D03*
%TD*%
D15*
%TO.C,C27*%
X155710000Y-110900000D03*
X156670000Y-110900000D03*
%TD*%
D18*
%TO.C,C43*%
X178500000Y-102265000D03*
X178500000Y-103225000D03*
%TD*%
D19*
%TO.C,C9*%
X129880000Y-92000000D03*
X129880000Y-91040000D03*
%TD*%
D11*
%TO.C,C44*%
X179500000Y-108500000D03*
X178540000Y-108500000D03*
%TD*%
D19*
%TO.C,C1*%
X121520000Y-102780000D03*
X121520000Y-101820000D03*
%TD*%
D18*
%TO.C,C45*%
X168200000Y-99120000D03*
X168200000Y-100080000D03*
%TD*%
D15*
%TO.C,C8*%
X128500000Y-112000000D03*
X129460000Y-112000000D03*
%TD*%
D17*
%TO.C,R3*%
X120520000Y-104200000D03*
X119500000Y-104200000D03*
%TD*%
D18*
%TO.C,C11*%
X132850000Y-109790000D03*
X132850000Y-110750000D03*
%TD*%
D17*
%TO.C,R1*%
X120520000Y-101200000D03*
X119500000Y-101200000D03*
%TD*%
D20*
%TO.C,L5*%
X169500000Y-100472500D03*
X169500000Y-99327500D03*
%TD*%
%TO.C,L7*%
X182000000Y-108370000D03*
X182000000Y-107225000D03*
%TD*%
D16*
%TO.C,R22*%
X180100000Y-96400000D03*
X180100000Y-97420000D03*
%TD*%
%TO.C,R21*%
X175500000Y-105500000D03*
X175500000Y-106520000D03*
%TD*%
D21*
%TO.C,Y2*%
X148162500Y-115500000D03*
X148162500Y-113000000D03*
%TD*%
D10*
%TO.C,R10*%
X139500000Y-101000000D03*
X140520000Y-101000000D03*
%TD*%
D16*
%TO.C,R23*%
X176920000Y-93650000D03*
X176920000Y-94670000D03*
%TD*%
D18*
%TO.C,C3*%
X121225000Y-95170000D03*
X121225000Y-96130000D03*
%TD*%
D11*
%TO.C,C17*%
X146392500Y-115500000D03*
X145432500Y-115500000D03*
%TD*%
D14*
%TO.C,R13*%
X156662500Y-116635000D03*
X156662500Y-115615000D03*
%TD*%
D19*
%TO.C,C15*%
X134350000Y-110750000D03*
X134350000Y-109790000D03*
%TD*%
D17*
%TO.C,R4*%
X120520000Y-105200000D03*
X119500000Y-105200000D03*
%TD*%
%TO.C,R15*%
X159510000Y-89500000D03*
X158490000Y-89500000D03*
%TD*%
D10*
%TO.C,R11*%
X152980000Y-116625000D03*
X154000000Y-116625000D03*
%TD*%
D22*
%TO.C,D2*%
X158515000Y-87750000D03*
X159485000Y-87750000D03*
%TD*%
D18*
%TO.C,C41*%
X175500000Y-102520000D03*
X175500000Y-103480000D03*
%TD*%
D19*
%TO.C,C10*%
X131850000Y-92000000D03*
X131850000Y-91040000D03*
%TD*%
%TO.C,C2*%
X121500000Y-104660000D03*
X121500000Y-103700000D03*
%TD*%
D23*
%TO.C,U3*%
X150687500Y-115062500D03*
D24*
X151500000Y-115125000D03*
X152000000Y-115125000D03*
X152500000Y-115125000D03*
X153000000Y-115125000D03*
D23*
X153812500Y-115062500D03*
X153812500Y-114562500D03*
X153812500Y-114062500D03*
X153812500Y-113562500D03*
X153812500Y-113062500D03*
X153812500Y-112562500D03*
X153812500Y-112062500D03*
X153812500Y-111562500D03*
X153812500Y-111062500D03*
X153812500Y-110562500D03*
D24*
X153000000Y-110500000D03*
X152500000Y-110500000D03*
X152000000Y-110500000D03*
X151500000Y-110500000D03*
D23*
X150687500Y-110562500D03*
X150687500Y-111062500D03*
X150687500Y-111562500D03*
X150687500Y-112062500D03*
X150687500Y-112562500D03*
X150687500Y-113062500D03*
X150687500Y-113562500D03*
X150687500Y-114062500D03*
X150687500Y-114562500D03*
%TD*%
D25*
%TO.C,Y1*%
X145500000Y-99250000D03*
X145500000Y-100650000D03*
%TD*%
D17*
%TO.C,R14*%
X157000000Y-89500000D03*
X155980000Y-89500000D03*
%TD*%
D26*
%TO.C,U6*%
X179500000Y-104725000D03*
X178550000Y-104725000D03*
X177600000Y-104725000D03*
X177600000Y-107000000D03*
X179500000Y-107000000D03*
%TD*%
D27*
%TO.C,D4*%
X116430000Y-102200000D03*
X116430000Y-102700000D03*
D28*
X116430000Y-103200000D03*
D27*
X116430000Y-103700000D03*
X116430000Y-104200000D03*
X117200000Y-104200000D03*
X117200000Y-103700000D03*
D28*
X117200000Y-103200000D03*
D27*
X117200000Y-102700000D03*
X117200000Y-102200000D03*
%TD*%
D16*
%TO.C,R24*%
X177000000Y-102215000D03*
X177000000Y-103235000D03*
%TD*%
D29*
%TO.C,D3*%
X182000000Y-101700000D03*
X182000000Y-105000000D03*
%TD*%
D19*
%TO.C,C39*%
X184600000Y-113560000D03*
X184600000Y-112600000D03*
%TD*%
D30*
%TO.C,U2*%
X115525000Y-95680000D03*
X115525000Y-97080000D03*
%TD*%
D19*
%TO.C,C48*%
X186750000Y-93860000D03*
X186750000Y-92900000D03*
%TD*%
D10*
%TO.C,R18*%
X116705000Y-95680000D03*
X117725000Y-95680000D03*
%TD*%
D18*
%TO.C,C40*%
X176920000Y-91390000D03*
X176920000Y-92350000D03*
%TD*%
D19*
%TO.C,C14*%
X136600000Y-95480000D03*
X136600000Y-94520000D03*
%TD*%
D22*
%TO.C,D1*%
X156015000Y-87750000D03*
X156985000Y-87750000D03*
%TD*%
D19*
%TO.C,C33*%
X168100000Y-90980000D03*
X168100000Y-90020000D03*
%TD*%
%TO.C,C26*%
X156662500Y-113980000D03*
X156662500Y-113020000D03*
%TD*%
D15*
%TO.C,C6*%
X126020000Y-111500000D03*
X126980000Y-111500000D03*
%TD*%
%TO.C,C7*%
X128520000Y-110000000D03*
X129480000Y-110000000D03*
%TD*%
D31*
%TO.C,U7*%
X160450000Y-106497000D03*
X159700000Y-106497000D03*
X158950000Y-106497000D03*
X158200000Y-106497000D03*
X157450000Y-106497000D03*
X156700000Y-106497000D03*
X155950000Y-106497000D03*
X155200000Y-106497000D03*
X154450000Y-106497000D03*
X153700000Y-106497000D03*
X152950000Y-106497000D03*
X152200000Y-106497000D03*
X151450000Y-106497000D03*
X150700000Y-106497000D03*
X149950000Y-106497000D03*
X149200000Y-106497000D03*
D32*
X149150000Y-105750000D03*
X149150000Y-105000000D03*
X149150000Y-104250000D03*
X149150000Y-103500000D03*
X149150000Y-102750000D03*
X149150000Y-102000000D03*
X149150000Y-101250000D03*
X149150000Y-100500000D03*
X149150000Y-99750000D03*
X149150000Y-99000000D03*
X149150000Y-98250000D03*
D31*
X149200000Y-97500000D03*
X149950000Y-97500000D03*
X150700000Y-97500000D03*
X151450000Y-97500000D03*
X152200000Y-97500000D03*
X152950000Y-97500000D03*
X153700000Y-97500000D03*
X154450000Y-97500000D03*
X155200000Y-97500000D03*
X155950000Y-97500000D03*
X156700000Y-97500000D03*
X157450000Y-97500000D03*
%TD*%
D14*
%TO.C,R25*%
X184700000Y-93880000D03*
X184700000Y-92860000D03*
%TD*%
D33*
%TO.C,J2*%
X160350000Y-111730000D03*
X164250000Y-111730000D03*
X160350000Y-113000000D03*
X164250000Y-113000000D03*
X160350000Y-114270000D03*
X164250000Y-114270000D03*
X160350000Y-115540000D03*
X164250000Y-115540000D03*
X160350000Y-116810000D03*
X164250000Y-116810000D03*
%TD*%
D11*
%TO.C,C35*%
X164680000Y-97600000D03*
X163720000Y-97600000D03*
%TD*%
D16*
%TO.C,R5*%
X119425000Y-95130000D03*
X119425000Y-96150000D03*
%TD*%
D15*
%TO.C,C42*%
X178090000Y-91400000D03*
X179050000Y-91400000D03*
%TD*%
D19*
%TO.C,C46*%
X170100000Y-91000000D03*
X170100000Y-90040000D03*
%TD*%
D34*
%TO.C,U4*%
X167650000Y-96550000D03*
X168850000Y-96550000D03*
X170050000Y-96550000D03*
X167650000Y-95350000D03*
X168850000Y-95350000D03*
X170050000Y-95350000D03*
X167650000Y-94150000D03*
X168850000Y-94150000D03*
X170050000Y-94150000D03*
D35*
X167100000Y-97800000D03*
X167600000Y-97800000D03*
X168100000Y-97800000D03*
X168600000Y-97800000D03*
X169100000Y-97800000D03*
X169600000Y-97800000D03*
X170100000Y-97800000D03*
X170600000Y-97800000D03*
D36*
X171300000Y-97100000D03*
X171300000Y-96600000D03*
X171300000Y-96100000D03*
X171300000Y-95600000D03*
X171300000Y-95100000D03*
X171300000Y-94600000D03*
X171300000Y-94100000D03*
X171300000Y-93600000D03*
D35*
X170600000Y-92900000D03*
X170100000Y-92900000D03*
X169600000Y-92900000D03*
X169100000Y-92900000D03*
X168600000Y-92900000D03*
X168100000Y-92900000D03*
X167600000Y-92900000D03*
X167100000Y-92900000D03*
D36*
X166400000Y-93600000D03*
X166400000Y-94100000D03*
X166400000Y-94600000D03*
X166400000Y-95100000D03*
X166400000Y-95600000D03*
X166400000Y-96100000D03*
X166400000Y-96600000D03*
X166400000Y-97100000D03*
%TD*%
D19*
%TO.C,C21*%
X164300000Y-96600000D03*
X164300000Y-95640000D03*
%TD*%
D17*
%TO.C,R2*%
X120520000Y-102200000D03*
X119500000Y-102200000D03*
%TD*%
D37*
%TO.C,U1*%
X123321500Y-96499999D03*
X123321500Y-96999998D03*
X123321500Y-97499999D03*
X123321500Y-97999998D03*
X123321500Y-98500000D03*
X123321500Y-98999999D03*
X123321500Y-99499998D03*
X123321500Y-99999999D03*
X123321500Y-100499999D03*
X123321500Y-101000000D03*
X123321500Y-101499999D03*
X123321500Y-101999998D03*
X123321500Y-102500000D03*
X123321500Y-102999999D03*
X123321500Y-103500000D03*
X123321500Y-103999999D03*
D38*
X125350000Y-106028499D03*
X125849999Y-106028499D03*
X126350000Y-106028499D03*
X126849999Y-106028499D03*
X127350001Y-106028499D03*
X127850000Y-106028499D03*
X128349999Y-106028499D03*
X128850000Y-106028499D03*
X129350000Y-106028499D03*
X129850001Y-106028499D03*
X130350000Y-106028499D03*
X130849999Y-106028499D03*
X131350001Y-106028499D03*
X131850000Y-106028499D03*
X132350001Y-106028499D03*
X132850000Y-106028499D03*
D37*
X134878500Y-103999999D03*
X134878500Y-103500000D03*
X134878500Y-102999999D03*
X134878500Y-102500000D03*
X134878500Y-101999998D03*
X134878500Y-101499999D03*
X134878500Y-101000000D03*
X134878500Y-100499999D03*
X134878500Y-99999999D03*
X134878500Y-99499998D03*
X134878500Y-98999999D03*
X134878500Y-98500000D03*
X134878500Y-97999998D03*
X134878500Y-97499999D03*
X134878500Y-96999998D03*
X134878500Y-96499999D03*
D38*
X132850000Y-94471499D03*
X132350001Y-94471499D03*
X131850000Y-94471499D03*
X131350001Y-94471499D03*
X130849999Y-94471499D03*
X130350000Y-94471499D03*
X129850001Y-94471499D03*
X129350000Y-94471499D03*
X128850000Y-94471499D03*
X128349999Y-94471499D03*
X127850000Y-94471499D03*
X127350001Y-94471499D03*
X126849999Y-94471499D03*
X126350000Y-94471499D03*
X125849999Y-94471499D03*
X125350000Y-94471499D03*
%TD*%
D18*
%TO.C,C12*%
X131350000Y-109790000D03*
X131350000Y-110750000D03*
%TD*%
D17*
%TO.C,R20*%
X174210000Y-95200000D03*
X173190000Y-95200000D03*
%TD*%
%TO.C,R19*%
X174200000Y-94135000D03*
X173180000Y-94135000D03*
%TD*%
D18*
%TO.C,C5*%
X125000000Y-109000000D03*
X125000000Y-109960000D03*
%TD*%
M02*
