M48
; DRILL file {KiCad 9.0.7} date 2026-02-03T01:20:04-0600
; FORMAT={-:-/ absolute / inch / decimal}
; #@! TF.CreationDate,2026-02-03T01:20:04-06:00
; #@! TF.GenerationSoftware,Kicad,Pcbnew,9.0.7
; #@! TF.FileFunction,Plated,1,4,PTH
FMAT,2
INCH
; #@! TA.AperFunction,Plated,PTH,ViaDrill
T1C0.0118
; #@! TA.AperFunction,Plated,PTH,ComponentDrill
T2C0.0118
; #@! TA.AperFunction,Plated,PTH,ComponentDrill
T3C0.0197
; #@! TA.AperFunction,Plated,PTH,ComponentDrill
T4C0.0256
; #@! TA.AperFunction,Plated,PTH,ComponentDrill
T5C0.0276
; #@! TA.AperFunction,Plated,PTH,ComponentDrill
T6C0.0295
; #@! TA.AperFunction,Plated,PTH,ComponentDrill
T7C0.0394
; #@! TA.AperFunction,Plated,PTH,ComponentDrill
T8C0.1250
%
G90
G05
T1
X4.5129Y-4.0625
X4.5866Y-3.8189
X4.6969Y-4.063
X4.8858Y-3.9055
X4.8917Y-4.3799
X4.9567Y-4.3543
X5.0213Y-3.5646
X5.0551Y-4.514
X5.0591Y-4.4409
X5.0787Y-3.6614
X5.1543Y-3.9626
X5.1575Y-3.6457
X5.174Y-4.0118
X5.2126Y-4.0583
X5.2362Y-3.9173
X5.2543Y-3.9677
X5.2953Y-4.1732
X5.3543Y-4.1732
X5.4331Y-3.9173
X5.4787Y-3.6205
X5.4921Y-3.6614
X5.5433Y-3.7598
X5.5551Y-4.0118
X5.6268Y-4.1752
X5.6299Y-3.7008
X5.6299Y-3.9567
X5.6528Y-4.0681
X5.7116Y-4.3671
X5.7257Y-4.4961
X5.748Y-3.6614
X5.8031Y-4.0909
X5.8504Y-4.2165
X5.8898Y-4.3189
X5.9443Y-4.0736
X5.9606Y-4.2402
X5.9614Y-4.2835
X5.9764Y-4.3858
X5.9797Y-4.0427
X5.9898Y-4.1559
X6.0008Y-4.5009
X6.0197Y-4.3806
X6.0276Y-3.9724
X6.0311Y-4.2839
X6.0551Y-4.3031
X6.1142Y-3.7638
X6.1161Y-3.872
X6.2117Y-3.4398
X6.313Y-4.4783
X6.3189Y-4.2252
X6.3831Y-4.3988
X6.4659Y-3.9042
X6.4882Y-3.6504
X6.4882Y-3.7087
X6.5039Y-3.7835
X6.5197Y-3.874
X6.5787Y-3.5472
X6.5787Y-3.937
X6.6654Y-3.5827
X6.6969Y-4.3661
X6.7248Y-3.9492
X6.7441Y-4.2126
X6.7441Y-4.4685
X6.752Y-4.6339
X6.7756Y-3.8661
X6.8071Y-3.563
X6.8201Y-3.7767
X6.8346Y-4.3661
X6.8774Y-3.6774
X6.9134Y-4.2997
X6.9587Y-4.2126
X7.0114Y-3.6382
X7.0281Y-3.9606
X7.0591Y-4.0669
X7.0835Y-3.592
X7.1457Y-3.7898
X7.2016Y-3.6326
X7.3819Y-3.8091
T2
X6.6083Y-3.7146
X6.6083Y-3.7539
X6.6083Y-3.7933
X6.6476Y-3.7146
X6.6476Y-3.7539
X6.6476Y-3.7933
X6.687Y-3.7146
X6.687Y-3.7539
X6.687Y-3.7933
T3
X5.311Y-3.4646
X5.4079Y-3.4646
X5.5079Y-3.4646
X5.5591Y-4.4685
X5.5709Y-4.3898
X5.5906Y-3.6024
X5.6378Y-4.4843
X5.6496Y-4.3701
X5.689Y-3.5276
X5.7087Y-4.2717
X6.0433Y-3.4941
X6.063Y-3.7087
X6.9055Y-4.4173
T4
X7.3327Y-4.2413
X7.3327Y-4.2913
T5
X4.626Y-3.4646
X4.7047Y-3.4646
X4.8425Y-3.4646
X4.9213Y-3.4646
T6
X4.4409Y-3.8661
X4.4409Y-3.9449
X4.4409Y-4.0236
X4.4409Y-4.1024
X4.4409Y-4.1811
X7.0669Y-4.3917
X7.1457Y-4.3917
T7
X6.3866Y-3.4449
X6.4866Y-3.4449
X6.5866Y-3.4449
X6.6866Y-3.4449
X6.7866Y-3.4449
X6.8866Y-3.4449
X6.9866Y-3.4449
X7.0866Y-3.4449
T8
X4.4331Y-3.3858
X4.4331Y-4.6063
X7.3563Y-3.3858
X7.3563Y-4.6063
M30
