%TF.GenerationSoftware,KiCad,Pcbnew,9.0.6*%
%TF.CreationDate,2026-01-21T16:07:36-06:00*%
%TF.ProjectId,wearable,77656172-6162-46c6-952e-6b696361645f,rev?*%
%TF.SameCoordinates,Original*%
%TF.FileFunction,Copper,L4,Bot*%
%TF.FilePolarity,Positive*%
%FSLAX46Y46*%
G04 Gerber Fmt 4.6, Leading zero omitted, Abs format (unit mm)*
G04 Created by KiCad (PCBNEW 9.0.6) date 2026-01-21 16:07:36*
%MOMM*%
%LPD*%
G01*
G04 APERTURE LIST*
G04 Aperture macros list*
%AMRoundRect*
0 Rectangle with rounded corners*
0 $1 Rounding radius*
0 $2 $3 $4 $5 $6 $7 $8 $9 X,Y pos of 4 corners*
0 Add a 4 corners polygon primitive as box body*
4,1,4,$2,$3,$4,$5,$6,$7,$8,$9,$2,$3,0*
0 Add four circle primitives for the rounded corners*
1,1,$1+$1,$2,$3*
1,1,$1+$1,$4,$5*
1,1,$1+$1,$6,$7*
1,1,$1+$1,$8,$9*
0 Add four rect primitives between the rounded corners*
20,1,$1+$1,$2,$3,$4,$5,0*
20,1,$1+$1,$4,$5,$6,$7,0*
20,1,$1+$1,$6,$7,$8,$9,0*
20,1,$1+$1,$8,$9,$2,$3,0*%
G04 Aperture macros list end*
%TA.AperFunction,ComponentPad*%
%ADD10C,1.000000*%
%TD*%
%TA.AperFunction,ComponentPad*%
%ADD11C,1.400000*%
%TD*%
%TA.AperFunction,ComponentPad*%
%ADD12C,4.318000*%
%TD*%
%TA.AperFunction,ComponentPad*%
%ADD13R,0.850000X0.850000*%
%TD*%
%TA.AperFunction,ComponentPad*%
%ADD14R,1.000000X1.000000*%
%TD*%
%TA.AperFunction,ComponentPad*%
%ADD15R,1.700000X1.700000*%
%TD*%
%TA.AperFunction,ComponentPad*%
%ADD16C,1.700000*%
%TD*%
%TA.AperFunction,ComponentPad*%
%ADD17RoundRect,0.250000X-0.350000X-0.625000X0.350000X-0.625000X0.350000X0.625000X-0.350000X0.625000X0*%
%TD*%
%TA.AperFunction,ComponentPad*%
%ADD18O,1.200000X1.750000*%
%TD*%
%TA.AperFunction,HeatsinkPad*%
%ADD19C,0.500000*%
%TD*%
%TA.AperFunction,HeatsinkPad*%
%ADD20R,2.500000X2.500000*%
%TD*%
%TA.AperFunction,ViaPad*%
%ADD21C,0.600000*%
%TD*%
%TA.AperFunction,Conductor*%
%ADD22C,0.500000*%
%TD*%
%TA.AperFunction,Conductor*%
%ADD23C,0.200000*%
%TD*%
%TA.AperFunction,Conductor*%
%ADD24C,0.370000*%
%TD*%
G04 APERTURE END LIST*
D10*
%TO.P,TP8,1,A*%
%TO.N,DRDY*%
X142000000Y-91500000D03*
%TD*%
%TO.P,TP14,1,A*%
%TO.N,SCK*%
X144500000Y-90500000D03*
%TD*%
D11*
%TO.P,TP2,1,1*%
%TO.N,AVDD*%
X123000000Y-88000000D03*
X125000000Y-88000000D03*
%TD*%
D10*
%TO.P,TP6,1,A*%
%TO.N,INT_BNO085*%
X139500000Y-112750000D03*
%TD*%
D12*
%TO.P,H4,1,Hole*%
%TO.N,unconnected-(H4-Hole-Pad1)*%
X186850000Y-117000000D03*
%TD*%
D10*
%TO.P,TP15,1,A*%
%TO.N,SCL*%
X153500000Y-88750000D03*
%TD*%
D12*
%TO.P,H1,1,Hole*%
%TO.N,unconnected-(H1-Hole-Pad1)*%
X112600000Y-86000000D03*
%TD*%
D10*
%TO.P,TP4,1,A*%
%TO.N,RST_ADS1299*%
X137360000Y-88000000D03*
%TD*%
%TO.P,TP3,1,A*%
%TO.N,START_ADS1299*%
X134900000Y-88000000D03*
%TD*%
D13*
%TO.P,E3,1*%
%TO.N,Net-(E3-Pad1)*%
X113850000Y-101950000D03*
%TD*%
D10*
%TO.P,TP11,1,A*%
%TO.N,MISO*%
X137600000Y-114200000D03*
%TD*%
%TO.P,TP5,1,A*%
%TO.N,CS_ADS1299*%
X137250000Y-111500000D03*
%TD*%
%TO.P,TP10,1,A*%
%TO.N,BOOT_BNO085*%
X143500000Y-111000000D03*
%TD*%
%TO.P,TP9,1,A*%
%TO.N,MOSI*%
X141500000Y-111500000D03*
%TD*%
%TO.P,TP13,1,A*%
%TO.N,SDA*%
X175400000Y-112200000D03*
%TD*%
D13*
%TO.P,E1,1*%
%TO.N,Net-(E1-Pad1)*%
X113850000Y-95850000D03*
%TD*%
%TO.P,E5,1*%
%TO.N,Net-(U1-BIASIN)*%
X113850000Y-108250000D03*
%TD*%
D10*
%TO.P,TP12,1,A*%
%TO.N,RST_BNO085*%
X145000000Y-108500000D03*
%TD*%
D13*
%TO.P,E4,1*%
%TO.N,Net-(E4-Pad1)*%
X113850000Y-105000000D03*
%TD*%
D11*
%TO.P,TP1,1,1*%
%TO.N,AVSS*%
X117500000Y-88000000D03*
X119500000Y-88000000D03*
%TD*%
D12*
%TO.P,H3,1,Hole*%
%TO.N,unconnected-(H3-Hole-Pad1)*%
X186850000Y-86000000D03*
%TD*%
D14*
%TO.P,SW1,1,1*%
%TO.N,AVSS*%
X186250000Y-109000000D03*
D10*
%TO.P,SW1,2,2*%
%TO.N,Net-(U4-SHPHLD)*%
X186250000Y-107730000D03*
%TD*%
%TO.P,TP7,1,A*%
%TO.N,PWDWN_ADS1299*%
X139900000Y-88000000D03*
%TD*%
D12*
%TO.P,H2,1,Hole*%
%TO.N,unconnected-(H2-Hole-Pad1)*%
X112600000Y-117000000D03*
%TD*%
D15*
%TO.P,J1,1,Pin_1*%
%TO.N,unconnected-(J1-Pin_1-Pad1)*%
X162350000Y-87750000D03*
D16*
%TO.P,J1,2,Pin_2*%
%TO.N,+5V_USB*%
X164890000Y-87750000D03*
%TO.P,J1,3,Pin_3*%
%TO.N,unconnected-(J1-Pin_3-Pad3)*%
X167430000Y-87750000D03*
%TO.P,J1,4,Pin_4*%
%TO.N,Net-(J1-Pin_4)*%
X169970000Y-87750000D03*
%TO.P,J1,5,Pin_5*%
%TO.N,unconnected-(J1-Pin_5-Pad5)*%
X172510000Y-87750000D03*
%TO.P,J1,6,Pin_6*%
%TO.N,unconnected-(J1-Pin_6-Pad6)*%
X175050000Y-87750000D03*
%TO.P,J1,7,Pin_7*%
%TO.N,unconnected-(J1-Pin_7-Pad7)*%
X177590000Y-87750000D03*
%TO.P,J1,8,Pin_8*%
%TO.N,Net-(J1-Pin_8)*%
X180130000Y-87750000D03*
%TD*%
D17*
%TO.P,BT1,1,+*%
%TO.N,Net-(BT1-+)*%
X179500000Y-111550000D03*
D18*
%TO.P,BT1,2,-*%
%TO.N,AVSS*%
X181500000Y-111550000D03*
%TD*%
D19*
%TO.P,U4,33,AVSS*%
%TO.N,AVSS*%
X166500000Y-96000000D03*
X167500000Y-96000000D03*
X168500000Y-96000000D03*
X166500000Y-95000000D03*
X167500000Y-95000000D03*
D20*
X167500000Y-95000000D03*
D19*
X168500000Y-95000000D03*
X166500000Y-94000000D03*
X167500000Y-94000000D03*
X168500000Y-94000000D03*
%TD*%
D11*
%TO.P,IC1,1*%
%TO.N,AVSS*%
X139500000Y-105460000D03*
%TO.P,IC1,2*%
%TO.N,Net-(U1-VREFP)*%
X139500000Y-108000000D03*
%TO.P,IC1,3*%
%TO.N,AVSS*%
X139500000Y-110540000D03*
%TD*%
D13*
%TO.P,E2,1*%
%TO.N,Net-(E2-Pad1)*%
X113850000Y-98900000D03*
%TD*%
D21*
%TO.N,AVSS*%
X158400000Y-96100000D03*
X146000000Y-93000000D03*
X128400000Y-114654736D03*
X157777005Y-87371509D03*
X162000000Y-98000000D03*
X159750000Y-102019880D03*
X162000000Y-114800000D03*
X134500000Y-106000000D03*
X125900000Y-110600000D03*
X151580000Y-102000000D03*
X158000000Y-103000000D03*
X185000000Y-104090000D03*
X180950000Y-89950000D03*
X154603057Y-96457189D03*
X154500000Y-107750000D03*
X158250000Y-100250000D03*
X139160000Y-91960000D03*
X140800000Y-95500000D03*
%TO.N,Net-(BT1-+)*%
X169000000Y-90500000D03*
%TO.N,AVDD*%
X124100000Y-99200000D03*
X124250000Y-111250000D03*
X182920000Y-92268530D03*
X127540000Y-90540000D03*
X128500000Y-112800000D03*
X187500000Y-96750000D03*
X131000000Y-92600000D03*
X129000000Y-93000000D03*
%TO.N,+3V3*%
X139500000Y-93000000D03*
X146250000Y-105250000D03*
X136000000Y-106000000D03*
X176750000Y-107000000D03*
X158250000Y-104000000D03*
X170800000Y-101700000D03*
X153500000Y-106080001D03*
X157100000Y-91900000D03*
X147500000Y-99000000D03*
%TO.N,+5V3*%
X178500000Y-97750000D03*
X178090000Y-92410000D03*
%TO.N,RESET*%
X166000000Y-115200000D03*
X158877983Y-105616051D03*
%TO.N,INT_BNO085*%
X143992830Y-103604964D03*
X145075735Y-110924265D03*
X154750000Y-112420000D03*
%TO.N,BOOT_BNO085*%
X152812500Y-113625000D03*
X143200681Y-103493142D03*
%TO.N,PWDWN_ADS1299*%
X132420000Y-103080000D03*
%TO.N,RST_BNO085*%
X145000000Y-104500000D03*
X152814500Y-112314500D03*
%TO.N,START_ADS1299*%
X130920000Y-100650000D03*
%TO.N,RST_ADS1299*%
X131420000Y-101900000D03*
%TO.N,MISO*%
X148500000Y-106000000D03*
X146124265Y-110275736D03*
X138000000Y-99500000D03*
%TO.N,MOSI*%
X152500000Y-111500000D03*
X147000000Y-107500000D03*
%TO.N,SCL*%
X175000000Y-93121000D03*
X158468289Y-106303186D03*
%TO.N,SDA*%
X176250000Y-111250000D03*
X158341530Y-107425901D03*
X173500000Y-95385000D03*
X176218227Y-109213493D03*
%TO.N,SCK*%
X142851000Y-109149000D03*
X133000000Y-99500000D03*
X142750000Y-106900000D03*
X142000000Y-101000000D03*
%TO.N,CS_ADS1299*%
X133000000Y-100600000D03*
X155800003Y-112420000D03*
%TO.N,DRDY*%
X142900000Y-105242711D03*
X143000000Y-100500000D03*
X143000000Y-94000000D03*
%TO.N,GPIO1*%
X149000000Y-109000000D03*
X172018768Y-119000000D03*
%TO.N,GPIO0*%
X148000000Y-109000000D03*
X171000000Y-119000000D03*
%TO.N,Net-(U2-DECA)*%
X154499460Y-97230281D03*
X153000000Y-97730000D03*
X153000000Y-95000000D03*
X156500000Y-100250000D03*
%TO.N,Net-(J1-Pin_8)*%
X164500000Y-90968000D03*
%TO.N,Net-(J1-Pin_4)*%
X165500000Y-90968000D03*
%TO.N,GPIO3*%
X151000000Y-108000000D03*
X173578774Y-119000000D03*
%TO.N,GPIO2*%
X149758949Y-108650000D03*
X172798771Y-119000000D03*
%TO.N,GPIO4*%
X174358777Y-119000000D03*
X152000000Y-107500000D03*
%TO.N,Net-(U1-VREFP)*%
X135964878Y-109785122D03*
X130500000Y-110000000D03*
%TO.N,Net-(U4-VOUT2)*%
X163750000Y-98050000D03*
X170900000Y-100700000D03*
%TO.N,Net-(U4-SHPHLD)*%
X179375000Y-90128000D03*
%TD*%
D22*
%TO.N,AVSS*%
X165500000Y-95000000D02*
X162500000Y-98000000D01*
X162500000Y-98000000D02*
X162000000Y-98000000D01*
X138209000Y-106751000D02*
X138209000Y-109249000D01*
X138209000Y-106751000D02*
X135251000Y-106751000D01*
X138209000Y-109249000D02*
X139500000Y-110540000D01*
X166500000Y-95000000D02*
X165500000Y-95000000D01*
X143500000Y-95500000D02*
X140800000Y-95500000D01*
X135251000Y-106751000D02*
X134500000Y-106000000D01*
X146000000Y-93000000D02*
X143500000Y-95500000D01*
X166500000Y-94000000D02*
X165500000Y-95000000D01*
X139500000Y-105460000D02*
X138209000Y-106751000D01*
X166500000Y-96000000D02*
X165500000Y-95000000D01*
%TO.N,Net-(BT1-+)*%
X184000000Y-101500000D02*
X180750000Y-98250000D01*
X179500000Y-111550000D02*
X184000000Y-107050000D01*
X177500000Y-90500000D02*
X169000000Y-90500000D01*
X184000000Y-107050000D02*
X184000000Y-101500000D01*
X180750000Y-98250000D02*
X180750000Y-93750000D01*
X180750000Y-93750000D02*
X177500000Y-90500000D01*
%TO.N,AVDD*%
X125800000Y-112800000D02*
X128500000Y-112800000D01*
D23*
X127580000Y-90500000D02*
X127540000Y-90540000D01*
D22*
X124250000Y-111250000D02*
X125800000Y-112800000D01*
%TO.N,+3V3*%
X157165878Y-91965878D02*
X157965878Y-91965878D01*
X136500000Y-93000000D02*
X139500000Y-93000000D01*
X172800000Y-103500000D02*
X173250000Y-103500000D01*
X170000000Y-92500000D02*
X172500000Y-95000000D01*
X158500000Y-92500000D02*
X170000000Y-92500000D01*
X177500000Y-103500000D02*
X174750000Y-103500000D01*
X158250000Y-104000000D02*
X158250000Y-104750000D01*
X136000000Y-106000000D02*
X136000000Y-93500000D01*
X172500000Y-95000000D02*
X172500000Y-103200000D01*
X172500000Y-103200000D02*
X172800000Y-103500000D01*
X170800000Y-101700000D02*
X172600000Y-103500000D01*
X146250000Y-105250000D02*
X147500000Y-104000000D01*
D24*
X175000000Y-107000000D02*
X176750000Y-107000000D01*
D22*
X174750000Y-103500000D02*
X173250000Y-103500000D01*
X158250000Y-104750000D02*
X156919999Y-106080001D01*
X157100000Y-91900000D02*
X157165878Y-91965878D01*
X147500000Y-104000000D02*
X147500000Y-99000000D01*
D24*
X174750000Y-103500000D02*
X174750000Y-106750000D01*
D22*
X156919999Y-106080001D02*
X153500000Y-106080001D01*
X172600000Y-103500000D02*
X173250000Y-103500000D01*
X136000000Y-93500000D02*
X136500000Y-93000000D01*
D24*
X174750000Y-106750000D02*
X175000000Y-107000000D01*
D22*
X157965878Y-91965878D02*
X158500000Y-92500000D01*
%TO.N,+5V3*%
X178500000Y-92820000D02*
X178090000Y-92410000D01*
X178500000Y-97750000D02*
X178500000Y-92820000D01*
D23*
%TO.N,RESET*%
X164000000Y-115000000D02*
X163500000Y-114500000D01*
X166000000Y-115200000D02*
X165800000Y-115000000D01*
X159500000Y-106238068D02*
X158877983Y-105616051D01*
X163500000Y-111500000D02*
X162750000Y-110750000D01*
X159500000Y-107615800D02*
X159500000Y-106238068D01*
X163500000Y-114500000D02*
X163500000Y-111500000D01*
X160500000Y-110500000D02*
X160500000Y-108615800D01*
X165800000Y-115000000D02*
X164000000Y-115000000D01*
X160750000Y-110750000D02*
X160500000Y-110500000D01*
X160500000Y-108615800D02*
X159500000Y-107615800D01*
X162750000Y-110750000D02*
X160750000Y-110750000D01*
%TO.N,INT_BNO085*%
X154750000Y-112420000D02*
X154750000Y-112670000D01*
X144000000Y-103802000D02*
X143992830Y-103794830D01*
X152500000Y-113000000D02*
X151000000Y-111500000D01*
X143992830Y-103794830D02*
X143992830Y-103604964D01*
X145750000Y-111500000D02*
X144000000Y-109750000D01*
X154420000Y-113000000D02*
X152500000Y-113000000D01*
X151000000Y-111500000D02*
X145750000Y-111500000D01*
X154750000Y-112670000D02*
X154420000Y-113000000D01*
X144000000Y-109750000D02*
X144000000Y-103802000D01*
%TO.N,BOOT_BNO085*%
X150833900Y-111901000D02*
X144401000Y-111901000D01*
X144401000Y-111901000D02*
X143500000Y-111000000D01*
X143500000Y-103949265D02*
X143500000Y-111000000D01*
X143200681Y-103493142D02*
X143200681Y-103649946D01*
X143200681Y-103649946D02*
X143500000Y-103949265D01*
X152812500Y-113625000D02*
X152557900Y-113625000D01*
X152557900Y-113625000D02*
X150833900Y-111901000D01*
%TO.N,PWDWN_ADS1299*%
X139250000Y-88000000D02*
X139900000Y-88000000D01*
X132400000Y-103060000D02*
X132400000Y-94850000D01*
X132420000Y-103080000D02*
X132400000Y-103060000D01*
X132400000Y-94850000D02*
X139250000Y-88000000D01*
%TO.N,RST_BNO085*%
X151899000Y-111399000D02*
X151500000Y-111000000D01*
X152381600Y-112314500D02*
X151899000Y-111831900D01*
X145000000Y-110000000D02*
X145000000Y-104500000D01*
X146000000Y-111000000D02*
X145000000Y-110000000D01*
X151500000Y-111000000D02*
X146000000Y-111000000D01*
X151899000Y-111831900D02*
X151899000Y-111399000D01*
X152814500Y-112314500D02*
X152381600Y-112314500D01*
%TO.N,START_ADS1299*%
X134900000Y-89549943D02*
X134900000Y-88000000D01*
X130900000Y-93549943D02*
X134900000Y-89549943D01*
X130900000Y-100630000D02*
X130900000Y-93549943D01*
X130920000Y-100650000D02*
X130900000Y-100630000D01*
%TO.N,RST_ADS1299*%
X131420000Y-101900000D02*
X131500000Y-101820000D01*
X131500000Y-93860000D02*
X137360000Y-88000000D01*
X131500000Y-101820000D02*
X131500000Y-93860000D01*
%TO.N,MISO*%
X138000000Y-99500000D02*
X138800000Y-99500000D01*
X146600000Y-106900000D02*
X147600000Y-106900000D01*
X146124265Y-110275736D02*
X146000000Y-110151470D01*
X138800000Y-99500000D02*
X141300000Y-97000000D01*
X151000000Y-103500000D02*
X147899000Y-106601000D01*
X151000000Y-97000000D02*
X151000000Y-103500000D01*
X141300000Y-97000000D02*
X151000000Y-97000000D01*
X148500000Y-106000000D02*
X147899000Y-106601000D01*
X147600000Y-106900000D02*
X147899000Y-106601000D01*
X146000000Y-107500000D02*
X146600000Y-106900000D01*
X146000000Y-110151470D02*
X146000000Y-107500000D01*
%TO.N,MOSI*%
X152375000Y-110375000D02*
X152162443Y-110162443D01*
X152375000Y-111625000D02*
X152375000Y-110375000D01*
X148162443Y-110162443D02*
X147000000Y-109000000D01*
X152162443Y-110162443D02*
X148162443Y-110162443D01*
X152500000Y-111500000D02*
X152375000Y-111625000D01*
X147000000Y-109000000D02*
X147000000Y-107500000D01*
%TO.N,SCL*%
X157250000Y-88750000D02*
X157750000Y-89250000D01*
X163157816Y-115869000D02*
X170106000Y-115869000D01*
X160333900Y-111151000D02*
X162401000Y-111151000D01*
X162401000Y-111151000D02*
X162421000Y-111171000D01*
X179537223Y-109794493D02*
X181401000Y-107930716D01*
X159000000Y-106750000D02*
X159000000Y-107682900D01*
X163000000Y-111711185D02*
X163000000Y-115250000D01*
X158553186Y-106303186D02*
X159000000Y-106750000D01*
X160099000Y-108781900D02*
X160099000Y-110916100D01*
X153500000Y-88750000D02*
X157250000Y-88750000D01*
X160099000Y-110916100D02*
X160333900Y-111151000D01*
X159000000Y-107682900D02*
X160099000Y-108781900D01*
X163000000Y-115250000D02*
X163131000Y-115381001D01*
X170106000Y-115869000D02*
X176180507Y-109794493D01*
X181401000Y-104401000D02*
X176250000Y-99250000D01*
X159300000Y-91548000D02*
X174048000Y-91548000D01*
X163131000Y-115842184D02*
X163157816Y-115869000D01*
X157750000Y-89998000D02*
X159300000Y-91548000D01*
X162421000Y-111171000D02*
X162459816Y-111171000D01*
X163131000Y-115381001D02*
X163131000Y-115842184D01*
X176180507Y-109794493D02*
X179537223Y-109794493D01*
X162459816Y-111171000D02*
X163000000Y-111711185D01*
X181401000Y-107930716D02*
X181401000Y-104401000D01*
X176250000Y-99250000D02*
X176250000Y-94371000D01*
X175000000Y-92500000D02*
X175000000Y-93121000D01*
X176250000Y-94371000D02*
X175000000Y-93121000D01*
X157750000Y-89250000D02*
X157750000Y-89998000D01*
X158468289Y-106303186D02*
X158553186Y-106303186D01*
X174048000Y-91548000D02*
X175000000Y-92500000D01*
%TO.N,SDA*%
X171250000Y-116250000D02*
X163000000Y-116250000D01*
X181000000Y-107764616D02*
X181000000Y-104750000D01*
X179514616Y-109250000D02*
X181000000Y-107764616D01*
X159698000Y-108948000D02*
X158267431Y-107517431D01*
X175000000Y-98000000D02*
X175000000Y-96885000D01*
X158267431Y-107500000D02*
X158341530Y-107425901D01*
X181000000Y-104750000D02*
X175000000Y-98750000D01*
X162619000Y-115869000D02*
X162619000Y-111869000D01*
X162619000Y-111869000D02*
X162302000Y-111552000D01*
X175000000Y-98750000D02*
X175000000Y-98000000D01*
X176250000Y-111250000D02*
X171250000Y-116250000D01*
X176463493Y-109213493D02*
X176500000Y-109250000D01*
X163000000Y-116250000D02*
X162619000Y-115869000D01*
X162302000Y-111552000D02*
X160167800Y-111552000D01*
X176218227Y-109213493D02*
X176463493Y-109213493D01*
X175000000Y-96885000D02*
X173500000Y-95385000D01*
X158267431Y-107517431D02*
X158267431Y-107500000D01*
X160167800Y-111552000D02*
X159698000Y-111082200D01*
X159698000Y-111082200D02*
X159698000Y-108948000D01*
X176500000Y-109250000D02*
X179514616Y-109250000D01*
%TO.N,SCK*%
X142013579Y-104760932D02*
X142000000Y-104747353D01*
X142750000Y-106900000D02*
X142750000Y-106250000D01*
X142013579Y-105513579D02*
X142013579Y-104760932D01*
X144500000Y-90500000D02*
X138000000Y-90500000D01*
X142750000Y-106900000D02*
X142750000Y-109048000D01*
X138000000Y-90500000D02*
X133000000Y-95500000D01*
X142750000Y-106250000D02*
X142013579Y-105513579D01*
X142750000Y-109048000D02*
X142851000Y-109149000D01*
X133000000Y-95500000D02*
X133000000Y-99500000D01*
X142000000Y-104747353D02*
X142000000Y-101000000D01*
%TO.N,CS_ADS1299*%
X152587557Y-114250000D02*
X153970002Y-114250000D01*
X134954122Y-109204122D02*
X136205537Y-109204122D01*
X136545878Y-109544463D02*
X136545878Y-111445878D01*
X136545878Y-111445878D02*
X138900000Y-113800000D01*
X136205537Y-109204122D02*
X136545878Y-109544463D01*
X133000000Y-100600000D02*
X133000000Y-107250000D01*
X138900000Y-113800000D02*
X143919800Y-113800000D01*
X145417800Y-112302000D02*
X150639557Y-112302000D01*
X133000000Y-107250000D02*
X134954122Y-109204122D01*
X153970002Y-114250000D02*
X155800003Y-112420000D01*
X150639557Y-112302000D02*
X152587557Y-114250000D01*
X143919800Y-113800000D02*
X145417800Y-112302000D01*
%TO.N,DRDY*%
X142000000Y-91500000D02*
X143000000Y-92500000D01*
X143000000Y-92500000D02*
X143000000Y-94000000D01*
X142500000Y-101349943D02*
X142601000Y-101248943D01*
X142601000Y-100899000D02*
X143000000Y-100500000D01*
X142500000Y-104785421D02*
X142500000Y-101349943D01*
X142601000Y-101248943D02*
X142601000Y-100899000D01*
X142900000Y-105185421D02*
X142500000Y-104785421D01*
X142900000Y-105242711D02*
X142900000Y-105185421D01*
%TO.N,GPIO1*%
X155168000Y-111418000D02*
X153000000Y-109250000D01*
X159250000Y-113682900D02*
X156985100Y-111418000D01*
X153000000Y-109250000D02*
X149250000Y-109250000D01*
X171778152Y-118759384D02*
X171759384Y-118759384D01*
X172018768Y-119000000D02*
X171778152Y-118759384D01*
X159250000Y-117250000D02*
X159250000Y-113682900D01*
X171302000Y-118302000D02*
X160302000Y-118302000D01*
X149250000Y-109250000D02*
X149000000Y-109000000D01*
X156985100Y-111418000D02*
X155168000Y-111418000D01*
X160302000Y-118302000D02*
X159250000Y-117250000D01*
X171759384Y-118759384D02*
X171302000Y-118302000D01*
%TO.N,GPIO0*%
X158750000Y-117500000D02*
X158750000Y-113750000D01*
X148761443Y-109761443D02*
X148000000Y-109000000D01*
X158750000Y-113750000D02*
X156819000Y-111819000D01*
X171000000Y-119000000D02*
X160250000Y-119000000D01*
X152944343Y-109761443D02*
X148761443Y-109761443D01*
X155001900Y-111819000D02*
X152944343Y-109761443D01*
X160250000Y-119000000D02*
X158750000Y-117500000D01*
X156819000Y-111819000D02*
X155001900Y-111819000D01*
%TO.N,Net-(U2-DECA)*%
X156500000Y-100250000D02*
X156500000Y-99230821D01*
X156500000Y-99230821D02*
X154499460Y-97230281D01*
X153000000Y-95000000D02*
X153000000Y-97730000D01*
%TO.N,Net-(J1-Pin_8)*%
X161199000Y-91147000D02*
X161000000Y-90948000D01*
X159500000Y-89500000D02*
X159500000Y-89000000D01*
X169493240Y-86599000D02*
X170446760Y-86599000D01*
X171220000Y-89000000D02*
X178880000Y-89000000D01*
X168819000Y-87273240D02*
X169493240Y-86599000D01*
X160948000Y-90948000D02*
X159500000Y-89500000D01*
X171121000Y-88901000D02*
X171220000Y-89000000D01*
X161000000Y-90948000D02*
X160948000Y-90948000D01*
X168038225Y-89000000D02*
X168815233Y-88222993D01*
X178880000Y-89000000D02*
X180130000Y-87750000D01*
X159500000Y-89000000D02*
X168038225Y-89000000D01*
X164500000Y-91147000D02*
X161199000Y-91147000D01*
X171121000Y-87273240D02*
X171121000Y-88901000D01*
X168815233Y-88222993D02*
X168819000Y-88226760D01*
X168819000Y-88226760D02*
X168819000Y-87273240D01*
X164500000Y-90968000D02*
X164500000Y-91147000D01*
X170446760Y-86599000D02*
X171121000Y-87273240D01*
%TO.N,Net-(J1-Pin_4)*%
X165500000Y-90968000D02*
X165968000Y-90500000D01*
X167220000Y-90500000D02*
X169970000Y-87750000D01*
X165968000Y-90500000D02*
X167220000Y-90500000D01*
%TO.N,GPIO3*%
X173250000Y-117250000D02*
X161250000Y-117250000D01*
X160250000Y-113548700D02*
X157317300Y-110616000D01*
X153217157Y-108150057D02*
X151800114Y-108150057D01*
X151800114Y-108150057D02*
X151650057Y-108000000D01*
X173578774Y-117578774D02*
X173250000Y-117250000D01*
X160250000Y-116250000D02*
X160250000Y-113548700D01*
X155683100Y-110616000D02*
X153217157Y-108150057D01*
X157317300Y-110616000D02*
X155683100Y-110616000D01*
X151650057Y-108000000D02*
X151000000Y-108000000D01*
X173578774Y-119000000D02*
X173578774Y-117578774D01*
X161250000Y-117250000D02*
X160250000Y-116250000D01*
%TO.N,GPIO2*%
X155517000Y-111017000D02*
X153099000Y-108599000D01*
X159750000Y-113615800D02*
X157151200Y-111017000D01*
X160750000Y-117750000D02*
X159750000Y-116750000D01*
X172798771Y-118298771D02*
X172250000Y-117750000D01*
X172250000Y-117750000D02*
X160750000Y-117750000D01*
X151250943Y-108599000D02*
X151199943Y-108650000D01*
X157151200Y-111017000D02*
X155517000Y-111017000D01*
X153099000Y-108599000D02*
X151250943Y-108599000D01*
X172798771Y-119000000D02*
X172798771Y-118298771D01*
X151199943Y-108650000D02*
X149758949Y-108650000D01*
X159750000Y-116750000D02*
X159750000Y-113615800D01*
%TO.N,GPIO4*%
X161750000Y-116750000D02*
X160750000Y-115750000D01*
X160750000Y-115750000D02*
X160750000Y-113481600D01*
X153134200Y-107500000D02*
X152000000Y-107500000D01*
X174250000Y-116750000D02*
X161750000Y-116750000D01*
X157483400Y-110215000D02*
X155849200Y-110215000D01*
X174358777Y-116858777D02*
X174250000Y-116750000D01*
X152282843Y-107500000D02*
X152000000Y-107500000D01*
X174358777Y-119000000D02*
X174358777Y-116858777D01*
X160750000Y-113481600D02*
X157483400Y-110215000D01*
X155849200Y-110215000D02*
X153134200Y-107500000D01*
%TO.N,Net-(U1-VREFP)*%
X130750000Y-110250000D02*
X130500000Y-110000000D01*
X135500000Y-110250000D02*
X130750000Y-110250000D01*
X135964878Y-109785122D02*
X135500000Y-110250000D01*
%TO.N,Net-(U4-VOUT2)*%
X170900000Y-100650000D02*
X168500000Y-98250000D01*
X168500000Y-98250000D02*
X163950000Y-98250000D01*
X170900000Y-100700000D02*
X170900000Y-100650000D01*
X163950000Y-98250000D02*
X163750000Y-98050000D01*
%TO.N,Net-(U4-SHPHLD)*%
X183750000Y-96000000D02*
X185750000Y-98000000D01*
X185750000Y-98000000D02*
X185750000Y-106980000D01*
X185750000Y-106980000D02*
X186500000Y-107730000D01*
X182150000Y-90650000D02*
X183750000Y-92250000D01*
X179897000Y-90650000D02*
X182150000Y-90650000D01*
X183750000Y-92250000D02*
X183750000Y-96000000D01*
X179375000Y-90128000D02*
X179897000Y-90650000D01*
%TD*%
M02*
