%TF.GenerationSoftware,KiCad,Pcbnew,9.0.7*%
%TF.CreationDate,2026-02-03T01:20:09-06:00*%
%TF.ProjectId,wearable,77656172-6162-46c6-952e-6b696361645f,rev?*%
%TF.SameCoordinates,Original*%
%TF.FileFunction,Legend,Top*%
%TF.FilePolarity,Positive*%
%FSLAX46Y46*%
G04 Gerber Fmt 4.6, Leading zero omitted, Abs format (unit mm)*
G04 Created by KiCad (PCBNEW 9.0.7) date 2026-02-03 01:20:09*
%MOMM*%
%LPD*%
G01*
G04 APERTURE LIST*
%ADD10C,0.254000*%
%ADD11C,0.100000*%
%ADD12C,0.250000*%
%ADD13C,0.150000*%
%ADD14C,0.120000*%
%ADD15C,0.000000*%
%ADD16C,0.127000*%
%ADD17C,0.200000*%
%ADD18C,0.152400*%
G04 APERTURE END LIST*
D10*
X168423633Y-117807633D02*
G75*
G02*
X169439567Y-118823633I-33J-1015967D01*
G01*
D11*
X132836068Y-117700000D02*
G75*
G02*
X128363932Y-117700000I-2236068J0D01*
G01*
X128363932Y-117700000D02*
G75*
G02*
X132836068Y-117700000I2236068J0D01*
G01*
D10*
X167407633Y-118823633D02*
G75*
G02*
X168423633Y-117807633I998567J17433D01*
G01*
X169439633Y-118823633D02*
G75*
G02*
X168423633Y-119839633I-1016033J33D01*
G01*
X168423633Y-119839633D02*
G75*
G02*
X167407567Y-118823633I-33J1016033D01*
G01*
X165260276Y-118737099D02*
X165744085Y-118737099D01*
X164728085Y-119075766D02*
X165260276Y-118737099D01*
X165260276Y-118737099D02*
X164728085Y-118398432D01*
X167946452Y-116287752D02*
X168962452Y-115610418D01*
X167946452Y-115610418D02*
X168962452Y-116287752D01*
D12*
X115593044Y-119817000D02*
X115764473Y-119864619D01*
X115764473Y-119864619D02*
X116050187Y-119864619D01*
X116050187Y-119864619D02*
X116164473Y-119817000D01*
X116164473Y-119817000D02*
X116221615Y-119769380D01*
X116221615Y-119769380D02*
X116278758Y-119674142D01*
X116278758Y-119674142D02*
X116278758Y-119578904D01*
X116278758Y-119578904D02*
X116221615Y-119483666D01*
X116221615Y-119483666D02*
X116164473Y-119436047D01*
X116164473Y-119436047D02*
X116050187Y-119388428D01*
X116050187Y-119388428D02*
X115821615Y-119340809D01*
X115821615Y-119340809D02*
X115707330Y-119293190D01*
X115707330Y-119293190D02*
X115650187Y-119245571D01*
X115650187Y-119245571D02*
X115593044Y-119150333D01*
X115593044Y-119150333D02*
X115593044Y-119055095D01*
X115593044Y-119055095D02*
X115650187Y-118959857D01*
X115650187Y-118959857D02*
X115707330Y-118912238D01*
X115707330Y-118912238D02*
X115821615Y-118864619D01*
X115821615Y-118864619D02*
X116107330Y-118864619D01*
X116107330Y-118864619D02*
X116278758Y-118912238D01*
X116793044Y-119197952D02*
X116793044Y-119864619D01*
X116793044Y-119293190D02*
X116850187Y-119245571D01*
X116850187Y-119245571D02*
X116964472Y-119197952D01*
X116964472Y-119197952D02*
X117135901Y-119197952D01*
X117135901Y-119197952D02*
X117250187Y-119245571D01*
X117250187Y-119245571D02*
X117307330Y-119340809D01*
X117307330Y-119340809D02*
X117307330Y-119864619D01*
X118050186Y-119864619D02*
X117935901Y-119817000D01*
X117935901Y-119817000D02*
X117878758Y-119769380D01*
X117878758Y-119769380D02*
X117821615Y-119674142D01*
X117821615Y-119674142D02*
X117821615Y-119388428D01*
X117821615Y-119388428D02*
X117878758Y-119293190D01*
X117878758Y-119293190D02*
X117935901Y-119245571D01*
X117935901Y-119245571D02*
X118050186Y-119197952D01*
X118050186Y-119197952D02*
X118221615Y-119197952D01*
X118221615Y-119197952D02*
X118335901Y-119245571D01*
X118335901Y-119245571D02*
X118393044Y-119293190D01*
X118393044Y-119293190D02*
X118450186Y-119388428D01*
X118450186Y-119388428D02*
X118450186Y-119674142D01*
X118450186Y-119674142D02*
X118393044Y-119769380D01*
X118393044Y-119769380D02*
X118335901Y-119817000D01*
X118335901Y-119817000D02*
X118221615Y-119864619D01*
X118221615Y-119864619D02*
X118050186Y-119864619D01*
X119135900Y-119864619D02*
X119021615Y-119817000D01*
X119021615Y-119817000D02*
X118964472Y-119769380D01*
X118964472Y-119769380D02*
X118907329Y-119674142D01*
X118907329Y-119674142D02*
X118907329Y-119388428D01*
X118907329Y-119388428D02*
X118964472Y-119293190D01*
X118964472Y-119293190D02*
X119021615Y-119245571D01*
X119021615Y-119245571D02*
X119135900Y-119197952D01*
X119135900Y-119197952D02*
X119307329Y-119197952D01*
X119307329Y-119197952D02*
X119421615Y-119245571D01*
X119421615Y-119245571D02*
X119478758Y-119293190D01*
X119478758Y-119293190D02*
X119535900Y-119388428D01*
X119535900Y-119388428D02*
X119535900Y-119674142D01*
X119535900Y-119674142D02*
X119478758Y-119769380D01*
X119478758Y-119769380D02*
X119421615Y-119817000D01*
X119421615Y-119817000D02*
X119307329Y-119864619D01*
X119307329Y-119864619D02*
X119135900Y-119864619D01*
X119935900Y-119197952D02*
X120564472Y-119197952D01*
X120564472Y-119197952D02*
X119935900Y-119864619D01*
X119935900Y-119864619D02*
X120564472Y-119864619D01*
X120907329Y-119197952D02*
X121193043Y-119864619D01*
X121478758Y-119197952D02*
X121193043Y-119864619D01*
X121193043Y-119864619D02*
X121078758Y-120102714D01*
X121078758Y-120102714D02*
X121021615Y-120150333D01*
X121021615Y-120150333D02*
X120907329Y-120197952D01*
D10*
X167903085Y-119027385D02*
X167903085Y-118350051D01*
X167903085Y-118350051D02*
X168919085Y-119027385D01*
X168919085Y-119027385D02*
X168919085Y-118350051D01*
D13*
X140738095Y-89506819D02*
X141309523Y-89506819D01*
X141023809Y-90506819D02*
X141023809Y-89506819D01*
X141642857Y-90506819D02*
X141642857Y-89506819D01*
X141642857Y-89506819D02*
X142023809Y-89506819D01*
X142023809Y-89506819D02*
X142119047Y-89554438D01*
X142119047Y-89554438D02*
X142166666Y-89602057D01*
X142166666Y-89602057D02*
X142214285Y-89697295D01*
X142214285Y-89697295D02*
X142214285Y-89840152D01*
X142214285Y-89840152D02*
X142166666Y-89935390D01*
X142166666Y-89935390D02*
X142119047Y-89983009D01*
X142119047Y-89983009D02*
X142023809Y-90030628D01*
X142023809Y-90030628D02*
X141642857Y-90030628D01*
X142785714Y-89935390D02*
X142690476Y-89887771D01*
X142690476Y-89887771D02*
X142642857Y-89840152D01*
X142642857Y-89840152D02*
X142595238Y-89744914D01*
X142595238Y-89744914D02*
X142595238Y-89697295D01*
X142595238Y-89697295D02*
X142642857Y-89602057D01*
X142642857Y-89602057D02*
X142690476Y-89554438D01*
X142690476Y-89554438D02*
X142785714Y-89506819D01*
X142785714Y-89506819D02*
X142976190Y-89506819D01*
X142976190Y-89506819D02*
X143071428Y-89554438D01*
X143071428Y-89554438D02*
X143119047Y-89602057D01*
X143119047Y-89602057D02*
X143166666Y-89697295D01*
X143166666Y-89697295D02*
X143166666Y-89744914D01*
X143166666Y-89744914D02*
X143119047Y-89840152D01*
X143119047Y-89840152D02*
X143071428Y-89887771D01*
X143071428Y-89887771D02*
X142976190Y-89935390D01*
X142976190Y-89935390D02*
X142785714Y-89935390D01*
X142785714Y-89935390D02*
X142690476Y-89983009D01*
X142690476Y-89983009D02*
X142642857Y-90030628D01*
X142642857Y-90030628D02*
X142595238Y-90125866D01*
X142595238Y-90125866D02*
X142595238Y-90316342D01*
X142595238Y-90316342D02*
X142642857Y-90411580D01*
X142642857Y-90411580D02*
X142690476Y-90459200D01*
X142690476Y-90459200D02*
X142785714Y-90506819D01*
X142785714Y-90506819D02*
X142976190Y-90506819D01*
X142976190Y-90506819D02*
X143071428Y-90459200D01*
X143071428Y-90459200D02*
X143119047Y-90411580D01*
X143119047Y-90411580D02*
X143166666Y-90316342D01*
X143166666Y-90316342D02*
X143166666Y-90125866D01*
X143166666Y-90125866D02*
X143119047Y-90030628D01*
X143119047Y-90030628D02*
X143071428Y-89983009D01*
X143071428Y-89983009D02*
X142976190Y-89935390D01*
X174245714Y-91702635D02*
X173979047Y-91321682D01*
X173788571Y-91702635D02*
X173788571Y-90902635D01*
X173788571Y-90902635D02*
X174093333Y-90902635D01*
X174093333Y-90902635D02*
X174169523Y-90940730D01*
X174169523Y-90940730D02*
X174207618Y-90978825D01*
X174207618Y-90978825D02*
X174245714Y-91055016D01*
X174245714Y-91055016D02*
X174245714Y-91169301D01*
X174245714Y-91169301D02*
X174207618Y-91245492D01*
X174207618Y-91245492D02*
X174169523Y-91283587D01*
X174169523Y-91283587D02*
X174093333Y-91321682D01*
X174093333Y-91321682D02*
X173788571Y-91321682D01*
X175007618Y-91702635D02*
X174550475Y-91702635D01*
X174779047Y-91702635D02*
X174779047Y-90902635D01*
X174779047Y-90902635D02*
X174702856Y-91016920D01*
X174702856Y-91016920D02*
X174626666Y-91093111D01*
X174626666Y-91093111D02*
X174550475Y-91131206D01*
X175693333Y-90902635D02*
X175540952Y-90902635D01*
X175540952Y-90902635D02*
X175464761Y-90940730D01*
X175464761Y-90940730D02*
X175426666Y-90978825D01*
X175426666Y-90978825D02*
X175350476Y-91093111D01*
X175350476Y-91093111D02*
X175312380Y-91245492D01*
X175312380Y-91245492D02*
X175312380Y-91550254D01*
X175312380Y-91550254D02*
X175350476Y-91626444D01*
X175350476Y-91626444D02*
X175388571Y-91664540D01*
X175388571Y-91664540D02*
X175464761Y-91702635D01*
X175464761Y-91702635D02*
X175617142Y-91702635D01*
X175617142Y-91702635D02*
X175693333Y-91664540D01*
X175693333Y-91664540D02*
X175731428Y-91626444D01*
X175731428Y-91626444D02*
X175769523Y-91550254D01*
X175769523Y-91550254D02*
X175769523Y-91359778D01*
X175769523Y-91359778D02*
X175731428Y-91283587D01*
X175731428Y-91283587D02*
X175693333Y-91245492D01*
X175693333Y-91245492D02*
X175617142Y-91207397D01*
X175617142Y-91207397D02*
X175464761Y-91207397D01*
X175464761Y-91207397D02*
X175388571Y-91245492D01*
X175388571Y-91245492D02*
X175350476Y-91283587D01*
X175350476Y-91283587D02*
X175312380Y-91359778D01*
X142761905Y-87606819D02*
X143333333Y-87606819D01*
X143047619Y-88606819D02*
X143047619Y-87606819D01*
X143666667Y-88606819D02*
X143666667Y-87606819D01*
X143666667Y-87606819D02*
X144047619Y-87606819D01*
X144047619Y-87606819D02*
X144142857Y-87654438D01*
X144142857Y-87654438D02*
X144190476Y-87702057D01*
X144190476Y-87702057D02*
X144238095Y-87797295D01*
X144238095Y-87797295D02*
X144238095Y-87940152D01*
X144238095Y-87940152D02*
X144190476Y-88035390D01*
X144190476Y-88035390D02*
X144142857Y-88083009D01*
X144142857Y-88083009D02*
X144047619Y-88130628D01*
X144047619Y-88130628D02*
X143666667Y-88130628D01*
X145190476Y-88606819D02*
X144619048Y-88606819D01*
X144904762Y-88606819D02*
X144904762Y-87606819D01*
X144904762Y-87606819D02*
X144809524Y-87749676D01*
X144809524Y-87749676D02*
X144714286Y-87844914D01*
X144714286Y-87844914D02*
X144619048Y-87892533D01*
X146047619Y-87940152D02*
X146047619Y-88606819D01*
X145809524Y-87559200D02*
X145571429Y-88273485D01*
X145571429Y-88273485D02*
X146190476Y-88273485D01*
X122990476Y-89312295D02*
X123447619Y-89312295D01*
X123219047Y-90112295D02*
X123219047Y-89312295D01*
X123714286Y-90112295D02*
X123714286Y-89312295D01*
X123714286Y-89312295D02*
X124019048Y-89312295D01*
X124019048Y-89312295D02*
X124095238Y-89350390D01*
X124095238Y-89350390D02*
X124133333Y-89388485D01*
X124133333Y-89388485D02*
X124171429Y-89464676D01*
X124171429Y-89464676D02*
X124171429Y-89578961D01*
X124171429Y-89578961D02*
X124133333Y-89655152D01*
X124133333Y-89655152D02*
X124095238Y-89693247D01*
X124095238Y-89693247D02*
X124019048Y-89731342D01*
X124019048Y-89731342D02*
X123714286Y-89731342D01*
X124476190Y-89388485D02*
X124514286Y-89350390D01*
X124514286Y-89350390D02*
X124590476Y-89312295D01*
X124590476Y-89312295D02*
X124780952Y-89312295D01*
X124780952Y-89312295D02*
X124857143Y-89350390D01*
X124857143Y-89350390D02*
X124895238Y-89388485D01*
X124895238Y-89388485D02*
X124933333Y-89464676D01*
X124933333Y-89464676D02*
X124933333Y-89540866D01*
X124933333Y-89540866D02*
X124895238Y-89655152D01*
X124895238Y-89655152D02*
X124438095Y-90112295D01*
X124438095Y-90112295D02*
X124933333Y-90112295D01*
X126166667Y-91786104D02*
X126128571Y-91824200D01*
X126128571Y-91824200D02*
X126014286Y-91862295D01*
X126014286Y-91862295D02*
X125938095Y-91862295D01*
X125938095Y-91862295D02*
X125823809Y-91824200D01*
X125823809Y-91824200D02*
X125747619Y-91748009D01*
X125747619Y-91748009D02*
X125709524Y-91671819D01*
X125709524Y-91671819D02*
X125671428Y-91519438D01*
X125671428Y-91519438D02*
X125671428Y-91405152D01*
X125671428Y-91405152D02*
X125709524Y-91252771D01*
X125709524Y-91252771D02*
X125747619Y-91176580D01*
X125747619Y-91176580D02*
X125823809Y-91100390D01*
X125823809Y-91100390D02*
X125938095Y-91062295D01*
X125938095Y-91062295D02*
X126014286Y-91062295D01*
X126014286Y-91062295D02*
X126128571Y-91100390D01*
X126128571Y-91100390D02*
X126166667Y-91138485D01*
X126852381Y-91328961D02*
X126852381Y-91862295D01*
X126661905Y-91024200D02*
X126471428Y-91595628D01*
X126471428Y-91595628D02*
X126966667Y-91595628D01*
X182290476Y-91062295D02*
X182290476Y-91709914D01*
X182290476Y-91709914D02*
X182328571Y-91786104D01*
X182328571Y-91786104D02*
X182366666Y-91824200D01*
X182366666Y-91824200D02*
X182442857Y-91862295D01*
X182442857Y-91862295D02*
X182595238Y-91862295D01*
X182595238Y-91862295D02*
X182671428Y-91824200D01*
X182671428Y-91824200D02*
X182709523Y-91786104D01*
X182709523Y-91786104D02*
X182747619Y-91709914D01*
X182747619Y-91709914D02*
X182747619Y-91062295D01*
X183509523Y-91062295D02*
X183128571Y-91062295D01*
X183128571Y-91062295D02*
X183090475Y-91443247D01*
X183090475Y-91443247D02*
X183128571Y-91405152D01*
X183128571Y-91405152D02*
X183204761Y-91367057D01*
X183204761Y-91367057D02*
X183395237Y-91367057D01*
X183395237Y-91367057D02*
X183471428Y-91405152D01*
X183471428Y-91405152D02*
X183509523Y-91443247D01*
X183509523Y-91443247D02*
X183547618Y-91519438D01*
X183547618Y-91519438D02*
X183547618Y-91709914D01*
X183547618Y-91709914D02*
X183509523Y-91786104D01*
X183509523Y-91786104D02*
X183471428Y-91824200D01*
X183471428Y-91824200D02*
X183395237Y-91862295D01*
X183395237Y-91862295D02*
X183204761Y-91862295D01*
X183204761Y-91862295D02*
X183128571Y-91824200D01*
X183128571Y-91824200D02*
X183090475Y-91786104D01*
X138738095Y-114954819D02*
X139309523Y-114954819D01*
X139023809Y-115954819D02*
X139023809Y-114954819D01*
X139642857Y-115954819D02*
X139642857Y-114954819D01*
X139642857Y-114954819D02*
X140023809Y-114954819D01*
X140023809Y-114954819D02*
X140119047Y-115002438D01*
X140119047Y-115002438D02*
X140166666Y-115050057D01*
X140166666Y-115050057D02*
X140214285Y-115145295D01*
X140214285Y-115145295D02*
X140214285Y-115288152D01*
X140214285Y-115288152D02*
X140166666Y-115383390D01*
X140166666Y-115383390D02*
X140119047Y-115431009D01*
X140119047Y-115431009D02*
X140023809Y-115478628D01*
X140023809Y-115478628D02*
X139642857Y-115478628D01*
X141071428Y-114954819D02*
X140880952Y-114954819D01*
X140880952Y-114954819D02*
X140785714Y-115002438D01*
X140785714Y-115002438D02*
X140738095Y-115050057D01*
X140738095Y-115050057D02*
X140642857Y-115192914D01*
X140642857Y-115192914D02*
X140595238Y-115383390D01*
X140595238Y-115383390D02*
X140595238Y-115764342D01*
X140595238Y-115764342D02*
X140642857Y-115859580D01*
X140642857Y-115859580D02*
X140690476Y-115907200D01*
X140690476Y-115907200D02*
X140785714Y-115954819D01*
X140785714Y-115954819D02*
X140976190Y-115954819D01*
X140976190Y-115954819D02*
X141071428Y-115907200D01*
X141071428Y-115907200D02*
X141119047Y-115859580D01*
X141119047Y-115859580D02*
X141166666Y-115764342D01*
X141166666Y-115764342D02*
X141166666Y-115526247D01*
X141166666Y-115526247D02*
X141119047Y-115431009D01*
X141119047Y-115431009D02*
X141071428Y-115383390D01*
X141071428Y-115383390D02*
X140976190Y-115335771D01*
X140976190Y-115335771D02*
X140785714Y-115335771D01*
X140785714Y-115335771D02*
X140690476Y-115383390D01*
X140690476Y-115383390D02*
X140642857Y-115431009D01*
X140642857Y-115431009D02*
X140595238Y-115526247D01*
X141966667Y-96892295D02*
X141700000Y-96511342D01*
X141509524Y-96892295D02*
X141509524Y-96092295D01*
X141509524Y-96092295D02*
X141814286Y-96092295D01*
X141814286Y-96092295D02*
X141890476Y-96130390D01*
X141890476Y-96130390D02*
X141928571Y-96168485D01*
X141928571Y-96168485D02*
X141966667Y-96244676D01*
X141966667Y-96244676D02*
X141966667Y-96358961D01*
X141966667Y-96358961D02*
X141928571Y-96435152D01*
X141928571Y-96435152D02*
X141890476Y-96473247D01*
X141890476Y-96473247D02*
X141814286Y-96511342D01*
X141814286Y-96511342D02*
X141509524Y-96511342D01*
X142233333Y-96092295D02*
X142766667Y-96092295D01*
X142766667Y-96092295D02*
X142423809Y-96892295D01*
X188112295Y-96014285D02*
X187731342Y-96280952D01*
X188112295Y-96471428D02*
X187312295Y-96471428D01*
X187312295Y-96471428D02*
X187312295Y-96166666D01*
X187312295Y-96166666D02*
X187350390Y-96090476D01*
X187350390Y-96090476D02*
X187388485Y-96052381D01*
X187388485Y-96052381D02*
X187464676Y-96014285D01*
X187464676Y-96014285D02*
X187578961Y-96014285D01*
X187578961Y-96014285D02*
X187655152Y-96052381D01*
X187655152Y-96052381D02*
X187693247Y-96090476D01*
X187693247Y-96090476D02*
X187731342Y-96166666D01*
X187731342Y-96166666D02*
X187731342Y-96471428D01*
X187388485Y-95709524D02*
X187350390Y-95671428D01*
X187350390Y-95671428D02*
X187312295Y-95595238D01*
X187312295Y-95595238D02*
X187312295Y-95404762D01*
X187312295Y-95404762D02*
X187350390Y-95328571D01*
X187350390Y-95328571D02*
X187388485Y-95290476D01*
X187388485Y-95290476D02*
X187464676Y-95252381D01*
X187464676Y-95252381D02*
X187540866Y-95252381D01*
X187540866Y-95252381D02*
X187655152Y-95290476D01*
X187655152Y-95290476D02*
X188112295Y-95747619D01*
X188112295Y-95747619D02*
X188112295Y-95252381D01*
X187312295Y-94566666D02*
X187312295Y-94719047D01*
X187312295Y-94719047D02*
X187350390Y-94795238D01*
X187350390Y-94795238D02*
X187388485Y-94833333D01*
X187388485Y-94833333D02*
X187502771Y-94909523D01*
X187502771Y-94909523D02*
X187655152Y-94947619D01*
X187655152Y-94947619D02*
X187959914Y-94947619D01*
X187959914Y-94947619D02*
X188036104Y-94909523D01*
X188036104Y-94909523D02*
X188074200Y-94871428D01*
X188074200Y-94871428D02*
X188112295Y-94795238D01*
X188112295Y-94795238D02*
X188112295Y-94642857D01*
X188112295Y-94642857D02*
X188074200Y-94566666D01*
X188074200Y-94566666D02*
X188036104Y-94528571D01*
X188036104Y-94528571D02*
X187959914Y-94490476D01*
X187959914Y-94490476D02*
X187769438Y-94490476D01*
X187769438Y-94490476D02*
X187693247Y-94528571D01*
X187693247Y-94528571D02*
X187655152Y-94566666D01*
X187655152Y-94566666D02*
X187617057Y-94642857D01*
X187617057Y-94642857D02*
X187617057Y-94795238D01*
X187617057Y-94795238D02*
X187655152Y-94871428D01*
X187655152Y-94871428D02*
X187693247Y-94909523D01*
X187693247Y-94909523D02*
X187769438Y-94947619D01*
X129985714Y-114886104D02*
X129947618Y-114924200D01*
X129947618Y-114924200D02*
X129833333Y-114962295D01*
X129833333Y-114962295D02*
X129757142Y-114962295D01*
X129757142Y-114962295D02*
X129642856Y-114924200D01*
X129642856Y-114924200D02*
X129566666Y-114848009D01*
X129566666Y-114848009D02*
X129528571Y-114771819D01*
X129528571Y-114771819D02*
X129490475Y-114619438D01*
X129490475Y-114619438D02*
X129490475Y-114505152D01*
X129490475Y-114505152D02*
X129528571Y-114352771D01*
X129528571Y-114352771D02*
X129566666Y-114276580D01*
X129566666Y-114276580D02*
X129642856Y-114200390D01*
X129642856Y-114200390D02*
X129757142Y-114162295D01*
X129757142Y-114162295D02*
X129833333Y-114162295D01*
X129833333Y-114162295D02*
X129947618Y-114200390D01*
X129947618Y-114200390D02*
X129985714Y-114238485D01*
X130747618Y-114962295D02*
X130290475Y-114962295D01*
X130519047Y-114962295D02*
X130519047Y-114162295D01*
X130519047Y-114162295D02*
X130442856Y-114276580D01*
X130442856Y-114276580D02*
X130366666Y-114352771D01*
X130366666Y-114352771D02*
X130290475Y-114390866D01*
X131014285Y-114162295D02*
X131509523Y-114162295D01*
X131509523Y-114162295D02*
X131242857Y-114467057D01*
X131242857Y-114467057D02*
X131357142Y-114467057D01*
X131357142Y-114467057D02*
X131433333Y-114505152D01*
X131433333Y-114505152D02*
X131471428Y-114543247D01*
X131471428Y-114543247D02*
X131509523Y-114619438D01*
X131509523Y-114619438D02*
X131509523Y-114809914D01*
X131509523Y-114809914D02*
X131471428Y-114886104D01*
X131471428Y-114886104D02*
X131433333Y-114924200D01*
X131433333Y-114924200D02*
X131357142Y-114962295D01*
X131357142Y-114962295D02*
X131128571Y-114962295D01*
X131128571Y-114962295D02*
X131052380Y-114924200D01*
X131052380Y-114924200D02*
X131014285Y-114886104D01*
X141966667Y-99862295D02*
X141700000Y-99481342D01*
X141509524Y-99862295D02*
X141509524Y-99062295D01*
X141509524Y-99062295D02*
X141814286Y-99062295D01*
X141814286Y-99062295D02*
X141890476Y-99100390D01*
X141890476Y-99100390D02*
X141928571Y-99138485D01*
X141928571Y-99138485D02*
X141966667Y-99214676D01*
X141966667Y-99214676D02*
X141966667Y-99328961D01*
X141966667Y-99328961D02*
X141928571Y-99405152D01*
X141928571Y-99405152D02*
X141890476Y-99443247D01*
X141890476Y-99443247D02*
X141814286Y-99481342D01*
X141814286Y-99481342D02*
X141509524Y-99481342D01*
X142347619Y-99862295D02*
X142500000Y-99862295D01*
X142500000Y-99862295D02*
X142576190Y-99824200D01*
X142576190Y-99824200D02*
X142614286Y-99786104D01*
X142614286Y-99786104D02*
X142690476Y-99671819D01*
X142690476Y-99671819D02*
X142728571Y-99519438D01*
X142728571Y-99519438D02*
X142728571Y-99214676D01*
X142728571Y-99214676D02*
X142690476Y-99138485D01*
X142690476Y-99138485D02*
X142652381Y-99100390D01*
X142652381Y-99100390D02*
X142576190Y-99062295D01*
X142576190Y-99062295D02*
X142423809Y-99062295D01*
X142423809Y-99062295D02*
X142347619Y-99100390D01*
X142347619Y-99100390D02*
X142309524Y-99138485D01*
X142309524Y-99138485D02*
X142271428Y-99214676D01*
X142271428Y-99214676D02*
X142271428Y-99405152D01*
X142271428Y-99405152D02*
X142309524Y-99481342D01*
X142309524Y-99481342D02*
X142347619Y-99519438D01*
X142347619Y-99519438D02*
X142423809Y-99557533D01*
X142423809Y-99557533D02*
X142576190Y-99557533D01*
X142576190Y-99557533D02*
X142652381Y-99519438D01*
X142652381Y-99519438D02*
X142690476Y-99481342D01*
X142690476Y-99481342D02*
X142728571Y-99405152D01*
X145285714Y-114386104D02*
X145247618Y-114424200D01*
X145247618Y-114424200D02*
X145133333Y-114462295D01*
X145133333Y-114462295D02*
X145057142Y-114462295D01*
X145057142Y-114462295D02*
X144942856Y-114424200D01*
X144942856Y-114424200D02*
X144866666Y-114348009D01*
X144866666Y-114348009D02*
X144828571Y-114271819D01*
X144828571Y-114271819D02*
X144790475Y-114119438D01*
X144790475Y-114119438D02*
X144790475Y-114005152D01*
X144790475Y-114005152D02*
X144828571Y-113852771D01*
X144828571Y-113852771D02*
X144866666Y-113776580D01*
X144866666Y-113776580D02*
X144942856Y-113700390D01*
X144942856Y-113700390D02*
X145057142Y-113662295D01*
X145057142Y-113662295D02*
X145133333Y-113662295D01*
X145133333Y-113662295D02*
X145247618Y-113700390D01*
X145247618Y-113700390D02*
X145285714Y-113738485D01*
X146047618Y-114462295D02*
X145590475Y-114462295D01*
X145819047Y-114462295D02*
X145819047Y-113662295D01*
X145819047Y-113662295D02*
X145742856Y-113776580D01*
X145742856Y-113776580D02*
X145666666Y-113852771D01*
X145666666Y-113852771D02*
X145590475Y-113890866D01*
X146733333Y-113662295D02*
X146580952Y-113662295D01*
X146580952Y-113662295D02*
X146504761Y-113700390D01*
X146504761Y-113700390D02*
X146466666Y-113738485D01*
X146466666Y-113738485D02*
X146390476Y-113852771D01*
X146390476Y-113852771D02*
X146352380Y-114005152D01*
X146352380Y-114005152D02*
X146352380Y-114309914D01*
X146352380Y-114309914D02*
X146390476Y-114386104D01*
X146390476Y-114386104D02*
X146428571Y-114424200D01*
X146428571Y-114424200D02*
X146504761Y-114462295D01*
X146504761Y-114462295D02*
X146657142Y-114462295D01*
X146657142Y-114462295D02*
X146733333Y-114424200D01*
X146733333Y-114424200D02*
X146771428Y-114386104D01*
X146771428Y-114386104D02*
X146809523Y-114309914D01*
X146809523Y-114309914D02*
X146809523Y-114119438D01*
X146809523Y-114119438D02*
X146771428Y-114043247D01*
X146771428Y-114043247D02*
X146733333Y-114005152D01*
X146733333Y-114005152D02*
X146657142Y-113967057D01*
X146657142Y-113967057D02*
X146504761Y-113967057D01*
X146504761Y-113967057D02*
X146428571Y-114005152D01*
X146428571Y-114005152D02*
X146390476Y-114043247D01*
X146390476Y-114043247D02*
X146352380Y-114119438D01*
X186240476Y-113612295D02*
X186240476Y-112812295D01*
X186240476Y-113193247D02*
X186697619Y-113193247D01*
X186697619Y-113612295D02*
X186697619Y-112812295D01*
X187421428Y-113078961D02*
X187421428Y-113612295D01*
X187230952Y-112774200D02*
X187040475Y-113345628D01*
X187040475Y-113345628D02*
X187535714Y-113345628D01*
X151761905Y-86756819D02*
X152333333Y-86756819D01*
X152047619Y-87756819D02*
X152047619Y-86756819D01*
X152666667Y-87756819D02*
X152666667Y-86756819D01*
X152666667Y-86756819D02*
X153047619Y-86756819D01*
X153047619Y-86756819D02*
X153142857Y-86804438D01*
X153142857Y-86804438D02*
X153190476Y-86852057D01*
X153190476Y-86852057D02*
X153238095Y-86947295D01*
X153238095Y-86947295D02*
X153238095Y-87090152D01*
X153238095Y-87090152D02*
X153190476Y-87185390D01*
X153190476Y-87185390D02*
X153142857Y-87233009D01*
X153142857Y-87233009D02*
X153047619Y-87280628D01*
X153047619Y-87280628D02*
X152666667Y-87280628D01*
X154190476Y-87756819D02*
X153619048Y-87756819D01*
X153904762Y-87756819D02*
X153904762Y-86756819D01*
X153904762Y-86756819D02*
X153809524Y-86899676D01*
X153809524Y-86899676D02*
X153714286Y-86994914D01*
X153714286Y-86994914D02*
X153619048Y-87042533D01*
X155095238Y-86756819D02*
X154619048Y-86756819D01*
X154619048Y-86756819D02*
X154571429Y-87233009D01*
X154571429Y-87233009D02*
X154619048Y-87185390D01*
X154619048Y-87185390D02*
X154714286Y-87137771D01*
X154714286Y-87137771D02*
X154952381Y-87137771D01*
X154952381Y-87137771D02*
X155047619Y-87185390D01*
X155047619Y-87185390D02*
X155095238Y-87233009D01*
X155095238Y-87233009D02*
X155142857Y-87328247D01*
X155142857Y-87328247D02*
X155142857Y-87566342D01*
X155142857Y-87566342D02*
X155095238Y-87661580D01*
X155095238Y-87661580D02*
X155047619Y-87709200D01*
X155047619Y-87709200D02*
X154952381Y-87756819D01*
X154952381Y-87756819D02*
X154714286Y-87756819D01*
X154714286Y-87756819D02*
X154619048Y-87709200D01*
X154619048Y-87709200D02*
X154571429Y-87661580D01*
X141966667Y-98362295D02*
X141700000Y-97981342D01*
X141509524Y-98362295D02*
X141509524Y-97562295D01*
X141509524Y-97562295D02*
X141814286Y-97562295D01*
X141814286Y-97562295D02*
X141890476Y-97600390D01*
X141890476Y-97600390D02*
X141928571Y-97638485D01*
X141928571Y-97638485D02*
X141966667Y-97714676D01*
X141966667Y-97714676D02*
X141966667Y-97828961D01*
X141966667Y-97828961D02*
X141928571Y-97905152D01*
X141928571Y-97905152D02*
X141890476Y-97943247D01*
X141890476Y-97943247D02*
X141814286Y-97981342D01*
X141814286Y-97981342D02*
X141509524Y-97981342D01*
X142423809Y-97905152D02*
X142347619Y-97867057D01*
X142347619Y-97867057D02*
X142309524Y-97828961D01*
X142309524Y-97828961D02*
X142271428Y-97752771D01*
X142271428Y-97752771D02*
X142271428Y-97714676D01*
X142271428Y-97714676D02*
X142309524Y-97638485D01*
X142309524Y-97638485D02*
X142347619Y-97600390D01*
X142347619Y-97600390D02*
X142423809Y-97562295D01*
X142423809Y-97562295D02*
X142576190Y-97562295D01*
X142576190Y-97562295D02*
X142652381Y-97600390D01*
X142652381Y-97600390D02*
X142690476Y-97638485D01*
X142690476Y-97638485D02*
X142728571Y-97714676D01*
X142728571Y-97714676D02*
X142728571Y-97752771D01*
X142728571Y-97752771D02*
X142690476Y-97828961D01*
X142690476Y-97828961D02*
X142652381Y-97867057D01*
X142652381Y-97867057D02*
X142576190Y-97905152D01*
X142576190Y-97905152D02*
X142423809Y-97905152D01*
X142423809Y-97905152D02*
X142347619Y-97943247D01*
X142347619Y-97943247D02*
X142309524Y-97981342D01*
X142309524Y-97981342D02*
X142271428Y-98057533D01*
X142271428Y-98057533D02*
X142271428Y-98209914D01*
X142271428Y-98209914D02*
X142309524Y-98286104D01*
X142309524Y-98286104D02*
X142347619Y-98324200D01*
X142347619Y-98324200D02*
X142423809Y-98362295D01*
X142423809Y-98362295D02*
X142576190Y-98362295D01*
X142576190Y-98362295D02*
X142652381Y-98324200D01*
X142652381Y-98324200D02*
X142690476Y-98286104D01*
X142690476Y-98286104D02*
X142728571Y-98209914D01*
X142728571Y-98209914D02*
X142728571Y-98057533D01*
X142728571Y-98057533D02*
X142690476Y-97981342D01*
X142690476Y-97981342D02*
X142652381Y-97943247D01*
X142652381Y-97943247D02*
X142576190Y-97905152D01*
X186112295Y-96114285D02*
X185731342Y-96380952D01*
X186112295Y-96571428D02*
X185312295Y-96571428D01*
X185312295Y-96571428D02*
X185312295Y-96266666D01*
X185312295Y-96266666D02*
X185350390Y-96190476D01*
X185350390Y-96190476D02*
X185388485Y-96152381D01*
X185388485Y-96152381D02*
X185464676Y-96114285D01*
X185464676Y-96114285D02*
X185578961Y-96114285D01*
X185578961Y-96114285D02*
X185655152Y-96152381D01*
X185655152Y-96152381D02*
X185693247Y-96190476D01*
X185693247Y-96190476D02*
X185731342Y-96266666D01*
X185731342Y-96266666D02*
X185731342Y-96571428D01*
X185388485Y-95809524D02*
X185350390Y-95771428D01*
X185350390Y-95771428D02*
X185312295Y-95695238D01*
X185312295Y-95695238D02*
X185312295Y-95504762D01*
X185312295Y-95504762D02*
X185350390Y-95428571D01*
X185350390Y-95428571D02*
X185388485Y-95390476D01*
X185388485Y-95390476D02*
X185464676Y-95352381D01*
X185464676Y-95352381D02*
X185540866Y-95352381D01*
X185540866Y-95352381D02*
X185655152Y-95390476D01*
X185655152Y-95390476D02*
X186112295Y-95847619D01*
X186112295Y-95847619D02*
X186112295Y-95352381D01*
X185312295Y-95085714D02*
X185312295Y-94552380D01*
X185312295Y-94552380D02*
X186112295Y-94895238D01*
X111990476Y-89862295D02*
X111990476Y-89062295D01*
X111990476Y-89443247D02*
X112447619Y-89443247D01*
X112447619Y-89862295D02*
X112447619Y-89062295D01*
X113247618Y-89862295D02*
X112790475Y-89862295D01*
X113019047Y-89862295D02*
X113019047Y-89062295D01*
X113019047Y-89062295D02*
X112942856Y-89176580D01*
X112942856Y-89176580D02*
X112866666Y-89252771D01*
X112866666Y-89252771D02*
X112790475Y-89290866D01*
X174285714Y-92862295D02*
X174019047Y-92481342D01*
X173828571Y-92862295D02*
X173828571Y-92062295D01*
X173828571Y-92062295D02*
X174133333Y-92062295D01*
X174133333Y-92062295D02*
X174209523Y-92100390D01*
X174209523Y-92100390D02*
X174247618Y-92138485D01*
X174247618Y-92138485D02*
X174285714Y-92214676D01*
X174285714Y-92214676D02*
X174285714Y-92328961D01*
X174285714Y-92328961D02*
X174247618Y-92405152D01*
X174247618Y-92405152D02*
X174209523Y-92443247D01*
X174209523Y-92443247D02*
X174133333Y-92481342D01*
X174133333Y-92481342D02*
X173828571Y-92481342D01*
X175047618Y-92862295D02*
X174590475Y-92862295D01*
X174819047Y-92862295D02*
X174819047Y-92062295D01*
X174819047Y-92062295D02*
X174742856Y-92176580D01*
X174742856Y-92176580D02*
X174666666Y-92252771D01*
X174666666Y-92252771D02*
X174590475Y-92290866D01*
X175314285Y-92062295D02*
X175847619Y-92062295D01*
X175847619Y-92062295D02*
X175504761Y-92862295D01*
X152665714Y-108962295D02*
X152399047Y-108581342D01*
X152208571Y-108962295D02*
X152208571Y-108162295D01*
X152208571Y-108162295D02*
X152513333Y-108162295D01*
X152513333Y-108162295D02*
X152589523Y-108200390D01*
X152589523Y-108200390D02*
X152627618Y-108238485D01*
X152627618Y-108238485D02*
X152665714Y-108314676D01*
X152665714Y-108314676D02*
X152665714Y-108428961D01*
X152665714Y-108428961D02*
X152627618Y-108505152D01*
X152627618Y-108505152D02*
X152589523Y-108543247D01*
X152589523Y-108543247D02*
X152513333Y-108581342D01*
X152513333Y-108581342D02*
X152208571Y-108581342D01*
X153427618Y-108962295D02*
X152970475Y-108962295D01*
X153199047Y-108962295D02*
X153199047Y-108162295D01*
X153199047Y-108162295D02*
X153122856Y-108276580D01*
X153122856Y-108276580D02*
X153046666Y-108352771D01*
X153046666Y-108352771D02*
X152970475Y-108390866D01*
X153732380Y-108238485D02*
X153770476Y-108200390D01*
X153770476Y-108200390D02*
X153846666Y-108162295D01*
X153846666Y-108162295D02*
X154037142Y-108162295D01*
X154037142Y-108162295D02*
X154113333Y-108200390D01*
X154113333Y-108200390D02*
X154151428Y-108238485D01*
X154151428Y-108238485D02*
X154189523Y-108314676D01*
X154189523Y-108314676D02*
X154189523Y-108390866D01*
X154189523Y-108390866D02*
X154151428Y-108505152D01*
X154151428Y-108505152D02*
X153694285Y-108962295D01*
X153694285Y-108962295D02*
X154189523Y-108962295D01*
X136098095Y-85854819D02*
X136669523Y-85854819D01*
X136383809Y-86854819D02*
X136383809Y-85854819D01*
X137002857Y-86854819D02*
X137002857Y-85854819D01*
X137002857Y-85854819D02*
X137383809Y-85854819D01*
X137383809Y-85854819D02*
X137479047Y-85902438D01*
X137479047Y-85902438D02*
X137526666Y-85950057D01*
X137526666Y-85950057D02*
X137574285Y-86045295D01*
X137574285Y-86045295D02*
X137574285Y-86188152D01*
X137574285Y-86188152D02*
X137526666Y-86283390D01*
X137526666Y-86283390D02*
X137479047Y-86331009D01*
X137479047Y-86331009D02*
X137383809Y-86378628D01*
X137383809Y-86378628D02*
X137002857Y-86378628D01*
X138431428Y-86188152D02*
X138431428Y-86854819D01*
X138193333Y-85807200D02*
X137955238Y-86521485D01*
X137955238Y-86521485D02*
X138574285Y-86521485D01*
X188036104Y-99014285D02*
X188074200Y-99052381D01*
X188074200Y-99052381D02*
X188112295Y-99166666D01*
X188112295Y-99166666D02*
X188112295Y-99242857D01*
X188112295Y-99242857D02*
X188074200Y-99357143D01*
X188074200Y-99357143D02*
X187998009Y-99433333D01*
X187998009Y-99433333D02*
X187921819Y-99471428D01*
X187921819Y-99471428D02*
X187769438Y-99509524D01*
X187769438Y-99509524D02*
X187655152Y-99509524D01*
X187655152Y-99509524D02*
X187502771Y-99471428D01*
X187502771Y-99471428D02*
X187426580Y-99433333D01*
X187426580Y-99433333D02*
X187350390Y-99357143D01*
X187350390Y-99357143D02*
X187312295Y-99242857D01*
X187312295Y-99242857D02*
X187312295Y-99166666D01*
X187312295Y-99166666D02*
X187350390Y-99052381D01*
X187350390Y-99052381D02*
X187388485Y-99014285D01*
X187578961Y-98328571D02*
X188112295Y-98328571D01*
X187274200Y-98519047D02*
X187845628Y-98709524D01*
X187845628Y-98709524D02*
X187845628Y-98214285D01*
X188112295Y-97871428D02*
X188112295Y-97719047D01*
X188112295Y-97719047D02*
X188074200Y-97642857D01*
X188074200Y-97642857D02*
X188036104Y-97604761D01*
X188036104Y-97604761D02*
X187921819Y-97528571D01*
X187921819Y-97528571D02*
X187769438Y-97490476D01*
X187769438Y-97490476D02*
X187464676Y-97490476D01*
X187464676Y-97490476D02*
X187388485Y-97528571D01*
X187388485Y-97528571D02*
X187350390Y-97566666D01*
X187350390Y-97566666D02*
X187312295Y-97642857D01*
X187312295Y-97642857D02*
X187312295Y-97795238D01*
X187312295Y-97795238D02*
X187350390Y-97871428D01*
X187350390Y-97871428D02*
X187388485Y-97909523D01*
X187388485Y-97909523D02*
X187464676Y-97947619D01*
X187464676Y-97947619D02*
X187655152Y-97947619D01*
X187655152Y-97947619D02*
X187731342Y-97909523D01*
X187731342Y-97909523D02*
X187769438Y-97871428D01*
X187769438Y-97871428D02*
X187807533Y-97795238D01*
X187807533Y-97795238D02*
X187807533Y-97642857D01*
X187807533Y-97642857D02*
X187769438Y-97566666D01*
X187769438Y-97566666D02*
X187731342Y-97528571D01*
X187731342Y-97528571D02*
X187655152Y-97490476D01*
X133238095Y-85854819D02*
X133809523Y-85854819D01*
X133523809Y-86854819D02*
X133523809Y-85854819D01*
X134142857Y-86854819D02*
X134142857Y-85854819D01*
X134142857Y-85854819D02*
X134523809Y-85854819D01*
X134523809Y-85854819D02*
X134619047Y-85902438D01*
X134619047Y-85902438D02*
X134666666Y-85950057D01*
X134666666Y-85950057D02*
X134714285Y-86045295D01*
X134714285Y-86045295D02*
X134714285Y-86188152D01*
X134714285Y-86188152D02*
X134666666Y-86283390D01*
X134666666Y-86283390D02*
X134619047Y-86331009D01*
X134619047Y-86331009D02*
X134523809Y-86378628D01*
X134523809Y-86378628D02*
X134142857Y-86378628D01*
X135047619Y-85854819D02*
X135666666Y-85854819D01*
X135666666Y-85854819D02*
X135333333Y-86235771D01*
X135333333Y-86235771D02*
X135476190Y-86235771D01*
X135476190Y-86235771D02*
X135571428Y-86283390D01*
X135571428Y-86283390D02*
X135619047Y-86331009D01*
X135619047Y-86331009D02*
X135666666Y-86426247D01*
X135666666Y-86426247D02*
X135666666Y-86664342D01*
X135666666Y-86664342D02*
X135619047Y-86759580D01*
X135619047Y-86759580D02*
X135571428Y-86807200D01*
X135571428Y-86807200D02*
X135476190Y-86854819D01*
X135476190Y-86854819D02*
X135190476Y-86854819D01*
X135190476Y-86854819D02*
X135095238Y-86807200D01*
X135095238Y-86807200D02*
X135047619Y-86759580D01*
X154785714Y-112286104D02*
X154747618Y-112324200D01*
X154747618Y-112324200D02*
X154633333Y-112362295D01*
X154633333Y-112362295D02*
X154557142Y-112362295D01*
X154557142Y-112362295D02*
X154442856Y-112324200D01*
X154442856Y-112324200D02*
X154366666Y-112248009D01*
X154366666Y-112248009D02*
X154328571Y-112171819D01*
X154328571Y-112171819D02*
X154290475Y-112019438D01*
X154290475Y-112019438D02*
X154290475Y-111905152D01*
X154290475Y-111905152D02*
X154328571Y-111752771D01*
X154328571Y-111752771D02*
X154366666Y-111676580D01*
X154366666Y-111676580D02*
X154442856Y-111600390D01*
X154442856Y-111600390D02*
X154557142Y-111562295D01*
X154557142Y-111562295D02*
X154633333Y-111562295D01*
X154633333Y-111562295D02*
X154747618Y-111600390D01*
X154747618Y-111600390D02*
X154785714Y-111638485D01*
X155090475Y-111638485D02*
X155128571Y-111600390D01*
X155128571Y-111600390D02*
X155204761Y-111562295D01*
X155204761Y-111562295D02*
X155395237Y-111562295D01*
X155395237Y-111562295D02*
X155471428Y-111600390D01*
X155471428Y-111600390D02*
X155509523Y-111638485D01*
X155509523Y-111638485D02*
X155547618Y-111714676D01*
X155547618Y-111714676D02*
X155547618Y-111790866D01*
X155547618Y-111790866D02*
X155509523Y-111905152D01*
X155509523Y-111905152D02*
X155052380Y-112362295D01*
X155052380Y-112362295D02*
X155547618Y-112362295D01*
X155814285Y-111562295D02*
X156347619Y-111562295D01*
X156347619Y-111562295D02*
X156004761Y-112362295D01*
X180386104Y-103314285D02*
X180424200Y-103352381D01*
X180424200Y-103352381D02*
X180462295Y-103466666D01*
X180462295Y-103466666D02*
X180462295Y-103542857D01*
X180462295Y-103542857D02*
X180424200Y-103657143D01*
X180424200Y-103657143D02*
X180348009Y-103733333D01*
X180348009Y-103733333D02*
X180271819Y-103771428D01*
X180271819Y-103771428D02*
X180119438Y-103809524D01*
X180119438Y-103809524D02*
X180005152Y-103809524D01*
X180005152Y-103809524D02*
X179852771Y-103771428D01*
X179852771Y-103771428D02*
X179776580Y-103733333D01*
X179776580Y-103733333D02*
X179700390Y-103657143D01*
X179700390Y-103657143D02*
X179662295Y-103542857D01*
X179662295Y-103542857D02*
X179662295Y-103466666D01*
X179662295Y-103466666D02*
X179700390Y-103352381D01*
X179700390Y-103352381D02*
X179738485Y-103314285D01*
X179928961Y-102628571D02*
X180462295Y-102628571D01*
X179624200Y-102819047D02*
X180195628Y-103009524D01*
X180195628Y-103009524D02*
X180195628Y-102514285D01*
X179662295Y-102285714D02*
X179662295Y-101790476D01*
X179662295Y-101790476D02*
X179967057Y-102057142D01*
X179967057Y-102057142D02*
X179967057Y-101942857D01*
X179967057Y-101942857D02*
X180005152Y-101866666D01*
X180005152Y-101866666D02*
X180043247Y-101828571D01*
X180043247Y-101828571D02*
X180119438Y-101790476D01*
X180119438Y-101790476D02*
X180309914Y-101790476D01*
X180309914Y-101790476D02*
X180386104Y-101828571D01*
X180386104Y-101828571D02*
X180424200Y-101866666D01*
X180424200Y-101866666D02*
X180462295Y-101942857D01*
X180462295Y-101942857D02*
X180462295Y-102171428D01*
X180462295Y-102171428D02*
X180424200Y-102247619D01*
X180424200Y-102247619D02*
X180386104Y-102285714D01*
X130136104Y-89133332D02*
X130174200Y-89171428D01*
X130174200Y-89171428D02*
X130212295Y-89285713D01*
X130212295Y-89285713D02*
X130212295Y-89361904D01*
X130212295Y-89361904D02*
X130174200Y-89476190D01*
X130174200Y-89476190D02*
X130098009Y-89552380D01*
X130098009Y-89552380D02*
X130021819Y-89590475D01*
X130021819Y-89590475D02*
X129869438Y-89628571D01*
X129869438Y-89628571D02*
X129755152Y-89628571D01*
X129755152Y-89628571D02*
X129602771Y-89590475D01*
X129602771Y-89590475D02*
X129526580Y-89552380D01*
X129526580Y-89552380D02*
X129450390Y-89476190D01*
X129450390Y-89476190D02*
X129412295Y-89361904D01*
X129412295Y-89361904D02*
X129412295Y-89285713D01*
X129412295Y-89285713D02*
X129450390Y-89171428D01*
X129450390Y-89171428D02*
X129488485Y-89133332D01*
X130212295Y-88752380D02*
X130212295Y-88599999D01*
X130212295Y-88599999D02*
X130174200Y-88523809D01*
X130174200Y-88523809D02*
X130136104Y-88485713D01*
X130136104Y-88485713D02*
X130021819Y-88409523D01*
X130021819Y-88409523D02*
X129869438Y-88371428D01*
X129869438Y-88371428D02*
X129564676Y-88371428D01*
X129564676Y-88371428D02*
X129488485Y-88409523D01*
X129488485Y-88409523D02*
X129450390Y-88447618D01*
X129450390Y-88447618D02*
X129412295Y-88523809D01*
X129412295Y-88523809D02*
X129412295Y-88676190D01*
X129412295Y-88676190D02*
X129450390Y-88752380D01*
X129450390Y-88752380D02*
X129488485Y-88790475D01*
X129488485Y-88790475D02*
X129564676Y-88828571D01*
X129564676Y-88828571D02*
X129755152Y-88828571D01*
X129755152Y-88828571D02*
X129831342Y-88790475D01*
X129831342Y-88790475D02*
X129869438Y-88752380D01*
X129869438Y-88752380D02*
X129907533Y-88676190D01*
X129907533Y-88676190D02*
X129907533Y-88523809D01*
X129907533Y-88523809D02*
X129869438Y-88447618D01*
X129869438Y-88447618D02*
X129831342Y-88409523D01*
X129831342Y-88409523D02*
X129755152Y-88371428D01*
X176685714Y-109586104D02*
X176647618Y-109624200D01*
X176647618Y-109624200D02*
X176533333Y-109662295D01*
X176533333Y-109662295D02*
X176457142Y-109662295D01*
X176457142Y-109662295D02*
X176342856Y-109624200D01*
X176342856Y-109624200D02*
X176266666Y-109548009D01*
X176266666Y-109548009D02*
X176228571Y-109471819D01*
X176228571Y-109471819D02*
X176190475Y-109319438D01*
X176190475Y-109319438D02*
X176190475Y-109205152D01*
X176190475Y-109205152D02*
X176228571Y-109052771D01*
X176228571Y-109052771D02*
X176266666Y-108976580D01*
X176266666Y-108976580D02*
X176342856Y-108900390D01*
X176342856Y-108900390D02*
X176457142Y-108862295D01*
X176457142Y-108862295D02*
X176533333Y-108862295D01*
X176533333Y-108862295D02*
X176647618Y-108900390D01*
X176647618Y-108900390D02*
X176685714Y-108938485D01*
X177371428Y-109128961D02*
X177371428Y-109662295D01*
X177180952Y-108824200D02*
X176990475Y-109395628D01*
X176990475Y-109395628D02*
X177485714Y-109395628D01*
X178133333Y-109128961D02*
X178133333Y-109662295D01*
X177942857Y-108824200D02*
X177752380Y-109395628D01*
X177752380Y-109395628D02*
X178247619Y-109395628D01*
X141461905Y-114954819D02*
X142033333Y-114954819D01*
X141747619Y-115954819D02*
X141747619Y-114954819D01*
X142366667Y-115954819D02*
X142366667Y-114954819D01*
X142366667Y-114954819D02*
X142747619Y-114954819D01*
X142747619Y-114954819D02*
X142842857Y-115002438D01*
X142842857Y-115002438D02*
X142890476Y-115050057D01*
X142890476Y-115050057D02*
X142938095Y-115145295D01*
X142938095Y-115145295D02*
X142938095Y-115288152D01*
X142938095Y-115288152D02*
X142890476Y-115383390D01*
X142890476Y-115383390D02*
X142842857Y-115431009D01*
X142842857Y-115431009D02*
X142747619Y-115478628D01*
X142747619Y-115478628D02*
X142366667Y-115478628D01*
X143890476Y-115954819D02*
X143319048Y-115954819D01*
X143604762Y-115954819D02*
X143604762Y-114954819D01*
X143604762Y-114954819D02*
X143509524Y-115097676D01*
X143509524Y-115097676D02*
X143414286Y-115192914D01*
X143414286Y-115192914D02*
X143319048Y-115240533D01*
X144842857Y-115954819D02*
X144271429Y-115954819D01*
X144557143Y-115954819D02*
X144557143Y-114954819D01*
X144557143Y-114954819D02*
X144461905Y-115097676D01*
X144461905Y-115097676D02*
X144366667Y-115192914D01*
X144366667Y-115192914D02*
X144271429Y-115240533D01*
X121786104Y-100633332D02*
X121824200Y-100671428D01*
X121824200Y-100671428D02*
X121862295Y-100785713D01*
X121862295Y-100785713D02*
X121862295Y-100861904D01*
X121862295Y-100861904D02*
X121824200Y-100976190D01*
X121824200Y-100976190D02*
X121748009Y-101052380D01*
X121748009Y-101052380D02*
X121671819Y-101090475D01*
X121671819Y-101090475D02*
X121519438Y-101128571D01*
X121519438Y-101128571D02*
X121405152Y-101128571D01*
X121405152Y-101128571D02*
X121252771Y-101090475D01*
X121252771Y-101090475D02*
X121176580Y-101052380D01*
X121176580Y-101052380D02*
X121100390Y-100976190D01*
X121100390Y-100976190D02*
X121062295Y-100861904D01*
X121062295Y-100861904D02*
X121062295Y-100785713D01*
X121062295Y-100785713D02*
X121100390Y-100671428D01*
X121100390Y-100671428D02*
X121138485Y-100633332D01*
X121862295Y-99871428D02*
X121862295Y-100328571D01*
X121862295Y-100099999D02*
X121062295Y-100099999D01*
X121062295Y-100099999D02*
X121176580Y-100176190D01*
X121176580Y-100176190D02*
X121252771Y-100252380D01*
X121252771Y-100252380D02*
X121290866Y-100328571D01*
X168486104Y-103414285D02*
X168524200Y-103452381D01*
X168524200Y-103452381D02*
X168562295Y-103566666D01*
X168562295Y-103566666D02*
X168562295Y-103642857D01*
X168562295Y-103642857D02*
X168524200Y-103757143D01*
X168524200Y-103757143D02*
X168448009Y-103833333D01*
X168448009Y-103833333D02*
X168371819Y-103871428D01*
X168371819Y-103871428D02*
X168219438Y-103909524D01*
X168219438Y-103909524D02*
X168105152Y-103909524D01*
X168105152Y-103909524D02*
X167952771Y-103871428D01*
X167952771Y-103871428D02*
X167876580Y-103833333D01*
X167876580Y-103833333D02*
X167800390Y-103757143D01*
X167800390Y-103757143D02*
X167762295Y-103642857D01*
X167762295Y-103642857D02*
X167762295Y-103566666D01*
X167762295Y-103566666D02*
X167800390Y-103452381D01*
X167800390Y-103452381D02*
X167838485Y-103414285D01*
X168028961Y-102728571D02*
X168562295Y-102728571D01*
X167724200Y-102919047D02*
X168295628Y-103109524D01*
X168295628Y-103109524D02*
X168295628Y-102614285D01*
X167762295Y-101928571D02*
X167762295Y-102309523D01*
X167762295Y-102309523D02*
X168143247Y-102347619D01*
X168143247Y-102347619D02*
X168105152Y-102309523D01*
X168105152Y-102309523D02*
X168067057Y-102233333D01*
X168067057Y-102233333D02*
X168067057Y-102042857D01*
X168067057Y-102042857D02*
X168105152Y-101966666D01*
X168105152Y-101966666D02*
X168143247Y-101928571D01*
X168143247Y-101928571D02*
X168219438Y-101890476D01*
X168219438Y-101890476D02*
X168409914Y-101890476D01*
X168409914Y-101890476D02*
X168486104Y-101928571D01*
X168486104Y-101928571D02*
X168524200Y-101966666D01*
X168524200Y-101966666D02*
X168562295Y-102042857D01*
X168562295Y-102042857D02*
X168562295Y-102233333D01*
X168562295Y-102233333D02*
X168524200Y-102309523D01*
X168524200Y-102309523D02*
X168486104Y-102347619D01*
X152738095Y-92206819D02*
X153309523Y-92206819D01*
X153023809Y-93206819D02*
X153023809Y-92206819D01*
X153642857Y-93206819D02*
X153642857Y-92206819D01*
X153642857Y-92206819D02*
X154023809Y-92206819D01*
X154023809Y-92206819D02*
X154119047Y-92254438D01*
X154119047Y-92254438D02*
X154166666Y-92302057D01*
X154166666Y-92302057D02*
X154214285Y-92397295D01*
X154214285Y-92397295D02*
X154214285Y-92540152D01*
X154214285Y-92540152D02*
X154166666Y-92635390D01*
X154166666Y-92635390D02*
X154119047Y-92683009D01*
X154119047Y-92683009D02*
X154023809Y-92730628D01*
X154023809Y-92730628D02*
X153642857Y-92730628D01*
X155119047Y-92206819D02*
X154642857Y-92206819D01*
X154642857Y-92206819D02*
X154595238Y-92683009D01*
X154595238Y-92683009D02*
X154642857Y-92635390D01*
X154642857Y-92635390D02*
X154738095Y-92587771D01*
X154738095Y-92587771D02*
X154976190Y-92587771D01*
X154976190Y-92587771D02*
X155071428Y-92635390D01*
X155071428Y-92635390D02*
X155119047Y-92683009D01*
X155119047Y-92683009D02*
X155166666Y-92778247D01*
X155166666Y-92778247D02*
X155166666Y-93016342D01*
X155166666Y-93016342D02*
X155119047Y-93111580D01*
X155119047Y-93111580D02*
X155071428Y-93159200D01*
X155071428Y-93159200D02*
X154976190Y-93206819D01*
X154976190Y-93206819D02*
X154738095Y-93206819D01*
X154738095Y-93206819D02*
X154642857Y-93159200D01*
X154642857Y-93159200D02*
X154595238Y-93111580D01*
X128866667Y-111386104D02*
X128828571Y-111424200D01*
X128828571Y-111424200D02*
X128714286Y-111462295D01*
X128714286Y-111462295D02*
X128638095Y-111462295D01*
X128638095Y-111462295D02*
X128523809Y-111424200D01*
X128523809Y-111424200D02*
X128447619Y-111348009D01*
X128447619Y-111348009D02*
X128409524Y-111271819D01*
X128409524Y-111271819D02*
X128371428Y-111119438D01*
X128371428Y-111119438D02*
X128371428Y-111005152D01*
X128371428Y-111005152D02*
X128409524Y-110852771D01*
X128409524Y-110852771D02*
X128447619Y-110776580D01*
X128447619Y-110776580D02*
X128523809Y-110700390D01*
X128523809Y-110700390D02*
X128638095Y-110662295D01*
X128638095Y-110662295D02*
X128714286Y-110662295D01*
X128714286Y-110662295D02*
X128828571Y-110700390D01*
X128828571Y-110700390D02*
X128866667Y-110738485D01*
X129323809Y-111005152D02*
X129247619Y-110967057D01*
X129247619Y-110967057D02*
X129209524Y-110928961D01*
X129209524Y-110928961D02*
X129171428Y-110852771D01*
X129171428Y-110852771D02*
X129171428Y-110814676D01*
X129171428Y-110814676D02*
X129209524Y-110738485D01*
X129209524Y-110738485D02*
X129247619Y-110700390D01*
X129247619Y-110700390D02*
X129323809Y-110662295D01*
X129323809Y-110662295D02*
X129476190Y-110662295D01*
X129476190Y-110662295D02*
X129552381Y-110700390D01*
X129552381Y-110700390D02*
X129590476Y-110738485D01*
X129590476Y-110738485D02*
X129628571Y-110814676D01*
X129628571Y-110814676D02*
X129628571Y-110852771D01*
X129628571Y-110852771D02*
X129590476Y-110928961D01*
X129590476Y-110928961D02*
X129552381Y-110967057D01*
X129552381Y-110967057D02*
X129476190Y-111005152D01*
X129476190Y-111005152D02*
X129323809Y-111005152D01*
X129323809Y-111005152D02*
X129247619Y-111043247D01*
X129247619Y-111043247D02*
X129209524Y-111081342D01*
X129209524Y-111081342D02*
X129171428Y-111157533D01*
X129171428Y-111157533D02*
X129171428Y-111309914D01*
X129171428Y-111309914D02*
X129209524Y-111386104D01*
X129209524Y-111386104D02*
X129247619Y-111424200D01*
X129247619Y-111424200D02*
X129323809Y-111462295D01*
X129323809Y-111462295D02*
X129476190Y-111462295D01*
X129476190Y-111462295D02*
X129552381Y-111424200D01*
X129552381Y-111424200D02*
X129590476Y-111386104D01*
X129590476Y-111386104D02*
X129628571Y-111309914D01*
X129628571Y-111309914D02*
X129628571Y-111157533D01*
X129628571Y-111157533D02*
X129590476Y-111081342D01*
X129590476Y-111081342D02*
X129552381Y-111043247D01*
X129552381Y-111043247D02*
X129476190Y-111005152D01*
X119866667Y-106862295D02*
X119600000Y-106481342D01*
X119409524Y-106862295D02*
X119409524Y-106062295D01*
X119409524Y-106062295D02*
X119714286Y-106062295D01*
X119714286Y-106062295D02*
X119790476Y-106100390D01*
X119790476Y-106100390D02*
X119828571Y-106138485D01*
X119828571Y-106138485D02*
X119866667Y-106214676D01*
X119866667Y-106214676D02*
X119866667Y-106328961D01*
X119866667Y-106328961D02*
X119828571Y-106405152D01*
X119828571Y-106405152D02*
X119790476Y-106443247D01*
X119790476Y-106443247D02*
X119714286Y-106481342D01*
X119714286Y-106481342D02*
X119409524Y-106481342D01*
X120133333Y-106062295D02*
X120628571Y-106062295D01*
X120628571Y-106062295D02*
X120361905Y-106367057D01*
X120361905Y-106367057D02*
X120476190Y-106367057D01*
X120476190Y-106367057D02*
X120552381Y-106405152D01*
X120552381Y-106405152D02*
X120590476Y-106443247D01*
X120590476Y-106443247D02*
X120628571Y-106519438D01*
X120628571Y-106519438D02*
X120628571Y-106709914D01*
X120628571Y-106709914D02*
X120590476Y-106786104D01*
X120590476Y-106786104D02*
X120552381Y-106824200D01*
X120552381Y-106824200D02*
X120476190Y-106862295D01*
X120476190Y-106862295D02*
X120247619Y-106862295D01*
X120247619Y-106862295D02*
X120171428Y-106824200D01*
X120171428Y-106824200D02*
X120133333Y-106786104D01*
X142054819Y-110138094D02*
X142054819Y-109566666D01*
X143054819Y-109852380D02*
X142054819Y-109852380D01*
X143054819Y-109233332D02*
X142054819Y-109233332D01*
X142054819Y-109233332D02*
X142054819Y-108852380D01*
X142054819Y-108852380D02*
X142102438Y-108757142D01*
X142102438Y-108757142D02*
X142150057Y-108709523D01*
X142150057Y-108709523D02*
X142245295Y-108661904D01*
X142245295Y-108661904D02*
X142388152Y-108661904D01*
X142388152Y-108661904D02*
X142483390Y-108709523D01*
X142483390Y-108709523D02*
X142531009Y-108757142D01*
X142531009Y-108757142D02*
X142578628Y-108852380D01*
X142578628Y-108852380D02*
X142578628Y-109233332D01*
X143054819Y-107709523D02*
X143054819Y-108280951D01*
X143054819Y-107995237D02*
X142054819Y-107995237D01*
X142054819Y-107995237D02*
X142197676Y-108090475D01*
X142197676Y-108090475D02*
X142292914Y-108185713D01*
X142292914Y-108185713D02*
X142340533Y-108280951D01*
X142054819Y-107090475D02*
X142054819Y-106995237D01*
X142054819Y-106995237D02*
X142102438Y-106899999D01*
X142102438Y-106899999D02*
X142150057Y-106852380D01*
X142150057Y-106852380D02*
X142245295Y-106804761D01*
X142245295Y-106804761D02*
X142435771Y-106757142D01*
X142435771Y-106757142D02*
X142673866Y-106757142D01*
X142673866Y-106757142D02*
X142864342Y-106804761D01*
X142864342Y-106804761D02*
X142959580Y-106852380D01*
X142959580Y-106852380D02*
X143007200Y-106899999D01*
X143007200Y-106899999D02*
X143054819Y-106995237D01*
X143054819Y-106995237D02*
X143054819Y-107090475D01*
X143054819Y-107090475D02*
X143007200Y-107185713D01*
X143007200Y-107185713D02*
X142959580Y-107233332D01*
X142959580Y-107233332D02*
X142864342Y-107280951D01*
X142864342Y-107280951D02*
X142673866Y-107328570D01*
X142673866Y-107328570D02*
X142435771Y-107328570D01*
X142435771Y-107328570D02*
X142245295Y-107280951D01*
X142245295Y-107280951D02*
X142150057Y-107233332D01*
X142150057Y-107233332D02*
X142102438Y-107185713D01*
X142102438Y-107185713D02*
X142054819Y-107090475D01*
X133086104Y-112914285D02*
X133124200Y-112952381D01*
X133124200Y-112952381D02*
X133162295Y-113066666D01*
X133162295Y-113066666D02*
X133162295Y-113142857D01*
X133162295Y-113142857D02*
X133124200Y-113257143D01*
X133124200Y-113257143D02*
X133048009Y-113333333D01*
X133048009Y-113333333D02*
X132971819Y-113371428D01*
X132971819Y-113371428D02*
X132819438Y-113409524D01*
X132819438Y-113409524D02*
X132705152Y-113409524D01*
X132705152Y-113409524D02*
X132552771Y-113371428D01*
X132552771Y-113371428D02*
X132476580Y-113333333D01*
X132476580Y-113333333D02*
X132400390Y-113257143D01*
X132400390Y-113257143D02*
X132362295Y-113142857D01*
X132362295Y-113142857D02*
X132362295Y-113066666D01*
X132362295Y-113066666D02*
X132400390Y-112952381D01*
X132400390Y-112952381D02*
X132438485Y-112914285D01*
X133162295Y-112152381D02*
X133162295Y-112609524D01*
X133162295Y-112380952D02*
X132362295Y-112380952D01*
X132362295Y-112380952D02*
X132476580Y-112457143D01*
X132476580Y-112457143D02*
X132552771Y-112533333D01*
X132552771Y-112533333D02*
X132590866Y-112609524D01*
X133162295Y-111390476D02*
X133162295Y-111847619D01*
X133162295Y-111619047D02*
X132362295Y-111619047D01*
X132362295Y-111619047D02*
X132476580Y-111695238D01*
X132476580Y-111695238D02*
X132552771Y-111771428D01*
X132552771Y-111771428D02*
X132590866Y-111847619D01*
X119866667Y-99262295D02*
X119600000Y-98881342D01*
X119409524Y-99262295D02*
X119409524Y-98462295D01*
X119409524Y-98462295D02*
X119714286Y-98462295D01*
X119714286Y-98462295D02*
X119790476Y-98500390D01*
X119790476Y-98500390D02*
X119828571Y-98538485D01*
X119828571Y-98538485D02*
X119866667Y-98614676D01*
X119866667Y-98614676D02*
X119866667Y-98728961D01*
X119866667Y-98728961D02*
X119828571Y-98805152D01*
X119828571Y-98805152D02*
X119790476Y-98843247D01*
X119790476Y-98843247D02*
X119714286Y-98881342D01*
X119714286Y-98881342D02*
X119409524Y-98881342D01*
X120628571Y-99262295D02*
X120171428Y-99262295D01*
X120400000Y-99262295D02*
X120400000Y-98462295D01*
X120400000Y-98462295D02*
X120323809Y-98576580D01*
X120323809Y-98576580D02*
X120247619Y-98652771D01*
X120247619Y-98652771D02*
X120171428Y-98690866D01*
X169966666Y-101962295D02*
X169585714Y-101962295D01*
X169585714Y-101962295D02*
X169585714Y-101162295D01*
X170614285Y-101162295D02*
X170233333Y-101162295D01*
X170233333Y-101162295D02*
X170195237Y-101543247D01*
X170195237Y-101543247D02*
X170233333Y-101505152D01*
X170233333Y-101505152D02*
X170309523Y-101467057D01*
X170309523Y-101467057D02*
X170499999Y-101467057D01*
X170499999Y-101467057D02*
X170576190Y-101505152D01*
X170576190Y-101505152D02*
X170614285Y-101543247D01*
X170614285Y-101543247D02*
X170652380Y-101619438D01*
X170652380Y-101619438D02*
X170652380Y-101809914D01*
X170652380Y-101809914D02*
X170614285Y-101886104D01*
X170614285Y-101886104D02*
X170576190Y-101924200D01*
X170576190Y-101924200D02*
X170499999Y-101962295D01*
X170499999Y-101962295D02*
X170309523Y-101962295D01*
X170309523Y-101962295D02*
X170233333Y-101924200D01*
X170233333Y-101924200D02*
X170195237Y-101886104D01*
X180866666Y-108112295D02*
X180485714Y-108112295D01*
X180485714Y-108112295D02*
X180485714Y-107312295D01*
X181057142Y-107312295D02*
X181590476Y-107312295D01*
X181590476Y-107312295D02*
X181247618Y-108112295D01*
X180462295Y-99524285D02*
X180081342Y-99790952D01*
X180462295Y-99981428D02*
X179662295Y-99981428D01*
X179662295Y-99981428D02*
X179662295Y-99676666D01*
X179662295Y-99676666D02*
X179700390Y-99600476D01*
X179700390Y-99600476D02*
X179738485Y-99562381D01*
X179738485Y-99562381D02*
X179814676Y-99524285D01*
X179814676Y-99524285D02*
X179928961Y-99524285D01*
X179928961Y-99524285D02*
X180005152Y-99562381D01*
X180005152Y-99562381D02*
X180043247Y-99600476D01*
X180043247Y-99600476D02*
X180081342Y-99676666D01*
X180081342Y-99676666D02*
X180081342Y-99981428D01*
X179738485Y-99219524D02*
X179700390Y-99181428D01*
X179700390Y-99181428D02*
X179662295Y-99105238D01*
X179662295Y-99105238D02*
X179662295Y-98914762D01*
X179662295Y-98914762D02*
X179700390Y-98838571D01*
X179700390Y-98838571D02*
X179738485Y-98800476D01*
X179738485Y-98800476D02*
X179814676Y-98762381D01*
X179814676Y-98762381D02*
X179890866Y-98762381D01*
X179890866Y-98762381D02*
X180005152Y-98800476D01*
X180005152Y-98800476D02*
X180462295Y-99257619D01*
X180462295Y-99257619D02*
X180462295Y-98762381D01*
X179738485Y-98457619D02*
X179700390Y-98419523D01*
X179700390Y-98419523D02*
X179662295Y-98343333D01*
X179662295Y-98343333D02*
X179662295Y-98152857D01*
X179662295Y-98152857D02*
X179700390Y-98076666D01*
X179700390Y-98076666D02*
X179738485Y-98038571D01*
X179738485Y-98038571D02*
X179814676Y-98000476D01*
X179814676Y-98000476D02*
X179890866Y-98000476D01*
X179890866Y-98000476D02*
X180005152Y-98038571D01*
X180005152Y-98038571D02*
X180462295Y-98495714D01*
X180462295Y-98495714D02*
X180462295Y-98000476D01*
X174985714Y-107862295D02*
X174719047Y-107481342D01*
X174528571Y-107862295D02*
X174528571Y-107062295D01*
X174528571Y-107062295D02*
X174833333Y-107062295D01*
X174833333Y-107062295D02*
X174909523Y-107100390D01*
X174909523Y-107100390D02*
X174947618Y-107138485D01*
X174947618Y-107138485D02*
X174985714Y-107214676D01*
X174985714Y-107214676D02*
X174985714Y-107328961D01*
X174985714Y-107328961D02*
X174947618Y-107405152D01*
X174947618Y-107405152D02*
X174909523Y-107443247D01*
X174909523Y-107443247D02*
X174833333Y-107481342D01*
X174833333Y-107481342D02*
X174528571Y-107481342D01*
X175290475Y-107138485D02*
X175328571Y-107100390D01*
X175328571Y-107100390D02*
X175404761Y-107062295D01*
X175404761Y-107062295D02*
X175595237Y-107062295D01*
X175595237Y-107062295D02*
X175671428Y-107100390D01*
X175671428Y-107100390D02*
X175709523Y-107138485D01*
X175709523Y-107138485D02*
X175747618Y-107214676D01*
X175747618Y-107214676D02*
X175747618Y-107290866D01*
X175747618Y-107290866D02*
X175709523Y-107405152D01*
X175709523Y-107405152D02*
X175252380Y-107862295D01*
X175252380Y-107862295D02*
X175747618Y-107862295D01*
X176509523Y-107862295D02*
X176052380Y-107862295D01*
X176280952Y-107862295D02*
X176280952Y-107062295D01*
X176280952Y-107062295D02*
X176204761Y-107176580D01*
X176204761Y-107176580D02*
X176128571Y-107252771D01*
X176128571Y-107252771D02*
X176052380Y-107290866D01*
X148119048Y-116981342D02*
X148119048Y-117362295D01*
X147852381Y-116562295D02*
X148119048Y-116981342D01*
X148119048Y-116981342D02*
X148385714Y-116562295D01*
X148614285Y-116638485D02*
X148652381Y-116600390D01*
X148652381Y-116600390D02*
X148728571Y-116562295D01*
X148728571Y-116562295D02*
X148919047Y-116562295D01*
X148919047Y-116562295D02*
X148995238Y-116600390D01*
X148995238Y-116600390D02*
X149033333Y-116638485D01*
X149033333Y-116638485D02*
X149071428Y-116714676D01*
X149071428Y-116714676D02*
X149071428Y-116790866D01*
X149071428Y-116790866D02*
X149033333Y-116905152D01*
X149033333Y-116905152D02*
X148576190Y-117362295D01*
X148576190Y-117362295D02*
X149071428Y-117362295D01*
X141985714Y-101362295D02*
X141719047Y-100981342D01*
X141528571Y-101362295D02*
X141528571Y-100562295D01*
X141528571Y-100562295D02*
X141833333Y-100562295D01*
X141833333Y-100562295D02*
X141909523Y-100600390D01*
X141909523Y-100600390D02*
X141947618Y-100638485D01*
X141947618Y-100638485D02*
X141985714Y-100714676D01*
X141985714Y-100714676D02*
X141985714Y-100828961D01*
X141985714Y-100828961D02*
X141947618Y-100905152D01*
X141947618Y-100905152D02*
X141909523Y-100943247D01*
X141909523Y-100943247D02*
X141833333Y-100981342D01*
X141833333Y-100981342D02*
X141528571Y-100981342D01*
X142747618Y-101362295D02*
X142290475Y-101362295D01*
X142519047Y-101362295D02*
X142519047Y-100562295D01*
X142519047Y-100562295D02*
X142442856Y-100676580D01*
X142442856Y-100676580D02*
X142366666Y-100752771D01*
X142366666Y-100752771D02*
X142290475Y-100790866D01*
X143242857Y-100562295D02*
X143319047Y-100562295D01*
X143319047Y-100562295D02*
X143395238Y-100600390D01*
X143395238Y-100600390D02*
X143433333Y-100638485D01*
X143433333Y-100638485D02*
X143471428Y-100714676D01*
X143471428Y-100714676D02*
X143509523Y-100867057D01*
X143509523Y-100867057D02*
X143509523Y-101057533D01*
X143509523Y-101057533D02*
X143471428Y-101209914D01*
X143471428Y-101209914D02*
X143433333Y-101286104D01*
X143433333Y-101286104D02*
X143395238Y-101324200D01*
X143395238Y-101324200D02*
X143319047Y-101362295D01*
X143319047Y-101362295D02*
X143242857Y-101362295D01*
X143242857Y-101362295D02*
X143166666Y-101324200D01*
X143166666Y-101324200D02*
X143128571Y-101286104D01*
X143128571Y-101286104D02*
X143090476Y-101209914D01*
X143090476Y-101209914D02*
X143052380Y-101057533D01*
X143052380Y-101057533D02*
X143052380Y-100867057D01*
X143052380Y-100867057D02*
X143090476Y-100714676D01*
X143090476Y-100714676D02*
X143128571Y-100638485D01*
X143128571Y-100638485D02*
X143166666Y-100600390D01*
X143166666Y-100600390D02*
X143242857Y-100562295D01*
X177862295Y-97014285D02*
X177481342Y-97280952D01*
X177862295Y-97471428D02*
X177062295Y-97471428D01*
X177062295Y-97471428D02*
X177062295Y-97166666D01*
X177062295Y-97166666D02*
X177100390Y-97090476D01*
X177100390Y-97090476D02*
X177138485Y-97052381D01*
X177138485Y-97052381D02*
X177214676Y-97014285D01*
X177214676Y-97014285D02*
X177328961Y-97014285D01*
X177328961Y-97014285D02*
X177405152Y-97052381D01*
X177405152Y-97052381D02*
X177443247Y-97090476D01*
X177443247Y-97090476D02*
X177481342Y-97166666D01*
X177481342Y-97166666D02*
X177481342Y-97471428D01*
X177138485Y-96709524D02*
X177100390Y-96671428D01*
X177100390Y-96671428D02*
X177062295Y-96595238D01*
X177062295Y-96595238D02*
X177062295Y-96404762D01*
X177062295Y-96404762D02*
X177100390Y-96328571D01*
X177100390Y-96328571D02*
X177138485Y-96290476D01*
X177138485Y-96290476D02*
X177214676Y-96252381D01*
X177214676Y-96252381D02*
X177290866Y-96252381D01*
X177290866Y-96252381D02*
X177405152Y-96290476D01*
X177405152Y-96290476D02*
X177862295Y-96747619D01*
X177862295Y-96747619D02*
X177862295Y-96252381D01*
X177062295Y-95985714D02*
X177062295Y-95490476D01*
X177062295Y-95490476D02*
X177367057Y-95757142D01*
X177367057Y-95757142D02*
X177367057Y-95642857D01*
X177367057Y-95642857D02*
X177405152Y-95566666D01*
X177405152Y-95566666D02*
X177443247Y-95528571D01*
X177443247Y-95528571D02*
X177519438Y-95490476D01*
X177519438Y-95490476D02*
X177709914Y-95490476D01*
X177709914Y-95490476D02*
X177786104Y-95528571D01*
X177786104Y-95528571D02*
X177824200Y-95566666D01*
X177824200Y-95566666D02*
X177862295Y-95642857D01*
X177862295Y-95642857D02*
X177862295Y-95871428D01*
X177862295Y-95871428D02*
X177824200Y-95947619D01*
X177824200Y-95947619D02*
X177786104Y-95985714D01*
X121241667Y-94166104D02*
X121203571Y-94204200D01*
X121203571Y-94204200D02*
X121089286Y-94242295D01*
X121089286Y-94242295D02*
X121013095Y-94242295D01*
X121013095Y-94242295D02*
X120898809Y-94204200D01*
X120898809Y-94204200D02*
X120822619Y-94128009D01*
X120822619Y-94128009D02*
X120784524Y-94051819D01*
X120784524Y-94051819D02*
X120746428Y-93899438D01*
X120746428Y-93899438D02*
X120746428Y-93785152D01*
X120746428Y-93785152D02*
X120784524Y-93632771D01*
X120784524Y-93632771D02*
X120822619Y-93556580D01*
X120822619Y-93556580D02*
X120898809Y-93480390D01*
X120898809Y-93480390D02*
X121013095Y-93442295D01*
X121013095Y-93442295D02*
X121089286Y-93442295D01*
X121089286Y-93442295D02*
X121203571Y-93480390D01*
X121203571Y-93480390D02*
X121241667Y-93518485D01*
X121508333Y-93442295D02*
X122003571Y-93442295D01*
X122003571Y-93442295D02*
X121736905Y-93747057D01*
X121736905Y-93747057D02*
X121851190Y-93747057D01*
X121851190Y-93747057D02*
X121927381Y-93785152D01*
X121927381Y-93785152D02*
X121965476Y-93823247D01*
X121965476Y-93823247D02*
X122003571Y-93899438D01*
X122003571Y-93899438D02*
X122003571Y-94089914D01*
X122003571Y-94089914D02*
X121965476Y-94166104D01*
X121965476Y-94166104D02*
X121927381Y-94204200D01*
X121927381Y-94204200D02*
X121851190Y-94242295D01*
X121851190Y-94242295D02*
X121622619Y-94242295D01*
X121622619Y-94242295D02*
X121546428Y-94204200D01*
X121546428Y-94204200D02*
X121508333Y-94166104D01*
X144285714Y-116986104D02*
X144247618Y-117024200D01*
X144247618Y-117024200D02*
X144133333Y-117062295D01*
X144133333Y-117062295D02*
X144057142Y-117062295D01*
X144057142Y-117062295D02*
X143942856Y-117024200D01*
X143942856Y-117024200D02*
X143866666Y-116948009D01*
X143866666Y-116948009D02*
X143828571Y-116871819D01*
X143828571Y-116871819D02*
X143790475Y-116719438D01*
X143790475Y-116719438D02*
X143790475Y-116605152D01*
X143790475Y-116605152D02*
X143828571Y-116452771D01*
X143828571Y-116452771D02*
X143866666Y-116376580D01*
X143866666Y-116376580D02*
X143942856Y-116300390D01*
X143942856Y-116300390D02*
X144057142Y-116262295D01*
X144057142Y-116262295D02*
X144133333Y-116262295D01*
X144133333Y-116262295D02*
X144247618Y-116300390D01*
X144247618Y-116300390D02*
X144285714Y-116338485D01*
X145047618Y-117062295D02*
X144590475Y-117062295D01*
X144819047Y-117062295D02*
X144819047Y-116262295D01*
X144819047Y-116262295D02*
X144742856Y-116376580D01*
X144742856Y-116376580D02*
X144666666Y-116452771D01*
X144666666Y-116452771D02*
X144590475Y-116490866D01*
X145314285Y-116262295D02*
X145847619Y-116262295D01*
X145847619Y-116262295D02*
X145504761Y-117062295D01*
X155862295Y-116514285D02*
X155481342Y-116780952D01*
X155862295Y-116971428D02*
X155062295Y-116971428D01*
X155062295Y-116971428D02*
X155062295Y-116666666D01*
X155062295Y-116666666D02*
X155100390Y-116590476D01*
X155100390Y-116590476D02*
X155138485Y-116552381D01*
X155138485Y-116552381D02*
X155214676Y-116514285D01*
X155214676Y-116514285D02*
X155328961Y-116514285D01*
X155328961Y-116514285D02*
X155405152Y-116552381D01*
X155405152Y-116552381D02*
X155443247Y-116590476D01*
X155443247Y-116590476D02*
X155481342Y-116666666D01*
X155481342Y-116666666D02*
X155481342Y-116971428D01*
X155862295Y-115752381D02*
X155862295Y-116209524D01*
X155862295Y-115980952D02*
X155062295Y-115980952D01*
X155062295Y-115980952D02*
X155176580Y-116057143D01*
X155176580Y-116057143D02*
X155252771Y-116133333D01*
X155252771Y-116133333D02*
X155290866Y-116209524D01*
X155062295Y-115485714D02*
X155062295Y-114990476D01*
X155062295Y-114990476D02*
X155367057Y-115257142D01*
X155367057Y-115257142D02*
X155367057Y-115142857D01*
X155367057Y-115142857D02*
X155405152Y-115066666D01*
X155405152Y-115066666D02*
X155443247Y-115028571D01*
X155443247Y-115028571D02*
X155519438Y-114990476D01*
X155519438Y-114990476D02*
X155709914Y-114990476D01*
X155709914Y-114990476D02*
X155786104Y-115028571D01*
X155786104Y-115028571D02*
X155824200Y-115066666D01*
X155824200Y-115066666D02*
X155862295Y-115142857D01*
X155862295Y-115142857D02*
X155862295Y-115371428D01*
X155862295Y-115371428D02*
X155824200Y-115447619D01*
X155824200Y-115447619D02*
X155786104Y-115485714D01*
X134586104Y-112914285D02*
X134624200Y-112952381D01*
X134624200Y-112952381D02*
X134662295Y-113066666D01*
X134662295Y-113066666D02*
X134662295Y-113142857D01*
X134662295Y-113142857D02*
X134624200Y-113257143D01*
X134624200Y-113257143D02*
X134548009Y-113333333D01*
X134548009Y-113333333D02*
X134471819Y-113371428D01*
X134471819Y-113371428D02*
X134319438Y-113409524D01*
X134319438Y-113409524D02*
X134205152Y-113409524D01*
X134205152Y-113409524D02*
X134052771Y-113371428D01*
X134052771Y-113371428D02*
X133976580Y-113333333D01*
X133976580Y-113333333D02*
X133900390Y-113257143D01*
X133900390Y-113257143D02*
X133862295Y-113142857D01*
X133862295Y-113142857D02*
X133862295Y-113066666D01*
X133862295Y-113066666D02*
X133900390Y-112952381D01*
X133900390Y-112952381D02*
X133938485Y-112914285D01*
X134662295Y-112152381D02*
X134662295Y-112609524D01*
X134662295Y-112380952D02*
X133862295Y-112380952D01*
X133862295Y-112380952D02*
X133976580Y-112457143D01*
X133976580Y-112457143D02*
X134052771Y-112533333D01*
X134052771Y-112533333D02*
X134090866Y-112609524D01*
X133862295Y-111428571D02*
X133862295Y-111809523D01*
X133862295Y-111809523D02*
X134243247Y-111847619D01*
X134243247Y-111847619D02*
X134205152Y-111809523D01*
X134205152Y-111809523D02*
X134167057Y-111733333D01*
X134167057Y-111733333D02*
X134167057Y-111542857D01*
X134167057Y-111542857D02*
X134205152Y-111466666D01*
X134205152Y-111466666D02*
X134243247Y-111428571D01*
X134243247Y-111428571D02*
X134319438Y-111390476D01*
X134319438Y-111390476D02*
X134509914Y-111390476D01*
X134509914Y-111390476D02*
X134586104Y-111428571D01*
X134586104Y-111428571D02*
X134624200Y-111466666D01*
X134624200Y-111466666D02*
X134662295Y-111542857D01*
X134662295Y-111542857D02*
X134662295Y-111733333D01*
X134662295Y-111733333D02*
X134624200Y-111809523D01*
X134624200Y-111809523D02*
X134586104Y-111847619D01*
X137738095Y-110954819D02*
X138309523Y-110954819D01*
X138023809Y-111954819D02*
X138023809Y-110954819D01*
X138642857Y-111954819D02*
X138642857Y-110954819D01*
X138642857Y-110954819D02*
X139023809Y-110954819D01*
X139023809Y-110954819D02*
X139119047Y-111002438D01*
X139119047Y-111002438D02*
X139166666Y-111050057D01*
X139166666Y-111050057D02*
X139214285Y-111145295D01*
X139214285Y-111145295D02*
X139214285Y-111288152D01*
X139214285Y-111288152D02*
X139166666Y-111383390D01*
X139166666Y-111383390D02*
X139119047Y-111431009D01*
X139119047Y-111431009D02*
X139023809Y-111478628D01*
X139023809Y-111478628D02*
X138642857Y-111478628D01*
X139690476Y-111954819D02*
X139880952Y-111954819D01*
X139880952Y-111954819D02*
X139976190Y-111907200D01*
X139976190Y-111907200D02*
X140023809Y-111859580D01*
X140023809Y-111859580D02*
X140119047Y-111716723D01*
X140119047Y-111716723D02*
X140166666Y-111526247D01*
X140166666Y-111526247D02*
X140166666Y-111145295D01*
X140166666Y-111145295D02*
X140119047Y-111050057D01*
X140119047Y-111050057D02*
X140071428Y-111002438D01*
X140071428Y-111002438D02*
X139976190Y-110954819D01*
X139976190Y-110954819D02*
X139785714Y-110954819D01*
X139785714Y-110954819D02*
X139690476Y-111002438D01*
X139690476Y-111002438D02*
X139642857Y-111050057D01*
X139642857Y-111050057D02*
X139595238Y-111145295D01*
X139595238Y-111145295D02*
X139595238Y-111383390D01*
X139595238Y-111383390D02*
X139642857Y-111478628D01*
X139642857Y-111478628D02*
X139690476Y-111526247D01*
X139690476Y-111526247D02*
X139785714Y-111573866D01*
X139785714Y-111573866D02*
X139976190Y-111573866D01*
X139976190Y-111573866D02*
X140071428Y-111526247D01*
X140071428Y-111526247D02*
X140119047Y-111478628D01*
X140119047Y-111478628D02*
X140166666Y-111383390D01*
X119866667Y-107962295D02*
X119600000Y-107581342D01*
X119409524Y-107962295D02*
X119409524Y-107162295D01*
X119409524Y-107162295D02*
X119714286Y-107162295D01*
X119714286Y-107162295D02*
X119790476Y-107200390D01*
X119790476Y-107200390D02*
X119828571Y-107238485D01*
X119828571Y-107238485D02*
X119866667Y-107314676D01*
X119866667Y-107314676D02*
X119866667Y-107428961D01*
X119866667Y-107428961D02*
X119828571Y-107505152D01*
X119828571Y-107505152D02*
X119790476Y-107543247D01*
X119790476Y-107543247D02*
X119714286Y-107581342D01*
X119714286Y-107581342D02*
X119409524Y-107581342D01*
X120552381Y-107428961D02*
X120552381Y-107962295D01*
X120361905Y-107124200D02*
X120171428Y-107695628D01*
X120171428Y-107695628D02*
X120666667Y-107695628D01*
X158985714Y-91112295D02*
X158719047Y-90731342D01*
X158528571Y-91112295D02*
X158528571Y-90312295D01*
X158528571Y-90312295D02*
X158833333Y-90312295D01*
X158833333Y-90312295D02*
X158909523Y-90350390D01*
X158909523Y-90350390D02*
X158947618Y-90388485D01*
X158947618Y-90388485D02*
X158985714Y-90464676D01*
X158985714Y-90464676D02*
X158985714Y-90578961D01*
X158985714Y-90578961D02*
X158947618Y-90655152D01*
X158947618Y-90655152D02*
X158909523Y-90693247D01*
X158909523Y-90693247D02*
X158833333Y-90731342D01*
X158833333Y-90731342D02*
X158528571Y-90731342D01*
X159747618Y-91112295D02*
X159290475Y-91112295D01*
X159519047Y-91112295D02*
X159519047Y-90312295D01*
X159519047Y-90312295D02*
X159442856Y-90426580D01*
X159442856Y-90426580D02*
X159366666Y-90502771D01*
X159366666Y-90502771D02*
X159290475Y-90540866D01*
X160471428Y-90312295D02*
X160090476Y-90312295D01*
X160090476Y-90312295D02*
X160052380Y-90693247D01*
X160052380Y-90693247D02*
X160090476Y-90655152D01*
X160090476Y-90655152D02*
X160166666Y-90617057D01*
X160166666Y-90617057D02*
X160357142Y-90617057D01*
X160357142Y-90617057D02*
X160433333Y-90655152D01*
X160433333Y-90655152D02*
X160471428Y-90693247D01*
X160471428Y-90693247D02*
X160509523Y-90769438D01*
X160509523Y-90769438D02*
X160509523Y-90959914D01*
X160509523Y-90959914D02*
X160471428Y-91036104D01*
X160471428Y-91036104D02*
X160433333Y-91074200D01*
X160433333Y-91074200D02*
X160357142Y-91112295D01*
X160357142Y-91112295D02*
X160166666Y-91112295D01*
X160166666Y-91112295D02*
X160090476Y-91074200D01*
X160090476Y-91074200D02*
X160052380Y-91036104D01*
X153985714Y-118362295D02*
X153719047Y-117981342D01*
X153528571Y-118362295D02*
X153528571Y-117562295D01*
X153528571Y-117562295D02*
X153833333Y-117562295D01*
X153833333Y-117562295D02*
X153909523Y-117600390D01*
X153909523Y-117600390D02*
X153947618Y-117638485D01*
X153947618Y-117638485D02*
X153985714Y-117714676D01*
X153985714Y-117714676D02*
X153985714Y-117828961D01*
X153985714Y-117828961D02*
X153947618Y-117905152D01*
X153947618Y-117905152D02*
X153909523Y-117943247D01*
X153909523Y-117943247D02*
X153833333Y-117981342D01*
X153833333Y-117981342D02*
X153528571Y-117981342D01*
X154747618Y-118362295D02*
X154290475Y-118362295D01*
X154519047Y-118362295D02*
X154519047Y-117562295D01*
X154519047Y-117562295D02*
X154442856Y-117676580D01*
X154442856Y-117676580D02*
X154366666Y-117752771D01*
X154366666Y-117752771D02*
X154290475Y-117790866D01*
X155509523Y-118362295D02*
X155052380Y-118362295D01*
X155280952Y-118362295D02*
X155280952Y-117562295D01*
X155280952Y-117562295D02*
X155204761Y-117676580D01*
X155204761Y-117676580D02*
X155128571Y-117752771D01*
X155128571Y-117752771D02*
X155052380Y-117790866D01*
X182366666Y-86854819D02*
X182366666Y-87569104D01*
X182366666Y-87569104D02*
X182319047Y-87711961D01*
X182319047Y-87711961D02*
X182223809Y-87807200D01*
X182223809Y-87807200D02*
X182080952Y-87854819D01*
X182080952Y-87854819D02*
X181985714Y-87854819D01*
X182747619Y-86854819D02*
X183366666Y-86854819D01*
X183366666Y-86854819D02*
X183033333Y-87235771D01*
X183033333Y-87235771D02*
X183176190Y-87235771D01*
X183176190Y-87235771D02*
X183271428Y-87283390D01*
X183271428Y-87283390D02*
X183319047Y-87331009D01*
X183319047Y-87331009D02*
X183366666Y-87426247D01*
X183366666Y-87426247D02*
X183366666Y-87664342D01*
X183366666Y-87664342D02*
X183319047Y-87759580D01*
X183319047Y-87759580D02*
X183271428Y-87807200D01*
X183271428Y-87807200D02*
X183176190Y-87854819D01*
X183176190Y-87854819D02*
X182890476Y-87854819D01*
X182890476Y-87854819D02*
X182795238Y-87807200D01*
X182795238Y-87807200D02*
X182747619Y-87759580D01*
X109795238Y-94831009D02*
X110128571Y-94831009D01*
X110271428Y-95354819D02*
X109795238Y-95354819D01*
X109795238Y-95354819D02*
X109795238Y-94354819D01*
X109795238Y-94354819D02*
X110271428Y-94354819D01*
X110842857Y-95354819D02*
X110747619Y-95307200D01*
X110747619Y-95307200D02*
X110700000Y-95211961D01*
X110700000Y-95211961D02*
X110700000Y-94354819D01*
X111604762Y-95307200D02*
X111509524Y-95354819D01*
X111509524Y-95354819D02*
X111319048Y-95354819D01*
X111319048Y-95354819D02*
X111223810Y-95307200D01*
X111223810Y-95307200D02*
X111176191Y-95211961D01*
X111176191Y-95211961D02*
X111176191Y-94831009D01*
X111176191Y-94831009D02*
X111223810Y-94735771D01*
X111223810Y-94735771D02*
X111319048Y-94688152D01*
X111319048Y-94688152D02*
X111509524Y-94688152D01*
X111509524Y-94688152D02*
X111604762Y-94735771D01*
X111604762Y-94735771D02*
X111652381Y-94831009D01*
X111652381Y-94831009D02*
X111652381Y-94926247D01*
X111652381Y-94926247D02*
X111176191Y-95021485D01*
X112509524Y-95307200D02*
X112414286Y-95354819D01*
X112414286Y-95354819D02*
X112223810Y-95354819D01*
X112223810Y-95354819D02*
X112128572Y-95307200D01*
X112128572Y-95307200D02*
X112080953Y-95259580D01*
X112080953Y-95259580D02*
X112033334Y-95164342D01*
X112033334Y-95164342D02*
X112033334Y-94878628D01*
X112033334Y-94878628D02*
X112080953Y-94783390D01*
X112080953Y-94783390D02*
X112128572Y-94735771D01*
X112128572Y-94735771D02*
X112223810Y-94688152D01*
X112223810Y-94688152D02*
X112414286Y-94688152D01*
X112414286Y-94688152D02*
X112509524Y-94735771D01*
X112700001Y-95450057D02*
X113461905Y-95450057D01*
X113700001Y-95354819D02*
X113700001Y-94354819D01*
X114176191Y-94688152D02*
X114176191Y-95354819D01*
X114176191Y-94783390D02*
X114223810Y-94735771D01*
X114223810Y-94735771D02*
X114319048Y-94688152D01*
X114319048Y-94688152D02*
X114461905Y-94688152D01*
X114461905Y-94688152D02*
X114557143Y-94735771D01*
X114557143Y-94735771D02*
X114604762Y-94831009D01*
X114604762Y-94831009D02*
X114604762Y-95354819D01*
X158409524Y-86562295D02*
X158409524Y-85762295D01*
X158409524Y-85762295D02*
X158600000Y-85762295D01*
X158600000Y-85762295D02*
X158714286Y-85800390D01*
X158714286Y-85800390D02*
X158790476Y-85876580D01*
X158790476Y-85876580D02*
X158828571Y-85952771D01*
X158828571Y-85952771D02*
X158866667Y-86105152D01*
X158866667Y-86105152D02*
X158866667Y-86219438D01*
X158866667Y-86219438D02*
X158828571Y-86371819D01*
X158828571Y-86371819D02*
X158790476Y-86448009D01*
X158790476Y-86448009D02*
X158714286Y-86524200D01*
X158714286Y-86524200D02*
X158600000Y-86562295D01*
X158600000Y-86562295D02*
X158409524Y-86562295D01*
X159171428Y-85838485D02*
X159209524Y-85800390D01*
X159209524Y-85800390D02*
X159285714Y-85762295D01*
X159285714Y-85762295D02*
X159476190Y-85762295D01*
X159476190Y-85762295D02*
X159552381Y-85800390D01*
X159552381Y-85800390D02*
X159590476Y-85838485D01*
X159590476Y-85838485D02*
X159628571Y-85914676D01*
X159628571Y-85914676D02*
X159628571Y-85990866D01*
X159628571Y-85990866D02*
X159590476Y-86105152D01*
X159590476Y-86105152D02*
X159133333Y-86562295D01*
X159133333Y-86562295D02*
X159628571Y-86562295D01*
X174286104Y-103514285D02*
X174324200Y-103552381D01*
X174324200Y-103552381D02*
X174362295Y-103666666D01*
X174362295Y-103666666D02*
X174362295Y-103742857D01*
X174362295Y-103742857D02*
X174324200Y-103857143D01*
X174324200Y-103857143D02*
X174248009Y-103933333D01*
X174248009Y-103933333D02*
X174171819Y-103971428D01*
X174171819Y-103971428D02*
X174019438Y-104009524D01*
X174019438Y-104009524D02*
X173905152Y-104009524D01*
X173905152Y-104009524D02*
X173752771Y-103971428D01*
X173752771Y-103971428D02*
X173676580Y-103933333D01*
X173676580Y-103933333D02*
X173600390Y-103857143D01*
X173600390Y-103857143D02*
X173562295Y-103742857D01*
X173562295Y-103742857D02*
X173562295Y-103666666D01*
X173562295Y-103666666D02*
X173600390Y-103552381D01*
X173600390Y-103552381D02*
X173638485Y-103514285D01*
X173828961Y-102828571D02*
X174362295Y-102828571D01*
X173524200Y-103019047D02*
X174095628Y-103209524D01*
X174095628Y-103209524D02*
X174095628Y-102714285D01*
X174362295Y-101990476D02*
X174362295Y-102447619D01*
X174362295Y-102219047D02*
X173562295Y-102219047D01*
X173562295Y-102219047D02*
X173676580Y-102295238D01*
X173676580Y-102295238D02*
X173752771Y-102371428D01*
X173752771Y-102371428D02*
X173790866Y-102447619D01*
X132136104Y-89514285D02*
X132174200Y-89552381D01*
X132174200Y-89552381D02*
X132212295Y-89666666D01*
X132212295Y-89666666D02*
X132212295Y-89742857D01*
X132212295Y-89742857D02*
X132174200Y-89857143D01*
X132174200Y-89857143D02*
X132098009Y-89933333D01*
X132098009Y-89933333D02*
X132021819Y-89971428D01*
X132021819Y-89971428D02*
X131869438Y-90009524D01*
X131869438Y-90009524D02*
X131755152Y-90009524D01*
X131755152Y-90009524D02*
X131602771Y-89971428D01*
X131602771Y-89971428D02*
X131526580Y-89933333D01*
X131526580Y-89933333D02*
X131450390Y-89857143D01*
X131450390Y-89857143D02*
X131412295Y-89742857D01*
X131412295Y-89742857D02*
X131412295Y-89666666D01*
X131412295Y-89666666D02*
X131450390Y-89552381D01*
X131450390Y-89552381D02*
X131488485Y-89514285D01*
X132212295Y-88752381D02*
X132212295Y-89209524D01*
X132212295Y-88980952D02*
X131412295Y-88980952D01*
X131412295Y-88980952D02*
X131526580Y-89057143D01*
X131526580Y-89057143D02*
X131602771Y-89133333D01*
X131602771Y-89133333D02*
X131640866Y-89209524D01*
X131412295Y-88257142D02*
X131412295Y-88180952D01*
X131412295Y-88180952D02*
X131450390Y-88104761D01*
X131450390Y-88104761D02*
X131488485Y-88066666D01*
X131488485Y-88066666D02*
X131564676Y-88028571D01*
X131564676Y-88028571D02*
X131717057Y-87990476D01*
X131717057Y-87990476D02*
X131907533Y-87990476D01*
X131907533Y-87990476D02*
X132059914Y-88028571D01*
X132059914Y-88028571D02*
X132136104Y-88066666D01*
X132136104Y-88066666D02*
X132174200Y-88104761D01*
X132174200Y-88104761D02*
X132212295Y-88180952D01*
X132212295Y-88180952D02*
X132212295Y-88257142D01*
X132212295Y-88257142D02*
X132174200Y-88333333D01*
X132174200Y-88333333D02*
X132136104Y-88371428D01*
X132136104Y-88371428D02*
X132059914Y-88409523D01*
X132059914Y-88409523D02*
X131907533Y-88447619D01*
X131907533Y-88447619D02*
X131717057Y-88447619D01*
X131717057Y-88447619D02*
X131564676Y-88409523D01*
X131564676Y-88409523D02*
X131488485Y-88371428D01*
X131488485Y-88371428D02*
X131450390Y-88333333D01*
X131450390Y-88333333D02*
X131412295Y-88257142D01*
X121886104Y-106113332D02*
X121924200Y-106151428D01*
X121924200Y-106151428D02*
X121962295Y-106265713D01*
X121962295Y-106265713D02*
X121962295Y-106341904D01*
X121962295Y-106341904D02*
X121924200Y-106456190D01*
X121924200Y-106456190D02*
X121848009Y-106532380D01*
X121848009Y-106532380D02*
X121771819Y-106570475D01*
X121771819Y-106570475D02*
X121619438Y-106608571D01*
X121619438Y-106608571D02*
X121505152Y-106608571D01*
X121505152Y-106608571D02*
X121352771Y-106570475D01*
X121352771Y-106570475D02*
X121276580Y-106532380D01*
X121276580Y-106532380D02*
X121200390Y-106456190D01*
X121200390Y-106456190D02*
X121162295Y-106341904D01*
X121162295Y-106341904D02*
X121162295Y-106265713D01*
X121162295Y-106265713D02*
X121200390Y-106151428D01*
X121200390Y-106151428D02*
X121238485Y-106113332D01*
X121238485Y-105808571D02*
X121200390Y-105770475D01*
X121200390Y-105770475D02*
X121162295Y-105694285D01*
X121162295Y-105694285D02*
X121162295Y-105503809D01*
X121162295Y-105503809D02*
X121200390Y-105427618D01*
X121200390Y-105427618D02*
X121238485Y-105389523D01*
X121238485Y-105389523D02*
X121314676Y-105351428D01*
X121314676Y-105351428D02*
X121390866Y-105351428D01*
X121390866Y-105351428D02*
X121505152Y-105389523D01*
X121505152Y-105389523D02*
X121962295Y-105846666D01*
X121962295Y-105846666D02*
X121962295Y-105351428D01*
X143461905Y-106654819D02*
X144033333Y-106654819D01*
X143747619Y-107654819D02*
X143747619Y-106654819D01*
X144366667Y-107654819D02*
X144366667Y-106654819D01*
X144366667Y-106654819D02*
X144747619Y-106654819D01*
X144747619Y-106654819D02*
X144842857Y-106702438D01*
X144842857Y-106702438D02*
X144890476Y-106750057D01*
X144890476Y-106750057D02*
X144938095Y-106845295D01*
X144938095Y-106845295D02*
X144938095Y-106988152D01*
X144938095Y-106988152D02*
X144890476Y-107083390D01*
X144890476Y-107083390D02*
X144842857Y-107131009D01*
X144842857Y-107131009D02*
X144747619Y-107178628D01*
X144747619Y-107178628D02*
X144366667Y-107178628D01*
X145890476Y-107654819D02*
X145319048Y-107654819D01*
X145604762Y-107654819D02*
X145604762Y-106654819D01*
X145604762Y-106654819D02*
X145509524Y-106797676D01*
X145509524Y-106797676D02*
X145414286Y-106892914D01*
X145414286Y-106892914D02*
X145319048Y-106940533D01*
X146271429Y-106750057D02*
X146319048Y-106702438D01*
X146319048Y-106702438D02*
X146414286Y-106654819D01*
X146414286Y-106654819D02*
X146652381Y-106654819D01*
X146652381Y-106654819D02*
X146747619Y-106702438D01*
X146747619Y-106702438D02*
X146795238Y-106750057D01*
X146795238Y-106750057D02*
X146842857Y-106845295D01*
X146842857Y-106845295D02*
X146842857Y-106940533D01*
X146842857Y-106940533D02*
X146795238Y-107083390D01*
X146795238Y-107083390D02*
X146223810Y-107654819D01*
X146223810Y-107654819D02*
X146842857Y-107654819D01*
X151390476Y-112062295D02*
X151390476Y-112709914D01*
X151390476Y-112709914D02*
X151428571Y-112786104D01*
X151428571Y-112786104D02*
X151466666Y-112824200D01*
X151466666Y-112824200D02*
X151542857Y-112862295D01*
X151542857Y-112862295D02*
X151695238Y-112862295D01*
X151695238Y-112862295D02*
X151771428Y-112824200D01*
X151771428Y-112824200D02*
X151809523Y-112786104D01*
X151809523Y-112786104D02*
X151847619Y-112709914D01*
X151847619Y-112709914D02*
X151847619Y-112062295D01*
X152152380Y-112062295D02*
X152647618Y-112062295D01*
X152647618Y-112062295D02*
X152380952Y-112367057D01*
X152380952Y-112367057D02*
X152495237Y-112367057D01*
X152495237Y-112367057D02*
X152571428Y-112405152D01*
X152571428Y-112405152D02*
X152609523Y-112443247D01*
X152609523Y-112443247D02*
X152647618Y-112519438D01*
X152647618Y-112519438D02*
X152647618Y-112709914D01*
X152647618Y-112709914D02*
X152609523Y-112786104D01*
X152609523Y-112786104D02*
X152571428Y-112824200D01*
X152571428Y-112824200D02*
X152495237Y-112862295D01*
X152495237Y-112862295D02*
X152266666Y-112862295D01*
X152266666Y-112862295D02*
X152190475Y-112824200D01*
X152190475Y-112824200D02*
X152152380Y-112786104D01*
X145119048Y-97731342D02*
X145119048Y-98112295D01*
X144852381Y-97312295D02*
X145119048Y-97731342D01*
X145119048Y-97731342D02*
X145385714Y-97312295D01*
X146071428Y-98112295D02*
X145614285Y-98112295D01*
X145842857Y-98112295D02*
X145842857Y-97312295D01*
X145842857Y-97312295D02*
X145766666Y-97426580D01*
X145766666Y-97426580D02*
X145690476Y-97502771D01*
X145690476Y-97502771D02*
X145614285Y-97540866D01*
X155985714Y-91062295D02*
X155719047Y-90681342D01*
X155528571Y-91062295D02*
X155528571Y-90262295D01*
X155528571Y-90262295D02*
X155833333Y-90262295D01*
X155833333Y-90262295D02*
X155909523Y-90300390D01*
X155909523Y-90300390D02*
X155947618Y-90338485D01*
X155947618Y-90338485D02*
X155985714Y-90414676D01*
X155985714Y-90414676D02*
X155985714Y-90528961D01*
X155985714Y-90528961D02*
X155947618Y-90605152D01*
X155947618Y-90605152D02*
X155909523Y-90643247D01*
X155909523Y-90643247D02*
X155833333Y-90681342D01*
X155833333Y-90681342D02*
X155528571Y-90681342D01*
X156747618Y-91062295D02*
X156290475Y-91062295D01*
X156519047Y-91062295D02*
X156519047Y-90262295D01*
X156519047Y-90262295D02*
X156442856Y-90376580D01*
X156442856Y-90376580D02*
X156366666Y-90452771D01*
X156366666Y-90452771D02*
X156290475Y-90490866D01*
X157433333Y-90528961D02*
X157433333Y-91062295D01*
X157242857Y-90224200D02*
X157052380Y-90795628D01*
X157052380Y-90795628D02*
X157547619Y-90795628D01*
X175890476Y-103962295D02*
X175890476Y-104609914D01*
X175890476Y-104609914D02*
X175928571Y-104686104D01*
X175928571Y-104686104D02*
X175966666Y-104724200D01*
X175966666Y-104724200D02*
X176042857Y-104762295D01*
X176042857Y-104762295D02*
X176195238Y-104762295D01*
X176195238Y-104762295D02*
X176271428Y-104724200D01*
X176271428Y-104724200D02*
X176309523Y-104686104D01*
X176309523Y-104686104D02*
X176347619Y-104609914D01*
X176347619Y-104609914D02*
X176347619Y-103962295D01*
X177071428Y-103962295D02*
X176919047Y-103962295D01*
X176919047Y-103962295D02*
X176842856Y-104000390D01*
X176842856Y-104000390D02*
X176804761Y-104038485D01*
X176804761Y-104038485D02*
X176728571Y-104152771D01*
X176728571Y-104152771D02*
X176690475Y-104305152D01*
X176690475Y-104305152D02*
X176690475Y-104609914D01*
X176690475Y-104609914D02*
X176728571Y-104686104D01*
X176728571Y-104686104D02*
X176766666Y-104724200D01*
X176766666Y-104724200D02*
X176842856Y-104762295D01*
X176842856Y-104762295D02*
X176995237Y-104762295D01*
X176995237Y-104762295D02*
X177071428Y-104724200D01*
X177071428Y-104724200D02*
X177109523Y-104686104D01*
X177109523Y-104686104D02*
X177147618Y-104609914D01*
X177147618Y-104609914D02*
X177147618Y-104419438D01*
X177147618Y-104419438D02*
X177109523Y-104343247D01*
X177109523Y-104343247D02*
X177071428Y-104305152D01*
X177071428Y-104305152D02*
X176995237Y-104267057D01*
X176995237Y-104267057D02*
X176842856Y-104267057D01*
X176842856Y-104267057D02*
X176766666Y-104305152D01*
X176766666Y-104305152D02*
X176728571Y-104343247D01*
X176728571Y-104343247D02*
X176690475Y-104419438D01*
X116095195Y-101154819D02*
X116095195Y-100154819D01*
X116095195Y-100154819D02*
X116333290Y-100154819D01*
X116333290Y-100154819D02*
X116476147Y-100202438D01*
X116476147Y-100202438D02*
X116571385Y-100297676D01*
X116571385Y-100297676D02*
X116619004Y-100392914D01*
X116619004Y-100392914D02*
X116666623Y-100583390D01*
X116666623Y-100583390D02*
X116666623Y-100726247D01*
X116666623Y-100726247D02*
X116619004Y-100916723D01*
X116619004Y-100916723D02*
X116571385Y-101011961D01*
X116571385Y-101011961D02*
X116476147Y-101107200D01*
X116476147Y-101107200D02*
X116333290Y-101154819D01*
X116333290Y-101154819D02*
X116095195Y-101154819D01*
X117523766Y-100488152D02*
X117523766Y-101154819D01*
X117285671Y-100107200D02*
X117047576Y-100821485D01*
X117047576Y-100821485D02*
X117666623Y-100821485D01*
X177362295Y-101114285D02*
X176981342Y-101380952D01*
X177362295Y-101571428D02*
X176562295Y-101571428D01*
X176562295Y-101571428D02*
X176562295Y-101266666D01*
X176562295Y-101266666D02*
X176600390Y-101190476D01*
X176600390Y-101190476D02*
X176638485Y-101152381D01*
X176638485Y-101152381D02*
X176714676Y-101114285D01*
X176714676Y-101114285D02*
X176828961Y-101114285D01*
X176828961Y-101114285D02*
X176905152Y-101152381D01*
X176905152Y-101152381D02*
X176943247Y-101190476D01*
X176943247Y-101190476D02*
X176981342Y-101266666D01*
X176981342Y-101266666D02*
X176981342Y-101571428D01*
X176638485Y-100809524D02*
X176600390Y-100771428D01*
X176600390Y-100771428D02*
X176562295Y-100695238D01*
X176562295Y-100695238D02*
X176562295Y-100504762D01*
X176562295Y-100504762D02*
X176600390Y-100428571D01*
X176600390Y-100428571D02*
X176638485Y-100390476D01*
X176638485Y-100390476D02*
X176714676Y-100352381D01*
X176714676Y-100352381D02*
X176790866Y-100352381D01*
X176790866Y-100352381D02*
X176905152Y-100390476D01*
X176905152Y-100390476D02*
X177362295Y-100847619D01*
X177362295Y-100847619D02*
X177362295Y-100352381D01*
X176828961Y-99666666D02*
X177362295Y-99666666D01*
X176524200Y-99857142D02*
X177095628Y-100047619D01*
X177095628Y-100047619D02*
X177095628Y-99552380D01*
X181409524Y-103762295D02*
X181409524Y-102962295D01*
X181409524Y-102962295D02*
X181600000Y-102962295D01*
X181600000Y-102962295D02*
X181714286Y-103000390D01*
X181714286Y-103000390D02*
X181790476Y-103076580D01*
X181790476Y-103076580D02*
X181828571Y-103152771D01*
X181828571Y-103152771D02*
X181866667Y-103305152D01*
X181866667Y-103305152D02*
X181866667Y-103419438D01*
X181866667Y-103419438D02*
X181828571Y-103571819D01*
X181828571Y-103571819D02*
X181790476Y-103648009D01*
X181790476Y-103648009D02*
X181714286Y-103724200D01*
X181714286Y-103724200D02*
X181600000Y-103762295D01*
X181600000Y-103762295D02*
X181409524Y-103762295D01*
X182133333Y-102962295D02*
X182628571Y-102962295D01*
X182628571Y-102962295D02*
X182361905Y-103267057D01*
X182361905Y-103267057D02*
X182476190Y-103267057D01*
X182476190Y-103267057D02*
X182552381Y-103305152D01*
X182552381Y-103305152D02*
X182590476Y-103343247D01*
X182590476Y-103343247D02*
X182628571Y-103419438D01*
X182628571Y-103419438D02*
X182628571Y-103609914D01*
X182628571Y-103609914D02*
X182590476Y-103686104D01*
X182590476Y-103686104D02*
X182552381Y-103724200D01*
X182552381Y-103724200D02*
X182476190Y-103762295D01*
X182476190Y-103762295D02*
X182247619Y-103762295D01*
X182247619Y-103762295D02*
X182171428Y-103724200D01*
X182171428Y-103724200D02*
X182133333Y-103686104D01*
X172185714Y-89186104D02*
X172147618Y-89224200D01*
X172147618Y-89224200D02*
X172033333Y-89262295D01*
X172033333Y-89262295D02*
X171957142Y-89262295D01*
X171957142Y-89262295D02*
X171842856Y-89224200D01*
X171842856Y-89224200D02*
X171766666Y-89148009D01*
X171766666Y-89148009D02*
X171728571Y-89071819D01*
X171728571Y-89071819D02*
X171690475Y-88919438D01*
X171690475Y-88919438D02*
X171690475Y-88805152D01*
X171690475Y-88805152D02*
X171728571Y-88652771D01*
X171728571Y-88652771D02*
X171766666Y-88576580D01*
X171766666Y-88576580D02*
X171842856Y-88500390D01*
X171842856Y-88500390D02*
X171957142Y-88462295D01*
X171957142Y-88462295D02*
X172033333Y-88462295D01*
X172033333Y-88462295D02*
X172147618Y-88500390D01*
X172147618Y-88500390D02*
X172185714Y-88538485D01*
X172452380Y-88462295D02*
X172947618Y-88462295D01*
X172947618Y-88462295D02*
X172680952Y-88767057D01*
X172680952Y-88767057D02*
X172795237Y-88767057D01*
X172795237Y-88767057D02*
X172871428Y-88805152D01*
X172871428Y-88805152D02*
X172909523Y-88843247D01*
X172909523Y-88843247D02*
X172947618Y-88919438D01*
X172947618Y-88919438D02*
X172947618Y-89109914D01*
X172947618Y-89109914D02*
X172909523Y-89186104D01*
X172909523Y-89186104D02*
X172871428Y-89224200D01*
X172871428Y-89224200D02*
X172795237Y-89262295D01*
X172795237Y-89262295D02*
X172566666Y-89262295D01*
X172566666Y-89262295D02*
X172490475Y-89224200D01*
X172490475Y-89224200D02*
X172452380Y-89186104D01*
X173328571Y-89262295D02*
X173480952Y-89262295D01*
X173480952Y-89262295D02*
X173557142Y-89224200D01*
X173557142Y-89224200D02*
X173595238Y-89186104D01*
X173595238Y-89186104D02*
X173671428Y-89071819D01*
X173671428Y-89071819D02*
X173709523Y-88919438D01*
X173709523Y-88919438D02*
X173709523Y-88614676D01*
X173709523Y-88614676D02*
X173671428Y-88538485D01*
X173671428Y-88538485D02*
X173633333Y-88500390D01*
X173633333Y-88500390D02*
X173557142Y-88462295D01*
X173557142Y-88462295D02*
X173404761Y-88462295D01*
X173404761Y-88462295D02*
X173328571Y-88500390D01*
X173328571Y-88500390D02*
X173290476Y-88538485D01*
X173290476Y-88538485D02*
X173252380Y-88614676D01*
X173252380Y-88614676D02*
X173252380Y-88805152D01*
X173252380Y-88805152D02*
X173290476Y-88881342D01*
X173290476Y-88881342D02*
X173328571Y-88919438D01*
X173328571Y-88919438D02*
X173404761Y-88957533D01*
X173404761Y-88957533D02*
X173557142Y-88957533D01*
X173557142Y-88957533D02*
X173633333Y-88919438D01*
X173633333Y-88919438D02*
X173671428Y-88881342D01*
X173671428Y-88881342D02*
X173709523Y-88805152D01*
X114738095Y-97854819D02*
X114738095Y-98664342D01*
X114738095Y-98664342D02*
X114785714Y-98759580D01*
X114785714Y-98759580D02*
X114833333Y-98807200D01*
X114833333Y-98807200D02*
X114928571Y-98854819D01*
X114928571Y-98854819D02*
X115119047Y-98854819D01*
X115119047Y-98854819D02*
X115214285Y-98807200D01*
X115214285Y-98807200D02*
X115261904Y-98759580D01*
X115261904Y-98759580D02*
X115309523Y-98664342D01*
X115309523Y-98664342D02*
X115309523Y-97854819D01*
X115738095Y-97950057D02*
X115785714Y-97902438D01*
X115785714Y-97902438D02*
X115880952Y-97854819D01*
X115880952Y-97854819D02*
X116119047Y-97854819D01*
X116119047Y-97854819D02*
X116214285Y-97902438D01*
X116214285Y-97902438D02*
X116261904Y-97950057D01*
X116261904Y-97950057D02*
X116309523Y-98045295D01*
X116309523Y-98045295D02*
X116309523Y-98140533D01*
X116309523Y-98140533D02*
X116261904Y-98283390D01*
X116261904Y-98283390D02*
X115690476Y-98854819D01*
X115690476Y-98854819D02*
X116309523Y-98854819D01*
X186685714Y-92186104D02*
X186647618Y-92224200D01*
X186647618Y-92224200D02*
X186533333Y-92262295D01*
X186533333Y-92262295D02*
X186457142Y-92262295D01*
X186457142Y-92262295D02*
X186342856Y-92224200D01*
X186342856Y-92224200D02*
X186266666Y-92148009D01*
X186266666Y-92148009D02*
X186228571Y-92071819D01*
X186228571Y-92071819D02*
X186190475Y-91919438D01*
X186190475Y-91919438D02*
X186190475Y-91805152D01*
X186190475Y-91805152D02*
X186228571Y-91652771D01*
X186228571Y-91652771D02*
X186266666Y-91576580D01*
X186266666Y-91576580D02*
X186342856Y-91500390D01*
X186342856Y-91500390D02*
X186457142Y-91462295D01*
X186457142Y-91462295D02*
X186533333Y-91462295D01*
X186533333Y-91462295D02*
X186647618Y-91500390D01*
X186647618Y-91500390D02*
X186685714Y-91538485D01*
X187371428Y-91728961D02*
X187371428Y-92262295D01*
X187180952Y-91424200D02*
X186990475Y-91995628D01*
X186990475Y-91995628D02*
X187485714Y-91995628D01*
X187904761Y-91805152D02*
X187828571Y-91767057D01*
X187828571Y-91767057D02*
X187790476Y-91728961D01*
X187790476Y-91728961D02*
X187752380Y-91652771D01*
X187752380Y-91652771D02*
X187752380Y-91614676D01*
X187752380Y-91614676D02*
X187790476Y-91538485D01*
X187790476Y-91538485D02*
X187828571Y-91500390D01*
X187828571Y-91500390D02*
X187904761Y-91462295D01*
X187904761Y-91462295D02*
X188057142Y-91462295D01*
X188057142Y-91462295D02*
X188133333Y-91500390D01*
X188133333Y-91500390D02*
X188171428Y-91538485D01*
X188171428Y-91538485D02*
X188209523Y-91614676D01*
X188209523Y-91614676D02*
X188209523Y-91652771D01*
X188209523Y-91652771D02*
X188171428Y-91728961D01*
X188171428Y-91728961D02*
X188133333Y-91767057D01*
X188133333Y-91767057D02*
X188057142Y-91805152D01*
X188057142Y-91805152D02*
X187904761Y-91805152D01*
X187904761Y-91805152D02*
X187828571Y-91843247D01*
X187828571Y-91843247D02*
X187790476Y-91881342D01*
X187790476Y-91881342D02*
X187752380Y-91957533D01*
X187752380Y-91957533D02*
X187752380Y-92109914D01*
X187752380Y-92109914D02*
X187790476Y-92186104D01*
X187790476Y-92186104D02*
X187828571Y-92224200D01*
X187828571Y-92224200D02*
X187904761Y-92262295D01*
X187904761Y-92262295D02*
X188057142Y-92262295D01*
X188057142Y-92262295D02*
X188133333Y-92224200D01*
X188133333Y-92224200D02*
X188171428Y-92186104D01*
X188171428Y-92186104D02*
X188209523Y-92109914D01*
X188209523Y-92109914D02*
X188209523Y-91957533D01*
X188209523Y-91957533D02*
X188171428Y-91881342D01*
X188171428Y-91881342D02*
X188133333Y-91843247D01*
X188133333Y-91843247D02*
X188057142Y-91805152D01*
X116572142Y-94964819D02*
X116238809Y-94488628D01*
X116000714Y-94964819D02*
X116000714Y-93964819D01*
X116000714Y-93964819D02*
X116381666Y-93964819D01*
X116381666Y-93964819D02*
X116476904Y-94012438D01*
X116476904Y-94012438D02*
X116524523Y-94060057D01*
X116524523Y-94060057D02*
X116572142Y-94155295D01*
X116572142Y-94155295D02*
X116572142Y-94298152D01*
X116572142Y-94298152D02*
X116524523Y-94393390D01*
X116524523Y-94393390D02*
X116476904Y-94441009D01*
X116476904Y-94441009D02*
X116381666Y-94488628D01*
X116381666Y-94488628D02*
X116000714Y-94488628D01*
X117524523Y-94964819D02*
X116953095Y-94964819D01*
X117238809Y-94964819D02*
X117238809Y-93964819D01*
X117238809Y-93964819D02*
X117143571Y-94107676D01*
X117143571Y-94107676D02*
X117048333Y-94202914D01*
X117048333Y-94202914D02*
X116953095Y-94250533D01*
X118095952Y-94393390D02*
X118000714Y-94345771D01*
X118000714Y-94345771D02*
X117953095Y-94298152D01*
X117953095Y-94298152D02*
X117905476Y-94202914D01*
X117905476Y-94202914D02*
X117905476Y-94155295D01*
X117905476Y-94155295D02*
X117953095Y-94060057D01*
X117953095Y-94060057D02*
X118000714Y-94012438D01*
X118000714Y-94012438D02*
X118095952Y-93964819D01*
X118095952Y-93964819D02*
X118286428Y-93964819D01*
X118286428Y-93964819D02*
X118381666Y-94012438D01*
X118381666Y-94012438D02*
X118429285Y-94060057D01*
X118429285Y-94060057D02*
X118476904Y-94155295D01*
X118476904Y-94155295D02*
X118476904Y-94202914D01*
X118476904Y-94202914D02*
X118429285Y-94298152D01*
X118429285Y-94298152D02*
X118381666Y-94345771D01*
X118381666Y-94345771D02*
X118286428Y-94393390D01*
X118286428Y-94393390D02*
X118095952Y-94393390D01*
X118095952Y-94393390D02*
X118000714Y-94441009D01*
X118000714Y-94441009D02*
X117953095Y-94488628D01*
X117953095Y-94488628D02*
X117905476Y-94583866D01*
X117905476Y-94583866D02*
X117905476Y-94774342D01*
X117905476Y-94774342D02*
X117953095Y-94869580D01*
X117953095Y-94869580D02*
X118000714Y-94917200D01*
X118000714Y-94917200D02*
X118095952Y-94964819D01*
X118095952Y-94964819D02*
X118286428Y-94964819D01*
X118286428Y-94964819D02*
X118381666Y-94917200D01*
X118381666Y-94917200D02*
X118429285Y-94869580D01*
X118429285Y-94869580D02*
X118476904Y-94774342D01*
X118476904Y-94774342D02*
X118476904Y-94583866D01*
X118476904Y-94583866D02*
X118429285Y-94488628D01*
X118429285Y-94488628D02*
X118381666Y-94441009D01*
X118381666Y-94441009D02*
X118286428Y-94393390D01*
X117590476Y-89312295D02*
X118047619Y-89312295D01*
X117819047Y-90112295D02*
X117819047Y-89312295D01*
X118314286Y-90112295D02*
X118314286Y-89312295D01*
X118314286Y-89312295D02*
X118619048Y-89312295D01*
X118619048Y-89312295D02*
X118695238Y-89350390D01*
X118695238Y-89350390D02*
X118733333Y-89388485D01*
X118733333Y-89388485D02*
X118771429Y-89464676D01*
X118771429Y-89464676D02*
X118771429Y-89578961D01*
X118771429Y-89578961D02*
X118733333Y-89655152D01*
X118733333Y-89655152D02*
X118695238Y-89693247D01*
X118695238Y-89693247D02*
X118619048Y-89731342D01*
X118619048Y-89731342D02*
X118314286Y-89731342D01*
X119533333Y-90112295D02*
X119076190Y-90112295D01*
X119304762Y-90112295D02*
X119304762Y-89312295D01*
X119304762Y-89312295D02*
X119228571Y-89426580D01*
X119228571Y-89426580D02*
X119152381Y-89502771D01*
X119152381Y-89502771D02*
X119076190Y-89540866D01*
X181786104Y-91514285D02*
X181824200Y-91552381D01*
X181824200Y-91552381D02*
X181862295Y-91666666D01*
X181862295Y-91666666D02*
X181862295Y-91742857D01*
X181862295Y-91742857D02*
X181824200Y-91857143D01*
X181824200Y-91857143D02*
X181748009Y-91933333D01*
X181748009Y-91933333D02*
X181671819Y-91971428D01*
X181671819Y-91971428D02*
X181519438Y-92009524D01*
X181519438Y-92009524D02*
X181405152Y-92009524D01*
X181405152Y-92009524D02*
X181252771Y-91971428D01*
X181252771Y-91971428D02*
X181176580Y-91933333D01*
X181176580Y-91933333D02*
X181100390Y-91857143D01*
X181100390Y-91857143D02*
X181062295Y-91742857D01*
X181062295Y-91742857D02*
X181062295Y-91666666D01*
X181062295Y-91666666D02*
X181100390Y-91552381D01*
X181100390Y-91552381D02*
X181138485Y-91514285D01*
X181328961Y-90828571D02*
X181862295Y-90828571D01*
X181024200Y-91019047D02*
X181595628Y-91209524D01*
X181595628Y-91209524D02*
X181595628Y-90714285D01*
X181062295Y-90257142D02*
X181062295Y-90180952D01*
X181062295Y-90180952D02*
X181100390Y-90104761D01*
X181100390Y-90104761D02*
X181138485Y-90066666D01*
X181138485Y-90066666D02*
X181214676Y-90028571D01*
X181214676Y-90028571D02*
X181367057Y-89990476D01*
X181367057Y-89990476D02*
X181557533Y-89990476D01*
X181557533Y-89990476D02*
X181709914Y-90028571D01*
X181709914Y-90028571D02*
X181786104Y-90066666D01*
X181786104Y-90066666D02*
X181824200Y-90104761D01*
X181824200Y-90104761D02*
X181862295Y-90180952D01*
X181862295Y-90180952D02*
X181862295Y-90257142D01*
X181862295Y-90257142D02*
X181824200Y-90333333D01*
X181824200Y-90333333D02*
X181786104Y-90371428D01*
X181786104Y-90371428D02*
X181709914Y-90409523D01*
X181709914Y-90409523D02*
X181557533Y-90447619D01*
X181557533Y-90447619D02*
X181367057Y-90447619D01*
X181367057Y-90447619D02*
X181214676Y-90409523D01*
X181214676Y-90409523D02*
X181138485Y-90371428D01*
X181138485Y-90371428D02*
X181100390Y-90333333D01*
X181100390Y-90333333D02*
X181062295Y-90257142D01*
X135185714Y-93786104D02*
X135147618Y-93824200D01*
X135147618Y-93824200D02*
X135033333Y-93862295D01*
X135033333Y-93862295D02*
X134957142Y-93862295D01*
X134957142Y-93862295D02*
X134842856Y-93824200D01*
X134842856Y-93824200D02*
X134766666Y-93748009D01*
X134766666Y-93748009D02*
X134728571Y-93671819D01*
X134728571Y-93671819D02*
X134690475Y-93519438D01*
X134690475Y-93519438D02*
X134690475Y-93405152D01*
X134690475Y-93405152D02*
X134728571Y-93252771D01*
X134728571Y-93252771D02*
X134766666Y-93176580D01*
X134766666Y-93176580D02*
X134842856Y-93100390D01*
X134842856Y-93100390D02*
X134957142Y-93062295D01*
X134957142Y-93062295D02*
X135033333Y-93062295D01*
X135033333Y-93062295D02*
X135147618Y-93100390D01*
X135147618Y-93100390D02*
X135185714Y-93138485D01*
X135947618Y-93862295D02*
X135490475Y-93862295D01*
X135719047Y-93862295D02*
X135719047Y-93062295D01*
X135719047Y-93062295D02*
X135642856Y-93176580D01*
X135642856Y-93176580D02*
X135566666Y-93252771D01*
X135566666Y-93252771D02*
X135490475Y-93290866D01*
X136633333Y-93328961D02*
X136633333Y-93862295D01*
X136442857Y-93024200D02*
X136252380Y-93595628D01*
X136252380Y-93595628D02*
X136747619Y-93595628D01*
X182890476Y-86362295D02*
X182890476Y-85562295D01*
X182890476Y-85943247D02*
X183347619Y-85943247D01*
X183347619Y-86362295D02*
X183347619Y-85562295D01*
X183652380Y-85562295D02*
X184147618Y-85562295D01*
X184147618Y-85562295D02*
X183880952Y-85867057D01*
X183880952Y-85867057D02*
X183995237Y-85867057D01*
X183995237Y-85867057D02*
X184071428Y-85905152D01*
X184071428Y-85905152D02*
X184109523Y-85943247D01*
X184109523Y-85943247D02*
X184147618Y-86019438D01*
X184147618Y-86019438D02*
X184147618Y-86209914D01*
X184147618Y-86209914D02*
X184109523Y-86286104D01*
X184109523Y-86286104D02*
X184071428Y-86324200D01*
X184071428Y-86324200D02*
X183995237Y-86362295D01*
X183995237Y-86362295D02*
X183766666Y-86362295D01*
X183766666Y-86362295D02*
X183690475Y-86324200D01*
X183690475Y-86324200D02*
X183652380Y-86286104D01*
X155909524Y-86562295D02*
X155909524Y-85762295D01*
X155909524Y-85762295D02*
X156100000Y-85762295D01*
X156100000Y-85762295D02*
X156214286Y-85800390D01*
X156214286Y-85800390D02*
X156290476Y-85876580D01*
X156290476Y-85876580D02*
X156328571Y-85952771D01*
X156328571Y-85952771D02*
X156366667Y-86105152D01*
X156366667Y-86105152D02*
X156366667Y-86219438D01*
X156366667Y-86219438D02*
X156328571Y-86371819D01*
X156328571Y-86371819D02*
X156290476Y-86448009D01*
X156290476Y-86448009D02*
X156214286Y-86524200D01*
X156214286Y-86524200D02*
X156100000Y-86562295D01*
X156100000Y-86562295D02*
X155909524Y-86562295D01*
X157128571Y-86562295D02*
X156671428Y-86562295D01*
X156900000Y-86562295D02*
X156900000Y-85762295D01*
X156900000Y-85762295D02*
X156823809Y-85876580D01*
X156823809Y-85876580D02*
X156747619Y-85952771D01*
X156747619Y-85952771D02*
X156671428Y-85990866D01*
X167386104Y-91014285D02*
X167424200Y-91052381D01*
X167424200Y-91052381D02*
X167462295Y-91166666D01*
X167462295Y-91166666D02*
X167462295Y-91242857D01*
X167462295Y-91242857D02*
X167424200Y-91357143D01*
X167424200Y-91357143D02*
X167348009Y-91433333D01*
X167348009Y-91433333D02*
X167271819Y-91471428D01*
X167271819Y-91471428D02*
X167119438Y-91509524D01*
X167119438Y-91509524D02*
X167005152Y-91509524D01*
X167005152Y-91509524D02*
X166852771Y-91471428D01*
X166852771Y-91471428D02*
X166776580Y-91433333D01*
X166776580Y-91433333D02*
X166700390Y-91357143D01*
X166700390Y-91357143D02*
X166662295Y-91242857D01*
X166662295Y-91242857D02*
X166662295Y-91166666D01*
X166662295Y-91166666D02*
X166700390Y-91052381D01*
X166700390Y-91052381D02*
X166738485Y-91014285D01*
X166662295Y-90747619D02*
X166662295Y-90252381D01*
X166662295Y-90252381D02*
X166967057Y-90519047D01*
X166967057Y-90519047D02*
X166967057Y-90404762D01*
X166967057Y-90404762D02*
X167005152Y-90328571D01*
X167005152Y-90328571D02*
X167043247Y-90290476D01*
X167043247Y-90290476D02*
X167119438Y-90252381D01*
X167119438Y-90252381D02*
X167309914Y-90252381D01*
X167309914Y-90252381D02*
X167386104Y-90290476D01*
X167386104Y-90290476D02*
X167424200Y-90328571D01*
X167424200Y-90328571D02*
X167462295Y-90404762D01*
X167462295Y-90404762D02*
X167462295Y-90633333D01*
X167462295Y-90633333D02*
X167424200Y-90709524D01*
X167424200Y-90709524D02*
X167386104Y-90747619D01*
X166662295Y-89985714D02*
X166662295Y-89490476D01*
X166662295Y-89490476D02*
X166967057Y-89757142D01*
X166967057Y-89757142D02*
X166967057Y-89642857D01*
X166967057Y-89642857D02*
X167005152Y-89566666D01*
X167005152Y-89566666D02*
X167043247Y-89528571D01*
X167043247Y-89528571D02*
X167119438Y-89490476D01*
X167119438Y-89490476D02*
X167309914Y-89490476D01*
X167309914Y-89490476D02*
X167386104Y-89528571D01*
X167386104Y-89528571D02*
X167424200Y-89566666D01*
X167424200Y-89566666D02*
X167462295Y-89642857D01*
X167462295Y-89642857D02*
X167462295Y-89871428D01*
X167462295Y-89871428D02*
X167424200Y-89947619D01*
X167424200Y-89947619D02*
X167386104Y-89985714D01*
X173461905Y-113454819D02*
X174033333Y-113454819D01*
X173747619Y-114454819D02*
X173747619Y-113454819D01*
X174366667Y-114454819D02*
X174366667Y-113454819D01*
X174366667Y-113454819D02*
X174747619Y-113454819D01*
X174747619Y-113454819D02*
X174842857Y-113502438D01*
X174842857Y-113502438D02*
X174890476Y-113550057D01*
X174890476Y-113550057D02*
X174938095Y-113645295D01*
X174938095Y-113645295D02*
X174938095Y-113788152D01*
X174938095Y-113788152D02*
X174890476Y-113883390D01*
X174890476Y-113883390D02*
X174842857Y-113931009D01*
X174842857Y-113931009D02*
X174747619Y-113978628D01*
X174747619Y-113978628D02*
X174366667Y-113978628D01*
X175890476Y-114454819D02*
X175319048Y-114454819D01*
X175604762Y-114454819D02*
X175604762Y-113454819D01*
X175604762Y-113454819D02*
X175509524Y-113597676D01*
X175509524Y-113597676D02*
X175414286Y-113692914D01*
X175414286Y-113692914D02*
X175319048Y-113740533D01*
X176747619Y-113454819D02*
X176557143Y-113454819D01*
X176557143Y-113454819D02*
X176461905Y-113502438D01*
X176461905Y-113502438D02*
X176414286Y-113550057D01*
X176414286Y-113550057D02*
X176319048Y-113692914D01*
X176319048Y-113692914D02*
X176271429Y-113883390D01*
X176271429Y-113883390D02*
X176271429Y-114264342D01*
X176271429Y-114264342D02*
X176319048Y-114359580D01*
X176319048Y-114359580D02*
X176366667Y-114407200D01*
X176366667Y-114407200D02*
X176461905Y-114454819D01*
X176461905Y-114454819D02*
X176652381Y-114454819D01*
X176652381Y-114454819D02*
X176747619Y-114407200D01*
X176747619Y-114407200D02*
X176795238Y-114359580D01*
X176795238Y-114359580D02*
X176842857Y-114264342D01*
X176842857Y-114264342D02*
X176842857Y-114026247D01*
X176842857Y-114026247D02*
X176795238Y-113931009D01*
X176795238Y-113931009D02*
X176747619Y-113883390D01*
X176747619Y-113883390D02*
X176652381Y-113835771D01*
X176652381Y-113835771D02*
X176461905Y-113835771D01*
X176461905Y-113835771D02*
X176366667Y-113883390D01*
X176366667Y-113883390D02*
X176319048Y-113931009D01*
X176319048Y-113931009D02*
X176271429Y-114026247D01*
X155686104Y-114114285D02*
X155724200Y-114152381D01*
X155724200Y-114152381D02*
X155762295Y-114266666D01*
X155762295Y-114266666D02*
X155762295Y-114342857D01*
X155762295Y-114342857D02*
X155724200Y-114457143D01*
X155724200Y-114457143D02*
X155648009Y-114533333D01*
X155648009Y-114533333D02*
X155571819Y-114571428D01*
X155571819Y-114571428D02*
X155419438Y-114609524D01*
X155419438Y-114609524D02*
X155305152Y-114609524D01*
X155305152Y-114609524D02*
X155152771Y-114571428D01*
X155152771Y-114571428D02*
X155076580Y-114533333D01*
X155076580Y-114533333D02*
X155000390Y-114457143D01*
X155000390Y-114457143D02*
X154962295Y-114342857D01*
X154962295Y-114342857D02*
X154962295Y-114266666D01*
X154962295Y-114266666D02*
X155000390Y-114152381D01*
X155000390Y-114152381D02*
X155038485Y-114114285D01*
X155038485Y-113809524D02*
X155000390Y-113771428D01*
X155000390Y-113771428D02*
X154962295Y-113695238D01*
X154962295Y-113695238D02*
X154962295Y-113504762D01*
X154962295Y-113504762D02*
X155000390Y-113428571D01*
X155000390Y-113428571D02*
X155038485Y-113390476D01*
X155038485Y-113390476D02*
X155114676Y-113352381D01*
X155114676Y-113352381D02*
X155190866Y-113352381D01*
X155190866Y-113352381D02*
X155305152Y-113390476D01*
X155305152Y-113390476D02*
X155762295Y-113847619D01*
X155762295Y-113847619D02*
X155762295Y-113352381D01*
X154962295Y-112666666D02*
X154962295Y-112819047D01*
X154962295Y-112819047D02*
X155000390Y-112895238D01*
X155000390Y-112895238D02*
X155038485Y-112933333D01*
X155038485Y-112933333D02*
X155152771Y-113009523D01*
X155152771Y-113009523D02*
X155305152Y-113047619D01*
X155305152Y-113047619D02*
X155609914Y-113047619D01*
X155609914Y-113047619D02*
X155686104Y-113009523D01*
X155686104Y-113009523D02*
X155724200Y-112971428D01*
X155724200Y-112971428D02*
X155762295Y-112895238D01*
X155762295Y-112895238D02*
X155762295Y-112742857D01*
X155762295Y-112742857D02*
X155724200Y-112666666D01*
X155724200Y-112666666D02*
X155686104Y-112628571D01*
X155686104Y-112628571D02*
X155609914Y-112590476D01*
X155609914Y-112590476D02*
X155419438Y-112590476D01*
X155419438Y-112590476D02*
X155343247Y-112628571D01*
X155343247Y-112628571D02*
X155305152Y-112666666D01*
X155305152Y-112666666D02*
X155267057Y-112742857D01*
X155267057Y-112742857D02*
X155267057Y-112895238D01*
X155267057Y-112895238D02*
X155305152Y-112971428D01*
X155305152Y-112971428D02*
X155343247Y-113009523D01*
X155343247Y-113009523D02*
X155419438Y-113047619D01*
X125666667Y-112886104D02*
X125628571Y-112924200D01*
X125628571Y-112924200D02*
X125514286Y-112962295D01*
X125514286Y-112962295D02*
X125438095Y-112962295D01*
X125438095Y-112962295D02*
X125323809Y-112924200D01*
X125323809Y-112924200D02*
X125247619Y-112848009D01*
X125247619Y-112848009D02*
X125209524Y-112771819D01*
X125209524Y-112771819D02*
X125171428Y-112619438D01*
X125171428Y-112619438D02*
X125171428Y-112505152D01*
X125171428Y-112505152D02*
X125209524Y-112352771D01*
X125209524Y-112352771D02*
X125247619Y-112276580D01*
X125247619Y-112276580D02*
X125323809Y-112200390D01*
X125323809Y-112200390D02*
X125438095Y-112162295D01*
X125438095Y-112162295D02*
X125514286Y-112162295D01*
X125514286Y-112162295D02*
X125628571Y-112200390D01*
X125628571Y-112200390D02*
X125666667Y-112238485D01*
X126352381Y-112162295D02*
X126200000Y-112162295D01*
X126200000Y-112162295D02*
X126123809Y-112200390D01*
X126123809Y-112200390D02*
X126085714Y-112238485D01*
X126085714Y-112238485D02*
X126009524Y-112352771D01*
X126009524Y-112352771D02*
X125971428Y-112505152D01*
X125971428Y-112505152D02*
X125971428Y-112809914D01*
X125971428Y-112809914D02*
X126009524Y-112886104D01*
X126009524Y-112886104D02*
X126047619Y-112924200D01*
X126047619Y-112924200D02*
X126123809Y-112962295D01*
X126123809Y-112962295D02*
X126276190Y-112962295D01*
X126276190Y-112962295D02*
X126352381Y-112924200D01*
X126352381Y-112924200D02*
X126390476Y-112886104D01*
X126390476Y-112886104D02*
X126428571Y-112809914D01*
X126428571Y-112809914D02*
X126428571Y-112619438D01*
X126428571Y-112619438D02*
X126390476Y-112543247D01*
X126390476Y-112543247D02*
X126352381Y-112505152D01*
X126352381Y-112505152D02*
X126276190Y-112467057D01*
X126276190Y-112467057D02*
X126123809Y-112467057D01*
X126123809Y-112467057D02*
X126047619Y-112505152D01*
X126047619Y-112505152D02*
X126009524Y-112543247D01*
X126009524Y-112543247D02*
X125971428Y-112619438D01*
X128866667Y-109386104D02*
X128828571Y-109424200D01*
X128828571Y-109424200D02*
X128714286Y-109462295D01*
X128714286Y-109462295D02*
X128638095Y-109462295D01*
X128638095Y-109462295D02*
X128523809Y-109424200D01*
X128523809Y-109424200D02*
X128447619Y-109348009D01*
X128447619Y-109348009D02*
X128409524Y-109271819D01*
X128409524Y-109271819D02*
X128371428Y-109119438D01*
X128371428Y-109119438D02*
X128371428Y-109005152D01*
X128371428Y-109005152D02*
X128409524Y-108852771D01*
X128409524Y-108852771D02*
X128447619Y-108776580D01*
X128447619Y-108776580D02*
X128523809Y-108700390D01*
X128523809Y-108700390D02*
X128638095Y-108662295D01*
X128638095Y-108662295D02*
X128714286Y-108662295D01*
X128714286Y-108662295D02*
X128828571Y-108700390D01*
X128828571Y-108700390D02*
X128866667Y-108738485D01*
X129133333Y-108662295D02*
X129666667Y-108662295D01*
X129666667Y-108662295D02*
X129323809Y-109462295D01*
X147795180Y-101238095D02*
X146985657Y-101238095D01*
X146985657Y-101238095D02*
X146890419Y-101285714D01*
X146890419Y-101285714D02*
X146842800Y-101333333D01*
X146842800Y-101333333D02*
X146795180Y-101428571D01*
X146795180Y-101428571D02*
X146795180Y-101619047D01*
X146795180Y-101619047D02*
X146842800Y-101714285D01*
X146842800Y-101714285D02*
X146890419Y-101761904D01*
X146890419Y-101761904D02*
X146985657Y-101809523D01*
X146985657Y-101809523D02*
X147795180Y-101809523D01*
X147795180Y-102190476D02*
X147795180Y-102857142D01*
X147795180Y-102857142D02*
X146795180Y-102428571D01*
X185183332Y-111069200D02*
X185297618Y-111107295D01*
X185297618Y-111107295D02*
X185488094Y-111107295D01*
X185488094Y-111107295D02*
X185564285Y-111069200D01*
X185564285Y-111069200D02*
X185602380Y-111031104D01*
X185602380Y-111031104D02*
X185640475Y-110954914D01*
X185640475Y-110954914D02*
X185640475Y-110878723D01*
X185640475Y-110878723D02*
X185602380Y-110802533D01*
X185602380Y-110802533D02*
X185564285Y-110764438D01*
X185564285Y-110764438D02*
X185488094Y-110726342D01*
X185488094Y-110726342D02*
X185335713Y-110688247D01*
X185335713Y-110688247D02*
X185259523Y-110650152D01*
X185259523Y-110650152D02*
X185221428Y-110612057D01*
X185221428Y-110612057D02*
X185183332Y-110535866D01*
X185183332Y-110535866D02*
X185183332Y-110459676D01*
X185183332Y-110459676D02*
X185221428Y-110383485D01*
X185221428Y-110383485D02*
X185259523Y-110345390D01*
X185259523Y-110345390D02*
X185335713Y-110307295D01*
X185335713Y-110307295D02*
X185526190Y-110307295D01*
X185526190Y-110307295D02*
X185640475Y-110345390D01*
X185907142Y-110307295D02*
X186097618Y-111107295D01*
X186097618Y-111107295D02*
X186249999Y-110535866D01*
X186249999Y-110535866D02*
X186402380Y-111107295D01*
X186402380Y-111107295D02*
X186592857Y-110307295D01*
X187316666Y-111107295D02*
X186859523Y-111107295D01*
X187088095Y-111107295D02*
X187088095Y-110307295D01*
X187088095Y-110307295D02*
X187011904Y-110421580D01*
X187011904Y-110421580D02*
X186935714Y-110497771D01*
X186935714Y-110497771D02*
X186859523Y-110535866D01*
X184235714Y-92262295D02*
X183969047Y-91881342D01*
X183778571Y-92262295D02*
X183778571Y-91462295D01*
X183778571Y-91462295D02*
X184083333Y-91462295D01*
X184083333Y-91462295D02*
X184159523Y-91500390D01*
X184159523Y-91500390D02*
X184197618Y-91538485D01*
X184197618Y-91538485D02*
X184235714Y-91614676D01*
X184235714Y-91614676D02*
X184235714Y-91728961D01*
X184235714Y-91728961D02*
X184197618Y-91805152D01*
X184197618Y-91805152D02*
X184159523Y-91843247D01*
X184159523Y-91843247D02*
X184083333Y-91881342D01*
X184083333Y-91881342D02*
X183778571Y-91881342D01*
X184540475Y-91538485D02*
X184578571Y-91500390D01*
X184578571Y-91500390D02*
X184654761Y-91462295D01*
X184654761Y-91462295D02*
X184845237Y-91462295D01*
X184845237Y-91462295D02*
X184921428Y-91500390D01*
X184921428Y-91500390D02*
X184959523Y-91538485D01*
X184959523Y-91538485D02*
X184997618Y-91614676D01*
X184997618Y-91614676D02*
X184997618Y-91690866D01*
X184997618Y-91690866D02*
X184959523Y-91805152D01*
X184959523Y-91805152D02*
X184502380Y-92262295D01*
X184502380Y-92262295D02*
X184997618Y-92262295D01*
X185721428Y-91462295D02*
X185340476Y-91462295D01*
X185340476Y-91462295D02*
X185302380Y-91843247D01*
X185302380Y-91843247D02*
X185340476Y-91805152D01*
X185340476Y-91805152D02*
X185416666Y-91767057D01*
X185416666Y-91767057D02*
X185607142Y-91767057D01*
X185607142Y-91767057D02*
X185683333Y-91805152D01*
X185683333Y-91805152D02*
X185721428Y-91843247D01*
X185721428Y-91843247D02*
X185759523Y-91919438D01*
X185759523Y-91919438D02*
X185759523Y-92109914D01*
X185759523Y-92109914D02*
X185721428Y-92186104D01*
X185721428Y-92186104D02*
X185683333Y-92224200D01*
X185683333Y-92224200D02*
X185607142Y-92262295D01*
X185607142Y-92262295D02*
X185416666Y-92262295D01*
X185416666Y-92262295D02*
X185340476Y-92224200D01*
X185340476Y-92224200D02*
X185302380Y-92186104D01*
X138838095Y-85854819D02*
X139409523Y-85854819D01*
X139123809Y-86854819D02*
X139123809Y-85854819D01*
X139742857Y-86854819D02*
X139742857Y-85854819D01*
X139742857Y-85854819D02*
X140123809Y-85854819D01*
X140123809Y-85854819D02*
X140219047Y-85902438D01*
X140219047Y-85902438D02*
X140266666Y-85950057D01*
X140266666Y-85950057D02*
X140314285Y-86045295D01*
X140314285Y-86045295D02*
X140314285Y-86188152D01*
X140314285Y-86188152D02*
X140266666Y-86283390D01*
X140266666Y-86283390D02*
X140219047Y-86331009D01*
X140219047Y-86331009D02*
X140123809Y-86378628D01*
X140123809Y-86378628D02*
X139742857Y-86378628D01*
X140647619Y-85854819D02*
X141314285Y-85854819D01*
X141314285Y-85854819D02*
X140885714Y-86854819D01*
X161983333Y-113792295D02*
X161983333Y-114363723D01*
X161983333Y-114363723D02*
X161945238Y-114478009D01*
X161945238Y-114478009D02*
X161869047Y-114554200D01*
X161869047Y-114554200D02*
X161754762Y-114592295D01*
X161754762Y-114592295D02*
X161678571Y-114592295D01*
X162326190Y-113868485D02*
X162364286Y-113830390D01*
X162364286Y-113830390D02*
X162440476Y-113792295D01*
X162440476Y-113792295D02*
X162630952Y-113792295D01*
X162630952Y-113792295D02*
X162707143Y-113830390D01*
X162707143Y-113830390D02*
X162745238Y-113868485D01*
X162745238Y-113868485D02*
X162783333Y-113944676D01*
X162783333Y-113944676D02*
X162783333Y-114020866D01*
X162783333Y-114020866D02*
X162745238Y-114135152D01*
X162745238Y-114135152D02*
X162288095Y-114592295D01*
X162288095Y-114592295D02*
X162783333Y-114592295D01*
X163685714Y-99086104D02*
X163647618Y-99124200D01*
X163647618Y-99124200D02*
X163533333Y-99162295D01*
X163533333Y-99162295D02*
X163457142Y-99162295D01*
X163457142Y-99162295D02*
X163342856Y-99124200D01*
X163342856Y-99124200D02*
X163266666Y-99048009D01*
X163266666Y-99048009D02*
X163228571Y-98971819D01*
X163228571Y-98971819D02*
X163190475Y-98819438D01*
X163190475Y-98819438D02*
X163190475Y-98705152D01*
X163190475Y-98705152D02*
X163228571Y-98552771D01*
X163228571Y-98552771D02*
X163266666Y-98476580D01*
X163266666Y-98476580D02*
X163342856Y-98400390D01*
X163342856Y-98400390D02*
X163457142Y-98362295D01*
X163457142Y-98362295D02*
X163533333Y-98362295D01*
X163533333Y-98362295D02*
X163647618Y-98400390D01*
X163647618Y-98400390D02*
X163685714Y-98438485D01*
X163952380Y-98362295D02*
X164447618Y-98362295D01*
X164447618Y-98362295D02*
X164180952Y-98667057D01*
X164180952Y-98667057D02*
X164295237Y-98667057D01*
X164295237Y-98667057D02*
X164371428Y-98705152D01*
X164371428Y-98705152D02*
X164409523Y-98743247D01*
X164409523Y-98743247D02*
X164447618Y-98819438D01*
X164447618Y-98819438D02*
X164447618Y-99009914D01*
X164447618Y-99009914D02*
X164409523Y-99086104D01*
X164409523Y-99086104D02*
X164371428Y-99124200D01*
X164371428Y-99124200D02*
X164295237Y-99162295D01*
X164295237Y-99162295D02*
X164066666Y-99162295D01*
X164066666Y-99162295D02*
X163990475Y-99124200D01*
X163990475Y-99124200D02*
X163952380Y-99086104D01*
X165171428Y-98362295D02*
X164790476Y-98362295D01*
X164790476Y-98362295D02*
X164752380Y-98743247D01*
X164752380Y-98743247D02*
X164790476Y-98705152D01*
X164790476Y-98705152D02*
X164866666Y-98667057D01*
X164866666Y-98667057D02*
X165057142Y-98667057D01*
X165057142Y-98667057D02*
X165133333Y-98705152D01*
X165133333Y-98705152D02*
X165171428Y-98743247D01*
X165171428Y-98743247D02*
X165209523Y-98819438D01*
X165209523Y-98819438D02*
X165209523Y-99009914D01*
X165209523Y-99009914D02*
X165171428Y-99086104D01*
X165171428Y-99086104D02*
X165133333Y-99124200D01*
X165133333Y-99124200D02*
X165057142Y-99162295D01*
X165057142Y-99162295D02*
X164866666Y-99162295D01*
X164866666Y-99162295D02*
X164790476Y-99124200D01*
X164790476Y-99124200D02*
X164752380Y-99086104D01*
X111990476Y-113862295D02*
X111990476Y-113062295D01*
X111990476Y-113443247D02*
X112447619Y-113443247D01*
X112447619Y-113862295D02*
X112447619Y-113062295D01*
X112790475Y-113138485D02*
X112828571Y-113100390D01*
X112828571Y-113100390D02*
X112904761Y-113062295D01*
X112904761Y-113062295D02*
X113095237Y-113062295D01*
X113095237Y-113062295D02*
X113171428Y-113100390D01*
X113171428Y-113100390D02*
X113209523Y-113138485D01*
X113209523Y-113138485D02*
X113247618Y-113214676D01*
X113247618Y-113214676D02*
X113247618Y-113290866D01*
X113247618Y-113290866D02*
X113209523Y-113405152D01*
X113209523Y-113405152D02*
X112752380Y-113862295D01*
X112752380Y-113862295D02*
X113247618Y-113862295D01*
X119441667Y-94242295D02*
X119175000Y-93861342D01*
X118984524Y-94242295D02*
X118984524Y-93442295D01*
X118984524Y-93442295D02*
X119289286Y-93442295D01*
X119289286Y-93442295D02*
X119365476Y-93480390D01*
X119365476Y-93480390D02*
X119403571Y-93518485D01*
X119403571Y-93518485D02*
X119441667Y-93594676D01*
X119441667Y-93594676D02*
X119441667Y-93708961D01*
X119441667Y-93708961D02*
X119403571Y-93785152D01*
X119403571Y-93785152D02*
X119365476Y-93823247D01*
X119365476Y-93823247D02*
X119289286Y-93861342D01*
X119289286Y-93861342D02*
X118984524Y-93861342D01*
X120165476Y-93442295D02*
X119784524Y-93442295D01*
X119784524Y-93442295D02*
X119746428Y-93823247D01*
X119746428Y-93823247D02*
X119784524Y-93785152D01*
X119784524Y-93785152D02*
X119860714Y-93747057D01*
X119860714Y-93747057D02*
X120051190Y-93747057D01*
X120051190Y-93747057D02*
X120127381Y-93785152D01*
X120127381Y-93785152D02*
X120165476Y-93823247D01*
X120165476Y-93823247D02*
X120203571Y-93899438D01*
X120203571Y-93899438D02*
X120203571Y-94089914D01*
X120203571Y-94089914D02*
X120165476Y-94166104D01*
X120165476Y-94166104D02*
X120127381Y-94204200D01*
X120127381Y-94204200D02*
X120051190Y-94242295D01*
X120051190Y-94242295D02*
X119860714Y-94242295D01*
X119860714Y-94242295D02*
X119784524Y-94204200D01*
X119784524Y-94204200D02*
X119746428Y-94166104D01*
X182485714Y-90086104D02*
X182447618Y-90124200D01*
X182447618Y-90124200D02*
X182333333Y-90162295D01*
X182333333Y-90162295D02*
X182257142Y-90162295D01*
X182257142Y-90162295D02*
X182142856Y-90124200D01*
X182142856Y-90124200D02*
X182066666Y-90048009D01*
X182066666Y-90048009D02*
X182028571Y-89971819D01*
X182028571Y-89971819D02*
X181990475Y-89819438D01*
X181990475Y-89819438D02*
X181990475Y-89705152D01*
X181990475Y-89705152D02*
X182028571Y-89552771D01*
X182028571Y-89552771D02*
X182066666Y-89476580D01*
X182066666Y-89476580D02*
X182142856Y-89400390D01*
X182142856Y-89400390D02*
X182257142Y-89362295D01*
X182257142Y-89362295D02*
X182333333Y-89362295D01*
X182333333Y-89362295D02*
X182447618Y-89400390D01*
X182447618Y-89400390D02*
X182485714Y-89438485D01*
X183171428Y-89628961D02*
X183171428Y-90162295D01*
X182980952Y-89324200D02*
X182790475Y-89895628D01*
X182790475Y-89895628D02*
X183285714Y-89895628D01*
X183552380Y-89438485D02*
X183590476Y-89400390D01*
X183590476Y-89400390D02*
X183666666Y-89362295D01*
X183666666Y-89362295D02*
X183857142Y-89362295D01*
X183857142Y-89362295D02*
X183933333Y-89400390D01*
X183933333Y-89400390D02*
X183971428Y-89438485D01*
X183971428Y-89438485D02*
X184009523Y-89514676D01*
X184009523Y-89514676D02*
X184009523Y-89590866D01*
X184009523Y-89590866D02*
X183971428Y-89705152D01*
X183971428Y-89705152D02*
X183514285Y-90162295D01*
X183514285Y-90162295D02*
X184009523Y-90162295D01*
X179871428Y-118993247D02*
X179985714Y-119031342D01*
X179985714Y-119031342D02*
X180023809Y-119069438D01*
X180023809Y-119069438D02*
X180061905Y-119145628D01*
X180061905Y-119145628D02*
X180061905Y-119259914D01*
X180061905Y-119259914D02*
X180023809Y-119336104D01*
X180023809Y-119336104D02*
X179985714Y-119374200D01*
X179985714Y-119374200D02*
X179909524Y-119412295D01*
X179909524Y-119412295D02*
X179604762Y-119412295D01*
X179604762Y-119412295D02*
X179604762Y-118612295D01*
X179604762Y-118612295D02*
X179871428Y-118612295D01*
X179871428Y-118612295D02*
X179947619Y-118650390D01*
X179947619Y-118650390D02*
X179985714Y-118688485D01*
X179985714Y-118688485D02*
X180023809Y-118764676D01*
X180023809Y-118764676D02*
X180023809Y-118840866D01*
X180023809Y-118840866D02*
X179985714Y-118917057D01*
X179985714Y-118917057D02*
X179947619Y-118955152D01*
X179947619Y-118955152D02*
X179871428Y-118993247D01*
X179871428Y-118993247D02*
X179604762Y-118993247D01*
X180290476Y-118612295D02*
X180747619Y-118612295D01*
X180519047Y-119412295D02*
X180519047Y-118612295D01*
X181433333Y-119412295D02*
X180976190Y-119412295D01*
X181204762Y-119412295D02*
X181204762Y-118612295D01*
X181204762Y-118612295D02*
X181128571Y-118726580D01*
X181128571Y-118726580D02*
X181052381Y-118802771D01*
X181052381Y-118802771D02*
X180976190Y-118840866D01*
X169885714Y-89186104D02*
X169847618Y-89224200D01*
X169847618Y-89224200D02*
X169733333Y-89262295D01*
X169733333Y-89262295D02*
X169657142Y-89262295D01*
X169657142Y-89262295D02*
X169542856Y-89224200D01*
X169542856Y-89224200D02*
X169466666Y-89148009D01*
X169466666Y-89148009D02*
X169428571Y-89071819D01*
X169428571Y-89071819D02*
X169390475Y-88919438D01*
X169390475Y-88919438D02*
X169390475Y-88805152D01*
X169390475Y-88805152D02*
X169428571Y-88652771D01*
X169428571Y-88652771D02*
X169466666Y-88576580D01*
X169466666Y-88576580D02*
X169542856Y-88500390D01*
X169542856Y-88500390D02*
X169657142Y-88462295D01*
X169657142Y-88462295D02*
X169733333Y-88462295D01*
X169733333Y-88462295D02*
X169847618Y-88500390D01*
X169847618Y-88500390D02*
X169885714Y-88538485D01*
X170571428Y-88728961D02*
X170571428Y-89262295D01*
X170380952Y-88424200D02*
X170190475Y-88995628D01*
X170190475Y-88995628D02*
X170685714Y-88995628D01*
X171333333Y-88462295D02*
X171180952Y-88462295D01*
X171180952Y-88462295D02*
X171104761Y-88500390D01*
X171104761Y-88500390D02*
X171066666Y-88538485D01*
X171066666Y-88538485D02*
X170990476Y-88652771D01*
X170990476Y-88652771D02*
X170952380Y-88805152D01*
X170952380Y-88805152D02*
X170952380Y-89109914D01*
X170952380Y-89109914D02*
X170990476Y-89186104D01*
X170990476Y-89186104D02*
X171028571Y-89224200D01*
X171028571Y-89224200D02*
X171104761Y-89262295D01*
X171104761Y-89262295D02*
X171257142Y-89262295D01*
X171257142Y-89262295D02*
X171333333Y-89224200D01*
X171333333Y-89224200D02*
X171371428Y-89186104D01*
X171371428Y-89186104D02*
X171409523Y-89109914D01*
X171409523Y-89109914D02*
X171409523Y-88919438D01*
X171409523Y-88919438D02*
X171371428Y-88843247D01*
X171371428Y-88843247D02*
X171333333Y-88805152D01*
X171333333Y-88805152D02*
X171257142Y-88767057D01*
X171257142Y-88767057D02*
X171104761Y-88767057D01*
X171104761Y-88767057D02*
X171028571Y-88805152D01*
X171028571Y-88805152D02*
X170990476Y-88843247D01*
X170990476Y-88843247D02*
X170952380Y-88919438D01*
X165038095Y-91254819D02*
X165038095Y-92064342D01*
X165038095Y-92064342D02*
X165085714Y-92159580D01*
X165085714Y-92159580D02*
X165133333Y-92207200D01*
X165133333Y-92207200D02*
X165228571Y-92254819D01*
X165228571Y-92254819D02*
X165419047Y-92254819D01*
X165419047Y-92254819D02*
X165514285Y-92207200D01*
X165514285Y-92207200D02*
X165561904Y-92159580D01*
X165561904Y-92159580D02*
X165609523Y-92064342D01*
X165609523Y-92064342D02*
X165609523Y-91254819D01*
X166514285Y-91588152D02*
X166514285Y-92254819D01*
X166276190Y-91207200D02*
X166038095Y-91921485D01*
X166038095Y-91921485D02*
X166657142Y-91921485D01*
X164059580Y-94442857D02*
X164107200Y-94490476D01*
X164107200Y-94490476D02*
X164154819Y-94633333D01*
X164154819Y-94633333D02*
X164154819Y-94728571D01*
X164154819Y-94728571D02*
X164107200Y-94871428D01*
X164107200Y-94871428D02*
X164011961Y-94966666D01*
X164011961Y-94966666D02*
X163916723Y-95014285D01*
X163916723Y-95014285D02*
X163726247Y-95061904D01*
X163726247Y-95061904D02*
X163583390Y-95061904D01*
X163583390Y-95061904D02*
X163392914Y-95014285D01*
X163392914Y-95014285D02*
X163297676Y-94966666D01*
X163297676Y-94966666D02*
X163202438Y-94871428D01*
X163202438Y-94871428D02*
X163154819Y-94728571D01*
X163154819Y-94728571D02*
X163154819Y-94633333D01*
X163154819Y-94633333D02*
X163202438Y-94490476D01*
X163202438Y-94490476D02*
X163250057Y-94442857D01*
X163250057Y-94061904D02*
X163202438Y-94014285D01*
X163202438Y-94014285D02*
X163154819Y-93919047D01*
X163154819Y-93919047D02*
X163154819Y-93680952D01*
X163154819Y-93680952D02*
X163202438Y-93585714D01*
X163202438Y-93585714D02*
X163250057Y-93538095D01*
X163250057Y-93538095D02*
X163345295Y-93490476D01*
X163345295Y-93490476D02*
X163440533Y-93490476D01*
X163440533Y-93490476D02*
X163583390Y-93538095D01*
X163583390Y-93538095D02*
X164154819Y-94109523D01*
X164154819Y-94109523D02*
X164154819Y-93490476D01*
X164154819Y-92538095D02*
X164154819Y-93109523D01*
X164154819Y-92823809D02*
X163154819Y-92823809D01*
X163154819Y-92823809D02*
X163297676Y-92919047D01*
X163297676Y-92919047D02*
X163392914Y-93014285D01*
X163392914Y-93014285D02*
X163440533Y-93109523D01*
X119866667Y-100362295D02*
X119600000Y-99981342D01*
X119409524Y-100362295D02*
X119409524Y-99562295D01*
X119409524Y-99562295D02*
X119714286Y-99562295D01*
X119714286Y-99562295D02*
X119790476Y-99600390D01*
X119790476Y-99600390D02*
X119828571Y-99638485D01*
X119828571Y-99638485D02*
X119866667Y-99714676D01*
X119866667Y-99714676D02*
X119866667Y-99828961D01*
X119866667Y-99828961D02*
X119828571Y-99905152D01*
X119828571Y-99905152D02*
X119790476Y-99943247D01*
X119790476Y-99943247D02*
X119714286Y-99981342D01*
X119714286Y-99981342D02*
X119409524Y-99981342D01*
X120171428Y-99638485D02*
X120209524Y-99600390D01*
X120209524Y-99600390D02*
X120285714Y-99562295D01*
X120285714Y-99562295D02*
X120476190Y-99562295D01*
X120476190Y-99562295D02*
X120552381Y-99600390D01*
X120552381Y-99600390D02*
X120590476Y-99638485D01*
X120590476Y-99638485D02*
X120628571Y-99714676D01*
X120628571Y-99714676D02*
X120628571Y-99790866D01*
X120628571Y-99790866D02*
X120590476Y-99905152D01*
X120590476Y-99905152D02*
X120133333Y-100362295D01*
X120133333Y-100362295D02*
X120628571Y-100362295D01*
X128490476Y-99812294D02*
X128490476Y-100459913D01*
X128490476Y-100459913D02*
X128528571Y-100536103D01*
X128528571Y-100536103D02*
X128566666Y-100574199D01*
X128566666Y-100574199D02*
X128642857Y-100612294D01*
X128642857Y-100612294D02*
X128795238Y-100612294D01*
X128795238Y-100612294D02*
X128871428Y-100574199D01*
X128871428Y-100574199D02*
X128909523Y-100536103D01*
X128909523Y-100536103D02*
X128947619Y-100459913D01*
X128947619Y-100459913D02*
X128947619Y-99812294D01*
X129747618Y-100612294D02*
X129290475Y-100612294D01*
X129519047Y-100612294D02*
X129519047Y-99812294D01*
X129519047Y-99812294D02*
X129442856Y-99926579D01*
X129442856Y-99926579D02*
X129366666Y-100002770D01*
X129366666Y-100002770D02*
X129290475Y-100040865D01*
X122013400Y-95323818D02*
X122013400Y-95561913D01*
X121775305Y-95466675D02*
X122013400Y-95561913D01*
X122013400Y-95561913D02*
X122251495Y-95466675D01*
X121870543Y-95752389D02*
X122013400Y-95561913D01*
X122013400Y-95561913D02*
X122156257Y-95752389D01*
X128300000Y-98154819D02*
X128300000Y-98392914D01*
X128061905Y-98297676D02*
X128300000Y-98392914D01*
X128300000Y-98392914D02*
X128538095Y-98297676D01*
X128157143Y-98583390D02*
X128300000Y-98392914D01*
X128300000Y-98392914D02*
X128442857Y-98583390D01*
X131586104Y-112914285D02*
X131624200Y-112952381D01*
X131624200Y-112952381D02*
X131662295Y-113066666D01*
X131662295Y-113066666D02*
X131662295Y-113142857D01*
X131662295Y-113142857D02*
X131624200Y-113257143D01*
X131624200Y-113257143D02*
X131548009Y-113333333D01*
X131548009Y-113333333D02*
X131471819Y-113371428D01*
X131471819Y-113371428D02*
X131319438Y-113409524D01*
X131319438Y-113409524D02*
X131205152Y-113409524D01*
X131205152Y-113409524D02*
X131052771Y-113371428D01*
X131052771Y-113371428D02*
X130976580Y-113333333D01*
X130976580Y-113333333D02*
X130900390Y-113257143D01*
X130900390Y-113257143D02*
X130862295Y-113142857D01*
X130862295Y-113142857D02*
X130862295Y-113066666D01*
X130862295Y-113066666D02*
X130900390Y-112952381D01*
X130900390Y-112952381D02*
X130938485Y-112914285D01*
X131662295Y-112152381D02*
X131662295Y-112609524D01*
X131662295Y-112380952D02*
X130862295Y-112380952D01*
X130862295Y-112380952D02*
X130976580Y-112457143D01*
X130976580Y-112457143D02*
X131052771Y-112533333D01*
X131052771Y-112533333D02*
X131090866Y-112609524D01*
X130938485Y-111847619D02*
X130900390Y-111809523D01*
X130900390Y-111809523D02*
X130862295Y-111733333D01*
X130862295Y-111733333D02*
X130862295Y-111542857D01*
X130862295Y-111542857D02*
X130900390Y-111466666D01*
X130900390Y-111466666D02*
X130938485Y-111428571D01*
X130938485Y-111428571D02*
X131014676Y-111390476D01*
X131014676Y-111390476D02*
X131090866Y-111390476D01*
X131090866Y-111390476D02*
X131205152Y-111428571D01*
X131205152Y-111428571D02*
X131662295Y-111885714D01*
X131662295Y-111885714D02*
X131662295Y-111390476D01*
X174285714Y-100262295D02*
X174019047Y-99881342D01*
X173828571Y-100262295D02*
X173828571Y-99462295D01*
X173828571Y-99462295D02*
X174133333Y-99462295D01*
X174133333Y-99462295D02*
X174209523Y-99500390D01*
X174209523Y-99500390D02*
X174247618Y-99538485D01*
X174247618Y-99538485D02*
X174285714Y-99614676D01*
X174285714Y-99614676D02*
X174285714Y-99728961D01*
X174285714Y-99728961D02*
X174247618Y-99805152D01*
X174247618Y-99805152D02*
X174209523Y-99843247D01*
X174209523Y-99843247D02*
X174133333Y-99881342D01*
X174133333Y-99881342D02*
X173828571Y-99881342D01*
X174590475Y-99538485D02*
X174628571Y-99500390D01*
X174628571Y-99500390D02*
X174704761Y-99462295D01*
X174704761Y-99462295D02*
X174895237Y-99462295D01*
X174895237Y-99462295D02*
X174971428Y-99500390D01*
X174971428Y-99500390D02*
X175009523Y-99538485D01*
X175009523Y-99538485D02*
X175047618Y-99614676D01*
X175047618Y-99614676D02*
X175047618Y-99690866D01*
X175047618Y-99690866D02*
X175009523Y-99805152D01*
X175009523Y-99805152D02*
X174552380Y-100262295D01*
X174552380Y-100262295D02*
X175047618Y-100262295D01*
X175542857Y-99462295D02*
X175619047Y-99462295D01*
X175619047Y-99462295D02*
X175695238Y-99500390D01*
X175695238Y-99500390D02*
X175733333Y-99538485D01*
X175733333Y-99538485D02*
X175771428Y-99614676D01*
X175771428Y-99614676D02*
X175809523Y-99767057D01*
X175809523Y-99767057D02*
X175809523Y-99957533D01*
X175809523Y-99957533D02*
X175771428Y-100109914D01*
X175771428Y-100109914D02*
X175733333Y-100186104D01*
X175733333Y-100186104D02*
X175695238Y-100224200D01*
X175695238Y-100224200D02*
X175619047Y-100262295D01*
X175619047Y-100262295D02*
X175542857Y-100262295D01*
X175542857Y-100262295D02*
X175466666Y-100224200D01*
X175466666Y-100224200D02*
X175428571Y-100186104D01*
X175428571Y-100186104D02*
X175390476Y-100109914D01*
X175390476Y-100109914D02*
X175352380Y-99957533D01*
X175352380Y-99957533D02*
X175352380Y-99767057D01*
X175352380Y-99767057D02*
X175390476Y-99614676D01*
X175390476Y-99614676D02*
X175428571Y-99538485D01*
X175428571Y-99538485D02*
X175466666Y-99500390D01*
X175466666Y-99500390D02*
X175542857Y-99462295D01*
X174275714Y-99197295D02*
X174009047Y-98816342D01*
X173818571Y-99197295D02*
X173818571Y-98397295D01*
X173818571Y-98397295D02*
X174123333Y-98397295D01*
X174123333Y-98397295D02*
X174199523Y-98435390D01*
X174199523Y-98435390D02*
X174237618Y-98473485D01*
X174237618Y-98473485D02*
X174275714Y-98549676D01*
X174275714Y-98549676D02*
X174275714Y-98663961D01*
X174275714Y-98663961D02*
X174237618Y-98740152D01*
X174237618Y-98740152D02*
X174199523Y-98778247D01*
X174199523Y-98778247D02*
X174123333Y-98816342D01*
X174123333Y-98816342D02*
X173818571Y-98816342D01*
X175037618Y-99197295D02*
X174580475Y-99197295D01*
X174809047Y-99197295D02*
X174809047Y-98397295D01*
X174809047Y-98397295D02*
X174732856Y-98511580D01*
X174732856Y-98511580D02*
X174656666Y-98587771D01*
X174656666Y-98587771D02*
X174580475Y-98625866D01*
X175418571Y-99197295D02*
X175570952Y-99197295D01*
X175570952Y-99197295D02*
X175647142Y-99159200D01*
X175647142Y-99159200D02*
X175685238Y-99121104D01*
X175685238Y-99121104D02*
X175761428Y-99006819D01*
X175761428Y-99006819D02*
X175799523Y-98854438D01*
X175799523Y-98854438D02*
X175799523Y-98549676D01*
X175799523Y-98549676D02*
X175761428Y-98473485D01*
X175761428Y-98473485D02*
X175723333Y-98435390D01*
X175723333Y-98435390D02*
X175647142Y-98397295D01*
X175647142Y-98397295D02*
X175494761Y-98397295D01*
X175494761Y-98397295D02*
X175418571Y-98435390D01*
X175418571Y-98435390D02*
X175380476Y-98473485D01*
X175380476Y-98473485D02*
X175342380Y-98549676D01*
X175342380Y-98549676D02*
X175342380Y-98740152D01*
X175342380Y-98740152D02*
X175380476Y-98816342D01*
X175380476Y-98816342D02*
X175418571Y-98854438D01*
X175418571Y-98854438D02*
X175494761Y-98892533D01*
X175494761Y-98892533D02*
X175647142Y-98892533D01*
X175647142Y-98892533D02*
X175723333Y-98854438D01*
X175723333Y-98854438D02*
X175761428Y-98816342D01*
X175761428Y-98816342D02*
X175799523Y-98740152D01*
X124866667Y-108386104D02*
X124828571Y-108424200D01*
X124828571Y-108424200D02*
X124714286Y-108462295D01*
X124714286Y-108462295D02*
X124638095Y-108462295D01*
X124638095Y-108462295D02*
X124523809Y-108424200D01*
X124523809Y-108424200D02*
X124447619Y-108348009D01*
X124447619Y-108348009D02*
X124409524Y-108271819D01*
X124409524Y-108271819D02*
X124371428Y-108119438D01*
X124371428Y-108119438D02*
X124371428Y-108005152D01*
X124371428Y-108005152D02*
X124409524Y-107852771D01*
X124409524Y-107852771D02*
X124447619Y-107776580D01*
X124447619Y-107776580D02*
X124523809Y-107700390D01*
X124523809Y-107700390D02*
X124638095Y-107662295D01*
X124638095Y-107662295D02*
X124714286Y-107662295D01*
X124714286Y-107662295D02*
X124828571Y-107700390D01*
X124828571Y-107700390D02*
X124866667Y-107738485D01*
X125590476Y-107662295D02*
X125209524Y-107662295D01*
X125209524Y-107662295D02*
X125171428Y-108043247D01*
X125171428Y-108043247D02*
X125209524Y-108005152D01*
X125209524Y-108005152D02*
X125285714Y-107967057D01*
X125285714Y-107967057D02*
X125476190Y-107967057D01*
X125476190Y-107967057D02*
X125552381Y-108005152D01*
X125552381Y-108005152D02*
X125590476Y-108043247D01*
X125590476Y-108043247D02*
X125628571Y-108119438D01*
X125628571Y-108119438D02*
X125628571Y-108309914D01*
X125628571Y-108309914D02*
X125590476Y-108386104D01*
X125590476Y-108386104D02*
X125552381Y-108424200D01*
X125552381Y-108424200D02*
X125476190Y-108462295D01*
X125476190Y-108462295D02*
X125285714Y-108462295D01*
X125285714Y-108462295D02*
X125209524Y-108424200D01*
X125209524Y-108424200D02*
X125171428Y-108386104D01*
D14*
%TO.C,TP8*%
X142700000Y-91500000D02*
G75*
G02*
X141300000Y-91500000I-700000J0D01*
G01*
X141300000Y-91500000D02*
G75*
G02*
X142700000Y-91500000I700000J0D01*
G01*
%TO.C,R16*%
X172556359Y-90920000D02*
X172863641Y-90920000D01*
X172556359Y-91680000D02*
X172863641Y-91680000D01*
%TO.C,TP14*%
X145200000Y-89600000D02*
G75*
G02*
X143800000Y-89600000I-700000J0D01*
G01*
X143800000Y-89600000D02*
G75*
G02*
X145200000Y-89600000I700000J0D01*
G01*
%TO.C,TP2*%
X122100000Y-87100000D02*
X122100000Y-88900000D01*
X122100000Y-88900000D02*
X125900000Y-88900000D01*
X125900000Y-87100000D02*
X122100000Y-87100000D01*
X125900000Y-88900000D02*
X125900000Y-87100000D01*
%TO.C,C4*%
X128127836Y-91140000D02*
X127912164Y-91140000D01*
X128127836Y-91860000D02*
X127912164Y-91860000D01*
%TO.C,U5*%
X179040000Y-92290000D02*
X182260000Y-92290000D01*
X179040000Y-92490000D02*
X179040000Y-92290000D01*
X179040000Y-95510000D02*
X179040000Y-95310000D01*
X182260000Y-92290000D02*
X182260000Y-92490000D01*
X182260000Y-95310000D02*
X182260000Y-95510000D01*
X182260000Y-95510000D02*
X179040000Y-95510000D01*
X178490000Y-92490000D02*
X178250000Y-92160000D01*
X178730000Y-92160000D01*
X178490000Y-92490000D01*
G36*
X178490000Y-92490000D02*
G01*
X178250000Y-92160000D01*
X178730000Y-92160000D01*
X178490000Y-92490000D01*
G37*
%TO.C,TP6*%
X141900000Y-113500000D02*
G75*
G02*
X140500000Y-113500000I-700000J0D01*
G01*
X140500000Y-113500000D02*
G75*
G02*
X141900000Y-113500000I700000J0D01*
G01*
%TO.C,R7*%
X139956359Y-96150000D02*
X140263641Y-96150000D01*
X139956359Y-96910000D02*
X140263641Y-96910000D01*
%TO.C,R26*%
X186370000Y-95753641D02*
X186370000Y-95446359D01*
X187130000Y-95753641D02*
X187130000Y-95446359D01*
%TO.C,C13*%
X128892164Y-113140000D02*
X129107836Y-113140000D01*
X128892164Y-113860000D02*
X129107836Y-113860000D01*
%TO.C,R9*%
X139956359Y-99120000D02*
X140263641Y-99120000D01*
X139956359Y-99880000D02*
X140263641Y-99880000D01*
%TO.C,C16*%
X146020336Y-112640000D02*
X145804664Y-112640000D01*
X146020336Y-113360000D02*
X145804664Y-113360000D01*
%TO.C,TP15*%
X154200000Y-88750000D02*
G75*
G02*
X152800000Y-88750000I-700000J0D01*
G01*
X152800000Y-88750000D02*
G75*
G02*
X154200000Y-88750000I700000J0D01*
G01*
%TO.C,R8*%
X139956359Y-97620000D02*
X140263641Y-97620000D01*
X139956359Y-98380000D02*
X140263641Y-98380000D01*
%TO.C,R27*%
X184370000Y-95446359D02*
X184370000Y-95753641D01*
X185130000Y-95446359D02*
X185130000Y-95753641D01*
%TO.C,R17*%
X172913641Y-92060340D02*
X172606359Y-92060340D01*
X172913641Y-92820340D02*
X172606359Y-92820340D01*
%TO.C,R12*%
X156343641Y-108970000D02*
X156036359Y-108970000D01*
X156343641Y-109730000D02*
X156036359Y-109730000D01*
%TO.C,TP4*%
X138060000Y-88000000D02*
G75*
G02*
X136660000Y-88000000I-700000J0D01*
G01*
X136660000Y-88000000D02*
G75*
G02*
X138060000Y-88000000I700000J0D01*
G01*
%TO.C,C49*%
X186390000Y-97892164D02*
X186390000Y-98107836D01*
X187110000Y-97892164D02*
X187110000Y-98107836D01*
%TO.C,TP3*%
X135600000Y-88000000D02*
G75*
G02*
X134200000Y-88000000I-700000J0D01*
G01*
X134200000Y-88000000D02*
G75*
G02*
X135600000Y-88000000I700000J0D01*
G01*
%TO.C,C27*%
X156082164Y-110540000D02*
X156297836Y-110540000D01*
X156082164Y-111260000D02*
X156297836Y-111260000D01*
%TO.C,C43*%
X178140000Y-102637164D02*
X178140000Y-102852836D01*
X178860000Y-102637164D02*
X178860000Y-102852836D01*
%TO.C,C9*%
X129520000Y-91627836D02*
X129520000Y-91412164D01*
X130240000Y-91627836D02*
X130240000Y-91412164D01*
%TO.C,C44*%
X179127836Y-108140000D02*
X178912164Y-108140000D01*
X179127836Y-108860000D02*
X178912164Y-108860000D01*
%TO.C,TP11*%
X143900000Y-113900000D02*
G75*
G02*
X142500000Y-113900000I-700000J0D01*
G01*
X142500000Y-113900000D02*
G75*
G02*
X143900000Y-113900000I700000J0D01*
G01*
%TO.C,C1*%
X121160000Y-102407836D02*
X121160000Y-102192164D01*
X121880000Y-102407836D02*
X121880000Y-102192164D01*
%TO.C,C45*%
X167840000Y-99492164D02*
X167840000Y-99707836D01*
X168560000Y-99492164D02*
X168560000Y-99707836D01*
%TO.C,TP5*%
X154700000Y-94200000D02*
G75*
G02*
X153300000Y-94200000I-700000J0D01*
G01*
X153300000Y-94200000D02*
G75*
G02*
X154700000Y-94200000I700000J0D01*
G01*
%TO.C,C8*%
X128872164Y-111640000D02*
X129087836Y-111640000D01*
X128872164Y-112360000D02*
X129087836Y-112360000D01*
%TO.C,R3*%
X120163641Y-103820000D02*
X119856359Y-103820000D01*
X120163641Y-104580000D02*
X119856359Y-104580000D01*
%TO.C,TP10*%
X144200000Y-111000000D02*
G75*
G02*
X142800000Y-111000000I-700000J0D01*
G01*
X142800000Y-111000000D02*
G75*
G02*
X144200000Y-111000000I700000J0D01*
G01*
%TO.C,C11*%
X132490000Y-110162164D02*
X132490000Y-110377836D01*
X133210000Y-110162164D02*
X133210000Y-110377836D01*
%TO.C,R1*%
X120163641Y-100820000D02*
X119856359Y-100820000D01*
X120163641Y-101580000D02*
X119856359Y-101580000D01*
%TO.C,L5*%
X169140000Y-100000200D02*
X169140000Y-99799800D01*
X169860000Y-100000200D02*
X169860000Y-99799800D01*
%TO.C,L7*%
X181640000Y-107897700D02*
X181640000Y-107697300D01*
X182360000Y-107897700D02*
X182360000Y-107697300D01*
%TO.C,R22*%
X179720000Y-96756359D02*
X179720000Y-97063641D01*
X180480000Y-96756359D02*
X180480000Y-97063641D01*
%TO.C,R21*%
X175120000Y-105856359D02*
X175120000Y-106163641D01*
X175880000Y-105856359D02*
X175880000Y-106163641D01*
%TO.C,Y2*%
X147287500Y-113575000D02*
X147287500Y-114925000D01*
X149037500Y-113575000D02*
X149037500Y-114925000D01*
%TO.C,R10*%
X139856359Y-100620000D02*
X140163641Y-100620000D01*
X139856359Y-101380000D02*
X140163641Y-101380000D01*
%TO.C,R23*%
X176540000Y-94006359D02*
X176540000Y-94313641D01*
X177300000Y-94006359D02*
X177300000Y-94313641D01*
%TO.C,C3*%
X120865000Y-95542164D02*
X120865000Y-95757836D01*
X121585000Y-95542164D02*
X121585000Y-95757836D01*
%TO.C,C17*%
X146020336Y-115140000D02*
X145804664Y-115140000D01*
X146020336Y-115860000D02*
X145804664Y-115860000D01*
%TO.C,R13*%
X156282500Y-116278641D02*
X156282500Y-115971359D01*
X157042500Y-116278641D02*
X157042500Y-115971359D01*
%TO.C,C15*%
X133990000Y-110377836D02*
X133990000Y-110162164D01*
X134710000Y-110377836D02*
X134710000Y-110162164D01*
%TO.C,TP9*%
X142200000Y-111500000D02*
G75*
G02*
X140800000Y-111500000I-700000J0D01*
G01*
X140800000Y-111500000D02*
G75*
G02*
X142200000Y-111500000I700000J0D01*
G01*
%TO.C,R4*%
X120163641Y-104820000D02*
X119856359Y-104820000D01*
X120163641Y-105580000D02*
X119856359Y-105580000D01*
%TO.C,R15*%
X159153641Y-89120000D02*
X158846359Y-89120000D01*
X159153641Y-89880000D02*
X158846359Y-89880000D01*
%TO.C,R11*%
X153336359Y-116245000D02*
X153643641Y-116245000D01*
X153336359Y-117005000D02*
X153643641Y-117005000D01*
%TO.C,J3*%
X160840000Y-88880000D02*
X160840000Y-87500000D01*
X162220000Y-88880000D02*
X160840000Y-88880000D01*
X163490000Y-86120000D02*
X181380000Y-86120000D01*
X163490000Y-88880000D02*
X163490000Y-86120000D01*
X163490000Y-88880000D02*
X181380000Y-88880000D01*
X181380000Y-88880000D02*
X181380000Y-86120000D01*
D11*
%TO.C,D2*%
X157960000Y-87750000D02*
G75*
G02*
X157860000Y-87750000I-50000J0D01*
G01*
X157860000Y-87750000D02*
G75*
G02*
X157960000Y-87750000I50000J0D01*
G01*
D14*
%TO.C,C41*%
X175140000Y-102892164D02*
X175140000Y-103107836D01*
X175860000Y-102892164D02*
X175860000Y-103107836D01*
%TO.C,C10*%
X131490000Y-91627836D02*
X131490000Y-91412164D01*
X132210000Y-91627836D02*
X132210000Y-91412164D01*
D15*
%TO.C,G\u002A\u002A\u002A*%
G36*
X130648044Y-118319262D02*
G01*
X130727935Y-118351206D01*
X130798496Y-118407896D01*
X130804293Y-118414318D01*
X130860134Y-118498681D01*
X130890211Y-118597228D01*
X130896879Y-118684370D01*
X130892826Y-118748490D01*
X130882536Y-118810652D01*
X130875828Y-118835024D01*
X130841329Y-118903651D01*
X130789482Y-118969673D01*
X130730645Y-119020676D01*
X130711366Y-119032145D01*
X130642968Y-119052054D01*
X130564394Y-119051689D01*
X130490063Y-119031673D01*
X130470439Y-119021751D01*
X130399600Y-118962404D01*
X130344315Y-118876824D01*
X130316411Y-118804138D01*
X130298608Y-118731126D01*
X130295353Y-118668192D01*
X130306763Y-118599907D01*
X130318290Y-118557974D01*
X130354873Y-118474581D01*
X130409118Y-118400313D01*
X130473056Y-118345527D01*
X130488633Y-118336595D01*
X130565912Y-118313810D01*
X130648044Y-118319262D01*
G37*
G36*
X130954726Y-116130654D02*
G01*
X130945155Y-116162446D01*
X130916459Y-116217047D01*
X130868253Y-116295103D01*
X130800149Y-116397261D01*
X130769833Y-116441295D01*
X130713608Y-116522924D01*
X130664216Y-116595643D01*
X130624445Y-116655266D01*
X130597081Y-116697607D01*
X130584912Y-116718478D01*
X130584548Y-116719662D01*
X130599340Y-116724426D01*
X130640064Y-116728306D01*
X130700383Y-116730890D01*
X130769440Y-116731765D01*
X130955018Y-116731765D01*
X130955018Y-116804383D01*
X130955018Y-116877000D01*
X130648411Y-116877000D01*
X130341803Y-116877000D01*
X130342855Y-116816486D01*
X130346094Y-116790827D01*
X130356537Y-116760473D01*
X130376562Y-116721289D01*
X130408545Y-116669141D01*
X130454863Y-116599897D01*
X130517892Y-116509423D01*
X130526104Y-116497776D01*
X130708301Y-116239580D01*
X130525052Y-116235033D01*
X130341803Y-116230487D01*
X130341803Y-116158382D01*
X130341803Y-116086276D01*
X130648411Y-116086276D01*
X130955018Y-116086276D01*
X130954726Y-116130654D01*
G37*
G36*
X130213202Y-117323429D02*
G01*
X130242747Y-117335756D01*
X130292261Y-117375814D01*
X130328103Y-117431822D01*
X130341803Y-117490215D01*
X130327291Y-117546235D01*
X130286587Y-117608862D01*
X130223938Y-117673975D01*
X130143593Y-117737457D01*
X130049798Y-117795187D01*
X130002922Y-117818858D01*
X129892543Y-117856280D01*
X129768164Y-117874575D01*
X129642174Y-117872992D01*
X129526961Y-117850781D01*
X129518805Y-117848166D01*
X129428390Y-117810175D01*
X129338366Y-117758267D01*
X129255165Y-117697526D01*
X129185218Y-117633038D01*
X129134955Y-117569887D01*
X129114757Y-117528690D01*
X129108240Y-117461975D01*
X129129888Y-117400155D01*
X129175774Y-117351571D01*
X129205840Y-117335157D01*
X129260041Y-117319662D01*
X129309519Y-117324008D01*
X129361469Y-117350530D01*
X129423086Y-117401566D01*
X129429874Y-117407936D01*
X129528132Y-117482222D01*
X129631128Y-117525640D01*
X129735848Y-117538232D01*
X129839274Y-117520040D01*
X129938390Y-117471108D01*
X130022657Y-117399522D01*
X130088451Y-117343536D01*
X130151029Y-117318443D01*
X130213202Y-117323429D01*
G37*
G36*
X132859211Y-115618916D02*
G01*
X132857963Y-115640606D01*
X132853051Y-115663787D01*
X132842722Y-115691366D01*
X132825227Y-115726248D01*
X132798813Y-115771339D01*
X132761728Y-115829546D01*
X132712221Y-115903774D01*
X132648541Y-115996929D01*
X132568935Y-116111917D01*
X132517494Y-116185858D01*
X132468448Y-116256860D01*
X132426703Y-116318387D01*
X132395434Y-116365673D01*
X132377816Y-116393952D01*
X132375094Y-116399677D01*
X132390301Y-116402928D01*
X132432204Y-116405688D01*
X132495223Y-116407740D01*
X132573782Y-116408869D01*
X132617153Y-116409021D01*
X132859211Y-116409021D01*
X132859211Y-116505844D01*
X132859211Y-116602668D01*
X132455781Y-116602668D01*
X132052350Y-116602668D01*
X132052785Y-116534084D01*
X132054370Y-116511267D01*
X132060211Y-116486936D01*
X132072378Y-116457562D01*
X132092944Y-116419615D01*
X132123978Y-116369563D01*
X132167553Y-116303877D01*
X132225740Y-116219026D01*
X132300609Y-116111481D01*
X132301306Y-116110482D01*
X132549392Y-115755463D01*
X132300871Y-115751019D01*
X132052350Y-115746575D01*
X132052350Y-115650161D01*
X132052350Y-115553748D01*
X132455781Y-115553748D01*
X132859211Y-115553748D01*
X132859211Y-115618916D01*
G37*
G36*
X131104367Y-117340405D02*
G01*
X131171280Y-117393555D01*
X131188487Y-117411052D01*
X131250432Y-117469449D01*
X131308982Y-117505580D01*
X131375315Y-117524140D01*
X131460611Y-117529823D01*
X131471410Y-117529864D01*
X131573380Y-117522065D01*
X131655800Y-117496046D01*
X131728137Y-117447719D01*
X131779147Y-117396975D01*
X131841754Y-117342432D01*
X131904712Y-117319443D01*
X131970347Y-117327350D01*
X131992777Y-117336526D01*
X132047471Y-117374468D01*
X132078028Y-117427553D01*
X132087107Y-117500971D01*
X132086536Y-117519421D01*
X132071131Y-117561768D01*
X132032164Y-117613560D01*
X131974969Y-117669871D01*
X131904882Y-117725772D01*
X131827237Y-117776336D01*
X131782043Y-117800682D01*
X131713675Y-117833274D01*
X131661046Y-117853498D01*
X131611629Y-117864567D01*
X131552897Y-117869693D01*
X131506689Y-117871285D01*
X131437525Y-117872000D01*
X131376521Y-117870727D01*
X131334082Y-117867742D01*
X131326229Y-117866493D01*
X131253416Y-117843306D01*
X131171634Y-117804477D01*
X131087811Y-117754766D01*
X131008876Y-117698930D01*
X130941756Y-117641728D01*
X130893379Y-117587920D01*
X130875101Y-117556622D01*
X130861976Y-117489846D01*
X130873627Y-117424099D01*
X130907604Y-117370551D01*
X130917897Y-117361466D01*
X130980801Y-117324933D01*
X131041916Y-117317722D01*
X131104367Y-117340405D01*
G37*
G36*
X131842265Y-115440787D02*
G01*
X131829793Y-115500419D01*
X131797880Y-115561816D01*
X131773826Y-115596928D01*
X131735636Y-115652558D01*
X131687475Y-115722644D01*
X131633511Y-115801120D01*
X131596459Y-115854975D01*
X131544959Y-115930331D01*
X131500531Y-115996334D01*
X131466157Y-116048473D01*
X131444818Y-116082237D01*
X131439135Y-116092999D01*
X131454253Y-116096565D01*
X131495534Y-116099512D01*
X131556866Y-116101553D01*
X131632141Y-116102405D01*
X131640850Y-116102413D01*
X131842566Y-116102413D01*
X131842566Y-116183100D01*
X131842566Y-116263786D01*
X131503684Y-116263786D01*
X131390524Y-116263599D01*
X131305600Y-116262816D01*
X131244876Y-116261102D01*
X131204315Y-116258122D01*
X131179880Y-116253542D01*
X131167534Y-116247028D01*
X131163240Y-116238244D01*
X131162944Y-116235546D01*
X131162859Y-116208338D01*
X131167783Y-116180527D01*
X131179905Y-116148062D01*
X131201415Y-116106895D01*
X131234502Y-116052977D01*
X131281356Y-115982258D01*
X131344167Y-115890690D01*
X131368071Y-115856213D01*
X131426635Y-115771585D01*
X131478438Y-115696169D01*
X131520824Y-115633880D01*
X131551136Y-115588630D01*
X131566718Y-115564333D01*
X131568233Y-115561337D01*
X131553106Y-115558518D01*
X131511757Y-115555549D01*
X131450237Y-115552758D01*
X131374594Y-115550473D01*
X131362483Y-115550195D01*
X131156734Y-115545679D01*
X131156734Y-115464993D01*
X131156734Y-115384307D01*
X131499643Y-115384307D01*
X131842552Y-115384307D01*
X131842265Y-115440787D01*
G37*
D14*
%TO.C,C2*%
X121140000Y-104287836D02*
X121140000Y-104072164D01*
X121860000Y-104287836D02*
X121860000Y-104072164D01*
%TO.C,TP12*%
X145700000Y-108500000D02*
G75*
G02*
X144300000Y-108500000I-700000J0D01*
G01*
X144300000Y-108500000D02*
G75*
G02*
X145700000Y-108500000I700000J0D01*
G01*
D16*
%TO.C,U3*%
X150350000Y-110124000D02*
X151061500Y-110124000D01*
X150350000Y-115501000D02*
X151061500Y-115501000D01*
X154150000Y-110124000D02*
X153438500Y-110124000D01*
X154150000Y-115501000D02*
X153438500Y-115501000D01*
D11*
X149900000Y-115312500D02*
G75*
G02*
X149800000Y-115312500I-50000J0D01*
G01*
X149800000Y-115312500D02*
G75*
G02*
X149900000Y-115312500I50000J0D01*
G01*
D14*
%TO.C,Y1*%
X144640000Y-98690000D02*
X144640000Y-101210000D01*
X146360000Y-98690000D02*
X144640000Y-98690000D01*
X146360000Y-101210000D02*
X146360000Y-98690000D01*
%TO.C,R14*%
X156643641Y-89120000D02*
X156336359Y-89120000D01*
X156643641Y-89880000D02*
X156336359Y-89880000D01*
%TO.C,U6*%
X176990000Y-104952500D02*
X177040000Y-104952500D01*
X176990000Y-106772500D02*
X176990000Y-104952500D01*
X177040000Y-106772500D02*
X176990000Y-106772500D01*
X178940000Y-106772500D02*
X178160000Y-106772500D01*
X180060000Y-104952500D02*
X180110000Y-104952500D01*
X180110000Y-104952500D02*
X180110000Y-106772500D01*
X180110000Y-106772500D02*
X180060000Y-106772500D01*
X180390000Y-104652500D02*
X180060000Y-104412500D01*
X180390000Y-104172500D01*
X180390000Y-104652500D01*
G36*
X180390000Y-104652500D02*
G01*
X180060000Y-104412500D01*
X180390000Y-104172500D01*
X180390000Y-104652500D01*
G37*
%TO.C,D4*%
X115815000Y-104800000D02*
X115815000Y-102100000D01*
X116315000Y-101600000D02*
X117815000Y-101600000D01*
X117815000Y-101600000D02*
X117815000Y-104800000D01*
X117815000Y-104800000D02*
X115815000Y-104800000D01*
D17*
X116078500Y-101800000D02*
G75*
G02*
X115951500Y-101800000I-63500J0D01*
G01*
X115951500Y-101800000D02*
G75*
G02*
X116078500Y-101800000I63500J0D01*
G01*
D14*
%TO.C,R24*%
X176620000Y-102571359D02*
X176620000Y-102878641D01*
X177380000Y-102571359D02*
X177380000Y-102878641D01*
%TO.C,D3*%
X181000000Y-100990000D02*
X181000000Y-105000000D01*
X183000000Y-100990000D02*
X181000000Y-100990000D01*
X183000000Y-100990000D02*
X183000000Y-105000000D01*
%TO.C,C39*%
X170740000Y-90607836D02*
X170740000Y-90392164D01*
X171460000Y-90607836D02*
X171460000Y-90392164D01*
%TO.C,U2*%
X114925000Y-97080000D02*
X114925000Y-95120000D01*
X116125000Y-95120000D02*
X114925000Y-95120000D01*
X116125000Y-97080000D02*
X116125000Y-95120000D01*
%TO.C,C48*%
X186390000Y-93487836D02*
X186390000Y-93272164D01*
X187110000Y-93487836D02*
X187110000Y-93272164D01*
%TO.C,R18*%
X117061359Y-95300000D02*
X117368641Y-95300000D01*
X117061359Y-96060000D02*
X117368641Y-96060000D01*
%TO.C,TP1*%
X116600000Y-87100000D02*
X116600000Y-88900000D01*
X116600000Y-88900000D02*
X120400000Y-88900000D01*
X120400000Y-87100000D02*
X116600000Y-87100000D01*
X120400000Y-88900000D02*
X120400000Y-87100000D01*
%TO.C,C40*%
X176560000Y-91762164D02*
X176560000Y-91977836D01*
X177280000Y-91762164D02*
X177280000Y-91977836D01*
%TO.C,C14*%
X136240000Y-95107836D02*
X136240000Y-94892164D01*
X136960000Y-95107836D02*
X136960000Y-94892164D01*
D11*
%TO.C,D1*%
X155460000Y-87750000D02*
G75*
G02*
X155360000Y-87750000I-50000J0D01*
G01*
X155360000Y-87750000D02*
G75*
G02*
X155460000Y-87750000I50000J0D01*
G01*
D14*
%TO.C,C33*%
X167740000Y-90607836D02*
X167740000Y-90392164D01*
X168460000Y-90607836D02*
X168460000Y-90392164D01*
%TO.C,TP16*%
X176100000Y-112200000D02*
G75*
G02*
X174700000Y-112200000I-700000J0D01*
G01*
X174700000Y-112200000D02*
G75*
G02*
X176100000Y-112200000I700000J0D01*
G01*
%TO.C,C26*%
X156302500Y-113607836D02*
X156302500Y-113392164D01*
X157022500Y-113607836D02*
X157022500Y-113392164D01*
%TO.C,C6*%
X126392164Y-111140000D02*
X126607836Y-111140000D01*
X126392164Y-111860000D02*
X126607836Y-111860000D01*
%TO.C,C7*%
X128892164Y-109640000D02*
X129107836Y-109640000D01*
X128892164Y-110360000D02*
X129107836Y-110360000D01*
D11*
%TO.C,U7*%
X148250000Y-96600000D02*
X148250000Y-99100000D01*
X148250000Y-96600000D02*
X150750000Y-96600000D01*
X148250000Y-107400000D02*
X148250000Y-104900000D01*
X148250000Y-107400000D02*
X150750000Y-107400000D01*
X160150000Y-96600000D02*
X162400000Y-96600000D01*
D14*
X160790000Y-107870000D02*
X160110000Y-107870000D01*
X160450000Y-107400000D01*
X160790000Y-107870000D01*
G36*
X160790000Y-107870000D02*
G01*
X160110000Y-107870000D01*
X160450000Y-107400000D01*
X160790000Y-107870000D01*
G37*
%TO.C,SW1*%
X185090000Y-108190000D02*
X185090000Y-106985000D01*
X185583292Y-108190000D02*
X185090000Y-108190000D01*
X185932077Y-106985000D02*
X185090000Y-106985000D01*
X187410000Y-106985000D02*
X186567923Y-106985000D01*
X187410000Y-108190000D02*
X186916708Y-108190000D01*
X187410000Y-108190000D02*
X187410000Y-106985000D01*
X187410000Y-109000000D02*
X187410000Y-109810000D01*
X187410000Y-109810000D02*
X186250000Y-109810000D01*
%TO.C,R25*%
X184320000Y-93523641D02*
X184320000Y-93216359D01*
X185080000Y-93523641D02*
X185080000Y-93216359D01*
%TO.C,TP7*%
X140600000Y-88000000D02*
G75*
G02*
X139200000Y-88000000I-700000J0D01*
G01*
X139200000Y-88000000D02*
G75*
G02*
X140600000Y-88000000I700000J0D01*
G01*
%TO.C,J2*%
X159210000Y-111050000D02*
X160485000Y-111050000D01*
X160485000Y-110985000D02*
X160485000Y-111050000D01*
X160485000Y-110985000D02*
X164115000Y-110985000D01*
X160485000Y-117490000D02*
X160485000Y-117555000D01*
X160485000Y-117555000D02*
X164115000Y-117555000D01*
X164115000Y-110985000D02*
X164115000Y-111050000D01*
X164115000Y-117490000D02*
X164115000Y-117555000D01*
%TO.C,C35*%
X164307836Y-97240000D02*
X164092164Y-97240000D01*
X164307836Y-97960000D02*
X164092164Y-97960000D01*
%TO.C,R5*%
X119045000Y-95486359D02*
X119045000Y-95793641D01*
X119805000Y-95486359D02*
X119805000Y-95793641D01*
%TO.C,C42*%
X178462164Y-91040000D02*
X178677836Y-91040000D01*
X178462164Y-91760000D02*
X178677836Y-91760000D01*
%TO.C,BT1*%
X177440000Y-110090000D02*
X177440000Y-117910000D01*
X177440000Y-111690000D02*
X178360000Y-111690000D01*
X177440000Y-117910000D02*
X183560000Y-117910000D01*
X178360000Y-110090000D02*
X177440000Y-110090000D01*
X178360000Y-111690000D02*
X178360000Y-110090000D01*
X178640000Y-111690000D02*
X178360000Y-111690000D01*
X178640000Y-111690000D02*
X178640000Y-110475000D01*
X178700000Y-115650000D02*
X178700000Y-117910000D01*
X179200000Y-115650000D02*
X179200000Y-117910000D01*
X180000000Y-113550000D02*
X181000000Y-113550000D01*
X180000000Y-117910000D02*
X180000000Y-113550000D01*
X181000000Y-113550000D02*
X181000000Y-117910000D01*
X182640000Y-110090000D02*
X182640000Y-111690000D01*
X182640000Y-111690000D02*
X182360000Y-111690000D01*
X183560000Y-110090000D02*
X182640000Y-110090000D01*
X183560000Y-111690000D02*
X182640000Y-111690000D01*
X183560000Y-117910000D02*
X183560000Y-110090000D01*
X178200000Y-114050000D02*
X179200000Y-114050000D01*
X179200000Y-115650000D01*
X178200000Y-115650000D01*
X178200000Y-114050000D01*
X181800000Y-114050000D02*
X182800000Y-114050000D01*
X182800000Y-115650000D01*
X181800000Y-115650000D01*
X181800000Y-114050000D01*
%TO.C,C46*%
X169740000Y-90627836D02*
X169740000Y-90412164D01*
X170460000Y-90627836D02*
X170460000Y-90412164D01*
%TO.C,U4*%
X166240000Y-92740000D02*
X166715000Y-92740000D01*
X166240000Y-93215000D02*
X166240000Y-92740000D01*
X166240000Y-97960000D02*
X166240000Y-97485000D01*
X166715000Y-97960000D02*
X166240000Y-97960000D01*
X170985000Y-92740000D02*
X171460000Y-92740000D01*
X171460000Y-92740000D02*
X171460000Y-93215000D01*
X171460000Y-97485000D02*
X171460000Y-97960000D01*
X171460000Y-97960000D02*
X170985000Y-97960000D01*
X167340000Y-98790000D02*
X166860000Y-98790000D01*
X167100000Y-98460000D01*
X167340000Y-98790000D01*
G36*
X167340000Y-98790000D02*
G01*
X166860000Y-98790000D01*
X167100000Y-98460000D01*
X167340000Y-98790000D01*
G37*
%TO.C,C21*%
X163940000Y-96227836D02*
X163940000Y-96012164D01*
X164660000Y-96227836D02*
X164660000Y-96012164D01*
%TO.C,R2*%
X120163641Y-101820000D02*
X119856359Y-101820000D01*
X120163641Y-102580000D02*
X119856359Y-102580000D01*
D18*
%TO.C,U1*%
X123867600Y-95017599D02*
X123867600Y-96027559D01*
X123867600Y-104472439D02*
X123867600Y-105482399D01*
X123867600Y-105482399D02*
X124877560Y-105482399D01*
X124877560Y-95017599D02*
X123867600Y-95017599D01*
X133322440Y-105482399D02*
X134332400Y-105482399D01*
X134332400Y-95017599D02*
X133322440Y-95017599D01*
X134332400Y-96027559D02*
X134332400Y-95017599D01*
X134332400Y-105482399D02*
X134332400Y-104472439D01*
D15*
G36*
X122394400Y-101190500D02*
G01*
X122140400Y-101190500D01*
X122140400Y-100809500D01*
X122394400Y-100809500D01*
X122394400Y-101190500D01*
G37*
G36*
X127040499Y-107209599D02*
G01*
X126659499Y-107209599D01*
X126659499Y-106955599D01*
X127040499Y-106955599D01*
X127040499Y-107209599D01*
G37*
G36*
X127540501Y-93544399D02*
G01*
X127159501Y-93544399D01*
X127159501Y-93290399D01*
X127540501Y-93290399D01*
X127540501Y-93544399D01*
G37*
G36*
X132040500Y-107209599D02*
G01*
X131659500Y-107209599D01*
X131659500Y-106955599D01*
X132040500Y-106955599D01*
X132040500Y-107209599D01*
G37*
G36*
X132540501Y-93544399D02*
G01*
X132159501Y-93544399D01*
X132159501Y-93290399D01*
X132540501Y-93290399D01*
X132540501Y-93544399D01*
G37*
G36*
X136059600Y-100690499D02*
G01*
X135805600Y-100690499D01*
X135805600Y-100309498D01*
X136059600Y-100309498D01*
X136059600Y-100690499D01*
G37*
D14*
%TO.C,C12*%
X130990000Y-110162164D02*
X130990000Y-110377836D01*
X131710000Y-110162164D02*
X131710000Y-110377836D01*
D15*
%TO.C,G\u002A\u002A\u002A*%
G36*
X124433333Y-117509302D02*
G01*
X124428571Y-117514065D01*
X124423809Y-117509302D01*
X124428571Y-117504538D01*
X124433333Y-117509302D01*
G37*
G36*
X124452380Y-117452137D02*
G01*
X124447619Y-117456901D01*
X124442857Y-117452137D01*
X124447619Y-117447374D01*
X124452380Y-117452137D01*
G37*
G36*
X126566666Y-117804650D02*
G01*
X126561904Y-117809414D01*
X126557142Y-117804650D01*
X126561904Y-117799887D01*
X126566666Y-117804650D01*
G37*
G36*
X123833610Y-118800952D02*
G01*
X123878219Y-118805353D01*
X123898451Y-118809372D01*
X123923788Y-118817533D01*
X123935015Y-118826719D01*
X123936753Y-118841408D01*
X123936296Y-118846041D01*
X123932507Y-118862474D01*
X123922398Y-118869344D01*
X123900125Y-118870036D01*
X123895238Y-118869809D01*
X123780118Y-118866180D01*
X123682931Y-118867750D01*
X123603279Y-118874539D01*
X123542857Y-118886005D01*
X123504755Y-118896044D01*
X123471849Y-118904675D01*
X123450026Y-118910355D01*
X123447039Y-118911122D01*
X123424684Y-118908629D01*
X123415021Y-118901187D01*
X123406517Y-118881959D01*
X123414707Y-118864211D01*
X123440160Y-118847589D01*
X123483444Y-118831740D01*
X123545128Y-118816311D01*
X123555238Y-118814171D01*
X123601174Y-118807070D01*
X123657115Y-118802126D01*
X123717924Y-118799410D01*
X123778467Y-118798995D01*
X123833610Y-118800952D01*
G37*
G36*
X124691787Y-118776416D02*
G01*
X124756350Y-118781500D01*
X124818291Y-118789967D01*
X124875449Y-118801995D01*
X124898011Y-118808304D01*
X124938894Y-118824323D01*
X124960894Y-118841703D01*
X124963962Y-118860391D01*
X124957805Y-118870919D01*
X124948677Y-118879605D01*
X124936933Y-118883527D01*
X124918666Y-118882462D01*
X124889969Y-118876190D01*
X124847619Y-118864683D01*
X124801694Y-118855462D01*
X124742077Y-118848875D01*
X124673955Y-118845026D01*
X124602517Y-118844025D01*
X124532950Y-118845976D01*
X124470441Y-118850987D01*
X124434704Y-118856181D01*
X124398029Y-118862401D01*
X124375085Y-118864411D01*
X124360994Y-118862059D01*
X124350877Y-118855192D01*
X124349151Y-118853515D01*
X124340105Y-118836163D01*
X124347878Y-118820592D01*
X124370311Y-118806981D01*
X124405244Y-118795506D01*
X124450515Y-118786346D01*
X124503966Y-118779680D01*
X124563435Y-118775684D01*
X124626762Y-118774537D01*
X124691787Y-118776416D01*
G37*
G36*
X124153081Y-118935377D02*
G01*
X124178100Y-118968268D01*
X124188885Y-118989231D01*
X124201127Y-119027329D01*
X124208587Y-119074381D01*
X124211252Y-119124972D01*
X124209108Y-119173685D01*
X124202140Y-119215105D01*
X124190337Y-119243817D01*
X124189534Y-119244938D01*
X124163671Y-119268415D01*
X124135845Y-119274018D01*
X124108763Y-119261425D01*
X124102388Y-119255356D01*
X124075674Y-119214060D01*
X124058065Y-119157644D01*
X124052036Y-119104885D01*
X124099999Y-119104885D01*
X124102776Y-119126001D01*
X124109790Y-119153836D01*
X124119075Y-119182494D01*
X124128658Y-119206081D01*
X124136572Y-119218700D01*
X124138282Y-119219467D01*
X124146567Y-119211298D01*
X124152994Y-119193266D01*
X124158810Y-119168813D01*
X124163035Y-119153503D01*
X124164849Y-119134382D01*
X124162564Y-119108530D01*
X124157447Y-119082664D01*
X124150769Y-119063502D01*
X124144906Y-119057501D01*
X124127304Y-119065008D01*
X124109961Y-119082279D01*
X124100340Y-119101438D01*
X124099999Y-119104885D01*
X124052036Y-119104885D01*
X124050108Y-119088010D01*
X124049714Y-119071792D01*
X124053383Y-119014065D01*
X124064608Y-118969070D01*
X124081789Y-118937755D01*
X124103327Y-118921069D01*
X124127624Y-118919960D01*
X124153081Y-118935377D01*
G37*
G36*
X122925022Y-117745802D02*
G01*
X122966666Y-117762157D01*
X123019046Y-117798299D01*
X123056254Y-117845869D01*
X123078360Y-117904986D01*
X123085432Y-117972083D01*
X123084665Y-118011899D01*
X123080802Y-118040101D01*
X123072069Y-118064087D01*
X123056891Y-118090923D01*
X123016307Y-118141231D01*
X122966219Y-118175366D01*
X122905596Y-118193911D01*
X122867594Y-118197667D01*
X122817970Y-118196859D01*
X122780462Y-118190579D01*
X122770688Y-118187020D01*
X122714683Y-118152148D01*
X122671795Y-118105878D01*
X122643074Y-118051262D01*
X122629567Y-117991352D01*
X122629591Y-117990806D01*
X122675304Y-117990806D01*
X122680287Y-118016546D01*
X122703225Y-118068279D01*
X122739247Y-118108843D01*
X122785061Y-118136801D01*
X122837373Y-118150715D01*
X122892891Y-118149149D01*
X122945240Y-118132191D01*
X122989194Y-118101278D01*
X123020229Y-118059680D01*
X123037977Y-118011048D01*
X123042067Y-117959033D01*
X123032130Y-117907285D01*
X123007796Y-117859454D01*
X122976312Y-117825270D01*
X122927030Y-117794815D01*
X122874066Y-117782975D01*
X122818116Y-117789817D01*
X122777922Y-117805571D01*
X122730312Y-117838994D01*
X122696289Y-117883276D01*
X122677428Y-117935015D01*
X122675304Y-117990806D01*
X122629591Y-117990806D01*
X122632324Y-117929201D01*
X122652391Y-117867859D01*
X122657593Y-117857743D01*
X122695753Y-117806184D01*
X122744927Y-117768174D01*
X122801764Y-117744749D01*
X122862913Y-117736946D01*
X122925022Y-117745802D01*
G37*
G36*
X123244060Y-117052746D02*
G01*
X123310746Y-117073870D01*
X123374258Y-117113285D01*
X123374602Y-117113558D01*
X123422546Y-117162571D01*
X123455204Y-117219577D01*
X123472894Y-117281636D01*
X123475930Y-117345806D01*
X123464630Y-117409149D01*
X123439309Y-117468724D01*
X123400284Y-117521592D01*
X123347869Y-117564812D01*
X123324666Y-117578014D01*
X123282759Y-117593641D01*
X123233188Y-117603777D01*
X123183338Y-117607554D01*
X123140594Y-117604108D01*
X123128571Y-117601000D01*
X123057637Y-117568353D01*
X122999187Y-117521378D01*
X122953596Y-117460389D01*
X122946485Y-117447374D01*
X122927946Y-117393124D01*
X122922412Y-117331142D01*
X122922743Y-117328281D01*
X122971931Y-117328281D01*
X122975133Y-117380763D01*
X122985223Y-117419345D01*
X122989433Y-117428319D01*
X123028032Y-117483898D01*
X123076474Y-117525134D01*
X123132045Y-117551094D01*
X123192030Y-117560841D01*
X123253716Y-117553442D01*
X123300607Y-117535502D01*
X123354527Y-117498750D01*
X123394217Y-117452381D01*
X123419648Y-117399341D01*
X123430790Y-117342577D01*
X123427615Y-117285036D01*
X123410091Y-117229666D01*
X123378191Y-117179412D01*
X123331884Y-117137223D01*
X123304761Y-117120822D01*
X123260163Y-117105645D01*
X123207062Y-117099660D01*
X123153134Y-117102883D01*
X123106056Y-117115328D01*
X123095238Y-117120418D01*
X123040049Y-117158869D01*
X123001326Y-117206768D01*
X122978740Y-117264668D01*
X122971931Y-117328281D01*
X122922743Y-117328281D01*
X122929781Y-117267520D01*
X122949948Y-117208350D01*
X122950580Y-117207053D01*
X122990611Y-117146476D01*
X123044282Y-117098652D01*
X123106744Y-117066354D01*
X123175595Y-117050159D01*
X123244060Y-117052746D01*
G37*
G36*
X122878595Y-116202054D02*
G01*
X122920252Y-116213847D01*
X122993790Y-116248812D01*
X123055276Y-116296743D01*
X123104005Y-116355303D01*
X123139270Y-116422153D01*
X123160366Y-116494953D01*
X123166586Y-116571366D01*
X123157225Y-116649053D01*
X123131577Y-116725675D01*
X123094479Y-116791079D01*
X123046449Y-116844425D01*
X122985506Y-116887066D01*
X122915388Y-116917552D01*
X122839832Y-116934431D01*
X122762575Y-116936256D01*
X122730726Y-116932219D01*
X122655139Y-116909823D01*
X122587328Y-116871775D01*
X122529087Y-116820515D01*
X122482209Y-116758481D01*
X122448488Y-116688111D01*
X122429719Y-116611847D01*
X122428552Y-116565890D01*
X122476198Y-116565890D01*
X122477557Y-116611094D01*
X122482675Y-116645539D01*
X122493130Y-116677397D01*
X122501294Y-116695854D01*
X122542653Y-116764058D01*
X122595112Y-116818527D01*
X122656357Y-116858370D01*
X122724074Y-116882693D01*
X122795949Y-116890605D01*
X122869666Y-116881211D01*
X122928486Y-116860603D01*
X122990141Y-116823110D01*
X123044846Y-116771925D01*
X123086982Y-116712361D01*
X123088794Y-116709001D01*
X123100723Y-116684438D01*
X123108219Y-116661536D01*
X123112287Y-116634632D01*
X123113934Y-116598066D01*
X123114183Y-116566091D01*
X123113589Y-116519192D01*
X123111059Y-116485572D01*
X123105648Y-116459483D01*
X123096411Y-116435174D01*
X123090703Y-116423180D01*
X123051648Y-116363565D01*
X122999138Y-116311491D01*
X122938631Y-116272232D01*
X122930462Y-116268344D01*
X122865093Y-116247709D01*
X122794645Y-116241212D01*
X122725294Y-116248879D01*
X122670285Y-116267266D01*
X122602019Y-116308330D01*
X122547956Y-116361448D01*
X122507235Y-116426387D01*
X122490797Y-116462352D01*
X122481399Y-116492227D01*
X122477160Y-116524465D01*
X122476198Y-116565890D01*
X122428552Y-116565890D01*
X122427694Y-116532125D01*
X122428753Y-116521646D01*
X122446769Y-116443702D01*
X122480366Y-116373693D01*
X122527214Y-116313079D01*
X122584981Y-116263321D01*
X122651334Y-116225879D01*
X122723942Y-116202214D01*
X122800473Y-116193785D01*
X122878595Y-116202054D01*
G37*
G36*
X125503186Y-117034634D02*
G01*
X125692307Y-117062035D01*
X125874684Y-117105552D01*
X125971428Y-117136419D01*
X126142069Y-117205763D01*
X126309126Y-117292572D01*
X126470950Y-117395351D01*
X126625889Y-117512609D01*
X126772295Y-117642852D01*
X126908517Y-117784589D01*
X127032904Y-117936326D01*
X127143808Y-118096570D01*
X127239577Y-118263830D01*
X127257792Y-118300074D01*
X127284181Y-118357752D01*
X127310880Y-118422913D01*
X127336272Y-118490945D01*
X127358740Y-118557234D01*
X127376667Y-118617168D01*
X127388438Y-118666132D01*
X127390738Y-118679387D01*
X127395043Y-118700674D01*
X127402557Y-118719557D01*
X127415807Y-118739767D01*
X127437316Y-118765034D01*
X127469608Y-118799087D01*
X127476667Y-118806342D01*
X127553271Y-118892204D01*
X127619298Y-118981086D01*
X127674128Y-119071224D01*
X127717141Y-119160855D01*
X127747716Y-119248214D01*
X127765232Y-119331538D01*
X127769070Y-119409063D01*
X127758608Y-119479026D01*
X127734126Y-119538140D01*
X127701894Y-119581682D01*
X127657332Y-119626454D01*
X127606120Y-119667473D01*
X127553934Y-119699757D01*
X127544745Y-119704317D01*
X127487274Y-119728475D01*
X127426620Y-119747095D01*
X127357679Y-119761454D01*
X127275345Y-119772826D01*
X127266666Y-119773795D01*
X127220134Y-119779213D01*
X127187887Y-119784347D01*
X127165249Y-119790687D01*
X127147540Y-119799726D01*
X127130082Y-119812956D01*
X127121850Y-119819991D01*
X127044633Y-119875450D01*
X126960089Y-119913999D01*
X126867200Y-119935966D01*
X126764949Y-119941681D01*
X126747619Y-119941108D01*
X126672200Y-119934344D01*
X126609612Y-119920448D01*
X126554468Y-119897849D01*
X126511920Y-119872331D01*
X126477654Y-119849037D01*
X126442291Y-119880998D01*
X126399328Y-119912423D01*
X126342227Y-119943199D01*
X126275823Y-119971018D01*
X126207580Y-119992868D01*
X126169729Y-120001865D01*
X126130845Y-120007968D01*
X126085794Y-120011684D01*
X126029441Y-120013522D01*
X125995238Y-120013897D01*
X125916786Y-120012784D01*
X125852220Y-120007784D01*
X125796618Y-119998005D01*
X125745054Y-119982552D01*
X125692604Y-119960533D01*
X125687378Y-119958058D01*
X125641423Y-119936115D01*
X125530235Y-119958421D01*
X125459731Y-119971910D01*
X125393089Y-119983078D01*
X125327407Y-119992152D01*
X125259784Y-119999359D01*
X125187318Y-120004928D01*
X125107108Y-120009084D01*
X125016253Y-120012055D01*
X124911851Y-120014069D01*
X124804761Y-120015243D01*
X124718610Y-120015697D01*
X124633757Y-120015675D01*
X124553227Y-120015211D01*
X124480042Y-120014340D01*
X124417228Y-120013098D01*
X124367808Y-120011518D01*
X124338095Y-120009898D01*
X124163417Y-119993689D01*
X124005673Y-119972629D01*
X123863306Y-119946457D01*
X123734763Y-119914908D01*
X123680952Y-119898868D01*
X123631928Y-119883830D01*
X123594349Y-119874025D01*
X123561657Y-119868458D01*
X123527295Y-119866136D01*
X123484707Y-119866064D01*
X123466666Y-119866386D01*
X123334289Y-119863624D01*
X123213233Y-119849971D01*
X123104587Y-119825725D01*
X123009440Y-119791185D01*
X122928879Y-119746648D01*
X122876425Y-119704743D01*
X122827774Y-119651344D01*
X122795702Y-119597023D01*
X122778135Y-119537014D01*
X122772994Y-119467179D01*
X122773428Y-119461730D01*
X122871637Y-119461730D01*
X122879139Y-119525552D01*
X122902225Y-119580202D01*
X122942517Y-119629472D01*
X122944102Y-119630997D01*
X122993497Y-119668073D01*
X123057651Y-119700740D01*
X123132536Y-119727703D01*
X123214119Y-119747668D01*
X123298371Y-119759340D01*
X123351493Y-119761857D01*
X123426796Y-119762527D01*
X123360124Y-119715688D01*
X123275448Y-119645037D01*
X123205725Y-119562637D01*
X123151052Y-119468665D01*
X123111526Y-119363298D01*
X123087244Y-119246714D01*
X123083049Y-119210643D01*
X123076190Y-119139891D01*
X123023809Y-119182617D01*
X122958940Y-119243867D01*
X122912445Y-119307241D01*
X122883676Y-119373931D01*
X122871982Y-119445130D01*
X122871637Y-119461730D01*
X122773428Y-119461730D01*
X122779128Y-119390168D01*
X122798249Y-119321085D01*
X122832401Y-119253273D01*
X122844601Y-119234113D01*
X122881521Y-119186052D01*
X122927664Y-119137201D01*
X122947214Y-119119924D01*
X123150864Y-119119924D01*
X123151335Y-119212220D01*
X123160660Y-119295019D01*
X123172058Y-119343323D01*
X123206274Y-119432294D01*
X123253095Y-119513017D01*
X123313054Y-119585737D01*
X123386685Y-119650696D01*
X123474521Y-119708141D01*
X123577094Y-119758314D01*
X123694938Y-119801460D01*
X123828585Y-119837823D01*
X123978568Y-119867647D01*
X124145421Y-119891177D01*
X124329676Y-119908656D01*
X124419047Y-119914651D01*
X124487363Y-119917631D01*
X124568865Y-119919444D01*
X124659852Y-119920151D01*
X124756627Y-119919815D01*
X124855491Y-119918497D01*
X124952746Y-119916259D01*
X125044693Y-119913163D01*
X125127633Y-119909271D01*
X125197868Y-119904646D01*
X125238095Y-119900939D01*
X125302956Y-119893395D01*
X125367013Y-119885046D01*
X125427119Y-119876388D01*
X125480132Y-119867917D01*
X125522905Y-119860129D01*
X125552295Y-119853519D01*
X125563792Y-119849564D01*
X125567178Y-119839724D01*
X125558277Y-119819186D01*
X125547094Y-119801436D01*
X125516049Y-119739033D01*
X125501986Y-119672229D01*
X125504443Y-119604274D01*
X125522956Y-119538421D01*
X125557065Y-119477918D01*
X125599696Y-119431612D01*
X125654529Y-119392586D01*
X125718707Y-119361039D01*
X125786752Y-119338790D01*
X125853190Y-119327659D01*
X125908930Y-119328907D01*
X125946012Y-119337039D01*
X125983408Y-119349797D01*
X126016584Y-119365046D01*
X126041004Y-119380652D01*
X126052136Y-119394481D01*
X126052380Y-119396427D01*
X126050311Y-119404917D01*
X126041323Y-119408504D01*
X126021250Y-119407724D01*
X125992857Y-119404099D01*
X125904141Y-119396286D01*
X125828348Y-119399999D01*
X125763075Y-119415448D01*
X125735821Y-119426600D01*
X125680504Y-119456157D01*
X125639727Y-119487247D01*
X125609130Y-119523746D01*
X125591216Y-119555019D01*
X125570679Y-119613759D01*
X125568797Y-119671605D01*
X125585542Y-119730900D01*
X125589208Y-119739098D01*
X125625350Y-119794468D01*
X125677256Y-119840007D01*
X125744184Y-119875391D01*
X125825394Y-119900299D01*
X125920142Y-119914408D01*
X126000000Y-119917708D01*
X126110259Y-119911865D01*
X126205950Y-119893964D01*
X126287364Y-119863868D01*
X126354790Y-119821439D01*
X126408520Y-119766543D01*
X126444165Y-119708912D01*
X126461625Y-119669587D01*
X126470789Y-119635899D01*
X126474044Y-119597713D01*
X126474229Y-119581221D01*
X126465059Y-119509567D01*
X126438958Y-119440468D01*
X126398038Y-119376132D01*
X126344412Y-119318768D01*
X126280195Y-119270584D01*
X126266691Y-119263749D01*
X126392287Y-119263749D01*
X126436608Y-119318183D01*
X126478008Y-119373892D01*
X126506797Y-119425135D01*
X126526273Y-119477916D01*
X126528172Y-119484753D01*
X126537204Y-119539080D01*
X126538500Y-119599863D01*
X126532305Y-119658462D01*
X126522176Y-119697806D01*
X126505067Y-119745403D01*
X126528633Y-119764493D01*
X126563881Y-119788146D01*
X126608580Y-119811599D01*
X126653614Y-119830386D01*
X126678532Y-119837930D01*
X126738862Y-119846264D01*
X126806962Y-119846332D01*
X126873615Y-119838480D01*
X126912373Y-119829117D01*
X126989918Y-119795656D01*
X127057612Y-119747596D01*
X127114097Y-119687393D01*
X127158014Y-119617502D01*
X127188007Y-119540380D01*
X127202718Y-119458482D01*
X127200790Y-119374265D01*
X127191303Y-119324503D01*
X127161499Y-119243988D01*
X127116985Y-119172516D01*
X127060092Y-119111644D01*
X126993156Y-119062926D01*
X126918508Y-119027919D01*
X126838482Y-119008180D01*
X126755412Y-119005264D01*
X126719132Y-119009604D01*
X126641549Y-119030954D01*
X126567714Y-119066910D01*
X126501549Y-119114752D01*
X126446976Y-119171759D01*
X126415191Y-119220433D01*
X126392287Y-119263749D01*
X126266691Y-119263749D01*
X126207498Y-119233788D01*
X126128435Y-119210590D01*
X126117800Y-119208688D01*
X126066258Y-119199903D01*
X126030588Y-119192984D01*
X126007815Y-119187045D01*
X125994962Y-119181204D01*
X125989055Y-119174577D01*
X125987636Y-119170017D01*
X125993674Y-119156445D01*
X126014255Y-119145058D01*
X126044888Y-119137299D01*
X126081084Y-119134613D01*
X126095776Y-119135254D01*
X126120937Y-119136302D01*
X126135736Y-119135067D01*
X126137446Y-119133789D01*
X126130454Y-119125915D01*
X126112048Y-119108388D01*
X126085233Y-119084005D01*
X126060682Y-119062265D01*
X125894330Y-118929087D01*
X125715724Y-118810054D01*
X125525849Y-118705612D01*
X125325692Y-118616208D01*
X125116237Y-118542286D01*
X124898469Y-118484292D01*
X124699999Y-118446674D01*
X124634795Y-118438474D01*
X124556180Y-118431620D01*
X124468449Y-118426228D01*
X124375893Y-118422414D01*
X124282804Y-118420294D01*
X124193476Y-118419985D01*
X124112200Y-118421603D01*
X124043269Y-118425264D01*
X124013144Y-118428079D01*
X123866187Y-118449284D01*
X123729916Y-118478120D01*
X123605733Y-118514083D01*
X123495040Y-118556670D01*
X123399237Y-118605376D01*
X123319728Y-118659697D01*
X123285437Y-118689851D01*
X123255174Y-118720316D01*
X123234853Y-118745404D01*
X123220280Y-118771952D01*
X123207265Y-118806799D01*
X123200226Y-118828844D01*
X123175544Y-118923957D01*
X123159012Y-119022410D01*
X123150864Y-119119924D01*
X122947214Y-119119924D01*
X122976478Y-119094062D01*
X123010062Y-119069896D01*
X123034771Y-119052433D01*
X123048656Y-119035161D01*
X123056647Y-119010441D01*
X123060050Y-118992450D01*
X123064038Y-118964271D01*
X123063416Y-118942575D01*
X123056742Y-118920348D01*
X123042573Y-118890577D01*
X123036833Y-118879485D01*
X123020311Y-118845716D01*
X123010688Y-118818133D01*
X123006170Y-118788882D01*
X123004963Y-118750113D01*
X123004962Y-118741719D01*
X123100429Y-118741719D01*
X123102795Y-118770394D01*
X123108380Y-118797879D01*
X123115722Y-118820032D01*
X123123363Y-118832714D01*
X123129843Y-118831782D01*
X123131142Y-118828844D01*
X123154549Y-118765202D01*
X123177798Y-118715787D01*
X123204060Y-118676064D01*
X123236503Y-118641497D01*
X123278296Y-118607552D01*
X123293443Y-118596590D01*
X123390757Y-118536011D01*
X123500469Y-118483937D01*
X123623958Y-118439875D01*
X123762605Y-118403332D01*
X123914684Y-118374312D01*
X123971021Y-118367492D01*
X124042402Y-118362305D01*
X124124896Y-118358747D01*
X124214569Y-118356818D01*
X124307490Y-118356513D01*
X124399725Y-118357833D01*
X124487342Y-118360773D01*
X124566409Y-118365333D01*
X124632992Y-118371510D01*
X124657142Y-118374713D01*
X124874923Y-118413751D01*
X125079547Y-118464147D01*
X125273743Y-118526745D01*
X125460240Y-118602390D01*
X125584133Y-118661754D01*
X125740455Y-118748009D01*
X125886152Y-118842725D01*
X126025615Y-118949056D01*
X126163235Y-119070160D01*
X126197319Y-119102586D01*
X126237216Y-119140411D01*
X126272986Y-119173062D01*
X126302187Y-119198409D01*
X126322374Y-119214321D01*
X126330653Y-119218837D01*
X126341260Y-119211037D01*
X126358486Y-119190908D01*
X126379041Y-119162396D01*
X126384246Y-119154527D01*
X126425636Y-119090847D01*
X126405463Y-119052452D01*
X126373807Y-119000571D01*
X126329485Y-118940169D01*
X126274995Y-118874259D01*
X126212830Y-118805855D01*
X126145488Y-118737971D01*
X126143229Y-118735796D01*
X126104359Y-118698124D01*
X126070779Y-118664990D01*
X126044712Y-118638634D01*
X126028380Y-118621299D01*
X126023809Y-118615361D01*
X126031436Y-118609688D01*
X126052379Y-118613328D01*
X126083730Y-118625609D01*
X126097951Y-118632494D01*
X126145169Y-118662028D01*
X126198838Y-118705010D01*
X126255916Y-118758368D01*
X126313360Y-118819031D01*
X126368126Y-118883929D01*
X126417172Y-118949990D01*
X126427047Y-118964609D01*
X126449479Y-118996863D01*
X126468970Y-119021972D01*
X126482651Y-119036373D01*
X126486503Y-119038446D01*
X126504249Y-119029562D01*
X126523718Y-119004744D01*
X126542907Y-118966744D01*
X126544308Y-118963241D01*
X126616562Y-118963241D01*
X126646376Y-118956967D01*
X126669371Y-118950654D01*
X126683209Y-118944190D01*
X126683298Y-118944110D01*
X126691488Y-118927297D01*
X126698485Y-118895669D01*
X126703826Y-118853450D01*
X126707047Y-118804864D01*
X126707687Y-118754137D01*
X126706871Y-118728806D01*
X126703572Y-118690873D01*
X126697661Y-118648769D01*
X126689971Y-118606216D01*
X126681337Y-118566936D01*
X126672591Y-118534650D01*
X126664567Y-118513079D01*
X126658099Y-118505945D01*
X126657091Y-118506553D01*
X126656535Y-118516981D01*
X126658241Y-118541381D01*
X126661844Y-118574852D01*
X126662646Y-118581311D01*
X126666386Y-118646227D01*
X126663504Y-118721611D01*
X126654640Y-118800314D01*
X126640436Y-118875188D01*
X126634076Y-118900058D01*
X126616562Y-118963241D01*
X126544308Y-118963241D01*
X126547970Y-118954082D01*
X126566351Y-118905688D01*
X126536840Y-118822045D01*
X126471067Y-118663793D01*
X126388071Y-118511742D01*
X126373582Y-118490622D01*
X126642857Y-118490622D01*
X126647619Y-118495386D01*
X126652380Y-118490622D01*
X126647619Y-118485858D01*
X126642857Y-118490622D01*
X126373582Y-118490622D01*
X126289113Y-118367491D01*
X126175453Y-118232640D01*
X126048352Y-118108786D01*
X125909071Y-117997529D01*
X125859603Y-117963149D01*
X125718135Y-117877737D01*
X125566729Y-117803682D01*
X125407210Y-117741069D01*
X125241403Y-117689983D01*
X125071132Y-117650510D01*
X124898223Y-117622736D01*
X124724499Y-117606746D01*
X124551787Y-117602627D01*
X124381910Y-117610463D01*
X124216693Y-117630340D01*
X124057962Y-117662344D01*
X123907540Y-117706560D01*
X123767253Y-117763075D01*
X123638925Y-117831973D01*
X123600000Y-117857112D01*
X123537406Y-117904992D01*
X123476787Y-117961553D01*
X123422213Y-118022358D01*
X123377753Y-118082968D01*
X123353202Y-118126234D01*
X123337377Y-118160411D01*
X123325444Y-118188587D01*
X123319408Y-118205945D01*
X123319047Y-118208297D01*
X123325857Y-118207556D01*
X123344195Y-118196669D01*
X123370923Y-118177647D01*
X123390835Y-118162252D01*
X123449949Y-118118241D01*
X123510926Y-118078158D01*
X123570614Y-118043676D01*
X123625860Y-118016468D01*
X123673512Y-117998205D01*
X123710419Y-117990562D01*
X123714638Y-117990434D01*
X123732514Y-117992594D01*
X123735785Y-117999608D01*
X123723743Y-118012278D01*
X123695679Y-118031407D01*
X123659523Y-118052872D01*
X123554134Y-118117091D01*
X123464363Y-118180448D01*
X123387090Y-118245499D01*
X123319194Y-118314798D01*
X123275510Y-118367286D01*
X123208383Y-118460411D01*
X123157140Y-118547266D01*
X123122084Y-118627204D01*
X123103518Y-118699578D01*
X123100429Y-118741719D01*
X123004962Y-118741719D01*
X123004962Y-118740023D01*
X123013321Y-118656434D01*
X123038258Y-118570039D01*
X123080199Y-118479782D01*
X123139572Y-118384604D01*
X123160053Y-118356012D01*
X123190210Y-118308705D01*
X123206293Y-118266805D01*
X123208808Y-118253885D01*
X123223507Y-118184673D01*
X123247116Y-118118526D01*
X123281034Y-118053315D01*
X123326662Y-117986913D01*
X123385401Y-117917191D01*
X123458650Y-117842021D01*
X123514313Y-117789592D01*
X123539569Y-117765230D01*
X123573136Y-117731176D01*
X123601991Y-117700989D01*
X123731298Y-117700989D01*
X123740925Y-117699095D01*
X123764194Y-117691381D01*
X123797113Y-117679229D01*
X123819635Y-117670461D01*
X123898640Y-117642451D01*
X123990691Y-117615304D01*
X124089802Y-117590528D01*
X124189984Y-117569633D01*
X124276190Y-117555382D01*
X124364278Y-117545960D01*
X124465568Y-117540184D01*
X124574575Y-117538014D01*
X124685813Y-117539409D01*
X124793796Y-117544329D01*
X124893039Y-117552733D01*
X124952380Y-117560364D01*
X125147558Y-117596928D01*
X125335021Y-117645978D01*
X125425809Y-117675342D01*
X125589716Y-117740537D01*
X125748262Y-117820228D01*
X125898986Y-117912725D01*
X126039428Y-118016341D01*
X126167126Y-118129384D01*
X126279619Y-118250165D01*
X126300787Y-118275988D01*
X126327629Y-118307935D01*
X126351352Y-118333328D01*
X126368821Y-118348962D01*
X126375565Y-118352386D01*
X126391760Y-118349976D01*
X126419343Y-118343659D01*
X126443207Y-118337323D01*
X126509194Y-118309654D01*
X126565528Y-118267528D01*
X126608966Y-118213542D01*
X126618084Y-118197227D01*
X126640333Y-118133320D01*
X126646634Y-118061656D01*
X126637162Y-117984624D01*
X126612091Y-117904615D01*
X126593738Y-117864197D01*
X126583510Y-117840125D01*
X126584692Y-117833233D01*
X126595238Y-117833233D01*
X126599999Y-117837996D01*
X126604761Y-117833233D01*
X126599999Y-117828469D01*
X126595238Y-117833233D01*
X126584692Y-117833233D01*
X126585474Y-117828678D01*
X126601233Y-117826640D01*
X126611904Y-117827758D01*
X126622882Y-117823075D01*
X126623809Y-117819359D01*
X126630866Y-117811618D01*
X126634935Y-117811796D01*
X126647222Y-117806183D01*
X126657179Y-117792868D01*
X126662566Y-117784364D01*
X126669083Y-117781754D01*
X126679306Y-117786726D01*
X126695811Y-117800966D01*
X126721173Y-117826164D01*
X126744419Y-117850032D01*
X126844907Y-117961645D01*
X126939997Y-118082694D01*
X126985725Y-118147652D01*
X127031621Y-118215693D01*
X126999797Y-118241095D01*
X126978830Y-118263237D01*
X126956036Y-118295503D01*
X126938817Y-118326159D01*
X126910509Y-118404600D01*
X126896752Y-118491139D01*
X126896855Y-118582445D01*
X126910127Y-118675187D01*
X126935877Y-118766036D01*
X126973414Y-118851659D01*
X127022048Y-118928727D01*
X127076422Y-118989608D01*
X127126411Y-119031066D01*
X127171661Y-119056934D01*
X127185629Y-119062236D01*
X127216686Y-119074992D01*
X127229859Y-119086519D01*
X127229893Y-119090835D01*
X127215137Y-119133417D01*
X127208994Y-119164477D01*
X127211016Y-119189252D01*
X127219583Y-119210774D01*
X127236493Y-119243285D01*
X127248965Y-119214703D01*
X127257242Y-119193408D01*
X127443883Y-119193408D01*
X127450127Y-119231103D01*
X127466329Y-119268475D01*
X127492238Y-119301550D01*
X127499435Y-119308040D01*
X127526920Y-119327626D01*
X127548055Y-119332289D01*
X127567772Y-119322458D01*
X127576190Y-119314740D01*
X127592456Y-119287067D01*
X127596708Y-119252494D01*
X127590758Y-119215037D01*
X127576420Y-119178711D01*
X127555506Y-119147529D01*
X127529829Y-119125507D01*
X127501202Y-119116659D01*
X127487416Y-119118150D01*
X127462276Y-119132956D01*
X127447848Y-119159368D01*
X127443883Y-119193408D01*
X127257242Y-119193408D01*
X127257606Y-119192471D01*
X127269701Y-119158284D01*
X127283061Y-119118388D01*
X127287342Y-119105138D01*
X127298851Y-119066543D01*
X127306426Y-119032615D01*
X127310865Y-118997259D01*
X127312965Y-118954377D01*
X127313513Y-118905063D01*
X127304535Y-118765975D01*
X127276947Y-118624738D01*
X127230698Y-118481204D01*
X127165735Y-118335223D01*
X127082006Y-118186649D01*
X127040260Y-118121985D01*
X126979458Y-118033773D01*
X126922598Y-117957362D01*
X126865309Y-117887409D01*
X126803221Y-117818569D01*
X126733827Y-117747357D01*
X126579909Y-117605870D01*
X126420104Y-117482396D01*
X126254505Y-117376981D01*
X126083205Y-117289672D01*
X125906295Y-117220514D01*
X125723869Y-117169553D01*
X125536018Y-117136836D01*
X125507518Y-117133520D01*
X125444651Y-117128501D01*
X125368609Y-117125287D01*
X125285177Y-117123881D01*
X125200140Y-117124283D01*
X125119284Y-117126494D01*
X125048397Y-117130515D01*
X125016291Y-117133440D01*
X124858754Y-117156394D01*
X124698697Y-117190907D01*
X124539617Y-117235752D01*
X124385012Y-117289706D01*
X124238379Y-117351544D01*
X124103215Y-117420041D01*
X123983019Y-117493972D01*
X123979127Y-117496642D01*
X123945089Y-117521019D01*
X123906542Y-117550122D01*
X123866180Y-117581732D01*
X123826692Y-117613628D01*
X123790770Y-117643593D01*
X123761105Y-117669406D01*
X123740390Y-117688849D01*
X123731315Y-117699703D01*
X123731298Y-117700989D01*
X123601991Y-117700989D01*
X123610634Y-117691947D01*
X123647619Y-117652129D01*
X123740859Y-117557991D01*
X123840487Y-117473558D01*
X123950020Y-117396255D01*
X124072973Y-117323506D01*
X124154472Y-117281062D01*
X124336148Y-117199993D01*
X124524743Y-117133953D01*
X124718304Y-117083098D01*
X124914881Y-117047583D01*
X125112522Y-117027564D01*
X125309274Y-117023196D01*
X125503186Y-117034634D01*
G37*
D14*
%TO.C,R20*%
X173853641Y-94820000D02*
X173546359Y-94820000D01*
X173853641Y-95580000D02*
X173546359Y-95580000D01*
%TO.C,R19*%
X173843641Y-93755000D02*
X173536359Y-93755000D01*
X173843641Y-94515000D02*
X173536359Y-94515000D01*
%TO.C,C5*%
X124640000Y-109372164D02*
X124640000Y-109587836D01*
X125360000Y-109372164D02*
X125360000Y-109587836D01*
%TD*%
G36*
X166885133Y-118284132D02*
G01*
X166897633Y-118321632D01*
X166897633Y-118577633D01*
X167470133Y-118577633D01*
X167514327Y-118595939D01*
X167532633Y-118640133D01*
X167532633Y-119023133D01*
X167514327Y-119067327D01*
X167470133Y-119085633D01*
X166897633Y-119085633D01*
X166897633Y-119341633D01*
X166879327Y-119385827D01*
X166835133Y-119404133D01*
X166797633Y-119391633D01*
X166117632Y-118881633D01*
X166093260Y-118840472D01*
X166105132Y-118794133D01*
X166117632Y-118781633D01*
X166797633Y-118271632D01*
X166843972Y-118259760D01*
X166885133Y-118284132D01*
G37*
G36*
X168461133Y-116507132D02*
G01*
X168473633Y-116519632D01*
X168983633Y-117199633D01*
X168995505Y-117245972D01*
X168971133Y-117287133D01*
X168933633Y-117299633D01*
X168677633Y-117299633D01*
X168677633Y-117872133D01*
X168659327Y-117916327D01*
X168615133Y-117934633D01*
X168232133Y-117934633D01*
X168187939Y-117916327D01*
X168169633Y-117872133D01*
X168169633Y-117299633D01*
X167913633Y-117299633D01*
X167869439Y-117281327D01*
X167851133Y-117237133D01*
X167863633Y-117199633D01*
X168373633Y-116519632D01*
X168414794Y-116495260D01*
X168461133Y-116507132D01*
G37*
M02*
