M48
; DRILL file {KiCad 9.0.7} date 2026-02-09T02:05:24-0600
; FORMAT={-:-/ absolute / inch / decimal}
; #@! TF.CreationDate,2026-02-09T02:05:24-06:00
; #@! TF.GenerationSoftware,Kicad,Pcbnew,9.0.7
; #@! TF.FileFunction,Plated,1,4,PTH
FMAT,2
INCH
; #@! TA.AperFunction,Plated,PTH,ViaDrill
T1C0.0118
; #@! TA.AperFunction,Plated,PTH,ComponentDrill
T2C0.0118
; #@! TA.AperFunction,Plated,PTH,ComponentDrill
T3C0.0276
; #@! TA.AperFunction,Plated,PTH,ComponentDrill
T4C0.0295
; #@! TA.AperFunction,Plated,PTH,ComponentDrill
T5C0.0374
; #@! TA.AperFunction,Plated,PTH,ComponentDrill
T6C0.0394
; #@! TA.AperFunction,Plated,PTH,ComponentDrill
T7C0.1250
%
G90
G05
T1
X4.4208Y-4.0571
X4.5866Y-3.8189
X4.7244Y-4.063
X4.8858Y-3.9055
X4.8917Y-4.3799
X4.9567Y-4.3543
X4.9902Y-4.4783
X5.0213Y-3.5646
X5.0591Y-4.4409
X5.0787Y-3.6614
X5.141Y-3.6594
X5.1516Y-3.9213
X5.1571Y-3.9964
X5.1969Y-4.0748
X5.2343Y-3.9173
X5.2543Y-3.9677
X5.2953Y-4.1732
X5.3543Y-4.1732
X5.4331Y-3.9173
X5.4787Y-3.6205
X5.4921Y-3.6614
X5.5433Y-3.7598
X5.5709Y-3.9961
X5.6268Y-4.1752
X5.6299Y-3.7008
X5.6299Y-3.9567
X5.6693Y-4.0681
X5.7087Y-4.3701
X5.7257Y-4.4961
X5.748Y-3.6614
X5.7677Y-4.0937
X5.8504Y-4.2165
X5.8898Y-4.3189
X5.9252Y-4.1339
X5.9443Y-4.0736
X5.9606Y-4.2402
X5.9614Y-4.2835
X5.9764Y-4.3858
X5.9797Y-4.0427
X6.0039Y-4.4882
X6.0161Y-4.3854
X6.0276Y-3.9724
X6.0433Y-4.2717
X6.0846Y-4.2736
X6.1142Y-3.7638
X6.1161Y-3.872
X6.2112Y-3.4055
X6.313Y-4.4783
X6.3583Y-4.2252
X6.378Y-4.3988
X6.4429Y-3.8976
X6.4882Y-3.6504
X6.4882Y-3.7087
X6.4921Y-3.3858
X6.5039Y-3.7807
X6.5105Y-3.8636
X6.5577Y-3.9541
X6.5787Y-3.5472
X6.6732Y-3.5827
X6.6929Y-4.3898
X6.7248Y-3.9492
X6.7441Y-4.2126
X6.7441Y-4.4685
X6.7559Y-4.6299
X6.7615Y-3.563
X6.7756Y-3.8661
X6.8346Y-4.3898
X6.8504Y-3.7992
X6.8783Y-3.6746
X6.8906Y-3.3809
X6.9134Y-4.2997
X6.9587Y-4.2126
X7.0114Y-3.6382
X7.0281Y-3.9606
X7.0522Y-3.5447
X7.0591Y-4.0669
X7.1457Y-3.7898
X7.2016Y-3.6326
X7.3819Y-3.8091
T2
X6.6083Y-3.7146
X6.6083Y-3.7539
X6.6083Y-3.7933
X6.6476Y-3.7146
X6.6476Y-3.7539
X6.6476Y-3.7933
X6.687Y-3.7146
X6.687Y-3.7539
X6.687Y-3.7933
T3
X4.626Y-3.4646
X4.7047Y-3.4646
X4.8425Y-3.4646
X4.9213Y-3.4646
X5.311Y-3.4646
X5.4079Y-3.4449
X5.4724Y-4.5472
X5.5079Y-3.4646
X5.5315Y-4.4291
X5.5709Y-4.2913
X5.5906Y-3.6024
X5.6496Y-4.3701
X5.689Y-3.5039
X5.7087Y-4.2717
X6.0433Y-3.4646
X6.063Y-3.7087
X6.9055Y-4.4173
T4
X7.0669Y-4.3917
X7.1457Y-4.3917
T5
X4.3386Y-3.815
X4.3386Y-3.9134
X4.3386Y-4.0118
X4.3386Y-4.1102
X4.3386Y-4.2087
T6
X6.3906Y-3.4449
X6.4906Y-3.4449
X6.5906Y-3.4449
X6.6906Y-3.4449
X6.7906Y-3.4449
X6.8906Y-3.4449
X6.9906Y-3.4449
X7.0906Y-3.4449
X7.3425Y-4.1535
X7.3425Y-4.2535
T7
X4.3307Y-3.4646
X4.3307Y-4.6063
X7.3563Y-3.4646
X7.3563Y-4.6063
M30
