%TF.GenerationSoftware,KiCad,Pcbnew,9.0.7*%
%TF.CreationDate,2026-02-03T01:20:09-06:00*%
%TF.ProjectId,wearable,77656172-6162-46c6-952e-6b696361645f,rev?*%
%TF.SameCoordinates,Original*%
%TF.FileFunction,Legend,Bot*%
%TF.FilePolarity,Positive*%
%FSLAX46Y46*%
G04 Gerber Fmt 4.6, Leading zero omitted, Abs format (unit mm)*
G04 Created by KiCad (PCBNEW 9.0.7) date 2026-02-03 01:20:09*
%MOMM*%
%LPD*%
G01*
G04 APERTURE LIST*
%ADD10C,0.250000*%
%ADD11C,0.000000*%
G04 APERTURE END LIST*
D10*
X167049812Y-119340809D02*
X166649812Y-119340809D01*
X166478384Y-119864619D02*
X167049812Y-119864619D01*
X167049812Y-119864619D02*
X167049812Y-118864619D01*
X167049812Y-118864619D02*
X166478384Y-118864619D01*
X165278384Y-119769380D02*
X165335527Y-119817000D01*
X165335527Y-119817000D02*
X165506955Y-119864619D01*
X165506955Y-119864619D02*
X165621241Y-119864619D01*
X165621241Y-119864619D02*
X165792670Y-119817000D01*
X165792670Y-119817000D02*
X165906955Y-119721761D01*
X165906955Y-119721761D02*
X165964098Y-119626523D01*
X165964098Y-119626523D02*
X166021241Y-119436047D01*
X166021241Y-119436047D02*
X166021241Y-119293190D01*
X166021241Y-119293190D02*
X165964098Y-119102714D01*
X165964098Y-119102714D02*
X165906955Y-119007476D01*
X165906955Y-119007476D02*
X165792670Y-118912238D01*
X165792670Y-118912238D02*
X165621241Y-118864619D01*
X165621241Y-118864619D02*
X165506955Y-118864619D01*
X165506955Y-118864619D02*
X165335527Y-118912238D01*
X165335527Y-118912238D02*
X165278384Y-118959857D01*
X164764098Y-119340809D02*
X164364098Y-119340809D01*
X164192670Y-119864619D02*
X164764098Y-119864619D01*
X164764098Y-119864619D02*
X164764098Y-118864619D01*
X164764098Y-118864619D02*
X164192670Y-118864619D01*
X162249813Y-119197952D02*
X162249813Y-119864619D01*
X162535527Y-118817000D02*
X162821241Y-119531285D01*
X162821241Y-119531285D02*
X162078384Y-119531285D01*
X161106956Y-118864619D02*
X161335527Y-118864619D01*
X161335527Y-118864619D02*
X161449813Y-118912238D01*
X161449813Y-118912238D02*
X161506956Y-118959857D01*
X161506956Y-118959857D02*
X161621241Y-119102714D01*
X161621241Y-119102714D02*
X161678384Y-119293190D01*
X161678384Y-119293190D02*
X161678384Y-119674142D01*
X161678384Y-119674142D02*
X161621241Y-119769380D01*
X161621241Y-119769380D02*
X161564098Y-119817000D01*
X161564098Y-119817000D02*
X161449813Y-119864619D01*
X161449813Y-119864619D02*
X161221241Y-119864619D01*
X161221241Y-119864619D02*
X161106956Y-119817000D01*
X161106956Y-119817000D02*
X161049813Y-119769380D01*
X161049813Y-119769380D02*
X160992670Y-119674142D01*
X160992670Y-119674142D02*
X160992670Y-119436047D01*
X160992670Y-119436047D02*
X161049813Y-119340809D01*
X161049813Y-119340809D02*
X161106956Y-119293190D01*
X161106956Y-119293190D02*
X161221241Y-119245571D01*
X161221241Y-119245571D02*
X161449813Y-119245571D01*
X161449813Y-119245571D02*
X161564098Y-119293190D01*
X161564098Y-119293190D02*
X161621241Y-119340809D01*
X161621241Y-119340809D02*
X161678384Y-119436047D01*
X159964099Y-119197952D02*
X159964099Y-119864619D01*
X160249813Y-118817000D02*
X160535527Y-119531285D01*
X160535527Y-119531285D02*
X159792670Y-119531285D01*
X159335527Y-119864619D02*
X159335527Y-118864619D01*
X158649813Y-119864619D02*
X159164099Y-119293190D01*
X158649813Y-118864619D02*
X159335527Y-119436047D01*
X158135527Y-119769380D02*
X158078384Y-119817000D01*
X158078384Y-119817000D02*
X158135527Y-119864619D01*
X158135527Y-119864619D02*
X158192670Y-119817000D01*
X158192670Y-119817000D02*
X158135527Y-119769380D01*
X158135527Y-119769380D02*
X158135527Y-119864619D01*
X158135527Y-119245571D02*
X158078384Y-119293190D01*
X158078384Y-119293190D02*
X158135527Y-119340809D01*
X158135527Y-119340809D02*
X158192670Y-119293190D01*
X158192670Y-119293190D02*
X158135527Y-119245571D01*
X158135527Y-119245571D02*
X158135527Y-119340809D01*
X156706955Y-119578904D02*
X156135527Y-119578904D01*
X156821241Y-119864619D02*
X156421241Y-118864619D01*
X156421241Y-118864619D02*
X156021241Y-119864619D01*
X155621241Y-119864619D02*
X155621241Y-119197952D01*
X155621241Y-118864619D02*
X155678384Y-118912238D01*
X155678384Y-118912238D02*
X155621241Y-118959857D01*
X155621241Y-118959857D02*
X155564098Y-118912238D01*
X155564098Y-118912238D02*
X155621241Y-118864619D01*
X155621241Y-118864619D02*
X155621241Y-118959857D01*
X154535527Y-119864619D02*
X154535527Y-118864619D01*
X154535527Y-119817000D02*
X154649812Y-119864619D01*
X154649812Y-119864619D02*
X154878384Y-119864619D01*
X154878384Y-119864619D02*
X154992669Y-119817000D01*
X154992669Y-119817000D02*
X155049812Y-119769380D01*
X155049812Y-119769380D02*
X155106955Y-119674142D01*
X155106955Y-119674142D02*
X155106955Y-119388428D01*
X155106955Y-119388428D02*
X155049812Y-119293190D01*
X155049812Y-119293190D02*
X154992669Y-119245571D01*
X154992669Y-119245571D02*
X154878384Y-119197952D01*
X154878384Y-119197952D02*
X154649812Y-119197952D01*
X154649812Y-119197952D02*
X154535527Y-119245571D01*
X153449813Y-119864619D02*
X153449813Y-119340809D01*
X153449813Y-119340809D02*
X153506955Y-119245571D01*
X153506955Y-119245571D02*
X153621241Y-119197952D01*
X153621241Y-119197952D02*
X153849813Y-119197952D01*
X153849813Y-119197952D02*
X153964098Y-119245571D01*
X153449813Y-119817000D02*
X153564098Y-119864619D01*
X153564098Y-119864619D02*
X153849813Y-119864619D01*
X153849813Y-119864619D02*
X153964098Y-119817000D01*
X153964098Y-119817000D02*
X154021241Y-119721761D01*
X154021241Y-119721761D02*
X154021241Y-119626523D01*
X154021241Y-119626523D02*
X153964098Y-119531285D01*
X153964098Y-119531285D02*
X153849813Y-119483666D01*
X153849813Y-119483666D02*
X153564098Y-119483666D01*
X153564098Y-119483666D02*
X153449813Y-119436047D01*
X152878384Y-119197952D02*
X152878384Y-119864619D01*
X152878384Y-119293190D02*
X152821241Y-119245571D01*
X152821241Y-119245571D02*
X152706956Y-119197952D01*
X152706956Y-119197952D02*
X152535527Y-119197952D01*
X152535527Y-119197952D02*
X152421241Y-119245571D01*
X152421241Y-119245571D02*
X152364099Y-119340809D01*
X152364099Y-119340809D02*
X152364099Y-119864619D01*
X150935527Y-119578904D02*
X150364099Y-119578904D01*
X151049813Y-119864619D02*
X150649813Y-118864619D01*
X150649813Y-118864619D02*
X150249813Y-119864619D01*
X149335528Y-119864619D02*
X149335528Y-119340809D01*
X149335528Y-119340809D02*
X149392670Y-119245571D01*
X149392670Y-119245571D02*
X149506956Y-119197952D01*
X149506956Y-119197952D02*
X149735528Y-119197952D01*
X149735528Y-119197952D02*
X149849813Y-119245571D01*
X149335528Y-119817000D02*
X149449813Y-119864619D01*
X149449813Y-119864619D02*
X149735528Y-119864619D01*
X149735528Y-119864619D02*
X149849813Y-119817000D01*
X149849813Y-119817000D02*
X149906956Y-119721761D01*
X149906956Y-119721761D02*
X149906956Y-119626523D01*
X149906956Y-119626523D02*
X149849813Y-119531285D01*
X149849813Y-119531285D02*
X149735528Y-119483666D01*
X149735528Y-119483666D02*
X149449813Y-119483666D01*
X149449813Y-119483666D02*
X149335528Y-119436047D01*
X148592671Y-119864619D02*
X148706956Y-119817000D01*
X148706956Y-119817000D02*
X148764099Y-119721761D01*
X148764099Y-119721761D02*
X148764099Y-118864619D01*
X147621243Y-119197952D02*
X147621243Y-119864619D01*
X148135528Y-119197952D02*
X148135528Y-119721761D01*
X148135528Y-119721761D02*
X148078385Y-119817000D01*
X148078385Y-119817000D02*
X147964100Y-119864619D01*
X147964100Y-119864619D02*
X147792671Y-119864619D01*
X147792671Y-119864619D02*
X147678385Y-119817000D01*
X147678385Y-119817000D02*
X147621243Y-119769380D01*
X147049814Y-119197952D02*
X147049814Y-119864619D01*
X147049814Y-119293190D02*
X146992671Y-119245571D01*
X146992671Y-119245571D02*
X146878386Y-119197952D01*
X146878386Y-119197952D02*
X146706957Y-119197952D01*
X146706957Y-119197952D02*
X146592671Y-119245571D01*
X146592671Y-119245571D02*
X146535529Y-119340809D01*
X146535529Y-119340809D02*
X146535529Y-119864619D01*
X145449815Y-119864619D02*
X145449815Y-118864619D01*
X145449815Y-119817000D02*
X145564100Y-119864619D01*
X145564100Y-119864619D02*
X145792672Y-119864619D01*
X145792672Y-119864619D02*
X145906957Y-119817000D01*
X145906957Y-119817000D02*
X145964100Y-119769380D01*
X145964100Y-119769380D02*
X146021243Y-119674142D01*
X146021243Y-119674142D02*
X146021243Y-119388428D01*
X146021243Y-119388428D02*
X145964100Y-119293190D01*
X145964100Y-119293190D02*
X145906957Y-119245571D01*
X145906957Y-119245571D02*
X145792672Y-119197952D01*
X145792672Y-119197952D02*
X145564100Y-119197952D01*
X145564100Y-119197952D02*
X145449815Y-119245571D01*
X144821243Y-119817000D02*
X144821243Y-119864619D01*
X144821243Y-119864619D02*
X144878386Y-119959857D01*
X144878386Y-119959857D02*
X144935529Y-120007476D01*
X143049814Y-118864619D02*
X143049814Y-119578904D01*
X143049814Y-119578904D02*
X143106957Y-119721761D01*
X143106957Y-119721761D02*
X143221243Y-119817000D01*
X143221243Y-119817000D02*
X143392671Y-119864619D01*
X143392671Y-119864619D02*
X143506957Y-119864619D01*
X141964100Y-119197952D02*
X141964100Y-119864619D01*
X142478385Y-119197952D02*
X142478385Y-119721761D01*
X142478385Y-119721761D02*
X142421242Y-119817000D01*
X142421242Y-119817000D02*
X142306957Y-119864619D01*
X142306957Y-119864619D02*
X142135528Y-119864619D01*
X142135528Y-119864619D02*
X142021242Y-119817000D01*
X142021242Y-119817000D02*
X141964100Y-119769380D01*
X141449814Y-119817000D02*
X141335528Y-119864619D01*
X141335528Y-119864619D02*
X141106957Y-119864619D01*
X141106957Y-119864619D02*
X140992671Y-119817000D01*
X140992671Y-119817000D02*
X140935528Y-119721761D01*
X140935528Y-119721761D02*
X140935528Y-119674142D01*
X140935528Y-119674142D02*
X140992671Y-119578904D01*
X140992671Y-119578904D02*
X141106957Y-119531285D01*
X141106957Y-119531285D02*
X141278386Y-119531285D01*
X141278386Y-119531285D02*
X141392671Y-119483666D01*
X141392671Y-119483666D02*
X141449814Y-119388428D01*
X141449814Y-119388428D02*
X141449814Y-119340809D01*
X141449814Y-119340809D02*
X141392671Y-119245571D01*
X141392671Y-119245571D02*
X141278386Y-119197952D01*
X141278386Y-119197952D02*
X141106957Y-119197952D01*
X141106957Y-119197952D02*
X140992671Y-119245571D01*
X140592671Y-119197952D02*
X140135528Y-119197952D01*
X140421242Y-118864619D02*
X140421242Y-119721761D01*
X140421242Y-119721761D02*
X140364099Y-119817000D01*
X140364099Y-119817000D02*
X140249814Y-119864619D01*
X140249814Y-119864619D02*
X140135528Y-119864619D01*
X139735528Y-119864619D02*
X139735528Y-119197952D01*
X139735528Y-118864619D02*
X139792671Y-118912238D01*
X139792671Y-118912238D02*
X139735528Y-118959857D01*
X139735528Y-118959857D02*
X139678385Y-118912238D01*
X139678385Y-118912238D02*
X139735528Y-118864619D01*
X139735528Y-118864619D02*
X139735528Y-118959857D01*
X139164099Y-119197952D02*
X139164099Y-119864619D01*
X139164099Y-119293190D02*
X139106956Y-119245571D01*
X139106956Y-119245571D02*
X138992671Y-119197952D01*
X138992671Y-119197952D02*
X138821242Y-119197952D01*
X138821242Y-119197952D02*
X138706956Y-119245571D01*
X138706956Y-119245571D02*
X138649814Y-119340809D01*
X138649814Y-119340809D02*
X138649814Y-119864619D01*
X136764099Y-119340809D02*
X136592671Y-119388428D01*
X136592671Y-119388428D02*
X136535528Y-119436047D01*
X136535528Y-119436047D02*
X136478385Y-119531285D01*
X136478385Y-119531285D02*
X136478385Y-119674142D01*
X136478385Y-119674142D02*
X136535528Y-119769380D01*
X136535528Y-119769380D02*
X136592671Y-119817000D01*
X136592671Y-119817000D02*
X136706956Y-119864619D01*
X136706956Y-119864619D02*
X137164099Y-119864619D01*
X137164099Y-119864619D02*
X137164099Y-118864619D01*
X137164099Y-118864619D02*
X136764099Y-118864619D01*
X136764099Y-118864619D02*
X136649814Y-118912238D01*
X136649814Y-118912238D02*
X136592671Y-118959857D01*
X136592671Y-118959857D02*
X136535528Y-119055095D01*
X136535528Y-119055095D02*
X136535528Y-119150333D01*
X136535528Y-119150333D02*
X136592671Y-119245571D01*
X136592671Y-119245571D02*
X136649814Y-119293190D01*
X136649814Y-119293190D02*
X136764099Y-119340809D01*
X136764099Y-119340809D02*
X137164099Y-119340809D01*
X135449814Y-119864619D02*
X135449814Y-119340809D01*
X135449814Y-119340809D02*
X135506956Y-119245571D01*
X135506956Y-119245571D02*
X135621242Y-119197952D01*
X135621242Y-119197952D02*
X135849814Y-119197952D01*
X135849814Y-119197952D02*
X135964099Y-119245571D01*
X135449814Y-119817000D02*
X135564099Y-119864619D01*
X135564099Y-119864619D02*
X135849814Y-119864619D01*
X135849814Y-119864619D02*
X135964099Y-119817000D01*
X135964099Y-119817000D02*
X136021242Y-119721761D01*
X136021242Y-119721761D02*
X136021242Y-119626523D01*
X136021242Y-119626523D02*
X135964099Y-119531285D01*
X135964099Y-119531285D02*
X135849814Y-119483666D01*
X135849814Y-119483666D02*
X135564099Y-119483666D01*
X135564099Y-119483666D02*
X135449814Y-119436047D01*
X134878385Y-119864619D02*
X134878385Y-118864619D01*
X134364100Y-119864619D02*
X134364100Y-119340809D01*
X134364100Y-119340809D02*
X134421242Y-119245571D01*
X134421242Y-119245571D02*
X134535528Y-119197952D01*
X134535528Y-119197952D02*
X134706957Y-119197952D01*
X134706957Y-119197952D02*
X134821242Y-119245571D01*
X134821242Y-119245571D02*
X134878385Y-119293190D01*
X133792671Y-119197952D02*
X133792671Y-119864619D01*
X133792671Y-119293190D02*
X133735528Y-119245571D01*
X133735528Y-119245571D02*
X133621243Y-119197952D01*
X133621243Y-119197952D02*
X133449814Y-119197952D01*
X133449814Y-119197952D02*
X133335528Y-119245571D01*
X133335528Y-119245571D02*
X133278386Y-119340809D01*
X133278386Y-119340809D02*
X133278386Y-119864619D01*
X132649814Y-119817000D02*
X132649814Y-119864619D01*
X132649814Y-119864619D02*
X132706957Y-119959857D01*
X132706957Y-119959857D02*
X132764100Y-120007476D01*
X131278385Y-119578904D02*
X130706957Y-119578904D01*
X131392671Y-119864619D02*
X130992671Y-118864619D01*
X130992671Y-118864619D02*
X130592671Y-119864619D01*
X130021243Y-119864619D02*
X130135528Y-119817000D01*
X130135528Y-119817000D02*
X130192671Y-119721761D01*
X130192671Y-119721761D02*
X130192671Y-118864619D01*
X129106957Y-119817000D02*
X129221243Y-119864619D01*
X129221243Y-119864619D02*
X129449815Y-119864619D01*
X129449815Y-119864619D02*
X129564100Y-119817000D01*
X129564100Y-119817000D02*
X129621243Y-119721761D01*
X129621243Y-119721761D02*
X129621243Y-119340809D01*
X129621243Y-119340809D02*
X129564100Y-119245571D01*
X129564100Y-119245571D02*
X129449815Y-119197952D01*
X129449815Y-119197952D02*
X129221243Y-119197952D01*
X129221243Y-119197952D02*
X129106957Y-119245571D01*
X129106957Y-119245571D02*
X129049815Y-119340809D01*
X129049815Y-119340809D02*
X129049815Y-119436047D01*
X129049815Y-119436047D02*
X129621243Y-119531285D01*
X128649815Y-119864619D02*
X128021244Y-119197952D01*
X128649815Y-119197952D02*
X128021244Y-119864619D01*
X126649814Y-119864619D02*
X126649814Y-118864619D01*
X126649814Y-119340809D02*
X125964100Y-119340809D01*
X125964100Y-119864619D02*
X125964100Y-118864619D01*
X125221243Y-119864619D02*
X125335528Y-119817000D01*
X125335528Y-119817000D02*
X125392671Y-119769380D01*
X125392671Y-119769380D02*
X125449814Y-119674142D01*
X125449814Y-119674142D02*
X125449814Y-119388428D01*
X125449814Y-119388428D02*
X125392671Y-119293190D01*
X125392671Y-119293190D02*
X125335528Y-119245571D01*
X125335528Y-119245571D02*
X125221243Y-119197952D01*
X125221243Y-119197952D02*
X125049814Y-119197952D01*
X125049814Y-119197952D02*
X124935528Y-119245571D01*
X124935528Y-119245571D02*
X124878386Y-119293190D01*
X124878386Y-119293190D02*
X124821243Y-119388428D01*
X124821243Y-119388428D02*
X124821243Y-119674142D01*
X124821243Y-119674142D02*
X124878386Y-119769380D01*
X124878386Y-119769380D02*
X124935528Y-119817000D01*
X124935528Y-119817000D02*
X125049814Y-119864619D01*
X125049814Y-119864619D02*
X125221243Y-119864619D01*
X124249814Y-119817000D02*
X124249814Y-119864619D01*
X124249814Y-119864619D02*
X124306957Y-119959857D01*
X124306957Y-119959857D02*
X124364100Y-120007476D01*
X122821242Y-119864619D02*
X122821242Y-118864619D01*
X122135528Y-119864619D02*
X122649814Y-119293190D01*
X122135528Y-118864619D02*
X122821242Y-119436047D01*
X121621242Y-119864619D02*
X121621242Y-119197952D01*
X121621242Y-118864619D02*
X121678385Y-118912238D01*
X121678385Y-118912238D02*
X121621242Y-118959857D01*
X121621242Y-118959857D02*
X121564099Y-118912238D01*
X121564099Y-118912238D02*
X121621242Y-118864619D01*
X121621242Y-118864619D02*
X121621242Y-118959857D01*
X120592670Y-119817000D02*
X120706956Y-119864619D01*
X120706956Y-119864619D02*
X120935528Y-119864619D01*
X120935528Y-119864619D02*
X121049813Y-119817000D01*
X121049813Y-119817000D02*
X121106956Y-119721761D01*
X121106956Y-119721761D02*
X121106956Y-119340809D01*
X121106956Y-119340809D02*
X121049813Y-119245571D01*
X121049813Y-119245571D02*
X120935528Y-119197952D01*
X120935528Y-119197952D02*
X120706956Y-119197952D01*
X120706956Y-119197952D02*
X120592670Y-119245571D01*
X120592670Y-119245571D02*
X120535528Y-119340809D01*
X120535528Y-119340809D02*
X120535528Y-119436047D01*
X120535528Y-119436047D02*
X121106956Y-119531285D01*
X120021242Y-119197952D02*
X120021242Y-119864619D01*
X120021242Y-119293190D02*
X119964099Y-119245571D01*
X119964099Y-119245571D02*
X119849814Y-119197952D01*
X119849814Y-119197952D02*
X119678385Y-119197952D01*
X119678385Y-119197952D02*
X119564099Y-119245571D01*
X119564099Y-119245571D02*
X119506957Y-119340809D01*
X119506957Y-119340809D02*
X119506957Y-119864619D01*
X118192671Y-118864619D02*
X117506957Y-118864619D01*
X117849814Y-119864619D02*
X117849814Y-118864619D01*
X116935528Y-119864619D02*
X117049813Y-119817000D01*
X117049813Y-119817000D02*
X117106956Y-119769380D01*
X117106956Y-119769380D02*
X117164099Y-119674142D01*
X117164099Y-119674142D02*
X117164099Y-119388428D01*
X117164099Y-119388428D02*
X117106956Y-119293190D01*
X117106956Y-119293190D02*
X117049813Y-119245571D01*
X117049813Y-119245571D02*
X116935528Y-119197952D01*
X116935528Y-119197952D02*
X116764099Y-119197952D01*
X116764099Y-119197952D02*
X116649813Y-119245571D01*
X116649813Y-119245571D02*
X116592671Y-119293190D01*
X116592671Y-119293190D02*
X116535528Y-119388428D01*
X116535528Y-119388428D02*
X116535528Y-119674142D01*
X116535528Y-119674142D02*
X116592671Y-119769380D01*
X116592671Y-119769380D02*
X116649813Y-119817000D01*
X116649813Y-119817000D02*
X116764099Y-119864619D01*
X116764099Y-119864619D02*
X116935528Y-119864619D01*
X116021242Y-119197952D02*
X116021242Y-119864619D01*
X116021242Y-119293190D02*
X115964099Y-119245571D01*
X115964099Y-119245571D02*
X115849814Y-119197952D01*
X115849814Y-119197952D02*
X115678385Y-119197952D01*
X115678385Y-119197952D02*
X115564099Y-119245571D01*
X115564099Y-119245571D02*
X115506957Y-119340809D01*
X115506957Y-119340809D02*
X115506957Y-119864619D01*
D11*
%TO.C,G\u002A\u002A\u002A*%
G36*
X181035066Y-115128733D02*
G01*
X181077939Y-115166393D01*
X181046843Y-115199343D01*
X180952693Y-115216492D01*
X180870319Y-115204054D01*
X180827446Y-115166393D01*
X180858542Y-115133444D01*
X180952693Y-115116295D01*
X181035066Y-115128733D01*
G37*
G36*
X181385756Y-115078634D02*
G01*
X181428629Y-115116295D01*
X181397534Y-115149244D01*
X181303383Y-115166393D01*
X181221010Y-115153955D01*
X181178136Y-115116295D01*
X181209232Y-115083346D01*
X181303383Y-115066196D01*
X181385756Y-115078634D01*
G37*
G36*
X181385756Y-115329128D02*
G01*
X181428629Y-115366788D01*
X181397534Y-115399737D01*
X181303383Y-115416887D01*
X181221010Y-115404448D01*
X181178136Y-115366788D01*
X181209232Y-115333839D01*
X181303383Y-115316689D01*
X181385756Y-115329128D01*
G37*
G36*
X182284791Y-115575195D02*
G01*
X182355454Y-115617281D01*
X182343450Y-115651476D01*
X182258213Y-115667380D01*
X182172972Y-115654622D01*
X182130010Y-115617281D01*
X182147461Y-115588732D01*
X182227251Y-115567182D01*
X182284791Y-115575195D01*
G37*
G36*
X182288444Y-115125689D02*
G01*
X182330405Y-115166393D01*
X182311616Y-115195512D01*
X182230207Y-115216492D01*
X182171970Y-115207098D01*
X182130010Y-115166393D01*
X182148799Y-115137275D01*
X182230207Y-115116295D01*
X182288444Y-115125689D01*
G37*
G36*
X182339925Y-115372440D02*
G01*
X182380503Y-115416887D01*
X182372025Y-115439933D01*
X182305355Y-115466985D01*
X182270785Y-115461333D01*
X182230207Y-115416887D01*
X182238686Y-115393840D01*
X182305355Y-115366788D01*
X182339925Y-115372440D01*
G37*
G36*
X181009679Y-115587927D02*
G01*
X181018669Y-115637521D01*
X180940168Y-115682944D01*
X180892301Y-115695833D01*
X180839971Y-115711667D01*
X180834168Y-115705752D01*
X180827446Y-115642330D01*
X180846043Y-115598508D01*
X180927643Y-115567182D01*
X181009679Y-115587927D01*
G37*
G36*
X181116395Y-115338446D02*
G01*
X181122940Y-115363906D01*
X181076488Y-115418843D01*
X181064070Y-115426205D01*
X180959483Y-115461253D01*
X180867173Y-115458411D01*
X180827446Y-115417841D01*
X180855861Y-115379970D01*
X180944195Y-115340866D01*
X181046875Y-115322674D01*
X181116395Y-115338446D01*
G37*
G36*
X181366006Y-115543669D02*
G01*
X181401957Y-115560984D01*
X181409946Y-115587750D01*
X181328432Y-115619183D01*
X181301477Y-115627344D01*
X181187862Y-115657085D01*
X181138679Y-115653356D01*
X181128038Y-115615709D01*
X181161817Y-115557793D01*
X181254916Y-115526737D01*
X181366006Y-115543669D01*
G37*
G36*
X182035046Y-115082558D02*
G01*
X182079911Y-115132667D01*
X182045930Y-115176682D01*
X181929616Y-115177080D01*
X181927679Y-115176792D01*
X181822832Y-115148172D01*
X181779320Y-115110609D01*
X181779330Y-115110077D01*
X181824064Y-115079067D01*
X181929616Y-115066196D01*
X182035046Y-115082558D01*
G37*
G36*
X181923274Y-115529364D02*
G01*
X182016902Y-115560929D01*
X182070359Y-115612740D01*
X182070763Y-115656406D01*
X182007502Y-115650313D01*
X181958584Y-115634770D01*
X181850370Y-115617281D01*
X181819538Y-115611956D01*
X181779320Y-115563855D01*
X181780652Y-115554708D01*
X181830763Y-115524979D01*
X181923274Y-115529364D01*
G37*
G36*
X182024635Y-115317967D02*
G01*
X182135664Y-115335416D01*
X182180109Y-115366788D01*
X182174999Y-115378018D01*
X182105202Y-115405775D01*
X181979714Y-115416887D01*
X181934794Y-115415609D01*
X181823765Y-115398160D01*
X181779320Y-115366788D01*
X181784430Y-115355558D01*
X181854227Y-115327801D01*
X181979714Y-115316689D01*
X182024635Y-115317967D01*
G37*
G36*
X182233311Y-117284032D02*
G01*
X182113932Y-117377819D01*
X182016931Y-117464980D01*
X181979714Y-117514157D01*
X181990641Y-117564607D01*
X182026957Y-117686475D01*
X182079911Y-117846670D01*
X182126031Y-117982841D01*
X182165094Y-118103182D01*
X182180109Y-118156685D01*
X182180052Y-118157026D01*
X182140857Y-118137356D01*
X182042913Y-118071605D01*
X181906705Y-117973496D01*
X181764301Y-117871849D01*
X181653361Y-117799225D01*
X181598141Y-117771522D01*
X181545032Y-117798424D01*
X181435959Y-117871114D01*
X181295411Y-117973539D01*
X181290710Y-117977081D01*
X181158106Y-118070945D01*
X181063766Y-118126448D01*
X181027840Y-118131678D01*
X181038722Y-118080224D01*
X181075041Y-117957294D01*
X181128038Y-117796571D01*
X181174301Y-117660461D01*
X181213263Y-117541986D01*
X181228235Y-117490893D01*
X181228097Y-117490343D01*
X181186493Y-117453482D01*
X181085030Y-117375806D01*
X180944537Y-117273293D01*
X180871886Y-117221269D01*
X181161452Y-117221269D01*
X181272586Y-117339565D01*
X181351773Y-117460813D01*
X181350645Y-117589642D01*
X181348156Y-117599880D01*
X181342113Y-117696273D01*
X181391009Y-117711318D01*
X181498468Y-117646408D01*
X181562532Y-117608123D01*
X181633986Y-117613409D01*
X181739795Y-117678853D01*
X181886235Y-117783128D01*
X181852254Y-117601997D01*
X181839444Y-117508570D01*
X181857454Y-117409415D01*
X181934329Y-117326892D01*
X182050384Y-117232916D01*
X181885294Y-117196656D01*
X181748779Y-117138119D01*
X181656566Y-117009046D01*
X181592928Y-116857696D01*
X181540976Y-117006725D01*
X181536950Y-117017888D01*
X181461021Y-117133125D01*
X181325238Y-117188512D01*
X181161452Y-117221269D01*
X180871886Y-117221269D01*
X180660839Y-117070141D01*
X181018243Y-117070141D01*
X181375647Y-117070141D01*
X181487058Y-116706926D01*
X181598469Y-116343711D01*
X181704558Y-116694401D01*
X181810647Y-117045092D01*
X182148777Y-117070141D01*
X182486908Y-117095190D01*
X182301955Y-117232916D01*
X182233311Y-117284032D01*
G37*
G36*
X182630996Y-115975181D02*
G01*
X182342929Y-115934809D01*
X182291820Y-115928281D01*
X182024095Y-115906844D01*
X181708088Y-115896496D01*
X181380758Y-115897292D01*
X181079066Y-115909288D01*
X180839971Y-115932539D01*
X180576953Y-115971422D01*
X180576953Y-115819401D01*
X180576941Y-115816106D01*
X180561876Y-115710953D01*
X180526854Y-115667380D01*
X180503807Y-115658901D01*
X180476756Y-115592232D01*
X180482408Y-115557661D01*
X180526854Y-115517084D01*
X180555973Y-115498295D01*
X180576953Y-115416887D01*
X180567559Y-115358649D01*
X180526854Y-115316689D01*
X180503807Y-115308211D01*
X180476756Y-115241541D01*
X180482408Y-115206971D01*
X180526854Y-115166393D01*
X180559412Y-115136889D01*
X180576953Y-115044217D01*
X180577358Y-115029717D01*
X180727249Y-115029717D01*
X180727249Y-115423696D01*
X180727384Y-115484826D01*
X180731596Y-115660415D01*
X180745181Y-115761101D01*
X180772795Y-115806862D01*
X180819096Y-115817675D01*
X180870295Y-115814474D01*
X180932516Y-115796103D01*
X180964457Y-115785585D01*
X181073574Y-115768336D01*
X181228933Y-115752638D01*
X181503777Y-115730744D01*
X181518257Y-115352332D01*
X181679122Y-115352332D01*
X181679122Y-115753197D01*
X181816894Y-115749226D01*
X181877076Y-115750057D01*
X182038842Y-115761901D01*
X182219545Y-115783438D01*
X182484426Y-115821621D01*
X182475633Y-115473227D01*
X182475593Y-115471660D01*
X182466340Y-115289060D01*
X182450638Y-115144171D01*
X182431863Y-115068237D01*
X182430103Y-115065861D01*
X182359444Y-115033939D01*
X182219289Y-115003756D01*
X182038004Y-114981554D01*
X181679122Y-114951467D01*
X181679122Y-114965999D01*
X181679122Y-115352332D01*
X181518257Y-115352332D01*
X181518409Y-115348372D01*
X181533041Y-114965999D01*
X181362581Y-114965999D01*
X181321107Y-114966726D01*
X181144754Y-114977761D01*
X180959685Y-114997858D01*
X180727249Y-115029717D01*
X180577358Y-115029717D01*
X180577636Y-115019773D01*
X180599161Y-114953066D01*
X180669799Y-114912772D01*
X180814921Y-114881548D01*
X180865588Y-114874189D01*
X181077241Y-114856536D01*
X181347586Y-114846610D01*
X181645481Y-114844374D01*
X181939782Y-114849792D01*
X182199346Y-114862826D01*
X182393028Y-114883439D01*
X182441836Y-114891724D01*
X182563881Y-114922596D01*
X182618456Y-114967699D01*
X182630996Y-115044217D01*
X182643095Y-115123616D01*
X182681095Y-115166393D01*
X182704142Y-115174872D01*
X182731193Y-115241541D01*
X182725541Y-115276112D01*
X182681095Y-115316689D01*
X182651976Y-115335478D01*
X182630996Y-115416887D01*
X182640391Y-115475124D01*
X182681095Y-115517084D01*
X182704142Y-115525562D01*
X182731193Y-115592232D01*
X182725541Y-115626802D01*
X182681095Y-115667380D01*
X182679515Y-115667456D01*
X182645194Y-115714205D01*
X182630996Y-115821280D01*
X182630996Y-115821621D01*
X182630996Y-115975181D01*
G37*
G36*
X183779893Y-116221014D02*
G01*
X183775678Y-116387051D01*
X183769442Y-116632659D01*
X183750379Y-116975921D01*
X183721180Y-117266180D01*
X183680323Y-117518816D01*
X183626285Y-117749208D01*
X183557542Y-117972737D01*
X183478524Y-118181311D01*
X183239581Y-118636928D01*
X182921278Y-119049001D01*
X182517482Y-119424713D01*
X182022066Y-119771242D01*
X181910464Y-119839631D01*
X181751999Y-119935566D01*
X181640601Y-120001466D01*
X181595321Y-120025959D01*
X181586829Y-120022219D01*
X181513954Y-119981127D01*
X181384012Y-119904305D01*
X181217487Y-119803795D01*
X181212962Y-119801038D01*
X180730873Y-119472139D01*
X180339693Y-119126358D01*
X180030505Y-118754572D01*
X179794392Y-118347656D01*
X179769540Y-118294949D01*
X179682742Y-118103118D01*
X179613543Y-117928711D01*
X179559744Y-117757024D01*
X179519143Y-117573355D01*
X179489540Y-117363002D01*
X179468734Y-117111262D01*
X179454523Y-116803432D01*
X179444708Y-116424811D01*
X179444067Y-116385767D01*
X179625079Y-116385767D01*
X179625458Y-116665331D01*
X179644360Y-117039936D01*
X179743751Y-117600766D01*
X179924100Y-118124759D01*
X180180582Y-118595139D01*
X180353058Y-118826473D01*
X180590247Y-119073201D01*
X180882292Y-119306870D01*
X181250337Y-119546282D01*
X181256270Y-119549848D01*
X181407465Y-119638198D01*
X181522174Y-119700660D01*
X181575978Y-119723915D01*
X181597409Y-119720303D01*
X181713271Y-119672436D01*
X181879840Y-119580128D01*
X182075748Y-119457231D01*
X182279626Y-119317595D01*
X182470102Y-119175068D01*
X182625808Y-119043502D01*
X182782499Y-118885767D01*
X183090771Y-118474085D01*
X183323772Y-117996580D01*
X183481587Y-117453052D01*
X183564302Y-116843300D01*
X183596373Y-116387051D01*
X182600174Y-116334683D01*
X182377670Y-116324135D01*
X181499487Y-116307658D01*
X180614527Y-116334041D01*
X179625079Y-116385767D01*
X179444067Y-116385767D01*
X179440497Y-116168366D01*
X179615437Y-116168366D01*
X181600326Y-116168366D01*
X183585214Y-116168366D01*
X183552192Y-115755052D01*
X183551549Y-115747023D01*
X183530808Y-115495942D01*
X183508161Y-115233808D01*
X183488396Y-115016098D01*
X183457623Y-114690457D01*
X183106933Y-114648414D01*
X182934733Y-114634219D01*
X182674420Y-114622400D01*
X182353673Y-114613899D01*
X181992564Y-114608719D01*
X181611163Y-114606867D01*
X181229544Y-114608347D01*
X180867779Y-114613163D01*
X180545938Y-114621321D01*
X180284095Y-114632826D01*
X180102320Y-114647682D01*
X179752935Y-114690457D01*
X179719863Y-114890851D01*
X179709044Y-114969623D01*
X179689585Y-115152911D01*
X179669287Y-115383595D01*
X179651114Y-115629806D01*
X179615437Y-116168366D01*
X179440497Y-116168366D01*
X179437087Y-115960694D01*
X179416736Y-114525607D01*
X179658679Y-114494492D01*
X180383590Y-114420228D01*
X181448492Y-114374041D01*
X182514407Y-114398472D01*
X183545296Y-114493531D01*
X183783264Y-114524514D01*
X183783264Y-115693505D01*
X183783255Y-115725607D01*
X183780250Y-116168366D01*
X183779893Y-116221014D01*
G37*
G36*
X180410439Y-116911851D02*
G01*
X180326460Y-117083811D01*
X180268721Y-117163015D01*
X180230389Y-117238245D01*
X180251274Y-117250789D01*
X180330985Y-117191293D01*
X180401028Y-117132791D01*
X180450710Y-117128320D01*
X180506330Y-117193103D01*
X180560022Y-117308756D01*
X180565546Y-117423883D01*
X180568644Y-117488440D01*
X180503398Y-117649224D01*
X180458830Y-117724412D01*
X180431641Y-117821620D01*
X180447168Y-117845756D01*
X180487802Y-117784046D01*
X180488002Y-117783633D01*
X180551247Y-117689465D01*
X180616022Y-117689181D01*
X180699359Y-117782669D01*
X180754105Y-117901470D01*
X180765594Y-118015170D01*
X180773727Y-118095664D01*
X180725486Y-118275801D01*
X180699214Y-118342038D01*
X180725486Y-118372705D01*
X180748372Y-118365249D01*
X180777347Y-118300514D01*
X180777383Y-118296535D01*
X180810412Y-118209843D01*
X180890099Y-118198658D01*
X180994003Y-118266503D01*
X181076185Y-118400534D01*
X181104567Y-118596944D01*
X181104927Y-118602996D01*
X181111106Y-118706910D01*
X181129286Y-118813371D01*
X181151471Y-118861773D01*
X181170232Y-118838630D01*
X181178136Y-118730459D01*
X181178142Y-118714671D01*
X181184626Y-118616636D01*
X181222828Y-118598998D01*
X181321376Y-118644598D01*
X181391270Y-118691240D01*
X181512832Y-118851865D01*
X181572126Y-119029537D01*
X181595353Y-119099135D01*
X181604258Y-119137413D01*
X181616547Y-119158909D01*
X181623212Y-119084122D01*
X181632005Y-119046549D01*
X181729221Y-119046549D01*
X181730243Y-119052177D01*
X181777557Y-119074086D01*
X181802331Y-119066903D01*
X181853010Y-119010682D01*
X182099200Y-119010682D01*
X182163955Y-119023987D01*
X182241610Y-119007913D01*
X182338385Y-118946443D01*
X182380503Y-118868362D01*
X182363194Y-118849170D01*
X182291679Y-118856851D01*
X182199647Y-118896192D01*
X182125517Y-118954253D01*
X182122220Y-118958270D01*
X182099200Y-119010682D01*
X181853010Y-119010682D01*
X181865145Y-118997220D01*
X181910577Y-118888279D01*
X181917739Y-118783393D01*
X181907233Y-118754444D01*
X181873686Y-118762903D01*
X181814374Y-118858679D01*
X181803035Y-118880274D01*
X181750556Y-118988195D01*
X181729221Y-119046549D01*
X181632005Y-119046549D01*
X181663457Y-118912154D01*
X181764469Y-118743490D01*
X181900809Y-118634026D01*
X181985279Y-118601552D01*
X182023216Y-118624286D01*
X182029813Y-118727426D01*
X182029879Y-118735604D01*
X182037090Y-118783393D01*
X182043950Y-118828856D01*
X182075143Y-118851589D01*
X182082947Y-118843319D01*
X182100636Y-118761748D01*
X182094810Y-118632240D01*
X182092512Y-118608576D01*
X182189466Y-118608576D01*
X182201310Y-118641290D01*
X182239537Y-118648479D01*
X182283105Y-118596522D01*
X182300979Y-118548875D01*
X182508644Y-118548875D01*
X182528318Y-118569458D01*
X182601966Y-118536366D01*
X182715875Y-118449436D01*
X182758921Y-118409795D01*
X182808347Y-118345162D01*
X182777500Y-118324190D01*
X182772266Y-118324340D01*
X182683041Y-118362501D01*
X182622563Y-118413037D01*
X182580898Y-118447853D01*
X182556657Y-118474777D01*
X182508644Y-118548875D01*
X182300979Y-118548875D01*
X182315605Y-118509885D01*
X182320624Y-118413037D01*
X182303153Y-118297557D01*
X182238463Y-118412905D01*
X182200726Y-118505429D01*
X182189466Y-118608576D01*
X182092512Y-118608576D01*
X182088006Y-118562166D01*
X182107131Y-118426027D01*
X182191570Y-118298580D01*
X182233079Y-118255072D01*
X182333797Y-118194618D01*
X182404147Y-118219665D01*
X182430602Y-118328520D01*
X182440928Y-118382812D01*
X182480836Y-118397671D01*
X182503817Y-118368036D01*
X182480836Y-118272761D01*
X182440099Y-118142397D01*
X182437770Y-118024971D01*
X182530799Y-118024971D01*
X182545453Y-118128845D01*
X182580898Y-118172311D01*
X182588080Y-118170470D01*
X182618607Y-118111076D01*
X182630351Y-118000104D01*
X182842879Y-118000104D01*
X182895789Y-117994051D01*
X182976263Y-117938359D01*
X183049751Y-117862293D01*
X183081884Y-117795302D01*
X183073123Y-117761954D01*
X183020576Y-117750025D01*
X182945269Y-117794053D01*
X182876039Y-117881904D01*
X182847807Y-117946573D01*
X182843440Y-117994009D01*
X182842879Y-118000104D01*
X182630351Y-118000104D01*
X182630996Y-117994009D01*
X182630627Y-117969898D01*
X182614988Y-117867835D01*
X182580898Y-117846670D01*
X182546242Y-117909274D01*
X182530799Y-118024971D01*
X182437770Y-118024971D01*
X182436905Y-117981387D01*
X182469728Y-117829168D01*
X182531796Y-117715795D01*
X182616339Y-117671324D01*
X182661115Y-117698060D01*
X182720147Y-117784046D01*
X182759443Y-117844861D01*
X182776308Y-117821620D01*
X182761975Y-117755300D01*
X182704551Y-117649224D01*
X182648149Y-117531056D01*
X182641271Y-117387983D01*
X182741195Y-117387983D01*
X182752481Y-117498827D01*
X182784561Y-117578785D01*
X182832345Y-117621226D01*
X182869879Y-117585275D01*
X182872834Y-117484684D01*
X182846383Y-117385882D01*
X183046163Y-117385882D01*
X183074518Y-117396027D01*
X183153380Y-117324669D01*
X183205007Y-117241167D01*
X183221526Y-117136492D01*
X183206523Y-117097532D01*
X183172994Y-117112820D01*
X183113244Y-117212568D01*
X183070576Y-117300545D01*
X183046163Y-117385882D01*
X182846383Y-117385882D01*
X182836512Y-117349009D01*
X182796122Y-117292713D01*
X182759843Y-117311966D01*
X182741195Y-117387983D01*
X182641271Y-117387983D01*
X182639561Y-117352423D01*
X182706144Y-117192438D01*
X182746035Y-117143949D01*
X182793109Y-117124468D01*
X182849438Y-117182863D01*
X182900790Y-117242447D01*
X182944893Y-117269006D01*
X182939641Y-117220839D01*
X182880940Y-117107715D01*
X182810896Y-116957546D01*
X182792692Y-116810073D01*
X182881489Y-116810073D01*
X182896399Y-116884322D01*
X182955044Y-116997942D01*
X182996849Y-117051165D01*
X183024696Y-117061994D01*
X183030192Y-116986566D01*
X183021226Y-116876460D01*
X182982984Y-116764082D01*
X182926228Y-116719451D01*
X182902008Y-116733977D01*
X182881489Y-116810073D01*
X182792692Y-116810073D01*
X182786751Y-116761944D01*
X182847849Y-116597480D01*
X182852481Y-116591180D01*
X182900603Y-116541479D01*
X182947487Y-116556638D01*
X183023194Y-116644760D01*
X183027486Y-116650309D01*
X183101434Y-116781134D01*
X183131982Y-116903315D01*
X183133408Y-116948621D01*
X183152511Y-116986566D01*
X183157560Y-116996596D01*
X183232180Y-116969944D01*
X183311671Y-116941812D01*
X183337922Y-116980706D01*
X183337220Y-117136492D01*
X183337196Y-117141854D01*
X183279318Y-117307338D01*
X183142279Y-117463061D01*
X183118670Y-117484684D01*
X183065652Y-117533241D01*
X183006746Y-117596294D01*
X183013751Y-117618107D01*
X183080649Y-117613357D01*
X183133317Y-117610878D01*
X183208388Y-117650707D01*
X183208357Y-117752017D01*
X183187640Y-117795302D01*
X183132480Y-117910551D01*
X183038524Y-118023939D01*
X182881461Y-118104683D01*
X182811546Y-118123490D01*
X182740164Y-118166820D01*
X182752099Y-118205606D01*
X182851750Y-118222409D01*
X182932461Y-118244186D01*
X182952068Y-118306903D01*
X182935736Y-118345162D01*
X182914561Y-118394765D01*
X182833487Y-118491821D01*
X182722393Y-118582119D01*
X182594826Y-118649704D01*
X182464332Y-118678626D01*
X182305355Y-118683956D01*
X182443126Y-118738396D01*
X182523146Y-118774294D01*
X182570939Y-118824201D01*
X182549924Y-118868362D01*
X182539244Y-118890806D01*
X182426758Y-118994484D01*
X182294595Y-119080076D01*
X182085643Y-119124184D01*
X182001664Y-119131459D01*
X181878189Y-119165204D01*
X181782510Y-119214554D01*
X181737768Y-119266231D01*
X181767107Y-119306956D01*
X181791254Y-119322550D01*
X181801725Y-119378956D01*
X181797987Y-119384635D01*
X181725717Y-119422792D01*
X181653989Y-119374542D01*
X181624286Y-119351577D01*
X181528827Y-119374677D01*
X181468919Y-119396682D01*
X181406308Y-119379092D01*
X181400244Y-119356941D01*
X181440842Y-119306956D01*
X181472249Y-119277794D01*
X181444833Y-119228596D01*
X181358781Y-119178592D01*
X181236461Y-119139787D01*
X181100245Y-119124184D01*
X181051911Y-119123063D01*
X180891069Y-119088858D01*
X180759130Y-118992106D01*
X180688723Y-118918777D01*
X180642563Y-118847758D01*
X180786581Y-118847758D01*
X180792343Y-118882880D01*
X180856153Y-118947764D01*
X180938555Y-118994257D01*
X181033334Y-119020111D01*
X181097884Y-119013268D01*
X181101078Y-118970798D01*
X181054057Y-118927586D01*
X180954038Y-118875517D01*
X180913225Y-118862801D01*
X181283587Y-118862801D01*
X181327594Y-118970798D01*
X181330195Y-118977182D01*
X181391566Y-119052081D01*
X181451742Y-119073710D01*
X181478728Y-119029537D01*
X181450143Y-118963926D01*
X181380198Y-118866717D01*
X181336248Y-118821572D01*
X181287750Y-118806191D01*
X181283587Y-118862801D01*
X180913225Y-118862801D01*
X180850195Y-118843163D01*
X180786581Y-118847758D01*
X180642563Y-118847758D01*
X180637365Y-118839761D01*
X180662553Y-118787607D01*
X180764823Y-118738396D01*
X180902594Y-118683956D01*
X180767180Y-118678626D01*
X180636698Y-118661122D01*
X180439420Y-118568628D01*
X180306523Y-118403619D01*
X180296175Y-118382307D01*
X180278239Y-118338657D01*
X180395363Y-118338657D01*
X180428927Y-118400490D01*
X180476776Y-118450233D01*
X180568240Y-118517817D01*
X180644959Y-118548691D01*
X180677150Y-118527604D01*
X180661336Y-118492306D01*
X180587667Y-118418815D01*
X180569260Y-118406182D01*
X180879138Y-118406182D01*
X180883169Y-118477857D01*
X180893780Y-118527604D01*
X180907954Y-118594051D01*
X180928897Y-118633258D01*
X180983102Y-118673297D01*
X181003992Y-118666758D01*
X181026735Y-118602996D01*
X181008923Y-118500329D01*
X180954286Y-118394805D01*
X180912480Y-118341583D01*
X180884634Y-118330753D01*
X180879138Y-118406182D01*
X180569260Y-118406182D01*
X180490104Y-118351855D01*
X180409375Y-118322606D01*
X180395363Y-118338657D01*
X180278239Y-118338657D01*
X180257459Y-118288086D01*
X180273819Y-118248003D01*
X180353590Y-118231606D01*
X180393931Y-118223875D01*
X180466272Y-118184884D01*
X180463472Y-118142252D01*
X180379352Y-118122212D01*
X180306769Y-118107726D01*
X180173424Y-118023705D01*
X180059591Y-117890999D01*
X180012678Y-117780073D01*
X180126065Y-117780073D01*
X180146095Y-117845563D01*
X180217683Y-117939102D01*
X180266820Y-117980084D01*
X180349594Y-118024061D01*
X180377525Y-118002093D01*
X180359988Y-117961420D01*
X180562011Y-117961420D01*
X180563171Y-118002093D01*
X180565503Y-118083838D01*
X180584718Y-118131041D01*
X180632895Y-118172311D01*
X180638768Y-118171622D01*
X180671006Y-118120691D01*
X180672989Y-118015170D01*
X180643340Y-117892004D01*
X180630895Y-117860918D01*
X180605510Y-117833659D01*
X180575949Y-117899631D01*
X180562011Y-117961420D01*
X180359988Y-117961420D01*
X180346226Y-117929504D01*
X180251312Y-117821620D01*
X180206277Y-117781306D01*
X180143996Y-117744668D01*
X180126065Y-117780073D01*
X180012678Y-117780073D01*
X179995699Y-117739926D01*
X179981801Y-117638203D01*
X180008028Y-117599288D01*
X180095949Y-117607996D01*
X180153091Y-117616669D01*
X180218475Y-117609012D01*
X180193892Y-117567651D01*
X180097104Y-117508504D01*
X180327227Y-117508504D01*
X180329174Y-117546246D01*
X180360060Y-117614091D01*
X180410128Y-117597683D01*
X180455468Y-117498827D01*
X180467006Y-117423883D01*
X180456477Y-117330938D01*
X180420621Y-117291062D01*
X180371063Y-117327810D01*
X180346359Y-117386854D01*
X180343363Y-117405904D01*
X180327227Y-117508504D01*
X180097104Y-117508504D01*
X180080139Y-117498137D01*
X179987166Y-117423203D01*
X179892713Y-117281911D01*
X179854996Y-117170842D01*
X179961385Y-117170842D01*
X179973860Y-117202394D01*
X180026096Y-117283698D01*
X180093346Y-117362361D01*
X180151429Y-117411918D01*
X180176164Y-117405904D01*
X180161391Y-117353060D01*
X180119279Y-117250599D01*
X180065018Y-117160506D01*
X180003638Y-117103997D01*
X179961908Y-117103812D01*
X179961385Y-117170842D01*
X179854996Y-117170842D01*
X179839276Y-117124549D01*
X179845212Y-116990766D01*
X179846337Y-116987894D01*
X179889962Y-116942084D01*
X179975026Y-116969546D01*
X180014181Y-116988766D01*
X180064958Y-116986970D01*
X180071975Y-116933651D01*
X180180851Y-116933651D01*
X180185477Y-117023474D01*
X180217193Y-117046218D01*
X180267967Y-116985628D01*
X180303624Y-116902634D01*
X180326460Y-116797892D01*
X180324019Y-116766732D01*
X180291318Y-116720952D01*
X180240502Y-116749186D01*
X180197276Y-116842547D01*
X180180851Y-116933651D01*
X180071975Y-116933651D01*
X180075967Y-116903315D01*
X180076051Y-116898464D01*
X180109357Y-116774382D01*
X180184755Y-116644760D01*
X180192313Y-116635172D01*
X180264724Y-116552972D01*
X180310633Y-116543110D01*
X180360100Y-116597480D01*
X180416615Y-116730406D01*
X180414318Y-116797892D01*
X180410439Y-116911851D01*
G37*
%TD*%
M02*
