%TF.GenerationSoftware,KiCad,Pcbnew,9.0.7*%
%TF.CreationDate,2026-02-03T01:20:09-06:00*%
%TF.ProjectId,wearable,77656172-6162-46c6-952e-6b696361645f,rev?*%
%TF.SameCoordinates,Original*%
%TF.FileFunction,Copper,L2,Inr*%
%TF.FilePolarity,Positive*%
%FSLAX46Y46*%
G04 Gerber Fmt 4.6, Leading zero omitted, Abs format (unit mm)*
G04 Created by KiCad (PCBNEW 9.0.7) date 2026-02-03 01:20:09*
%MOMM*%
%LPD*%
G01*
G04 APERTURE LIST*
G04 Aperture macros list*
%AMRoundRect*
0 Rectangle with rounded corners*
0 $1 Rounding radius*
0 $2 $3 $4 $5 $6 $7 $8 $9 X,Y pos of 4 corners*
0 Add a 4 corners polygon primitive as box body*
4,1,4,$2,$3,$4,$5,$6,$7,$8,$9,$2,$3,0*
0 Add four circle primitives for the rounded corners*
1,1,$1+$1,$2,$3*
1,1,$1+$1,$4,$5*
1,1,$1+$1,$6,$7*
1,1,$1+$1,$8,$9*
0 Add four rect primitives between the rounded corners*
20,1,$1+$1,$2,$3,$4,$5,0*
20,1,$1+$1,$4,$5,$6,$7,0*
20,1,$1+$1,$6,$7,$8,$9,0*
20,1,$1+$1,$8,$9,$2,$3,0*%
G04 Aperture macros list end*
%TA.AperFunction,ComponentPad*%
%ADD10C,1.000000*%
%TD*%
%TA.AperFunction,ComponentPad*%
%ADD11C,1.400000*%
%TD*%
%TA.AperFunction,ComponentPad*%
%ADD12C,4.318000*%
%TD*%
%TA.AperFunction,ComponentPad*%
%ADD13R,1.700000X1.700000*%
%TD*%
%TA.AperFunction,ComponentPad*%
%ADD14C,1.700000*%
%TD*%
%TA.AperFunction,ComponentPad*%
%ADD15RoundRect,0.250000X-0.625000X0.350000X-0.625000X-0.350000X0.625000X-0.350000X0.625000X0.350000X0*%
%TD*%
%TA.AperFunction,ComponentPad*%
%ADD16O,1.750000X1.200000*%
%TD*%
%TA.AperFunction,ComponentPad*%
%ADD17R,1.000000X1.000000*%
%TD*%
%TA.AperFunction,ComponentPad*%
%ADD18RoundRect,0.250000X-0.350000X-0.625000X0.350000X-0.625000X0.350000X0.625000X-0.350000X0.625000X0*%
%TD*%
%TA.AperFunction,ComponentPad*%
%ADD19O,1.200000X1.750000*%
%TD*%
%TA.AperFunction,HeatsinkPad*%
%ADD20C,0.500000*%
%TD*%
%TA.AperFunction,ViaPad*%
%ADD21C,0.600000*%
%TD*%
G04 APERTURE END LIST*
D10*
%TO.N,DRDY*%
%TO.C,TP8*%
X142000000Y-91500000D03*
%TD*%
%TO.N,SCK*%
%TO.C,TP14*%
X144500000Y-89600000D03*
%TD*%
D11*
%TO.N,AVDD*%
%TO.C,TP2*%
X123000000Y-88000000D03*
X125000000Y-88000000D03*
%TD*%
D10*
%TO.N,INT_BNO085*%
%TO.C,TP6*%
X141200000Y-113500000D03*
%TD*%
D12*
%TO.N,unconnected-(H4-Hole-Pad1)*%
%TO.C,H4*%
X186850000Y-117000000D03*
%TD*%
D10*
%TO.N,SCL*%
%TO.C,TP15*%
X153500000Y-88750000D03*
%TD*%
D12*
%TO.N,unconnected-(H1-Hole-Pad1)*%
%TO.C,H1*%
X112600000Y-86000000D03*
%TD*%
D10*
%TO.N,RST_ADS1299*%
%TO.C,TP4*%
X137360000Y-88000000D03*
%TD*%
%TO.N,START_ADS1299*%
%TO.C,TP3*%
X134900000Y-88000000D03*
%TD*%
%TO.N,MISO*%
%TO.C,TP11*%
X143200000Y-113900000D03*
%TD*%
%TO.N,CS_ADS1299*%
%TO.C,TP5*%
X154000000Y-94200000D03*
%TD*%
%TO.N,BOOT_BNO085*%
%TO.C,TP10*%
X143500000Y-111000000D03*
%TD*%
%TO.N,MOSI*%
%TO.C,TP9*%
X141500000Y-111500000D03*
%TD*%
D13*
%TO.N,AVSS*%
%TO.C,J3*%
X162220000Y-87500000D03*
D14*
%TO.N,+5V_USB*%
X164760000Y-87500000D03*
%TO.N,AVSS*%
X167300000Y-87500000D03*
%TO.N,Net-(J3-Pin_4)*%
X169840000Y-87500000D03*
%TO.N,unconnected-(J3-Pin_5-Pad5)*%
X172380000Y-87500000D03*
%TO.N,unconnected-(J3-Pin_6-Pad6)*%
X174920000Y-87500000D03*
%TO.N,AVSS*%
X177460000Y-87500000D03*
%TO.N,Net-(J3-Pin_8)*%
X180000000Y-87500000D03*
%TD*%
D15*
%TO.N,VBIAS*%
%TO.C,Elec_In*%
X112800000Y-98200000D03*
D16*
%TO.N,Net-(D4-D1+)*%
X112800000Y-100200000D03*
%TO.N,Net-(D4-D1-)*%
X112800000Y-102200000D03*
%TO.N,Net-(D4-D2+)*%
X112800000Y-104200000D03*
%TO.N,Net-(D4-D2-)*%
X112800000Y-106200000D03*
%TD*%
D10*
%TO.N,RST_BNO085*%
%TO.C,TP12*%
X145000000Y-108500000D03*
%TD*%
D11*
%TO.N,AVSS*%
%TO.C,TP1*%
X117500000Y-88000000D03*
X119500000Y-88000000D03*
%TD*%
D12*
%TO.N,unconnected-(H3-Hole-Pad1)*%
%TO.C,H3*%
X186850000Y-86000000D03*
%TD*%
D10*
%TO.N,SDA*%
%TO.C,TP16*%
X175400000Y-112200000D03*
%TD*%
D17*
%TO.N,AVSS*%
%TO.C,SW1*%
X186250000Y-109000000D03*
D10*
%TO.N,Net-(U4-SHPHLD)*%
X186250000Y-107730000D03*
%TD*%
%TO.N,PWDWN_ADS1299*%
%TO.C,TP7*%
X139900000Y-88000000D03*
%TD*%
D12*
%TO.N,unconnected-(H2-Hole-Pad1)*%
%TO.C,H2*%
X112600000Y-117000000D03*
%TD*%
D18*
%TO.N,Net-(BT1-+)*%
%TO.C,BT1*%
X179500000Y-111550000D03*
D19*
%TO.N,AVSS*%
X181500000Y-111550000D03*
%TD*%
D20*
%TO.N,AVSS*%
%TO.C,U4*%
X167850000Y-96350000D03*
X168850000Y-96350000D03*
X169850000Y-96350000D03*
X167850000Y-95350000D03*
X168850000Y-95350000D03*
X169850000Y-95350000D03*
X167850000Y-94350000D03*
X168850000Y-94350000D03*
X169850000Y-94350000D03*
%TD*%
D21*
%TO.N,AVSS*%
X119300000Y-103200000D03*
X146000000Y-93000000D03*
X128400000Y-114654736D03*
X157777005Y-87371509D03*
X179300000Y-103300000D03*
X148600000Y-107100000D03*
X160350000Y-113750000D03*
X134500000Y-106000000D03*
X125900000Y-110600000D03*
X167100000Y-90100000D03*
X160500000Y-107320000D03*
X145432500Y-114200000D03*
X164233812Y-99166188D03*
X116500000Y-97000000D03*
X170810122Y-100310122D03*
X114628442Y-103187501D03*
X181500000Y-96260000D03*
X139160000Y-91960000D03*
X140800000Y-95500000D03*
%TO.N,Net-(BT1-+)*%
X172900000Y-90500000D03*
%TO.N,AVDD*%
X124100000Y-99200000D03*
X124250000Y-111250000D03*
X182920000Y-92268530D03*
X127540000Y-90540000D03*
X128500000Y-112800000D03*
X187500000Y-96750000D03*
X131000000Y-92600000D03*
X129000000Y-93000000D03*
%TO.N,+3V3*%
X139500000Y-93000000D03*
X136000000Y-106000000D03*
X176750000Y-107000000D03*
X165200000Y-96100000D03*
X171300000Y-113500000D03*
X165600000Y-98400000D03*
X171300000Y-107000000D03*
X162130000Y-111730000D03*
%TO.N,+5V3*%
X178515000Y-100600000D03*
X178090000Y-92410000D03*
%TO.N,INT_BNO085*%
X152900000Y-111267502D03*
X145075735Y-110924265D03*
%TO.N,BOOT_BNO085*%
X152419870Y-114323863D03*
X143580000Y-103330000D03*
%TO.N,PWDWN_ADS1299*%
X132400000Y-103080000D03*
%TO.N,RST_BNO085*%
X151800000Y-111400000D03*
%TO.N,START_ADS1299*%
X130920000Y-100650000D03*
%TO.N,RST_ADS1299*%
X131420000Y-101900000D03*
%TO.N,MISO*%
X149600000Y-109700000D03*
X153800000Y-109300000D03*
X138000000Y-99500000D03*
X153100000Y-100900000D03*
%TO.N,MOSI*%
X147400000Y-103910000D03*
X150985000Y-103470000D03*
%TO.N,SCL*%
X155350000Y-98350000D03*
X174686300Y-93405001D03*
%TO.N,SDA*%
X173230424Y-95928606D03*
X152139878Y-105560122D03*
X175600000Y-109213493D03*
%TO.N,SCK*%
X153189878Y-108810122D03*
X151883812Y-102683812D03*
X151420000Y-108800000D03*
X133000000Y-99500000D03*
X141100000Y-101900000D03*
%TO.N,CS_ADS1299*%
X133460186Y-100780431D03*
%TO.N,DRDY*%
X142920000Y-106050000D03*
X143000000Y-100500000D03*
X143000000Y-94000000D03*
%TO.N,GPIO0*%
X151400000Y-107700000D03*
X171500000Y-117700000D03*
%TO.N,VSYS*%
X164800000Y-94200000D03*
X164800000Y-92720000D03*
X167100000Y-100000000D03*
X169300000Y-91000000D03*
%TO.N,GPIO2*%
X172100000Y-98200000D03*
X155300000Y-95600000D03*
%TO.N,GPIO4*%
X170100000Y-110900000D03*
X173600000Y-110900000D03*
%TO.N,Net-(U4-SHPHLD)*%
X179920000Y-91237625D03*
%TD*%
%TA.AperFunction,Conductor*%
%TO.N,AVSS*%
G36*
X184648970Y-83520185D02*
G01*
X184694725Y-83572989D01*
X184704669Y-83642147D01*
X184675644Y-83705703D01*
X184669612Y-83712181D01*
X184490431Y-83891361D01*
X184269175Y-84168808D01*
X184080371Y-84469287D01*
X183926410Y-84788991D01*
X183926401Y-84789013D01*
X183809201Y-85123948D01*
X183809197Y-85123960D01*
X183730233Y-85469926D01*
X183730231Y-85469942D01*
X183690500Y-85822561D01*
X183690500Y-86177438D01*
X183730231Y-86530057D01*
X183730233Y-86530073D01*
X183809197Y-86876039D01*
X183809201Y-86876051D01*
X183926401Y-87210986D01*
X183926410Y-87211008D01*
X184080371Y-87530712D01*
X184080375Y-87530718D01*
X184269176Y-87831193D01*
X184403795Y-88000000D01*
X184483101Y-88099447D01*
X184490432Y-88108639D01*
X184741361Y-88359568D01*
X185018807Y-88580824D01*
X185244659Y-88722736D01*
X185319287Y-88769628D01*
X185638991Y-88923589D01*
X185639000Y-88923592D01*
X185639007Y-88923596D01*
X185705268Y-88946782D01*
X185973948Y-89040798D01*
X185973960Y-89040802D01*
X186319930Y-89119767D01*
X186672562Y-89159499D01*
X186672563Y-89159500D01*
X186672566Y-89159500D01*
X187027437Y-89159500D01*
X187027437Y-89159499D01*
X187380070Y-89119767D01*
X187726040Y-89040802D01*
X188060993Y-88923596D01*
X188076929Y-88915922D01*
X188380712Y-88769628D01*
X188380712Y-88769627D01*
X188380718Y-88769625D01*
X188681193Y-88580824D01*
X188958639Y-88359568D01*
X189209568Y-88108639D01*
X189216857Y-88099500D01*
X189278553Y-88022135D01*
X189335741Y-87981994D01*
X189405552Y-87979144D01*
X189465822Y-88014489D01*
X189497416Y-88076808D01*
X189499500Y-88099447D01*
X189499500Y-114900552D01*
X189479815Y-114967591D01*
X189427011Y-115013346D01*
X189357853Y-115023290D01*
X189294297Y-114994265D01*
X189278553Y-114977865D01*
X189209568Y-114891361D01*
X188958638Y-114640431D01*
X188772475Y-114491971D01*
X188681193Y-114419176D01*
X188380718Y-114230375D01*
X188380719Y-114230375D01*
X188380712Y-114230371D01*
X188061008Y-114076410D01*
X188060986Y-114076401D01*
X187726051Y-113959201D01*
X187726039Y-113959197D01*
X187380073Y-113880233D01*
X187380057Y-113880231D01*
X187027438Y-113840500D01*
X187027434Y-113840500D01*
X186672566Y-113840500D01*
X186672561Y-113840500D01*
X186319942Y-113880231D01*
X186319926Y-113880233D01*
X185973960Y-113959197D01*
X185973948Y-113959201D01*
X185639013Y-114076401D01*
X185638991Y-114076410D01*
X185319287Y-114230371D01*
X185018808Y-114419175D01*
X184741361Y-114640431D01*
X184490431Y-114891361D01*
X184269175Y-115168808D01*
X184080371Y-115469287D01*
X183926410Y-115788991D01*
X183926401Y-115789013D01*
X183809201Y-116123948D01*
X183809197Y-116123960D01*
X183730233Y-116469926D01*
X183730231Y-116469942D01*
X183690500Y-116822561D01*
X183690500Y-117177438D01*
X183730231Y-117530057D01*
X183730233Y-117530073D01*
X183809197Y-117876039D01*
X183809201Y-117876051D01*
X183926401Y-118210986D01*
X183926410Y-118211008D01*
X184080371Y-118530712D01*
X184080375Y-118530718D01*
X184269176Y-118831193D01*
X184387163Y-118979144D01*
X184490431Y-119108638D01*
X184669612Y-119287819D01*
X184703097Y-119349142D01*
X184698113Y-119418834D01*
X184656241Y-119474767D01*
X184590777Y-119499184D01*
X184581931Y-119499500D01*
X114868069Y-119499500D01*
X114801030Y-119479815D01*
X114755275Y-119427011D01*
X114745331Y-119357853D01*
X114774356Y-119294297D01*
X114780388Y-119287819D01*
X114959568Y-119108639D01*
X115180824Y-118831193D01*
X115369625Y-118530718D01*
X115441430Y-118381613D01*
X115523589Y-118211008D01*
X115523590Y-118211004D01*
X115523596Y-118210993D01*
X115640802Y-117876040D01*
X115704343Y-117597648D01*
X170199500Y-117597648D01*
X170199500Y-117802351D01*
X170231522Y-118004534D01*
X170294781Y-118199223D01*
X170387715Y-118381613D01*
X170508028Y-118547213D01*
X170652786Y-118691971D01*
X170803502Y-118801470D01*
X170818390Y-118812287D01*
X170934607Y-118871503D01*
X171000776Y-118905218D01*
X171000778Y-118905218D01*
X171000781Y-118905220D01*
X171105137Y-118939127D01*
X171195465Y-118968477D01*
X171296557Y-118984488D01*
X171397648Y-119000500D01*
X171397649Y-119000500D01*
X171602351Y-119000500D01*
X171602352Y-119000500D01*
X171804534Y-118968477D01*
X171999219Y-118905220D01*
X172181610Y-118812287D01*
X172306025Y-118721895D01*
X172347213Y-118691971D01*
X172347215Y-118691968D01*
X172347219Y-118691966D01*
X172491966Y-118547219D01*
X172491968Y-118547215D01*
X172491971Y-118547213D01*
X172544732Y-118474590D01*
X172612287Y-118381610D01*
X172705220Y-118199219D01*
X172768477Y-118004534D01*
X172800500Y-117802352D01*
X172800500Y-117597648D01*
X172789797Y-117530070D01*
X172768477Y-117395465D01*
X172705218Y-117200776D01*
X172671503Y-117134607D01*
X172612287Y-117018390D01*
X172604556Y-117007749D01*
X172491971Y-116852786D01*
X172347213Y-116708028D01*
X172181613Y-116587715D01*
X172181612Y-116587714D01*
X172181610Y-116587713D01*
X172124653Y-116558691D01*
X171999223Y-116494781D01*
X171804534Y-116431522D01*
X171629995Y-116403878D01*
X171602352Y-116399500D01*
X171397648Y-116399500D01*
X171373329Y-116403351D01*
X171195465Y-116431522D01*
X171000776Y-116494781D01*
X170818386Y-116587715D01*
X170652786Y-116708028D01*
X170508028Y-116852786D01*
X170387715Y-117018386D01*
X170294781Y-117200776D01*
X170231522Y-117395465D01*
X170199500Y-117597648D01*
X115704343Y-117597648D01*
X115719767Y-117530070D01*
X115759500Y-117177434D01*
X115759500Y-116822566D01*
X115719767Y-116469930D01*
X115640802Y-116123960D01*
X115523596Y-115789007D01*
X115523592Y-115789000D01*
X115523589Y-115788991D01*
X115369628Y-115469287D01*
X115273204Y-115315829D01*
X115180824Y-115168807D01*
X114959568Y-114891361D01*
X114708639Y-114640432D01*
X114431193Y-114419176D01*
X114130718Y-114230375D01*
X114130719Y-114230375D01*
X114130712Y-114230371D01*
X113811008Y-114076410D01*
X113810986Y-114076401D01*
X113476051Y-113959201D01*
X113476039Y-113959197D01*
X113130073Y-113880233D01*
X113130057Y-113880231D01*
X112777438Y-113840500D01*
X112777434Y-113840500D01*
X112422566Y-113840500D01*
X112422561Y-113840500D01*
X112069942Y-113880231D01*
X112069926Y-113880233D01*
X111723960Y-113959197D01*
X111723948Y-113959201D01*
X111389013Y-114076401D01*
X111388991Y-114076410D01*
X111069287Y-114230371D01*
X110768808Y-114419175D01*
X110491361Y-114640431D01*
X110240431Y-114891361D01*
X110221447Y-114915167D01*
X110164258Y-114955307D01*
X110094447Y-114958157D01*
X110034177Y-114922811D01*
X110002584Y-114860492D01*
X110000500Y-114837854D01*
X110000500Y-112697648D01*
X127199500Y-112697648D01*
X127199500Y-112902351D01*
X127231522Y-113104534D01*
X127294781Y-113299223D01*
X127336909Y-113381902D01*
X127385188Y-113476655D01*
X127387715Y-113481613D01*
X127508028Y-113647213D01*
X127652786Y-113791971D01*
X127774268Y-113880231D01*
X127818390Y-113912287D01*
X127910456Y-113959197D01*
X128000776Y-114005218D01*
X128000778Y-114005218D01*
X128000781Y-114005220D01*
X128105137Y-114039127D01*
X128195465Y-114068477D01*
X128242913Y-114075992D01*
X128397648Y-114100500D01*
X128397649Y-114100500D01*
X128602351Y-114100500D01*
X128602352Y-114100500D01*
X128804534Y-114068477D01*
X128999219Y-114005220D01*
X129181610Y-113912287D01*
X129280417Y-113840500D01*
X129347213Y-113791971D01*
X129347215Y-113791968D01*
X129347219Y-113791966D01*
X129491966Y-113647219D01*
X129491968Y-113647215D01*
X129491971Y-113647213D01*
X129563594Y-113548631D01*
X129612287Y-113481610D01*
X129663091Y-113381902D01*
X139699500Y-113381902D01*
X139699500Y-113618097D01*
X139736446Y-113851368D01*
X139809433Y-114075996D01*
X139888092Y-114230371D01*
X139916657Y-114286433D01*
X140055483Y-114477510D01*
X140222490Y-114644517D01*
X140413567Y-114783343D01*
X140491559Y-114823082D01*
X140624003Y-114890566D01*
X140624005Y-114890566D01*
X140624008Y-114890568D01*
X140744412Y-114929689D01*
X140848631Y-114963553D01*
X141081903Y-115000500D01*
X141081908Y-115000500D01*
X141318097Y-115000500D01*
X141551368Y-114963553D01*
X141576746Y-114955307D01*
X141775992Y-114890568D01*
X141892532Y-114831187D01*
X141961201Y-114818291D01*
X142025941Y-114844567D01*
X142049143Y-114868784D01*
X142055483Y-114877510D01*
X142222490Y-115044517D01*
X142413567Y-115183343D01*
X142512991Y-115234002D01*
X142624003Y-115290566D01*
X142624005Y-115290566D01*
X142624008Y-115290568D01*
X142744412Y-115329689D01*
X142848631Y-115363553D01*
X143081903Y-115400500D01*
X143081908Y-115400500D01*
X143318097Y-115400500D01*
X143551368Y-115363553D01*
X143775992Y-115290568D01*
X143986433Y-115183343D01*
X144177510Y-115044517D01*
X144344517Y-114877510D01*
X144483343Y-114686433D01*
X144590568Y-114475992D01*
X144663553Y-114251368D01*
X144668282Y-114221511D01*
X151119370Y-114221511D01*
X151119370Y-114426214D01*
X151151392Y-114628397D01*
X151214651Y-114823086D01*
X151278561Y-114948516D01*
X151305049Y-115000500D01*
X151307585Y-115005476D01*
X151427898Y-115171076D01*
X151572656Y-115315834D01*
X151727619Y-115428419D01*
X151738260Y-115436150D01*
X151854477Y-115495366D01*
X151920646Y-115529081D01*
X151920648Y-115529081D01*
X151920651Y-115529083D01*
X152025007Y-115562990D01*
X152115335Y-115592340D01*
X152216427Y-115608351D01*
X152317518Y-115624363D01*
X152317519Y-115624363D01*
X152522221Y-115624363D01*
X152522222Y-115624363D01*
X152724404Y-115592340D01*
X152919089Y-115529083D01*
X153101480Y-115436150D01*
X153201402Y-115363553D01*
X153267083Y-115315834D01*
X153267085Y-115315831D01*
X153267089Y-115315829D01*
X153411836Y-115171082D01*
X153411838Y-115171078D01*
X153411841Y-115171076D01*
X153519212Y-115023290D01*
X153532157Y-115005473D01*
X153625090Y-114823082D01*
X153688347Y-114628397D01*
X153720370Y-114426215D01*
X153720370Y-114221511D01*
X153714050Y-114181610D01*
X153688347Y-114019328D01*
X153625088Y-113824639D01*
X153561835Y-113700500D01*
X153532157Y-113642253D01*
X153514603Y-113618092D01*
X153411845Y-113476655D01*
X153411838Y-113476647D01*
X153411836Y-113476644D01*
X153332840Y-113397648D01*
X169999500Y-113397648D01*
X169999500Y-113602351D01*
X170031522Y-113804534D01*
X170094781Y-113999223D01*
X170187715Y-114181613D01*
X170308028Y-114347213D01*
X170452786Y-114491971D01*
X170607749Y-114604556D01*
X170618390Y-114612287D01*
X170734607Y-114671503D01*
X170800776Y-114705218D01*
X170800778Y-114705218D01*
X170800781Y-114705220D01*
X170905137Y-114739127D01*
X170995465Y-114768477D01*
X171087418Y-114783041D01*
X171197648Y-114800500D01*
X171197649Y-114800500D01*
X171402351Y-114800500D01*
X171402352Y-114800500D01*
X171604534Y-114768477D01*
X171799219Y-114705220D01*
X171981610Y-114612287D01*
X172074590Y-114544732D01*
X172147213Y-114491971D01*
X172147215Y-114491968D01*
X172147219Y-114491966D01*
X172291966Y-114347219D01*
X172291968Y-114347215D01*
X172291971Y-114347213D01*
X172383297Y-114221511D01*
X172412287Y-114181610D01*
X172505220Y-113999219D01*
X172568477Y-113804534D01*
X172600500Y-113602352D01*
X172600500Y-113397648D01*
X172568477Y-113195466D01*
X172562643Y-113177512D01*
X172505218Y-113000776D01*
X172455067Y-112902351D01*
X172412287Y-112818390D01*
X172381486Y-112775996D01*
X172291971Y-112652786D01*
X172147213Y-112508028D01*
X171981613Y-112387715D01*
X171981612Y-112387714D01*
X171981610Y-112387713D01*
X171876978Y-112334400D01*
X171799223Y-112294781D01*
X171604534Y-112231522D01*
X171429995Y-112203878D01*
X171402352Y-112199500D01*
X171197648Y-112199500D01*
X171173329Y-112203351D01*
X170995465Y-112231522D01*
X170800776Y-112294781D01*
X170618386Y-112387715D01*
X170452786Y-112508028D01*
X170308028Y-112652786D01*
X170187715Y-112818386D01*
X170094781Y-113000776D01*
X170031522Y-113195465D01*
X169999500Y-113397648D01*
X153332840Y-113397648D01*
X153267089Y-113331897D01*
X153267083Y-113331891D01*
X153101483Y-113211578D01*
X153101482Y-113211577D01*
X153101480Y-113211576D01*
X153034622Y-113177510D01*
X152919093Y-113118644D01*
X152724404Y-113055385D01*
X152549865Y-113027741D01*
X152522222Y-113023363D01*
X152317518Y-113023363D01*
X152293199Y-113027214D01*
X152115335Y-113055385D01*
X151920646Y-113118644D01*
X151738256Y-113211578D01*
X151572656Y-113331891D01*
X151427898Y-113476649D01*
X151307585Y-113642249D01*
X151214651Y-113824639D01*
X151151392Y-114019328D01*
X151119370Y-114221511D01*
X144668282Y-114221511D01*
X144674601Y-114181613D01*
X144700500Y-114018097D01*
X144700500Y-113781902D01*
X144663553Y-113548631D01*
X144623545Y-113425500D01*
X144590568Y-113324008D01*
X144590566Y-113324005D01*
X144590566Y-113324003D01*
X144525072Y-113195465D01*
X144483343Y-113113567D01*
X144344517Y-112922490D01*
X144177510Y-112755483D01*
X143995969Y-112623585D01*
X143953304Y-112568255D01*
X143947325Y-112498641D01*
X143979931Y-112436846D01*
X144030533Y-112405338D01*
X144075992Y-112390568D01*
X144286433Y-112283343D01*
X144471289Y-112149036D01*
X144537091Y-112125558D01*
X144582484Y-112131424D01*
X144727260Y-112178464D01*
X144771200Y-112192742D01*
X144820182Y-112200500D01*
X144973383Y-112224765D01*
X144973384Y-112224765D01*
X145178086Y-112224765D01*
X145178087Y-112224765D01*
X145380269Y-112192742D01*
X145574954Y-112129485D01*
X145757345Y-112036552D01*
X145877697Y-111949112D01*
X145922948Y-111916236D01*
X145922950Y-111916233D01*
X145922954Y-111916231D01*
X146067701Y-111771484D01*
X146067703Y-111771480D01*
X146067706Y-111771478D01*
X146128564Y-111687713D01*
X146188022Y-111605875D01*
X146280955Y-111423484D01*
X146344212Y-111228799D01*
X146376235Y-111026617D01*
X146376235Y-110821913D01*
X146344212Y-110619731D01*
X146343556Y-110617713D01*
X146312616Y-110522488D01*
X146280955Y-110425046D01*
X146280953Y-110425043D01*
X146280953Y-110425041D01*
X146230375Y-110325777D01*
X146188022Y-110242655D01*
X146169134Y-110216657D01*
X146067706Y-110077051D01*
X145922954Y-109932299D01*
X145909341Y-109922409D01*
X145890258Y-109908544D01*
X145847593Y-109853215D01*
X145841614Y-109783602D01*
X145874219Y-109721806D01*
X145890253Y-109707912D01*
X145977510Y-109644517D01*
X146024379Y-109597648D01*
X148299500Y-109597648D01*
X148299500Y-109802351D01*
X148331522Y-110004534D01*
X148394781Y-110199223D01*
X148487715Y-110381613D01*
X148608028Y-110547213D01*
X148752786Y-110691971D01*
X148857823Y-110768283D01*
X148918390Y-110812287D01*
X149010468Y-110859203D01*
X149100776Y-110905218D01*
X149100778Y-110905218D01*
X149100781Y-110905220D01*
X149158605Y-110924008D01*
X149295465Y-110968477D01*
X149396557Y-110984488D01*
X149497648Y-111000500D01*
X149497649Y-111000500D01*
X149702351Y-111000500D01*
X149702352Y-111000500D01*
X149904534Y-110968477D01*
X150099219Y-110905220D01*
X150281610Y-110812287D01*
X150432593Y-110702591D01*
X150498399Y-110679112D01*
X150566453Y-110694937D01*
X150615148Y-110745043D01*
X150629023Y-110813521D01*
X150615964Y-110859203D01*
X150594782Y-110900776D01*
X150594781Y-110900778D01*
X150594780Y-110900781D01*
X150593338Y-110905220D01*
X150531522Y-111095465D01*
X150499500Y-111297648D01*
X150499500Y-111502351D01*
X150531522Y-111704534D01*
X150594781Y-111899223D01*
X150652391Y-112012287D01*
X150684850Y-112075992D01*
X150687715Y-112081613D01*
X150808028Y-112247213D01*
X150952786Y-112391971D01*
X151070523Y-112477510D01*
X151118390Y-112512287D01*
X151195091Y-112551368D01*
X151300776Y-112605218D01*
X151300778Y-112605218D01*
X151300781Y-112605220D01*
X151357303Y-112623585D01*
X151495465Y-112668477D01*
X151596557Y-112684488D01*
X151697648Y-112700500D01*
X151697649Y-112700500D01*
X151902351Y-112700500D01*
X151902352Y-112700500D01*
X152104534Y-112668477D01*
X152299219Y-112605220D01*
X152451788Y-112527481D01*
X152520456Y-112514586D01*
X152546397Y-112520035D01*
X152595466Y-112535979D01*
X152797648Y-112568002D01*
X152797649Y-112568002D01*
X153002351Y-112568002D01*
X153002352Y-112568002D01*
X153204534Y-112535979D01*
X153399219Y-112472722D01*
X153581610Y-112379789D01*
X153690363Y-112300776D01*
X153747213Y-112259473D01*
X153747215Y-112259470D01*
X153747219Y-112259468D01*
X153891966Y-112114721D01*
X153891968Y-112114717D01*
X153891971Y-112114715D01*
X153966390Y-112012284D01*
X154012287Y-111949112D01*
X154105220Y-111766721D01*
X154150408Y-111627648D01*
X160829500Y-111627648D01*
X160829500Y-111832351D01*
X160861522Y-112034534D01*
X160924781Y-112229223D01*
X160978372Y-112334400D01*
X161011666Y-112399743D01*
X161017715Y-112411613D01*
X161138028Y-112577213D01*
X161282786Y-112721971D01*
X161415493Y-112818386D01*
X161448390Y-112842287D01*
X161557564Y-112897914D01*
X161630776Y-112935218D01*
X161630778Y-112935218D01*
X161630781Y-112935220D01*
X161735137Y-112969127D01*
X161825465Y-112998477D01*
X161926557Y-113014488D01*
X162027648Y-113030500D01*
X162027649Y-113030500D01*
X162232351Y-113030500D01*
X162232352Y-113030500D01*
X162434534Y-112998477D01*
X162629219Y-112935220D01*
X162811610Y-112842287D01*
X162931084Y-112755485D01*
X162977213Y-112721971D01*
X162977215Y-112721968D01*
X162977219Y-112721966D01*
X163121966Y-112577219D01*
X163121968Y-112577215D01*
X163121971Y-112577213D01*
X163179056Y-112498641D01*
X163242287Y-112411610D01*
X163335220Y-112229219D01*
X163398477Y-112034534D01*
X163430500Y-111832352D01*
X163430500Y-111627648D01*
X163398477Y-111425466D01*
X163397834Y-111423488D01*
X163364126Y-111319745D01*
X163335220Y-111230781D01*
X163335218Y-111230778D01*
X163335218Y-111230776D01*
X163293362Y-111148631D01*
X163242287Y-111048390D01*
X163207493Y-111000500D01*
X163121971Y-110882786D01*
X163036833Y-110797648D01*
X168799500Y-110797648D01*
X168799500Y-111002351D01*
X168831522Y-111204534D01*
X168894781Y-111399223D01*
X168947328Y-111502351D01*
X168982836Y-111572039D01*
X168987715Y-111581613D01*
X169108028Y-111747213D01*
X169252786Y-111891971D01*
X169407749Y-112004556D01*
X169418390Y-112012287D01*
X169534607Y-112071503D01*
X169600776Y-112105218D01*
X169600778Y-112105218D01*
X169600781Y-112105220D01*
X169663375Y-112125558D01*
X169795465Y-112168477D01*
X169896557Y-112184488D01*
X169997648Y-112200500D01*
X169997649Y-112200500D01*
X170202351Y-112200500D01*
X170202352Y-112200500D01*
X170404534Y-112168477D01*
X170599219Y-112105220D01*
X170781610Y-112012287D01*
X170892653Y-111931610D01*
X170947213Y-111891971D01*
X170947215Y-111891968D01*
X170947219Y-111891966D01*
X171091966Y-111747219D01*
X171091968Y-111747215D01*
X171091971Y-111747213D01*
X171144732Y-111674590D01*
X171212287Y-111581610D01*
X171305220Y-111399219D01*
X171368477Y-111204534D01*
X171400500Y-111002352D01*
X171400500Y-110797648D01*
X172299500Y-110797648D01*
X172299500Y-111002351D01*
X172331522Y-111204534D01*
X172394781Y-111399223D01*
X172447328Y-111502351D01*
X172482836Y-111572039D01*
X172487715Y-111581613D01*
X172608028Y-111747213D01*
X172752786Y-111891971D01*
X172907749Y-112004556D01*
X172918390Y-112012287D01*
X173034607Y-112071503D01*
X173100776Y-112105218D01*
X173100778Y-112105218D01*
X173100781Y-112105220D01*
X173163375Y-112125558D01*
X173295465Y-112168477D01*
X173396557Y-112184488D01*
X173497648Y-112200500D01*
X173497649Y-112200500D01*
X173702350Y-112200500D01*
X173702352Y-112200500D01*
X173756103Y-112191986D01*
X173825394Y-112200940D01*
X173878847Y-112245936D01*
X173899487Y-112312687D01*
X173899500Y-112314459D01*
X173899500Y-112318097D01*
X173936446Y-112551368D01*
X174009433Y-112775996D01*
X174113198Y-112979645D01*
X174116657Y-112986433D01*
X174255483Y-113177510D01*
X174422490Y-113344517D01*
X174613567Y-113483343D01*
X174712991Y-113534002D01*
X174824003Y-113590566D01*
X174824005Y-113590566D01*
X174824008Y-113590568D01*
X174944412Y-113629689D01*
X175048631Y-113663553D01*
X175281903Y-113700500D01*
X175281908Y-113700500D01*
X175518097Y-113700500D01*
X175751368Y-113663553D01*
X175975992Y-113590568D01*
X176186433Y-113483343D01*
X176377510Y-113344517D01*
X176544517Y-113177510D01*
X176683343Y-112986433D01*
X176790568Y-112775992D01*
X176863553Y-112551368D01*
X176868317Y-112521288D01*
X176900500Y-112318097D01*
X176900500Y-112081902D01*
X176863553Y-111848631D01*
X176829689Y-111744412D01*
X176790568Y-111624008D01*
X176790566Y-111624005D01*
X176790566Y-111624003D01*
X176727128Y-111499500D01*
X176683343Y-111413567D01*
X176544517Y-111222490D01*
X176377510Y-111055483D01*
X176186433Y-110916657D01*
X176155265Y-110900776D01*
X176076763Y-110860777D01*
X177899500Y-110860777D01*
X177899500Y-112239208D01*
X177899501Y-112239223D01*
X177909904Y-112371413D01*
X177909905Y-112371420D01*
X177964902Y-112589678D01*
X177964903Y-112589681D01*
X178057991Y-112794622D01*
X178057997Y-112794632D01*
X178186174Y-112979645D01*
X178186178Y-112979650D01*
X178186181Y-112979654D01*
X178345346Y-113138819D01*
X178345350Y-113138822D01*
X178345354Y-113138825D01*
X178359510Y-113148632D01*
X178530374Y-113267007D01*
X178735317Y-113360096D01*
X178735321Y-113360097D01*
X178953579Y-113415094D01*
X178953581Y-113415094D01*
X178953588Y-113415096D01*
X179085783Y-113425500D01*
X179914216Y-113425499D01*
X180046412Y-113415096D01*
X180264683Y-113360096D01*
X180469626Y-113267007D01*
X180654654Y-113138819D01*
X180813819Y-112979654D01*
X180890236Y-112869351D01*
X180944593Y-112825458D01*
X181014055Y-112817918D01*
X181048460Y-112829486D01*
X181077750Y-112844410D01*
X181242415Y-112897914D01*
X181242414Y-112897914D01*
X181249999Y-112899115D01*
X181250000Y-112899114D01*
X181250000Y-111830330D01*
X181269745Y-111850075D01*
X181355255Y-111899444D01*
X181450630Y-111925000D01*
X181549370Y-111925000D01*
X181644745Y-111899444D01*
X181730255Y-111850075D01*
X181750000Y-111830330D01*
X181750000Y-112899115D01*
X181757584Y-112897914D01*
X181922255Y-112844408D01*
X182076524Y-112765804D01*
X182216602Y-112664032D01*
X182339032Y-112541602D01*
X182440804Y-112401524D01*
X182519408Y-112247257D01*
X182572914Y-112082584D01*
X182600000Y-111911571D01*
X182600000Y-111800000D01*
X181780330Y-111800000D01*
X181800075Y-111780255D01*
X181849444Y-111694745D01*
X181875000Y-111599370D01*
X181875000Y-111500630D01*
X181849444Y-111405255D01*
X181800075Y-111319745D01*
X181780330Y-111300000D01*
X182600000Y-111300000D01*
X182600000Y-111188428D01*
X182572914Y-111017415D01*
X182519408Y-110852742D01*
X182440804Y-110698475D01*
X182339032Y-110558397D01*
X182216602Y-110435967D01*
X182076524Y-110334195D01*
X181922257Y-110255591D01*
X181757589Y-110202087D01*
X181757581Y-110202085D01*
X181750000Y-110200884D01*
X181750000Y-111269670D01*
X181730255Y-111249925D01*
X181644745Y-111200556D01*
X181549370Y-111175000D01*
X181450630Y-111175000D01*
X181355255Y-111200556D01*
X181269745Y-111249925D01*
X181250000Y-111269670D01*
X181250000Y-110200884D01*
X181249999Y-110200884D01*
X181242418Y-110202085D01*
X181242406Y-110202088D01*
X181077749Y-110255588D01*
X181048455Y-110270514D01*
X180979785Y-110283409D01*
X180915045Y-110257131D01*
X180890234Y-110230644D01*
X180813825Y-110120354D01*
X180813822Y-110120350D01*
X180813819Y-110120346D01*
X180654654Y-109961181D01*
X180654650Y-109961178D01*
X180654645Y-109961174D01*
X180469632Y-109832997D01*
X180469630Y-109832995D01*
X180469626Y-109832993D01*
X180408153Y-109805071D01*
X180264681Y-109739903D01*
X180264678Y-109739902D01*
X180046420Y-109684905D01*
X180046413Y-109684904D01*
X180002347Y-109681436D01*
X179914217Y-109674500D01*
X179914215Y-109674500D01*
X179085791Y-109674500D01*
X179085776Y-109674501D01*
X178953586Y-109684904D01*
X178953579Y-109684905D01*
X178735321Y-109739902D01*
X178735318Y-109739903D01*
X178530377Y-109832991D01*
X178530367Y-109832997D01*
X178345354Y-109961174D01*
X178345342Y-109961184D01*
X178186184Y-110120342D01*
X178186174Y-110120354D01*
X178057997Y-110305367D01*
X178057991Y-110305377D01*
X177964903Y-110510318D01*
X177964902Y-110510321D01*
X177909905Y-110728579D01*
X177909904Y-110728586D01*
X177899500Y-110860777D01*
X176076763Y-110860777D01*
X175975996Y-110809433D01*
X175766244Y-110741280D01*
X175708569Y-110701842D01*
X175681371Y-110637483D01*
X175693286Y-110568637D01*
X175740530Y-110517161D01*
X175785162Y-110500876D01*
X175904534Y-110481970D01*
X176099219Y-110418713D01*
X176281610Y-110325780D01*
X176412555Y-110230644D01*
X176447213Y-110205464D01*
X176447215Y-110205461D01*
X176447219Y-110205459D01*
X176591966Y-110060712D01*
X176591968Y-110060708D01*
X176591971Y-110060706D01*
X176650237Y-109980508D01*
X176712287Y-109895103D01*
X176805220Y-109712712D01*
X176868477Y-109518027D01*
X176900500Y-109315845D01*
X176900500Y-109111141D01*
X176900058Y-109108353D01*
X176868477Y-108908958D01*
X176805218Y-108714269D01*
X176712285Y-108531880D01*
X176687223Y-108497384D01*
X176663744Y-108431578D01*
X176679570Y-108363524D01*
X176729676Y-108314830D01*
X176787542Y-108300500D01*
X176852351Y-108300500D01*
X176852352Y-108300500D01*
X177054534Y-108268477D01*
X177249219Y-108205220D01*
X177431610Y-108112287D01*
X177574773Y-108008274D01*
X177597213Y-107991971D01*
X177597215Y-107991968D01*
X177597219Y-107991966D01*
X177741966Y-107847219D01*
X177741968Y-107847215D01*
X177741971Y-107847213D01*
X177862284Y-107681614D01*
X177862285Y-107681613D01*
X177862287Y-107681610D01*
X177897805Y-107611902D01*
X184749500Y-107611902D01*
X184749500Y-107848097D01*
X184786446Y-108081368D01*
X184859433Y-108305996D01*
X184934227Y-108452786D01*
X184966657Y-108516433D01*
X185105483Y-108707510D01*
X185272490Y-108874517D01*
X185463567Y-109013343D01*
X185467830Y-109015515D01*
X185518626Y-109063490D01*
X185535421Y-109131311D01*
X185512883Y-109197446D01*
X185458168Y-109240897D01*
X185411535Y-109250000D01*
X185250000Y-109250000D01*
X185250000Y-109547844D01*
X185256401Y-109607372D01*
X185256403Y-109607379D01*
X185306645Y-109742086D01*
X185306649Y-109742093D01*
X185392809Y-109857187D01*
X185392812Y-109857190D01*
X185507906Y-109943350D01*
X185507913Y-109943354D01*
X185642620Y-109993596D01*
X185642627Y-109993598D01*
X185702155Y-109999999D01*
X185702172Y-110000000D01*
X186000000Y-110000000D01*
X186000000Y-109354261D01*
X186019685Y-109287222D01*
X186050794Y-109260265D01*
X186124555Y-109302851D01*
X186207213Y-109325000D01*
X186292787Y-109325000D01*
X186375445Y-109302851D01*
X186449554Y-109260064D01*
X186449736Y-109259881D01*
X186484404Y-109294056D01*
X186500000Y-109354261D01*
X186500000Y-110000000D01*
X186797828Y-110000000D01*
X186797844Y-109999999D01*
X186857372Y-109993598D01*
X186857379Y-109993596D01*
X186992086Y-109943354D01*
X186992093Y-109943350D01*
X187107187Y-109857190D01*
X187107190Y-109857187D01*
X187193350Y-109742093D01*
X187193354Y-109742086D01*
X187243596Y-109607379D01*
X187243598Y-109607372D01*
X187249999Y-109547844D01*
X187250000Y-109547827D01*
X187250000Y-109250000D01*
X187088465Y-109250000D01*
X187021426Y-109230315D01*
X186975671Y-109177511D01*
X186965727Y-109108353D01*
X186994752Y-109044797D01*
X187032170Y-109015515D01*
X187036433Y-109013343D01*
X187227510Y-108874517D01*
X187394517Y-108707510D01*
X187533343Y-108516433D01*
X187640568Y-108305992D01*
X187713553Y-108081368D01*
X187732316Y-107962903D01*
X187750500Y-107848097D01*
X187750500Y-107611902D01*
X187713553Y-107378631D01*
X187673453Y-107255218D01*
X187640568Y-107154008D01*
X187640566Y-107154005D01*
X187640566Y-107154003D01*
X187558006Y-106991971D01*
X187533343Y-106943567D01*
X187394517Y-106752490D01*
X187227510Y-106585483D01*
X187036433Y-106446657D01*
X186962337Y-106408903D01*
X186825996Y-106339433D01*
X186601368Y-106266446D01*
X186368097Y-106229500D01*
X186368092Y-106229500D01*
X186131908Y-106229500D01*
X186131903Y-106229500D01*
X185898631Y-106266446D01*
X185674003Y-106339433D01*
X185463566Y-106446657D01*
X185397330Y-106494781D01*
X185272490Y-106585483D01*
X185272488Y-106585485D01*
X185272487Y-106585485D01*
X185105485Y-106752487D01*
X185105485Y-106752488D01*
X185105483Y-106752490D01*
X185089241Y-106774845D01*
X184966657Y-106943566D01*
X184859433Y-107154003D01*
X184786446Y-107378631D01*
X184749500Y-107611902D01*
X177897805Y-107611902D01*
X177955220Y-107499219D01*
X178018477Y-107304534D01*
X178050500Y-107102352D01*
X178050500Y-106897648D01*
X178031050Y-106774845D01*
X178018477Y-106695465D01*
X177971892Y-106552093D01*
X177955220Y-106500781D01*
X177955218Y-106500778D01*
X177955218Y-106500776D01*
X177873730Y-106340849D01*
X177862287Y-106318390D01*
X177824548Y-106266446D01*
X177741971Y-106152786D01*
X177597213Y-106008028D01*
X177431613Y-105887715D01*
X177431612Y-105887714D01*
X177431610Y-105887713D01*
X177374653Y-105858691D01*
X177249223Y-105794781D01*
X177054534Y-105731522D01*
X176879995Y-105703878D01*
X176852352Y-105699500D01*
X176647648Y-105699500D01*
X176623329Y-105703351D01*
X176445465Y-105731522D01*
X176250776Y-105794781D01*
X176068386Y-105887715D01*
X175902786Y-106008028D01*
X175758028Y-106152786D01*
X175637715Y-106318386D01*
X175544781Y-106500776D01*
X175481522Y-106695465D01*
X175449500Y-106897648D01*
X175449500Y-107102351D01*
X175481522Y-107304534D01*
X175544781Y-107499223D01*
X175637714Y-107681612D01*
X175662777Y-107716109D01*
X175686256Y-107781915D01*
X175670430Y-107849969D01*
X175620324Y-107898663D01*
X175562458Y-107912993D01*
X175497648Y-107912993D01*
X175473329Y-107916844D01*
X175295465Y-107945015D01*
X175100776Y-108008274D01*
X174918386Y-108101208D01*
X174752786Y-108221521D01*
X174608028Y-108366279D01*
X174487715Y-108531879D01*
X174394781Y-108714269D01*
X174331522Y-108908958D01*
X174299500Y-109111141D01*
X174299500Y-109315844D01*
X174331523Y-109518028D01*
X174331523Y-109518031D01*
X174353928Y-109586985D01*
X174355923Y-109656826D01*
X174319843Y-109716659D01*
X174257142Y-109747487D01*
X174187727Y-109739522D01*
X174179702Y-109735788D01*
X174099223Y-109694781D01*
X173904534Y-109631522D01*
X173729995Y-109603878D01*
X173702352Y-109599500D01*
X173497648Y-109599500D01*
X173473329Y-109603351D01*
X173295465Y-109631522D01*
X173100776Y-109694781D01*
X172918386Y-109787715D01*
X172752786Y-109908028D01*
X172608028Y-110052786D01*
X172487715Y-110218386D01*
X172394781Y-110400776D01*
X172331522Y-110595465D01*
X172299500Y-110797648D01*
X171400500Y-110797648D01*
X171389562Y-110728588D01*
X171368477Y-110595465D01*
X171324956Y-110461522D01*
X171305220Y-110400781D01*
X171305218Y-110400778D01*
X171305218Y-110400776D01*
X171256609Y-110305377D01*
X171212287Y-110218390D01*
X171199568Y-110200884D01*
X171091971Y-110052786D01*
X170947213Y-109908028D01*
X170781613Y-109787715D01*
X170781612Y-109787714D01*
X170781610Y-109787713D01*
X170724653Y-109758691D01*
X170599223Y-109694781D01*
X170404534Y-109631522D01*
X170229995Y-109603878D01*
X170202352Y-109599500D01*
X169997648Y-109599500D01*
X169973329Y-109603351D01*
X169795465Y-109631522D01*
X169600776Y-109694781D01*
X169418386Y-109787715D01*
X169252786Y-109908028D01*
X169108028Y-110052786D01*
X168987715Y-110218386D01*
X168894781Y-110400776D01*
X168831522Y-110595465D01*
X168799500Y-110797648D01*
X163036833Y-110797648D01*
X162977213Y-110738028D01*
X162811613Y-110617715D01*
X162811612Y-110617714D01*
X162811610Y-110617713D01*
X162744222Y-110583377D01*
X162629223Y-110524781D01*
X162434534Y-110461522D01*
X162259995Y-110433878D01*
X162232352Y-110429500D01*
X162027648Y-110429500D01*
X162003329Y-110433351D01*
X161825465Y-110461522D01*
X161630776Y-110524781D01*
X161448386Y-110617715D01*
X161282786Y-110738028D01*
X161138028Y-110882786D01*
X161017715Y-111048386D01*
X160924781Y-111230776D01*
X160861522Y-111425465D01*
X160829500Y-111627648D01*
X154150408Y-111627648D01*
X154168477Y-111572036D01*
X154200500Y-111369854D01*
X154200500Y-111165150D01*
X154189463Y-111095465D01*
X154168477Y-110962967D01*
X154135273Y-110860777D01*
X154105220Y-110768283D01*
X154105217Y-110768279D01*
X154105217Y-110768276D01*
X154083690Y-110726028D01*
X154070793Y-110657359D01*
X154097069Y-110592618D01*
X154154175Y-110552361D01*
X154155798Y-110551820D01*
X154299219Y-110505220D01*
X154481610Y-110412287D01*
X154600682Y-110325777D01*
X154647213Y-110291971D01*
X154647215Y-110291968D01*
X154647219Y-110291966D01*
X154791966Y-110147219D01*
X154791968Y-110147215D01*
X154791971Y-110147213D01*
X154853676Y-110062282D01*
X154912287Y-109981610D01*
X155005220Y-109799219D01*
X155068477Y-109604534D01*
X155100500Y-109402352D01*
X155100500Y-109197648D01*
X155079251Y-109063490D01*
X155068477Y-108995465D01*
X155005218Y-108800776D01*
X154957696Y-108707510D01*
X154912287Y-108618390D01*
X154904556Y-108607749D01*
X154791971Y-108452786D01*
X154647213Y-108308028D01*
X154481613Y-108187715D01*
X154481612Y-108187714D01*
X154481610Y-108187713D01*
X154333578Y-108112287D01*
X154294878Y-108092568D01*
X154295519Y-108091309D01*
X154247820Y-108053712D01*
X154181844Y-107962903D01*
X154037097Y-107818156D01*
X154037091Y-107818150D01*
X153871491Y-107697837D01*
X153871490Y-107697836D01*
X153871488Y-107697835D01*
X153814531Y-107668813D01*
X153689101Y-107604903D01*
X153494412Y-107541644D01*
X153319873Y-107514000D01*
X153292230Y-107509622D01*
X153087526Y-107509622D01*
X153047089Y-107516026D01*
X152885340Y-107541645D01*
X152839188Y-107556641D01*
X152769347Y-107558636D01*
X152709515Y-107522555D01*
X152678687Y-107459854D01*
X152678430Y-107458306D01*
X152668477Y-107395466D01*
X152663007Y-107378632D01*
X152622908Y-107255220D01*
X152605220Y-107200781D01*
X152605218Y-107200778D01*
X152605218Y-107200776D01*
X152555067Y-107102351D01*
X152512287Y-107018390D01*
X152493093Y-106991971D01*
X152488086Y-106985079D01*
X152478631Y-106958582D01*
X152466220Y-106933338D01*
X152467048Y-106926118D01*
X152464606Y-106919273D01*
X152469635Y-106897648D01*
X169999500Y-106897648D01*
X169999500Y-107102351D01*
X170031522Y-107304534D01*
X170094781Y-107499223D01*
X170187715Y-107681613D01*
X170308028Y-107847213D01*
X170452786Y-107991971D01*
X170589516Y-108091309D01*
X170618390Y-108112287D01*
X170734607Y-108171503D01*
X170800776Y-108205218D01*
X170800778Y-108205218D01*
X170800781Y-108205220D01*
X170850969Y-108221527D01*
X170995465Y-108268477D01*
X171087008Y-108282976D01*
X171197648Y-108300500D01*
X171197649Y-108300500D01*
X171402351Y-108300500D01*
X171402352Y-108300500D01*
X171604534Y-108268477D01*
X171799219Y-108205220D01*
X171981610Y-108112287D01*
X172124773Y-108008274D01*
X172147213Y-107991971D01*
X172147215Y-107991968D01*
X172147219Y-107991966D01*
X172291966Y-107847219D01*
X172291968Y-107847215D01*
X172291971Y-107847213D01*
X172354542Y-107761090D01*
X172412287Y-107681610D01*
X172505220Y-107499219D01*
X172568477Y-107304534D01*
X172600500Y-107102352D01*
X172600500Y-106897648D01*
X172581050Y-106774845D01*
X172568477Y-106695465D01*
X172521892Y-106552093D01*
X172505220Y-106500781D01*
X172505218Y-106500778D01*
X172505218Y-106500776D01*
X172423730Y-106340849D01*
X172412287Y-106318390D01*
X172374548Y-106266446D01*
X172291971Y-106152786D01*
X172147213Y-106008028D01*
X171981613Y-105887715D01*
X171981612Y-105887714D01*
X171981610Y-105887713D01*
X171924653Y-105858691D01*
X171799223Y-105794781D01*
X171604534Y-105731522D01*
X171429995Y-105703878D01*
X171402352Y-105699500D01*
X171197648Y-105699500D01*
X171173329Y-105703351D01*
X170995465Y-105731522D01*
X170800776Y-105794781D01*
X170618386Y-105887715D01*
X170452786Y-106008028D01*
X170308028Y-106152786D01*
X170187715Y-106318386D01*
X170094781Y-106500776D01*
X170031522Y-106695465D01*
X169999500Y-106897648D01*
X152469635Y-106897648D01*
X152470978Y-106891872D01*
X152474185Y-106863924D01*
X152478785Y-106858297D01*
X152480432Y-106851219D01*
X152500602Y-106831616D01*
X152518413Y-106809835D01*
X152527727Y-106805255D01*
X152530538Y-106802524D01*
X152550081Y-106794264D01*
X152639097Y-106765342D01*
X152821488Y-106672409D01*
X152914468Y-106604854D01*
X152987091Y-106552093D01*
X152987093Y-106552090D01*
X152987097Y-106552088D01*
X153131844Y-106407341D01*
X153131846Y-106407337D01*
X153131849Y-106407335D01*
X153190969Y-106325962D01*
X153252165Y-106241732D01*
X153345098Y-106059341D01*
X153408355Y-105864656D01*
X153440378Y-105662474D01*
X153440378Y-105500000D01*
X157650000Y-105500000D01*
X162650000Y-105500000D01*
X162650000Y-92617648D01*
X163499500Y-92617648D01*
X163499500Y-92822351D01*
X163531522Y-93024534D01*
X163594781Y-93219223D01*
X163688780Y-93403705D01*
X163701676Y-93472374D01*
X163688780Y-93516295D01*
X163594781Y-93700776D01*
X163531522Y-93895465D01*
X163499500Y-94097648D01*
X163499500Y-94302351D01*
X163531522Y-94504534D01*
X163594781Y-94699223D01*
X163658691Y-94824653D01*
X163687376Y-94880949D01*
X163687715Y-94881613D01*
X163808028Y-95047213D01*
X163952784Y-95191969D01*
X163995270Y-95222836D01*
X164049776Y-95262436D01*
X164092443Y-95317766D01*
X164098423Y-95387379D01*
X164087377Y-95419048D01*
X164082112Y-95429382D01*
X163994781Y-95600776D01*
X163931522Y-95795465D01*
X163914248Y-95904534D01*
X163899500Y-95997648D01*
X163899500Y-96202352D01*
X163902744Y-96222836D01*
X163931522Y-96404534D01*
X163994781Y-96599223D01*
X164052391Y-96712287D01*
X164084765Y-96775825D01*
X164087715Y-96781613D01*
X164208028Y-96947213D01*
X164352786Y-97091971D01*
X164518388Y-97212286D01*
X164518390Y-97212287D01*
X164651269Y-97279992D01*
X164702066Y-97327966D01*
X164718861Y-97395787D01*
X164696324Y-97461922D01*
X164682657Y-97478158D01*
X164608027Y-97552788D01*
X164487715Y-97718386D01*
X164394781Y-97900776D01*
X164331522Y-98095465D01*
X164299500Y-98297648D01*
X164299500Y-98502351D01*
X164331522Y-98704534D01*
X164394781Y-98899223D01*
X164450221Y-99008028D01*
X164467276Y-99041501D01*
X164487715Y-99081613D01*
X164608028Y-99247213D01*
X164752786Y-99391971D01*
X164884569Y-99487715D01*
X164918390Y-99512287D01*
X165002647Y-99555218D01*
X165100776Y-99605218D01*
X165100778Y-99605218D01*
X165100781Y-99605220D01*
X165205137Y-99639127D01*
X165295465Y-99668477D01*
X165396557Y-99684488D01*
X165497648Y-99700500D01*
X165497649Y-99700500D01*
X165685540Y-99700500D01*
X165752579Y-99720185D01*
X165798334Y-99772989D01*
X165808278Y-99842147D01*
X165808013Y-99843897D01*
X165799500Y-99897647D01*
X165799500Y-100102351D01*
X165831522Y-100304534D01*
X165894781Y-100499223D01*
X165952391Y-100612287D01*
X165984152Y-100674622D01*
X165987715Y-100681613D01*
X166108028Y-100847213D01*
X166252786Y-100991971D01*
X166380784Y-101084965D01*
X166418390Y-101112287D01*
X166534607Y-101171503D01*
X166600776Y-101205218D01*
X166600778Y-101205218D01*
X166600781Y-101205220D01*
X166673793Y-101228943D01*
X166795465Y-101268477D01*
X166878383Y-101281610D01*
X166997648Y-101300500D01*
X166997649Y-101300500D01*
X167202351Y-101300500D01*
X167202352Y-101300500D01*
X167404534Y-101268477D01*
X167599219Y-101205220D01*
X167781610Y-101112287D01*
X167932924Y-101002352D01*
X167947213Y-100991971D01*
X167947215Y-100991968D01*
X167947219Y-100991966D01*
X168091966Y-100847219D01*
X168091968Y-100847215D01*
X168091971Y-100847213D01*
X168195133Y-100705220D01*
X168212287Y-100681610D01*
X168305220Y-100499219D01*
X168305730Y-100497648D01*
X177214500Y-100497648D01*
X177214500Y-100702351D01*
X177246522Y-100904534D01*
X177309781Y-101099223D01*
X177363438Y-101204529D01*
X177401716Y-101279654D01*
X177402715Y-101281613D01*
X177523028Y-101447213D01*
X177667786Y-101591971D01*
X177800611Y-101688472D01*
X177833390Y-101712287D01*
X177933942Y-101763521D01*
X178015776Y-101805218D01*
X178015778Y-101805218D01*
X178015781Y-101805220D01*
X178112337Y-101836593D01*
X178210465Y-101868477D01*
X178311557Y-101884488D01*
X178412648Y-101900500D01*
X178412649Y-101900500D01*
X178617351Y-101900500D01*
X178617352Y-101900500D01*
X178819534Y-101868477D01*
X179014219Y-101805220D01*
X179196610Y-101712287D01*
X179313112Y-101627644D01*
X179362213Y-101591971D01*
X179362215Y-101591968D01*
X179362219Y-101591966D01*
X179506966Y-101447219D01*
X179506968Y-101447215D01*
X179506971Y-101447213D01*
X179569495Y-101361154D01*
X179627287Y-101281610D01*
X179720220Y-101099219D01*
X179783477Y-100904534D01*
X179815500Y-100702352D01*
X179815500Y-100497648D01*
X179784914Y-100304538D01*
X179783477Y-100295465D01*
X179720218Y-100100776D01*
X179669265Y-100000776D01*
X179627287Y-99918390D01*
X179612217Y-99897648D01*
X179506971Y-99752786D01*
X179362213Y-99608028D01*
X179196613Y-99487715D01*
X179196612Y-99487714D01*
X179196610Y-99487713D01*
X179139653Y-99458691D01*
X179014223Y-99394781D01*
X178819534Y-99331522D01*
X178644995Y-99303878D01*
X178617352Y-99299500D01*
X178412648Y-99299500D01*
X178388329Y-99303351D01*
X178210465Y-99331522D01*
X178015776Y-99394781D01*
X177833386Y-99487715D01*
X177667786Y-99608028D01*
X177523028Y-99752786D01*
X177402715Y-99918386D01*
X177309781Y-100100776D01*
X177246522Y-100295465D01*
X177214500Y-100497648D01*
X168305730Y-100497648D01*
X168368477Y-100304534D01*
X168400500Y-100102352D01*
X168400500Y-99897648D01*
X168377555Y-99752781D01*
X168368477Y-99695465D01*
X168332786Y-99585621D01*
X168305220Y-99500781D01*
X168305218Y-99500778D01*
X168305218Y-99500776D01*
X168251210Y-99394781D01*
X168212287Y-99318390D01*
X168195134Y-99294781D01*
X168091971Y-99152786D01*
X167947213Y-99008028D01*
X167781613Y-98887715D01*
X167781612Y-98887714D01*
X167781610Y-98887713D01*
X167724653Y-98858691D01*
X167599223Y-98794781D01*
X167404534Y-98731522D01*
X167229995Y-98703878D01*
X167202352Y-98699500D01*
X167014460Y-98699500D01*
X166947421Y-98679815D01*
X166901666Y-98627011D01*
X166891722Y-98557853D01*
X166891987Y-98556103D01*
X166900500Y-98502352D01*
X166900500Y-98297649D01*
X166900046Y-98294780D01*
X166868823Y-98097648D01*
X170799500Y-98097648D01*
X170799500Y-98302351D01*
X170831522Y-98504534D01*
X170894781Y-98699223D01*
X170987715Y-98881613D01*
X171108028Y-99047213D01*
X171252786Y-99191971D01*
X171407749Y-99304556D01*
X171418390Y-99312287D01*
X171491425Y-99349500D01*
X171600776Y-99405218D01*
X171600778Y-99405218D01*
X171600781Y-99405220D01*
X171705137Y-99439127D01*
X171795465Y-99468477D01*
X171896557Y-99484488D01*
X171997648Y-99500500D01*
X171997649Y-99500500D01*
X172202351Y-99500500D01*
X172202352Y-99500500D01*
X172404534Y-99468477D01*
X172599219Y-99405220D01*
X172781610Y-99312287D01*
X172892773Y-99231523D01*
X172947213Y-99191971D01*
X172947215Y-99191968D01*
X172947219Y-99191966D01*
X173091966Y-99047219D01*
X173091968Y-99047215D01*
X173091971Y-99047213D01*
X173151937Y-98964675D01*
X173212287Y-98881610D01*
X173305220Y-98699219D01*
X173368477Y-98504534D01*
X173400500Y-98302352D01*
X173400500Y-98097648D01*
X173368477Y-97895466D01*
X173357696Y-97862287D01*
X173332837Y-97785777D01*
X173305220Y-97700781D01*
X173305218Y-97700778D01*
X173305218Y-97700776D01*
X173212287Y-97518390D01*
X173145156Y-97425991D01*
X173121677Y-97360184D01*
X173137503Y-97292130D01*
X173187609Y-97243436D01*
X173245475Y-97229106D01*
X173332775Y-97229106D01*
X173332776Y-97229106D01*
X173534958Y-97197083D01*
X173729643Y-97133826D01*
X173912034Y-97040893D01*
X174011002Y-96968989D01*
X174077637Y-96920577D01*
X174077639Y-96920574D01*
X174077643Y-96920572D01*
X174222390Y-96775825D01*
X174222392Y-96775821D01*
X174222395Y-96775819D01*
X174315516Y-96647648D01*
X186199500Y-96647648D01*
X186199500Y-96852351D01*
X186231522Y-97054534D01*
X186294781Y-97249223D01*
X186358691Y-97374653D01*
X186375700Y-97408034D01*
X186387715Y-97431613D01*
X186508028Y-97597213D01*
X186652786Y-97741971D01*
X186802546Y-97850776D01*
X186818390Y-97862287D01*
X186891425Y-97899500D01*
X187000776Y-97955218D01*
X187000778Y-97955218D01*
X187000781Y-97955220D01*
X187105137Y-97989127D01*
X187195465Y-98018477D01*
X187296557Y-98034488D01*
X187397648Y-98050500D01*
X187397649Y-98050500D01*
X187602351Y-98050500D01*
X187602352Y-98050500D01*
X187804534Y-98018477D01*
X187999219Y-97955220D01*
X188181610Y-97862287D01*
X188286919Y-97785776D01*
X188347213Y-97741971D01*
X188347215Y-97741968D01*
X188347219Y-97741966D01*
X188491966Y-97597219D01*
X188491968Y-97597215D01*
X188491971Y-97597213D01*
X188560575Y-97502786D01*
X188612287Y-97431610D01*
X188705220Y-97249219D01*
X188768477Y-97054534D01*
X188800500Y-96852352D01*
X188800500Y-96647648D01*
X188792830Y-96599223D01*
X188768477Y-96445465D01*
X188737458Y-96349999D01*
X188705220Y-96250781D01*
X188705218Y-96250778D01*
X188705218Y-96250776D01*
X188671503Y-96184607D01*
X188612287Y-96068390D01*
X188604556Y-96057749D01*
X188491971Y-95902786D01*
X188347213Y-95758028D01*
X188181613Y-95637715D01*
X188181612Y-95637714D01*
X188181610Y-95637713D01*
X188089083Y-95590568D01*
X187999223Y-95544781D01*
X187804534Y-95481522D01*
X187629995Y-95453878D01*
X187602352Y-95449500D01*
X187397648Y-95449500D01*
X187373329Y-95453351D01*
X187195465Y-95481522D01*
X187000776Y-95544781D01*
X186818386Y-95637715D01*
X186652786Y-95758028D01*
X186508028Y-95902786D01*
X186387715Y-96068386D01*
X186294781Y-96250776D01*
X186231522Y-96445465D01*
X186199500Y-96647648D01*
X174315516Y-96647648D01*
X174342709Y-96610219D01*
X174342712Y-96610215D01*
X174435644Y-96427825D01*
X174498901Y-96233140D01*
X174530924Y-96030958D01*
X174530924Y-95826254D01*
X174498901Y-95624072D01*
X174491333Y-95600781D01*
X174469551Y-95533743D01*
X174435644Y-95429387D01*
X174435642Y-95429384D01*
X174435642Y-95429382D01*
X174395194Y-95349999D01*
X174342711Y-95246996D01*
X174302730Y-95191966D01*
X174222395Y-95081392D01*
X174077637Y-94936634D01*
X173912037Y-94816321D01*
X173912036Y-94816320D01*
X173912034Y-94816319D01*
X173832888Y-94775992D01*
X173729647Y-94723387D01*
X173534958Y-94660128D01*
X173360419Y-94632484D01*
X173332776Y-94628106D01*
X173128072Y-94628106D01*
X173103753Y-94631957D01*
X172925889Y-94660128D01*
X172731200Y-94723387D01*
X172548810Y-94816321D01*
X172383210Y-94936634D01*
X172238452Y-95081392D01*
X172118139Y-95246992D01*
X172025205Y-95429382D01*
X171961946Y-95624071D01*
X171929924Y-95826254D01*
X171929924Y-96030957D01*
X171961946Y-96233140D01*
X172025205Y-96427829D01*
X172118136Y-96610215D01*
X172185268Y-96702615D01*
X172208747Y-96768422D01*
X172192921Y-96836476D01*
X172142815Y-96885170D01*
X172084949Y-96899500D01*
X171997648Y-96899500D01*
X171973329Y-96903351D01*
X171795465Y-96931522D01*
X171600776Y-96994781D01*
X171418386Y-97087715D01*
X171252786Y-97208028D01*
X171108028Y-97352786D01*
X170987715Y-97518386D01*
X170894781Y-97700776D01*
X170831522Y-97895465D01*
X170799500Y-98097648D01*
X166868823Y-98097648D01*
X166868477Y-98095466D01*
X166805220Y-97900781D01*
X166805218Y-97900778D01*
X166805218Y-97900776D01*
X166771503Y-97834607D01*
X166712287Y-97718390D01*
X166699490Y-97700776D01*
X166591971Y-97552786D01*
X166447213Y-97408028D01*
X166281613Y-97287715D01*
X166281612Y-97287714D01*
X166281610Y-97287713D01*
X166169062Y-97230367D01*
X166148730Y-97220007D01*
X166130366Y-97202663D01*
X166109446Y-97188519D01*
X166105399Y-97179082D01*
X166097934Y-97172032D01*
X166091863Y-97147517D01*
X166081909Y-97124305D01*
X166083606Y-97114176D01*
X166081139Y-97104211D01*
X166089284Y-97080308D01*
X166093461Y-97055397D01*
X166101736Y-97043769D01*
X166103677Y-97038076D01*
X166112092Y-97027577D01*
X167525975Y-97027577D01*
X167631236Y-97071178D01*
X167631240Y-97071179D01*
X167776126Y-97099999D01*
X167776129Y-97100000D01*
X167923871Y-97100000D01*
X167923873Y-97099999D01*
X168068760Y-97071179D01*
X168068775Y-97071175D01*
X168174024Y-97027578D01*
X168174024Y-97027577D01*
X168525975Y-97027577D01*
X168631236Y-97071178D01*
X168631240Y-97071179D01*
X168776126Y-97099999D01*
X168776129Y-97100000D01*
X168923871Y-97100000D01*
X168923873Y-97099999D01*
X169068760Y-97071179D01*
X169068775Y-97071175D01*
X169174024Y-97027578D01*
X169174024Y-97027577D01*
X169525975Y-97027577D01*
X169631236Y-97071178D01*
X169631240Y-97071179D01*
X169776126Y-97099999D01*
X169776129Y-97100000D01*
X169923871Y-97100000D01*
X169923873Y-97099999D01*
X170068760Y-97071179D01*
X170068775Y-97071175D01*
X170174024Y-97027578D01*
X170174024Y-97027577D01*
X169850001Y-96703554D01*
X169850000Y-96703554D01*
X169525975Y-97027577D01*
X169174024Y-97027577D01*
X168850001Y-96703554D01*
X168850000Y-96703554D01*
X168525975Y-97027577D01*
X168174024Y-97027577D01*
X167850001Y-96703554D01*
X167850000Y-96703554D01*
X167525975Y-97027577D01*
X166112092Y-97027577D01*
X166113229Y-97026158D01*
X166115226Y-97023958D01*
X166191966Y-96947219D01*
X166312287Y-96781610D01*
X166405220Y-96599219D01*
X166468477Y-96404534D01*
X166477114Y-96350001D01*
X166488815Y-96276126D01*
X167100000Y-96276126D01*
X167100000Y-96423873D01*
X167128820Y-96568759D01*
X167128822Y-96568767D01*
X167172421Y-96674024D01*
X167496446Y-96350000D01*
X167496446Y-96349999D01*
X167466610Y-96320163D01*
X167700000Y-96320163D01*
X167700000Y-96379837D01*
X167722836Y-96434968D01*
X167765032Y-96477164D01*
X167820163Y-96500000D01*
X167879837Y-96500000D01*
X167934968Y-96477164D01*
X167977164Y-96434968D01*
X168000000Y-96379837D01*
X168000000Y-96350000D01*
X168203554Y-96350000D01*
X168350000Y-96496446D01*
X168496446Y-96350000D01*
X168466609Y-96320163D01*
X168700000Y-96320163D01*
X168700000Y-96379837D01*
X168722836Y-96434968D01*
X168765032Y-96477164D01*
X168820163Y-96500000D01*
X168879837Y-96500000D01*
X168934968Y-96477164D01*
X168977164Y-96434968D01*
X169000000Y-96379837D01*
X169000000Y-96350000D01*
X169203554Y-96350000D01*
X169350000Y-96496446D01*
X169496446Y-96350000D01*
X169466609Y-96320163D01*
X169700000Y-96320163D01*
X169700000Y-96379837D01*
X169722836Y-96434968D01*
X169765032Y-96477164D01*
X169820163Y-96500000D01*
X169879837Y-96500000D01*
X169934968Y-96477164D01*
X169977164Y-96434968D01*
X170000000Y-96379837D01*
X170000000Y-96349999D01*
X170203554Y-96349999D01*
X170203554Y-96350001D01*
X170527577Y-96674024D01*
X170527578Y-96674024D01*
X170571175Y-96568775D01*
X170571179Y-96568760D01*
X170599999Y-96423873D01*
X170600000Y-96423871D01*
X170600000Y-96276128D01*
X170599999Y-96276126D01*
X170571179Y-96131240D01*
X170571178Y-96131236D01*
X170527577Y-96025975D01*
X170203554Y-96349999D01*
X170000000Y-96349999D01*
X170000000Y-96320163D01*
X169977164Y-96265032D01*
X169934968Y-96222836D01*
X169879837Y-96200000D01*
X169820163Y-96200000D01*
X169765032Y-96222836D01*
X169722836Y-96265032D01*
X169700000Y-96320163D01*
X169466609Y-96320163D01*
X169350000Y-96203554D01*
X169203554Y-96350000D01*
X169000000Y-96350000D01*
X169000000Y-96320163D01*
X168977164Y-96265032D01*
X168934968Y-96222836D01*
X168879837Y-96200000D01*
X168820163Y-96200000D01*
X168765032Y-96222836D01*
X168722836Y-96265032D01*
X168700000Y-96320163D01*
X168466609Y-96320163D01*
X168350000Y-96203554D01*
X168203554Y-96350000D01*
X168000000Y-96350000D01*
X168000000Y-96320163D01*
X167977164Y-96265032D01*
X167934968Y-96222836D01*
X167879837Y-96200000D01*
X167820163Y-96200000D01*
X167765032Y-96222836D01*
X167722836Y-96265032D01*
X167700000Y-96320163D01*
X167466610Y-96320163D01*
X167172421Y-96025974D01*
X167172420Y-96025974D01*
X167128823Y-96131228D01*
X167128820Y-96131240D01*
X167100000Y-96276126D01*
X166488815Y-96276126D01*
X166492852Y-96250641D01*
X166492852Y-96250640D01*
X166500500Y-96202352D01*
X166500500Y-95997648D01*
X166477115Y-95850000D01*
X167703554Y-95850000D01*
X167850000Y-95996446D01*
X167996446Y-95850000D01*
X168703554Y-95850000D01*
X168850000Y-95996446D01*
X168996446Y-95850000D01*
X169703554Y-95850000D01*
X169850000Y-95996446D01*
X169996446Y-95850000D01*
X169850000Y-95703554D01*
X169703554Y-95850000D01*
X168996446Y-95850000D01*
X168850000Y-95703554D01*
X168703554Y-95850000D01*
X167996446Y-95850000D01*
X167850000Y-95703554D01*
X167703554Y-95850000D01*
X166477115Y-95850000D01*
X166468477Y-95795465D01*
X166425616Y-95663553D01*
X166405220Y-95600781D01*
X166405218Y-95600778D01*
X166405218Y-95600776D01*
X166352671Y-95497648D01*
X166312287Y-95418390D01*
X166306598Y-95410560D01*
X166257459Y-95342924D01*
X166208928Y-95276126D01*
X167100000Y-95276126D01*
X167100000Y-95423873D01*
X167128820Y-95568759D01*
X167128822Y-95568767D01*
X167172421Y-95674024D01*
X167496446Y-95350000D01*
X167496446Y-95349999D01*
X167466610Y-95320163D01*
X167700000Y-95320163D01*
X167700000Y-95379837D01*
X167722836Y-95434968D01*
X167765032Y-95477164D01*
X167820163Y-95500000D01*
X167879837Y-95500000D01*
X167934968Y-95477164D01*
X167977164Y-95434968D01*
X168000000Y-95379837D01*
X168000000Y-95350000D01*
X168203554Y-95350000D01*
X168350000Y-95496446D01*
X168496446Y-95350000D01*
X168466609Y-95320163D01*
X168700000Y-95320163D01*
X168700000Y-95379837D01*
X168722836Y-95434968D01*
X168765032Y-95477164D01*
X168820163Y-95500000D01*
X168879837Y-95500000D01*
X168934968Y-95477164D01*
X168977164Y-95434968D01*
X169000000Y-95379837D01*
X169000000Y-95350000D01*
X169203554Y-95350000D01*
X169350000Y-95496446D01*
X169496446Y-95350000D01*
X169466609Y-95320163D01*
X169700000Y-95320163D01*
X169700000Y-95379837D01*
X169722836Y-95434968D01*
X169765032Y-95477164D01*
X169820163Y-95500000D01*
X169879837Y-95500000D01*
X169934968Y-95477164D01*
X169977164Y-95434968D01*
X170000000Y-95379837D01*
X170000000Y-95349999D01*
X170203554Y-95349999D01*
X170203554Y-95350001D01*
X170527577Y-95674024D01*
X170527578Y-95674024D01*
X170571175Y-95568775D01*
X170571179Y-95568760D01*
X170599999Y-95423873D01*
X170600000Y-95423871D01*
X170600000Y-95276128D01*
X170599999Y-95276126D01*
X170571179Y-95131240D01*
X170571178Y-95131236D01*
X170527577Y-95025975D01*
X170203554Y-95349999D01*
X170000000Y-95349999D01*
X170000000Y-95320163D01*
X169977164Y-95265032D01*
X169934968Y-95222836D01*
X169879837Y-95200000D01*
X169820163Y-95200000D01*
X169765032Y-95222836D01*
X169722836Y-95265032D01*
X169700000Y-95320163D01*
X169466609Y-95320163D01*
X169350000Y-95203554D01*
X169203554Y-95350000D01*
X169000000Y-95350000D01*
X169000000Y-95320163D01*
X168977164Y-95265032D01*
X168934968Y-95222836D01*
X168879837Y-95200000D01*
X168820163Y-95200000D01*
X168765032Y-95222836D01*
X168722836Y-95265032D01*
X168700000Y-95320163D01*
X168466609Y-95320163D01*
X168350000Y-95203554D01*
X168203554Y-95350000D01*
X168000000Y-95350000D01*
X168000000Y-95320163D01*
X167977164Y-95265032D01*
X167934968Y-95222836D01*
X167879837Y-95200000D01*
X167820163Y-95200000D01*
X167765032Y-95222836D01*
X167722836Y-95265032D01*
X167700000Y-95320163D01*
X167466610Y-95320163D01*
X167172421Y-95025974D01*
X167172420Y-95025974D01*
X167128823Y-95131228D01*
X167128820Y-95131240D01*
X167100000Y-95276126D01*
X166208928Y-95276126D01*
X166191971Y-95252786D01*
X166047213Y-95108028D01*
X165950223Y-95037562D01*
X165907557Y-94982233D01*
X165901578Y-94912619D01*
X165912621Y-94880953D01*
X165928392Y-94850000D01*
X167703554Y-94850000D01*
X167850000Y-94996446D01*
X167996446Y-94850000D01*
X168703554Y-94850000D01*
X168850000Y-94996446D01*
X168996446Y-94850000D01*
X169703554Y-94850000D01*
X169850000Y-94996446D01*
X169996446Y-94850000D01*
X169850000Y-94703554D01*
X169703554Y-94850000D01*
X168996446Y-94850000D01*
X168850000Y-94703554D01*
X168703554Y-94850000D01*
X167996446Y-94850000D01*
X167850000Y-94703554D01*
X167703554Y-94850000D01*
X165928392Y-94850000D01*
X166005220Y-94699219D01*
X166068477Y-94504534D01*
X166100500Y-94302352D01*
X166100500Y-94276126D01*
X167100000Y-94276126D01*
X167100000Y-94423873D01*
X167128820Y-94568759D01*
X167128822Y-94568767D01*
X167172421Y-94674024D01*
X167496446Y-94350000D01*
X167496446Y-94349999D01*
X167466610Y-94320163D01*
X167700000Y-94320163D01*
X167700000Y-94379837D01*
X167722836Y-94434968D01*
X167765032Y-94477164D01*
X167820163Y-94500000D01*
X167879837Y-94500000D01*
X167934968Y-94477164D01*
X167977164Y-94434968D01*
X168000000Y-94379837D01*
X168000000Y-94350000D01*
X168203554Y-94350000D01*
X168350000Y-94496446D01*
X168496446Y-94350000D01*
X168466609Y-94320163D01*
X168700000Y-94320163D01*
X168700000Y-94379837D01*
X168722836Y-94434968D01*
X168765032Y-94477164D01*
X168820163Y-94500000D01*
X168879837Y-94500000D01*
X168934968Y-94477164D01*
X168977164Y-94434968D01*
X169000000Y-94379837D01*
X169000000Y-94350000D01*
X169203554Y-94350000D01*
X169350000Y-94496446D01*
X169496446Y-94350000D01*
X169466609Y-94320163D01*
X169700000Y-94320163D01*
X169700000Y-94379837D01*
X169722836Y-94434968D01*
X169765032Y-94477164D01*
X169820163Y-94500000D01*
X169879837Y-94500000D01*
X169934968Y-94477164D01*
X169977164Y-94434968D01*
X170000000Y-94379837D01*
X170000000Y-94349999D01*
X170203554Y-94349999D01*
X170203554Y-94350001D01*
X170527577Y-94674024D01*
X170527578Y-94674024D01*
X170571175Y-94568775D01*
X170571179Y-94568760D01*
X170599999Y-94423873D01*
X170600000Y-94423871D01*
X170600000Y-94276128D01*
X170599999Y-94276126D01*
X170571179Y-94131240D01*
X170571178Y-94131236D01*
X170527577Y-94025975D01*
X170203554Y-94349999D01*
X170000000Y-94349999D01*
X170000000Y-94320163D01*
X169977164Y-94265032D01*
X169934968Y-94222836D01*
X169879837Y-94200000D01*
X169820163Y-94200000D01*
X169765032Y-94222836D01*
X169722836Y-94265032D01*
X169700000Y-94320163D01*
X169466609Y-94320163D01*
X169350000Y-94203554D01*
X169203554Y-94350000D01*
X169000000Y-94350000D01*
X169000000Y-94320163D01*
X168977164Y-94265032D01*
X168934968Y-94222836D01*
X168879837Y-94200000D01*
X168820163Y-94200000D01*
X168765032Y-94222836D01*
X168722836Y-94265032D01*
X168700000Y-94320163D01*
X168466609Y-94320163D01*
X168350000Y-94203554D01*
X168203554Y-94350000D01*
X168000000Y-94350000D01*
X168000000Y-94320163D01*
X167977164Y-94265032D01*
X167934968Y-94222836D01*
X167879837Y-94200000D01*
X167820163Y-94200000D01*
X167765032Y-94222836D01*
X167722836Y-94265032D01*
X167700000Y-94320163D01*
X167466610Y-94320163D01*
X167172421Y-94025974D01*
X167172420Y-94025974D01*
X167128823Y-94131228D01*
X167128820Y-94131240D01*
X167100000Y-94276126D01*
X166100500Y-94276126D01*
X166100500Y-94097648D01*
X166068477Y-93895466D01*
X166005220Y-93700781D01*
X165990769Y-93672420D01*
X167525974Y-93672420D01*
X167525974Y-93672421D01*
X167850000Y-93996446D01*
X167850001Y-93996446D01*
X168174024Y-93672421D01*
X168174022Y-93672420D01*
X168525974Y-93672420D01*
X168525974Y-93672421D01*
X168850000Y-93996446D01*
X168850001Y-93996446D01*
X169174024Y-93672421D01*
X169174022Y-93672420D01*
X169525974Y-93672420D01*
X169525974Y-93672421D01*
X169850000Y-93996446D01*
X169850001Y-93996446D01*
X170174024Y-93672421D01*
X170068767Y-93628822D01*
X170068759Y-93628820D01*
X169923872Y-93600000D01*
X169776128Y-93600000D01*
X169631240Y-93628820D01*
X169631228Y-93628823D01*
X169525974Y-93672420D01*
X169174022Y-93672420D01*
X169068767Y-93628822D01*
X169068759Y-93628820D01*
X168923872Y-93600000D01*
X168776128Y-93600000D01*
X168631240Y-93628820D01*
X168631228Y-93628823D01*
X168525974Y-93672420D01*
X168174022Y-93672420D01*
X168068767Y-93628822D01*
X168068759Y-93628820D01*
X167923872Y-93600000D01*
X167776128Y-93600000D01*
X167631240Y-93628820D01*
X167631228Y-93628823D01*
X167525974Y-93672420D01*
X165990769Y-93672420D01*
X165912287Y-93518390D01*
X165912285Y-93518387D01*
X165911219Y-93516295D01*
X165910209Y-93510917D01*
X165906807Y-93506633D01*
X165903830Y-93476951D01*
X165898323Y-93447626D01*
X165900235Y-93441110D01*
X165899835Y-93437113D01*
X165911219Y-93403705D01*
X165912285Y-93401612D01*
X165912287Y-93401610D01*
X165962710Y-93302649D01*
X173385800Y-93302649D01*
X173385800Y-93507353D01*
X173387216Y-93516295D01*
X173417822Y-93709535D01*
X173481081Y-93904224D01*
X173574015Y-94086614D01*
X173694328Y-94252214D01*
X173839086Y-94396972D01*
X173963983Y-94487713D01*
X174004690Y-94517288D01*
X174105723Y-94568767D01*
X174187076Y-94610219D01*
X174187078Y-94610219D01*
X174187081Y-94610221D01*
X174291437Y-94644128D01*
X174381765Y-94673478D01*
X174482857Y-94689489D01*
X174583948Y-94705501D01*
X174583949Y-94705501D01*
X174788651Y-94705501D01*
X174788652Y-94705501D01*
X174990834Y-94673478D01*
X175185519Y-94610221D01*
X175367910Y-94517288D01*
X175496489Y-94423871D01*
X175533513Y-94396972D01*
X175533515Y-94396969D01*
X175533519Y-94396967D01*
X175678266Y-94252220D01*
X175678268Y-94252216D01*
X175678271Y-94252214D01*
X175779932Y-94112287D01*
X175798587Y-94086611D01*
X175891520Y-93904220D01*
X175954777Y-93709535D01*
X175986800Y-93507353D01*
X175986800Y-93302649D01*
X175980124Y-93260496D01*
X175954777Y-93100466D01*
X175922295Y-93000498D01*
X175891520Y-92905782D01*
X175891518Y-92905779D01*
X175891518Y-92905777D01*
X175849010Y-92822351D01*
X175798587Y-92723391D01*
X175781229Y-92699500D01*
X175678271Y-92557787D01*
X175533517Y-92413033D01*
X175519837Y-92403094D01*
X175388465Y-92307648D01*
X176789500Y-92307648D01*
X176789500Y-92512352D01*
X176793582Y-92538125D01*
X176821522Y-92714534D01*
X176884781Y-92909223D01*
X176935126Y-93008028D01*
X176959306Y-93055485D01*
X176977715Y-93091613D01*
X177098028Y-93257213D01*
X177242786Y-93401971D01*
X177387835Y-93507353D01*
X177408390Y-93522287D01*
X177524607Y-93581503D01*
X177590776Y-93615218D01*
X177590778Y-93615218D01*
X177590781Y-93615220D01*
X177632644Y-93628822D01*
X177785465Y-93678477D01*
X177886557Y-93694488D01*
X177987648Y-93710500D01*
X177987649Y-93710500D01*
X178192351Y-93710500D01*
X178192352Y-93710500D01*
X178394534Y-93678477D01*
X178589219Y-93615220D01*
X178771610Y-93522287D01*
X178874941Y-93447213D01*
X178937213Y-93401971D01*
X178937215Y-93401968D01*
X178937219Y-93401966D01*
X179081966Y-93257219D01*
X179081968Y-93257215D01*
X179081971Y-93257213D01*
X179157844Y-93152781D01*
X179202287Y-93091610D01*
X179295220Y-92909219D01*
X179358477Y-92714534D01*
X179379740Y-92580285D01*
X179409668Y-92517153D01*
X179468979Y-92480221D01*
X179538842Y-92481219D01*
X179540531Y-92481754D01*
X179615465Y-92506102D01*
X179654926Y-92512352D01*
X179817648Y-92538125D01*
X179817649Y-92538125D01*
X180022351Y-92538125D01*
X180022352Y-92538125D01*
X180224534Y-92506102D01*
X180419219Y-92442845D01*
X180601610Y-92349912D01*
X180713697Y-92268477D01*
X180767213Y-92229596D01*
X180767215Y-92229593D01*
X180767219Y-92229591D01*
X180830632Y-92166178D01*
X181619500Y-92166178D01*
X181619500Y-92370881D01*
X181651522Y-92573064D01*
X181714781Y-92767753D01*
X181778691Y-92893183D01*
X181785111Y-92905782D01*
X181807715Y-92950143D01*
X181928028Y-93115743D01*
X182072786Y-93260501D01*
X182227749Y-93373086D01*
X182238390Y-93380817D01*
X182348877Y-93437113D01*
X182420776Y-93473748D01*
X182420778Y-93473748D01*
X182420781Y-93473750D01*
X182503974Y-93500781D01*
X182615465Y-93537007D01*
X182716557Y-93553018D01*
X182817648Y-93569030D01*
X182817649Y-93569030D01*
X183022351Y-93569030D01*
X183022352Y-93569030D01*
X183224534Y-93537007D01*
X183419219Y-93473750D01*
X183601610Y-93380817D01*
X183694590Y-93313262D01*
X183767213Y-93260501D01*
X183767215Y-93260498D01*
X183767219Y-93260496D01*
X183911966Y-93115749D01*
X183911968Y-93115745D01*
X183911971Y-93115743D01*
X183995144Y-93001263D01*
X184032287Y-92950140D01*
X184125220Y-92767749D01*
X184188477Y-92573064D01*
X184220500Y-92370882D01*
X184220500Y-92166178D01*
X184200260Y-92038390D01*
X184188477Y-91963995D01*
X184135354Y-91800500D01*
X184125220Y-91769311D01*
X184125218Y-91769308D01*
X184125218Y-91769306D01*
X184089649Y-91699500D01*
X184032287Y-91586920D01*
X184014749Y-91562781D01*
X183911971Y-91421316D01*
X183767213Y-91276558D01*
X183601613Y-91156245D01*
X183601612Y-91156244D01*
X183601610Y-91156243D01*
X183509872Y-91109500D01*
X183419223Y-91063311D01*
X183224534Y-91000052D01*
X183049995Y-90972408D01*
X183022352Y-90968030D01*
X182817648Y-90968030D01*
X182793329Y-90971881D01*
X182615465Y-91000052D01*
X182420776Y-91063311D01*
X182238386Y-91156245D01*
X182072786Y-91276558D01*
X181928028Y-91421316D01*
X181807715Y-91586916D01*
X181714781Y-91769306D01*
X181651522Y-91963995D01*
X181619500Y-92166178D01*
X180830632Y-92166178D01*
X180911966Y-92084844D01*
X180918395Y-92075996D01*
X180967771Y-92008034D01*
X181032287Y-91919235D01*
X181125220Y-91736844D01*
X181188477Y-91542159D01*
X181220500Y-91339977D01*
X181220500Y-91135273D01*
X181209740Y-91067337D01*
X181188477Y-90933090D01*
X181144215Y-90796866D01*
X181125220Y-90738406D01*
X181125218Y-90738403D01*
X181125218Y-90738401D01*
X181076277Y-90642351D01*
X181032287Y-90556015D01*
X181007930Y-90522490D01*
X180911971Y-90390411D01*
X180767213Y-90245653D01*
X180601613Y-90125340D01*
X180601612Y-90125339D01*
X180601610Y-90125338D01*
X180544653Y-90096316D01*
X180419223Y-90032406D01*
X180224534Y-89969147D01*
X180049995Y-89941503D01*
X180022352Y-89937125D01*
X179817648Y-89937125D01*
X179793329Y-89940976D01*
X179615465Y-89969147D01*
X179420776Y-90032406D01*
X179238386Y-90125340D01*
X179072786Y-90245653D01*
X178928028Y-90390411D01*
X178807715Y-90556011D01*
X178714781Y-90738401D01*
X178651522Y-90933090D01*
X178630260Y-91067337D01*
X178600331Y-91130472D01*
X178541019Y-91167403D01*
X178471156Y-91166405D01*
X178469469Y-91165870D01*
X178394537Y-91141523D01*
X178242897Y-91117505D01*
X178192352Y-91109500D01*
X177987648Y-91109500D01*
X177963329Y-91113351D01*
X177785465Y-91141522D01*
X177590776Y-91204781D01*
X177408386Y-91297715D01*
X177242786Y-91418028D01*
X177098028Y-91562786D01*
X176977715Y-91728386D01*
X176884781Y-91910776D01*
X176821522Y-92105465D01*
X176791865Y-92292714D01*
X176789500Y-92307648D01*
X175388465Y-92307648D01*
X175367909Y-92292713D01*
X175185523Y-92199782D01*
X174990834Y-92136523D01*
X174816295Y-92108879D01*
X174788652Y-92104501D01*
X174583948Y-92104501D01*
X174559629Y-92108352D01*
X174381765Y-92136523D01*
X174187076Y-92199782D01*
X174004686Y-92292716D01*
X173839086Y-92413029D01*
X173694328Y-92557787D01*
X173574015Y-92723387D01*
X173481081Y-92905777D01*
X173417822Y-93100466D01*
X173389132Y-93281610D01*
X173385800Y-93302649D01*
X165962710Y-93302649D01*
X166005220Y-93219219D01*
X166068477Y-93024534D01*
X166100500Y-92822352D01*
X166100500Y-92617648D01*
X166094583Y-92580288D01*
X166068477Y-92415465D01*
X166028592Y-92292713D01*
X166005220Y-92220781D01*
X166005218Y-92220778D01*
X166005218Y-92220776D01*
X165945972Y-92104501D01*
X165912287Y-92038390D01*
X165888236Y-92005286D01*
X165791971Y-91872786D01*
X165647213Y-91728028D01*
X165481613Y-91607715D01*
X165481612Y-91607714D01*
X165481610Y-91607713D01*
X165393436Y-91562786D01*
X165299223Y-91514781D01*
X165104534Y-91451522D01*
X164929995Y-91423878D01*
X164902352Y-91419500D01*
X164697648Y-91419500D01*
X164673329Y-91423351D01*
X164495465Y-91451522D01*
X164300776Y-91514781D01*
X164118386Y-91607715D01*
X163952786Y-91728028D01*
X163808028Y-91872786D01*
X163687715Y-92038386D01*
X163594781Y-92220776D01*
X163531522Y-92415465D01*
X163499500Y-92617648D01*
X162650000Y-92617648D01*
X162650000Y-92000000D01*
X157650000Y-92000000D01*
X157650000Y-105500000D01*
X153440378Y-105500000D01*
X153440378Y-105457770D01*
X153426221Y-105368386D01*
X153408355Y-105255587D01*
X153383300Y-105178477D01*
X153345098Y-105060903D01*
X153252165Y-104878512D01*
X153227658Y-104844781D01*
X153131849Y-104712908D01*
X152987091Y-104568150D01*
X152821491Y-104447837D01*
X152821490Y-104447836D01*
X152821488Y-104447835D01*
X152745700Y-104409219D01*
X152639101Y-104354903D01*
X152444412Y-104291644D01*
X152242227Y-104259621D01*
X152239652Y-104259418D01*
X152239293Y-104259508D01*
X152238845Y-104259355D01*
X152237367Y-104259239D01*
X152237396Y-104258861D01*
X152208640Y-104249062D01*
X152177563Y-104239937D01*
X152175761Y-104237858D01*
X152173158Y-104236971D01*
X152153013Y-104211605D01*
X152131808Y-104187133D01*
X152131416Y-104184410D01*
X152129706Y-104182257D01*
X152126473Y-104150031D01*
X152121864Y-104117975D01*
X152122922Y-104114636D01*
X152122732Y-104112736D01*
X152134117Y-104079328D01*
X152149531Y-104049074D01*
X152177612Y-103993962D01*
X152225584Y-103943168D01*
X152249775Y-103932328D01*
X152383031Y-103889032D01*
X152565422Y-103796099D01*
X152658402Y-103728544D01*
X152731025Y-103675783D01*
X152731027Y-103675780D01*
X152731031Y-103675778D01*
X152875778Y-103531031D01*
X152875780Y-103531027D01*
X152875783Y-103531025D01*
X152947472Y-103432352D01*
X152996099Y-103365422D01*
X153089032Y-103183031D01*
X153152289Y-102988346D01*
X153184312Y-102786164D01*
X153184312Y-102581460D01*
X153152289Y-102379278D01*
X153144357Y-102354869D01*
X153142363Y-102285029D01*
X153178443Y-102225196D01*
X153241144Y-102194368D01*
X153242869Y-102194082D01*
X153404534Y-102168477D01*
X153599219Y-102105220D01*
X153781610Y-102012287D01*
X153874590Y-101944732D01*
X153947213Y-101891971D01*
X153947215Y-101891968D01*
X153947219Y-101891966D01*
X154091966Y-101747219D01*
X154091968Y-101747215D01*
X154091971Y-101747213D01*
X154166411Y-101644753D01*
X154212287Y-101581610D01*
X154305220Y-101399219D01*
X154368477Y-101204534D01*
X154400500Y-101002352D01*
X154400500Y-100797648D01*
X154369568Y-100602352D01*
X154368477Y-100595465D01*
X154313039Y-100424845D01*
X154305220Y-100400781D01*
X154305218Y-100400778D01*
X154305218Y-100400776D01*
X154260128Y-100312284D01*
X154212287Y-100218390D01*
X154163163Y-100150776D01*
X154091971Y-100052786D01*
X153947213Y-99908028D01*
X153781613Y-99787715D01*
X153781612Y-99787714D01*
X153781610Y-99787713D01*
X153688771Y-99740409D01*
X153599223Y-99694781D01*
X153404534Y-99631522D01*
X153229995Y-99603878D01*
X153202352Y-99599500D01*
X152997648Y-99599500D01*
X152973329Y-99603351D01*
X152795465Y-99631522D01*
X152600776Y-99694781D01*
X152418386Y-99787715D01*
X152252786Y-99908028D01*
X152108028Y-100052786D01*
X151987715Y-100218386D01*
X151894781Y-100400776D01*
X151831522Y-100595465D01*
X151814139Y-100705220D01*
X151799500Y-100797648D01*
X151799500Y-101002352D01*
X151807487Y-101052781D01*
X151829683Y-101192921D01*
X151831523Y-101204534D01*
X151836024Y-101218386D01*
X151839454Y-101228943D01*
X151841448Y-101298785D01*
X151805366Y-101358617D01*
X151742664Y-101389443D01*
X151740921Y-101389732D01*
X151579276Y-101415335D01*
X151384588Y-101478593D01*
X151202198Y-101571527D01*
X151036598Y-101691840D01*
X150891840Y-101836598D01*
X150771527Y-102002198D01*
X150691200Y-102159847D01*
X150643225Y-102210643D01*
X150619034Y-102221483D01*
X150485776Y-102264781D01*
X150303386Y-102357715D01*
X150137786Y-102478028D01*
X149993028Y-102622786D01*
X149872715Y-102788386D01*
X149779781Y-102970776D01*
X149716522Y-103165465D01*
X149684500Y-103367648D01*
X149684500Y-103572351D01*
X149716522Y-103774534D01*
X149779781Y-103969223D01*
X149801757Y-104012352D01*
X149871908Y-104150031D01*
X149872715Y-104151613D01*
X149993028Y-104317213D01*
X150137786Y-104461971D01*
X150238607Y-104535220D01*
X150303390Y-104582287D01*
X150398624Y-104630811D01*
X150485776Y-104675218D01*
X150485778Y-104675218D01*
X150485781Y-104675220D01*
X150509892Y-104683054D01*
X150680465Y-104738477D01*
X150747860Y-104749151D01*
X150882648Y-104770500D01*
X150882650Y-104770500D01*
X150887511Y-104770883D01*
X150887376Y-104772585D01*
X150947315Y-104790185D01*
X150993070Y-104842989D01*
X151003014Y-104912147D01*
X150990761Y-104950794D01*
X150934658Y-105060903D01*
X150909274Y-105139026D01*
X150871400Y-105255587D01*
X150839378Y-105457770D01*
X150839378Y-105662473D01*
X150871400Y-105864656D01*
X150934659Y-106059345D01*
X151027590Y-106241731D01*
X151051792Y-106275042D01*
X151075271Y-106340849D01*
X151059445Y-106408903D01*
X151009339Y-106457597D01*
X150989792Y-106465858D01*
X150900777Y-106494781D01*
X150718386Y-106587715D01*
X150552786Y-106708028D01*
X150408028Y-106852786D01*
X150287715Y-107018386D01*
X150194781Y-107200776D01*
X150131522Y-107395465D01*
X150099500Y-107597648D01*
X150099500Y-107802351D01*
X150131523Y-108004535D01*
X150131523Y-108004538D01*
X150194778Y-108199216D01*
X150203824Y-108216969D01*
X150209488Y-108247133D01*
X150217288Y-108276805D01*
X150216220Y-108282976D01*
X150216720Y-108285638D01*
X150211270Y-108311582D01*
X150185048Y-108392286D01*
X150145611Y-108449961D01*
X150081252Y-108477160D01*
X150028798Y-108471899D01*
X150010456Y-108465939D01*
X149904534Y-108431522D01*
X149729995Y-108403878D01*
X149702352Y-108399500D01*
X149497648Y-108399500D01*
X149473329Y-108403351D01*
X149295465Y-108431522D01*
X149100776Y-108494781D01*
X148918386Y-108587715D01*
X148752786Y-108708028D01*
X148608028Y-108852786D01*
X148487715Y-109018386D01*
X148394781Y-109200776D01*
X148331522Y-109395465D01*
X148299500Y-109597648D01*
X146024379Y-109597648D01*
X146144517Y-109477510D01*
X146283343Y-109286433D01*
X146390568Y-109075992D01*
X146463553Y-108851368D01*
X146481202Y-108739936D01*
X146500500Y-108618097D01*
X146500500Y-108381902D01*
X146463553Y-108148631D01*
X146416733Y-108004535D01*
X146390568Y-107924008D01*
X146390566Y-107924005D01*
X146390566Y-107924003D01*
X146328581Y-107802351D01*
X146283343Y-107713567D01*
X146144517Y-107522490D01*
X145977510Y-107355483D01*
X145786433Y-107216657D01*
X145755265Y-107200776D01*
X145575996Y-107109433D01*
X145351368Y-107036446D01*
X145118097Y-106999500D01*
X145118092Y-106999500D01*
X144881908Y-106999500D01*
X144881903Y-106999500D01*
X144648631Y-107036446D01*
X144424003Y-107109433D01*
X144213566Y-107216657D01*
X144142243Y-107268477D01*
X144022490Y-107355483D01*
X144022488Y-107355485D01*
X144022487Y-107355485D01*
X143855485Y-107522487D01*
X143855485Y-107522488D01*
X143855483Y-107522490D01*
X143821788Y-107568867D01*
X143716657Y-107713566D01*
X143609433Y-107924003D01*
X143536446Y-108148631D01*
X143499500Y-108381902D01*
X143499500Y-108618097D01*
X143536446Y-108851368D01*
X143609433Y-109075996D01*
X143716656Y-109286432D01*
X143728725Y-109303043D01*
X143752204Y-109368850D01*
X143736378Y-109436903D01*
X143686272Y-109485598D01*
X143622964Y-109498662D01*
X143622964Y-109499500D01*
X143618907Y-109499500D01*
X143618684Y-109499546D01*
X143618099Y-109499500D01*
X143618092Y-109499500D01*
X143381908Y-109499500D01*
X143381903Y-109499500D01*
X143148631Y-109536446D01*
X142924003Y-109609433D01*
X142713566Y-109716657D01*
X142678557Y-109742093D01*
X142522490Y-109855483D01*
X142522488Y-109855485D01*
X142522487Y-109855485D01*
X142355482Y-110022490D01*
X142296119Y-110104196D01*
X142240789Y-110146861D01*
X142171175Y-110152839D01*
X142139508Y-110141794D01*
X142075999Y-110109434D01*
X141851368Y-110036446D01*
X141618097Y-109999500D01*
X141618092Y-109999500D01*
X141381908Y-109999500D01*
X141381903Y-109999500D01*
X141148631Y-110036446D01*
X140924003Y-110109433D01*
X140713566Y-110216657D01*
X140639439Y-110270514D01*
X140522490Y-110355483D01*
X140522488Y-110355485D01*
X140522487Y-110355485D01*
X140355485Y-110522487D01*
X140355485Y-110522488D01*
X140355483Y-110522490D01*
X140321955Y-110568637D01*
X140216657Y-110713566D01*
X140109433Y-110924003D01*
X140036446Y-111148631D01*
X139999500Y-111381902D01*
X139999500Y-111618097D01*
X140036446Y-111851368D01*
X140109433Y-112075996D01*
X140168534Y-112191986D01*
X140196676Y-112247219D01*
X140201032Y-112255767D01*
X140213928Y-112324436D01*
X140187652Y-112389177D01*
X140178229Y-112399743D01*
X140055482Y-112522490D01*
X139916657Y-112713566D01*
X139809433Y-112924003D01*
X139736446Y-113148631D01*
X139699500Y-113381902D01*
X129663091Y-113381902D01*
X129705220Y-113299219D01*
X129768477Y-113104534D01*
X129800500Y-112902352D01*
X129800500Y-112697648D01*
X129783400Y-112589683D01*
X129768477Y-112495465D01*
X129728169Y-112371412D01*
X129705220Y-112300781D01*
X129705218Y-112300778D01*
X129705218Y-112300776D01*
X129654124Y-112200500D01*
X129612287Y-112118390D01*
X129599754Y-112101140D01*
X129491971Y-111952786D01*
X129347213Y-111808028D01*
X129181613Y-111687715D01*
X129181612Y-111687714D01*
X129181610Y-111687713D01*
X129124653Y-111658691D01*
X128999223Y-111594781D01*
X128804534Y-111531522D01*
X128629995Y-111503878D01*
X128602352Y-111499500D01*
X128397648Y-111499500D01*
X128373329Y-111503351D01*
X128195465Y-111531522D01*
X128000776Y-111594781D01*
X127818386Y-111687715D01*
X127652786Y-111808028D01*
X127508028Y-111952786D01*
X127387715Y-112118386D01*
X127294781Y-112300776D01*
X127231522Y-112495465D01*
X127199500Y-112697648D01*
X110000500Y-112697648D01*
X110000500Y-111147648D01*
X122949500Y-111147648D01*
X122949500Y-111352351D01*
X122981522Y-111554534D01*
X123044781Y-111749223D01*
X123137715Y-111931613D01*
X123258028Y-112097213D01*
X123402786Y-112241971D01*
X123557749Y-112354556D01*
X123568390Y-112362287D01*
X123684607Y-112421503D01*
X123750776Y-112455218D01*
X123750778Y-112455218D01*
X123750781Y-112455220D01*
X123804647Y-112472722D01*
X123945465Y-112518477D01*
X124002320Y-112527482D01*
X124147648Y-112550500D01*
X124147649Y-112550500D01*
X124352351Y-112550500D01*
X124352352Y-112550500D01*
X124554534Y-112518477D01*
X124749219Y-112455220D01*
X124931610Y-112362287D01*
X125040268Y-112283343D01*
X125097213Y-112241971D01*
X125097215Y-112241968D01*
X125097219Y-112241966D01*
X125241966Y-112097219D01*
X125241968Y-112097215D01*
X125241971Y-112097213D01*
X125303674Y-112012284D01*
X125362287Y-111931610D01*
X125455220Y-111749219D01*
X125518477Y-111554534D01*
X125550500Y-111352352D01*
X125550500Y-111147648D01*
X125518477Y-110945466D01*
X125509116Y-110916657D01*
X125475605Y-110813521D01*
X125455220Y-110750781D01*
X125455218Y-110750778D01*
X125455218Y-110750776D01*
X125407619Y-110657359D01*
X125362287Y-110568390D01*
X125354556Y-110557749D01*
X125241971Y-110402786D01*
X125097213Y-110258028D01*
X124931613Y-110137715D01*
X124931612Y-110137714D01*
X124931610Y-110137713D01*
X124865829Y-110104196D01*
X124749223Y-110044781D01*
X124554534Y-109981522D01*
X124379995Y-109953878D01*
X124352352Y-109949500D01*
X124147648Y-109949500D01*
X124123329Y-109953351D01*
X123945465Y-109981522D01*
X123750776Y-110044781D01*
X123568386Y-110137715D01*
X123402786Y-110258028D01*
X123258028Y-110402786D01*
X123137715Y-110568386D01*
X123044781Y-110750776D01*
X122981522Y-110945465D01*
X122949500Y-111147648D01*
X110000500Y-111147648D01*
X110000500Y-97785777D01*
X110924500Y-97785777D01*
X110924500Y-98614208D01*
X110924501Y-98614223D01*
X110934904Y-98746413D01*
X110934905Y-98746420D01*
X110989902Y-98964678D01*
X110989903Y-98964681D01*
X111082993Y-99169627D01*
X111103690Y-99199500D01*
X111125875Y-99231523D01*
X111139177Y-99250722D01*
X111161174Y-99317039D01*
X111147734Y-99377632D01*
X111138997Y-99394781D01*
X111041760Y-99585616D01*
X110963910Y-99825214D01*
X110963910Y-99825215D01*
X110924500Y-100074038D01*
X110924500Y-100325962D01*
X110951693Y-100497648D01*
X110963910Y-100574785D01*
X111041760Y-100814383D01*
X111113171Y-100954534D01*
X111137535Y-101002351D01*
X111156132Y-101038848D01*
X111220261Y-101127115D01*
X111243741Y-101192921D01*
X111227915Y-101260975D01*
X111220261Y-101272885D01*
X111156132Y-101361151D01*
X111041760Y-101585616D01*
X110963910Y-101825214D01*
X110938499Y-101985651D01*
X110924500Y-102074038D01*
X110924500Y-102325962D01*
X110948585Y-102478028D01*
X110963910Y-102574785D01*
X111041760Y-102814383D01*
X111156132Y-103038848D01*
X111220261Y-103127115D01*
X111243741Y-103192921D01*
X111227915Y-103260975D01*
X111220261Y-103272885D01*
X111156132Y-103361151D01*
X111041760Y-103585616D01*
X110963910Y-103825214D01*
X110924500Y-104074038D01*
X110924500Y-104325961D01*
X110963910Y-104574785D01*
X111041760Y-104814383D01*
X111086389Y-104901971D01*
X111147693Y-105022287D01*
X111156132Y-105038848D01*
X111220261Y-105127115D01*
X111243741Y-105192921D01*
X111227915Y-105260975D01*
X111220261Y-105272885D01*
X111156132Y-105361151D01*
X111041760Y-105585616D01*
X110963910Y-105825214D01*
X110963910Y-105825215D01*
X110924500Y-106074038D01*
X110924500Y-106325962D01*
X110937388Y-106407335D01*
X110963910Y-106574785D01*
X111041760Y-106814383D01*
X111107583Y-106943566D01*
X111154908Y-107036447D01*
X111156132Y-107038848D01*
X111304201Y-107242649D01*
X111304205Y-107242654D01*
X111482345Y-107420794D01*
X111482350Y-107420798D01*
X111648683Y-107541645D01*
X111686155Y-107568870D01*
X111829184Y-107641747D01*
X111910616Y-107683239D01*
X111910618Y-107683239D01*
X111910621Y-107683241D01*
X112150215Y-107761090D01*
X112399038Y-107800500D01*
X112399039Y-107800500D01*
X113200961Y-107800500D01*
X113200962Y-107800500D01*
X113449785Y-107761090D01*
X113689379Y-107683241D01*
X113913845Y-107568870D01*
X114117656Y-107420793D01*
X114295793Y-107242656D01*
X114443870Y-107038845D01*
X114558241Y-106814379D01*
X114636090Y-106574785D01*
X114675500Y-106325962D01*
X114675500Y-106074038D01*
X114647562Y-105897648D01*
X134699500Y-105897648D01*
X134699500Y-106102351D01*
X134731522Y-106304534D01*
X134794781Y-106499223D01*
X134839870Y-106587713D01*
X134883023Y-106672406D01*
X134887715Y-106681613D01*
X135008028Y-106847213D01*
X135152786Y-106991971D01*
X135307749Y-107104556D01*
X135318390Y-107112287D01*
X135434607Y-107171503D01*
X135500776Y-107205218D01*
X135500778Y-107205218D01*
X135500781Y-107205220D01*
X135605137Y-107239127D01*
X135695465Y-107268477D01*
X135796557Y-107284488D01*
X135897648Y-107300500D01*
X135897649Y-107300500D01*
X136102351Y-107300500D01*
X136102352Y-107300500D01*
X136304534Y-107268477D01*
X136499219Y-107205220D01*
X136681610Y-107112287D01*
X136774590Y-107044732D01*
X136847213Y-106991971D01*
X136847215Y-106991968D01*
X136847219Y-106991966D01*
X136991966Y-106847219D01*
X136991968Y-106847215D01*
X136991971Y-106847213D01*
X137060790Y-106752490D01*
X137112287Y-106681610D01*
X137205220Y-106499219D01*
X137268477Y-106304534D01*
X137300500Y-106102352D01*
X137300500Y-105947648D01*
X141619500Y-105947648D01*
X141619500Y-106152351D01*
X141651522Y-106354534D01*
X141714781Y-106549223D01*
X141777547Y-106672406D01*
X141795700Y-106708034D01*
X141807715Y-106731613D01*
X141928028Y-106897213D01*
X142072786Y-107041971D01*
X142169566Y-107112284D01*
X142238390Y-107162287D01*
X142313929Y-107200776D01*
X142420776Y-107255218D01*
X142420778Y-107255218D01*
X142420781Y-107255220D01*
X142525137Y-107289127D01*
X142615465Y-107318477D01*
X142716557Y-107334488D01*
X142817648Y-107350500D01*
X142817649Y-107350500D01*
X143022351Y-107350500D01*
X143022352Y-107350500D01*
X143224534Y-107318477D01*
X143419219Y-107255220D01*
X143601610Y-107162287D01*
X143694590Y-107094732D01*
X143767213Y-107041971D01*
X143767215Y-107041968D01*
X143767219Y-107041966D01*
X143911966Y-106897219D01*
X143911968Y-106897215D01*
X143911971Y-106897213D01*
X144007779Y-106765342D01*
X144032287Y-106731610D01*
X144125220Y-106549219D01*
X144188477Y-106354534D01*
X144220500Y-106152352D01*
X144220500Y-105947648D01*
X144188477Y-105745466D01*
X144183946Y-105731522D01*
X144136540Y-105585621D01*
X144125220Y-105550781D01*
X144125218Y-105550778D01*
X144125218Y-105550776D01*
X144077828Y-105457770D01*
X144032287Y-105368390D01*
X144024556Y-105357749D01*
X143911971Y-105202786D01*
X143767213Y-105058028D01*
X143601613Y-104937715D01*
X143601612Y-104937714D01*
X143601610Y-104937713D01*
X143485414Y-104878508D01*
X143458874Y-104864985D01*
X143408078Y-104817010D01*
X143391283Y-104749189D01*
X143413821Y-104683054D01*
X143468536Y-104639603D01*
X143515169Y-104630500D01*
X143682351Y-104630500D01*
X143682352Y-104630500D01*
X143884534Y-104598477D01*
X144079219Y-104535220D01*
X144261610Y-104442287D01*
X144381886Y-104354902D01*
X144427213Y-104321971D01*
X144427215Y-104321968D01*
X144427219Y-104321966D01*
X144571966Y-104177219D01*
X144571968Y-104177215D01*
X144571971Y-104177213D01*
X144646931Y-104074038D01*
X144692287Y-104011610D01*
X144785220Y-103829219D01*
X144792229Y-103807648D01*
X146099500Y-103807648D01*
X146099500Y-104012351D01*
X146131522Y-104214534D01*
X146194781Y-104409223D01*
X146248686Y-104515015D01*
X146282961Y-104582284D01*
X146287715Y-104591613D01*
X146408028Y-104757213D01*
X146552786Y-104901971D01*
X146698764Y-105008028D01*
X146718390Y-105022287D01*
X146834607Y-105081503D01*
X146900776Y-105115218D01*
X146900778Y-105115218D01*
X146900781Y-105115220D01*
X147005137Y-105149127D01*
X147095465Y-105178477D01*
X147186660Y-105192921D01*
X147297648Y-105210500D01*
X147297649Y-105210500D01*
X147502351Y-105210500D01*
X147502352Y-105210500D01*
X147704534Y-105178477D01*
X147899219Y-105115220D01*
X148081610Y-105022287D01*
X148180011Y-104950795D01*
X148247213Y-104901971D01*
X148247215Y-104901968D01*
X148247219Y-104901966D01*
X148391966Y-104757219D01*
X148391968Y-104757215D01*
X148391971Y-104757213D01*
X148484032Y-104630500D01*
X148512287Y-104591610D01*
X148605220Y-104409219D01*
X148668477Y-104214534D01*
X148700500Y-104012352D01*
X148700500Y-103807648D01*
X148668477Y-103605466D01*
X148662027Y-103585616D01*
X148612229Y-103432352D01*
X148605220Y-103410781D01*
X148605218Y-103410778D01*
X148605218Y-103410776D01*
X148571503Y-103344607D01*
X148512287Y-103228390D01*
X148491661Y-103200000D01*
X148391971Y-103062786D01*
X148247213Y-102918028D01*
X148081613Y-102797715D01*
X148081612Y-102797714D01*
X148081610Y-102797713D01*
X148024653Y-102768691D01*
X147899223Y-102704781D01*
X147704534Y-102641522D01*
X147529995Y-102613878D01*
X147502352Y-102609500D01*
X147297648Y-102609500D01*
X147273329Y-102613351D01*
X147095465Y-102641522D01*
X146900776Y-102704781D01*
X146718386Y-102797715D01*
X146552786Y-102918028D01*
X146408028Y-103062786D01*
X146287715Y-103228386D01*
X146194781Y-103410776D01*
X146131522Y-103605465D01*
X146099500Y-103807648D01*
X144792229Y-103807648D01*
X144848477Y-103634534D01*
X144880500Y-103432352D01*
X144880500Y-103227648D01*
X144848477Y-103025466D01*
X144785220Y-102830781D01*
X144785218Y-102830778D01*
X144785218Y-102830776D01*
X144742640Y-102747213D01*
X144692287Y-102648390D01*
X144664032Y-102609500D01*
X144571971Y-102482786D01*
X144427213Y-102338028D01*
X144261613Y-102217715D01*
X144261612Y-102217714D01*
X144261610Y-102217713D01*
X144204653Y-102188691D01*
X144079223Y-102124781D01*
X143884534Y-102061522D01*
X143709995Y-102033878D01*
X143682352Y-102029500D01*
X143477648Y-102029500D01*
X143453329Y-102033351D01*
X143275465Y-102061522D01*
X143080776Y-102124781D01*
X142898386Y-102217715D01*
X142732786Y-102338028D01*
X142588028Y-102482786D01*
X142467715Y-102648386D01*
X142374781Y-102830776D01*
X142311522Y-103025465D01*
X142279500Y-103227648D01*
X142279500Y-103432351D01*
X142311522Y-103634534D01*
X142374781Y-103829223D01*
X142467715Y-104011613D01*
X142588028Y-104177213D01*
X142732786Y-104321971D01*
X142852875Y-104409219D01*
X142898390Y-104442287D01*
X143010482Y-104499401D01*
X143041126Y-104515015D01*
X143091922Y-104562990D01*
X143108717Y-104630811D01*
X143086179Y-104696946D01*
X143031464Y-104740397D01*
X142984831Y-104749500D01*
X142817648Y-104749500D01*
X142793329Y-104753351D01*
X142615465Y-104781522D01*
X142420776Y-104844781D01*
X142238386Y-104937715D01*
X142072786Y-105058028D01*
X141928028Y-105202786D01*
X141807715Y-105368386D01*
X141714781Y-105550776D01*
X141651522Y-105745465D01*
X141619500Y-105947648D01*
X137300500Y-105947648D01*
X137300500Y-105897648D01*
X137298926Y-105887713D01*
X137268477Y-105695465D01*
X137232786Y-105585621D01*
X137205220Y-105500781D01*
X137205218Y-105500778D01*
X137205218Y-105500776D01*
X137137761Y-105368386D01*
X137112287Y-105318390D01*
X137070573Y-105260975D01*
X136991971Y-105152786D01*
X136847213Y-105008028D01*
X136681613Y-104887715D01*
X136681612Y-104887714D01*
X136681610Y-104887713D01*
X136624653Y-104858691D01*
X136499223Y-104794781D01*
X136304534Y-104731522D01*
X136129995Y-104703878D01*
X136102352Y-104699500D01*
X135897648Y-104699500D01*
X135873329Y-104703351D01*
X135695465Y-104731522D01*
X135500776Y-104794781D01*
X135318386Y-104887715D01*
X135152786Y-105008028D01*
X135008028Y-105152786D01*
X134887715Y-105318386D01*
X134794781Y-105500776D01*
X134731522Y-105695465D01*
X134699500Y-105897648D01*
X114647562Y-105897648D01*
X114636090Y-105825215D01*
X114558241Y-105585621D01*
X114558239Y-105585618D01*
X114558239Y-105585616D01*
X114443869Y-105361154D01*
X114412796Y-105318386D01*
X114379737Y-105272883D01*
X114356258Y-105207080D01*
X114372083Y-105139026D01*
X114379731Y-105127123D01*
X114443870Y-105038845D01*
X114558241Y-104814379D01*
X114636090Y-104574785D01*
X114675500Y-104325962D01*
X114675500Y-104074038D01*
X114636090Y-103825215D01*
X114558241Y-103585621D01*
X114558239Y-103585618D01*
X114558239Y-103585616D01*
X114497905Y-103467206D01*
X114443870Y-103361155D01*
X114379737Y-103272883D01*
X114356258Y-103207080D01*
X114372083Y-103139026D01*
X114379731Y-103127123D01*
X114443870Y-103038845D01*
X114558241Y-102814379D01*
X114636090Y-102574785D01*
X114675500Y-102325962D01*
X114675500Y-102074038D01*
X114636090Y-101825215D01*
X114558241Y-101585621D01*
X114558239Y-101585618D01*
X114558239Y-101585616D01*
X114464058Y-101400776D01*
X114443870Y-101361155D01*
X114379737Y-101272883D01*
X114356258Y-101207080D01*
X114372083Y-101139026D01*
X114379731Y-101127123D01*
X114443870Y-101038845D01*
X114558241Y-100814379D01*
X114636090Y-100574785D01*
X114640388Y-100547648D01*
X129619500Y-100547648D01*
X129619500Y-100752351D01*
X129651522Y-100954534D01*
X129714781Y-101149223D01*
X129807715Y-101331613D01*
X129928028Y-101497213D01*
X130072782Y-101641967D01*
X130075315Y-101643807D01*
X130076044Y-101644753D01*
X130076488Y-101645132D01*
X130076408Y-101645225D01*
X130117982Y-101699137D01*
X130124905Y-101763521D01*
X130119500Y-101797651D01*
X130119500Y-102002351D01*
X130151522Y-102204534D01*
X130214781Y-102399223D01*
X130278691Y-102524653D01*
X130307288Y-102580776D01*
X130307715Y-102581613D01*
X130428028Y-102747213D01*
X130572786Y-102891971D01*
X130681261Y-102970781D01*
X130738390Y-103012287D01*
X130920777Y-103105218D01*
X130920785Y-103105222D01*
X130988164Y-103127114D01*
X131024048Y-103138773D01*
X131081724Y-103178209D01*
X131108204Y-103237306D01*
X131131522Y-103384534D01*
X131194781Y-103579223D01*
X131287715Y-103761613D01*
X131408028Y-103927213D01*
X131552786Y-104071971D01*
X131704585Y-104182257D01*
X131718390Y-104192287D01*
X131829817Y-104249062D01*
X131900776Y-104285218D01*
X131900778Y-104285218D01*
X131900781Y-104285220D01*
X131999245Y-104317213D01*
X132095465Y-104348477D01*
X132196557Y-104364488D01*
X132297648Y-104380500D01*
X132297649Y-104380500D01*
X132502351Y-104380500D01*
X132502352Y-104380500D01*
X132704534Y-104348477D01*
X132899219Y-104285220D01*
X133081610Y-104192287D01*
X133188488Y-104114636D01*
X133247213Y-104071971D01*
X133247215Y-104071968D01*
X133247219Y-104071966D01*
X133391966Y-103927219D01*
X133391968Y-103927215D01*
X133391971Y-103927213D01*
X133444732Y-103854590D01*
X133512287Y-103761610D01*
X133605220Y-103579219D01*
X133668477Y-103384534D01*
X133700500Y-103182352D01*
X133700500Y-102977648D01*
X133670524Y-102788390D01*
X133668477Y-102775465D01*
X133618868Y-102622786D01*
X133605220Y-102580781D01*
X133605218Y-102580778D01*
X133605218Y-102580776D01*
X133512287Y-102398390D01*
X133424686Y-102277816D01*
X133401207Y-102212009D01*
X133417033Y-102143955D01*
X133467139Y-102095261D01*
X133525005Y-102080931D01*
X133562537Y-102080931D01*
X133562538Y-102080931D01*
X133764720Y-102048908D01*
X133959405Y-101985651D01*
X134141796Y-101892718D01*
X134262228Y-101805220D01*
X134272650Y-101797648D01*
X139799500Y-101797648D01*
X139799500Y-102002351D01*
X139831522Y-102204534D01*
X139894781Y-102399223D01*
X139958691Y-102524653D01*
X139987288Y-102580776D01*
X139987715Y-102581613D01*
X140108028Y-102747213D01*
X140252786Y-102891971D01*
X140361261Y-102970781D01*
X140418390Y-103012287D01*
X140517490Y-103062781D01*
X140600776Y-103105218D01*
X140600778Y-103105218D01*
X140600781Y-103105220D01*
X140668164Y-103127114D01*
X140795465Y-103168477D01*
X140883068Y-103182352D01*
X140997648Y-103200500D01*
X140997649Y-103200500D01*
X141202351Y-103200500D01*
X141202352Y-103200500D01*
X141404534Y-103168477D01*
X141599219Y-103105220D01*
X141781610Y-103012287D01*
X141874590Y-102944732D01*
X141947213Y-102891971D01*
X141947215Y-102891968D01*
X141947219Y-102891966D01*
X142091966Y-102747219D01*
X142091968Y-102747215D01*
X142091971Y-102747213D01*
X142168758Y-102641523D01*
X142212287Y-102581610D01*
X142305220Y-102399219D01*
X142368477Y-102204534D01*
X142400500Y-102002352D01*
X142400500Y-101843308D01*
X142420185Y-101776269D01*
X142472989Y-101730514D01*
X142542147Y-101720570D01*
X142562814Y-101725376D01*
X142630022Y-101747213D01*
X142695465Y-101768477D01*
X142796557Y-101784488D01*
X142897648Y-101800500D01*
X142897649Y-101800500D01*
X143102351Y-101800500D01*
X143102352Y-101800500D01*
X143304534Y-101768477D01*
X143499219Y-101705220D01*
X143681610Y-101612287D01*
X143774590Y-101544732D01*
X143847213Y-101491971D01*
X143847215Y-101491968D01*
X143847219Y-101491966D01*
X143991966Y-101347219D01*
X143991968Y-101347215D01*
X143991971Y-101347213D01*
X144054625Y-101260975D01*
X144112287Y-101181610D01*
X144205220Y-100999219D01*
X144268477Y-100804534D01*
X144300500Y-100602352D01*
X144300500Y-100397648D01*
X144286980Y-100312287D01*
X144268477Y-100195465D01*
X144222116Y-100052781D01*
X144205220Y-100000781D01*
X144205218Y-100000778D01*
X144205218Y-100000776D01*
X144170792Y-99933212D01*
X144112287Y-99818390D01*
X144100950Y-99802786D01*
X143991971Y-99652786D01*
X143847213Y-99508028D01*
X143681613Y-99387715D01*
X143681612Y-99387714D01*
X143681610Y-99387713D01*
X143606613Y-99349500D01*
X143499223Y-99294781D01*
X143304534Y-99231522D01*
X143129995Y-99203878D01*
X143102352Y-99199500D01*
X142897648Y-99199500D01*
X142873329Y-99203351D01*
X142695465Y-99231522D01*
X142500776Y-99294781D01*
X142318386Y-99387715D01*
X142152786Y-99508028D01*
X142008028Y-99652786D01*
X141887715Y-99818386D01*
X141794781Y-100000776D01*
X141731522Y-100195465D01*
X141699500Y-100397648D01*
X141699500Y-100556691D01*
X141679815Y-100623730D01*
X141627011Y-100669485D01*
X141557853Y-100679429D01*
X141537182Y-100674622D01*
X141404537Y-100631523D01*
X141252897Y-100607505D01*
X141202352Y-100599500D01*
X140997648Y-100599500D01*
X140973329Y-100603351D01*
X140795465Y-100631522D01*
X140600776Y-100694781D01*
X140418386Y-100787715D01*
X140252786Y-100908028D01*
X140108028Y-101052786D01*
X139987715Y-101218386D01*
X139894781Y-101400776D01*
X139831522Y-101595465D01*
X139799500Y-101797648D01*
X134272650Y-101797648D01*
X134307399Y-101772402D01*
X134307401Y-101772399D01*
X134307405Y-101772397D01*
X134452152Y-101627650D01*
X134452154Y-101627646D01*
X134452157Y-101627644D01*
X134504918Y-101555021D01*
X134572473Y-101462041D01*
X134665406Y-101279650D01*
X134728663Y-101084965D01*
X134760686Y-100882783D01*
X134760686Y-100678079D01*
X134741460Y-100556691D01*
X134728663Y-100475896D01*
X134672984Y-100304535D01*
X134665406Y-100281212D01*
X134665404Y-100281209D01*
X134665404Y-100281207D01*
X134621716Y-100195466D01*
X134572473Y-100098821D01*
X134539027Y-100052786D01*
X134452157Y-99933217D01*
X134320672Y-99801732D01*
X134287187Y-99740409D01*
X134285880Y-99694652D01*
X134292512Y-99652786D01*
X134300500Y-99602352D01*
X134300500Y-99397648D01*
X136699500Y-99397648D01*
X136699500Y-99602351D01*
X136731522Y-99804534D01*
X136794781Y-99999223D01*
X136887715Y-100181613D01*
X137008028Y-100347213D01*
X137152786Y-100491971D01*
X137307749Y-100604556D01*
X137318390Y-100612287D01*
X137430647Y-100669485D01*
X137500776Y-100705218D01*
X137500778Y-100705218D01*
X137500781Y-100705220D01*
X137605137Y-100739127D01*
X137695465Y-100768477D01*
X137796557Y-100784488D01*
X137897648Y-100800500D01*
X137897649Y-100800500D01*
X138102351Y-100800500D01*
X138102352Y-100800500D01*
X138304534Y-100768477D01*
X138499219Y-100705220D01*
X138681610Y-100612287D01*
X138774590Y-100544732D01*
X138847213Y-100491971D01*
X138847215Y-100491968D01*
X138847219Y-100491966D01*
X138991966Y-100347219D01*
X138991968Y-100347215D01*
X138991971Y-100347213D01*
X139044732Y-100274590D01*
X139112287Y-100181610D01*
X139205220Y-99999219D01*
X139268477Y-99804534D01*
X139300500Y-99602352D01*
X139300500Y-99397648D01*
X139292874Y-99349500D01*
X139268477Y-99195465D01*
X139231483Y-99081610D01*
X139205220Y-99000781D01*
X139205218Y-99000778D01*
X139205218Y-99000776D01*
X139171503Y-98934607D01*
X139112287Y-98818390D01*
X139095134Y-98794781D01*
X138991971Y-98652786D01*
X138847213Y-98508028D01*
X138681613Y-98387715D01*
X138681612Y-98387714D01*
X138681610Y-98387713D01*
X138613052Y-98352781D01*
X138499223Y-98294781D01*
X138304534Y-98231522D01*
X138129995Y-98203878D01*
X138102352Y-98199500D01*
X137897648Y-98199500D01*
X137873329Y-98203351D01*
X137695465Y-98231522D01*
X137500776Y-98294781D01*
X137318386Y-98387715D01*
X137152786Y-98508028D01*
X137008028Y-98652786D01*
X136887715Y-98818386D01*
X136794781Y-99000776D01*
X136731522Y-99195465D01*
X136699500Y-99397648D01*
X134300500Y-99397648D01*
X134292874Y-99349500D01*
X134268477Y-99195465D01*
X134231483Y-99081610D01*
X134205220Y-99000781D01*
X134205218Y-99000778D01*
X134205218Y-99000776D01*
X134171503Y-98934607D01*
X134112287Y-98818390D01*
X134095134Y-98794781D01*
X133991971Y-98652786D01*
X133847213Y-98508028D01*
X133681613Y-98387715D01*
X133681612Y-98387714D01*
X133681610Y-98387713D01*
X133613052Y-98352781D01*
X133499223Y-98294781D01*
X133304534Y-98231522D01*
X133129995Y-98203878D01*
X133102352Y-98199500D01*
X132897648Y-98199500D01*
X132873329Y-98203351D01*
X132695465Y-98231522D01*
X132500776Y-98294781D01*
X132318386Y-98387715D01*
X132152786Y-98508028D01*
X132008028Y-98652786D01*
X131887715Y-98818386D01*
X131794781Y-99000776D01*
X131731522Y-99195465D01*
X131698738Y-99402460D01*
X131697053Y-99402193D01*
X131674783Y-99460576D01*
X131618541Y-99502031D01*
X131548814Y-99506498D01*
X131519775Y-99496016D01*
X131419223Y-99444781D01*
X131224534Y-99381522D01*
X131049995Y-99353878D01*
X131022352Y-99349500D01*
X130817648Y-99349500D01*
X130793329Y-99353351D01*
X130615465Y-99381522D01*
X130420776Y-99444781D01*
X130238386Y-99537715D01*
X130072786Y-99658028D01*
X129928028Y-99802786D01*
X129807715Y-99968386D01*
X129714781Y-100150776D01*
X129651522Y-100345465D01*
X129619500Y-100547648D01*
X114640388Y-100547648D01*
X114675500Y-100325962D01*
X114675500Y-100074038D01*
X114636090Y-99825215D01*
X114558241Y-99585621D01*
X114558239Y-99585618D01*
X114558239Y-99585616D01*
X114495399Y-99462287D01*
X114452264Y-99377630D01*
X114439369Y-99308964D01*
X114460822Y-99250722D01*
X114517007Y-99169626D01*
X114549701Y-99097648D01*
X122799500Y-99097648D01*
X122799500Y-99302351D01*
X122831522Y-99504534D01*
X122894781Y-99699223D01*
X122987715Y-99881613D01*
X123108028Y-100047213D01*
X123252786Y-100191971D01*
X123395236Y-100295465D01*
X123418390Y-100312287D01*
X123534607Y-100371503D01*
X123600776Y-100405218D01*
X123600778Y-100405218D01*
X123600781Y-100405220D01*
X123661181Y-100424845D01*
X123795465Y-100468477D01*
X123842313Y-100475897D01*
X123997648Y-100500500D01*
X123997649Y-100500500D01*
X124202351Y-100500500D01*
X124202352Y-100500500D01*
X124404534Y-100468477D01*
X124599219Y-100405220D01*
X124781610Y-100312287D01*
X124874590Y-100244732D01*
X124947213Y-100191971D01*
X124947215Y-100191968D01*
X124947219Y-100191966D01*
X125091966Y-100047219D01*
X125091968Y-100047215D01*
X125091971Y-100047213D01*
X125149241Y-99968386D01*
X125212287Y-99881610D01*
X125305220Y-99699219D01*
X125368477Y-99504534D01*
X125400500Y-99302352D01*
X125400500Y-99097648D01*
X125369072Y-98899223D01*
X125368477Y-98895465D01*
X125320046Y-98746412D01*
X125305220Y-98700781D01*
X125305218Y-98700778D01*
X125305218Y-98700776D01*
X125232394Y-98557853D01*
X125212287Y-98518390D01*
X125164308Y-98452352D01*
X125091971Y-98352786D01*
X124947213Y-98208028D01*
X124781613Y-98087715D01*
X124781612Y-98087714D01*
X124781610Y-98087713D01*
X124724653Y-98058691D01*
X124599223Y-97994781D01*
X124404534Y-97931522D01*
X124229995Y-97903878D01*
X124202352Y-97899500D01*
X123997648Y-97899500D01*
X123973329Y-97903351D01*
X123795465Y-97931522D01*
X123600776Y-97994781D01*
X123418386Y-98087715D01*
X123252786Y-98208028D01*
X123108028Y-98352786D01*
X122987715Y-98518386D01*
X122894781Y-98700776D01*
X122831522Y-98895465D01*
X122799500Y-99097648D01*
X114549701Y-99097648D01*
X114610096Y-98964683D01*
X114665096Y-98746412D01*
X114675500Y-98614217D01*
X114675499Y-97785784D01*
X114665096Y-97653588D01*
X114639696Y-97552788D01*
X114610097Y-97435321D01*
X114610096Y-97435318D01*
X114608413Y-97431613D01*
X114517007Y-97230374D01*
X114481472Y-97179082D01*
X114388825Y-97045354D01*
X114388822Y-97045350D01*
X114388819Y-97045346D01*
X114229654Y-96886181D01*
X114229650Y-96886178D01*
X114229645Y-96886174D01*
X114044632Y-96757997D01*
X114044630Y-96757995D01*
X114044626Y-96757993D01*
X113859761Y-96674024D01*
X113839681Y-96664903D01*
X113839678Y-96664902D01*
X113621420Y-96609905D01*
X113621413Y-96609904D01*
X113577347Y-96606436D01*
X113489217Y-96599500D01*
X113489215Y-96599500D01*
X112110791Y-96599500D01*
X112110776Y-96599501D01*
X111978586Y-96609904D01*
X111978579Y-96609905D01*
X111760321Y-96664902D01*
X111760318Y-96664903D01*
X111555377Y-96757991D01*
X111555367Y-96757997D01*
X111370354Y-96886174D01*
X111370342Y-96886184D01*
X111211184Y-97045342D01*
X111211174Y-97045354D01*
X111082997Y-97230367D01*
X111082991Y-97230377D01*
X110989903Y-97435318D01*
X110989902Y-97435321D01*
X110934905Y-97653579D01*
X110934904Y-97653586D01*
X110924500Y-97785777D01*
X110000500Y-97785777D01*
X110000500Y-92897648D01*
X127699500Y-92897648D01*
X127699500Y-93102351D01*
X127731522Y-93304534D01*
X127794781Y-93499223D01*
X127858361Y-93624003D01*
X127883030Y-93672420D01*
X127887715Y-93681613D01*
X128008028Y-93847213D01*
X128152786Y-93991971D01*
X128307749Y-94104556D01*
X128318390Y-94112287D01*
X128434607Y-94171503D01*
X128500776Y-94205218D01*
X128500778Y-94205218D01*
X128500781Y-94205220D01*
X128605137Y-94239127D01*
X128695465Y-94268477D01*
X128796557Y-94284488D01*
X128897648Y-94300500D01*
X128897649Y-94300500D01*
X129102351Y-94300500D01*
X129102352Y-94300500D01*
X129304534Y-94268477D01*
X129499219Y-94205220D01*
X129681610Y-94112287D01*
X129774590Y-94044732D01*
X129847213Y-93991971D01*
X129847215Y-93991968D01*
X129847219Y-93991966D01*
X129991966Y-93847219D01*
X130096020Y-93703998D01*
X130151349Y-93661333D01*
X130220962Y-93655353D01*
X130269223Y-93676566D01*
X130302546Y-93700776D01*
X130318390Y-93712287D01*
X130395454Y-93751553D01*
X130500776Y-93805218D01*
X130500778Y-93805218D01*
X130500781Y-93805220D01*
X130605137Y-93839127D01*
X130695465Y-93868477D01*
X130796557Y-93884488D01*
X130897648Y-93900500D01*
X130897649Y-93900500D01*
X131102351Y-93900500D01*
X131102352Y-93900500D01*
X131304534Y-93868477D01*
X131499219Y-93805220D01*
X131681610Y-93712287D01*
X131774590Y-93644732D01*
X131847213Y-93591971D01*
X131847215Y-93591968D01*
X131847219Y-93591966D01*
X131991966Y-93447219D01*
X131991968Y-93447215D01*
X131991971Y-93447213D01*
X132044732Y-93374590D01*
X132112287Y-93281610D01*
X132205220Y-93099219D01*
X132268477Y-92904534D01*
X132269568Y-92897648D01*
X138199500Y-92897648D01*
X138199500Y-93102351D01*
X138231522Y-93304534D01*
X138294781Y-93499223D01*
X138358361Y-93624003D01*
X138383030Y-93672420D01*
X138387715Y-93681613D01*
X138508028Y-93847213D01*
X138652786Y-93991971D01*
X138807749Y-94104556D01*
X138818390Y-94112287D01*
X138934607Y-94171503D01*
X139000776Y-94205218D01*
X139000778Y-94205218D01*
X139000781Y-94205220D01*
X139105137Y-94239127D01*
X139195465Y-94268477D01*
X139296557Y-94284488D01*
X139397648Y-94300500D01*
X139397649Y-94300500D01*
X139602351Y-94300500D01*
X139602352Y-94300500D01*
X139804534Y-94268477D01*
X139999219Y-94205220D01*
X140181610Y-94112287D01*
X140274590Y-94044732D01*
X140347213Y-93991971D01*
X140347215Y-93991968D01*
X140347219Y-93991966D01*
X140491966Y-93847219D01*
X140491968Y-93847215D01*
X140491971Y-93847213D01*
X140561471Y-93751553D01*
X140612287Y-93681610D01*
X140705220Y-93499219D01*
X140768477Y-93304534D01*
X140800500Y-93102352D01*
X140800500Y-92897648D01*
X140770786Y-92710045D01*
X140779740Y-92640753D01*
X140824736Y-92587301D01*
X140891488Y-92566661D01*
X140958802Y-92585386D01*
X140980940Y-92602967D01*
X141022490Y-92644517D01*
X141213567Y-92783343D01*
X141264770Y-92809432D01*
X141424003Y-92890566D01*
X141424005Y-92890566D01*
X141424008Y-92890568D01*
X141544412Y-92929689D01*
X141648631Y-92963553D01*
X141881894Y-93000498D01*
X141881896Y-93000498D01*
X141881908Y-93000500D01*
X141881919Y-93000500D01*
X141885117Y-93000752D01*
X141886271Y-93001192D01*
X141886720Y-93001263D01*
X141886705Y-93001357D01*
X141950408Y-93025629D01*
X141991885Y-93081855D01*
X141996380Y-93151580D01*
X141975721Y-93197256D01*
X141887712Y-93318390D01*
X141794781Y-93500776D01*
X141731522Y-93695465D01*
X141699500Y-93897648D01*
X141699500Y-94102351D01*
X141731522Y-94304534D01*
X141794781Y-94499223D01*
X141850221Y-94608028D01*
X141876767Y-94660128D01*
X141887715Y-94681613D01*
X142008028Y-94847213D01*
X142152786Y-94991971D01*
X142275859Y-95081387D01*
X142318390Y-95112287D01*
X142434607Y-95171503D01*
X142500776Y-95205218D01*
X142500778Y-95205218D01*
X142500781Y-95205220D01*
X142605137Y-95239127D01*
X142695465Y-95268477D01*
X142796557Y-95284488D01*
X142897648Y-95300500D01*
X142897649Y-95300500D01*
X143102351Y-95300500D01*
X143102352Y-95300500D01*
X143304534Y-95268477D01*
X143499219Y-95205220D01*
X143681610Y-95112287D01*
X143784461Y-95037562D01*
X143847213Y-94991971D01*
X143847215Y-94991968D01*
X143847219Y-94991966D01*
X143991966Y-94847219D01*
X143991968Y-94847215D01*
X143991971Y-94847213D01*
X144060575Y-94752786D01*
X144112287Y-94681610D01*
X144205220Y-94499219D01*
X144268477Y-94304534D01*
X144300500Y-94102352D01*
X144300500Y-94081902D01*
X152499500Y-94081902D01*
X152499500Y-94318097D01*
X152536446Y-94551368D01*
X152609433Y-94775996D01*
X152679047Y-94912619D01*
X152716657Y-94986433D01*
X152855483Y-95177510D01*
X153022490Y-95344517D01*
X153213567Y-95483343D01*
X153312991Y-95534002D01*
X153424003Y-95590566D01*
X153424005Y-95590566D01*
X153424008Y-95590568D01*
X153544412Y-95629689D01*
X153648631Y-95663553D01*
X153881903Y-95700500D01*
X153881908Y-95700500D01*
X153893301Y-95700500D01*
X153960340Y-95720185D01*
X154006095Y-95772989D01*
X154015774Y-95805102D01*
X154031522Y-95904534D01*
X154094781Y-96099223D01*
X154147328Y-96202351D01*
X154171933Y-96250641D01*
X154187715Y-96281613D01*
X154308028Y-96447213D01*
X154452786Y-96591971D01*
X154606370Y-96703554D01*
X154618390Y-96712287D01*
X154708089Y-96757991D01*
X154800776Y-96805218D01*
X154800778Y-96805218D01*
X154800781Y-96805220D01*
X154896977Y-96836476D01*
X154985355Y-96865192D01*
X155043030Y-96904630D01*
X155070228Y-96968989D01*
X155058313Y-97037835D01*
X155011069Y-97089311D01*
X154985355Y-97101054D01*
X154850776Y-97144781D01*
X154668386Y-97237715D01*
X154502786Y-97358028D01*
X154358028Y-97502786D01*
X154237715Y-97668386D01*
X154144781Y-97850776D01*
X154081522Y-98045465D01*
X154049500Y-98247648D01*
X154049500Y-98452351D01*
X154081522Y-98654534D01*
X154144781Y-98849223D01*
X154170256Y-98899219D01*
X154225700Y-99008034D01*
X154237715Y-99031613D01*
X154358028Y-99197213D01*
X154502786Y-99341971D01*
X154589843Y-99405220D01*
X154668390Y-99462287D01*
X154784607Y-99521503D01*
X154850776Y-99555218D01*
X154850778Y-99555218D01*
X154850781Y-99555220D01*
X154944330Y-99585616D01*
X155045465Y-99618477D01*
X155127834Y-99631523D01*
X155247648Y-99650500D01*
X155247649Y-99650500D01*
X155452351Y-99650500D01*
X155452352Y-99650500D01*
X155654534Y-99618477D01*
X155849219Y-99555220D01*
X156031610Y-99462287D01*
X156124590Y-99394732D01*
X156197213Y-99341971D01*
X156197215Y-99341968D01*
X156197219Y-99341966D01*
X156341966Y-99197219D01*
X156341968Y-99197215D01*
X156341971Y-99197213D01*
X156450946Y-99047219D01*
X156462287Y-99031610D01*
X156555220Y-98849219D01*
X156618477Y-98654534D01*
X156650500Y-98452352D01*
X156650500Y-98247648D01*
X156625169Y-98087715D01*
X156618477Y-98045465D01*
X156569739Y-97895466D01*
X156555220Y-97850781D01*
X156555218Y-97850778D01*
X156555218Y-97850776D01*
X156487761Y-97718386D01*
X156462287Y-97668390D01*
X156410579Y-97597219D01*
X156341971Y-97502786D01*
X156197213Y-97358028D01*
X156031613Y-97237715D01*
X156031612Y-97237714D01*
X156031610Y-97237713D01*
X155954356Y-97198350D01*
X155849223Y-97144781D01*
X155664644Y-97084807D01*
X155606969Y-97045369D01*
X155579771Y-96981010D01*
X155591686Y-96912164D01*
X155638931Y-96860688D01*
X155664639Y-96848947D01*
X155799219Y-96805220D01*
X155981610Y-96712287D01*
X156122100Y-96610216D01*
X156147213Y-96591971D01*
X156147215Y-96591968D01*
X156147219Y-96591966D01*
X156291966Y-96447219D01*
X156291968Y-96447215D01*
X156291971Y-96447213D01*
X156362600Y-96349999D01*
X156412287Y-96281610D01*
X156505220Y-96099219D01*
X156568477Y-95904534D01*
X156600500Y-95702352D01*
X156600500Y-95497648D01*
X156577115Y-95350001D01*
X156568477Y-95295465D01*
X156530151Y-95177510D01*
X156505220Y-95100781D01*
X156505218Y-95100778D01*
X156505218Y-95100776D01*
X156467104Y-95025974D01*
X156412287Y-94918390D01*
X156385085Y-94880949D01*
X156291971Y-94752786D01*
X156147213Y-94608028D01*
X155981613Y-94487715D01*
X155981612Y-94487714D01*
X155981610Y-94487713D01*
X155799219Y-94394780D01*
X155604534Y-94331523D01*
X155604531Y-94331522D01*
X155599794Y-94330385D01*
X155600070Y-94329233D01*
X155541950Y-94301667D01*
X155505030Y-94242349D01*
X155500500Y-94209139D01*
X155500500Y-94081902D01*
X155463553Y-93848631D01*
X155415512Y-93700778D01*
X155390568Y-93624008D01*
X155390566Y-93624005D01*
X155390566Y-93624003D01*
X155314007Y-93473748D01*
X155283343Y-93413567D01*
X155144517Y-93222490D01*
X154977510Y-93055483D01*
X154786433Y-92916657D01*
X154749126Y-92897648D01*
X154575996Y-92809433D01*
X154351368Y-92736446D01*
X154118097Y-92699500D01*
X154118092Y-92699500D01*
X153881908Y-92699500D01*
X153881903Y-92699500D01*
X153648631Y-92736446D01*
X153424003Y-92809433D01*
X153213566Y-92916657D01*
X153149020Y-92963553D01*
X153022490Y-93055483D01*
X153022488Y-93055485D01*
X153022487Y-93055485D01*
X152855485Y-93222487D01*
X152855485Y-93222488D01*
X152855483Y-93222490D01*
X152797244Y-93302649D01*
X152716657Y-93413566D01*
X152609433Y-93624003D01*
X152536446Y-93848631D01*
X152499500Y-94081902D01*
X144300500Y-94081902D01*
X144300500Y-93897648D01*
X144277361Y-93751555D01*
X144268477Y-93695465D01*
X144227395Y-93569030D01*
X144205220Y-93500781D01*
X144205218Y-93500778D01*
X144205218Y-93500776D01*
X144160782Y-93413567D01*
X144112287Y-93318390D01*
X144056410Y-93241481D01*
X143991971Y-93152786D01*
X143847213Y-93008028D01*
X143681613Y-92887715D01*
X143681612Y-92887714D01*
X143681610Y-92887713D01*
X143624653Y-92858691D01*
X143499223Y-92794781D01*
X143304534Y-92731522D01*
X143187480Y-92712983D01*
X143124345Y-92683054D01*
X143087414Y-92623742D01*
X143088412Y-92553879D01*
X143119194Y-92502832D01*
X143144517Y-92477510D01*
X143283343Y-92286433D01*
X143390568Y-92075992D01*
X143426958Y-91963995D01*
X143444399Y-91910319D01*
X143444399Y-91910318D01*
X143463552Y-91851372D01*
X143463552Y-91851371D01*
X143463553Y-91851368D01*
X143483088Y-91728028D01*
X143500500Y-91618097D01*
X143500500Y-91381902D01*
X143463553Y-91148631D01*
X143428002Y-91039219D01*
X143391389Y-90926537D01*
X143389395Y-90856699D01*
X143425475Y-90796866D01*
X143488176Y-90766037D01*
X143557590Y-90774001D01*
X143582200Y-90787899D01*
X143713567Y-90883343D01*
X143793367Y-90924003D01*
X143924003Y-90990566D01*
X143924005Y-90990566D01*
X143924008Y-90990568D01*
X144044412Y-91029689D01*
X144148631Y-91063553D01*
X144381903Y-91100500D01*
X144381908Y-91100500D01*
X144618097Y-91100500D01*
X144851368Y-91063553D01*
X144852116Y-91063310D01*
X145075992Y-90990568D01*
X145258358Y-90897648D01*
X167999500Y-90897648D01*
X167999500Y-91102351D01*
X168031522Y-91304534D01*
X168094781Y-91499223D01*
X168187715Y-91681613D01*
X168308028Y-91847213D01*
X168452786Y-91991971D01*
X168602546Y-92100776D01*
X168618390Y-92112287D01*
X168697864Y-92152781D01*
X168800776Y-92205218D01*
X168800778Y-92205218D01*
X168800781Y-92205220D01*
X168875803Y-92229596D01*
X168995465Y-92268477D01*
X169096557Y-92284488D01*
X169197648Y-92300500D01*
X169197649Y-92300500D01*
X169402351Y-92300500D01*
X169402352Y-92300500D01*
X169604534Y-92268477D01*
X169799219Y-92205220D01*
X169981610Y-92112287D01*
X170122012Y-92010280D01*
X170147213Y-91991971D01*
X170147215Y-91991968D01*
X170147219Y-91991966D01*
X170291966Y-91847219D01*
X170291968Y-91847215D01*
X170291971Y-91847213D01*
X170360578Y-91752782D01*
X170412287Y-91681610D01*
X170505220Y-91499219D01*
X170568477Y-91304534D01*
X170600500Y-91102352D01*
X170600500Y-90897648D01*
X170585752Y-90804534D01*
X170568477Y-90695465D01*
X170530151Y-90577510D01*
X170505220Y-90500781D01*
X170505218Y-90500778D01*
X170505218Y-90500776D01*
X170452671Y-90397648D01*
X170412287Y-90318390D01*
X170401203Y-90303134D01*
X170291971Y-90152786D01*
X170147213Y-90008028D01*
X169981613Y-89887715D01*
X169981612Y-89887714D01*
X169981610Y-89887713D01*
X169924053Y-89858386D01*
X169799223Y-89794781D01*
X169604534Y-89731522D01*
X169429995Y-89703878D01*
X169402352Y-89699500D01*
X169197648Y-89699500D01*
X169173329Y-89703351D01*
X168995465Y-89731522D01*
X168800776Y-89794781D01*
X168618386Y-89887715D01*
X168452786Y-90008028D01*
X168308028Y-90152786D01*
X168187715Y-90318386D01*
X168094781Y-90500776D01*
X168031522Y-90695465D01*
X167999500Y-90897648D01*
X145258358Y-90897648D01*
X145286433Y-90883343D01*
X145477510Y-90744517D01*
X145644517Y-90577510D01*
X145783343Y-90386433D01*
X145890568Y-90175992D01*
X145963553Y-89951368D01*
X145978280Y-89858386D01*
X146000500Y-89718097D01*
X146000500Y-89481902D01*
X145963553Y-89248631D01*
X145896392Y-89041932D01*
X145890568Y-89024008D01*
X145890566Y-89024005D01*
X145890566Y-89024003D01*
X145806927Y-88859853D01*
X145783343Y-88813567D01*
X145651355Y-88631902D01*
X151999500Y-88631902D01*
X151999500Y-88868097D01*
X152036446Y-89101368D01*
X152109433Y-89325996D01*
X152212567Y-89528406D01*
X152216657Y-89536433D01*
X152355483Y-89727510D01*
X152522490Y-89894517D01*
X152713567Y-90033343D01*
X152812991Y-90084002D01*
X152924003Y-90140566D01*
X152924005Y-90140566D01*
X152924008Y-90140568D01*
X153025239Y-90173460D01*
X153148631Y-90213553D01*
X153381903Y-90250500D01*
X153381908Y-90250500D01*
X153618097Y-90250500D01*
X153851368Y-90213553D01*
X154075992Y-90140568D01*
X154286433Y-90033343D01*
X154477510Y-89894517D01*
X154644517Y-89727510D01*
X154783343Y-89536433D01*
X154890568Y-89325992D01*
X154963553Y-89101368D01*
X154975806Y-89024008D01*
X155000500Y-88868097D01*
X155000500Y-88631902D01*
X154963553Y-88398631D01*
X154890566Y-88174003D01*
X154809289Y-88014489D01*
X154783343Y-87963567D01*
X154644517Y-87772490D01*
X154477510Y-87605483D01*
X154286433Y-87466657D01*
X154258077Y-87452209D01*
X154075996Y-87359433D01*
X153851368Y-87286446D01*
X153618097Y-87249500D01*
X153618092Y-87249500D01*
X153381908Y-87249500D01*
X153381903Y-87249500D01*
X153148631Y-87286446D01*
X152924003Y-87359433D01*
X152713566Y-87466657D01*
X152625403Y-87530712D01*
X152522490Y-87605483D01*
X152522488Y-87605485D01*
X152522487Y-87605485D01*
X152355485Y-87772487D01*
X152355485Y-87772488D01*
X152355483Y-87772490D01*
X152346325Y-87785095D01*
X152216657Y-87963566D01*
X152109433Y-88174003D01*
X152036446Y-88398631D01*
X151999500Y-88631902D01*
X145651355Y-88631902D01*
X145644517Y-88622490D01*
X145477510Y-88455483D01*
X145286433Y-88316657D01*
X145075996Y-88209433D01*
X144851368Y-88136446D01*
X144618097Y-88099500D01*
X144618092Y-88099500D01*
X144381908Y-88099500D01*
X144381903Y-88099500D01*
X144148631Y-88136446D01*
X143924003Y-88209433D01*
X143713566Y-88316657D01*
X143654505Y-88359568D01*
X143522490Y-88455483D01*
X143522488Y-88455485D01*
X143522487Y-88455485D01*
X143355485Y-88622487D01*
X143355485Y-88622488D01*
X143355483Y-88622490D01*
X143332139Y-88654620D01*
X143216657Y-88813566D01*
X143109433Y-89024003D01*
X143036446Y-89248631D01*
X142999500Y-89481902D01*
X142999500Y-89718097D01*
X143036447Y-89951369D01*
X143036447Y-89951372D01*
X143108609Y-90173460D01*
X143110604Y-90243301D01*
X143074524Y-90303134D01*
X143011823Y-90333962D01*
X142942409Y-90325997D01*
X142917796Y-90312098D01*
X142786433Y-90216657D01*
X142780341Y-90213553D01*
X142575996Y-90109433D01*
X142351368Y-90036446D01*
X142118097Y-89999500D01*
X142118092Y-89999500D01*
X141881908Y-89999500D01*
X141881903Y-89999500D01*
X141648631Y-90036446D01*
X141424003Y-90109433D01*
X141213566Y-90216657D01*
X141173649Y-90245659D01*
X141022490Y-90355483D01*
X141022488Y-90355485D01*
X141022487Y-90355485D01*
X140855485Y-90522487D01*
X140855485Y-90522488D01*
X140855483Y-90522490D01*
X140831126Y-90556015D01*
X140716657Y-90713566D01*
X140609433Y-90924003D01*
X140536446Y-91148631D01*
X140499500Y-91381902D01*
X140499500Y-91618097D01*
X140536447Y-91851369D01*
X140536447Y-91851372D01*
X140543718Y-91873748D01*
X140545713Y-91943589D01*
X140509633Y-92003422D01*
X140446932Y-92034250D01*
X140377517Y-92026285D01*
X140351608Y-92010280D01*
X140351161Y-92010897D01*
X140181613Y-91887715D01*
X140181612Y-91887714D01*
X140181610Y-91887713D01*
X140110279Y-91851368D01*
X139999223Y-91794781D01*
X139804534Y-91731522D01*
X139629995Y-91703878D01*
X139602352Y-91699500D01*
X139397648Y-91699500D01*
X139373329Y-91703351D01*
X139195465Y-91731522D01*
X139000776Y-91794781D01*
X138818386Y-91887715D01*
X138652786Y-92008028D01*
X138508028Y-92152786D01*
X138387715Y-92318386D01*
X138294781Y-92500776D01*
X138231522Y-92695465D01*
X138199500Y-92897648D01*
X132269568Y-92897648D01*
X132300500Y-92702352D01*
X132300500Y-92497648D01*
X132289376Y-92427416D01*
X132268477Y-92295465D01*
X132222116Y-92152781D01*
X132205220Y-92100781D01*
X132205218Y-92100778D01*
X132205218Y-92100776D01*
X132135524Y-91963996D01*
X132112287Y-91918390D01*
X132096020Y-91896000D01*
X131991971Y-91752786D01*
X131847213Y-91608028D01*
X131681613Y-91487715D01*
X131681612Y-91487714D01*
X131681610Y-91487713D01*
X131610583Y-91451523D01*
X131499223Y-91394781D01*
X131304534Y-91331522D01*
X131129995Y-91303878D01*
X131102352Y-91299500D01*
X130897648Y-91299500D01*
X130873329Y-91303351D01*
X130695465Y-91331522D01*
X130500776Y-91394781D01*
X130318386Y-91487715D01*
X130152786Y-91608028D01*
X130008032Y-91752782D01*
X130008028Y-91752787D01*
X129903978Y-91896000D01*
X129848648Y-91938666D01*
X129779035Y-91944645D01*
X129730778Y-91923435D01*
X129681610Y-91887713D01*
X129652314Y-91872786D01*
X129499223Y-91794781D01*
X129304534Y-91731522D01*
X129129995Y-91703878D01*
X129102352Y-91699500D01*
X128897648Y-91699500D01*
X128873329Y-91703351D01*
X128695465Y-91731522D01*
X128500776Y-91794781D01*
X128318386Y-91887715D01*
X128152786Y-92008028D01*
X128008028Y-92152786D01*
X127887715Y-92318386D01*
X127794781Y-92500776D01*
X127731522Y-92695465D01*
X127699500Y-92897648D01*
X110000500Y-92897648D01*
X110000500Y-90437648D01*
X126239500Y-90437648D01*
X126239500Y-90642351D01*
X126271522Y-90844534D01*
X126334781Y-91039223D01*
X126390528Y-91148631D01*
X126419138Y-91204781D01*
X126427715Y-91221613D01*
X126548028Y-91387213D01*
X126692786Y-91531971D01*
X126797041Y-91607715D01*
X126858390Y-91652287D01*
X126951051Y-91699500D01*
X127040776Y-91745218D01*
X127040778Y-91745218D01*
X127040781Y-91745220D01*
X127145137Y-91779127D01*
X127235465Y-91808477D01*
X127336557Y-91824488D01*
X127437648Y-91840500D01*
X127437649Y-91840500D01*
X127642351Y-91840500D01*
X127642352Y-91840500D01*
X127844534Y-91808477D01*
X128039219Y-91745220D01*
X128221610Y-91652287D01*
X128344799Y-91562786D01*
X128387213Y-91531971D01*
X128387215Y-91531968D01*
X128387219Y-91531966D01*
X128531966Y-91387219D01*
X128531968Y-91387215D01*
X128531971Y-91387213D01*
X128612365Y-91276558D01*
X128652287Y-91221610D01*
X128745220Y-91039219D01*
X128808477Y-90844534D01*
X128840500Y-90642352D01*
X128840500Y-90437648D01*
X128833018Y-90390411D01*
X128808477Y-90235465D01*
X128745218Y-90040776D01*
X128699662Y-89951368D01*
X128652287Y-89858390D01*
X128606072Y-89794780D01*
X128531971Y-89692786D01*
X128387213Y-89548028D01*
X128221613Y-89427715D01*
X128221612Y-89427714D01*
X128221610Y-89427713D01*
X128120326Y-89376106D01*
X128039223Y-89334781D01*
X127844534Y-89271522D01*
X127669995Y-89243878D01*
X127642352Y-89239500D01*
X127437648Y-89239500D01*
X127413329Y-89243351D01*
X127235465Y-89271522D01*
X127040776Y-89334781D01*
X126858386Y-89427715D01*
X126692786Y-89548028D01*
X126548028Y-89692786D01*
X126427715Y-89858386D01*
X126334781Y-90040776D01*
X126271522Y-90235465D01*
X126239500Y-90437648D01*
X110000500Y-90437648D01*
X110000500Y-88162145D01*
X110020185Y-88095106D01*
X110072989Y-88049351D01*
X110142147Y-88039407D01*
X110205703Y-88068432D01*
X110221448Y-88084834D01*
X110240427Y-88108634D01*
X110240431Y-88108638D01*
X110240432Y-88108639D01*
X110491361Y-88359568D01*
X110768807Y-88580824D01*
X110994659Y-88722736D01*
X111069287Y-88769628D01*
X111388991Y-88923589D01*
X111389000Y-88923592D01*
X111389007Y-88923596D01*
X111455268Y-88946782D01*
X111723948Y-89040798D01*
X111723960Y-89040802D01*
X112069930Y-89119767D01*
X112422562Y-89159499D01*
X112422563Y-89159500D01*
X112422566Y-89159500D01*
X112777437Y-89159500D01*
X112777437Y-89159499D01*
X113130070Y-89119767D01*
X113476040Y-89040802D01*
X113570119Y-89007882D01*
X116845669Y-89007882D01*
X116845670Y-89007883D01*
X116871059Y-89026329D01*
X117039362Y-89112085D01*
X117218997Y-89170451D01*
X117405553Y-89200000D01*
X117594447Y-89200000D01*
X117781002Y-89170451D01*
X117960637Y-89112085D01*
X118128937Y-89026331D01*
X118154328Y-89007883D01*
X118154328Y-89007882D01*
X118845669Y-89007882D01*
X118845670Y-89007883D01*
X118871059Y-89026329D01*
X119039362Y-89112085D01*
X119218997Y-89170451D01*
X119405553Y-89200000D01*
X119594447Y-89200000D01*
X119781002Y-89170451D01*
X119960637Y-89112085D01*
X120128937Y-89026331D01*
X120154328Y-89007883D01*
X120154328Y-89007882D01*
X119500001Y-88353554D01*
X119500000Y-88353554D01*
X118845669Y-89007882D01*
X118154328Y-89007882D01*
X117500001Y-88353554D01*
X117500000Y-88353554D01*
X116845669Y-89007882D01*
X113570119Y-89007882D01*
X113810993Y-88923596D01*
X113811008Y-88923589D01*
X113966094Y-88848904D01*
X113966096Y-88848903D01*
X114087883Y-88790253D01*
X114130718Y-88769625D01*
X114431193Y-88580824D01*
X114708639Y-88359568D01*
X114959568Y-88108639D01*
X115121525Y-87905552D01*
X116300000Y-87905552D01*
X116300000Y-88094447D01*
X116329548Y-88281002D01*
X116387914Y-88460637D01*
X116473666Y-88628933D01*
X116492116Y-88654328D01*
X117146446Y-88000000D01*
X117146446Y-87999999D01*
X117100369Y-87953922D01*
X117150000Y-87953922D01*
X117150000Y-88046078D01*
X117173852Y-88135095D01*
X117219930Y-88214905D01*
X117285095Y-88280070D01*
X117364905Y-88326148D01*
X117453922Y-88350000D01*
X117546078Y-88350000D01*
X117635095Y-88326148D01*
X117714905Y-88280070D01*
X117780070Y-88214905D01*
X117826148Y-88135095D01*
X117850000Y-88046078D01*
X117850000Y-88000000D01*
X117853554Y-88000000D01*
X118500000Y-88646446D01*
X119146446Y-88000000D01*
X119100368Y-87953922D01*
X119150000Y-87953922D01*
X119150000Y-88046078D01*
X119173852Y-88135095D01*
X119219930Y-88214905D01*
X119285095Y-88280070D01*
X119364905Y-88326148D01*
X119453922Y-88350000D01*
X119546078Y-88350000D01*
X119635095Y-88326148D01*
X119714905Y-88280070D01*
X119780070Y-88214905D01*
X119826148Y-88135095D01*
X119850000Y-88046078D01*
X119850000Y-87999999D01*
X119853554Y-87999999D01*
X119853554Y-88000000D01*
X120507882Y-88654328D01*
X120507883Y-88654328D01*
X120526331Y-88628937D01*
X120612085Y-88460637D01*
X120670451Y-88281002D01*
X120700000Y-88094447D01*
X120700000Y-87905555D01*
X120699736Y-87903889D01*
X120699736Y-87903886D01*
X120699735Y-87903882D01*
X120697306Y-87888549D01*
X121299500Y-87888549D01*
X121299500Y-88111450D01*
X121299501Y-88111466D01*
X121328594Y-88332452D01*
X121328595Y-88332457D01*
X121328596Y-88332463D01*
X121386290Y-88547780D01*
X121386293Y-88547790D01*
X121458759Y-88722738D01*
X121471595Y-88753726D01*
X121583052Y-88946774D01*
X121583057Y-88946780D01*
X121583058Y-88946782D01*
X121718751Y-89123622D01*
X121718757Y-89123629D01*
X121876370Y-89281242D01*
X121876377Y-89281248D01*
X121925366Y-89318838D01*
X122053226Y-89416948D01*
X122246274Y-89528405D01*
X122452219Y-89613710D01*
X122667537Y-89671404D01*
X122888543Y-89700500D01*
X122888550Y-89700500D01*
X123111450Y-89700500D01*
X123111457Y-89700500D01*
X123332463Y-89671404D01*
X123547781Y-89613710D01*
X123753726Y-89528405D01*
X123938002Y-89422012D01*
X124005899Y-89405540D01*
X124061996Y-89422011D01*
X124246274Y-89528405D01*
X124452219Y-89613710D01*
X124667537Y-89671404D01*
X124888543Y-89700500D01*
X124888550Y-89700500D01*
X125111450Y-89700500D01*
X125111457Y-89700500D01*
X125332463Y-89671404D01*
X125547781Y-89613710D01*
X125753726Y-89528405D01*
X125946774Y-89416948D01*
X126123624Y-89281247D01*
X126281247Y-89123624D01*
X126416948Y-88946774D01*
X126528405Y-88753726D01*
X126613710Y-88547781D01*
X126671404Y-88332463D01*
X126700500Y-88111457D01*
X126700500Y-87888543D01*
X126699626Y-87881902D01*
X133399500Y-87881902D01*
X133399500Y-88118097D01*
X133436446Y-88351368D01*
X133509433Y-88575996D01*
X133584205Y-88722743D01*
X133616657Y-88786433D01*
X133755483Y-88977510D01*
X133922490Y-89144517D01*
X134113567Y-89283343D01*
X134197278Y-89325996D01*
X134324003Y-89390566D01*
X134324005Y-89390566D01*
X134324008Y-89390568D01*
X134438328Y-89427713D01*
X134548631Y-89463553D01*
X134781903Y-89500500D01*
X134781908Y-89500500D01*
X135018097Y-89500500D01*
X135251368Y-89463553D01*
X135475992Y-89390568D01*
X135686433Y-89283343D01*
X135877510Y-89144517D01*
X136042319Y-88979708D01*
X136103642Y-88946223D01*
X136173334Y-88951207D01*
X136217681Y-88979708D01*
X136382490Y-89144517D01*
X136573567Y-89283343D01*
X136657278Y-89325996D01*
X136784003Y-89390566D01*
X136784005Y-89390566D01*
X136784008Y-89390568D01*
X136898328Y-89427713D01*
X137008631Y-89463553D01*
X137241903Y-89500500D01*
X137241908Y-89500500D01*
X137478097Y-89500500D01*
X137711368Y-89463553D01*
X137935992Y-89390568D01*
X138146433Y-89283343D01*
X138337510Y-89144517D01*
X138504517Y-88977510D01*
X138529682Y-88942872D01*
X138585011Y-88900207D01*
X138654625Y-88894228D01*
X138716420Y-88926833D01*
X138730315Y-88942870D01*
X138755483Y-88977510D01*
X138922490Y-89144517D01*
X139113567Y-89283343D01*
X139197278Y-89325996D01*
X139324003Y-89390566D01*
X139324005Y-89390566D01*
X139324008Y-89390568D01*
X139438328Y-89427713D01*
X139548631Y-89463553D01*
X139781903Y-89500500D01*
X139781908Y-89500500D01*
X140018097Y-89500500D01*
X140251368Y-89463553D01*
X140475992Y-89390568D01*
X140686433Y-89283343D01*
X140877510Y-89144517D01*
X141044517Y-88977510D01*
X141183343Y-88786433D01*
X141290568Y-88575992D01*
X141363553Y-88351368D01*
X141366549Y-88332452D01*
X141400500Y-88118097D01*
X141400500Y-87881902D01*
X141363553Y-87648631D01*
X141325238Y-87530712D01*
X141290568Y-87424008D01*
X141290566Y-87424005D01*
X141290566Y-87424003D01*
X141220477Y-87286446D01*
X141183343Y-87213567D01*
X141044517Y-87022490D01*
X140877510Y-86855483D01*
X140781971Y-86786070D01*
X140686431Y-86716655D01*
X140672065Y-86709336D01*
X140614085Y-86679794D01*
X140475996Y-86609433D01*
X140453597Y-86602155D01*
X160870000Y-86602155D01*
X160870000Y-87250000D01*
X161786988Y-87250000D01*
X161754075Y-87307007D01*
X161720000Y-87434174D01*
X161720000Y-87565826D01*
X161754075Y-87692993D01*
X161786988Y-87750000D01*
X160870000Y-87750000D01*
X160870000Y-88397844D01*
X160876401Y-88457372D01*
X160876403Y-88457379D01*
X160926645Y-88592086D01*
X160926649Y-88592093D01*
X161012809Y-88707187D01*
X161012812Y-88707190D01*
X161127906Y-88793350D01*
X161127913Y-88793354D01*
X161262620Y-88843596D01*
X161262627Y-88843598D01*
X161322155Y-88849999D01*
X161322172Y-88850000D01*
X161970000Y-88850000D01*
X161970000Y-87933012D01*
X162027007Y-87965925D01*
X162154174Y-88000000D01*
X162285826Y-88000000D01*
X162412993Y-87965925D01*
X162470000Y-87933012D01*
X162470000Y-88850000D01*
X163117828Y-88850000D01*
X163117844Y-88849999D01*
X163177372Y-88843598D01*
X163177376Y-88843597D01*
X163320398Y-88790253D01*
X163320968Y-88791781D01*
X163379262Y-88779100D01*
X163444727Y-88803515D01*
X163458099Y-88815103D01*
X163537256Y-88894260D01*
X163537263Y-88894266D01*
X163600609Y-88942873D01*
X163729711Y-89041936D01*
X163939788Y-89163224D01*
X164163900Y-89256054D01*
X164398211Y-89318838D01*
X164578586Y-89342584D01*
X164638711Y-89350500D01*
X164638712Y-89350500D01*
X164881289Y-89350500D01*
X164929388Y-89344167D01*
X165121789Y-89318838D01*
X165356100Y-89256054D01*
X165580212Y-89163224D01*
X165790289Y-89041936D01*
X165982738Y-88894265D01*
X166154265Y-88722738D01*
X166271132Y-88570433D01*
X166327557Y-88529232D01*
X166397303Y-88525077D01*
X166442391Y-88545603D01*
X166592442Y-88654620D01*
X166781782Y-88751095D01*
X166983870Y-88816757D01*
X167193754Y-88850000D01*
X167406246Y-88850000D01*
X167616127Y-88816757D01*
X167616130Y-88816757D01*
X167818217Y-88751095D01*
X168007554Y-88654622D01*
X168157606Y-88545603D01*
X168223413Y-88522123D01*
X168291467Y-88537948D01*
X168328868Y-88570434D01*
X168445733Y-88722736D01*
X168445739Y-88722743D01*
X168617256Y-88894260D01*
X168617263Y-88894266D01*
X168680609Y-88942873D01*
X168809711Y-89041936D01*
X169019788Y-89163224D01*
X169243900Y-89256054D01*
X169478211Y-89318838D01*
X169658586Y-89342584D01*
X169718711Y-89350500D01*
X169718712Y-89350500D01*
X169961289Y-89350500D01*
X170009388Y-89344167D01*
X170201789Y-89318838D01*
X170436100Y-89256054D01*
X170660212Y-89163224D01*
X170870289Y-89041936D01*
X171034514Y-88915922D01*
X171099683Y-88890728D01*
X171168128Y-88904766D01*
X171185486Y-88915922D01*
X171349711Y-89041936D01*
X171559788Y-89163224D01*
X171783900Y-89256054D01*
X171987235Y-89310538D01*
X172046894Y-89346902D01*
X172077423Y-89409749D01*
X172069128Y-89479125D01*
X172042822Y-89517993D01*
X171908027Y-89652788D01*
X171787715Y-89818386D01*
X171694781Y-90000776D01*
X171631522Y-90195465D01*
X171599500Y-90397648D01*
X171599500Y-90602351D01*
X171631522Y-90804534D01*
X171694781Y-90999223D01*
X171746385Y-91100500D01*
X171780474Y-91167403D01*
X171787715Y-91181613D01*
X171908028Y-91347213D01*
X172052786Y-91491971D01*
X172183475Y-91586920D01*
X172218390Y-91612287D01*
X172334607Y-91671503D01*
X172400776Y-91705218D01*
X172400778Y-91705218D01*
X172400781Y-91705220D01*
X172498110Y-91736844D01*
X172595465Y-91768477D01*
X172696557Y-91784488D01*
X172797648Y-91800500D01*
X172797649Y-91800500D01*
X173002351Y-91800500D01*
X173002352Y-91800500D01*
X173204534Y-91768477D01*
X173399219Y-91705220D01*
X173581610Y-91612287D01*
X173678134Y-91542159D01*
X173747213Y-91491971D01*
X173747215Y-91491968D01*
X173747219Y-91491966D01*
X173891966Y-91347219D01*
X173891968Y-91347215D01*
X173891971Y-91347213D01*
X173983223Y-91221613D01*
X174012287Y-91181610D01*
X174105220Y-90999219D01*
X174168477Y-90804534D01*
X174200500Y-90602352D01*
X174200500Y-90397648D01*
X174176426Y-90245653D01*
X174168477Y-90195465D01*
X174118215Y-90040776D01*
X174105220Y-90000781D01*
X174105218Y-90000778D01*
X174105218Y-90000776D01*
X174071503Y-89934607D01*
X174012287Y-89818390D01*
X173995134Y-89794781D01*
X173891971Y-89652786D01*
X173747213Y-89508028D01*
X173581613Y-89387715D01*
X173581612Y-89387714D01*
X173581610Y-89387713D01*
X173460476Y-89325992D01*
X173399218Y-89294779D01*
X173390942Y-89292090D01*
X173333268Y-89252651D01*
X173306073Y-89188291D01*
X173317990Y-89119445D01*
X173365236Y-89067971D01*
X173367126Y-89066856D01*
X173410289Y-89041936D01*
X173430629Y-89026329D01*
X173574514Y-88915922D01*
X173639683Y-88890728D01*
X173708128Y-88904766D01*
X173725486Y-88915922D01*
X173889711Y-89041936D01*
X174099788Y-89163224D01*
X174323900Y-89256054D01*
X174558211Y-89318838D01*
X174738586Y-89342584D01*
X174798711Y-89350500D01*
X174798712Y-89350500D01*
X175041289Y-89350500D01*
X175089388Y-89344167D01*
X175281789Y-89318838D01*
X175516100Y-89256054D01*
X175740212Y-89163224D01*
X175950289Y-89041936D01*
X176142738Y-88894265D01*
X176314265Y-88722738D01*
X176431132Y-88570433D01*
X176487557Y-88529232D01*
X176557303Y-88525077D01*
X176602391Y-88545603D01*
X176752442Y-88654620D01*
X176941782Y-88751095D01*
X177143870Y-88816757D01*
X177353754Y-88850000D01*
X177566246Y-88850000D01*
X177776127Y-88816757D01*
X177776130Y-88816757D01*
X177978217Y-88751095D01*
X178167554Y-88654622D01*
X178317606Y-88545603D01*
X178383413Y-88522123D01*
X178451467Y-88537948D01*
X178488868Y-88570434D01*
X178605733Y-88722736D01*
X178605739Y-88722743D01*
X178777256Y-88894260D01*
X178777263Y-88894266D01*
X178840609Y-88942873D01*
X178969711Y-89041936D01*
X179179788Y-89163224D01*
X179403900Y-89256054D01*
X179638211Y-89318838D01*
X179818586Y-89342584D01*
X179878711Y-89350500D01*
X179878712Y-89350500D01*
X180121289Y-89350500D01*
X180169388Y-89344167D01*
X180361789Y-89318838D01*
X180596100Y-89256054D01*
X180820212Y-89163224D01*
X181030289Y-89041936D01*
X181222738Y-88894265D01*
X181394265Y-88722738D01*
X181541936Y-88530289D01*
X181663224Y-88320212D01*
X181756054Y-88096100D01*
X181818838Y-87861789D01*
X181850500Y-87621288D01*
X181850500Y-87378712D01*
X181849492Y-87371059D01*
X181833065Y-87246277D01*
X181818838Y-87138211D01*
X181756054Y-86903900D01*
X181663224Y-86679788D01*
X181541936Y-86469711D01*
X181394265Y-86277262D01*
X181394260Y-86277256D01*
X181222743Y-86105739D01*
X181222736Y-86105733D01*
X181030293Y-85958067D01*
X181030292Y-85958066D01*
X181030289Y-85958064D01*
X180820212Y-85836776D01*
X180785894Y-85822561D01*
X180596104Y-85743947D01*
X180361785Y-85681161D01*
X180121289Y-85649500D01*
X180121288Y-85649500D01*
X179878712Y-85649500D01*
X179878711Y-85649500D01*
X179638214Y-85681161D01*
X179403895Y-85743947D01*
X179179794Y-85836773D01*
X179179785Y-85836777D01*
X178969706Y-85958067D01*
X178777263Y-86105733D01*
X178777256Y-86105739D01*
X178605739Y-86277256D01*
X178605733Y-86277263D01*
X178488869Y-86429564D01*
X178432441Y-86470767D01*
X178362695Y-86474922D01*
X178317608Y-86454396D01*
X178167557Y-86345379D01*
X177978217Y-86248904D01*
X177776129Y-86183242D01*
X177566246Y-86150000D01*
X177353754Y-86150000D01*
X177143872Y-86183242D01*
X177143869Y-86183242D01*
X176941782Y-86248904D01*
X176752446Y-86345376D01*
X176602391Y-86454397D01*
X176536584Y-86477876D01*
X176468530Y-86462050D01*
X176431130Y-86429564D01*
X176314266Y-86277263D01*
X176314260Y-86277256D01*
X176142743Y-86105739D01*
X176142736Y-86105733D01*
X175950293Y-85958067D01*
X175950292Y-85958066D01*
X175950289Y-85958064D01*
X175740212Y-85836776D01*
X175705894Y-85822561D01*
X175516104Y-85743947D01*
X175281785Y-85681161D01*
X175041289Y-85649500D01*
X175041288Y-85649500D01*
X174798712Y-85649500D01*
X174798711Y-85649500D01*
X174558214Y-85681161D01*
X174323895Y-85743947D01*
X174099794Y-85836773D01*
X174099785Y-85836777D01*
X173889706Y-85958067D01*
X173725486Y-86084077D01*
X173660317Y-86109271D01*
X173591872Y-86095232D01*
X173574514Y-86084077D01*
X173410293Y-85958067D01*
X173410292Y-85958066D01*
X173410289Y-85958064D01*
X173200212Y-85836776D01*
X173165894Y-85822561D01*
X172976104Y-85743947D01*
X172741785Y-85681161D01*
X172501289Y-85649500D01*
X172501288Y-85649500D01*
X172258712Y-85649500D01*
X172258711Y-85649500D01*
X172018214Y-85681161D01*
X171783895Y-85743947D01*
X171559794Y-85836773D01*
X171559785Y-85836777D01*
X171349706Y-85958067D01*
X171185486Y-86084077D01*
X171120317Y-86109271D01*
X171051872Y-86095232D01*
X171034514Y-86084077D01*
X170870293Y-85958067D01*
X170870292Y-85958066D01*
X170870289Y-85958064D01*
X170660212Y-85836776D01*
X170625894Y-85822561D01*
X170436104Y-85743947D01*
X170201785Y-85681161D01*
X169961289Y-85649500D01*
X169961288Y-85649500D01*
X169718712Y-85649500D01*
X169718711Y-85649500D01*
X169478214Y-85681161D01*
X169243895Y-85743947D01*
X169019794Y-85836773D01*
X169019785Y-85836777D01*
X168809706Y-85958067D01*
X168617263Y-86105733D01*
X168617256Y-86105739D01*
X168445739Y-86277256D01*
X168445733Y-86277263D01*
X168328869Y-86429564D01*
X168272441Y-86470767D01*
X168202695Y-86474922D01*
X168157608Y-86454396D01*
X168007557Y-86345379D01*
X167818217Y-86248904D01*
X167616129Y-86183242D01*
X167406246Y-86150000D01*
X167193754Y-86150000D01*
X166983872Y-86183242D01*
X166983869Y-86183242D01*
X166781782Y-86248904D01*
X166592446Y-86345376D01*
X166442391Y-86454397D01*
X166376584Y-86477876D01*
X166308530Y-86462050D01*
X166271130Y-86429564D01*
X166154266Y-86277263D01*
X166154260Y-86277256D01*
X165982743Y-86105739D01*
X165982736Y-86105733D01*
X165790293Y-85958067D01*
X165790292Y-85958066D01*
X165790289Y-85958064D01*
X165580212Y-85836776D01*
X165545894Y-85822561D01*
X165356104Y-85743947D01*
X165121785Y-85681161D01*
X164881289Y-85649500D01*
X164881288Y-85649500D01*
X164638712Y-85649500D01*
X164638711Y-85649500D01*
X164398214Y-85681161D01*
X164163895Y-85743947D01*
X163939794Y-85836773D01*
X163939785Y-85836777D01*
X163729706Y-85958067D01*
X163537264Y-86105732D01*
X163458099Y-86184897D01*
X163396775Y-86218381D01*
X163327084Y-86213397D01*
X163313261Y-86207083D01*
X163177379Y-86156403D01*
X163177372Y-86156401D01*
X163117844Y-86150000D01*
X162470000Y-86150000D01*
X162470000Y-87066988D01*
X162412993Y-87034075D01*
X162285826Y-87000000D01*
X162154174Y-87000000D01*
X162027007Y-87034075D01*
X161970000Y-87066988D01*
X161970000Y-86150000D01*
X161322155Y-86150000D01*
X161262627Y-86156401D01*
X161262620Y-86156403D01*
X161127913Y-86206645D01*
X161127906Y-86206649D01*
X161012812Y-86292809D01*
X161012809Y-86292812D01*
X160926649Y-86407906D01*
X160926645Y-86407913D01*
X160876403Y-86542620D01*
X160876401Y-86542627D01*
X160870000Y-86602155D01*
X140453597Y-86602155D01*
X140251368Y-86536446D01*
X140018097Y-86499500D01*
X140018092Y-86499500D01*
X139781908Y-86499500D01*
X139781903Y-86499500D01*
X139548631Y-86536446D01*
X139324003Y-86609433D01*
X139113566Y-86716657D01*
X139004550Y-86795862D01*
X138922490Y-86855483D01*
X138922488Y-86855485D01*
X138922487Y-86855485D01*
X138755484Y-87022488D01*
X138755483Y-87022490D01*
X138732752Y-87053777D01*
X138730318Y-87057127D01*
X138674987Y-87099792D01*
X138605374Y-87105771D01*
X138543579Y-87073165D01*
X138529682Y-87057127D01*
X138504517Y-87022490D01*
X138337510Y-86855483D01*
X138146433Y-86716657D01*
X138132065Y-86709336D01*
X137935996Y-86609433D01*
X137711368Y-86536446D01*
X137478097Y-86499500D01*
X137478092Y-86499500D01*
X137241908Y-86499500D01*
X137241903Y-86499500D01*
X137008631Y-86536446D01*
X136784003Y-86609433D01*
X136573566Y-86716657D01*
X136464550Y-86795862D01*
X136382490Y-86855483D01*
X136382488Y-86855485D01*
X136382487Y-86855485D01*
X136217681Y-87020292D01*
X136156358Y-87053777D01*
X136086666Y-87048793D01*
X136042319Y-87020292D01*
X135877512Y-86855485D01*
X135877510Y-86855483D01*
X135686433Y-86716657D01*
X135672065Y-86709336D01*
X135475996Y-86609433D01*
X135251368Y-86536446D01*
X135018097Y-86499500D01*
X135018092Y-86499500D01*
X134781908Y-86499500D01*
X134781903Y-86499500D01*
X134548631Y-86536446D01*
X134324003Y-86609433D01*
X134113566Y-86716657D01*
X134004550Y-86795862D01*
X133922490Y-86855483D01*
X133922488Y-86855485D01*
X133922487Y-86855485D01*
X133755485Y-87022487D01*
X133755485Y-87022488D01*
X133755483Y-87022490D01*
X133699320Y-87099792D01*
X133616657Y-87213566D01*
X133509433Y-87424003D01*
X133436446Y-87648631D01*
X133399500Y-87881902D01*
X126699626Y-87881902D01*
X126671404Y-87667537D01*
X126613710Y-87452219D01*
X126528405Y-87246274D01*
X126416948Y-87053226D01*
X126302363Y-86903895D01*
X126281248Y-86876377D01*
X126281242Y-86876370D01*
X126123629Y-86718757D01*
X126123622Y-86718751D01*
X125946782Y-86583058D01*
X125946780Y-86583057D01*
X125946774Y-86583052D01*
X125753726Y-86471595D01*
X125753722Y-86471593D01*
X125547790Y-86386293D01*
X125547783Y-86386291D01*
X125547781Y-86386290D01*
X125332463Y-86328596D01*
X125332457Y-86328595D01*
X125332452Y-86328594D01*
X125111466Y-86299501D01*
X125111463Y-86299500D01*
X125111457Y-86299500D01*
X124888543Y-86299500D01*
X124888537Y-86299500D01*
X124888533Y-86299501D01*
X124667547Y-86328594D01*
X124667540Y-86328595D01*
X124667537Y-86328596D01*
X124604913Y-86345376D01*
X124452219Y-86386290D01*
X124452209Y-86386293D01*
X124246277Y-86471593D01*
X124246266Y-86471598D01*
X124062000Y-86577986D01*
X123994100Y-86594459D01*
X123938000Y-86577986D01*
X123753733Y-86471598D01*
X123753722Y-86471593D01*
X123547790Y-86386293D01*
X123547783Y-86386291D01*
X123547781Y-86386290D01*
X123332463Y-86328596D01*
X123332457Y-86328595D01*
X123332452Y-86328594D01*
X123111466Y-86299501D01*
X123111463Y-86299500D01*
X123111457Y-86299500D01*
X122888543Y-86299500D01*
X122888537Y-86299500D01*
X122888533Y-86299501D01*
X122667547Y-86328594D01*
X122667540Y-86328595D01*
X122667537Y-86328596D01*
X122604913Y-86345376D01*
X122452219Y-86386290D01*
X122452209Y-86386293D01*
X122246277Y-86471593D01*
X122246273Y-86471595D01*
X122053226Y-86583052D01*
X122053217Y-86583058D01*
X121876377Y-86718751D01*
X121876370Y-86718757D01*
X121718757Y-86876370D01*
X121718751Y-86876377D01*
X121583058Y-87053217D01*
X121583052Y-87053226D01*
X121471595Y-87246273D01*
X121471593Y-87246277D01*
X121386293Y-87452209D01*
X121386290Y-87452219D01*
X121328597Y-87667534D01*
X121328594Y-87667547D01*
X121299501Y-87888533D01*
X121299500Y-87888549D01*
X120697306Y-87888549D01*
X120670451Y-87718997D01*
X120612085Y-87539362D01*
X120526329Y-87371059D01*
X120507883Y-87345670D01*
X120507882Y-87345669D01*
X119853554Y-87999999D01*
X119850000Y-87999999D01*
X119850000Y-87953922D01*
X119826148Y-87864905D01*
X119780070Y-87785095D01*
X119714905Y-87719930D01*
X119635095Y-87673852D01*
X119546078Y-87650000D01*
X119453922Y-87650000D01*
X119364905Y-87673852D01*
X119285095Y-87719930D01*
X119219930Y-87785095D01*
X119173852Y-87864905D01*
X119150000Y-87953922D01*
X119100368Y-87953922D01*
X118500000Y-87353554D01*
X117853554Y-88000000D01*
X117850000Y-88000000D01*
X117850000Y-87953922D01*
X117826148Y-87864905D01*
X117780070Y-87785095D01*
X117714905Y-87719930D01*
X117635095Y-87673852D01*
X117546078Y-87650000D01*
X117453922Y-87650000D01*
X117364905Y-87673852D01*
X117285095Y-87719930D01*
X117219930Y-87785095D01*
X117173852Y-87864905D01*
X117150000Y-87953922D01*
X117100369Y-87953922D01*
X116492116Y-87345669D01*
X116492116Y-87345670D01*
X116473669Y-87371060D01*
X116387914Y-87539362D01*
X116329548Y-87718997D01*
X116300000Y-87905552D01*
X115121525Y-87905552D01*
X115180824Y-87831193D01*
X115369625Y-87530718D01*
X115446512Y-87371060D01*
X115523589Y-87211008D01*
X115523590Y-87211004D01*
X115523596Y-87210993D01*
X115562507Y-87099792D01*
X115597980Y-86998420D01*
X115600186Y-86992116D01*
X116845669Y-86992116D01*
X117500000Y-87646446D01*
X117500001Y-87646446D01*
X118154328Y-86992116D01*
X118845669Y-86992116D01*
X119500000Y-87646446D01*
X119500001Y-87646446D01*
X120154328Y-86992116D01*
X120128933Y-86973666D01*
X119960637Y-86887914D01*
X119781002Y-86829548D01*
X119594447Y-86800000D01*
X119405553Y-86800000D01*
X119218997Y-86829548D01*
X119039362Y-86887914D01*
X118871060Y-86973669D01*
X118845670Y-86992116D01*
X118845669Y-86992116D01*
X118154328Y-86992116D01*
X118128933Y-86973666D01*
X117960637Y-86887914D01*
X117781002Y-86829548D01*
X117594447Y-86800000D01*
X117405553Y-86800000D01*
X117218997Y-86829548D01*
X117039362Y-86887914D01*
X116871060Y-86973669D01*
X116845670Y-86992116D01*
X116845669Y-86992116D01*
X115600186Y-86992116D01*
X115640684Y-86876376D01*
X115640802Y-86876040D01*
X115719767Y-86530070D01*
X115759500Y-86177434D01*
X115759500Y-85822566D01*
X115719767Y-85469930D01*
X115640802Y-85123960D01*
X115523596Y-84789007D01*
X115523592Y-84789000D01*
X115523589Y-84788991D01*
X115369628Y-84469287D01*
X115369625Y-84469282D01*
X115180824Y-84168807D01*
X114959568Y-83891361D01*
X114780388Y-83712181D01*
X114746903Y-83650858D01*
X114751887Y-83581166D01*
X114793759Y-83525233D01*
X114859223Y-83500816D01*
X114868069Y-83500500D01*
X184581931Y-83500500D01*
X184648970Y-83520185D01*
G37*
%TD.AperFunction*%
%TD*%
M02*
